<svg width="1366" height="768" viewBox="0 0 1366 768" fill="none" xmlns="http://www.w3.org/2000/svg">
<g clip-path="url(#clip0)">
<path d="M1366 0H0V768H1366V0Z" fill="#E5E9F6"/>
<path d="M156 160.85C156 146.27 192.18 143.18 206.48 143.18C235.48 143.18 237.4 126.58 261.48 126.58C282.65 126.58 293.42 143.72 313.13 143.72C355.43 143.72 364.85 95 406 95C447.87 95 445.73 145.86 484.69 145.86C504.5 145.86 623.51 149.6 623.51 160.86L156 160.85Z" fill="white"/>
<path d="M633 159.4C633 150.19 664.36 135.78 681.51 135.78C715.34 135.78 704.78 147.59 726.06 147.59C750.31 147.59 755.85 95 792.75 95C833.08 95 826.75 146.44 851.5 146.44C862.16 146.44 867.5 141.44 882.65 141.44C891.44 141.44 901.06 150.22 901.06 159.44L633 159.4Z" fill="white"/>
<path d="M938.15 767.97C938.32 764.33 938.43 760.68 938.43 756.97C938.43 581.65 750.07 439.5 517.72 439.5C285.37 439.5 97 581.65 97 757.01C97 760.68 97.11 764.33 97.28 768.01L938.15 767.97Z" fill="#8597DD"/>
<path d="M1178.72 767.97C1178.84 765.4 1178.93 762.82 1178.93 760.23C1178.93 636.37 1038.28 535.96 864.78 535.96C691.28 535.96 550.63 636.37 550.63 760.23C550.63 762.82 550.71 765.4 550.84 767.97H1178.72Z" fill="#AFBBE8"/>
<path d="M453.497 204.095C456.235 204.964 458.579 206.77 460.117 209.197C461.655 211.624 462.287 214.515 461.903 217.362C461.003 226.785 451.49 229.762 443.032 229.513V230.505L462.864 255.427" stroke="#3C54AF" stroke-width="5" stroke-miterlimit="10"/>
<path d="M440 204H473" stroke="#3C54AF" stroke-width="5" stroke-miterlimit="10"/>
<path d="M473 216H440" stroke="#3C54AF" stroke-width="5" stroke-miterlimit="10"/>
<path d="M320.049 273.226H294.212C294.212 273.226 276.125 288.725 276.125 306.813C276.125 317.144 283.903 322.313 289.044 322.313H325.218C330.38 322.313 338.137 317.144 338.137 306.813C338.137 288.725 320.049 273.226 320.049 273.226ZM309.712 309.132V313.268H304.55V309.146C300.75 308.439 298.356 306.091 298.186 302.683H302.662C302.881 304.472 304.684 305.624 307.293 305.624C309.693 305.624 311.401 304.457 311.401 302.796C311.401 301.382 310.301 300.576 307.583 299.968L304.705 299.353C300.675 298.512 298.695 296.412 298.695 293.039C298.695 289.666 300.944 287.234 304.521 286.439V282.27H309.683V286.446C313.176 287.224 315.502 289.607 315.615 292.81H311.295C311.076 291.063 309.449 289.897 307.215 289.897C304.981 289.897 303.368 290.972 303.368 292.655C303.368 294.02 304.422 294.776 307.017 295.355L309.683 295.921C314.131 296.854 316.047 298.749 316.047 302.207C316.047 305.901 313.675 308.375 309.712 309.132Z" fill="#3C54AF"/>
<path d="M320.05 257.719H312.908C312.179 256.91 311.288 256.263 310.292 255.82C309.297 255.378 308.22 255.149 307.131 255.149C306.042 255.149 304.965 255.378 303.97 255.82C302.974 256.263 302.083 256.91 301.354 257.719H294.213C293.792 257.72 293.378 257.824 293.006 258.022C292.635 258.22 292.317 258.505 292.08 258.853C291.844 259.201 291.696 259.602 291.649 260.02C291.603 260.439 291.659 260.862 291.813 261.254L294.213 268.054H320.05L322.45 261.254C322.604 260.862 322.66 260.439 322.614 260.02C322.567 259.602 322.419 259.201 322.183 258.853C321.946 258.505 321.628 258.22 321.257 258.022C320.885 257.824 320.471 257.72 320.05 257.719Z" fill="#3C54AF"/>
<path d="M592.091 305.893V292.493C602.714 292.818 610 296.551 610 299.924V301.416C610 304.789 602.714 308.521 592.091 308.847V305.893ZM592.091 313.355V311.829C599.934 311.608 606.429 309.674 610 306.755V308.877C610 312.25 602.714 315.982 592.091 316.308V313.355ZM592.091 320.817V319.292C599.934 319.071 606.429 317.137 610 314.218V316.34C610 319.713 602.714 323.445 592.091 323.771V320.817ZM571.197 298.43V285.03C581.82 285.355 589.106 289.088 589.106 292.461V293.95C589.106 297.323 581.82 301.055 571.197 301.381V298.43ZM571.197 305.892V304.367C579.04 304.15 585.535 302.212 589.109 299.293V301.415C589.109 304.788 581.823 308.52 571.2 308.846L571.197 305.892ZM571.197 313.354V311.829C579.04 311.608 585.535 309.674 589.106 306.755V308.877C589.106 312.25 581.82 315.982 571.197 316.308V313.354ZM571.197 322.309V319.292C579.04 319.071 585.535 317.137 589.106 314.218V316.34C589.106 319.713 581.82 323.445 571.197 323.771V322.309ZM571.197 326.753C579.04 326.532 585.535 324.598 589.106 321.679V323.801C589.106 327.174 581.82 330.906 571.197 331.232V326.753ZM529.409 262.612C529.409 259.083 537.377 255.15 548.809 255.15C560.241 255.15 568.209 259.083 568.209 262.612V264.104C568.209 267.634 560.241 271.566 548.809 271.566C537.377 271.566 529.409 267.634 529.409 264.105V262.612ZM529.409 269.45C533.209 272.55 540.304 274.55 548.809 274.55C557.314 274.55 564.409 272.55 568.209 269.45V271.565C568.209 275.095 560.241 279.027 548.809 279.027C537.377 279.027 529.409 275.096 529.409 271.567V269.45ZM529.409 276.912C533.209 280.012 540.304 282.012 548.809 282.012C557.314 282.012 564.409 280.012 568.209 276.912V279.027C568.209 282.557 560.241 286.489 548.809 286.489C537.377 286.489 529.409 282.558 529.409 279.029V276.912ZM529.409 284.374C533.209 287.474 540.304 289.474 548.809 289.474C557.314 289.474 564.409 287.474 568.209 284.374V286.489C568.209 290.019 560.241 293.951 548.809 293.951C537.377 293.951 529.409 290.021 529.409 286.491V284.374ZM529.409 291.836C533.209 294.936 540.304 296.936 548.809 296.936C557.314 296.936 564.409 294.936 568.209 291.836V293.95C568.209 297.48 560.241 301.412 548.809 301.412C537.377 301.412 529.409 297.483 529.409 293.95V291.836ZM529.409 299.3C533.209 302.4 540.304 304.4 548.809 304.4C557.314 304.4 564.409 302.4 568.209 299.3V301.415C568.209 304.945 560.241 308.877 548.809 308.877C537.377 308.877 529.409 304.945 529.409 301.415V299.3ZM529.409 306.762C533.209 309.862 540.304 311.862 548.809 311.862C557.314 311.862 564.409 309.862 568.209 306.762V308.877C568.209 312.407 560.241 316.339 548.809 316.339C537.377 316.339 529.409 312.407 529.409 308.877V306.762ZM529.409 314.224C533.209 317.324 540.304 319.324 548.809 319.324C557.314 319.324 564.409 317.324 568.209 314.224V316.34C568.209 319.87 560.241 323.802 548.809 323.802C537.377 323.802 529.409 319.869 529.409 316.34V314.224ZM529.409 322.308V321.686C533.209 324.786 540.304 326.786 548.809 326.786C557.314 326.786 564.409 324.786 568.209 321.686V323.801C568.209 327.331 560.241 331.263 548.809 331.263C537.377 331.263 529.409 327.331 529.409 323.802V322.308ZM529.409 329.15C533.209 332.25 540.304 334.25 548.809 334.25C557.314 334.25 564.409 332.25 568.209 329.15V331.265C568.209 334.795 560.241 338.727 548.809 338.727C537.377 338.727 529.409 334.793 529.409 331.264V329.15Z" fill="#3C54AF"/>
<path d="M428.391 591.408C430.551 591.408 432.302 589.657 432.302 587.497C432.302 585.337 430.551 583.586 428.391 583.586C426.231 583.586 424.48 585.337 424.48 587.497C424.48 589.657 426.231 591.408 428.391 591.408Z" fill="white" stroke="#969696" stroke-width="1.14" stroke-linecap="round" stroke-linejoin="round"/>
<path d="M392.861 609.806H352.131V674.847H392.861V609.806Z" fill="#FBDC8E"/>
<path d="M448.744 587.497H408.014V674.847H448.744V587.497Z" fill="#FBDC8E"/>
<path d="M504.628 529.904H463.898V674.847H504.628V529.904Z" fill="#FBDC8E"/>
<path d="M560.511 487.125H519.781V674.847H560.511V487.125Z" fill="#FBDC8E"/>
<path d="M331.286 665.084L372.449 609.564L428.391 588.005L484.274 529.905L540.216 487.126L576.602 407.504" stroke="#030F44" stroke-width="2.31" stroke-linecap="round" stroke-linejoin="round"/>
<path d="M576.602 407.504L568.334 380.382" stroke="#0C3559" stroke-miterlimit="10" stroke-linecap="round"/>
<path d="M562.42 403.651C573.331 403.651 582.176 401.528 582.176 398.908C582.176 396.289 573.331 394.165 562.42 394.165C551.509 394.165 542.664 396.289 542.664 398.908C542.664 401.528 551.509 403.651 562.42 403.651Z" fill="#694827"/>
<path d="M422.723 687.811C422.723 689.544 422.137 699.721 423.59 701.442C426.225 704.557 447.761 703.304 448.78 702.309C449.799 701.314 450.419 699.209 449.518 698.585C448.617 697.961 440.079 696.173 438.978 695.353C437.877 694.533 436.261 690.259 436.893 687.964" fill="#0C3559"/>
<path d="M460.537 660.068C461.919 661.087 470.397 666.768 470.889 668.968C471.789 672.95 457.82 689.38 456.415 689.591C455.01 689.802 452.902 689.041 452.995 687.952C453.088 686.863 456.754 678.958 456.789 677.541C456.824 676.124 454.365 672.295 452.105 671.416" fill="#0C3559"/>
<path d="M375.048 475.324C375.048 475.324 361.971 587.38 364.509 593.669C365.949 597.182 452.245 671.908 452.245 671.908L461.426 659.846L407.088 596.011L394.617 477.265C390.905 474.349 386.08 471.538 375.048 475.324Z" fill="#203999"/>
<path d="M438.709 477.698V688.49H419.503L384.453 476.527C384.453 476.527 415.803 464.558 438.709 477.698Z" fill="#3C54AF"/>
<path d="M406.656 378.005C452.585 378.005 550.264 394.177 553.508 394.4V411.575C553.508 411.575 456.438 417.793 446.73 418.601C445.981 426.318 441.472 475.983 438.708 477.728C435.944 479.473 377.039 477.096 375.049 475.386C374.698 479.356 371.849 503.937 371.849 503.937C356.349 494.92 337.537 449.637 337.537 444.447C337.537 416.072 363.664 384.57 366.437 383.013C369.21 381.456 388.763 378.005 406.656 378.005Z" fill="#F2A922"/>
<path d="M413.518 381.798C413.518 384.761 397.218 384.983 397.218 381.798V361.984H413.518V381.798Z" fill="#694827"/>
<path d="M397.217 373.824C397.217 372.056 401.245 365.978 404.361 367.008C400.52 365.65 398.623 361.036 397.217 361.984V373.824Z" fill="#0C3559"/>
<path d="M375.049 475.32C374.37 470.753 371.793 432.553 373.503 419.882" stroke="#0C3559" stroke-width="0.62" stroke-miterlimit="10" stroke-linecap="round"/>
<path d="M412.605 368.671C424.299 368.671 433.778 359.191 433.778 347.498C433.778 335.804 424.299 326.325 412.605 326.325C400.911 326.325 391.432 335.804 391.432 347.498C391.432 359.191 400.911 368.671 412.605 368.671Z" fill="#694827"/>
<path d="M434.013 352.183C435.966 352.183 437.55 351.36 437.55 350.344C437.55 349.328 435.966 348.505 434.013 348.505C432.06 348.505 430.476 349.328 430.476 350.344C430.476 351.36 432.06 352.183 434.013 352.183Z" fill="#FA9E9F"/>
<path d="M411.809 352.183C413.762 352.183 415.346 351.36 415.346 350.344C415.346 349.328 413.762 348.505 411.809 348.505C409.856 348.505 408.272 349.328 408.272 350.344C408.272 351.36 409.856 352.183 411.809 352.183Z" fill="#FA9E9F"/>
<path d="M425.393 346.526C426.049 347.463 429.445 351.426 425.861 353.026" stroke="#0C3559" stroke-width="0.69" stroke-miterlimit="10" stroke-linecap="round"/>
<path d="M418.741 357.71C417.687 357.71 416.048 356.387 415.228 355.204" stroke="#0C3559" stroke-width="0.69" stroke-miterlimit="10" stroke-linecap="round"/>
<path d="M392.369 335.155C392.369 327.812 402.616 322.332 409.748 322.332C419.011 322.482 428.227 323.681 437.221 325.904C441.05 327.239 441.659 331.314 441.659 332.684C441.659 338.399 439.574 341.959 433.274 342.872C432.84 340.854 432.089 338.917 431.049 337.134C429.295 336.457 427.357 336.424 425.58 337.04C423.98 337.602 410.532 343.926 400.601 343.926C399.266 345.788 396.362 357.183 397.217 361.984C394.301 362.148 388.938 352.674 388.668 347.709C388.606 346.01 388.942 344.321 389.649 342.775C390.357 341.23 391.416 339.872 392.743 338.809C392.638 337.802 392.369 335.742 392.369 335.155Z" fill="#0C3559"/>
<path d="M399.7 353.167C402.274 353.167 404.361 351.08 404.361 348.506C404.361 345.932 402.274 343.845 399.7 343.845C397.126 343.845 395.039 345.932 395.039 348.506C395.039 351.08 397.126 353.167 399.7 353.167Z" fill="#694827"/>
<path d="M446.73 418.606H430.63C430.63 418.606 445.63 430.914 444.495 441.161C445.078 435.481 446.73 418.606 446.73 418.606Z" fill="#0C3559"/>
<path d="M372.496 613.717C374.656 613.717 376.407 611.966 376.407 609.806C376.407 607.646 374.656 605.895 372.496 605.895C370.336 605.895 368.585 607.646 368.585 609.806C368.585 611.966 370.336 613.717 372.496 613.717Z" fill="white" stroke="#969696" stroke-width="1.14" stroke-linecap="round" stroke-linejoin="round"/>
<path d="M484.274 533.815C486.434 533.815 488.185 532.064 488.185 529.904C488.185 527.744 486.434 525.993 484.274 525.993C482.114 525.993 480.363 527.744 480.363 529.904C480.363 532.064 482.114 533.815 484.274 533.815Z" fill="white" stroke="#969696" stroke-width="1.14" stroke-linecap="round" stroke-linejoin="round"/>
<path d="M540.158 491.035C542.318 491.035 544.069 489.284 544.069 487.124C544.069 484.964 542.318 483.213 540.158 483.213C537.998 483.213 536.247 484.964 536.247 487.124C536.247 489.284 537.998 491.035 540.158 491.035Z" fill="white" stroke="#969696" stroke-width="1.14" stroke-linecap="round" stroke-linejoin="round"/>
<path d="M347.168 405.509L282.652 417.594L300.581 513.303L365.097 501.218L347.168 405.509Z" fill="#AFBBE8"/>
<path d="M302.345 454.89L294.081 456.438L295.629 464.702L303.893 463.154L302.345 454.89Z" fill="#317EC2"/>
<path d="M343.671 447.144L335.407 448.692L336.955 456.956L345.219 455.408L343.671 447.144Z" fill="#317EC2"/>
<path d="M329.895 449.718L321.631 451.266L323.179 459.53L331.443 457.982L329.895 449.718Z" fill="#317EC2"/>
<path d="M315.786 452.326L307.542 453.842L309.058 462.086L317.302 460.57L315.786 452.326Z" fill="#317EC2"/>
<path d="M299.979 442.262L291.715 443.81L293.263 452.074L301.527 450.526L299.979 442.262Z" fill="#317EC2"/>
<path d="M341.305 434.527L333.041 436.075L334.589 444.339L342.853 442.791L341.305 434.527Z" fill="#317EC2"/>
<path d="M327.529 437.101L319.265 438.649L320.813 446.913L329.077 445.365L327.529 437.101Z" fill="#317EC2"/>
<path d="M313.481 439.736L305.237 441.252L306.753 449.496L314.997 447.979L313.481 439.736Z" fill="#317EC2"/>
<path d="M340.762 403.134L276.246 415.219L294.175 510.928L358.691 498.843L340.762 403.134Z" stroke="black" stroke-width="0.41" stroke-miterlimit="10"/>
<path d="M334.82 412.562L285.222 421.853L287.708 435.124L337.306 425.833L334.82 412.562Z" stroke="black" stroke-width="0.41" stroke-miterlimit="10"/>
<path d="M297.155 439.963L288.891 441.511L290.439 449.775L298.703 448.227L297.155 439.963Z" stroke="black" stroke-width="0.41" stroke-miterlimit="10"/>
<path d="M338.493 432.215L330.229 433.763L331.777 442.027L340.04 440.479L338.493 432.215Z" stroke="black" stroke-width="0.41" stroke-miterlimit="10"/>
<path d="M324.431 434.898L316.188 436.414L317.703 444.658L325.947 443.142L324.431 434.898Z" stroke="black" stroke-width="0.409208" stroke-miterlimit="10"/>
<path d="M310.931 437.376L302.667 438.924L304.215 447.188L312.479 445.64L310.931 437.376Z" stroke="black" stroke-width="0.41" stroke-miterlimit="10"/>
<path d="M299.617 453.047L291.353 454.595L292.901 462.859L301.165 461.311L299.617 453.047Z" stroke="black" stroke-width="0.41" stroke-miterlimit="10"/>
<path d="M340.932 445.312L332.668 446.86L334.216 455.124L342.48 453.576L340.932 445.312Z" stroke="black" stroke-width="0.41" stroke-miterlimit="10"/>
<path d="M327.167 447.886L318.903 449.434L320.451 457.698L328.715 456.15L327.167 447.886Z" stroke="black" stroke-width="0.41" stroke-miterlimit="10"/>
<path d="M313.076 450.487L304.832 452.004L306.348 460.248L314.592 458.731L313.076 450.487Z" stroke="black" stroke-width="0.409208" stroke-miterlimit="10"/>
<g opacity="0.57">
<path opacity="0.57" d="M304.449 467.948L296.205 469.464L297.721 477.708L305.965 476.192L304.449 467.948Z" fill="#FADB93"/>
<path opacity="0.57" d="M346.128 460.273L337.864 461.821L339.412 470.085L347.676 468.537L346.128 460.273Z" fill="#FADB93"/>
<path opacity="0.57" d="M332.352 462.847L324.088 464.395L325.636 472.659L333.9 471.111L332.352 462.847Z" fill="#FADB93"/>
<path opacity="0.57" d="M318.576 465.422L310.312 466.97L311.86 475.234L320.124 473.686L318.576 465.422Z" fill="#FADB93"/>
</g>
<path d="M301.719 466.067L293.475 467.583L294.991 475.827L303.235 474.311L301.719 466.067Z" stroke="black" stroke-width="0.409208" stroke-miterlimit="10"/>
<path d="M342.969 458.511L334.725 460.027L336.241 468.271L344.485 466.755L342.969 458.511Z" stroke="black" stroke-width="0.409208" stroke-miterlimit="10"/>
<path d="M329.618 460.971L321.354 462.519L322.902 470.783L331.165 469.235L329.618 460.971Z" stroke="black" stroke-width="0.41" stroke-miterlimit="10"/>
<path d="M315.477 463.555L307.233 465.071L308.749 473.315L316.993 471.799L315.477 463.555Z" stroke="black" stroke-width="0.409208" stroke-miterlimit="10"/>
<g opacity="0.57">
<path opacity="0.57" d="M306.836 480.994L298.592 482.51L300.108 490.754L308.352 489.238L306.836 480.994Z" fill="#FADB93"/>
<path opacity="0.57" d="M348.576 473.359L340.312 474.907L341.859 483.171L350.124 481.623L348.576 473.359Z" fill="#FADB93"/>
<path opacity="0.57" d="M334.8 475.933L326.536 477.481L328.084 485.745L336.348 484.197L334.8 475.933Z" fill="#FADB93"/>
<path opacity="0.57" d="M321.012 478.508L312.748 480.056L314.296 488.32L322.56 486.772L321.012 478.508Z" fill="#FADB93"/>
</g>
<path d="M304.505 479.218L296.241 480.766L297.789 489.03L306.053 487.482L304.505 479.218Z" stroke="black" stroke-width="0.41" stroke-miterlimit="10"/>
<path d="M345.843 471.481L337.579 473.029L339.127 481.293L347.391 479.745L345.843 471.481Z" stroke="black" stroke-width="0.41" stroke-miterlimit="10"/>
<path d="M332.067 474.057L323.803 475.605L325.351 483.869L333.615 482.321L332.067 474.057Z" stroke="black" stroke-width="0.41" stroke-miterlimit="10"/>
<path d="M317.865 476.601L309.621 478.117L311.137 486.361L319.381 484.844L317.865 476.601Z" stroke="black" stroke-width="0.409208" stroke-miterlimit="10"/>
<path d="M805.484 439L887.991 768.26H722.984L805.484 439Z" fill="#102373"/>
<path d="M883.98 542.21L938.71 768.26H829.258L883.98 542.21Z" fill="#203999"/>
<path d="M883.98 613.734V768.26" stroke="#FBDC8E" stroke-width="3" stroke-miterlimit="10" stroke-linecap="round"/>
<path d="M805.484 533.121V768.26" stroke="#FBDC8E" stroke-width="3" stroke-miterlimit="10" stroke-linecap="round"/>
<path d="M883.98 671.463L869.46 656.942" stroke="#FBDC8E" stroke-width="3" stroke-miterlimit="10" stroke-linecap="round"/>
<path d="M883.98 734.177L906.563 711.594" stroke="#FBDC8E" stroke-width="3" stroke-miterlimit="10" stroke-linecap="round"/>
<path d="M805.484 600.297L821.998 583.783" stroke="#FBDC8E" stroke-width="3" stroke-miterlimit="10" stroke-linecap="round"/>
<path d="M805.484 695.352L772.584 662.453" stroke="#FBDC8E" stroke-width="3" stroke-miterlimit="10" stroke-linecap="round"/>
<path d="M730.723 489.953L660.984 768.26H800.456L730.723 489.953Z" fill="#102373"/>
<path d="M664.374 577.191L618.114 768.259H710.628L664.374 577.191Z" fill="#203999"/>
<path d="M664.374 637.646V768.259" stroke="#FBDC8E" stroke-width="3" stroke-miterlimit="10" stroke-linecap="round"/>
<path d="M730.723 569.509V768.259" stroke="#FBDC8E" stroke-width="3" stroke-miterlimit="10" stroke-linecap="round"/>
<path d="M664.374 686.441L676.646 674.168" stroke="#FBDC8E" stroke-width="3" stroke-miterlimit="10" stroke-linecap="round"/>
<path d="M664.374 739.45L645.285 720.362" stroke="#FBDC8E" stroke-width="3" stroke-miterlimit="10" stroke-linecap="round"/>
<path d="M730.723 626.289L716.764 612.331" stroke="#FBDC8E" stroke-width="3" stroke-miterlimit="10" stroke-linecap="round"/>
<path d="M730.723 706.634L758.531 678.826" stroke="#FBDC8E" stroke-width="3" stroke-miterlimit="10" stroke-linecap="round"/>
</g>
<defs>
<clipPath id="clip0">
<rect width="1366" height="768" fill="white"/>
</clipPath>
</defs>
</svg>
