<svg width="1366" height="768" viewBox="0 0 1366 768" fill="none" xmlns="http://www.w3.org/2000/svg">
<g clip-path="url(#clip0)">
<rect width="1366" height="768" fill="#DFF6F5"/>
<path d="M1007.95 656.123C970.362 656.123 939.893 649.388 939.893 641.08C939.893 632.772 970.362 626.037 1007.95 626.037C1045.53 626.037 1076 632.772 1076 641.08C1076 649.388 1045.53 656.123 1007.95 656.123Z" fill="#074E4D"/>
<path d="M1007.95 641.08L1046.18 760.726" stroke="#074E4D" stroke-width="4" stroke-miterlimit="10" stroke-linecap="round"/>
<path d="M1007.95 641.08L969.72 760.726" stroke="#074E4D" stroke-width="4" stroke-miterlimit="10" stroke-linecap="round"/>
<path d="M1033.62 721.441L991.007 694.115" stroke="#074E4D" stroke-width="2" stroke-miterlimit="10" stroke-linecap="round"/>
<path d="M1025.06 694.115L982.435 721.441" stroke="#074E4D" stroke-width="2" stroke-miterlimit="10" stroke-linecap="round"/>
<path d="M940.972 511.568C941.145 516.873 941.069 535.454 941.942 543.401" stroke="#262626" stroke-miterlimit="10" stroke-linecap="round"/>
<path d="M1163.67 269.764H1169.8C1171.88 269.764 1173.56 271.446 1173.56 273.522V303.221C1173.56 305.296 1171.88 306.979 1169.8 306.979H1163.67C1161.59 306.979 1159.91 305.296 1159.91 303.221V273.522C1159.91 271.446 1161.59 269.764 1163.67 269.764Z" fill="#074E4D"/>
<path d="M1166.73 346.588C1159.17 346.588 1153.04 340.456 1153.04 332.893C1153.04 325.329 1159.17 319.197 1166.73 319.197C1174.3 319.197 1180.43 325.329 1180.43 332.893C1180.43 340.456 1174.3 346.588 1166.73 346.588Z" fill="#FAD897"/>
<path d="M708.89 495.543H702.42C701.74 495.54 701.089 495.269 700.608 494.788C700.128 494.308 699.856 493.656 699.854 492.976V453.207C699.853 452.87 699.919 452.536 700.048 452.225C700.178 451.914 700.368 451.632 700.608 451.395L708.782 443.221C709.019 442.982 709.302 442.792 709.612 442.662C709.923 442.533 710.257 442.466 710.594 442.466H734.738C735.418 442.469 736.069 442.74 736.55 443.221C737.031 443.702 737.302 444.353 737.305 445.033V448.872" fill="#FAD897"/>
<path d="M1271.04 590.44C1250.55 594.322 1254.21 716.609 1293.54 709.212C1330.68 702.159 1296.04 585.687 1271.04 590.44Z" fill="#074E4D"/>
<path d="M1361 605.537C1344.69 596.306 1276.45 682.188 1307.66 699.852C1337.15 716.609 1380.85 616.796 1361 605.537Z" fill="#39BCBA"/>
<path d="M1277.91 768.286H1319.08C1320.74 768.286 1322.34 767.674 1323.58 766.568C1324.81 765.462 1325.6 763.939 1325.78 762.291L1330.98 715.62C1331.09 714.673 1331 713.713 1330.72 712.803C1330.43 711.893 1329.96 711.053 1329.32 710.34C1328.69 709.627 1327.92 709.056 1327.05 708.664C1326.18 708.273 1325.23 708.07 1324.28 708.069H1272.93C1271.98 708.07 1271.05 708.269 1270.18 708.655C1269.32 709.041 1268.55 709.604 1267.92 710.308C1267.29 711.011 1266.81 711.84 1266.52 712.74C1266.23 713.64 1266.13 714.592 1266.23 715.532L1271.2 762.204C1271.37 763.869 1272.15 765.413 1273.39 766.537C1274.63 767.661 1276.24 768.284 1277.91 768.286Z" fill="#CBCBCB"/>
<path d="M1259.47 542.819C1243.87 547.348 1255.83 641.739 1285.71 633.047C1313.92 624.851 1278.46 537.298 1259.47 542.819Z" fill="#219A99"/>
<path d="M1233.74 617.917C1222.96 627.213 1266.83 698.321 1287.55 680.462C1307.13 663.673 1246.91 606.616 1233.74 617.917Z" fill="#39BCBA"/>
<path d="M1298.39 552.632C1275.03 552.632 1253.65 701.771 1298.39 701.771C1340.64 701.771 1326.83 552.632 1298.39 552.632Z" fill="#60D7D4"/>
<path d="M1255.44 697.975H1341.54C1342.86 697.975 1343.94 699.052 1343.94 700.379V712.264C1343.94 713.592 1342.86 714.668 1341.54 714.668H1255.44C1254.11 714.668 1253.03 713.592 1253.03 712.264V700.379C1253.03 699.052 1254.11 697.975 1255.44 697.975Z" fill="#E9E9E9"/>
<path d="M719.759 448.871H743.483C743.863 448.871 744.24 448.947 744.591 449.092C744.943 449.238 745.262 449.452 745.53 449.722C745.799 449.991 746.011 450.311 746.156 450.663C746.301 451.015 746.374 451.392 746.373 451.772V499.005C746.373 499.773 746.069 500.509 745.527 501.052C744.986 501.596 744.25 501.903 743.483 501.906H711.79C711.023 501.903 710.288 501.596 709.746 501.052C709.204 500.509 708.9 499.773 708.9 499.005V459.752C708.899 459.372 708.972 458.996 709.117 458.644C709.261 458.292 709.473 457.973 709.741 457.703L717.721 449.723C718.261 449.181 718.994 448.874 719.759 448.871Z" fill="#E9E9E9"/>
<path d="M708.887 458.62H716.945C717.374 458.62 717.785 458.449 718.089 458.146C718.392 457.843 718.562 457.431 718.562 457.002V448.87" fill="#CBCBCB"/>
<path d="M699.82 452.225H707.876C708.307 452.222 708.719 452.049 709.024 451.745C709.329 451.44 709.501 451.027 709.504 450.596V442.464" fill="#39BCBA"/>
<path d="M744.871 394.877H803.409C804.402 394.877 805.207 395.682 805.207 396.676V417.773C805.207 418.767 804.402 419.572 803.409 419.572H744.871C743.878 419.572 743.073 418.767 743.073 417.773V396.676C743.073 395.682 743.878 394.877 744.871 394.877Z" fill="#39BCBA"/>
<path d="M774.151 436.502L766.667 413.835H781.635L774.151 436.502Z" fill="#39BCBA"/>
<path d="M788.979 401.455L795.255 412.314H782.713L788.979 401.455Z" fill="white"/>
<path d="M759.313 412.314L753.038 401.455H765.59L759.313 412.314Z" fill="white"/>
<path d="M774.152 411.603C771.549 411.603 769.44 409.493 769.44 406.89C769.44 404.288 771.549 402.178 774.152 402.178C776.754 402.178 778.864 404.288 778.864 406.89C778.864 409.493 776.754 411.603 774.152 411.603Z" fill="white"/>
<path d="M777.708 342.544H816.769C817.638 342.544 818.342 343.248 818.342 344.117V368.75C818.342 369.618 817.638 370.323 816.769 370.323H777.708C776.84 370.323 776.135 369.618 776.135 368.75V344.117C776.135 343.248 776.84 342.544 777.708 342.544Z" fill="#E9E9E9"/>
<path d="M817.016 343.417L797.239 356.433" stroke="#CBCBCB" stroke-width="0.82" stroke-linecap="round" stroke-linejoin="round"/>
<path d="M776.135 342.544L797.238 356.433" stroke="#CBCBCB" stroke-width="0.82" stroke-linecap="round" stroke-linejoin="round"/>
<path d="M776.135 348.583C772.8 348.583 770.096 345.879 770.096 342.544C770.096 339.208 772.8 336.505 776.135 336.505C779.47 336.505 782.174 339.208 782.174 342.544C782.174 345.879 779.47 348.583 776.135 348.583Z" fill="#FAD897"/>
<path d="M775.054 345.839H775.694V341C775.744 341.049 775.817 341.106 775.913 341.171C776.007 341.234 776.114 341.296 776.233 341.359C776.351 341.421 776.476 341.48 776.608 341.535C776.739 341.589 776.866 341.632 776.991 341.664V341.015C776.851 340.976 776.702 340.924 776.546 340.859C776.387 340.791 776.232 340.717 776.081 340.636C775.927 340.553 775.783 340.467 775.647 340.378C775.512 340.287 775.395 340.199 775.296 340.113H775.054V345.839Z" fill="white"/>
<path d="M563.73 359.485H722.362C722.765 359.485 723.092 359.812 723.092 360.215V362.227C723.092 362.631 722.765 362.958 722.362 362.958H563.73C563.327 362.958 563 362.631 563 362.227V360.215C563 359.812 563.327 359.485 563.73 359.485Z" fill="#E9E9E9"/>
<path d="M654.022 290.534H666.069C666.909 290.534 667.589 291.214 667.589 292.053V357.965C667.589 358.804 666.909 359.485 666.069 359.485H654.022C653.183 359.485 652.503 358.804 652.503 357.965V292.053C652.503 291.214 653.183 290.534 654.022 290.534Z" fill="#CBCBCB"/>
<path d="M646.219 306.698H651.239C651.937 306.698 652.503 307.265 652.503 307.963V358.22C652.503 358.919 651.937 359.485 651.239 359.485H646.219C645.521 359.485 644.955 358.919 644.955 358.22V307.963C644.955 307.265 645.521 306.698 646.219 306.698Z" fill="#E9E9E9"/>
<path d="M638.63 306.698H643.732C644.408 306.698 644.955 307.246 644.955 307.921V358.262C644.955 358.937 644.408 359.485 643.732 359.485H638.63C637.954 359.485 637.407 358.937 637.407 358.262V307.921C637.407 307.246 637.954 306.698 638.63 306.698Z" fill="#CBCBCB"/>
<path d="M633.185 310.034L637.672 312.093C638.327 312.394 638.614 313.17 638.314 313.825L617.38 359.424C617.079 360.079 616.303 360.366 615.648 360.066L611.161 358.006C610.506 357.705 610.219 356.93 610.52 356.274L631.454 310.675C631.755 310.02 632.53 309.733 633.185 310.034Z" fill="#E9E9E9"/>
<path d="M660.052 342.036C657.723 342.036 655.835 340.149 655.835 337.82C655.835 335.492 657.723 333.604 660.052 333.604C662.38 333.604 664.268 335.492 664.268 337.82C664.268 340.149 662.38 342.036 660.052 342.036Z" fill="#E9E9E9"/>
<path d="M655.779 344.56H664.325C664.633 344.56 664.883 344.81 664.883 345.118V346.029C664.883 346.337 664.633 346.587 664.325 346.587H655.779C655.471 346.587 655.221 346.337 655.221 346.029V345.118C655.221 344.81 655.471 344.56 655.779 344.56Z" fill="#E9E9E9"/>
<path d="M655.779 349.747H664.325C664.633 349.747 664.883 349.997 664.883 350.305V351.216C664.883 351.525 664.633 351.774 664.325 351.774H655.779C655.471 351.774 655.221 351.525 655.221 351.216V350.305C655.221 349.997 655.471 349.747 655.779 349.747Z" fill="#E9E9E9"/>
<path d="M733.031 453.745H741.577C741.885 453.745 742.135 453.995 742.135 454.303V455.214C742.135 455.522 741.885 455.772 741.577 455.772H733.031C732.722 455.772 732.473 455.522 732.473 455.214V454.303C732.473 453.995 732.722 453.745 733.031 453.745Z" fill="#CBCBCB"/>
<path d="M733.031 458.62H741.577C741.885 458.62 742.135 458.869 742.135 459.177V460.089C742.135 460.397 741.885 460.647 741.577 460.647H733.031C732.722 460.647 732.473 460.397 732.473 460.089V459.177C732.473 458.869 732.722 458.62 733.031 458.62Z" fill="#CBCBCB"/>
<path d="M713.233 466.955H742.019C742.327 466.955 742.577 467.205 742.577 467.513V468.424C742.577 468.733 742.327 468.982 742.019 468.982H713.233C712.924 468.982 712.675 468.733 712.675 468.424V467.513C712.675 467.205 712.924 466.955 713.233 466.955Z" fill="#CBCBCB"/>
<path d="M713.233 471.744H742.019C742.327 471.744 742.577 471.993 742.577 472.301V473.213C742.577 473.521 742.327 473.771 742.019 473.771H713.233C712.924 473.771 712.675 473.521 712.675 473.213V472.301C712.675 471.993 712.924 471.744 713.233 471.744Z" fill="#CBCBCB"/>
<path d="M713.233 476.531H742.019C742.327 476.531 742.577 476.781 742.577 477.089V478C742.577 478.309 742.327 478.558 742.019 478.558H713.233C712.924 478.558 712.675 478.309 712.675 478V477.089C712.675 476.781 712.924 476.531 713.233 476.531Z" fill="#CBCBCB"/>
<path d="M648.375 313.88H649.082C649.322 313.88 649.516 314.074 649.516 314.314V351.859C649.516 352.098 649.322 352.292 649.082 352.292H648.375C648.136 352.292 647.942 352.098 647.942 351.859V314.314C647.942 314.074 648.136 313.88 648.375 313.88Z" fill="#CBCBCB"/>
<path d="M679.851 361.221H689.015C689.831 361.221 690.493 361.883 690.493 362.699V365.113C690.493 365.929 689.831 366.591 689.015 366.591H679.851C679.034 366.591 678.373 365.929 678.373 365.113V362.699C678.373 361.883 679.034 361.221 679.851 361.221Z" fill="#E9E9E9"/>
<path d="M597.076 361.221H606.241C607.057 361.221 607.719 361.883 607.719 362.699V365.113C607.719 365.929 607.057 366.591 606.241 366.591H597.076C596.26 366.591 595.598 365.929 595.598 365.113V362.699C595.598 361.883 596.26 361.221 597.076 361.221Z" fill="#E9E9E9"/>
<path d="M847.268 366.473H898.274C902.208 366.473 905.396 369.662 905.396 373.596V404.437C905.396 408.371 902.208 411.56 898.274 411.56H847.268C843.334 411.56 840.145 408.371 840.145 404.437V373.596C840.145 369.662 843.334 366.473 847.268 366.473Z" fill="#E9E9E9"/>
<path d="M882.084 373.73H891.896V404.302H882.084V373.73Z" fill="#074E4D"/>
<path d="M867.86 394.068H877.673V404.313H867.86V394.068Z" fill="#074E4D"/>
<path d="M853.647 385.441H863.46V404.302H853.647V385.441Z" fill="#074E4D"/>
<path d="M1166.73 291.601C1172.16 291.6 1177.53 292.667 1182.54 294.741C1187.55 296.816 1192.1 299.857 1195.94 303.691C1199.77 307.526 1202.82 312.078 1204.89 317.088C1206.97 322.099 1208.04 327.469 1208.04 332.892H1125.43C1125.43 327.469 1126.5 322.099 1128.58 317.088C1130.65 312.078 1133.7 307.526 1137.53 303.691C1141.37 299.857 1145.92 296.816 1150.93 294.741C1155.94 292.667 1161.31 291.6 1166.73 291.601Z" fill="#219A99"/>
<path d="M1167 278L1167 0" stroke="#074E4D" stroke-width="2" stroke-linecap="round" stroke-linejoin="round"/>
<path d="M842.799 746.459C842.799 749.014 844.298 765.136 841.311 766.624C838.324 768.112 805.488 769.018 804 767.519C802.512 766.021 801.617 762.893 802.921 761.999C804.226 761.105 816.94 758.57 818.665 757.373C820.39 756.176 822.774 749.824 821.9 746.46" fill="#262626"/>
<path d="M940.972 535.713L922.489 529.081C923.286 495.361 931.17 420.014 942.363 408.81C944.994 406.19 997.035 401.617 1006.32 401.617C1061.73 401.617 1078.16 407.937 1082.33 412.121C1095.27 425.061 1099.31 485.019 1099.31 506.015C1099.31 527.011 1040 537.903 1040 537.903L970.475 542.68C970.475 542.68 955.227 544.254 942.04 545.031C941.748 540.987 940.972 535.713 940.972 535.713Z" fill="#F2A922"/>
<path d="M885.9 555.264C880.843 553.765 830.549 545.559 819.593 556.342C808.637 567.126 774.151 721.732 774.151 725.291H801.919L839.402 644.618" fill="#219A99"/>
<path d="M1069.01 541.514C1070.28 547.823 1077.86 554.595 1077.86 588.963C1077.86 636.486 1038.93 637.49 1024.95 637.49C981.411 637.49 910.962 624.55 906.207 622.175C903.047 627.458 844.892 746.189 844.622 748.841H817.846C817.846 748.841 834.442 571.214 864.387 551.069C874.113 544.598 1046.68 537.677 1069.01 541.514Z" fill="#39BCBA"/>
<path d="M912.223 506.769C919.254 506.769 925.055 508.441 940.972 511.568L941.803 542.018C926.706 535.936 923.202 527.481 918.823 527.481C907.889 527.481 902.173 533.12 895.714 533.12C891.207 533.12 883.097 529.583 883.097 524.773C883.097 514.706 903.51 506.769 912.223 506.769Z" fill="#CFB293"/>
<path d="M800.345 723.155C800.345 725.722 801.843 741.833 798.857 743.332C795.87 744.83 763.034 745.715 761.546 744.227C760.058 742.739 759.163 739.601 760.467 738.706C761.772 737.812 774.485 735.264 776.211 734.069C777.936 732.875 780.32 726.521 779.446 723.157" fill="#262626"/>
<path d="M996.517 408.788C996.517 412.854 1020.12 412.972 1020.12 408.788V375.726H996.517V408.788Z" fill="#CFB293"/>
<path d="M1004.21 386.627C1006.36 386.627 1020.12 392.709 1020.12 396.106V378.162C1016.69 378.162 1004.21 386.627 1004.21 386.627Z" fill="#074E4D"/>
<path d="M999.645 388.029C983.863 388.029 971.069 375.235 971.069 359.452C971.069 343.67 983.863 330.876 999.645 330.876C1015.43 330.876 1028.22 343.67 1028.22 359.452C1028.22 375.235 1015.43 388.029 999.645 388.029Z" fill="#CFB293"/>
<path d="M970.151 337.022C973.688 342.64 981.086 345.218 989.098 345.218C995.924 345.218 1005.87 343.233 1012.94 347.267C1016.77 349.424 1021.16 354.33 1022.04 364.154C1022.04 365.836 1023.95 372.36 1023.95 374.463C1023.95 375.897 1025.57 376.838 1028.26 376.838C1029.65 376.838 1032.4 374.582 1032.4 371.144C1032.4 367.167 1030.82 365.752 1030.82 362.377C1030.82 359.002 1034.95 355.753 1034.95 346.372C1034.95 332.859 1026.32 324.534 1020.22 324.534C1014.65 324.534 1012.91 325.828 1012.21 326.379C1012.21 314.096 996.03 308.488 989.614 308.488C982.281 308.488 978.831 311.497 978.831 315.325C978.831 321.429 981.742 326.616 983.219 327.78C979.876 324.772 975.532 323.115 971.034 323.132C962.634 323.132 959.809 328.653 959.809 332.428C959.81 340.636 969.657 348.234 973.322 348.234C974.244 346.283 975.326 344.411 976.557 342.637" fill="#074E4D"/>
<path d="M1021.16 369.32C1017.79 369.32 1015.06 366.592 1015.06 363.227C1015.06 359.862 1017.79 357.134 1021.16 357.134C1024.52 357.134 1027.25 359.862 1027.25 363.227C1027.25 366.592 1024.52 369.32 1021.16 369.32Z" fill="#CFB293"/>
<path d="M970.788 364.693C968.179 364.693 966.065 363.592 966.065 362.234C966.065 360.877 968.179 359.776 970.788 359.776C973.396 359.776 975.511 360.877 975.511 362.234C975.511 363.592 973.396 364.693 970.788 364.693Z" fill="#F5EEE7"/>
<path d="M1000.5 364.693C997.888 364.693 995.774 363.592 995.774 362.234C995.774 360.877 997.888 359.776 1000.5 359.776C1003.11 359.776 1005.22 360.877 1005.22 362.234C1005.22 363.592 1003.11 364.693 1000.5 364.693Z" fill="#F5EEE7"/>
<path d="M982.326 357.134C981.442 358.396 976.934 363.69 981.69 365.836" stroke="#074E4D" stroke-miterlimit="10" stroke-linecap="round"/>
<path d="M991.212 372.015C992.637 372.015 994.825 370.247 995.979 368.662" stroke="#074E4D" stroke-miterlimit="10" stroke-linecap="round"/>
<path d="M953.534 448.763C951.377 453.346 940.971 497.56 940.971 511.568" stroke="#074E4D" stroke-miterlimit="10" stroke-linecap="round"/>
<path d="M1099.31 502.455C1099.31 552.157 1098.84 566.575 1078.89 566.575C1032.91 566.575 963.401 528.832 951.011 528.832C940.066 528.832 934.351 534.483 927.891 534.483C923.395 534.483 915.285 530.935 915.285 526.136C915.285 516.054 935.699 508.117 944.401 508.117C963.994 508.117 1042.19 527.01 1044.09 527.01C1046 527.01 1049.22 526.179 1049.22 522.966C1049.22 517.132 1045.4 503.653 1044.9 502.477L1099.31 502.455Z" fill="#CFB293"/>
<path d="M1033.42 459.105C1034.73 462.891 1044.99 502.003 1046.18 506.77" stroke="#074E4D" stroke-miterlimit="10" stroke-linecap="round"/>
<path d="M639.744 766.192L634.944 764.931C633.321 764.505 632.35 762.844 632.777 761.221L689.19 546.444C689.617 544.821 691.278 543.851 692.901 544.277L697.701 545.538C699.324 545.965 700.294 547.626 699.868 549.249L643.455 764.025C643.028 765.648 641.367 766.619 639.744 766.192Z" fill="#CBCBCB"/>
<path d="M701.39 545.513L706.19 544.252C707.813 543.826 709.475 544.796 709.901 546.419L766.314 761.195C766.741 762.818 765.771 764.479 764.147 764.906L759.347 766.167C757.724 766.593 756.063 765.623 755.637 764L699.223 549.224C698.797 547.6 699.767 545.939 701.39 545.513Z" fill="#CBCBCB"/>
<path d="M777.574 545.512L782.374 544.251C783.997 543.825 785.658 544.795 786.084 546.418L842.498 761.194C842.924 762.817 841.954 764.479 840.331 764.905L835.531 766.166C833.908 766.592 832.247 765.622 831.82 763.999L775.407 549.223C774.98 547.6 775.951 545.938 777.574 545.512Z" fill="#E9E9E9"/>
<path d="M716.909 762.348L712.095 761.107C710.466 760.687 709.487 759.027 709.906 757.399L765.43 541.957C765.849 540.328 767.509 539.349 769.138 539.768L773.953 541.009C775.581 541.429 776.56 543.089 776.141 544.717L720.617 760.16C720.198 761.788 718.538 762.768 716.909 762.348Z" fill="#E9E9E9"/>
<path d="M1088.59 545.519L1093.39 544.258C1095.01 543.831 1096.67 544.801 1097.1 546.425L1153.51 761.201C1153.94 762.824 1152.97 764.485 1151.35 764.912L1146.55 766.172C1144.92 766.599 1143.26 765.629 1142.84 764.006L1086.42 549.229C1086 547.606 1086.97 545.945 1088.59 545.519Z" fill="#CBCBCB"/>
<path d="M1027.89 766.208L1023.09 764.947C1021.46 764.52 1020.49 762.859 1020.92 761.236L1077.33 546.46C1077.76 544.837 1079.42 543.866 1081.04 544.293L1085.84 545.554C1087.47 545.98 1088.44 547.641 1088.01 549.264L1031.6 764.041C1031.17 765.664 1029.51 766.634 1027.89 766.208Z" fill="#CBCBCB"/>
<path d="M663.667 534.516H1202.03C1203.51 534.516 1204.71 535.72 1204.71 537.205V548.164C1204.71 549.65 1203.51 550.853 1202.03 550.853H663.667C662.182 550.853 660.978 549.65 660.978 548.164V537.205C660.978 535.72 662.182 534.516 663.667 534.516Z" fill="#E9E9E9"/>
<path d="M1167.5 545.522L1172.3 544.261C1173.92 543.835 1175.58 544.805 1176.01 546.428L1232.42 761.204C1232.85 762.827 1231.88 764.489 1230.25 764.915L1225.45 766.176C1223.83 766.602 1222.17 765.632 1221.74 764.009L1165.33 549.233C1164.9 547.61 1165.87 545.949 1167.5 545.522Z" fill="#E9E9E9"/>
<path d="M1106.79 766.208L1101.99 764.947C1100.37 764.521 1099.4 762.86 1099.83 761.236L1156.24 546.46C1156.67 544.837 1158.33 543.867 1159.95 544.293L1164.75 545.554C1166.37 545.981 1167.35 547.642 1166.92 549.265L1110.51 764.041C1110.08 765.664 1108.42 766.634 1106.79 766.208Z" fill="#E9E9E9"/>
<path d="M804.96 534.516H904.718L886.645 472.358C886.193 470.858 885.269 469.545 884.009 468.615C882.75 467.684 881.223 467.185 879.657 467.194H795.009C793.897 467.176 792.797 467.418 791.795 467.901C790.793 468.384 789.918 469.094 789.239 469.975C788.561 470.856 788.097 471.883 787.886 472.975C787.674 474.066 787.721 475.192 788.022 476.263L804.96 534.516Z" fill="#074E4D"/>
<path d="M842.594 506.953C839.223 506.953 836.49 504.22 836.49 500.849C836.49 497.478 839.223 494.746 842.594 494.746C845.965 494.746 848.697 497.478 848.697 500.849C848.697 504.22 845.965 506.953 842.594 506.953Z" fill="white"/>
<path d="M892.867 530.148H962.862V534.516H892.867V530.148Z" fill="#074E4D"/>
</g>
<defs>
<clipPath id="clip0">
<rect width="1366" height="768" fill="white"/>
</clipPath>
</defs>
</svg>
