<svg xmlns="http://www.w3.org/2000/svg" width="25" height="25" viewBox="0 0 32 32">
    <g>
        <path fill="#ffc107" d="M35.689 16.866H34.4V16.8H20v6.4h9.042a9.607 9.607 0 1 1-2.674-10.369l4.526-4.526A15.984 15.984 0 1 0 36 20a16.109 16.109 0 0 0-.311-3.134z" transform="translate(-4 -4)"/>
        <path fill="#ff3d00" d="M6.306 12.559l5.261 3.858a9.588 9.588 0 0 1 15.279-3.58l4.529-4.529a15.981 15.981 0 0 0-25.069 4.25z" transform="translate(-4 -4) translate(-.46)"/>
        <path fill="#4caf50" d="M20.45 40.821a15.937 15.937 0 0 0 10.735-4.157l-4.956-4.194a9.582 9.582 0 0 1-14.813-4.416L6.2 32.077a16 16 0 0 0 14.25 8.744z" transform="translate(-4 -4) translate(-.438 -4.821)"/>
        <path fill="#1976d2" d="M39.7 20.066h-1.29V20H24v6.4h9.049a9.639 9.639 0 0 1-3.272 4.46l4.956 4.194A15.489 15.489 0 0 0 40.012 23.2a16.121 16.121 0 0 0-.312-3.134z" transform="translate(-4 -4) translate(-4.012 -3.215)"/>
    </g>
</svg>
