<svg xmlns="http://www.w3.org/2000/svg" width="1487.842" height="1081.429" viewBox="0 0 1487.842 1081.429">
    <defs>
        <style>
            .cls-5{fill:#427cae}.cls-6{fill:#3a6890}.cls-7{fill:#73e5e2}.cls-17,.cls-18,.cls-8,.cls-9{fill:none;stroke-linecap:round}.cls-8,.cls-9{stroke:#fbdc8e}.cls-17,.cls-8,.cls-9{stroke-miterlimit:10}.cls-8{stroke-width:2px}.cls-9{stroke-width:3px}.cls-11{fill:#7da6ca}.cls-12{fill:#fff}.cls-13{fill:#0c3559}.cls-14{fill:#f8cdba}.cls-15{fill:#f2a922}.cls-16{fill:#fa9e9f}.cls-17,.cls-18{stroke:#0c3559}.cls-17{stroke-width:.69px}.cls-18{stroke-linejoin:round}
        </style>
    </defs>
    <g id="Layer_2" opacity="0.7">
        <g id="Layer_2-2">
            <circle id="Ellipse_357" cx="531.034" cy="531.034" r="531.034" fill="#faefe9" transform="translate(197.753)"/>
            <path id="Path_584" fill="#e2e2e2" d="M1155.7 908.844c.234-5 .385-10.016.385-15.114 0-240.923-258.8-436.231-578.037-436.231S0 652.849 0 893.731c0 5.056.151 10.071.385 15.114z" transform="translate(0 171.084)"/>
            <path id="Path_585" fill="#efefef" d="M1316.6 872.758c.165-3.531.288-7.076.288-10.648-.002-170.165-193.249-308.11-431.63-308.11S453.63 691.945 453.63 862.109c0 3.572.11 7.117.289 10.648z" transform="translate(169.637 207.171)"/>
            <path id="Path_586" d="M191.259 808.314a84.484 84.484 0 0 0 1.182-14.1c0-37.5-24.388-67.887-54.477-67.887S83.5 756.722 83.5 794.217a84.53 84.53 0 0 0 1.184 14.113z" class="cls-5" transform="translate(31.225 271.615)"/>
            <path id="Path_587" d="M845.493 808.314a84.494 84.494 0 0 0 1.182-14.1c0-37.5-24.388-67.887-54.477-67.887s-54.477 30.392-54.477 67.887a84.532 84.532 0 0 0 1.179 14.116z" class="cls-6" transform="translate(275.874 271.615)"/>
            <path id="Path_588" d="M1010.889 327.02L852.87 957.638h316.037z" class="cls-5" transform="translate(318.935 122.291)"/>
            <path id="Path_589" d="M688.044 473.532c-28.194 26.861 76.625 123.968 91.862 110.659s-64.314-136.901-91.862-110.659z" class="cls-7" transform="translate(255.506 175.716)"/>
            <path id="Path_590" d="M695.38 482.33c11.816 10.236 65.95 69.234 79.992 97.207" class="cls-8" transform="translate(260.041 180.37)"/>
            <path id="Path_591" d="M357.152 495.642c40.532 18.438 45.176 86.793 37.811 102.071-11.775 24.4-54.628 59.712-66.156 84.086-4.946 10.47-46.783 119.534-85.694 106.811-34.637-11.363-53.584-61.512-34.019-96.4 28.853-51.578 40.477-120.386 50.7-138.769 13.492-24.165 57.912-75.741 97.358-57.799z" class="cls-5" transform="translate(75.246 183.958)"/>
            <path id="Path_592" d="M221.15 867.128c0-24.978 15.114-224.848 87-306.488" class="cls-9" transform="translate(82.7 209.654)"/>
            <path id="Line_79" d="M15.567 59.547L0 0" class="cls-9" transform="translate(349.699 748.613)"/>
            <path id="Path_610" fill="#50b89d" d="M728.736 409.966c53.2-14.454 72.82 193.906 45.945 199.979s-76.474-191.681-45.945-199.979z" transform="translate(268.921 153.04)"/>
            <path id="Path_611" d="M735 435.11c4.342 12.613 28.606 101.027 33.813 165.163" class="cls-8" transform="translate(274.857 162.712)"/>
            <path id="Path_612" d="M911.527 386.5c12.256 0 25.762 19.771 26.641 26.641 2.487 19.373-5.235 32.343-4.8 40.147.989 17.408 7.447 32.975 2.666 42.469-28.207 56.195-124.357 43.76-135.815 63.092-2.94 5.5-11.39 22.835-11.39 22.835-4.465-4.465-15.773-35.063-15.773-47s16.57-44.777 49.078-68.2C839.326 454.1 870.9 386.5 911.527 386.5z" class="cls-7" transform="translate(289.09 144.534)"/>
            <path id="Path_613" d="M777.37 596.119c3.586-12.366 38.581-118.16 126.088-167.059" class="cls-8" transform="translate(290.701 160.449)"/>
            <path id="Path_614" d="M847.15 452.623c.687-5.152 4.2-15.855 0-31.683" class="cls-8" transform="translate(316.796 157.413)"/>
            <path id="Path_615" d="M832.5 465.571c.742-8.354 0-20.225-2.981-26.971" class="cls-8" transform="translate(310.203 164.017)"/>
            <path id="Path_616" d="M817.42 474.969a116.126 116.126 0 0 1 43.705 2.267" class="cls-8" transform="translate(305.678 177.206)"/>
            <path id="Path_617" d="M886.989 470.9L782.17 903.833h209.638z" class="cls-11" transform="translate(292.496 176.095)"/>
            <path id="Path_618" d="M123.93 801.706c0-12.915 23.357-57.706 63.2-57.706 38.924 0 47.869 14.262 80.17 14.262 24.127 0 22.478-9.508 45.107-9.508 46.275 0 64.274 36.685 64.274 52.993z" class="cls-11" transform="translate(46.344 278.223)"/>
            <path id="Line_85" d="M0 0L0 295.964" class="cls-9" transform="translate(1179.485 783.965)"/>
            <path id="Line_86" d="M0 0L0 450.341" class="cls-9" transform="translate(1329.824 629.587)"/>
            <path id="Line_87" d="M0 27.809L27.809 0" class="cls-9" transform="translate(1179.485 866.732)"/>
            <path id="Line_88" d="M43.252 43.252L0 0" class="cls-9" transform="translate(1136.233 971.386)"/>
            <path id="Line_89" d="M31.628 31.628L0 0" class="cls-9" transform="translate(1298.195 726.602)"/>
            <path id="Line_90" d="M0 63.023L63.01 0" class="cls-9" transform="translate(1329.824 877.27)"/>
            <path id="Path_619" d="M83.5 235.721c0-20.019 49.71-24.264 69.344-24.264 39.845 0 42.5-22.808 75.568-22.808 29.073 0 43.87 23.536 70.965 23.536 58.146 0 71.088-66.925 127.627-66.925 57.514 0 54.587 69.866 108.116 69.866 27.218 0 190.733 5.152 190.733 20.609z" class="cls-12" transform="translate(31.225 54.321)"/>
            <path id="Path_620" d="M660 296.793c0-12.654 43.087-32.453 66.651-32.453 46.481 0 31.972 16.226 61.21 16.226 33.318 0 40.93-72.256 91.629-72.256 55.412 0 46.714 70.663 80.72 70.663 14.646 0 21.983-6.87 42.813-6.87 12.063 0 25.281 12.063 25.281 24.731z" class="cls-12" transform="translate(246.81 77.899)"/>
        </g>
        <g id="Layer_2-3" transform="translate(480.342 301.69)">
            <g id="vector">
                <path id="Path_170" d="M105.135 491.82c0 2.193-.637 15.083 1.23 17.247 3.363 3.912 30.6 2.119 31.871.859s2.06-3.956.9-4.727-11.972-2.963-13.439-3.986-3.482-6.43-2.711-9.335" class="cls-13" transform="translate(83.446 236.898)"/>
                <path id="Path_171" d="M240.669 472.9c-.933 1.971-7.008 13.335-6.238 16.106 1.363 4.978 26.759 14.98 28.463 14.372s3.541-2.7 2.83-3.882-9.557-7.779-10.461-9.335-.415-7.3 1.482-9.6" class="cls-13" transform="translate(-234.364 227.785)"/>
                <path id="Path_172" d="M231.579 222.4c-.459 10.964-2.548 165.948-2.548 165.948l-71.12 205.7c2.074 4.86 21.5 11.453 24.27 10.372s117.69-209.183 117.69-209.183" class="cls-6" transform="translate(-155.072 107.125)"/>
                <path id="Path_173" d="M246.073 223.226c5.838 3.852-1.141 399.178-1.141 399.178-2.356 2.741-21.158 2.341-24.3 0S186.939 434.01 183.8 423.771s-71.98-200.545-71.98-200.545 125.585-5.719 134.253 0z" class="cls-5" transform="translate(-35.311 106.298)"/>
                <path id="Path_174" d="M17.606 97.406C21.429 94.724 37.638 75.018 39.55 68.4s3.35-31.594-15.558-25.919S13.62 68.158.285 80.767" class="cls-14" transform="translate(337.737 20.061)"/>
                <path id="Rectangle_13" d="M0 0H21.884V47.68H0z" class="cls-13" transform="scale(-1) rotate(38.59 -37.962 -546.048)"/>
                <path id="Path_175" d="M226.119 68.05c-4.652 4.326-52.229 84.456-52.229 94.486s10.979 70.869 17.291 83.848S226.119 68.05 226.119 68.05z" class="cls-13" transform="translate(-104.999 32.778)"/>
                <path id="Path_176" d="M184.779 53c-68.483 0-77.432 241.335-72.6 251.04s124.579 8.579 134.284 0S247.765 53 184.779 53z" class="cls-15" transform="translate(-35.67 25.529)"/>
                <path id="Path_177" d="M170.4 67.8c0 4.3-23.707 4.623-23.707 0V39H170.4z" class="cls-14" transform="translate(-8.975 18.785)"/>
                <path id="Path_178" d="M155.71 56.252c0-2.563 5.927-11.409 10.372-9.912-5.586-1.971-8.342-8.7-10.372-7.319z" class="cls-13" transform="translate(-18.025 18.706)"/>
                <circle id="Ellipse_50" cx="30.834" cy="30.834" r="30.834" class="cls-14" transform="translate(129.255 5.808)"/>
                <ellipse id="Ellipse_51" cx="5.141" cy="2.682" class="cls-16" rx="5.141" ry="2.682" transform="translate(186.121 38.094)"/>
                <ellipse id="Ellipse_52" cx="5.141" cy="2.682" class="cls-16" rx="5.141" ry="2.682" transform="translate(153.791 38.094)"/>
                <path id="Path_179" d="M132.944 23.77c.948 1.378 5.927 7.142.682 9.468" class="cls-17" transform="translate(45.799 11.449)"/>
                <path id="Path_180" d="M146.746 35.885c-1.482 0-3.926-1.911-5.186-3.645" class="cls-17" transform="translate(22.277 15.529)"/>
                <path id="Path_181" d="M124.33 18.669C124.33 7.971 139.25 0 149.637 0c16.536 0 36.686 4.03 40.005 5.2 5.571 1.941 6.519 7.883 6.519 9.868 0 8.327-2.963 13.513-12.209 14.817a28.73 28.73 0 0 0-3.23-8.357 11.616 11.616 0 0 0-7.971-.133c-2.341.815-21.9 10.031-36.375 10.031-1.926 2.711-6.164 19.262-4.919 26.285-4.238.252-12.046-13.543-12.446-20.743a15.854 15.854 0 0 1 5.927-12.95c-.193-1.556-.608-4.504-.608-5.349z" class="cls-13" transform="translate(6.288)"/>
                <circle id="Ellipse_53" cx="6.786" cy="6.786" r="6.786" class="cls-14" transform="translate(134.515 31.323)"/>
                <path id="Path_182" d="M15.81 110.954c16.98 25.944 108.785 66.868 118.445 66.868 25.618 0 101.465-84.174 105.792-93.153-4.993-5.334-15.632-16.639-17.291-16.639s-73.862 49.9-87.508 49.9-78.321-45.5-86.737-47.547" class="cls-15" transform="translate(115.297 32.768)"/>
                <path id="Path_183" d="M152.517 82.644c-11.187-6.949-20.091-12.357-22.877-13.024" class="cls-18" transform="translate(34.167 33.534)"/>
                <path id="Path_184" d="M191.465 146.552c-29.634-14.239-64.912-34.419-74.8-49.532" class="cls-18" transform="translate(14.437 46.732)"/>
                <path id="Path_185" d="M149.86 172.541c-.607-5.793-30.626-49.844-36.42-53.251 6.149 3.423 29.426 15.232 31.634 16.536 1.289 3.452 4.786 36.715 4.786 36.715z" class="cls-13" transform="translate(60.828 57.459)"/>
            </g>
        </g>
    </g>
</svg>
