<svg width="375" height="703" viewBox="0 0 375 703" fill="none" xmlns="http://www.w3.org/2000/svg">
<path fill-rule="evenodd" clip-rule="evenodd" d="M171.978 6.0567C164.125 -2.01889 151.155 -2.01891 143.302 6.05668L13.6852 139.344C6.13609 147.107 6.1361 159.468 13.6852 167.231L235.196 395.015C242.745 402.778 242.745 415.139 235.196 422.902L-14.5189 679.689C-22.0679 687.452 -22.0679 699.813 -14.5189 707.576L115.098 840.863C122.951 848.939 135.921 848.939 143.774 840.863L391.931 585.678C399.785 577.603 412.755 577.603 420.608 585.678L553.215 722.041C561.068 730.117 574.038 730.117 581.891 722.041L711.508 588.753C719.057 580.991 719.057 568.63 711.508 560.867L577.343 422.902C569.794 415.139 569.794 402.778 577.343 395.015L762.347 204.773C769.896 197.01 769.896 184.649 762.347 176.886L632.73 43.5981C624.876 35.5225 611.906 35.5226 604.053 43.5981L420.608 232.239C412.755 240.315 399.785 240.315 391.931 232.239L171.978 6.0567Z" fill="#FAEFD9"/>
<mask id="mask0" mask-type="alpha" maskUnits="userSpaceOnUse" x="-21" y="218" width="399" height="490">
<mask id="mask1" maskUnits="userSpaceOnUse" x="-98" y="218" width="476" height="490">
<rect x="-98" y="218.21" width="475.219" height="488.832" fill="white"/>
</mask>
<g mask="url(#mask1)">
<path fill-rule="evenodd" clip-rule="evenodd" d="M171.978 6.05767C164.125 -2.01791 151.155 -2.01793 143.302 6.05766L13.6852 139.345C6.13609 147.108 6.1361 159.469 13.6852 167.232L235.196 395.016C242.745 402.779 242.745 415.14 235.196 422.903L-14.5189 679.69C-22.0679 687.453 -22.0679 699.814 -14.5189 707.577L115.098 840.864C122.951 848.94 135.921 848.94 143.774 840.864L391.931 585.679C399.785 577.604 412.755 577.604 420.608 585.679L553.215 722.042C561.068 730.118 574.038 730.118 581.891 722.042L711.508 588.754C719.057 580.992 719.057 568.631 711.508 560.868L577.343 422.903C569.794 415.14 569.794 402.779 577.343 395.016L762.347 204.774C769.896 197.011 769.896 184.65 762.347 176.887L632.73 43.5991C624.877 35.5235 611.906 35.5235 604.053 43.5991L420.608 232.24C412.755 240.316 399.785 240.316 391.931 232.24L171.978 6.05767Z" fill="url(#paint0_linear)"/>
</g>
</mask>
<g mask="url(#mask0)">
<circle cx="105.857" cy="513.941" r="21.2402" fill="#F8BD4F"/>
<path d="M668.679 624.998C677.878 626.441 777.278 683.885 825.828 712.427H-19.8751C26.5761 648.508 112.411 518.645 116.467 514.586C126.597 504.446 126.87 508.502 144.392 501.742C161.914 494.982 204.897 417.017 211.194 417.017C217.491 417.017 298.53 513.684 305.648 514.586C312.766 515.487 339.049 553.118 347.263 553.118C355.476 553.118 356.571 543.654 377.378 543.654C398.185 543.654 513.72 680.655 533.432 678.853C553.144 677.05 657.18 623.196 668.679 624.998Z" fill="#EAF3FA"/>
<path d="M-531.12 597.108C-541.094 599.01 -648.873 674.78 -701.516 712.427H215.477C165.11 628.117 72.039 456.827 67.6417 451.473C56.6579 438.098 56.3611 443.448 37.3622 434.532C18.3633 425.615 -28.2433 322.779 -35.071 322.779C-41.8987 322.779 -129.768 450.284 -137.487 451.473C-145.205 452.662 -173.703 502.296 -182.609 502.296C-191.515 502.296 -192.702 489.813 -215.263 489.813C-237.825 489.813 -363.098 670.52 -384.472 668.142C-405.846 665.765 -518.652 594.73 -531.12 597.108Z" fill="#C6DEF3"/>
<path d="M253.543 567.135C249.566 567.538 244.795 571.066 242.906 572.779H283.167C283.167 561.995 269.15 569.05 264.577 569.252C260.004 569.453 258.513 566.631 253.543 567.135Z" fill="#F8BD4F"/>
<path d="M253.543 578.423C249.566 578.02 244.795 574.493 242.906 572.779H283.167C283.167 583.563 269.15 576.508 264.577 576.307C260.004 576.105 258.513 578.927 253.543 578.423Z" fill="#F8BD4F"/>
<path d="M254.032 569.778C250.469 569.993 246.193 571.874 244.5 572.788H280.576C280.576 567.037 268.016 570.799 263.919 570.907C259.822 571.014 258.485 569.509 254.032 569.778Z" fill="#FAD897"/>
<path d="M254.032 575.798C250.469 575.583 246.193 573.702 244.5 572.788H280.576C280.576 578.54 268.016 574.777 263.919 574.669C259.822 574.562 258.485 576.067 254.032 575.798Z" fill="#FAD897"/>
<path d="M233.873 592.252C226.903 592.252 221.252 597.903 221.252 604.873C221.252 611.842 226.903 617.493 233.873 617.493C240.842 617.493 246.493 611.842 246.493 604.873C246.493 597.903 240.842 592.252 233.873 592.252ZM233.873 612.625C229.591 612.625 226.12 609.154 226.12 604.872C226.12 600.591 229.591 597.12 233.873 597.12C238.154 597.12 241.625 600.591 241.625 604.872C241.625 609.154 238.154 612.625 233.873 612.625Z" fill="#0C3559"/>
<path d="M233.873 613.951C229.07 613.951 225.09 610.199 224.811 605.408L227.46 605.253C227.658 608.642 230.475 611.297 233.873 611.297C237.416 611.297 240.298 608.415 240.298 604.872C240.298 601.33 237.416 598.448 233.873 598.448C231.517 598.448 229.353 599.734 228.226 601.805L225.895 600.536C227.486 597.611 230.543 595.793 233.873 595.793C238.879 595.793 242.951 599.866 242.951 604.872C242.952 609.878 238.879 613.951 233.873 613.951Z" fill="#042039"/>
<path d="M172.413 592.252C165.443 592.252 159.792 597.903 159.792 604.873C159.792 611.842 165.443 617.493 172.413 617.493C179.382 617.493 185.033 611.842 185.033 604.873C185.033 597.903 179.382 592.252 172.413 592.252ZM172.413 612.625C168.131 612.625 164.66 609.154 164.66 604.872C164.66 600.591 168.131 597.12 172.413 597.12C176.694 597.12 180.165 600.591 180.165 604.872C180.165 609.154 176.694 612.625 172.413 612.625Z" fill="#0C3559"/>
<path d="M172.412 613.951C167.406 613.951 163.333 609.878 163.333 604.872C163.333 599.865 167.406 595.792 172.412 595.792C177.419 595.792 181.492 599.865 181.492 604.872C181.492 609.878 177.419 613.951 172.412 613.951ZM172.412 598.447C168.87 598.447 165.987 601.329 165.987 604.872C165.987 608.415 168.869 611.297 172.412 611.297C175.955 611.297 178.837 608.415 178.837 604.872C178.837 601.329 175.955 598.447 172.412 598.447Z" fill="#042039"/>
<path d="M172.412 606.199C172.238 606.199 172.061 606.165 171.89 606.092C171.216 605.804 170.904 605.024 171.192 604.35L177.842 588.805C178.13 588.132 178.91 587.819 179.584 588.107C180.258 588.396 180.57 589.175 180.282 589.849L173.632 605.394C173.417 605.897 172.927 606.199 172.412 606.199Z" fill="#042039"/>
<path d="M213.788 606.061L234.787 605.119C236.085 605.061 236.393 603.278 235.19 602.788L214.527 594.356L205.553 591.364L197.856 606.492L213.788 606.061Z" fill="#042039"/>
<path d="M207.097 571.365C206.675 571.511 194.707 576.428 194.477 577.199C194.248 577.97 201.744 592.952 202.962 593.807C204.181 594.662 204.739 589.763 204.385 589.192C202.975 586.766 201.72 584.253 200.627 581.67C201.649 581.581 212.452 580.511 213.997 580.495C215.543 580.479 207.097 571.365 207.097 571.365Z" fill="#042039"/>
<path d="M182.357 572.658C182.334 571.899 183.088 571.261 184.041 571.233C184.994 571.204 185.786 571.796 185.809 572.555C185.833 573.314 185.079 573.952 184.126 573.981C183.173 574.009 182.381 573.417 182.357 572.658Z" fill="#AA8053"/>
<path d="M213.729 574.495L189.629 593.754L188.359 587.858L186.393 578.737L188.405 576.183C190.312 573.763 193.322 572.48 196.388 572.784L202.626 573.4L213.729 574.495Z" fill="#5A9FDB"/>
<path d="M180.495 582.025L184.765 569.37C185.234 567.975 183.941 566.616 182.53 567.034C166.452 571.79 160.209 589.816 159.814 591.008C159.807 591.03 159.801 591.044 159.798 591.054C159.794 591.065 159.792 591.07 159.792 591.07" fill="#317EC2"/>
<path d="M195.358 581.141C198.334 586.731 191.745 587.711 188.358 587.858L186.393 578.737L188.404 576.183C190.312 573.763 193.322 572.48 196.388 572.784L202.625 573.4C200.488 573.189 191.423 573.752 195.358 581.141Z" fill="#317EC2"/>
<path d="M189.629 593.753L203.982 599.601H203.984L225.438 588.93L229.932 579.379C230.663 577.827 232.113 576.735 233.808 576.462L244.565 574.731C245.677 574.552 246.494 573.593 246.494 572.467C246.494 571.201 245.467 570.174 244.201 570.174H228.977L213.728 574.495H213.727H213.725L190.682 581.024L189.629 593.753Z" fill="#19588F"/>
<path d="M200.635 578.204L204.58 581.21C206.482 582.66 209.085 582.773 211.105 581.493L228.977 570.174" fill="#0C3559"/>
<path d="M197.35 579.135L212.188 588.867L225.438 588.93L203.982 599.601H193.079L190.682 581.024L197.35 579.135Z" fill="#0C3559"/>
<path d="M190.734 613.093C189.336 613.093 188.342 611.723 188.789 610.398C189.373 608.663 189.691 606.805 189.691 604.872C189.691 604.723 189.691 604.573 189.685 604.426C189.627 602.099 189.098 599.92 188.199 597.959C188.029 597.587 187.847 597.223 187.649 596.866C184.028 590.298 176.117 586.573 168.258 588.739L159.793 591.071C162.82 582.091 175.38 575.801 184.565 578.136C188.627 579.17 192.698 582.326 194.874 584.226C195.829 585.061 196.334 586.285 196.292 587.553C196.288 587.694 196.285 587.835 196.285 587.976C196.285 594.945 201.935 600.595 208.905 600.595H208.925C210.189 600.594 211.356 601.281 211.965 602.388C213.268 604.753 214.2 606.915 214.848 608.669C215.213 609.649 215.489 610.501 215.693 611.188C215.976 612.139 215.261 613.093 214.269 613.093H190.734V613.093Z" fill="#5A9FDB"/>
<path d="M190.733 613.093C189.335 613.093 188.342 611.723 188.788 610.398C189.373 608.663 189.69 606.805 189.69 604.872C189.69 604.723 189.69 604.573 189.685 604.426C189.627 602.099 189.098 599.92 188.199 597.959C191.373 603.05 204.361 611.771 214.848 608.669C215.212 609.649 215.489 610.501 215.693 611.188C215.976 612.139 215.26 613.093 214.268 613.093H190.733V613.093Z" fill="#317EC2"/>
<path d="M182.315 574.092L187.033 577.886C187.187 578.01 187.399 578.05 187.623 577.996C187.846 577.942 188.062 577.799 188.224 577.598C188.386 577.398 188.479 577.156 188.484 576.926C188.489 576.697 188.406 576.498 188.251 576.374L183.533 572.58L182.315 574.092Z" fill="#0C3559"/>
<path d="M200.598 610.473H197.148C196.637 610.473 196.171 610.18 195.951 609.719L193.031 603.614C192.835 603.203 192.863 602.72 193.106 602.334C193.349 601.949 193.773 601.715 194.228 601.715H200.333C201.065 601.715 201.66 602.309 201.66 603.042C201.66 603.775 201.065 604.369 200.333 604.369H196.334L197.984 607.819H200.598C201.331 607.819 201.925 608.413 201.925 609.146C201.925 609.879 201.331 610.473 200.598 610.473Z" fill="#042039"/>
<path d="M200.498 605.698C200.433 606.093 200.254 608.594 199.787 608.812C199.319 609.03 194.57 609.005 194.376 608.76C194.182 608.516 194.147 608.033 194.362 607.9C194.577 607.768 196.466 607.441 196.754 607.267C197.041 607.094 197.53 606.127 197.489 605.595" fill="#042039"/>
<path d="M203.531 590.002C203.607 590.363 204.256 592.62 203.876 592.984C203.497 593.348 198.886 595.095 198.634 594.951C198.383 594.807 198.169 594.402 198.335 594.208C198.5 594.013 200.218 593.021 200.429 592.763C200.64 592.506 200.801 591.479 200.582 591.031" fill="#042039"/>
<path d="M185.573 547.912C187.143 544.303 192.718 542.633 196.383 544.014C200.271 545.479 201.744 548.743 205.97 550.335C209.56 551.688 215.622 548.983 220.204 550.709C226.086 552.926 225.154 560.153 224.07 562.647C221.34 568.924 215.729 568.175 214.534 567.725C213.339 567.275 197.443 559.511 196.872 559.296C198.392 554.968 193.055 553.538 193.296 552.145C192.683 552.516 188.944 553.894 188.19 553.61C184.7 552.295 185.006 549.218 185.573 547.912Z" fill="#042039"/>
<path d="M192.176 563.746C192.109 563.981 190.831 567.446 190.542 567.886L190.256 568.328C190.256 568.328 185.916 572.113 185.584 572.389C185.252 572.664 186.07 573.611 186.07 573.611C186.07 573.611 192.275 570.175 192.745 569.858C193.215 569.54 196.313 565.714 196.508 565.215C196.704 564.715 192.176 563.746 192.176 563.746Z" fill="#AA8053"/>
<path d="M207.088 570.843C210.409 569.995 213.746 566.967 215.32 564.439C216.578 567.386 216.814 570.683 215.388 574.026C212.843 579.991 206.932 587.848 205.143 589.983C204.815 591.264 200.368 606.379 200.368 606.379L197.269 606.096C197.269 606.096 200.241 587.095 200.553 586.16C201.547 582.193 206.93 571.356 207.088 570.843Z" fill="#367229"/>
<path d="M186.16 573.592C186.16 573.592 186.227 573.242 186.687 573.286C187.148 573.33 194.289 571.667 196.061 570.023C196.021 568.929 195.629 564.769 195.018 563.415C194.407 562.06 201.618 558.686 201.618 558.686C201.645 559.296 202.057 570.382 199.765 573.363C198.328 575.132 189.01 575.834 186.617 576.069C184.223 576.304 186.16 573.592 186.16 573.592Z" fill="#AA8053"/>
<path d="M215.954 565.925C215.882 565.739 215.815 565.556 215.724 565.367C215.809 565.557 215.885 565.74 215.954 565.925Z" fill="#FAD897"/>
<path d="M203.535 553.996C208.318 555.781 213.235 559.797 215.391 564.74C213.674 567.423 210.054 570.648 206.421 571.54C206.421 571.54 203.458 568.798 201.348 566.891C201.382 566.599 201.462 566.249 201.475 566.1C200.02 566.371 196.05 567.155 195.854 567.171C195.846 566.904 195.81 566.521 195.771 566.185L195.764 566.203C195.263 566.098 193.552 565.945 191.927 565.014C192.108 564.267 194.525 556.526 194.817 555.862C195.109 555.197 197.198 551.63 203.535 553.996Z" fill="#83CE74"/>
<path d="M193.629 552.097L197.4 554.584C197.906 554.912 195.864 558.075 195.327 557.722L191.553 555.234L193.629 552.097Z" fill="#AA8053"/>
<path d="M201.494 565.766C201.536 565.093 201.952 561.397 201.687 560.331" stroke="#042039" stroke-width="0.55" stroke-miterlimit="10" stroke-linecap="round"/>
<path d="M195.902 566.431C195.856 565.801 195.6 562.698 195.6 562.698" stroke="#042039" stroke-width="0.55" stroke-miterlimit="10" stroke-linecap="round"/>
<path d="M182.423 573.636C182.702 572.628 183.854 571.985 184.996 572.2C186.138 572.415 186.837 573.406 186.557 574.414C186.278 575.422 185.126 576.065 183.984 575.85C182.842 575.635 182.143 574.644 182.423 573.636Z" fill="#AA8053"/>
<path d="M191.628 552.23C191.168 552.058 190.979 551.502 191.205 550.987C191.432 550.472 191.988 550.194 192.448 550.365C192.908 550.536 193.098 551.093 192.871 551.607C192.645 552.122 192.088 552.401 191.628 552.23Z" fill="#AA8053"/>
<path d="M191.599 550.367C192.349 550.886 193.776 551.729 194.953 551.933C194.803 552.522 194.544 553.09 194.194 553.601C193.843 554.112 193.408 554.557 192.914 554.908C192.42 555.259 191.877 555.509 191.318 555.644C190.759 555.778 190.196 555.795 189.661 555.692C189.127 555.589 188.632 555.368 188.208 555.044C187.783 554.72 187.437 554.298 187.19 553.804C186.943 553.31 186.8 552.754 186.77 552.17C186.74 551.585 186.824 550.984 187.015 550.402C188.164 550.554 190.43 550.651 191.599 550.367Z" fill="#AA8053"/>
<path d="M187.551 551.757C187.483 552.006 187.041 553.309 188.066 553.199" stroke="#042039" stroke-width="0.55" stroke-miterlimit="10" stroke-linecap="round"/>
<path d="M189.643 553.924C189.752 553.814 189.828 553.671 189.859 553.52C189.889 553.369 189.873 553.217 189.812 553.091" stroke="#042039" stroke-width="0.55" stroke-miterlimit="10" stroke-linecap="round"/>
<path d="M86.4736 632.586V712.277H103.644V675.512C103.644 661.288 115.176 649.757 129.4 649.757C143.624 649.757 155.155 661.289 155.155 675.512V712.276H180.91V675.512C180.91 661.288 192.442 649.757 206.666 649.757C220.89 649.757 232.421 661.289 232.421 675.512V712.276H258.176V675.512C258.176 661.288 269.708 649.757 283.932 649.757C298.156 649.757 309.687 661.289 309.687 675.512V712.276H326.858V632.586H86.4736Z" fill="#CBCBCB"/>
<path d="M339.51 617.387H73.8218V636.365H339.51V617.387Z" fill="#A3A3A3"/>
<path d="M-151.754 632.411V712.102H-134.584V675.337C-134.584 661.113 -123.052 649.582 -108.828 649.582C-94.604 649.582 -83.073 661.113 -83.073 675.337V712.101H-57.3176V675.337C-57.3176 661.113 -45.786 649.582 -31.5622 649.582C-17.3378 649.582 -5.80688 661.113 -5.80688 675.337V712.101H19.9485V675.337C19.9485 661.113 31.4801 649.582 45.7038 649.582C59.9282 649.582 71.4592 661.113 71.4592 675.337V712.101H88.6299V632.411H-151.754Z" fill="#CBCBCB"/>
<path d="M101.282 617.212H-164.406V636.19H101.282V617.212Z" fill="#A3A3A3"/>
<path d="M-14.0156 524.922C-14.0156 513.139 15.3083 510.641 26.8972 510.641C50.401 510.641 51.9568 497.226 71.4723 497.226C88.6325 497.226 97.3556 511.077 113.333 511.077C147.616 511.079 155.251 471.705 188.602 471.705C222.537 471.705 220.803 512.807 252.381 512.807C268.436 512.807 364.891 515.828 364.891 524.927L-14.0156 524.922Z" fill="white"/>
<path d="M111.473 440.739C111.473 436.583 125.64 430.069 133.387 430.069C148.67 430.069 143.899 435.405 153.512 435.405C164.467 435.404 166.97 411.646 183.639 411.646C201.859 411.646 198.999 434.884 210.182 434.884C214.998 434.884 217.41 432.626 224.252 432.626C228.223 432.626 232.566 436.592 232.566 440.756L111.473 440.739Z" fill="white"/>
</g>
<defs>
<linearGradient id="paint0_linear" x1="374.124" y1="179.4" x2="374.124" y2="523.723" gradientUnits="userSpaceOnUse">
<stop stop-color="white"/>
<stop offset="1" stop-color="#FAEFD9"/>
</linearGradient>
</defs>
</svg>
