<svg width="411" height="385" viewBox="0 0 411 385" fill="none" xmlns="http://www.w3.org/2000/svg">
<path d="M36 162C36 157.582 39.5817 154 44 154H367C371.418 154 375 157.582 375 162V341H36V162Z" fill="#E5E9F6" stroke="#030F44" stroke-width="8"/>
<path d="M213 218C186.2 218 122.031 223 110 240.5C101.2 253.3 92.8328 310.167 96.4995 337H299.5C305 330.5 319 248.5 302 232.5C287.861 219.193 246.5 218 213 218Z" fill="#AFBBE8"/>
<path d="M139.407 270C138.862 276.671 131.26 334.162 132.059 338.5" stroke="#030F44" stroke-miterlimit="10" stroke-linecap="round"/>
<path d="M269.407 268C268.862 274.671 261.26 332.162 262.059 336.5" stroke="#030F44" stroke-miterlimit="10" stroke-linecap="round"/>
<path d="M205.648 268.156C194.128 268.171 185.263 278.11 185.111 288.889C184.988 297.748 190.769 305.992 199.522 309.223C199.621 309.258 199.728 309.266 199.831 309.245C199.934 309.224 200.03 309.175 200.106 309.103C200.183 309.03 200.239 308.938 200.267 308.836C200.296 308.734 200.296 308.626 200.268 308.524C198.094 300.431 195.915 292.335 193.73 284.236C193.687 284.102 193.694 283.956 193.751 283.827C193.807 283.698 193.91 283.594 194.038 283.535C194.165 283.476 194.311 283.467 194.445 283.509C194.579 283.552 194.692 283.643 194.763 283.764L202.46 295.36C202.541 295.487 202.67 295.577 202.817 295.609C202.964 295.641 203.118 295.614 203.245 295.532C203.358 295.459 203.442 295.349 203.483 295.221L205.13 290.22C205.166 290.106 205.239 290.006 205.336 289.934C205.433 289.863 205.55 289.825 205.671 289.825C205.791 289.825 205.908 289.863 206.006 289.934C206.103 290.004 206.175 290.104 206.212 290.219L207.874 295.226C207.905 295.33 207.966 295.422 208.048 295.492C208.131 295.562 208.231 295.607 208.338 295.622C208.446 295.637 208.555 295.621 208.653 295.576C208.752 295.531 208.835 295.459 208.894 295.368L216.586 283.958C216.659 283.84 216.773 283.753 216.906 283.714C217.039 283.674 217.182 283.685 217.308 283.743C217.433 283.802 217.534 283.905 217.59 284.032C217.646 284.159 217.655 284.302 217.614 284.435L211.12 308.505C211.091 308.607 211.091 308.716 211.119 308.818C211.148 308.921 211.205 309.013 211.283 309.086C211.36 309.158 211.456 309.208 211.559 309.229C211.663 309.25 211.771 309.241 211.87 309.204C220.616 305.948 226.377 297.69 226.231 288.833C226.061 278.057 217.173 268.141 205.648 268.156ZM205.669 285.999C204.644 286.009 203.64 285.714 202.782 285.153C201.925 284.592 201.254 283.789 200.853 282.846C200.453 281.904 200.341 280.864 200.532 279.858C200.723 278.851 201.209 277.924 201.927 277.194C202.645 276.463 203.564 275.962 204.567 275.753C205.571 275.545 206.613 275.638 207.563 276.022C208.514 276.405 209.329 277.062 209.905 277.909C210.482 278.755 210.794 279.754 210.803 280.778L210.803 280.815C210.807 281.493 210.677 282.164 210.421 282.791C210.165 283.418 209.787 283.989 209.311 284.47C208.834 284.952 208.267 285.334 207.642 285.597C207.017 285.859 206.346 285.996 205.669 285.999Z" fill="white"/>
<path d="M213.538 194.851C235.745 194.851 253.746 176.874 253.746 154.698C253.746 132.521 235.745 114.544 213.538 114.544C191.332 114.544 173.33 132.521 173.33 154.698C173.33 176.874 191.332 194.851 213.538 194.851Z" fill="#AA8053"/>
<path d="M233.611 231.425C233.611 236.659 192.277 236.659 192.277 231.425V178.443H233.611V231.425Z" fill="#AA8053"/>
<path d="M199.936 96C179.294 96 166.416 108.94 166.416 125.525C166.416 139.317 169.776 147.119 173.715 149.094C176.207 135.704 181.625 129.507 186.11 126.842C189.583 129.507 195.563 135.961 203.537 137.952C211.512 139.943 232.267 139.557 249.035 151.727C254.501 146.75 259.983 140.28 259.983 132.654C259.983 125.028 256.607 115.459 236.736 109.936C223.633 106.291 221.817 96 199.936 96Z" fill="#042039"/>
<path d="M188.985 172.405C192.874 172.405 196.027 170.766 196.027 168.744C196.027 166.723 192.874 165.084 188.985 165.084C185.096 165.084 181.943 166.723 181.943 168.744C181.943 170.766 185.096 172.405 188.985 172.405Z" fill="#CFB293"/>
<path d="M231.497 172.405C235.386 172.405 238.538 170.766 238.538 168.744C238.538 166.723 235.386 165.084 231.497 165.084C227.608 165.084 224.455 166.723 224.455 168.744C224.455 170.766 227.608 172.405 231.497 172.405Z" fill="#CFB293"/>
<path d="M212.66 158.441C211.342 160.32 204.622 168.203 211.712 171.382" stroke="#042039" stroke-miterlimit="10" stroke-linecap="round"/>
<path d="M207.725 183.388C209.409 184.652 213.613 184.514 216.405 183.658" stroke="#042039" stroke-miterlimit="10" stroke-linecap="round"/>
<path d="M250.708 168.601C255.84 168.601 260.001 164.446 260.001 159.321C260.001 154.196 255.84 150.042 250.708 150.042C245.576 150.042 241.416 154.196 241.416 159.321C241.416 164.446 245.576 168.601 250.708 168.601Z" fill="#AA8053"/>
<path d="M175.292 168.601C180.424 168.601 184.585 164.446 184.585 159.321C184.585 154.196 180.424 150.042 175.292 150.042C170.16 150.042 166 154.196 166 159.321C166 164.446 170.16 168.601 175.292 168.601Z" fill="#AA8053"/>
<path d="M0 365C0 376.046 8.9543 385 20 385H391C402.046 385 411 376.046 411 365V353H0V365Z" fill="#030F44"/>
<path d="M188.109 81.1049C186.367 79.792 186.005 77.2995 187.485 75.6971C190.804 72.1047 194.769 69.1511 199.185 66.9973C204.788 64.2648 210.958 62.8971 217.19 63.006C223.423 63.115 229.541 64.6974 235.045 67.624C239.383 69.9308 243.243 73.0211 246.434 76.7272C247.857 78.3804 247.408 80.8587 245.621 82.11C243.834 83.3612 241.388 82.9067 239.924 81.2896C237.477 78.5868 234.573 76.3204 231.336 74.5992C226.933 72.2579 222.038 70.992 217.052 70.9048C212.066 70.8177 207.13 71.9118 202.648 74.0978C199.353 75.7049 196.372 77.8684 193.831 80.4841C192.312 82.049 189.851 82.4178 188.109 81.1049Z" fill="#F8BD4F"/>
<path d="M173.015 61.7303C170.347 59.7194 169.792 55.9018 172.06 53.4474C177.143 47.9452 183.216 43.4213 189.98 40.1224C198.561 35.9372 208.011 33.8424 217.557 34.0092C227.103 34.1761 236.474 36.5998 244.904 41.0823C251.549 44.6155 257.46 49.3488 262.348 55.0253C264.528 57.5574 263.841 61.3533 261.103 63.2697C258.366 65.1862 254.62 64.49 252.377 62.0132C248.629 57.8734 244.181 54.4021 239.223 51.7658C232.479 48.1798 224.983 46.2408 217.346 46.1074C209.709 45.9739 202.149 47.6498 195.284 50.9979C190.237 53.4593 185.671 56.7732 181.78 60.7795C179.452 63.1764 175.683 63.7412 173.015 61.7303Z" fill="#F8BD4F"/>
<path d="M157.202 37.814C153.563 35.0719 152.808 29.8661 155.9 26.5192C162.831 19.0161 171.112 12.8472 180.336 8.34874C192.038 2.64167 204.924 -0.214896 217.942 0.0125953C230.959 0.240086 243.738 3.54518 255.233 9.65764C264.294 14.4757 272.355 20.9301 279.019 28.6708C281.992 32.1237 281.055 37.2999 277.323 39.9132C273.591 42.5266 268.482 41.5773 265.423 38.1998C260.312 32.5547 254.247 27.821 247.486 24.2261C238.29 19.3361 228.067 16.6921 217.653 16.5101C207.239 16.3281 196.93 18.6133 187.569 23.179C180.687 26.5355 174.46 31.0544 169.154 36.5175C165.98 39.786 160.841 40.5562 157.202 37.814Z" fill="#F8BD4F"/>
</svg>
