<svg width="468" height="341" viewBox="0 0 468 341" fill="none" xmlns="http://www.w3.org/2000/svg">
<path d="M185.426 252.284H223.172V298.656H185.426V252.284Z" fill="#E9E9E9"/>
<path d="M185.426 252.284H223.172V274.161H185.426V252.284Z" fill="#CBCBCB"/>
<path d="M174.229 260.797H185.426V287.525H174.229V260.797Z" fill="#CBCBCB"/>
<path d="M19.6947 299.813H246.164V340.258H19.6947V299.813Z" fill="#A3A3A3"/>
<path d="M19.6947 299.813H246.164V320.036H19.6947V299.813Z" fill="#727272"/>
<path d="M0.822998 285.303H265.036V306.757H0.822998V285.303Z" fill="#A3A3A3"/>
<path d="M143.565 160.87H265.036V263.5H143.565V160.87Z" fill="#CBCBCB"/>
<path d="M159.352 160.87H265.036V263.5H159.352V160.87Z" fill="#E9E9E9"/>
<path d="M127.053 258.946V285.303H10.3677V258.946C10.3677 247.62 19.6363 238.44 31.0658 238.44H106.349C117.785 238.44 127.053 247.62 127.053 258.946Z" fill="#042039"/>
<path d="M127.053 258.946V285.303H17.4592V258.946C17.4592 247.62 26.7278 238.44 38.1633 238.44H106.349C117.785 238.44 127.053 247.62 127.053 258.946Z" fill="#0C3559"/>
<path d="M31.6503 238.442L30.3945 269.974L43.7773 273.288L31.7612 285.189H105.658L93.6417 273.288L107.024 269.974L105.769 238.442" fill="#042039"/>
<path d="M94.2222 238.442L80.7427 285.301H56.6783L43.1987 238.442" fill="#E9E9E9"/>
<path d="M52.2214 249.948L68.7105 270.39L85.0363 250.024L68.7105 247.003L52.2214 249.948Z" fill="#5A9FDB"/>
<path d="M50.772 264.768L68.7105 247.003L86.6489 264.768L94.2222 238.442H43.1987L50.772 264.768Z" fill="white"/>
<path d="M84.0466 212.117V238.444L68.7105 247.003L63.9714 244.36L53.3744 238.444V212.099L63.9714 212.103L84.0466 212.117Z" fill="#E5D6C6"/>
<path d="M56.7609 285.301L68.7105 270.39L80.7427 285.301" fill="#5A9FDB"/>
<path d="M63.9714 212.103L53.3744 212.099V238.444L63.9714 244.36V232.177C65.5376 232.331 67.1241 232.417 68.7306 232.417C74.0846 232.417 79.2369 231.552 84.0466 229.953V212.117L63.9714 212.103Z" fill="#CFB293"/>
<path d="M20.5898 184.396C12.6032 184.396 6.13055 178.656 6.13055 171.577C6.13055 164.497 12.6032 158.758 20.5898 158.758H116.876C124.862 158.758 131.335 164.497 131.335 171.577C131.335 178.658 124.862 184.396 116.876 184.396" fill="#CFB293"/>
<path d="M116.878 130.699V178.385C116.878 204.718 95.3228 226.066 68.7306 226.066C55.4386 226.066 43.4003 220.728 34.6881 212.101C25.9779 203.474 20.5897 191.549 20.5897 178.385V130.699H116.878Z" fill="#E5D6C6"/>
<path d="M68.39 226.064C55.2309 225.976 43.3298 220.656 34.6881 212.101C25.9779 203.47 20.5897 191.553 20.5897 178.385V130.701H42.2634V178.383C42.2634 191.551 45.2246 203.47 50.0141 212.101C54.731 220.596 61.2158 225.898 68.39 226.064Z" fill="#CFB293"/>
<path d="M96.6432 177.864C94.8794 177.864 93.4502 176.448 93.4502 174.701V168.075C93.4502 166.33 94.8794 164.913 96.6432 164.913C98.407 164.913 99.8362 166.33 99.8362 168.075V174.701C99.8362 176.448 98.407 177.864 96.6432 177.864Z" fill="#042039"/>
<path d="M62.391 177.864C60.6272 177.864 59.198 176.448 59.198 174.701V168.075C59.198 166.33 60.6272 164.913 62.391 164.913C64.1548 164.913 65.584 166.33 65.584 168.075V174.701C65.584 176.448 64.1548 177.864 62.391 177.864Z" fill="#042039"/>
<path d="M116.878 130.699V142.65C113.578 144.99 109.631 147.044 104.944 148.717C87.4976 154.94 70.6093 152.846 58.6679 149.548C58.6679 149.548 58.6638 149.548 58.6638 149.544C48.2583 146.677 41.6083 142.89 41.6083 142.89C41.6083 142.89 37.2199 163.817 20.5897 163.817V130.699H116.878Z" fill="#CFB293"/>
<path d="M104.942 143.656C87.4976 149.883 70.6094 147.787 58.6638 144.489C58.6638 144.489 58.6598 144.489 58.6598 144.485C48.2584 141.614 41.6083 137.829 41.6083 137.829C41.6083 137.829 37.2179 158.755 20.5877 158.755C20.5877 158.755 9.52513 139.374 9.87386 121.442C10.0533 112.142 17.7939 105.188 26.5948 105.188C28.2376 105.188 29.9188 105.428 31.5919 105.945C36.3048 93.4113 48.7563 85.4794 62.2358 86.2899C64.3363 86.4197 66.4468 86.5854 68.5674 86.7751C68.9725 86.809 69.3838 86.845 69.7889 86.8829C69.8313 86.8869 69.8716 86.8909 69.9139 86.8949C91.9182 88.9412 114.207 92.9262 127.301 78.5776C127.301 78.5776 148.945 127.958 104.942 143.656Z" fill="#0C3559"/>
<path d="M62.2358 86.29C64.3362 86.4197 66.4488 86.5854 68.5674 86.7751C49.1534 85.9625 33.7286 128.309 58.6598 144.485C48.2584 141.614 41.6083 137.829 41.6083 137.829C41.6083 137.829 37.2179 158.756 20.5877 158.756C20.5877 158.756 9.52513 139.374 9.87386 121.442C10.0533 112.142 17.7939 105.188 26.5948 105.188C28.2376 105.188 29.9188 105.428 31.5919 105.945C36.3048 93.4113 48.7563 85.4794 62.2358 86.29Z" fill="#042039"/>
<path d="M69.9241 86.9011C69.8777 86.893 69.8353 86.8869 69.7909 86.8829C69.8313 86.8869 69.8736 86.893 69.916 86.895L69.9241 86.9011Z" fill="#F4AF9D"/>
<path d="M79.5171 203.203C74.4212 203.203 69.3273 201.282 65.4469 197.441C64.2012 196.205 64.2012 194.203 65.4469 192.969C66.6947 191.733 68.7165 191.733 69.9623 192.969C75.2315 198.186 83.8027 198.186 89.0699 192.969C90.3177 191.733 92.3395 191.733 93.5852 192.969C94.833 194.203 94.833 196.205 93.5852 197.441C89.7069 201.282 84.613 203.203 79.5171 203.203Z" fill="#E38282"/>
<path d="M193.862 251.483H173.91C171.677 251.483 169.866 249.69 169.866 247.478C169.866 245.266 171.677 243.473 173.91 243.473H193.862C196.096 243.473 197.906 245.266 197.906 247.478C197.906 249.69 196.096 251.483 193.862 251.483Z" fill="#CBCBCB"/>
<path d="M193.862 238.666H173.91C171.677 238.666 169.866 236.873 169.866 234.661C169.866 232.449 171.677 230.656 173.91 230.656H193.862C196.096 230.656 197.906 232.449 197.906 234.661C197.906 236.873 196.096 238.666 193.862 238.666Z" fill="#CBCBCB"/>
<path d="M193.862 225.849H173.91C171.677 225.849 169.866 224.056 169.866 221.844C169.866 219.632 171.677 217.839 173.91 217.839H193.862C196.096 217.839 197.906 219.632 197.906 221.844C197.906 224.056 196.096 225.849 193.862 225.849Z" fill="#CBCBCB"/>
<path d="M250.748 251.483H230.797C228.564 251.483 226.752 249.69 226.752 247.478C226.752 245.266 228.564 243.473 230.797 243.473H250.748C252.981 243.473 254.791 245.266 254.791 247.478C254.791 249.69 252.981 251.483 250.748 251.483Z" fill="#CBCBCB"/>
<path d="M250.748 238.666H230.797C228.564 238.666 226.752 236.873 226.752 234.661C226.752 232.449 228.564 230.656 230.797 230.656H250.748C252.981 230.656 254.791 232.449 254.791 234.661C254.791 236.873 252.981 238.666 250.748 238.666Z" fill="#CBCBCB"/>
<path d="M250.748 225.849H230.797C228.564 225.849 226.752 224.056 226.752 221.844C226.752 219.632 228.564 217.839 230.797 217.839H250.748C252.981 217.839 254.791 219.632 254.791 221.844C254.791 224.056 252.981 225.849 250.748 225.849Z" fill="#CBCBCB"/>
<path d="M234.303 114.502C234.303 130.428 221.267 143.339 205.185 143.339C189.103 143.339 176.067 130.428 176.067 114.502C176.067 98.5742 189.103 85.6631 205.185 85.6631C221.267 85.6631 234.303 98.5742 234.303 114.502Z" fill="#F2A922"/>
<path d="M220.821 114.502L197.098 100.936V128.068L220.821 114.502Z" fill="white"/>
<circle cx="354.23" cy="113.096" r="113.096" fill="#C6DEF3"/>
<path d="M414.171 52.1711H293.418C290.948 52.1711 288.945 54.1543 288.945 56.6006V136.331C288.945 138.778 290.948 140.761 293.418 140.761H414.171C416.641 140.761 418.644 138.778 418.644 136.331V56.6006C418.644 54.1543 416.641 52.1711 414.171 52.1711Z" fill="#FAEFD9"/>
<path d="M367.212 167.338H340.378L344.85 140.761H362.739L367.212 167.338Z" fill="#042039"/>
<path d="M326.96 165.123H380.629V169.552H326.96V165.123Z" fill="#042039"/>
<path d="M293.418 52.1711H353.795V92.0364H288.945V56.6006C288.945 55.4258 289.417 54.2992 290.255 53.4685C291.094 52.6378 292.232 52.1711 293.418 52.1711Z" fill="#EAF3FA"/>
<path d="M418.644 131.902H353.795V92.0364H418.644V131.902Z" fill="#EAF3FA"/>
<path d="M322.488 114.184C327.428 114.184 331.433 110.218 331.433 105.325C331.433 100.432 327.428 96.466 322.488 96.466C317.548 96.466 313.543 100.432 313.543 105.325C313.543 110.218 317.548 114.184 322.488 114.184Z" fill="#E5D6C6"/>
<path d="M313.543 114.184H331.433C333.805 114.184 336.08 115.117 337.758 116.779C339.435 118.44 340.378 120.693 340.378 123.043V129.687H304.599V123.043C304.599 120.693 305.541 118.44 307.219 116.779C308.896 115.117 311.171 114.184 313.543 114.184Z" fill="#F2A922"/>
<path d="M322.488 76.5332C327.428 76.5332 331.433 72.5669 331.433 67.6743C331.433 62.7816 327.428 58.8153 322.488 58.8153C317.548 58.8153 313.543 62.7816 313.543 67.6743C313.543 72.5669 317.548 76.5332 322.488 76.5332Z" fill="#694827"/>
<path d="M313.543 76.5333H331.433C333.805 76.5333 336.08 77.4666 337.758 79.128C339.435 80.7894 340.378 83.0427 340.378 85.3923V92.0365H304.599V85.3923C304.599 83.0427 305.541 80.7894 307.219 79.128C308.896 77.4666 311.171 76.5333 313.543 76.5333Z" fill="#F2A922"/>
<path d="M385.101 114.184C390.041 114.184 394.046 110.218 394.046 105.325C394.046 100.432 390.041 96.466 385.101 96.466C380.161 96.466 376.156 100.432 376.156 105.325C376.156 110.218 380.161 114.184 385.101 114.184Z" fill="#88613A"/>
<path d="M376.156 114.184H394.046C396.418 114.184 398.693 115.117 400.371 116.779C402.048 118.44 402.99 120.693 402.99 123.043V129.687H367.212V123.043C367.212 120.693 368.154 118.44 369.831 116.779C371.509 115.117 373.784 114.184 376.156 114.184Z" fill="#F2A922"/>
<path d="M385.101 76.5332C390.041 76.5332 394.046 72.5669 394.046 67.6743C394.046 62.7816 390.041 58.8153 385.101 58.8153C380.161 58.8153 376.156 62.7816 376.156 67.6743C376.156 72.5669 380.161 76.5332 385.101 76.5332Z" fill="#BF9972"/>
<path d="M376.156 76.5333H394.046C396.418 76.5333 398.693 77.4666 400.371 79.128C402.048 80.7894 402.99 83.0427 402.99 85.3923V92.0365H367.212V85.3923C367.212 83.0427 368.154 80.7894 369.831 79.128C371.509 77.4666 373.784 76.5333 376.156 76.5333Z" fill="#F2A922"/>
<path d="M414.171 49.9563H293.418C291.639 49.9584 289.934 50.6591 288.676 51.9046C287.419 53.1502 286.711 54.839 286.709 56.6006V136.331C286.711 138.093 287.419 139.782 288.676 141.027C289.934 142.273 291.639 142.973 293.418 142.975H414.171C415.95 142.973 417.655 142.273 418.913 141.027C420.17 139.782 420.878 138.093 420.88 136.331V56.6006C420.878 54.839 420.17 53.1502 418.913 51.9046C417.655 50.6591 415.95 49.9584 414.171 49.9563ZM293.418 54.3858H414.171C414.764 54.3858 415.333 54.6191 415.752 55.0345C416.172 55.4498 416.407 56.0132 416.407 56.6006V127.472C416.407 128.06 416.172 128.623 415.752 129.038C415.333 129.454 414.764 129.687 414.171 129.687H293.418C292.825 129.687 292.256 129.454 291.837 129.038C291.417 128.623 291.182 128.06 291.182 127.472V56.6006C291.182 56.0132 291.417 55.4498 291.837 55.0345C292.256 54.6191 292.825 54.3858 293.418 54.3858Z" fill="#0C3559"/>
<path d="M353.795 138.546C355.03 138.546 356.031 137.554 356.031 136.331C356.031 135.108 355.03 134.117 353.795 134.117C352.56 134.117 351.558 135.108 351.558 136.331C351.558 137.554 352.56 138.546 353.795 138.546Z" fill="#E9E9E9"/>
</svg>
