<svg width="10" height="18" viewBox="0 0 10 18" fill="none" xmlns="http://www.w3.org/2000/svg">
<path d="M7.51042 12.0493C7.51042 11.5396 7.31648 11.1102 6.9286 10.7612C6.5467 10.4122 5.89925 10.0964 4.98625 9.81381C3.71521 9.4537 2.7873 8.98556 2.2025 8.40938C1.62367 7.82766 1.33426 7.09082 1.33426 6.19885C1.33426 5.29027 1.61771 4.54511 2.1846 3.9634C2.75746 3.38168 3.1698 3.04373 4.16634 2.93293V1.10461C4.16634 1.10461 4.16634 0.666016 4.99967 0.666016C5.83301 0.666016 5.83301 1.10461 5.83301 1.10461V2.93293C6.83551 3.06035 7.65363 3.45093 8.20859 4.10467C8.76952 4.75841 9.04998 5.65315 9.04998 6.78888H7.403C7.403 6.00772 7.2031 5.38722 6.80329 4.92738C6.40348 4.46755 5.86344 4.23763 5.18317 4.23763C4.47306 4.23763 3.93004 4.40938 3.5541 4.75287C3.17816 5.09082 2.99019 5.5645 2.99019 6.17392C2.99019 6.73902 3.18711 7.19055 3.58095 7.5285C3.98076 7.86091 4.63418 8.16561 5.54121 8.44262C6.4542 8.71409 7.16431 9.01603 7.67153 9.34844C8.18472 9.67531 8.56066 10.0576 8.79935 10.4953C9.04401 10.9329 9.16634 11.4454 9.16634 12.0327C9.16634 12.9689 8.86201 13.7224 8.25334 14.293C7.65065 14.8637 6.92502 15.2016 5.83301 15.3069V16.8941C5.83301 16.8941 5.83301 17.3327 4.99967 17.3327C4.16634 17.3327 4.16634 16.8941 4.16634 16.8941V15.3069C3.05642 15.2127 2.40539 14.8471 1.77286 14.2099C1.14629 13.5673 0.833008 12.6975 0.833008 11.6005H2.48893C2.48893 12.3706 2.70674 12.9634 3.14235 13.3789C3.57797 13.7944 4.19558 14.0022 4.9952 14.0022C5.77692 14.0022 6.39155 13.8277 6.83909 13.4786C7.28664 13.1296 7.51042 12.6531 7.51042 12.0493Z" fill="#262626"/>
</svg>
