<svg width="44" height="44" viewBox="0 0 44 44" fill="none" xmlns="http://www.w3.org/2000/svg">
<path d="M0 22C0 9.84974 9.84974 0 22 0C34.1503 0 44 9.84974 44 22C44 34.1503 34.1503 44 22 44C9.84974 44 0 34.1503 0 22Z" fill="white"/>
<path d="M15.5677 24.1032L26.1923 13.4786C26.3876 13.2833 26.7042 13.2833 26.8995 13.4786L30.435 17.0141C30.6302 17.2093 30.6302 17.5259 30.435 17.7212L19.8104 28.3458C19.7382 28.4179 19.6458 28.4663 19.5454 28.4843L15.2333 29.2609C14.8903 29.3227 14.5908 29.0233 14.6526 28.6802L15.4292 24.3681C15.4473 24.2677 15.4956 24.1753 15.5677 24.1032Z" stroke="#262626" stroke-width="1.75"/>
<path d="M22 43C10.402 43 1 33.598 1 22H-1C-1 34.7025 9.29745 45 22 45V43ZM43 22C43 33.598 33.598 43 22 43V45C34.7025 45 45 34.7025 45 22H43ZM22 1C33.598 1 43 10.402 43 22H45C45 9.29745 34.7025 -1 22 -1V1ZM22 -1C9.29745 -1 -1 9.29745 -1 22H1C1 10.402 10.402 1 22 1V-1Z" fill="#262626"/>
</svg>
