<svg width="282" height="320" viewBox="0 0 282 320" fill="none" xmlns="http://www.w3.org/2000/svg">
<path d="M242.863 154.814V260.521C242.863 263.734 241.105 266.689 238.281 268.221L144.775 318.934C142.172 320.344 139.034 320.344 136.439 318.934L42.925 268.221C40.1084 266.689 38.3495 263.734 38.3495 260.521V154.814H242.863Z" fill="#AFBBE8"/>
<path d="M242.863 173.834V209.8L188.832 239.103C186.687 240.262 184.163 240.477 181.854 239.697L140.605 225.714V173.834H242.863Z" fill="#8597DD"/>
<path d="M224.375 154.817V275.764L238.281 268.222C241.104 266.69 242.863 263.735 242.863 260.521V154.817H224.375Z" fill="#8597DD"/>
<path d="M140.605 154.814V320C139.168 320 137.738 319.649 136.43 318.941L42.9231 268.22C40.1065 266.681 38.3476 263.733 38.3476 260.52V154.814H140.605Z" fill="#8597DD"/>
<path d="M140.607 173.833V225.713L99.3506 239.696C97.0485 240.476 94.5179 240.261 92.3806 239.102L38.3495 209.799V173.833H140.607Z" fill="#596FC7"/>
<path d="M122.468 154.814V311.362L136.434 318.937C137.738 319.647 139.173 319.997 140.607 319.997V154.814H122.468Z" fill="#596FC7"/>
<path d="M140.605 99.3533L38.3464 154.814L140.605 210.273L242.863 154.814L140.605 99.3533Z" fill="#203999"/>
<path d="M221.824 166.229L140.606 210.273L59.3882 166.229L112.589 137.373C130.067 127.894 151.145 127.894 168.622 137.373L221.824 166.229Z" fill="#102373"/>
<path d="M275.394 117.456L242.865 154.813L140.605 99.3526L174.423 60.5185C175.768 58.9735 178.004 58.5691 179.805 59.5453L274.18 110.728C276.643 112.064 277.234 115.341 275.394 117.456Z" fill="#AFBBE8"/>
<path d="M185.781 74.3489C185.781 81.9845 179.597 88.1814 171.969 88.1814C165.772 88.1814 160.53 84.1001 158.781 78.4827L174.258 60.7128C180.8 61.8059 185.781 67.4946 185.781 74.3489Z" fill="#8597DD"/>
<path d="M5.81692 117.456L38.3461 154.813L140.605 99.3526L106.788 60.5185C105.442 58.9735 103.207 58.5691 101.406 59.5453L7.03135 110.728C4.56753 112.064 3.97624 115.341 5.81692 117.456Z" fill="#E5E9F6"/>
<path d="M82.671 81.9121C82.671 91.5264 74.8806 99.3177 65.2757 99.3177C57.8037 99.3177 51.4312 94.5983 48.973 87.9783L79.2569 71.5553C81.4029 74.4459 82.671 78.0328 82.671 81.9121Z" fill="#AFBBE8"/>
<path d="M2.9723 166.802L38.3468 154.812L140.605 210.272L99.3535 224.253C97.0471 225.035 94.5202 224.819 92.3792 223.658L2.2911 174.801C-1.06622 172.98 -0.644759 168.028 2.9723 166.802Z" fill="#AFBBE8"/>
<path d="M278.238 166.802L242.864 154.812L140.605 210.272L181.857 224.253C184.164 225.035 186.691 224.819 188.832 223.658L278.919 174.801C282.277 172.98 281.855 168.028 278.238 166.802Z" fill="#E5E9F6"/>
<path d="M167.92 283.684C166.207 283.684 164.548 282.768 163.674 281.154C162.405 278.809 163.275 275.879 165.617 274.608L176.684 268.606C179.028 267.335 181.955 268.207 183.224 270.552C184.493 272.897 183.623 275.827 181.281 277.098L170.214 283.1C169.483 283.496 168.696 283.684 167.92 283.684Z" fill="#8597DD"/>
<path d="M47.8849 64.4977C47.8849 54.8827 55.6716 47.0884 65.2771 47.0884C74.8826 47.0884 82.6693 54.8827 82.6693 64.4977C82.6693 74.1126 74.8826 81.9069 65.2771 81.9069C55.6716 81.9069 47.8849 74.1126 47.8849 64.4977Z" fill="#FAD897"/>
<path d="M56.4563 79.4985C63.2833 77.9235 68.3702 71.8054 68.3702 64.4942C68.3702 57.1905 63.2914 51.0649 56.4644 49.4899C59.0475 47.9624 62.0595 47.0874 65.2789 47.0874C74.88 47.0874 82.6686 54.8842 82.6686 64.4942C82.6686 74.1123 74.8794 81.9091 65.2789 81.9091C62.0595 81.9091 59.0394 81.0341 56.4563 79.4985Z" fill="#F2A922"/>
<path d="M105.411 14.2073C103.527 12.3217 100.473 12.3217 98.588 14.2073L94.6081 18.191L90.6283 14.2073C88.7439 12.3217 85.6901 12.3217 83.805 14.2073C81.9213 16.0929 81.9213 19.1504 83.805 21.0366L87.7849 25.0204L83.805 29.0041C81.9213 30.8897 81.9213 33.9472 83.805 35.8334C84.7472 36.7766 85.9823 37.2478 87.2167 37.2478C88.4511 37.2478 89.6861 36.7759 90.6283 35.8334L94.6081 31.8497L98.588 35.8334C99.5302 36.7766 100.765 37.2478 102 37.2478C103.234 37.2478 104.469 36.7759 105.411 35.8334C107.295 33.9478 107.295 30.8903 105.411 29.0041L101.431 25.0204L105.411 21.0366C107.295 19.1504 107.295 16.0929 105.411 14.2073Z" fill="#FAD897"/>
<path d="M244.254 56.6516L248.234 52.6679C250.117 50.7823 250.117 47.7248 248.234 45.8385C246.349 43.9529 243.295 43.9529 241.41 45.8385L237.43 49.8223L233.451 45.8385C231.566 43.9529 228.512 43.9529 226.627 45.8385C224.744 47.7241 224.744 50.7816 226.627 52.6679L230.607 56.6516L226.627 60.6353C224.744 62.5209 224.744 65.5784 226.627 67.4647C227.569 68.4078 228.805 68.879 230.039 68.879C231.273 68.879 232.508 68.4072 233.451 67.4647L237.43 63.4809L241.41 67.4647C242.352 68.4078 243.587 68.879 244.822 68.879C246.056 68.879 247.291 68.4072 248.234 67.4647C250.117 65.5791 250.117 62.5216 248.234 60.6353L244.254 56.6516Z" fill="#FAD897"/>
<path d="M171.967 74.3464C179.596 74.3464 185.781 68.1554 185.781 60.5184C185.781 52.8813 179.596 46.6903 171.967 46.6903C164.337 46.6903 158.152 52.8813 158.152 60.5184C158.152 68.1554 164.337 74.3464 171.967 74.3464Z" fill="#AFBBE8"/>
<path d="M185.781 60.5158C185.781 68.1557 179.594 74.3488 171.967 74.3488C169.411 74.3488 167.012 73.6538 164.96 72.4338C170.383 71.1826 174.423 66.3232 174.423 60.5158C174.423 54.7145 170.389 49.8489 164.966 48.5977C167.018 47.3846 169.411 46.689 171.967 46.689C179.594 46.689 185.781 52.8821 185.781 60.5158Z" fill="#8597DD"/>
<path d="M199.995 32.4192C208.938 32.4192 216.188 25.162 216.188 16.2099C216.188 7.25776 208.938 0.000610352 199.995 0.000610352C191.052 0.000610352 183.802 7.25776 183.802 16.2099C183.802 25.162 191.052 32.4192 199.995 32.4192Z" fill="#AFBBE8"/>
<path d="M216.187 16.2074C216.187 25.163 208.935 32.4223 199.996 32.4223C196.999 32.4223 194.187 31.6073 191.781 30.178C198.138 28.7111 202.874 23.0149 202.874 16.2074C202.874 9.40745 198.146 3.70373 191.789 2.23686C194.193 0.814996 196.998 0 199.995 0C208.935 0 216.187 7.25934 216.187 16.2074Z" fill="#8597DD"/>
<path d="M184.776 170.719C184.776 176.958 183.483 182.901 181.148 188.283L140.606 210.271L100.063 188.283C97.7286 182.901 96.4355 176.958 96.4355 170.719C96.4355 146.304 116.215 126.505 140.606 126.505C164.997 126.505 184.776 146.304 184.776 170.719Z" fill="#F8BD4F"/>
<path d="M184.77 170.72C184.77 176.959 183.477 182.902 181.149 188.285L152.609 203.763C161.704 195.663 167.436 183.862 167.436 170.72C167.436 149.274 152.184 131.4 131.942 127.363C134.747 126.803 137.641 126.513 140.607 126.513C164.997 126.512 184.77 146.299 184.77 170.72Z" fill="#F2A922"/>
<path d="M149.384 188.709C148.277 188.709 147.164 188.329 146.255 187.553C144.693 186.219 142.448 185.449 140.096 185.442C140.085 185.442 140.075 185.442 140.064 185.442C137.724 185.442 135.487 186.197 133.924 187.516C131.887 189.235 128.843 188.976 127.127 186.937C125.408 184.898 125.668 181.852 127.705 180.132C131.029 177.327 135.416 175.784 140.064 175.784H140.125C144.796 175.798 149.198 177.369 152.52 180.207C154.546 181.938 154.787 184.986 153.057 187.015C152.102 188.134 150.747 188.709 149.384 188.709Z" fill="#CB870A"/>
<path d="M119.619 171.142C119.608 171.142 119.597 171.142 119.585 171.142C116.921 171.123 114.754 168.946 114.772 166.279C114.791 163.612 116.94 161.444 119.607 161.484L119.652 161.484C122.317 161.503 124.461 163.68 124.443 166.347C124.424 169.002 122.268 171.142 119.619 171.142Z" fill="#CB870A"/>
<path d="M161.635 171.14C161.624 171.14 161.612 171.14 161.601 171.14C158.936 171.122 156.77 168.945 156.788 166.278C156.806 163.623 158.941 161.482 161.589 161.482H161.622L161.667 161.483C164.332 161.502 166.476 163.678 166.458 166.345C166.439 169 164.283 171.14 161.635 171.14Z" fill="#CB870A"/>
</svg>
