<svg width="1366" height="768" viewBox="0 0 1366 768" fill="none" xmlns="http://www.w3.org/2000/svg">
<path fill-rule="evenodd" clip-rule="evenodd" d="M626.281 -253.858C618.471 -261.668 605.807 -261.668 597.997 -253.858L371.723 -27.5838C363.912 -19.7733 363.912 -7.11 371.723 0.70047L745.248 374.225C753.058 382.036 753.058 394.699 745.248 402.51L326.142 821.615C318.332 829.426 318.332 842.089 326.142 849.899L552.416 1076.17C560.227 1083.98 572.89 1083.98 580.701 1076.17L999.806 657.068C1007.62 649.258 1020.28 649.258 1028.09 657.068L1260.46 889.434C1268.27 897.244 1280.93 897.244 1288.74 889.434L1515.01 663.16C1522.82 655.349 1522.82 642.686 1515.01 634.875L1282.65 402.51C1274.84 394.699 1274.84 382.036 1282.65 374.225L1597.17 59.7005C1604.98 51.89 1604.98 39.2267 1597.17 31.4162L1370.9 -194.858C1363.09 -202.668 1350.43 -202.668 1342.62 -194.858L1028.09 119.667C1020.28 127.477 1007.62 127.477 999.806 119.667L626.281 -253.858Z" fill="#FAEFD9"/>
<mask id="mask0" mask-type="alpha" maskUnits="userSpaceOnUse" x="320" y="0" width="1046" height="768">
<mask id="mask1" maskUnits="userSpaceOnUse" x="0" y="0" width="1366" height="768">
<rect width="1366" height="768" fill="white"/>
</mask>
<g mask="url(#mask1)">
<path fill-rule="evenodd" clip-rule="evenodd" d="M626.281 -253.858C618.471 -261.668 605.808 -261.668 597.997 -253.858L371.723 -27.5838C363.912 -19.7733 363.912 -7.11 371.723 0.70047L745.248 374.225C753.058 382.036 753.058 394.699 745.248 402.51L326.142 821.615C318.332 829.426 318.332 842.089 326.142 849.899L552.416 1076.17C560.227 1083.98 572.89 1083.98 580.701 1076.17L999.806 657.068C1007.62 649.258 1020.28 649.258 1028.09 657.068L1260.46 889.434C1268.27 897.244 1280.93 897.244 1288.74 889.434L1515.01 663.16C1522.83 655.349 1522.83 642.686 1515.01 634.875L1282.65 402.51C1274.84 394.699 1274.84 382.036 1282.65 374.225L1597.17 59.7005C1604.98 51.89 1604.98 39.2267 1597.17 31.4162L1370.9 -194.858C1363.09 -202.668 1350.43 -202.668 1342.62 -194.858L1028.09 119.667C1020.28 127.477 1007.62 127.477 999.806 119.667L626.281 -253.858Z" fill="url(#paint0_linear)"/>
</g>
</mask>
<g mask="url(#mask0)">
<circle cx="918.5" cy="361.5" r="43.5" fill="#F8BD4F"/>
<path d="M2071.16 588.946C2090 591.899 2293.57 709.546 2393 768H661C756.132 637.094 931.922 371.135 940.228 362.821C960.974 342.054 961.535 350.361 997.419 336.516C1033.3 322.672 1121.33 163 1134.23 163C1147.13 163 1313.09 360.975 1327.67 362.821C1342.25 364.667 1396.08 441.734 1412.9 441.734C1429.72 441.734 1431.96 422.352 1474.57 422.352C1517.19 422.352 1753.8 702.931 1794.17 699.24C1834.54 695.548 2047.61 585.254 2071.16 588.946Z" fill="#EAF3FA"/>
<path d="M-386.029 531.826C-406.456 535.722 -627.188 690.898 -735 768H1143C1039.85 595.333 849.24 244.531 840.234 233.565C817.739 206.174 817.131 217.13 778.222 198.87C739.312 180.609 643.862 -30 629.879 -30C615.895 -30 435.938 231.13 420.131 233.565C404.324 236 345.959 337.652 327.721 337.652C309.482 337.652 307.05 312.087 260.845 312.087C214.639 312.087 -41.9213 682.174 -85.6947 677.304C-129.468 672.435 -360.494 526.956 -386.029 531.826Z" fill="#C6DEF3"/>
<path d="M1220.96 470.441C1212.82 471.267 1203.04 478.491 1199.18 482H1281.63C1281.63 459.914 1252.92 474.363 1243.56 474.776C1234.19 475.189 1231.14 469.409 1220.96 470.441Z" fill="#F8BD4F"/>
<path d="M1220.96 493.559C1212.82 492.734 1203.04 485.509 1199.18 482H1281.63C1281.63 504.086 1252.92 489.637 1243.56 489.225C1234.19 488.812 1231.14 494.591 1220.96 493.559Z" fill="#F8BD4F"/>
<path d="M1221.96 475.853C1214.66 476.293 1205.91 480.146 1202.44 482.018H1276.32C1276.32 470.239 1250.6 477.945 1242.21 478.165C1233.82 478.385 1231.08 475.303 1221.96 475.853Z" fill="#FAD897"/>
<path d="M1221.96 488.183C1214.66 487.742 1205.91 483.889 1202.44 482.018H1276.32C1276.32 493.797 1250.6 486.091 1242.21 485.871C1233.82 485.651 1231.08 488.733 1221.96 488.183Z" fill="#FAD897"/>
<path d="M1180.68 521.879C1166.4 521.879 1154.83 533.451 1154.83 547.725C1154.83 562 1166.4 573.571 1180.68 573.571C1194.95 573.571 1206.52 561.999 1206.52 547.725C1206.52 533.451 1194.95 521.879 1180.68 521.879ZM1180.68 563.602C1171.91 563.602 1164.8 556.493 1164.8 547.725C1164.8 538.957 1171.91 531.849 1180.68 531.849C1189.44 531.849 1196.55 538.957 1196.55 547.725C1196.55 556.493 1189.44 563.602 1180.68 563.602Z" fill="#0C3559"/>
<path d="M1180.68 566.319C1170.84 566.319 1162.69 558.634 1162.12 548.822L1167.54 548.506C1167.95 555.446 1173.72 560.883 1180.68 560.883C1187.93 560.883 1193.83 554.98 1193.83 547.725C1193.83 540.47 1187.93 534.567 1180.68 534.567C1175.85 534.567 1171.42 537.202 1169.11 541.443L1164.34 538.846C1167.6 532.854 1173.86 529.132 1180.67 529.132C1190.93 529.132 1199.27 537.473 1199.27 547.725C1199.27 557.978 1190.93 566.319 1180.68 566.319Z" fill="#042039"/>
<path d="M1054.8 521.879C1040.53 521.879 1028.96 533.451 1028.96 547.725C1028.96 562 1040.53 573.571 1054.8 573.571C1069.08 573.571 1080.65 561.999 1080.65 547.725C1080.65 533.451 1069.08 521.879 1054.8 521.879ZM1054.8 563.602C1046.04 563.602 1038.93 556.493 1038.93 547.725C1038.93 538.957 1046.04 531.849 1054.8 531.849C1063.57 531.849 1070.68 538.957 1070.68 547.725C1070.68 556.493 1063.57 563.602 1054.8 563.602Z" fill="#0C3559"/>
<path d="M1054.8 566.319C1044.55 566.319 1036.21 557.978 1036.21 547.725C1036.21 537.472 1044.55 529.13 1054.8 529.13C1065.06 529.13 1073.4 537.471 1073.4 547.725C1073.4 557.978 1065.06 566.319 1054.8 566.319ZM1054.8 534.567C1047.55 534.567 1041.65 540.469 1041.65 547.725C1041.65 554.981 1047.55 560.884 1054.8 560.884C1062.06 560.884 1067.96 554.981 1067.96 547.725C1067.96 540.469 1062.06 534.567 1054.8 534.567Z" fill="#042039"/>
<path d="M1054.8 550.444C1054.45 550.444 1054.08 550.373 1053.74 550.224C1052.36 549.634 1051.72 548.037 1052.31 546.657L1065.92 514.821C1066.51 513.441 1068.11 512.801 1069.49 513.392C1070.87 513.982 1071.51 515.579 1070.92 516.959L1057.3 548.794C1056.86 549.825 1055.86 550.444 1054.8 550.444Z" fill="#042039"/>
<path d="M1139.54 550.16L1182.55 548.231C1185.2 548.112 1185.84 544.462 1183.37 543.457L1141.05 526.189L1122.68 520.062L1106.91 551.043L1139.54 550.16Z" fill="#042039"/>
<path d="M1125.84 479.102C1124.97 479.402 1100.46 489.472 1099.99 491.051C1099.52 492.63 1114.87 523.313 1117.37 525.065C1119.86 526.816 1121.01 516.783 1120.28 515.612C1117.4 510.643 1114.83 505.498 1112.59 500.206C1114.68 500.026 1136.8 497.834 1139.97 497.801C1143.13 497.769 1125.84 479.102 1125.84 479.102Z" fill="#042039"/>
<path d="M1075.17 481.751C1075.12 480.197 1076.67 478.89 1078.62 478.832C1080.57 478.774 1082.19 479.987 1082.24 481.541C1082.29 483.095 1080.74 484.402 1078.79 484.46C1076.84 484.518 1075.22 483.305 1075.17 481.751Z" fill="#AA8053"/>
<path d="M1139.42 485.513L1090.06 524.954L1087.46 512.88L1083.44 494.199L1087.56 488.97C1091.46 484.013 1097.63 481.385 1103.91 482.009L1116.68 483.27L1139.42 485.513Z" fill="#5A9FDB"/>
<path d="M1071.36 500.936L1080.1 475.018C1081.06 472.162 1078.41 469.378 1075.52 470.233C1042.6 479.974 1029.81 516.891 1029 519.333C1028.99 519.377 1028.98 519.406 1028.97 519.428C1028.96 519.449 1028.96 519.46 1028.96 519.46" fill="#317EC2"/>
<path d="M1101.8 499.124C1107.89 510.571 1094.4 512.579 1087.46 512.88L1083.44 494.199L1087.56 488.97C1091.46 484.013 1097.63 481.385 1103.91 482.009L1116.68 483.27C1112.3 482.839 1093.74 483.991 1101.8 499.124Z" fill="#317EC2"/>
<path d="M1090.06 524.953L1119.46 536.93H1119.46L1163.4 515.075L1172.6 495.516C1174.1 492.336 1177.07 490.1 1180.54 489.542L1202.57 485.997C1204.85 485.63 1206.52 483.666 1206.52 481.36C1206.52 478.767 1204.42 476.664 1201.83 476.664H1170.65L1139.42 485.513H1139.42H1139.41L1092.22 498.885L1090.06 524.953Z" fill="#19588F"/>
<path d="M1112.6 493.108L1120.68 499.266C1124.58 502.234 1129.91 502.465 1134.05 499.846L1170.65 476.664" fill="#0C3559"/>
<path d="M1105.88 495.015L1136.26 514.946L1163.4 515.075L1119.46 536.93H1097.13L1092.22 498.884L1105.88 495.015Z" fill="#0C3559"/>
<path d="M1092.33 564.561C1089.46 564.561 1087.43 561.755 1088.34 559.042C1089.54 555.488 1090.19 551.683 1090.19 547.725C1090.19 547.42 1090.19 547.112 1090.18 546.812C1090.06 542.047 1088.98 537.582 1087.13 533.567C1086.79 532.806 1086.41 532.059 1086.01 531.327C1078.59 517.876 1062.39 510.248 1046.29 514.684L1028.96 519.459C1035.16 501.069 1060.88 488.186 1079.69 492.97C1088.01 495.087 1096.35 501.551 1100.8 505.442C1102.76 507.151 1103.8 509.659 1103.71 512.256C1103.7 512.544 1103.7 512.832 1103.7 513.121C1103.7 527.395 1115.27 538.966 1129.54 538.966H1129.58C1132.17 538.964 1134.56 540.37 1135.81 542.638C1138.48 547.48 1140.38 551.909 1141.71 555.501C1142.46 557.508 1143.03 559.252 1143.44 560.66C1144.02 562.607 1142.56 564.56 1140.53 564.56H1092.33V564.561Z" fill="#5A9FDB"/>
<path d="M1092.33 564.561C1089.46 564.561 1087.43 561.755 1088.34 559.042C1089.54 555.489 1090.19 551.684 1090.19 547.725C1090.19 547.421 1090.19 547.113 1090.18 546.812C1090.06 542.047 1088.98 537.583 1087.13 533.567C1093.64 543.993 1120.23 561.854 1141.71 555.502C1142.46 557.508 1143.02 559.253 1143.44 560.661C1144.02 562.608 1142.56 564.561 1140.53 564.561H1092.33V564.561Z" fill="#317EC2"/>
<path d="M1075.08 484.688L1084.75 492.458C1085.06 492.713 1085.5 492.793 1085.95 492.682C1086.41 492.572 1086.86 492.279 1087.19 491.868C1087.52 491.458 1087.71 490.963 1087.72 490.493C1087.73 490.023 1087.56 489.616 1087.24 489.362L1077.58 481.592L1075.08 484.688Z" fill="#0C3559"/>
<path d="M1112.53 559.196H1105.46C1104.42 559.196 1103.46 558.595 1103.01 557.651L1097.03 545.15C1096.63 544.308 1096.69 543.318 1097.18 542.528C1097.68 541.738 1098.55 541.259 1099.48 541.259H1111.99C1113.49 541.259 1114.7 542.476 1114.7 543.977C1114.7 545.478 1113.49 546.695 1111.99 546.695H1103.8L1107.18 553.761H1112.53C1114.03 553.761 1115.25 554.978 1115.25 556.479C1115.25 557.979 1114.03 559.196 1112.53 559.196Z" fill="#042039"/>
<path d="M1115.51 551.236C1115.43 552.011 1115.42 556.948 1114.47 557.318C1113.52 557.687 1103.52 556.999 1103.08 556.488C1102.63 555.976 1102.49 555.014 1102.92 554.78C1103.36 554.545 1107.28 554.15 1107.86 553.845C1108.44 553.54 1109.33 551.687 1109.16 550.626" fill="#042039"/>
<path d="M1118.32 517.631C1118.54 518.368 1120.26 523.007 1119.51 523.689C1118.75 524.37 1109.14 527.26 1108.59 526.936C1108.03 526.612 1107.51 525.766 1107.83 525.396C1108.16 525.027 1111.69 523.262 1112.1 522.772C1112.51 522.283 1112.7 520.234 1112.17 519.302" fill="#042039"/>
<path d="M1080.7 429.394C1083.41 422.689 1094.63 420.224 1102.35 423.349C1110.54 426.665 1114.03 433.11 1122.93 436.713C1130.5 439.775 1142.57 435.393 1152.22 439.3C1164.61 444.316 1163.72 458.033 1161.85 462.665C1157.13 474.327 1145.49 472.155 1142.98 471.136C1140.46 470.117 1106.71 453.163 1105.51 452.676C1108.02 444.589 1096.86 441.15 1097.16 438.513C1095.95 439.144 1088.46 441.291 1086.88 440.647C1079.52 437.671 1079.72 431.819 1080.7 429.394Z" fill="#042039"/>
<path d="M1094.61 463.788C1094.5 464.256 1092.26 471.104 1091.71 471.957L1091.16 472.813C1091.16 472.813 1082.37 479.889 1081.69 480.401C1081.02 480.913 1082.92 482.946 1082.92 482.946C1082.92 482.946 1095.79 476.836 1096.75 476.257C1097.72 475.679 1103.82 468.349 1104.17 467.363C1104.52 466.377 1094.61 463.788 1094.61 463.788Z" fill="#AA8053"/>
<path d="M1125.81 478.938C1133.22 477.66 1140.34 471.852 1143.53 466.827C1146.84 473.135 1147.88 480.02 1145.15 486.759C1140.29 498.784 1128.06 514.249 1124.32 518.428C1123.78 521.04 1115.99 551.802 1115.99 551.802L1108.91 550.763C1108.91 550.763 1112.75 511.713 1113.31 509.816C1114.96 501.717 1125.53 479.982 1125.81 478.938Z" fill="#367229"/>
<path d="M1082.76 482.29C1082.76 482.29 1082.85 481.59 1083.85 481.743C1084.85 481.896 1100.04 479.504 1103.62 476.411C1103.37 474.184 1101.9 465.684 1100.38 462.849C1098.86 460.013 1113.93 454.159 1113.93 454.159C1114.08 455.402 1116.63 477.971 1112.13 483.706C1109.28 487.1 1089.25 487.237 1084.12 487.383C1078.98 487.529 1082.76 482.29 1082.76 482.29Z" fill="#AA8053"/>
<path d="M1144.03 467.959C1143.85 467.581 1143.68 467.207 1143.46 466.819C1143.67 467.208 1143.85 467.583 1144.03 467.959Z" fill="#FAD897"/>
<path d="M1117.3 444.208C1127.51 448.341 1138.33 456.86 1143.53 466.827C1140.34 471.852 1133.27 477.685 1125.84 478.949C1125.84 478.949 1119.28 473.184 1114.61 469.169C1114.64 468.602 1114.75 467.927 1114.76 467.637C1111.77 467.975 1103.62 468.982 1103.21 468.986C1103.16 468.463 1103.03 467.708 1102.9 467.045L1102.89 467.078C1101.83 466.807 1098.25 466.28 1094.73 464.239C1095 462.8 1098.91 447.964 1099.42 446.701C1099.93 445.438 1103.77 438.732 1117.3 444.208Z" fill="#83CE74"/>
<path d="M1097.79 439.705L1106.07 445.137C1107.18 445.853 1103.35 451.842 1102.17 451.072L1093.89 445.638L1097.79 439.705Z" fill="#AA8053"/>
<path d="M1114.76 467.637C1114.75 466.261 1115.11 458.732 1114.36 456.505" stroke="#042039" stroke-width="0.55" stroke-miterlimit="10" stroke-linecap="round"/>
<path d="M1103.21 468.998C1103.01 467.709 1101.99 461.352 1101.99 461.352" stroke="#042039" stroke-width="0.55" stroke-miterlimit="10" stroke-linecap="round"/>
<path d="M1075.08 483.509C1075.53 481.58 1077.89 480.482 1080.35 481.056C1082.81 481.631 1084.44 483.661 1083.99 485.59C1083.54 487.52 1081.18 488.618 1078.72 488.043C1076.26 487.468 1074.63 485.438 1075.08 483.509Z" fill="#AA8053"/>
<path d="M1094.27 439.814C1093.26 439.409 1092.78 438.27 1093.19 437.27C1093.59 436.27 1094.73 435.788 1095.73 436.193C1096.73 436.599 1097.22 437.738 1096.81 438.738C1096.41 439.738 1095.27 440.22 1094.27 439.814Z" fill="#AA8053"/>
<path d="M1093.78 436.496C1095.42 437.614 1098.51 439.458 1101 440.015C1100.77 441.152 1100.31 442.231 1099.65 443.188C1099 444.144 1098.15 444.958 1097.18 445.581C1096.2 446.204 1095.1 446.623 1093.96 446.812C1092.81 447.002 1091.64 446.959 1090.51 446.686C1089.38 446.412 1088.32 445.914 1087.39 445.221C1086.45 444.528 1085.67 443.654 1085.08 442.652C1084.5 441.65 1084.12 440.54 1083.97 439.389C1083.83 438.239 1083.91 437.07 1084.23 435.954C1086.65 436.405 1091.38 436.898 1093.78 436.496Z" fill="#AA8053"/>
<path d="M1085.68 438.945C1085.57 439.435 1084.82 441.988 1086.98 441.907" stroke="#042039" stroke-width="0.55" stroke-miterlimit="10" stroke-linecap="round"/>
<path d="M1090.13 443.377C1090.36 443.164 1090.51 442.88 1090.56 442.571C1090.6 442.263 1090.54 441.948 1090.39 441.678" stroke="#042039" stroke-width="0.55" stroke-miterlimit="10" stroke-linecap="round"/>
<path d="M878.802 604.485V767.692H913.968V692.398C913.968 663.266 937.585 639.651 966.715 639.651C995.846 639.651 1019.46 663.268 1019.46 692.398V767.69H1072.21V692.398C1072.21 663.266 1095.83 639.651 1124.96 639.651C1154.09 639.651 1177.7 663.268 1177.7 692.398V767.69H1230.45V692.398C1230.45 663.266 1254.07 639.651 1283.2 639.651C1312.33 639.651 1335.94 663.268 1335.94 692.398V767.69H1371.11V604.485H878.802Z" fill="#CBCBCB"/>
<path d="M1397.02 573.358H852.892V612.224H1397.02V573.358Z" fill="#A3A3A3"/>
<path d="M390.911 604.127V767.333H426.076V692.04C426.076 662.908 449.693 639.293 478.823 639.293C507.955 639.293 531.57 662.909 531.57 692.04V767.332H584.317V692.04C584.317 662.908 607.934 639.293 637.064 639.293C666.196 639.293 689.811 662.909 689.811 692.04V767.332H742.558V692.04C742.558 662.908 766.175 639.293 795.305 639.293C824.437 639.293 848.052 662.909 848.052 692.04V767.332H883.218V604.127H390.911Z" fill="#CBCBCB"/>
<path d="M909.129 573H365V611.866H909.129V573Z" fill="#A3A3A3"/>
<path d="M673 383.988C673 359.858 733.055 354.742 756.789 354.742C804.925 354.742 808.112 327.267 848.079 327.267C883.223 327.267 901.088 355.635 933.81 355.635C1004.02 355.638 1019.66 275 1087.96 275C1157.46 275 1153.91 359.177 1218.58 359.177C1251.46 359.177 1449 365.366 1449 384L673 383.988Z" fill="white"/>
<path d="M930 211.583C930 203.07 959.015 189.73 974.88 189.73C1006.18 189.73 996.408 200.657 1016.1 200.657C1038.53 200.656 1043.66 152 1077.8 152C1115.11 152 1109.25 199.591 1132.16 199.591C1142.02 199.591 1146.96 194.967 1160.97 194.967C1169.1 194.967 1178 203.09 1178 211.617L930 211.583Z" fill="white"/>
</g>
<defs>
<linearGradient id="paint0_linear" x1="962" y1="24.5" x2="962" y2="570" gradientUnits="userSpaceOnUse">
<stop stop-color="white"/>
<stop offset="1" stop-color="#FAEFD9"/>
</linearGradient>
</defs>
</svg>
