<svg width="348" height="478" viewBox="0 0 348 478" fill="none" xmlns="http://www.w3.org/2000/svg">
<circle cx="174" cy="174" r="174" fill="#FAEFD9"/>
<path d="M137.035 215.818C135.125 224.923 121.25 337.875 125.787 364.837C130.324 391.8 204.293 448.344 207.531 449.332C211.306 446.563 216.861 437.488 216.861 437.488C216.861 437.488 162.624 374.69 161.613 372.17C160.601 369.651 173.472 224.169 173.472 224.169L137.035 215.818Z" fill="#203999"/>
<path d="M225.369 236.398L170.03 461.976H151.385L170.279 226.651L225.369 236.398Z" fill="#3C54AF"/>
<path d="M186.063 107.242C193.702 107.242 233.551 108.532 240.753 122.549C247.954 136.566 241.168 201.355 236.692 203.868C234.276 205.218 233.619 203.905 232.917 206.651C232.215 209.397 225.369 236.398 225.369 236.398C221.021 236.519 157.627 226.975 137.05 215.818C137.17 212.717 138.167 204.652 138.167 204.034C135.434 205.15 132.128 205.384 131.214 204.034C123.19 191.88 135.162 128.516 143.745 115.767C147.406 110.297 173.804 107.28 186.063 107.242Z" fill="#AFBBE8"/>
<path d="M212.303 205.655C214.175 205.655 230.291 216.972 228.91 222.532C230.042 218.066 233.605 204.267 233.605 204.267C232.073 204.509 213.639 205.655 212.303 205.655Z" fill="#042039"/>
<path d="M195.929 114.635C195.929 117.094 176.521 117.094 176.521 114.635V89.7393H195.929V114.635Z" fill="#BF9972"/>
<path d="M184.787 95.6313C186.297 95.6313 195.929 99.8862 195.929 102.255V89.7393C193.528 89.7393 184.787 95.6313 184.787 95.6313Z" fill="#042039"/>
<path d="M182.137 97.4494C192.564 97.4494 201.016 89.002 201.016 78.5815C201.016 68.161 192.564 59.7135 182.137 59.7135C171.71 59.7135 163.258 68.161 163.258 78.5815C163.258 89.002 171.71 97.4494 182.137 97.4494Z" fill="#BF9972"/>
<path d="M175.751 51C166.058 51 160.012 57.0806 160.012 64.8737C160.012 71.3542 161.589 75.0206 163.439 75.9486C164.609 69.6567 167.153 66.7447 169.259 65.4923C170.889 66.7447 173.697 69.7774 177.442 70.7129C181.186 71.6484 190.931 71.4673 198.804 77.1858C201.371 74.8471 203.945 71.8068 203.945 68.2233C203.945 64.6399 202.36 60.1435 193.029 57.5483C186.877 55.8358 186.024 51 175.751 51Z" fill="#042039"/>
<path d="M164.496 84.1868C166.322 84.1868 167.802 83.4167 167.802 82.4668C167.802 81.5168 166.322 80.7467 164.496 80.7467C162.67 80.7467 161.189 81.5168 161.189 82.4668C161.189 83.4167 162.67 84.1868 164.496 84.1868Z" fill="#E5D6C6"/>
<path d="M185.293 84.1868C187.119 84.1868 188.599 83.4167 188.599 82.4668C188.599 81.5168 187.119 80.7467 185.293 80.7467C183.467 80.7467 181.986 81.5168 181.986 82.4668C181.986 83.4167 183.467 84.1868 185.293 84.1868Z" fill="#E5D6C6"/>
<path d="M172.574 78.9135C171.955 79.7961 168.8 83.5003 172.129 84.9941" stroke="#042039" stroke-miterlimit="10" stroke-linecap="round"/>
<path d="M178.793 89.3092C179.782 89.3092 181.322 88.072 182.129 86.963" stroke="#042039" stroke-miterlimit="10" stroke-linecap="round"/>
<path d="M199.59 85.1147C201.999 85.1147 203.953 83.1625 203.953 80.7542C203.953 78.346 201.999 76.3937 199.59 76.3937C197.18 76.3937 195.227 78.346 195.227 80.7542C195.227 83.1625 197.18 85.1147 199.59 85.1147Z" fill="#BF9972"/>
<path d="M212.741 144.367C212.401 148.531 211.073 169.112 211.571 171.82C205.238 174.023 147.219 201.514 137.217 204.509" stroke="#042039" stroke-miterlimit="10" stroke-linecap="round"/>
<path d="M145.383 137.871C144.054 142.533 139.555 163.695 142.718 173.525" stroke="#042039" stroke-miterlimit="10" stroke-linecap="round"/>
<path d="M160.186 194.897C163.205 197.017 192.154 209.82 232.162 204.992" stroke="#042039" stroke-miterlimit="10" stroke-linecap="round"/>
<path d="M157.424 173.525C159.364 173.834 153.039 168.787 149.453 170.666C145.868 172.544 141.036 181.046 142.025 183.023C142.158 183.38 142.37 183.703 142.645 183.968C142.919 184.233 143.25 184.433 143.612 184.553C143.974 184.673 144.359 184.71 144.737 184.662C145.116 184.614 145.479 184.482 145.8 184.275C146.773 183.642 154.02 172.982 157.424 173.525Z" fill="#BF9972"/>
<path d="M216.221 438.453C217.255 439.208 226.427 445.409 226.502 449.317C226.577 453.225 217.98 466.178 216.221 466.548C214.462 466.918 213.247 465.454 213.247 462.836C213.247 460.218 216.523 455.632 216.085 453.595C215.647 451.558 211.412 447.831 209.238 447.763" fill="#042039"/>
<path d="M168.264 461.976C168.264 463.772 169.306 475.043 167.215 476.091C165.124 477.14 142.146 477.759 141.104 476.717C140.063 475.676 139.429 473.481 140.349 472.855C141.27 472.229 150.163 470.448 151.363 469.618C152.563 468.789 154.239 464.338 153.628 461.976" fill="#042039"/>
<path d="M179.878 139.153C172.711 138.632 166.739 144.411 166.148 151.115C165.664 156.625 168.881 162.024 174.178 164.438C174.238 164.465 174.304 164.474 174.369 164.466C174.434 164.458 174.496 164.431 174.547 164.39C174.598 164.348 174.637 164.294 174.659 164.231C174.682 164.169 174.687 164.102 174.674 164.037C173.694 158.899 172.711 153.758 171.724 148.615C171.703 148.53 171.715 148.439 171.756 148.362C171.797 148.284 171.865 148.224 171.948 148.193C172.03 148.162 172.121 148.163 172.202 148.196C172.284 148.228 172.35 148.29 172.388 148.369L176.643 155.943C176.688 156.026 176.764 156.087 176.854 156.114C176.944 156.141 177.041 156.131 177.124 156.086C177.197 156.046 177.255 155.981 177.286 155.903L178.541 152.866C178.569 152.796 178.618 152.737 178.682 152.697C178.745 152.658 178.82 152.639 178.895 152.645C178.97 152.65 179.041 152.679 179.098 152.728C179.156 152.776 179.196 152.842 179.214 152.915L180.017 156.109C180.032 156.175 180.066 156.235 180.114 156.282C180.162 156.33 180.222 156.362 180.288 156.377C180.354 156.391 180.423 156.386 180.486 156.362C180.549 156.339 180.604 156.298 180.645 156.244L185.955 149.494C186.006 149.424 186.081 149.376 186.166 149.357C186.25 149.339 186.339 149.352 186.414 149.394C186.49 149.437 186.547 149.505 186.576 149.587C186.606 149.669 186.604 149.758 186.573 149.839L181.426 164.525C181.403 164.587 181.398 164.655 181.411 164.72C181.424 164.785 181.455 164.845 181.5 164.894C181.545 164.943 181.602 164.978 181.666 164.996C181.729 165.014 181.797 165.013 181.86 164.995C187.45 163.371 191.414 158.494 191.731 152.974C192.121 146.257 187.048 139.675 179.878 139.153ZM179.07 150.263C178.432 150.221 177.821 149.992 177.313 149.603C176.806 149.214 176.425 148.683 176.219 148.078C176.014 147.473 175.992 146.82 176.157 146.203C176.322 145.585 176.667 145.03 177.147 144.609C177.628 144.187 178.222 143.917 178.856 143.833C179.49 143.75 180.134 143.856 180.708 144.138C181.281 144.421 181.758 144.867 182.078 145.421C182.397 145.974 182.546 146.61 182.504 147.248L182.502 147.272C182.474 147.694 182.362 148.106 182.174 148.484C181.986 148.863 181.725 149.201 181.406 149.479C181.087 149.756 180.717 149.969 180.316 150.103C179.915 150.238 179.492 150.292 179.07 150.263Z" fill="white"/>
</svg>
