<svg width="1366" height="768" viewBox="0 0 1366 768" fill="none" xmlns="http://www.w3.org/2000/svg">
<g clip-path="url(#clip0)">
<rect width="1366" height="768" fill="#FAEFD9"/>
<path d="M364.713 797.128C507.79 797.128 623.777 681.141 623.777 538.064C623.777 394.987 507.79 279 364.713 279C221.636 279 105.649 394.987 105.649 538.064C105.649 681.141 221.636 797.128 364.713 797.128Z" fill="#F5E4E6"/>
<path d="M317.794 575.264H480.672" stroke="#042039" stroke-miterlimit="10"/>
<path d="M317.794 591.351H480.672" stroke="#042039" stroke-miterlimit="10"/>
<path d="M317.794 607.438H480.672" stroke="#042039" stroke-miterlimit="10"/>
<path d="M317.794 623.524H480.672" stroke="#042039" stroke-miterlimit="10"/>
<path d="M429.061 538.4C452.012 538.4 470.618 519.794 470.618 496.842C470.618 473.89 452.012 455.284 429.061 455.284C406.109 455.284 387.503 473.89 387.503 496.842C387.503 519.794 406.109 538.4 429.061 538.4Z" fill="#E9E9E9"/>
<path opacity="0.7" d="M546.359 512.593H480.672V573.589H546.359V512.593Z" fill="#FAD897"/>
<path d="M514.644 566.156L501.626 559.617V558.724L514.644 551.428V553.698L504.926 559.087V559.148L514.644 563.901V566.156ZM509.815 587.372L499.401 612.681H497.085L507.469 587.372H509.815ZM514.644 641.617L501.626 648.156V645.901L511.375 641.178V641.087L501.626 635.698V633.428L514.644 640.724V641.617Z" fill="white"/>
<path d="M429.731 304.136H75.1526V537.394H429.731V304.136Z" stroke="#042039" stroke-miterlimit="10"/>
<path d="M75.152 316.536H429.731" stroke="#042039" stroke-miterlimit="10"/>
<path d="M207.532 337.315H100.958V443.89H207.532V337.315Z" stroke="#042039" stroke-miterlimit="10"/>
<path d="M227.976 346.698H390.854" stroke="#042039" stroke-miterlimit="10"/>
<path d="M227.976 362.785H390.854" stroke="#042039" stroke-miterlimit="10"/>
<path d="M227.976 378.872H390.854" stroke="#042039" stroke-miterlimit="10"/>
<path d="M227.976 394.959H390.854" stroke="#042039" stroke-miterlimit="10"/>
<path opacity="0.44" d="M154.244 365.466L125.221 415.737H183.268L154.244 365.466Z" fill="#FAD897"/>
<path d="M82.8599 313.519C84.5256 313.519 85.8759 312.169 85.8759 310.503C85.8759 308.838 84.5256 307.487 82.8599 307.487C81.1942 307.487 79.8439 308.838 79.8439 310.503C79.8439 312.169 81.1942 313.519 82.8599 313.519Z" fill="#209755"/>
<path d="M93.2491 313.519C94.9148 313.519 96.2652 312.169 96.2652 310.503C96.2652 308.838 94.9148 307.487 93.2491 307.487C91.5834 307.487 90.2331 308.838 90.2331 310.503C90.2331 312.169 91.5834 313.519 93.2491 313.519Z" fill="#8AE6E3"/>
<path d="M103.639 313.519C105.305 313.519 106.655 312.169 106.655 310.503C106.655 308.838 105.305 307.487 103.639 307.487C101.973 307.487 100.623 308.838 100.623 310.503C100.623 312.169 101.973 313.519 103.639 313.519Z" fill="#60D7D4"/>
<path d="M231.329 494.33L241.381 485.447H231.127L231.329 494.33Z" fill="#FAD897"/>
<path d="M287.685 452.268H232.613C226.35 452.268 221.273 457.345 221.273 463.608V475.112C221.273 481.375 226.35 486.452 232.613 486.452H287.685C293.948 486.452 299.026 481.375 299.026 475.112V463.608C299.026 457.345 293.948 452.268 287.685 452.268Z" fill="#FAD897"/>
<path d="M249.76 472.376C251.426 472.376 252.776 471.025 252.776 469.36C252.776 467.694 251.426 466.344 249.76 466.344C248.094 466.344 246.744 467.694 246.744 469.36C246.744 471.025 248.094 472.376 249.76 472.376Z" fill="white"/>
<path d="M260.149 472.376C261.815 472.376 263.165 471.025 263.165 469.36C263.165 467.694 261.815 466.344 260.149 466.344C258.484 466.344 257.133 467.694 257.133 469.36C257.133 471.025 258.484 472.376 260.149 472.376Z" fill="white"/>
<path d="M270.539 472.376C272.204 472.376 273.555 471.025 273.555 469.36C273.555 467.694 272.204 466.344 270.539 466.344C268.873 466.344 267.523 467.694 267.523 469.36C267.523 471.025 268.873 472.376 270.539 472.376Z" fill="white"/>
<path d="M549.711 393.788L539.657 384.904H549.912L549.711 393.788Z" fill="#5A9FDB"/>
<path d="M493.353 385.91H548.425C554.688 385.91 559.765 380.833 559.765 374.57V363.066C559.765 356.803 554.688 351.726 548.425 351.726H493.353C487.09 351.726 482.013 356.803 482.013 363.066V374.57C482.013 380.833 487.09 385.91 493.353 385.91Z" fill="#5A9FDB"/>
<path d="M531.278 371.834C532.944 371.834 534.295 370.483 534.295 368.818C534.295 367.152 532.944 365.802 531.278 365.802C529.613 365.802 528.262 367.152 528.262 368.818C528.262 370.483 529.613 371.834 531.278 371.834Z" fill="white"/>
<path d="M520.889 371.834C522.554 371.834 523.905 370.483 523.905 368.818C523.905 367.152 522.554 365.802 520.889 365.802C519.223 365.802 517.872 367.152 517.872 368.818C517.872 370.483 519.223 371.834 520.889 371.834Z" fill="white"/>
<path d="M510.499 371.834C512.165 371.834 513.515 370.483 513.515 368.818C513.515 367.152 512.165 365.802 510.499 365.802C508.834 365.802 507.483 367.152 507.483 368.818C507.483 370.483 508.834 371.834 510.499 371.834Z" fill="white"/>
<path d="M544.348 310.503C546.014 310.503 547.364 309.152 547.364 307.487C547.364 305.821 546.014 304.471 544.348 304.471C542.682 304.471 541.332 305.821 541.332 307.487C541.332 309.152 542.682 310.503 544.348 310.503Z" fill="#8541C0"/>
<path d="M550.716 322.903C552.382 322.903 553.732 321.553 553.732 319.887C553.732 318.221 552.382 316.871 550.716 316.871C549.051 316.871 547.7 318.221 547.7 319.887C547.7 321.553 549.051 322.903 550.716 322.903Z" fill="#8541C0"/>
<path d="M481.342 446.905C483.933 446.905 486.034 444.805 486.034 442.213C486.034 439.622 483.933 437.521 481.342 437.521C478.751 437.521 476.65 439.622 476.65 442.213C476.65 444.805 478.751 446.905 481.342 446.905Z" fill="#8541C0"/>
<path d="M508.824 462.992C511.415 462.992 513.516 460.891 513.516 458.3C513.516 455.709 511.415 453.608 508.824 453.608C506.233 453.608 504.132 455.709 504.132 458.3C504.132 460.891 506.233 462.992 508.824 462.992Z" fill="#8541C0"/>
<path d="M86.5466 468.354C89.1378 468.354 91.2384 466.254 91.2384 463.662C91.2384 461.071 89.1378 458.97 86.5466 458.97C83.9553 458.97 81.8547 461.071 81.8547 463.662C81.8547 466.254 83.9553 468.354 86.5466 468.354Z" fill="#F2A922"/>
<path d="M492.202 677.985V677.315L490.593 675.304L486.873 670.787L482.918 666.001C482.918 666.001 479.111 663.369 478.133 662.911C474.568 661.262 471.054 660.005 466.859 660.005C464.278 660.005 454.63 660.393 454.613 662.016C454.613 664.422 468.119 673.531 478.028 677.955C482.375 677.985 492.202 677.985 492.202 677.985Z" fill="#0C3559"/>
<path d="M490.157 677.985C476.409 667.41 448.346 609.717 455.543 588.335C470.865 596.144 487.677 623.069 495.606 645.804C496.032 647.283 496.375 648.784 496.631 650.301L499.848 665.047L500.626 678.003L490.157 677.985Z" fill="#19588F"/>
<path d="M499.54 677.985C494.902 674.219 493.42 663.065 493.38 658.902C493.307 651.133 494.499 645.409 501.142 636.863C507.784 628.317 506.015 614.141 514.836 604.576C523.657 595.011 529.501 592.343 539.971 592.343C550.441 592.343 553.766 609.315 553.712 613.584C553.591 630.81 542.739 633.25 536.117 641.468C531.311 647.433 530.936 652.313 529.482 655.101C521.679 670.127 515.339 675.779 510.647 677.985" fill="#317EC2"/>
<path d="M502.101 676.739C502.235 647.36 533.194 603.236 539.811 596.622" stroke="white" stroke-width="0.4" stroke-linecap="round" stroke-linejoin="round"/>
<path d="M503.769 663.386C500.344 659.653 497.227 649.069 497.697 646.321" stroke="white" stroke-width="0.4" stroke-linecap="round" stroke-linejoin="round"/>
<path d="M494.996 675.451C490.143 666.852 467.119 624.918 458.533 594.032" stroke="white" stroke-width="0.4" stroke-linecap="round" stroke-linejoin="round"/>
<path d="M510.674 677.985H525.096L513.032 722.897H480.771L468.9 677.985H510.672" fill="#5A9FDB"/>
<path d="M459.331 662.924C466.362 663.406 475.21 663.728 481.45 667.984" stroke="white" stroke-width="0.4" stroke-linecap="round" stroke-linejoin="round"/>
<path d="M614.105 469.484C612.41 477.574 600.089 577.929 604.118 601.898C608.146 625.867 673.827 676.092 676.703 676.969C680.054 674.509 684.987 666.446 684.987 666.446C684.987 666.446 636.828 610.618 635.908 608.38C634.989 606.142 646.458 476.858 646.458 476.858L614.105 469.484Z" fill="#19588F"/>
<path d="M692.542 487.749L643.403 688.17H626.854L643.624 479.089L692.542 487.749Z" fill="#317EC2"/>
<path d="M657.641 372.997C664.425 372.997 699.811 374.143 706.203 386.597C712.595 399.05 706.572 456.614 702.597 458.846C700.452 460.046 699.869 458.88 699.245 461.32C698.622 463.759 692.543 487.749 692.543 487.749C688.682 487.859 632.392 479.377 614.12 469.464C614.23 466.709 615.112 459.544 615.112 458.994C612.686 459.986 609.75 460.194 608.946 458.994C601.815 448.195 612.445 391.899 620.072 380.571C623.316 375.711 646.754 373.031 657.641 372.997Z" fill="#F2A922"/>
<path d="M680.939 460.402C682.601 460.402 696.912 470.456 695.685 475.396C696.69 471.428 699.853 459.168 699.853 459.168C698.494 459.43 682.156 460.424 680.939 460.402Z" fill="#0C3559"/>
<path d="M666.4 379.565C666.4 381.751 649.167 381.751 649.167 379.565V357.446H666.4V379.565Z" fill="#88613A"/>
<path d="M656.514 362.683C657.855 362.683 666.401 366.464 666.401 368.568V357.446C664.269 357.446 656.514 362.683 656.514 362.683Z" fill="#0C3559"/>
<path d="M654.155 364.297C663.413 364.297 670.919 356.791 670.919 347.533C670.919 338.275 663.413 330.769 654.155 330.769C644.897 330.769 637.391 338.275 637.391 347.533C637.391 356.791 644.897 364.297 654.155 364.297Z" fill="#88613A"/>
<path d="M648.484 323.027C639.877 323.027 634.515 328.43 634.515 335.354C634.515 341.111 635.909 344.369 637.552 345.194C638.591 339.603 640.85 337.016 642.719 335.904C644.174 337.016 646.661 339.711 649.985 340.542C653.31 341.372 661.963 341.212 668.955 346.292C671.24 344.215 673.519 341.513 673.519 338.33C673.519 335.146 672.112 331.151 663.833 328.843C658.364 327.324 657.6 323.027 648.484 323.027Z" fill="#0C3559"/>
<path d="M638.491 352.513C640.112 352.513 641.427 351.829 641.427 350.985C641.427 350.141 640.112 349.457 638.491 349.457C636.869 349.457 635.555 350.141 635.555 350.985C635.555 351.829 636.869 352.513 638.491 352.513Z" fill="#CFB293"/>
<path d="M656.957 352.513C658.578 352.513 659.893 351.829 659.893 350.985C659.893 350.141 658.578 349.457 656.957 349.457C655.335 349.457 654.021 350.141 654.021 350.985C654.021 351.829 655.335 352.513 656.957 352.513Z" fill="#CFB293"/>
<path d="M645.662 347.814C645.114 348.598 642.311 351.89 645.267 353.217" stroke="#262626" stroke-miterlimit="10" stroke-linecap="round"/>
<path d="M651.186 357.064C652.07 357.064 653.431 355.967 654.147 354.98" stroke="#262626" stroke-miterlimit="10" stroke-linecap="round"/>
<path d="M669.651 353.337C671.791 353.337 673.526 351.603 673.526 349.463C673.526 347.323 671.791 345.589 669.651 345.589C667.512 345.589 665.777 347.323 665.777 349.463C665.777 351.603 667.512 353.337 669.651 353.337Z" fill="#88613A"/>
<path d="M681.327 405.981C681.025 409.681 679.846 427.966 680.288 430.373C674.664 432.33 623.173 456.749 614.264 459.429" stroke="#0C3559" stroke-miterlimit="10" stroke-linecap="round"/>
<path d="M621.525 400.21C620.339 404.353 616.344 423.154 619.153 431.888" stroke="#0C3559" stroke-miterlimit="10" stroke-linecap="round"/>
<path d="M634.67 450.877C637.351 452.76 663.05 464.135 698.581 459.845" stroke="#0C3559" stroke-miterlimit="10" stroke-linecap="round"/>
<path d="M632.21 431.887C633.932 432.162 628.317 427.678 625.132 429.347C621.947 431.016 617.658 438.57 618.536 440.319C618.654 440.637 618.842 440.924 619.086 441.159C619.33 441.394 619.623 441.572 619.945 441.678C620.266 441.785 620.608 441.818 620.944 441.776C621.28 441.733 621.602 441.616 621.887 441.432C622.752 440.876 629.207 431.407 632.21 431.887Z" fill="#88613A"/>
<path d="M684.438 667.27C685.357 667.94 693.501 673.45 693.568 676.922C693.634 680.393 685.98 691.903 684.438 692.232C682.897 692.561 681.797 691.26 681.797 688.934C681.797 686.608 684.704 682.533 684.32 680.723C683.936 678.914 680.171 675.602 678.241 675.542" fill="#0C3559"/>
<path d="M641.836 688.17C641.836 689.765 642.761 699.779 640.911 700.711C639.061 701.643 618.644 702.191 617.719 701.267C616.794 700.342 616.231 698.391 617.049 697.835C617.867 697.279 625.763 695.697 626.835 694.96C627.908 694.223 629.389 690.268 628.846 688.17" fill="#0C3559"/>
<path d="M198.055 638.498H68.4361V704.246H198.055V638.498Z" fill="#5A9FDB"/>
<path d="M261.912 607.686C262.475 611.037 272.034 687.657 273.582 688.924C275.131 690.191 291.572 692.999 292.98 690.895C293.261 687.543 293.65 634.108 294.522 629.329" fill="#19588F"/>
<path d="M76.9822 591.699C70.353 588.435 84.1741 653.144 120.551 653.144C156.927 653.144 218.156 597.732 228.07 597.732C249.955 597.732 301.761 640.697 305.823 640.697C308.933 637.587 315.153 632.142 315.153 629.973C315.153 627.803 265.552 546.187 228.439 546.187C214.048 546.208 91.9494 599.094 76.9822 591.699Z" fill="#317EC2"/>
<path d="M97.4528 592.799C104.725 591.15 113.774 586.88 121.784 582.517C99.9928 589.642 82.1369 594.247 76.9822 591.7C73.4699 589.97 75.6952 607.292 83.9509 623.973C82.4582 620.749 80.3267 596.713 97.4528 592.799Z" fill="#0C3559"/>
<path d="M113.485 479.278C119.216 479.432 149.05 478.554 157.227 486.343C163.293 492.12 182.155 541.808 185.064 559.256C172.396 565.701 81.0233 609.449 52.7439 590.213C52.1204 575.264 55.0229 515.844 73.5134 484.683C80.2792 480.178 107.975 479.139 113.485 479.278Z" fill="#F2A922"/>
<path d="M125.108 465.063H107.681V483.791C107.681 488.483 125.108 488.443 125.108 483.791V465.063Z" fill="#E5D6C6"/>
<path d="M107.681 476.371C107.681 474.293 113.439 469.071 116.998 469.259C117.085 466.946 108.867 463.622 108.867 463.622L107.681 466.819V476.371Z" fill="#0C3559"/>
<path d="M143.359 465.063C143.751 463.25 143.948 461.401 143.949 459.547C143.949 445.728 133.151 434.519 119.821 434.519C106.491 434.519 95.6927 445.726 95.6927 459.547C95.6936 461.401 95.8914 463.25 96.2828 465.063H143.359Z" fill="#0C3559"/>
<path d="M136.999 448.192C134.043 447.743 131.094 445.417 129.036 443.896C117.306 452.489 109.792 452.603 108.981 452.603C108.17 452.603 104.866 457.348 103.344 457.885L103.21 457.804C103.663 460.301 104.63 462.676 106.049 464.779C107.469 466.882 109.311 468.667 111.458 470.02C113.604 471.373 116.009 472.265 118.519 472.639C121.028 473.013 123.588 472.861 126.036 472.192C128.484 471.524 130.766 470.354 132.737 468.756C134.709 467.158 136.326 465.168 137.487 462.911C138.648 460.655 139.326 458.182 139.48 455.649C139.634 453.116 139.259 450.579 138.38 448.199C137.921 448.254 137.457 448.251 136.999 448.192Z" fill="#E5D6C6"/>
<path d="M106.749 437.635C110.68 437.635 113.867 434.448 113.867 430.517C113.867 426.586 110.68 423.399 106.749 423.399C102.818 423.399 99.6307 426.586 99.6307 430.517C99.6307 434.448 102.818 437.635 106.749 437.635Z" fill="#0C3559"/>
<path d="M109.92 452.221C109.151 452.258 108.427 452.59 107.896 453.147C107.365 453.704 107.069 454.444 107.069 455.214C107.069 455.983 107.365 456.723 107.896 457.28C108.427 457.837 109.151 458.169 109.92 458.206" stroke="#0C3559" stroke-miterlimit="10" stroke-linecap="round"/>
<path d="M132.736 452.603C133.613 453.776 135.873 455.834 132.736 458.012" stroke="#0C3559" stroke-miterlimit="10" stroke-linecap="round"/>
<path d="M123.224 459.581C123.224 460.458 123.6 462.557 125.483 463.099" stroke="#0C3559" stroke-miterlimit="10" stroke-linecap="round"/>
<path d="M117.386 459.788C118.912 459.788 120.148 459.146 120.148 458.354C120.148 457.562 118.912 456.919 117.386 456.919C115.861 456.919 114.625 457.562 114.625 458.354C114.625 459.146 115.861 459.788 117.386 459.788Z" fill="#CFB293"/>
<path d="M137.918 459.788C139.443 459.788 140.679 459.146 140.679 458.354C140.679 457.562 139.443 456.919 137.918 456.919C136.392 456.919 135.156 457.562 135.156 458.354C135.156 459.146 136.392 459.788 137.918 459.788Z" fill="#CFB293"/>
<path d="M156.597 531.073L175.224 526.28C177.014 529.323 185.728 559.226 185.728 559.226L156.973 571.345C157.348 565.679 158.481 539.739 156.597 531.073Z" fill="#E5D6C6"/>
<path d="M91.2853 526.387C91.2853 528.639 89.3885 537.212 88.2693 541.241" stroke="#0C3559" stroke-miterlimit="10" stroke-linecap="round"/>
<path d="M156.598 531.073C156.149 527.527 153.522 507.548 149.051 497.029" stroke="#0C3559" stroke-miterlimit="10" stroke-linecap="round"/>
<path d="M156.597 531.073L175.224 526.28C177.014 529.323 185.728 559.226 185.728 559.226L156.973 571.345C157.348 565.679 158.481 539.739 156.597 531.073Z" fill="#E5D6C6"/>
<path d="M306.378 639.115C306.794 639.786 312.344 646.596 314.308 646.67C316.272 646.744 328.196 638.667 327.673 636.931C327.151 635.195 319.67 636.328 318.383 635.718C317.096 635.108 314.221 632.239 313.752 630.966" fill="#0C3559"/>
<path d="M277.054 689.634C276.913 690.378 276.156 699.152 277.516 700.573C278.877 701.994 293.067 704.46 293.891 702.845C294.715 701.23 288.529 696.853 288.053 695.526C287.578 694.199 287.477 690.163 288.053 688.904" fill="#0C3559"/>
<path d="M254.81 561.101H191.687L206.712 521.28H269.835L254.81 561.101Z" fill="#A3A3A3"/>
<path d="M202.211 559.6H139.091V561.101H202.211V559.6Z" fill="#A3A3A3"/>
<path d="M88.2691 541.241C87.0561 545.772 81.1639 565.21 83.5635 568.562C85.9632 571.913 146.061 564.319 162.14 559.312C166.236 557.971 169.272 554.459 171.089 554.003C173.421 553.608 175.817 554.089 177.817 555.353C179.816 556.618 181.278 558.576 181.921 560.853C175.499 563.963 82.786 611.299 52.7441 590.231C47.0668 586.163 57.0274 536.562 57.4831 534.062C62.5572 534.672 88.2691 541.241 88.2691 541.241Z" fill="#E5D6C6"/>
<path d="M157.456 560.518C159.266 560.089 160.848 559.667 162.148 559.265C166.243 557.924 169.279 554.412 171.096 553.956C173.429 553.561 175.825 554.042 177.824 555.306C179.824 556.571 181.285 558.53 181.928 560.806" stroke="#0C3559" stroke-miterlimit="10" stroke-linecap="round"/>
</g>
<defs>
<clipPath id="clip0">
<rect width="1366" height="768" fill="white"/>
</clipPath>
</defs>
</svg>
