<svg width="768" height="764" viewBox="0 0 768 764" fill="none" xmlns="http://www.w3.org/2000/svg">
<mask id="mask0" mask-type="alpha" maskUnits="userSpaceOnUse" x="-346" y="0" width="1368" height="768">
<rect x="-346" width="1368" height="768" fill="#C4C4C4"/>
</mask>
<g mask="url(#mask0)">
<path d="M932.5 769.5C949.3 772.7 1130.83 900.167 1219.5 963.5H-325C-240.167 821.667 -83.4065 533.508 -76 524.5C-57.5 502 -57 511 -25 496C7 481 85.5 308 97 308C108.5 308 256.5 522.5 269.5 524.5C282.5 526.5 330.5 610 345.5 610C360.5 610 362.5 589 400.5 589C438.5 589 649.5 893 685.5 889C721.5 885 911.5 765.5 932.5 769.5Z" fill="#EAF3FA"/>
<path d="M-844.221 1085.85C-872.774 1089.05 -1181.3 1216.62 -1332 1280H1293C1148.82 1138.06 882.393 849.68 869.805 840.665C838.363 818.148 837.513 827.155 783.126 812.143C728.74 797.132 595.323 624 575.778 624C556.232 624 304.695 838.664 282.6 840.665C260.506 842.667 178.926 926.23 153.432 926.23C127.938 926.23 124.539 905.214 59.9553 905.214C-4.62866 905.214 -363.24 1209.45 -424.425 1205.44C-485.61 1201.44 -808.53 1081.85 -844.221 1085.85Z" fill="#C6DEF3"/>
<path d="M-471 427.991C-471 408.509 -422.244 404.379 -402.975 404.379C-363.896 404.379 -361.309 382.198 -328.861 382.198C-300.329 382.198 -285.825 405.1 -259.26 405.1C-202.257 405.102 -189.563 340 -134.111 340C-77.6893 340 -80.571 407.96 -28.0674 407.96C-1.37338 407.96 159 412.956 159 428L-471 427.991Z" fill="white"/>
<path d="M-347 664.987C-347 639.086 -282.146 633.594 -256.516 633.594C-204.534 633.594 -201.093 604.104 -157.932 604.104C-119.98 604.104 -100.688 634.553 -65.3516 634.553C10.4703 634.556 27.3557 548 101.116 548C176.166 548 172.333 638.356 242.171 638.356C277.678 638.356 491 644.998 491 665L-347 664.987Z" fill="white"/>
<path d="M-445 782.125C-445 761.676 -366.731 729.631 -323.933 729.631C-239.498 729.631 -265.858 755.88 -212.747 755.88C-152.224 755.876 -138.397 639 -46.3047 639C54.3522 639 38.5522 753.319 100.334 753.319C126.941 753.319 140.266 742.211 178.066 742.211C200.005 742.211 224 761.723 224 782.207L-445 782.125Z" fill="white"/>
<path d="M403 720.125C403 699.676 481.269 667.631 524.067 667.631C608.502 667.631 582.142 693.88 635.253 693.88C695.776 693.876 709.603 577 801.695 577C902.352 577 886.552 691.319 948.334 691.319C974.941 691.319 988.266 680.211 1026.07 680.211C1048 680.211 1072 699.723 1072 720.207L403 720.125Z" fill="white"/>
<path d="M612.304 604.009C611.843 606.215 603.603 672.562 603.603 672.562L639.796 720.649C639.796 720.649 636.141 726.51 634.952 726.596C633.762 726.682 578.869 684.098 578.869 684.098L602.373 610.466L612.304 604.009Z" fill="#074E4D"/>
<path d="M567.882 732.467C567.73 733.212 567.059 737.64 566.236 738.229C564.816 739.323 555.679 736.805 555.333 736.282C554.988 735.759 554.922 734.796 555.358 734.636C555.794 734.475 559.638 734.467 560.206 734.224C560.774 733.981 561.852 732.286 561.787 731.24" fill="#074E4D"/>
<path d="M581.326 594.783C576.741 587.377 577.653 551.433 578.681 534.386C589.409 533.651 612.274 533.328 617.917 537.913C623.56 542.498 623.501 560.691 622.766 569.214C622.179 579.794 620.033 601.22 616.154 602.278C612.274 603.336 602.781 600.955 598.519 599.633C594.699 601.102 585.911 602.19 581.326 594.783Z" fill="#5A9FDB"/>
<rect x="575.49" y="521.642" width="50.1122" height="14.1073" rx="7.05367" transform="rotate(7.0405 575.49 521.642)" fill="#19588F"/>
<path d="M638.72 720.98C639.341 721.392 643.128 723.807 643.375 724.766C643.815 726.503 637.872 733.887 637.259 733.994C636.646 734.101 635.728 733.792 635.736 733.31C635.744 732.829 637.28 729.318 637.284 728.697C637.288 728.075 636.156 726.421 635.172 726.063" fill="#074E4D"/>
<path d="M581.467 535.223C582.34 532.992 613.429 536.77 615.594 539.141C617.759 541.511 612.915 602.653 612.306 604.011C609.318 604.628 581.891 604.114 580.657 601.743C579.422 599.372 573.207 556.36 581.467 535.223Z" fill="#39BCBA"/>
<path d="M615.474 539.172C616.733 540.292 632.936 565.278 633.994 573.143C635.052 581.007 634.34 606.067 634.34 606.067C632.068 607.426 629.468 608.137 626.82 608.125C625.174 603.458 617.832 579.341 617.832 579.341L606.592 556.606" fill="#39BCBA"/>
<path d="M581.598 535.177C580.874 535.56 564.609 568.386 562.897 572.465C559.345 576.02 542.236 594.31 542.236 594.31L543.574 601.286L572.655 582.47L580.157 573.255" fill="#39BCBA"/>
<path d="M577.545 576.435C577.01 566.36 577.097 554.894 578.78 545.23" stroke="#074E4D" stroke-linecap="round" stroke-linejoin="round"/>
<path d="M614.889 573.46L606.572 556.631" stroke="#074E4D" stroke-linecap="round" stroke-linejoin="round"/>
<path d="M590.555 535.247C590.518 536.445 597.103 536.733 597.14 535.445L597.379 527.436L590.794 527.238L590.555 535.247Z" fill="#E5D6C6"/>
<path d="M597.237 532.222C597.262 531.506 595.706 529.004 594.435 529.378C596.003 528.88 596.826 527.036 597.381 527.436L597.237 532.222Z" fill="#074E4D"/>
<path d="M591.34 529.957C596.071 529.957 599.905 526.123 599.905 521.393C599.905 516.663 596.071 512.828 591.34 512.828C586.61 512.828 582.776 516.663 582.776 521.393C582.776 526.123 586.61 529.957 591.34 529.957Z" fill="#E5D6C6"/>
<path d="M584.081 522.322C584.093 521.911 583.464 521.558 582.675 521.534C581.886 521.511 581.237 521.825 581.224 522.237C581.212 522.648 581.842 523.001 582.63 523.024C583.419 523.048 584.068 522.734 584.081 522.322Z" fill="#CFB293"/>
<path d="M593.061 522.598C593.074 522.186 592.444 521.833 591.655 521.81C590.867 521.786 590.217 522.101 590.205 522.512C590.193 522.923 590.822 523.276 591.611 523.3C592.399 523.323 593.049 523.009 593.061 522.598Z" fill="#CFB293"/>
<path d="M586.183 520.842C585.907 521.217 584.487 522.773 585.916 523.464" stroke="#074E4D" stroke-width="0.69" stroke-miterlimit="10" stroke-linecap="round"/>
<path d="M588.734 525.402C589.146 525.402 589.841 524.904 590.208 524.435" stroke="#074E4D" stroke-width="0.69" stroke-miterlimit="10" stroke-linecap="round"/>
<path fill-rule="evenodd" clip-rule="evenodd" d="M590.308 510.007C591.481 509.783 594.64 509.629 595.222 509.629C595.595 509.629 595.998 509.728 596.219 509.329C596.399 509.003 596.333 508.45 596.387 508.071C596.449 507.631 596.538 507.197 596.628 506.763C596.884 505.53 597.271 504.357 597.812 503.255C598.828 501.188 600.315 499.569 602.194 498.627C604.268 497.587 606.615 497.349 608.846 497.56C611.233 497.786 613.394 498.705 615.649 499.57C617.797 500.395 620.047 500.719 622.293 500.317C624.557 499.911 626.267 498.48 628.177 497.122C630.131 495.731 632.365 494.821 634.676 495.03C636.832 495.226 638.82 496.265 640.604 497.652C642.273 498.951 643.65 500.513 644.427 502.712C645.263 505.078 645.263 507.674 643.887 509.764C641.894 512.794 638.193 513.578 635.115 513.5C633.334 513.455 631.585 513.076 629.904 512.386C627.662 511.466 625.724 509.907 623.626 508.641C622.642 508.048 621.625 507.56 620.558 507.209C619.523 506.868 618.504 506.711 617.567 507.441C616.575 508.212 615.687 508.97 614.553 509.453C613.465 509.917 612.313 510.176 611.154 510.166C608.898 510.145 606.675 509.326 604.485 508.776C602.699 508.329 600.788 507.883 598.967 508.313C598.207 508.493 597.097 508.863 596.823 509.785C601.442 510.761 603.256 517.425 601.954 522.317C601.251 524.958 597.026 528.044 595.384 526.656C594.343 525.777 594.975 524.622 595.384 523.86C596.167 522.401 596.434 520.526 594.986 519.51C593.736 518.633 592.422 520.715 592.397 520.712C592.053 520.681 589.085 518.723 587.041 515.865C585.023 516.005 584.717 514.453 585.199 513.184C585.681 511.915 588.687 510.318 590.308 510.007Z" fill="#074E4D"/>
<path d="M543.63 602.449C545.896 600.478 546.449 597.406 544.866 595.586C543.283 593.767 540.164 593.889 537.898 595.86C535.633 597.831 535.08 600.903 536.662 602.723C538.245 604.542 541.365 604.42 543.63 602.449Z" fill="#E5D6C6"/>
<path d="M631.14 617.395C633.922 617.275 636.057 614.411 635.91 610.998C635.763 607.585 633.389 604.915 630.607 605.035C627.825 605.155 625.689 608.019 625.836 611.432C625.984 614.846 628.358 617.515 631.14 617.395Z" fill="#E5D6C6"/>
<path d="M612.305 604.007C610.453 608.151 609.136 628.363 583.69 671.96C581.389 676.981 569.812 734.035 569.812 734.035L558.7 731.455L580.644 601.739" fill="#8AE6E3"/>
<path d="M582.649 557.308C583.09 547.61 582.796 538.35 581.768 534.823C581.768 534.381 587.873 533.98 588.381 534.825C589.703 537.03 589.704 546.288 587.94 559.073C585.966 573.377 578.241 583.319 577.8 582.878C577.447 582.525 577.212 578.029 577.359 576.706C578.241 574.061 582.225 566.636 582.649 557.308Z" fill="#317EC2"/>
<path d="M609.163 559.127C608.722 549.428 609.016 540.168 610.044 536.641C610.044 536.199 603.939 535.798 603.431 536.643C602.109 538.848 602.108 548.107 603.872 560.891C605.846 575.196 613.572 585.137 614.012 584.696C614.365 584.344 614.6 579.847 614.453 578.524C613.571 575.879 609.587 568.455 609.163 559.127Z" fill="#317EC2"/>
<path d="M439.679 589.839C439.58 593.032 438.535 635.063 434.822 646.591C440.453 654.147 481.314 707.15 481.438 708.325C481.562 709.501 474.631 715.887 473.393 715.887C472.155 715.887 409.475 664.909 406.275 661.573C403.076 658.238 401.609 644.364 401.609 644.364" fill="#074E4D"/>
<path d="M441.468 576.607C441.468 615.989 391.096 654.542 381.151 660.049C379.165 664.183 347.036 730.595 346.274 732.415C343.675 732.718 339.542 731.493 337.555 728.894C338.174 726.295 353.31 650.259 355.297 645.668C357.283 641.076 382.525 593.742 389.722 584.596" fill="#8AE6E3"/>
<path d="M479.786 709.7C480.405 710.319 484.434 713.952 484.533 715.14C484.7 717.287 476.154 724.83 475.399 724.837C474.644 724.843 473.629 724.28 473.734 723.717C473.839 723.153 476.383 719.298 476.507 718.562C476.63 717.825 475.634 715.635 474.545 715.004" fill="#074E4D"/>
<path d="M345.916 731.635C345.581 732.482 343.836 737.582 342.784 738.132C340.872 739.135 330.581 734.24 330.278 733.547C329.975 732.854 330.092 731.69 330.655 731.579C331.218 731.468 335.761 732.272 336.485 732.105C337.209 731.938 338.83 730.149 338.96 728.899" fill="#074E4D"/>
<path d="M406.121 496.582C393.515 496.582 388.293 516.948 388.293 523.018C388.293 532.629 393.788 570.6 389.722 584.598C394.747 585.421 435.113 582.036 441.468 576.609C441.468 538.21 418.108 496.582 406.121 496.582Z" fill="#39BCBA"/>
<path d="M396.916 504.89C394.689 503.771 340.608 481.592 339.401 481.027C338.223 482.555 334.923 488.717 334.444 491.152C336.603 493.002 387.62 521.874 387.62 521.874" fill="#BF9972"/>
<path d="M339.4 481.031C336.703 479.901 317.031 471.091 316.541 470.887C316.051 470.684 315.662 470.386 315.521 470.686C314.023 473.936 319.975 476.35 322.703 477.745C321.327 480.375 320.585 482.512 322.401 483.992C324.028 485.334 327.046 487.114 335.481 488.225" fill="#BF9972"/>
<path d="M387.619 521.877L378.41 516.627C381.464 507.806 386.347 502.353 387.872 501.044C392.898 503.131 396.384 504.612 396.92 504.869" fill="#39BCBA"/>
<path d="M348.226 585.112C343.131 585.112 339 581.729 339 577.556C339 573.383 343.131 570 348.226 570C353.322 570 357.453 573.383 357.453 577.556C357.453 581.729 353.322 585.112 348.226 585.112Z" fill="#BF9972"/>
<path d="M390.733 516.622C389.825 518.584 389.057 520.609 388.435 522.68C387.402 522.047 382.47 519.122 382.47 519.122C382.47 519.122 387.733 519.857 390.733 516.622Z" fill="#074E4D"/>
<path d="M399.004 569.005C398.311 571.481 393.738 584.476 403.633 584.129C399.357 584.439 392.197 585.045 389.722 584.6C389.895 583.981 391.102 577.075 391.12 574.148C392.29 573.486 399.004 569.005 399.004 569.005Z" fill="#074E4D"/>
<path d="M399.135 501.841C400.019 503.314 408.207 498.549 407.254 496.965L401.325 487.063L393.2 491.94L399.135 501.841Z" fill="#BF9972"/>
<path d="M404.883 492.986C404.357 492.108 399.443 489.942 398.2 491.384C399.703 489.564 400.353 487.052 401.343 487.095L404.883 492.986Z" fill="#074E4D"/>
<path d="M387.501 490.567C381.617 487.17 379.601 479.646 382.998 473.762C386.395 467.878 393.919 465.862 399.803 469.259C405.687 472.656 407.703 480.18 404.306 486.064C400.909 491.948 393.385 493.964 387.501 490.567Z" fill="#BF9972"/>
<path d="M380 476.776C380.241 476.236 381.277 476.174 382.313 476.637C383.349 477.1 383.993 477.912 383.752 478.452C383.511 478.992 382.476 479.055 381.44 478.592C380.404 478.129 379.759 477.316 380 476.776Z" fill="#AA8053"/>
<path d="M391.78 482.045C392.021 481.506 393.056 481.443 394.092 481.906C395.128 482.369 395.773 483.181 395.531 483.721C395.29 484.261 394.255 484.324 393.219 483.861C392.183 483.398 391.539 482.585 391.78 482.045Z" fill="#AA8053"/>
<path d="M387.357 477.635C386.764 478.006 384.036 479.29 385.565 480.973" stroke="#074E4D" stroke-width="0.69" stroke-miterlimit="10" stroke-linecap="round"/>
<path d="M388.241 485.112C388.817 485.351 389.988 485.056 390.729 484.626" stroke="#074E4D" stroke-width="0.69" stroke-miterlimit="10" stroke-linecap="round"/>
<path d="M400.49 482.931C398.993 482.931 397.779 481.718 397.779 480.221C397.779 478.724 398.993 477.51 400.49 477.51C401.987 477.51 403.2 478.724 403.2 480.221C403.2 481.718 401.987 482.931 400.49 482.931Z" fill="#BF9972"/>
<path d="M400.252 484.717C398.451 487.837 400.711 491.892 401.874 492.564C402.047 492.697 402.247 492.791 402.46 492.839C402.673 492.886 402.894 492.886 403.107 492.839C403.32 492.791 403.52 492.697 403.693 492.564C403.865 492.43 404.006 492.26 404.106 492.066C404.861 490.758 404.736 489.192 403.934 486.843C404.5 486.519 408.088 485.168 410.183 481.54C412.395 477.708 411.896 473.14 410.32 472.23C409.62 471.883 408.824 471.777 408.057 471.931C407.291 472.085 406.597 472.489 406.085 473.08C409.176 467.726 405.668 460.584 402.281 458.629C399.103 456.794 397.728 457.851 397.082 458.971C395.658 461.436 396.076 465.193 396.441 466.268C395.42 463.928 393.405 461.007 390.994 459.614C389.482 458.742 387.305 458.057 386.105 460.136C383.899 463.957 386.199 468.229 387.038 469.535C388.018 468.909 389.079 468.421 390.191 468.083C389.554 468.68 389.68 470.503 391.198 471.773C392.032 472.483 404.386 477.558 400.252 484.717Z" fill="#074E4D"/>
<path d="M456.954 523.756L449.81 525.163L455.095 552.007L462.239 550.601C465.467 549.965 467.552 546.745 466.895 543.41L463.988 528.646C463.332 525.31 460.182 523.121 456.954 523.756Z" fill="#0C3559"/>
<path d="M402.277 500.341L426.877 495.497L428.177 502.095L403.576 506.939C398.803 507.882 395.698 512.513 396.641 517.282C396.897 518.585 397.447 519.813 398.246 520.873L427.402 559.474L435.917 558.825L437.216 565.423L427.54 565.92C425.309 566.034 423.171 565.036 421.826 563.255L392.888 524.926C387.72 518.083 389.085 508.346 395.936 503.179C397.807 501.766 399.976 500.797 402.277 500.341Z" fill="#317EC2"/>
<path d="M455.735 555.254C456.795 560.635 453.26 565.861 447.839 566.928L438.025 568.86C432.604 569.928 427.352 566.431 426.293 561.051L425.653 557.803L455.096 552.006C455.096 552.006 455.735 555.254 455.735 555.254Z" fill="#317EC2"/>
<path d="M416.431 508.031C417.036 503.788 420.223 500.402 424.385 499.586L434.199 497.654C439.62 496.586 444.889 500.168 445.969 505.654L455.096 552.008L425.654 557.805L416.527 511.451L416.431 508.031Z" fill="#5A9FDB"/>
<path d="M423.495 469.178C431.625 467.577 439.514 472.871 441.115 481C442.715 489.13 437.422 497.019 429.292 498.62C421.163 500.221 413.273 494.927 411.673 486.798C410.072 478.668 415.366 470.778 423.495 469.178ZM427.36 488.806C430.069 488.273 431.834 485.641 431.301 482.933C430.767 480.224 428.136 478.459 425.428 478.992C422.719 479.525 420.953 482.156 421.487 484.865C422.02 487.574 424.651 489.339 427.36 488.806Z" fill="#19588F"/>
<path d="M398.043 507.099C401.573 504.628 406.574 505.481 408.634 506.216L413.929 541.961C413.341 543.138 412.076 545.492 411.723 545.492C411.37 545.492 408.928 544.903 407.751 544.609C401.867 542.55 390.011 536.666 389.658 529.605C389.217 520.779 393.63 510.188 398.043 507.099Z" fill="#39BCBA"/>
<path d="M387.409 539.314C394.87 543.707 408.065 545.231 413.047 544.205C400.806 571.042 363.871 580.549 353.032 583.443C351.269 580.655 348.815 575.267 348.619 571.172C353.191 568.963 379.526 558.796 387.409 539.314Z" fill="#BF9972"/>
<path d="M404.221 505.335C413.546 505.335 416.576 520.476 416.576 526.429C416.618 532.847 414.846 539.663 412.164 545.493" stroke="#074E4D" stroke-linecap="round" stroke-linejoin="round"/>
<path d="M387.893 539.755C389.186 536.649 390.367 524.14 390.541 520.78" stroke="#074E4D" stroke-linecap="round" stroke-linejoin="round"/>
<path d="M274.669 701.486C274.669 702.223 274.548 702.945 274.324 703.635C273.245 706.914 269.763 709.47 265.376 709.47H214.452C207.916 709.47 203.425 703.812 205.801 698.57L205.957 698.223C209.267 690.923 216.398 685.583 224.927 683.637C227.242 683.107 229.662 682.827 232.136 682.827H247.698C259.511 682.827 270.064 689.188 274.102 698.743C274.49 699.659 274.669 700.583 274.669 701.486Z" fill="#262626"/>
<path d="M266.329 650.347C266.07 653.531 264.378 656.182 262.182 656.182H239.257C236.552 656.182 234.169 651.904 235.43 646.758C235.437 646.73 235.444 646.702 235.451 646.671C237.085 639.834 243.134 635 250.105 635H251.321C258.382 635 264.527 639.939 266.042 646.898C266.065 647.001 266.087 647.099 266.108 647.195C266.348 648.254 266.413 649.328 266.329 650.347Z" fill="#262626"/>
<path d="M274.669 701.486C274.669 702.223 274.547 702.945 274.324 703.635H226.588C220.05 703.635 215.561 697.978 217.937 692.737L218.093 692.389C219.629 689.002 221.985 686.036 224.926 683.637C227.241 683.107 229.661 682.827 232.135 682.827H247.697C259.511 682.827 270.064 689.188 274.101 698.743C274.489 699.659 274.669 700.583 274.669 701.486Z" fill="#4B4B4B"/>
<path d="M266.329 650.347H251.393C248.688 650.347 246.305 646.069 247.565 640.924C247.572 640.896 247.579 640.868 247.587 640.838C248.107 638.658 249.078 636.68 250.383 635H251.321C258.382 635 264.528 639.939 266.042 646.898C266.065 647.001 266.087 647.099 266.108 647.195C266.348 648.254 266.413 649.328 266.329 650.347Z" fill="#4B4B4B"/>
<path d="M276.997 676.992C276.08 680.266 273.116 682.827 269.365 682.827H225.929C221.397 682.827 217.999 679.081 217.999 674.846C217.999 673.942 218.153 673.015 218.484 672.101C221.486 663.773 228.706 657.874 237.18 656.495C238.431 656.289 239.71 656.184 241.008 656.184H254.282C264.159 656.184 273.023 662.296 276.612 671.58L276.747 671.928C277.41 673.643 277.446 675.401 276.997 676.992Z" fill="#727272"/>
<path d="M276.997 676.992H238.065C233.533 676.992 230.135 673.246 230.135 669.011C230.135 668.108 230.289 667.181 230.621 666.266C232.006 662.422 234.289 659.096 237.181 656.495C238.431 656.289 239.71 656.184 241.008 656.184H254.283C264.159 656.184 273.023 662.296 276.612 671.58L276.748 671.928C277.41 673.643 277.446 675.401 276.997 676.992Z" fill="#A3A3A3"/>
<path d="M287.386 736.969C287.386 739.093 286.807 741.135 285.78 742.901C283.787 746.332 280.106 748.736 275.7 748.736H211.684C203.469 748.736 197.822 740.397 200.809 732.675L201.007 732.161C205.194 721.328 214.254 713.425 225.069 710.606C227.913 709.862 230.882 709.47 233.913 709.47H253.478C268.33 709.47 281.595 718.844 286.671 732.927C287.157 734.276 287.386 735.638 287.386 736.969Z" fill="#727272"/>
<path d="M287.386 736.969C287.386 739.093 286.807 741.135 285.78 742.901H223.82C215.605 742.901 209.957 734.562 212.945 726.84L213.142 726.327C215.623 719.909 219.815 714.518 225.069 710.606C227.913 709.862 230.882 709.47 233.913 709.47H253.478C268.33 709.47 281.595 718.844 286.671 732.927C287.156 734.276 287.386 735.638 287.386 736.969Z" fill="#A3A3A3"/>
<path d="M779.294 733.569C892.162 724.035 940.728 729.597 950.902 733.569V873.93L149.902 930C157.137 910.138 166.153 837.57 124.37 828.036C72.1416 816.119 40.6319 803.75 85.3993 770.205C130.167 736.66 240.729 733.569 362.822 733.569C484.914 733.569 638.209 745.487 779.294 733.569Z" fill="#042039"/>
<path d="M432.693 692.788C427.655 712.218 433.155 733.37 433.233 733.696C433.219 733.593 433.096 732.073 433.096 732.073C431.481 719.02 435.417 711.659 435.417 711.659C432.76 722.951 437.664 729.39 440.539 732.073C441.616 733.077 442.418 733.934 442.418 733.934C442.501 733.934 442.575 732.579 442.636 732.073C444.569 716.135 435.42 695.834 435.42 695.834C441.273 701.037 444.819 717.968 446.379 727.285C444.519 711.585 447.593 704.354 447.593 704.354C446.379 717.484 449.429 728.261 450.709 732.073C451.03 733.033 451.244 733.934 451.244 733.934C451.393 733.934 451.526 732.618 451.653 732.073C453.852 722.582 452.766 699.179 452.766 699.179C454.949 704.638 456.263 715.855 456.965 723.997C456.961 710.194 461.289 701.918 461.289 701.918C456.723 719.57 462.811 731.134 462.811 731.134C461.594 715.31 465.854 711.353 465.854 711.353C462.707 717.903 469.811 730.833 469.811 730.833C472.549 713.79 465.854 689.744 465.854 689.744C469.908 695.457 472.288 709.756 473.534 720.151C473.667 706.946 479.181 701.918 479.181 701.918C473.639 715.31 479.245 731.743 479.245 731.743C478.635 715.919 482.594 708.307 482.594 708.307C482.096 715.294 487.727 727.789 489.775 732.071C490.226 733.009 490.507 733.932 490.507 733.932C490.624 733.932 490.724 732.597 490.815 732.071C492.861 720.316 488.682 695.221 488.682 695.221C493.472 698.947 496.401 725.449 497.062 732.073C497.157 733.027 497.204 733.934 497.204 733.934C497.232 733.934 497.264 732.577 497.294 732.073C497.925 721.785 497.855 710.369 497.855 710.369C499.869 712.579 501.457 733.932 501.466 733.932L501.413 732.071C500.103 705.484 504.814 696.745 504.814 696.745C502.508 709.807 506.671 726.965 508.044 732.071C508.302 733.033 508.465 733.932 508.465 733.932C508.767 733.932 509.025 732.625 509.251 732.071C512.447 724.233 508.465 706.178 508.465 706.178C512.14 710.901 513.396 719.238 513.805 725.479C513.467 693.498 516.075 683.047 516.075 683.047C514.199 694.58 518.228 724.995 519.212 732.071C519.269 732.488 519.263 732.444 519.212 732.071H519.291C518.563 721.304 522.162 701.918 522.162 701.918C522.162 710.369 524.103 727.009 524.716 732.071C524.831 733.023 524.901 733.932 524.901 733.932C525.212 733.311 525.363 732.583 525.569 732.071C530.207 718.294 524.901 695.221 524.901 695.221C531.968 704.646 532.732 726.223 532.806 732.071C532.812 732.521 532.814 732.644 532.806 732.071C532.806 732.071 532.445 734.309 533.435 732.071C536.83 724.735 532.619 701.918 532.619 701.918C536.79 706.351 538.487 726.417 538.862 732.071C538.923 733.013 539 733.932 539 733.932C539.104 733.932 539.217 732.573 539.302 732.071C542.614 712.651 532.8 691.141 532.8 691.141C542.536 697.229 545.057 733.93 545.057 733.93V750.672H426V732.071C425.982 698.005 432.693 692.788 432.693 692.788Z" fill="#042039"/>
<path d="M343.855 688.477C349.274 709.376 343.358 732.127 343.275 732.477C343.289 732.367 343.422 730.732 343.422 730.732C345.159 716.692 340.925 708.774 340.925 708.774C343.783 720.92 338.509 727.846 335.416 730.732C334.257 731.812 333.395 732.734 333.395 732.734C333.305 732.734 333.226 731.276 333.16 730.732C331.082 713.589 340.923 691.754 340.923 691.754C334.626 697.35 330.812 715.561 329.135 725.582C331.135 708.695 327.829 700.918 327.829 700.918C329.135 715.04 325.854 726.632 324.478 730.732C324.132 731.765 323.902 732.734 323.902 732.734C323.741 732.734 323.599 731.319 323.462 730.732C321.097 720.524 322.265 695.352 322.265 695.352C319.917 701.223 318.504 713.288 317.749 722.045C317.753 707.199 313.098 698.297 313.098 698.297C318.009 717.284 311.461 729.722 311.461 729.722C312.769 712.701 308.187 708.446 308.187 708.446C311.572 715.491 303.931 729.398 303.931 729.398C300.986 711.067 308.187 685.204 308.187 685.204C303.827 691.348 301.268 706.728 299.927 717.909C299.784 703.705 293.853 698.297 293.853 698.297C299.814 712.701 293.785 730.377 293.785 730.377C294.44 713.356 290.182 705.17 290.182 705.17C290.718 712.684 284.661 726.124 282.458 730.73C281.974 731.739 281.671 732.732 281.671 732.732C281.545 732.732 281.438 731.295 281.34 730.73C279.139 718.086 283.634 691.094 283.634 691.094C278.482 695.102 275.332 723.608 274.621 730.732C274.519 731.759 274.468 732.734 274.468 732.734C274.438 732.734 274.403 731.274 274.372 730.732C273.693 719.666 273.768 707.387 273.768 707.387C271.601 709.765 269.894 732.732 269.883 732.732L269.941 730.73C271.349 702.133 266.283 692.733 266.283 692.733C268.763 706.783 264.285 725.238 262.808 730.73C262.531 731.765 262.356 732.732 262.356 732.732C262.031 732.732 261.754 731.325 261.51 730.73C258.072 722.3 262.356 702.88 262.356 702.88C258.403 707.959 257.052 716.927 256.612 723.64C256.975 689.242 254.171 678 254.171 678C256.188 690.405 251.855 723.119 250.797 730.73C250.735 731.178 250.741 731.131 250.797 730.73H250.711C251.494 719.149 247.623 698.297 247.623 698.297C247.623 707.387 245.536 725.285 244.876 730.73C244.752 731.754 244.678 732.732 244.678 732.732C244.343 732.064 244.18 731.28 243.958 730.73C238.971 715.911 244.678 691.094 244.678 691.094C237.076 701.232 236.254 724.44 236.175 730.729C236.169 731.214 236.167 731.346 236.175 730.729C236.175 730.729 236.563 733.137 235.499 730.729C231.847 722.839 236.376 698.297 236.376 698.297C231.889 703.065 230.065 724.649 229.661 730.729C229.595 731.743 229.512 732.731 229.512 732.731C229.401 732.731 229.28 731.27 229.188 730.729C225.625 709.841 236.182 686.706 236.182 686.706C225.709 693.254 222.998 732.729 222.998 732.729V750.736H351.054V730.729C351.073 694.088 343.855 688.477 343.855 688.477Z" fill="#042039"/>
<path d="M371.459 667.712C382.689 711.022 370.428 758.171 370.256 758.897C370.287 758.667 370.561 755.279 370.561 755.279C374.161 726.185 365.386 709.775 365.386 709.775C371.309 734.947 360.38 749.299 353.97 755.279C351.569 757.517 349.782 759.428 349.782 759.428C349.596 759.428 349.432 756.407 349.295 755.279C344.988 719.754 365.382 674.502 365.382 674.502C352.334 686.099 344.43 723.84 340.953 744.606C345.098 709.611 338.247 693.494 338.247 693.494C340.953 722.761 334.155 746.782 331.302 755.279C330.586 757.42 330.108 759.428 330.108 759.428C329.776 759.428 329.48 756.496 329.197 755.279C324.296 734.124 326.715 681.959 326.715 681.959C321.85 694.127 318.922 719.13 317.357 737.278C317.366 706.511 307.719 688.063 307.719 688.063C317.896 727.41 304.326 753.187 304.326 753.187C307.037 717.914 297.542 709.095 297.542 709.095C304.556 723.694 288.722 752.515 288.722 752.515C282.619 714.526 297.542 660.928 297.542 660.928C288.505 673.662 283.202 705.534 280.424 728.706C280.128 699.271 267.837 688.063 267.837 688.063C280.19 717.914 267.695 754.545 267.695 754.545C269.053 719.271 260.229 702.305 260.229 702.305C261.338 717.879 248.786 745.73 244.222 755.275C243.218 757.367 242.589 759.424 242.589 759.424C242.329 759.424 242.108 756.447 241.904 755.275C237.344 729.073 246.659 673.136 246.659 673.136C235.982 681.442 229.453 740.516 227.98 755.28C227.768 757.407 227.662 759.429 227.662 759.429C227.6 759.429 227.529 756.403 227.463 755.28C226.057 732.347 226.212 706.901 226.212 706.901C221.722 711.828 218.184 759.424 218.162 759.424L218.281 755.275C221.2 696.011 210.7 676.532 210.7 676.532C215.839 705.649 206.56 743.895 203.499 755.275C202.924 757.42 202.562 759.424 202.562 759.424C201.889 759.424 201.314 756.509 200.81 755.275C193.685 737.805 202.562 697.559 202.562 697.559C194.37 708.086 191.57 726.671 190.659 740.582C191.411 669.296 185.6 646 185.6 646C189.779 671.707 180.801 739.503 178.607 755.275C178.479 756.204 178.492 756.107 178.607 755.275H178.43C180.053 731.276 172.03 688.063 172.03 688.063C172.03 706.901 167.704 743.992 166.338 755.275C166.081 757.398 165.926 759.424 165.926 759.424C165.232 758.04 164.896 756.417 164.436 755.275C154.099 724.566 165.926 673.136 165.926 673.136C150.172 694.144 148.469 742.24 148.306 755.275C148.292 756.279 148.288 756.553 148.306 755.275C148.306 755.275 149.111 760.264 146.904 755.275C139.336 738.923 148.722 688.063 148.722 688.063C139.424 697.944 135.643 742.673 134.807 755.275C134.67 757.375 134.498 759.424 134.498 759.424C134.267 759.424 134.016 756.394 133.825 755.275C126.443 711.987 148.319 664.041 148.319 664.041C126.616 677.611 120.998 759.419 120.998 759.419V796.736H386.378V755.275C386.418 679.341 371.459 667.712 371.459 667.712Z" fill="#042039"/>
<path d="M589.855 694.672C598.996 729.924 589.016 768.299 588.876 768.89C588.901 768.703 589.124 765.945 589.124 765.945C592.055 742.265 584.912 728.909 584.912 728.909C589.733 749.396 580.837 761.078 575.621 765.945C573.666 767.767 572.211 769.322 572.211 769.322C572.06 769.322 571.927 766.864 571.815 765.945C568.309 737.03 584.908 700.199 584.908 700.199C574.288 709.638 567.855 740.356 565.026 757.258C568.399 728.775 562.822 715.657 562.822 715.657C565.026 739.478 559.492 759.03 557.17 765.945C556.587 767.688 556.198 769.322 556.198 769.322C555.928 769.322 555.687 766.936 555.456 765.945C551.468 748.727 553.437 706.268 553.437 706.268C549.477 716.172 547.094 736.522 545.82 751.294C545.827 726.252 537.975 711.236 537.975 711.236C546.259 743.262 535.214 764.243 535.214 764.243C537.421 735.533 529.692 728.354 529.692 728.354C535.401 740.238 522.513 763.696 522.513 763.696C517.545 732.775 529.692 689.15 529.692 689.15C522.337 699.515 518.02 725.456 515.76 744.317C515.518 720.359 505.514 711.236 505.514 711.236C515.569 735.533 505.398 765.348 505.398 765.348C506.504 736.638 499.322 722.828 499.322 722.828C500.225 735.504 490.008 758.173 486.293 765.942C485.476 767.645 484.965 769.319 484.965 769.319C484.752 769.319 484.572 766.896 484.407 765.942C480.695 744.616 488.277 699.087 488.277 699.087C479.586 705.847 474.273 753.929 473.074 765.946C472.901 767.678 472.815 769.323 472.815 769.323C472.764 769.323 472.707 766.86 472.653 765.946C471.508 747.28 471.634 726.569 471.634 726.569C467.98 730.579 465.1 769.319 465.082 769.319L465.179 765.942C467.555 717.706 459.009 701.851 459.009 701.851C463.192 725.55 455.639 756.679 453.148 765.942C452.68 767.688 452.385 769.319 452.385 769.319C451.837 769.319 451.37 766.946 450.959 765.942C445.16 751.722 452.385 718.966 452.385 718.966C445.718 727.534 443.439 742.661 442.697 753.983C443.309 695.961 438.579 677 438.579 677C441.981 697.924 434.673 753.104 432.887 765.942C432.783 766.698 432.794 766.619 432.887 765.942H432.744C434.065 746.408 427.534 711.236 427.534 711.236C427.534 726.569 424.014 756.758 422.901 765.942C422.692 767.67 422.567 769.319 422.567 769.319C422.001 768.192 421.728 766.871 421.353 765.942C412.94 740.947 422.567 699.087 422.567 699.087C409.744 716.186 408.358 755.332 408.224 765.942C408.214 766.759 408.21 766.982 408.224 765.942C408.224 765.942 408.88 770.003 407.083 765.942C400.924 752.632 408.563 711.236 408.563 711.236C400.996 719.278 397.918 755.685 397.238 765.942C397.126 767.652 396.986 769.319 396.986 769.319C396.798 769.319 396.593 766.853 396.438 765.942C390.43 730.709 408.235 691.684 408.235 691.684C390.57 702.729 385.998 769.315 385.998 769.315V799.688H601.998V765.942C602.03 704.137 589.855 694.672 589.855 694.672Z" fill="#042039"/>
<path d="M604.329 672.401C594.294 711.1 605.25 753.229 605.404 753.878C605.376 753.672 605.131 750.645 605.131 750.645C601.914 724.648 609.755 709.986 609.755 709.986C604.463 732.477 614.229 745.302 619.956 750.645C622.101 752.645 623.698 754.352 623.698 754.352C623.864 754.352 624.01 751.653 624.133 750.645C627.982 718.902 609.759 678.468 609.759 678.468C621.418 688.83 628.481 722.553 631.587 741.108C627.883 709.839 634.006 695.438 634.006 695.438C631.587 721.589 637.662 743.053 640.211 750.645C640.851 752.558 641.278 754.352 641.278 754.352C641.574 754.352 641.839 751.732 642.092 750.645C646.471 731.742 644.309 685.131 644.309 685.131C648.656 696.003 651.273 718.344 652.671 734.56C652.663 707.069 661.283 690.585 661.283 690.585C652.189 725.743 664.314 748.776 664.314 748.776C661.892 717.258 670.377 709.377 670.377 709.377C664.109 722.423 678.257 748.175 678.257 748.175C683.711 714.231 670.377 666.339 670.377 666.339C678.451 677.717 683.19 706.196 685.672 726.901C685.937 700.599 696.919 690.585 696.919 690.585C685.881 717.258 697.046 749.989 697.046 749.989C695.832 718.471 703.717 703.311 703.717 703.311C702.726 717.226 713.942 742.113 718.02 750.641C718.917 752.511 719.479 754.349 719.479 754.349C719.712 754.349 719.909 751.689 720.091 750.641C724.166 727.229 715.842 677.247 715.842 677.247C725.383 684.669 731.216 737.453 732.532 750.645C732.722 752.547 732.817 754.353 732.817 754.353C732.872 754.353 732.935 751.649 732.995 750.645C734.251 730.154 734.113 707.417 734.113 707.417C738.124 711.82 741.286 754.349 741.306 754.349L741.199 750.641C738.591 697.687 747.973 680.282 747.973 680.282C743.381 706.299 751.672 740.473 754.407 750.641C754.921 752.558 755.245 754.349 755.245 754.349C755.846 754.349 756.36 751.744 756.81 750.641C763.177 735.031 755.245 699.07 755.245 699.07C762.564 708.476 765.066 725.083 765.88 737.512C765.208 673.816 770.401 653 770.401 653C766.666 675.97 774.689 736.548 776.649 750.641C776.764 751.472 776.752 751.384 776.649 750.641H776.807C775.357 729.197 782.526 690.585 782.526 690.585C782.526 707.417 786.391 740.559 787.612 750.641C787.842 752.538 787.98 754.349 787.98 754.349C788.6 753.112 788.901 751.661 789.312 750.641C798.548 723.202 787.98 677.247 787.98 677.247C802.057 696.019 803.578 738.994 803.725 750.641C803.737 751.538 803.74 751.783 803.725 750.641C803.725 750.641 803.005 755.099 804.977 750.641C811.739 736.03 803.353 690.585 803.353 690.585C811.661 699.414 815.039 739.381 815.786 750.641C815.908 752.518 816.063 754.348 816.063 754.348C816.268 754.348 816.493 751.641 816.664 750.641C823.26 711.962 803.713 669.121 803.713 669.121C823.106 681.246 828.125 754.344 828.125 754.344V787.688H590.998V750.641C590.963 682.791 604.329 672.401 604.329 672.401Z" fill="#042039"/>
<path d="M748.329 672.401C738.294 711.1 749.25 753.229 749.404 753.878C749.376 753.672 749.131 750.645 749.131 750.645C745.914 724.648 753.755 709.986 753.755 709.986C748.463 732.477 758.229 745.302 763.956 750.645C766.101 752.645 767.698 754.352 767.698 754.352C767.864 754.352 768.01 751.653 768.133 750.645C771.982 718.902 753.759 678.468 753.759 678.468C765.418 688.83 772.481 722.553 775.587 741.108C771.883 709.839 778.006 695.438 778.006 695.438C775.587 721.589 781.662 743.053 784.211 750.645C784.851 752.558 785.278 754.352 785.278 754.352C785.574 754.352 785.839 751.732 786.092 750.645C790.471 731.742 788.309 685.131 788.309 685.131C792.656 696.003 795.273 718.344 796.671 734.56C796.663 707.069 805.283 690.585 805.283 690.585C796.189 725.743 808.314 748.776 808.314 748.776C805.892 717.258 814.377 709.377 814.377 709.377C808.109 722.423 822.257 748.175 822.257 748.175C827.711 714.231 814.377 666.339 814.377 666.339C822.451 677.717 827.19 706.196 829.672 726.901C829.937 700.599 840.919 690.585 840.919 690.585C829.881 717.258 841.046 749.989 841.046 749.989C839.832 718.471 847.717 703.311 847.717 703.311C846.726 717.226 857.942 742.113 862.02 750.641C862.917 752.511 863.479 754.349 863.479 754.349C863.712 754.349 863.909 751.689 864.091 750.641C868.166 727.229 859.842 677.247 859.842 677.247C869.383 684.669 875.216 737.453 876.532 750.645C876.722 752.547 876.817 754.353 876.817 754.353C876.872 754.353 876.935 751.649 876.995 750.645C878.251 730.154 878.113 707.417 878.113 707.417C882.124 711.82 885.286 754.349 885.306 754.349L885.199 750.641C882.591 697.687 891.973 680.282 891.973 680.282C887.381 706.299 895.672 740.473 898.407 750.641C898.921 752.558 899.245 754.349 899.245 754.349C899.846 754.349 900.36 751.744 900.81 750.641C907.177 735.031 899.245 699.07 899.245 699.07C906.564 708.476 909.066 725.083 909.88 737.512C909.208 673.816 914.401 653 914.401 653C910.666 675.97 918.689 736.548 920.649 750.641C920.764 751.472 920.752 751.384 920.649 750.641H920.807C919.357 729.197 926.526 690.585 926.526 690.585C926.526 707.417 930.391 740.559 931.612 750.641C931.842 752.538 931.98 754.349 931.98 754.349C932.6 753.112 932.901 751.661 933.312 750.641C942.548 723.202 931.98 677.247 931.98 677.247C946.057 696.019 947.578 738.994 947.725 750.641C947.737 751.538 947.74 751.783 947.725 750.641C947.725 750.641 947.005 755.099 948.977 750.641C955.739 736.03 947.353 690.585 947.353 690.585C955.661 699.414 959.039 739.381 959.786 750.641C959.908 752.518 960.063 754.348 960.063 754.348C960.268 754.348 960.493 751.641 960.664 750.641C967.26 711.962 947.713 669.121 947.713 669.121C967.106 681.246 972.125 754.344 972.125 754.344V787.688H734.998V750.641C734.963 682.791 748.329 672.401 748.329 672.401Z" fill="#042039"/>
<path d="M215.05 701.166C221.087 712.789 220.455 727.037 220.45 727.255C220.445 727.187 220.312 726.203 220.312 726.203C219.535 717.669 215.918 713.56 215.918 713.56C219.249 720.354 216.939 725.16 215.431 727.283C214.866 728.078 214.461 728.739 214.461 728.739C214.406 728.751 214.167 727.9 214.056 727.587C210.546 717.734 213.69 703.498 213.69 703.498C210.584 707.655 210.64 718.936 210.928 725.086C209.939 714.833 206.906 710.682 206.906 710.682C209.549 718.854 209.066 726.149 208.762 728.758C208.687 729.416 208.673 730.02 208.673 730.02C208.575 730.041 208.303 729.224 208.143 728.895C205.366 723.18 202.786 708.142 202.786 708.142C202.122 711.93 202.839 719.252 203.524 724.531C201.585 715.754 197.583 711.12 197.583 711.12C203.06 721.681 200.695 729.917 200.695 729.917C199.266 719.679 195.916 717.781 195.916 717.781C198.901 721.489 196.062 730.741 196.062 730.741C191.869 720.302 192.876 704.041 192.876 704.041C191.021 708.262 191.473 717.699 192.118 724.49C190.173 716.112 185.85 713.715 185.85 713.715C191.368 721.426 190.004 732.689 190.004 732.689C188.177 722.538 184.511 718.273 184.511 718.273C185.82 722.643 183.885 731.405 183.145 734.425C182.981 735.087 182.926 735.715 182.926 735.715C182.85 735.732 182.597 734.897 182.463 734.576C179.468 727.398 178.678 710.836 178.678 710.836C176.061 713.9 177.869 731.176 178.367 735.483C178.439 736.104 178.535 736.688 178.535 736.688C178.517 736.692 178.305 735.833 178.215 735.517C176.354 729.067 174.793 721.798 174.793 721.798C173.784 723.496 175.747 737.303 175.74 737.305L175.513 736.113C172.632 719.018 168.314 714.145 168.314 714.145C171.663 722.116 171.347 733.63 171.165 737.075C171.131 737.725 171.151 738.32 171.151 738.32C170.953 738.364 170.6 737.57 170.374 737.25C167.175 732.731 167.247 720.673 167.247 720.673C165.501 724.209 165.85 729.692 166.46 733.72C162.183 713.336 159.003 707.069 159.003 707.069C161.855 714.13 163.492 734.054 163.842 738.696C163.863 738.969 163.861 738.94 163.842 738.696L163.79 738.707C162.753 731.756 157.665 719.951 157.665 719.951C158.854 725.325 159.923 736.187 160.233 739.494C160.291 740.116 160.374 740.704 160.374 740.704C160.082 740.355 159.881 739.914 159.673 739.618C154.694 731.531 154.928 716.09 154.928 716.09C151.619 723.108 154.153 736.939 154.928 740.668C154.987 740.955 155.003 741.033 154.928 740.668C154.928 740.668 155.48 742.038 154.515 740.759C151.257 736.587 150.808 721.468 150.808 721.468C148.697 724.892 150.407 737.897 150.957 741.546C151.049 742.154 151.128 742.75 151.128 742.75C151.06 742.765 150.795 741.917 150.668 741.61C145.764 729.742 149.174 714.642 149.174 714.642C143.646 719.925 147.156 743.627 147.156 743.627L149.511 754.272L227.581 737L224.965 725.172C220.184 703.509 215.05 701.166 215.05 701.166Z" fill="#042039"/>
<path d="M73.2365 742.835C73.7787 754.454 81.1664 764.742 81.2756 764.902C81.2476 764.849 80.8851 764.051 80.8851 764.051C77.4272 757.32 78.4767 752.482 78.4767 752.482C78.9594 759.177 83.2062 761.615 85.4908 762.452C86.3466 762.764 87.0042 763.057 87.0042 763.057C87.0557 763.039 86.8459 762.288 86.7887 762.001C84.9827 752.943 75.4975 743.901 75.4975 743.901C80.0997 745.464 85.4829 753.883 88.2026 758.6C84.095 750.486 84.6352 745.905 84.6352 745.905C86.3568 753.285 90.2738 758.474 91.7837 760.266C92.1635 760.717 92.4659 761.16 92.4659 761.16C92.5579 761.128 92.3923 760.386 92.3682 760.063C91.9411 754.444 86.8615 741.986 86.8615 741.986C89.2404 744.478 92.166 750.278 94.134 754.542C91.5317 747.058 92.651 741.64 92.651 741.64C93.1503 752.193 99.0956 757.156 99.0956 757.156C95.3624 748.836 97.2533 745.775 97.2533 745.775C96.5397 750.003 103.371 755.488 103.371 755.488C101.855 745.657 93.1833 734.057 93.1833 734.057C96.7678 736.284 100.933 743.526 103.662 748.895C101.257 741.706 103.723 737.794 103.723 737.794C102.815 746.247 109.38 753.954 109.38 753.954C106.022 745.504 107.038 740.525 107.038 740.525C108.046 744.421 113.884 749.986 115.957 751.868C116.413 752.28 116.761 752.72 116.761 752.72C116.834 752.695 116.643 751.95 116.601 751.645C115.653 744.831 108.34 732.121 108.34 732.121C112.006 733.112 118.81 746.854 120.467 750.303C120.705 750.8 120.905 751.282 120.905 751.282C120.923 751.276 120.687 750.533 120.61 750.253C119.063 744.539 116.87 738.363 116.87 738.363C118.532 739.129 123.536 750.367 123.542 750.365L123.159 749.367C117.341 735.231 118.61 729.48 118.61 729.48C119.643 737.059 125.451 745.468 127.262 747.942C127.603 748.408 127.873 748.861 127.873 748.861C128.06 748.796 127.973 748.031 128.009 747.682C128.511 742.745 122.646 733.81 122.646 733.81C125.809 735.582 128.157 739.833 129.585 743.129C123.353 725.86 122.998 719.632 122.998 719.632C124.01 726.289 132.231 741.916 134.173 745.541C134.287 745.755 134.275 745.733 134.173 745.541L134.222 745.524C131.743 739.843 130.319 728.556 130.319 728.556C131.911 733.139 136.246 741.745 137.579 744.358C137.829 744.85 138.043 745.328 138.043 745.328C138.119 744.924 138.075 744.497 138.107 744.175C138.381 735.708 130.752 724.336 130.752 724.336C136.901 727.928 141.437 739.464 142.584 742.62C142.673 742.863 142.697 742.929 142.584 742.62C142.584 742.62 142.783 743.911 142.974 742.484C143.693 737.777 136.79 726.309 136.79 726.309C140.206 727.816 145.035 738.333 146.332 741.318C146.547 741.816 146.768 742.298 146.768 742.298C146.832 742.275 146.646 741.514 146.604 741.223C144.996 729.981 134.872 720.426 134.872 720.426C142.043 721.635 150.515 740.995 150.515 740.995L153.669 750.073L79.9973 775.662L76.4939 765.575C70.0665 747.106 73.2365 742.835 73.2365 742.835Z" fill="#042039"/>
<path d="M352.905 697.596C348.459 714.741 353.313 733.406 353.381 733.693C353.369 733.602 353.26 732.261 353.26 732.261C351.835 720.743 355.309 714.247 355.309 714.247C352.964 724.212 357.291 729.893 359.828 732.261C360.779 733.147 361.486 733.903 361.486 733.903C361.559 733.903 361.624 732.707 361.679 732.261C363.384 718.197 355.31 700.283 355.31 700.283C360.476 704.874 363.605 719.815 364.981 728.036C363.34 714.182 366.052 707.802 366.052 707.802C364.981 719.388 367.672 728.897 368.802 732.261C369.085 733.108 369.274 733.903 369.274 733.903C369.406 733.903 369.523 732.742 369.635 732.261C371.575 723.886 370.617 703.235 370.617 703.235C372.543 708.052 373.703 717.95 374.322 725.134C374.319 712.955 378.138 705.652 378.138 705.652C374.109 721.228 379.48 731.433 379.48 731.433C378.407 717.469 382.166 713.978 382.166 713.978C379.389 719.757 385.658 731.166 385.658 731.166C388.074 716.128 382.166 694.91 382.166 694.91C385.744 699.951 387.843 712.568 388.943 721.741C389.06 710.089 393.926 705.652 393.926 705.652C389.035 717.469 393.982 731.97 393.982 731.97C393.444 718.006 396.937 711.29 396.937 711.29C396.498 717.455 401.467 728.481 403.274 732.259C403.672 733.087 403.92 733.901 403.92 733.901C404.024 733.901 404.111 732.723 404.192 732.259C405.997 721.887 402.309 699.742 402.309 699.742C406.536 703.031 409.12 726.416 409.704 732.261C409.788 733.103 409.83 733.903 409.83 733.903C409.854 733.903 409.882 732.706 409.908 732.261C410.465 723.182 410.404 713.109 410.404 713.109C412.181 715.06 413.582 733.901 413.591 733.901L413.543 732.259C412.388 708.798 416.544 701.087 416.544 701.087C414.51 712.614 418.183 727.754 419.395 732.259C419.623 733.108 419.766 733.901 419.766 733.901C420.032 733.901 420.26 732.748 420.46 732.259C423.28 725.343 419.766 709.411 419.766 709.411C423.009 713.578 424.117 720.936 424.478 726.442C424.18 698.223 426.481 689 426.481 689C424.826 699.177 428.381 726.015 429.249 732.259C429.3 732.627 429.295 732.588 429.249 732.259H429.319C428.676 722.758 431.853 705.652 431.853 705.652C431.853 713.109 433.565 727.792 434.106 732.259C434.208 733.099 434.269 733.901 434.269 733.901C434.544 733.353 434.677 732.711 434.859 732.259C438.951 720.102 434.269 699.742 434.269 699.742C440.505 708.059 441.18 727.099 441.244 732.259C441.25 732.656 441.251 732.765 441.244 732.259C441.244 732.259 440.926 734.234 441.799 732.259C444.795 725.786 441.08 705.652 441.08 705.652C444.76 709.563 446.257 727.27 446.588 732.259C446.642 733.091 446.711 733.901 446.711 733.901C446.802 733.901 446.901 732.702 446.977 732.259C449.899 715.123 441.239 696.142 441.239 696.142C449.831 701.514 452.055 733.899 452.055 733.899V748.672H346.999V732.259C346.983 702.199 352.905 697.596 352.905 697.596Z" fill="#042039"/>
<path d="M542.835 707.036C539.196 721.072 543.169 736.351 543.225 736.586C543.215 736.511 543.126 735.414 543.126 735.414C541.96 725.985 544.803 720.667 544.803 720.667C542.884 728.824 546.426 733.476 548.503 735.414C549.281 736.139 549.86 736.758 549.86 736.758C549.92 736.758 549.973 735.779 550.018 735.414C551.414 723.901 544.805 709.237 544.805 709.237C549.033 712.995 551.594 725.225 552.721 731.955C551.378 720.614 553.598 715.391 553.598 715.391C552.721 724.876 554.924 732.66 555.849 735.414C556.081 736.107 556.236 736.758 556.236 736.758C556.343 736.758 556.439 735.808 556.531 735.414C558.119 728.558 557.335 711.653 557.335 711.653C558.912 715.596 559.861 723.699 560.368 729.58C560.365 719.61 563.491 713.631 563.491 713.631C560.193 726.382 564.59 734.736 564.59 734.736C563.712 723.305 566.789 720.447 566.789 720.447C564.516 725.178 569.647 734.518 569.647 734.518C571.625 722.207 566.789 704.838 566.789 704.838C569.717 708.964 571.436 719.293 572.336 726.802C572.432 717.263 576.415 713.631 576.415 713.631C572.412 723.305 576.461 735.176 576.461 735.176C576.021 723.745 578.881 718.247 578.881 718.247C578.521 723.293 582.589 732.319 584.068 735.412C584.393 736.09 584.597 736.757 584.597 736.757C584.681 736.757 584.753 735.792 584.819 735.412C586.297 726.921 583.278 708.794 583.278 708.794C586.738 711.486 588.854 730.629 589.331 735.414C589.4 736.103 589.434 736.758 589.434 736.758C589.454 736.758 589.477 735.778 589.499 735.414C589.955 727.982 589.904 719.736 589.904 719.736C591.359 721.333 592.506 736.757 592.513 736.757L592.474 735.412C591.528 716.207 594.931 709.895 594.931 709.895C593.266 719.33 596.273 731.724 597.265 735.412C597.451 736.107 597.568 736.757 597.568 736.757C597.786 736.757 597.973 735.812 598.136 735.412C600.445 729.751 597.568 716.709 597.568 716.709C600.223 720.12 601.13 726.143 601.426 730.651C601.182 707.55 603.065 700 603.065 700C601.711 708.331 604.62 730.301 605.331 735.412C605.373 735.713 605.369 735.682 605.331 735.412H605.388C604.862 727.635 607.462 713.631 607.462 713.631C607.462 719.736 608.864 731.756 609.307 735.412C609.39 736.1 609.44 736.757 609.44 736.757C609.665 736.308 609.774 735.782 609.924 735.412C613.273 725.461 609.44 708.794 609.44 708.794C614.546 715.602 615.098 731.188 615.151 735.412C615.155 735.737 615.156 735.826 615.151 735.412C615.151 735.412 614.89 737.029 615.605 735.412C618.057 730.113 615.016 713.631 615.016 713.631C618.029 716.833 619.254 731.328 619.525 735.412C619.569 736.093 619.625 736.757 619.625 736.757C619.7 736.757 619.781 735.775 619.843 735.412C622.235 721.384 615.146 705.847 615.146 705.847C622.18 710.244 624 736.755 624 736.755V748.848H538.001V735.412C537.988 710.805 542.835 707.036 542.835 707.036Z" fill="#042039"/>
<path d="M628.835 707.036C625.196 721.072 629.169 736.351 629.225 736.586C629.215 736.511 629.126 735.414 629.126 735.414C627.96 725.985 630.803 720.667 630.803 720.667C628.884 728.824 632.426 733.476 634.503 735.414C635.281 736.139 635.86 736.758 635.86 736.758C635.92 736.758 635.973 735.779 636.018 735.414C637.414 723.901 630.805 709.237 630.805 709.237C635.033 712.995 637.594 725.225 638.721 731.955C637.378 720.614 639.598 715.391 639.598 715.391C638.721 724.876 640.924 732.66 641.849 735.414C642.081 736.107 642.236 736.758 642.236 736.758C642.343 736.758 642.439 735.808 642.531 735.414C644.119 728.558 643.335 711.653 643.335 711.653C644.912 715.596 645.861 723.699 646.368 729.58C646.365 719.61 649.491 713.631 649.491 713.631C646.193 726.382 650.59 734.736 650.59 734.736C649.712 723.305 652.789 720.447 652.789 720.447C650.516 725.178 655.647 734.518 655.647 734.518C657.625 722.207 652.789 704.838 652.789 704.838C655.717 708.964 657.436 719.293 658.336 726.802C658.432 717.263 662.415 713.631 662.415 713.631C658.412 723.305 662.461 735.176 662.461 735.176C662.021 723.745 664.881 718.247 664.881 718.247C664.521 723.293 668.589 732.319 670.068 735.412C670.393 736.09 670.597 736.757 670.597 736.757C670.681 736.757 670.753 735.792 670.819 735.412C672.297 726.921 669.278 708.794 669.278 708.794C672.738 711.486 674.854 730.629 675.331 735.414C675.4 736.103 675.434 736.758 675.434 736.758C675.454 736.758 675.477 735.778 675.499 735.414C675.955 727.982 675.904 719.736 675.904 719.736C677.359 721.333 678.506 736.757 678.513 736.757L678.474 735.412C677.528 716.207 680.931 709.895 680.931 709.895C679.266 719.33 682.273 731.724 683.265 735.412C683.451 736.107 683.568 736.757 683.568 736.757C683.786 736.757 683.973 735.812 684.136 735.412C686.445 729.751 683.568 716.709 683.568 716.709C686.223 720.12 687.13 726.143 687.426 730.651C687.182 707.55 689.065 700 689.065 700C687.711 708.331 690.62 730.301 691.331 735.412C691.373 735.713 691.369 735.682 691.331 735.412H691.388C690.862 727.635 693.462 713.631 693.462 713.631C693.462 719.736 694.864 731.756 695.307 735.412C695.39 736.1 695.44 736.757 695.44 736.757C695.665 736.308 695.774 735.782 695.924 735.412C699.273 725.461 695.44 708.794 695.44 708.794C700.546 715.602 701.098 731.188 701.151 735.412C701.155 735.737 701.156 735.826 701.151 735.412C701.151 735.412 700.89 737.029 701.605 735.412C704.057 730.113 701.016 713.631 701.016 713.631C704.029 716.833 705.254 731.328 705.525 735.412C705.569 736.093 705.625 736.757 705.625 736.757C705.7 736.757 705.781 735.775 705.843 735.412C708.235 721.384 701.146 705.847 701.146 705.847C708.18 710.244 710 736.755 710 736.755V748.848H624.001V735.412C623.988 710.805 628.835 707.036 628.835 707.036Z" fill="#042039"/>
<path d="M710.373 714.909C707.834 724.701 710.606 735.361 710.645 735.525C710.638 735.473 710.576 734.707 710.576 734.707C709.762 728.129 711.746 724.419 711.746 724.419C710.407 730.11 712.878 733.355 714.327 734.707C714.87 735.213 715.274 735.645 715.274 735.645C715.316 735.645 715.353 734.962 715.384 734.707C716.358 726.675 711.747 716.444 711.747 716.444C714.697 719.066 716.484 727.599 717.27 732.294C716.333 724.382 717.882 720.738 717.882 720.738C717.27 727.355 718.807 732.786 719.452 734.707C719.614 735.191 719.722 735.645 719.722 735.645C719.797 735.645 719.864 734.982 719.928 734.707C721.036 729.924 720.489 718.13 720.489 718.13C721.589 720.881 722.251 726.534 722.605 730.637C722.603 723.681 724.784 719.51 724.784 719.51C722.483 728.406 725.551 734.234 725.551 734.234C724.938 726.259 727.085 724.265 727.085 724.265C725.499 727.566 729.079 734.082 729.079 734.082C730.459 725.494 727.085 713.375 727.085 713.375C729.128 716.254 730.327 723.46 730.955 728.699C731.022 722.044 733.801 719.51 733.801 719.51C731.008 726.259 733.833 734.541 733.833 734.541C733.526 726.566 735.521 722.73 735.521 722.73C735.27 726.251 738.108 732.548 739.14 734.706C739.367 735.179 739.509 735.645 739.509 735.645C739.568 735.645 739.618 734.971 739.664 734.706C740.695 728.782 738.589 716.135 738.589 716.135C741.003 718.013 742.479 731.369 742.812 734.708C742.86 735.189 742.884 735.646 742.884 735.646C742.898 735.646 742.914 734.962 742.929 734.708C743.247 729.523 743.212 723.769 743.212 723.769C744.227 724.884 745.027 735.645 745.032 735.645L745.005 734.706C744.345 721.307 746.719 716.903 746.719 716.903C745.557 723.486 747.655 732.134 748.347 734.706C748.477 735.191 748.559 735.645 748.559 735.645C748.711 735.645 748.841 734.985 748.955 734.706C750.566 730.757 748.559 721.657 748.559 721.657C750.411 724.038 751.044 728.239 751.25 731.384C751.08 715.267 752.394 710 752.394 710C751.449 715.812 753.479 731.14 753.975 734.706C754.004 734.917 754.001 734.894 753.975 734.706H754.015C753.648 729.28 755.462 719.51 755.462 719.51C755.462 723.769 756.44 732.155 756.749 734.706C756.807 735.186 756.842 735.645 756.842 735.645C756.999 735.332 757.075 734.965 757.179 734.706C759.516 727.763 756.842 716.135 756.842 716.135C760.404 720.885 760.789 731.759 760.826 734.706C760.829 734.933 760.83 734.995 760.826 734.706C760.826 734.706 760.644 735.834 761.143 734.706C762.854 731.009 760.732 719.51 760.732 719.51C762.834 721.744 763.689 731.857 763.878 734.706C763.909 735.181 763.948 735.644 763.948 735.644C764 735.644 764.057 734.959 764.1 734.706C765.769 724.919 760.823 714.079 760.823 714.079C765.73 717.147 767 735.643 767 735.643V744.08H707V734.706C706.991 717.538 710.373 714.909 710.373 714.909Z" fill="#042039"/>
<path d="M769.879 709.646C766.959 720.906 770.147 733.165 770.192 733.354C770.184 733.294 770.112 732.413 770.112 732.413C769.176 724.849 771.458 720.582 771.458 720.582C769.918 727.127 772.76 730.859 774.426 732.413C775.051 732.995 775.515 733.492 775.515 733.492C775.563 733.492 775.606 732.707 775.642 732.413C776.762 723.177 771.459 711.411 771.459 711.411C774.852 714.426 776.907 724.239 777.811 729.638C776.733 720.54 778.514 716.349 778.514 716.349C777.811 723.959 779.578 730.204 780.32 732.413C780.506 732.97 780.631 733.492 780.631 733.492C780.717 733.492 780.794 732.73 780.867 732.413C782.142 726.913 781.513 713.35 781.513 713.35C782.778 716.514 783.539 723.014 783.946 727.733C783.944 719.734 786.452 714.937 786.452 714.937C783.806 725.167 787.334 731.87 787.334 731.87C786.629 722.698 789.098 720.405 789.098 720.405C787.274 724.201 791.391 731.695 791.391 731.695C792.978 721.817 789.098 707.882 789.098 707.882C791.447 711.192 792.826 719.479 793.548 725.504C793.626 717.851 796.821 714.937 796.821 714.937C793.609 722.698 796.858 732.223 796.858 732.223C796.505 723.051 798.799 718.64 798.799 718.64C798.511 722.689 801.775 729.931 802.961 732.412C803.222 732.956 803.386 733.491 803.386 733.491C803.454 733.491 803.511 732.717 803.564 732.412C804.75 725.6 802.328 711.056 802.328 711.056C805.104 713.215 806.801 728.575 807.184 732.414C807.239 732.967 807.267 733.492 807.267 733.492C807.283 733.492 807.301 732.706 807.319 732.414C807.684 726.451 807.644 719.835 807.644 719.835C808.811 721.116 809.731 733.491 809.737 733.491L809.706 732.412C808.947 717.004 811.677 711.939 811.677 711.939C810.341 719.509 812.754 729.453 813.549 732.412C813.699 732.97 813.793 733.491 813.793 733.491C813.968 733.491 814.117 732.733 814.249 732.412C816.101 727.87 813.793 717.406 813.793 717.406C815.923 720.143 816.651 724.975 816.888 728.592C816.692 710.057 818.203 704 818.203 704C817.117 710.684 819.451 728.311 820.021 732.412C820.055 732.654 820.051 732.629 820.021 732.412H820.067C819.645 726.172 821.731 714.937 821.731 714.937C821.731 719.835 822.856 729.479 823.211 732.412C823.278 732.964 823.318 733.491 823.318 733.491C823.499 733.131 823.586 732.709 823.706 732.412C826.394 724.428 823.318 711.056 823.318 711.056C827.415 716.518 827.857 729.023 827.9 732.412C827.903 732.673 827.904 732.745 827.9 732.412C827.9 732.412 827.691 733.71 828.264 732.412C830.232 728.161 827.792 714.937 827.792 714.937C830.209 717.506 831.192 729.136 831.41 732.412C831.445 732.958 831.49 733.491 831.49 733.491C831.55 733.491 831.615 732.703 831.665 732.412C833.584 721.157 827.896 708.691 827.896 708.691C833.539 712.219 835 733.49 835 733.49V743.192H766V732.412C765.99 712.669 769.879 709.646 769.879 709.646Z" fill="#042039"/>
<path d="M115.038 327.209V310.689H82.0809V327.275L115.038 327.209Z" fill="#FAEFD9"/>
<path d="M115.038 310.689V312.965H89.1252C86.3888 312.965 84.1704 315.181 84.1704 317.914V327.271L82.0809 327.275V310.689H115.038Z" fill="#FAEFD9"/>
<path d="M95.473 327.248V327.247V318.271C95.473 317.429 95.8187 316.667 96.3772 316.115C96.9356 315.563 97.7068 315.222 98.5597 315.222C100.265 315.222 101.646 316.588 101.646 318.271V327.235" fill="#EAF3FA"/>
<path d="M91.8638 327.255V318.266C91.8638 316.585 90.4819 315.222 88.777 315.222C87.9241 315.222 87.1529 315.562 86.5944 316.113C86.0359 316.664 85.6902 317.425 85.6902 318.266V327.267" fill="#EAF3FA"/>
<path d="M111.523 327.216V318.28C111.523 316.591 110.142 315.223 108.437 315.223C107.584 315.223 106.813 315.565 106.254 316.118C105.696 316.671 105.35 317.436 105.35 318.28V327.228" fill="#EAF3FA"/>
<path d="M101.646 325.343V327.236L95.4726 327.249V327.248V318.272C95.4726 317.43 95.8183 316.668 96.3768 316.116C96.8003 315.697 97.3465 315.4 97.9577 315.281C97.8253 315.62 97.7521 315.989 97.7521 316.375V321.463C97.752 323.609 99.4968 325.348 101.646 325.343Z" fill="#C6DEF3"/>
<path d="M86.594 316.114C87.0173 315.696 87.5629 315.4 88.1734 315.281C88.042 315.619 87.9693 315.985 87.9693 316.369V321.482C87.9693 323.628 89.7139 325.367 91.8633 325.363V327.255L85.6898 327.268V318.266C85.6898 317.426 86.0355 316.665 86.594 316.114Z" fill="#C6DEF3"/>
<path d="M106.254 316.118C106.678 315.698 107.225 315.4 107.837 315.281C107.703 315.623 107.629 315.994 107.629 316.383V321.442C107.629 323.589 109.374 325.328 111.523 325.323V327.216L105.35 327.228V318.28C105.35 317.436 105.696 316.671 106.254 316.118Z" fill="#C6DEF3"/>
<path d="M79.6489 297.979C79.1185 297.979 78.9863 297.242 79.4846 297.06C81.1425 296.455 83.0315 295.575 84.9382 294.281C87.0373 292.856 88.5542 291.341 89.6043 290.106H108.274C109.324 291.341 110.841 292.856 112.94 294.281C114.847 295.575 116.736 296.455 118.394 297.06C118.892 297.242 118.76 297.979 118.229 297.979H79.6489Z" fill="#C6DEF3"/>
<path d="M79.4845 297.06C81.1425 296.455 83.0315 295.575 84.9382 294.281C87.0373 292.856 88.5542 291.341 89.6042 290.106H94.2615C93.4195 290.912 92.409 291.758 91.2066 292.574C91.174 292.596 91.1414 292.618 91.1089 292.64C89.4791 293.734 90.2487 296.271 92.2125 296.271H116.476C117.14 296.576 117.782 296.837 118.394 297.06C118.892 297.242 118.759 297.979 118.229 297.979H79.6488C79.1185 297.979 78.9862 297.242 79.4845 297.06Z" fill="#90C0EA"/>
<path d="M80.3201 310.689C79.7752 310.689 79.6597 309.924 80.18 309.762C81.6614 309.301 83.2931 308.668 84.938 307.794C87.0371 306.678 88.5539 305.491 89.604 304.524H108.274C109.324 305.491 110.841 306.678 112.94 307.794C114.585 308.668 116.216 309.301 117.698 309.762C118.218 309.924 118.102 310.689 117.558 310.689H80.3201Z" fill="#C6DEF3"/>
<path d="M80.18 309.762C81.6614 309.301 83.2931 308.668 84.9379 307.793C87.0371 306.678 88.5539 305.491 89.604 304.524H94.9863C94.254 305.041 93.4103 305.571 92.441 306.086C92.4085 306.103 92.3759 306.121 92.3433 306.138C90.9464 306.872 91.4652 308.982 93.0438 308.982H115.503C116.26 309.286 116.997 309.544 117.7 309.763C118.219 309.925 118.101 310.689 117.558 310.689H80.3202C79.7752 310.689 79.6598 309.924 80.18 309.762Z" fill="#90C0EA"/>
<path d="M107.819 284.889H90.0582C89.7961 284.889 89.5836 285.102 89.5836 285.364V290.106H108.294V285.364C108.294 285.102 108.082 284.889 107.819 284.889Z" fill="#FAEFD9"/>
<path d="M90.0586 284.889H91.6732C91.6732 286.618 93.0764 288.019 94.8074 288.019H108.294V290.106H89.5836V285.363C89.5837 285.101 89.7963 284.889 90.0586 284.889Z" fill="#FAEFD9"/>
<path d="M108.294 297.979H102.121V304.523H108.294V297.979Z" fill="#FAEFD9"/>
<path d="M95.7573 297.975H89.5839V304.52H95.7573V297.975Z" fill="#FAEFD9"/>
<path d="M108.294 297.979V300.065C106.038 300.065 104.21 301.891 104.21 304.144V304.523H102.121V297.979H108.294Z" fill="#FAEFD9"/>
<path d="M95.7573 297.975V300.062C93.5018 300.062 91.6734 301.888 91.6734 304.141V304.52H89.5839V297.975H95.7573Z" fill="#FAEFD9"/>
<path d="M97.2593 282.535L98.9394 281L100.62 282.535C101.091 282.966 101.361 283.586 101.361 284.239V284.889H96.5176V284.239C96.5176 283.586 96.7877 282.966 97.2593 282.535Z" fill="#C6DEF3"/>
<path d="M97.2591 282.535L98.9393 281C99.0002 281.274 98.9536 281.561 98.809 281.802C98.7694 281.868 98.7208 281.928 98.6624 281.978C98.2155 282.359 97.7521 282.583 97.7521 283.195C97.7521 283.554 98.0438 283.846 98.4035 283.846H101.328C101.35 283.974 101.361 284.106 101.361 284.239V284.889H96.5176V284.239C96.5174 283.586 96.7875 282.966 97.2591 282.535Z" fill="#90C0EA"/>
</g>
</svg>
