<svg width="1366" height="602" viewBox="0 0 1366 602" fill="none" xmlns="http://www.w3.org/2000/svg">
<path d="M1048.5 488.5C1065.3 491.7 1246.83 619.167 1335.5 682.5H-209C-124.167 540.667 32.5935 252.508 40 243.5C58.5 221 59 230 91 215C123 200 201.5 27 213 27C224.5 27 372.5 241.5 385.5 243.5C398.5 245.5 446.5 329 461.5 329C476.5 329 478.5 308 516.5 308C554.5 308 765.5 612 801.5 608C837.5 604 1027.5 484.5 1048.5 488.5Z" fill="#EAF3FA"/>
<path d="M-728.221 804.852C-756.774 808.054 -1065.3 935.618 -1216 999H1409C1264.82 857.059 998.393 568.68 985.805 559.665C954.363 537.148 953.513 546.155 899.126 531.143C844.74 516.132 711.323 343 691.778 343C672.232 343 420.695 557.664 398.6 559.665C376.506 561.667 294.926 645.23 269.432 645.23C243.938 645.23 240.539 624.214 175.955 624.214C111.371 624.214 -247.24 928.446 -308.425 924.443C-369.61 920.44 -692.53 800.849 -728.221 804.852Z" fill="#C6DEF3"/>
<path d="M-125 261.991C-125 242.509 -76.2436 238.379 -56.975 238.379C-17.8958 238.379 -15.3089 216.198 17.1391 216.198C45.6711 216.198 60.1748 239.1 86.7405 239.1C143.743 239.102 156.437 174 211.889 174C268.311 174 265.429 241.96 317.933 241.96C344.627 241.96 505 246.956 505 262L-125 261.991Z" fill="white"/>
<path d="M-1 498.987C-1 473.086 63.8537 467.594 89.484 467.594C141.466 467.594 144.907 438.104 188.068 438.104C226.02 438.104 245.312 468.553 280.648 468.553C356.47 468.556 373.356 382 447.116 382C522.166 382 518.333 472.356 588.171 472.356C623.678 472.356 837 478.998 837 499L-1 498.987Z" fill="white"/>
<path d="M-32 152.583C-32 144.07 -2.98542 130.73 12.88 130.73C44.18 130.73 34.4083 141.657 54.0969 141.657C76.5329 141.656 81.6586 93 115.797 93C153.111 93 147.254 140.591 170.157 140.591C180.02 140.591 184.96 135.967 198.972 135.967C207.105 135.967 216 144.09 216 152.617L-32 152.583Z" fill="white"/>
<path d="M-99 616.125C-99 595.676 -20.7309 563.631 22.0675 563.631C106.502 563.631 80.1419 589.88 133.253 589.88C193.776 589.876 207.603 473 299.695 473C400.352 473 384.552 587.319 446.334 587.319C472.941 587.319 486.266 576.211 524.066 576.211C546.005 576.211 570 595.723 570 616.207L-99 616.125Z" fill="white"/>
<path d="M749 554.125C749 533.676 827.269 501.631 870.067 501.631C954.502 501.631 928.142 527.88 981.253 527.88C1041.78 527.876 1055.6 411 1147.7 411C1248.35 411 1232.55 525.319 1294.33 525.319C1320.94 525.319 1334.27 514.211 1372.07 514.211C1394 514.211 1418 533.723 1418 554.207L749 554.125Z" fill="white"/>
<path d="M1205.3 438.009C1204.84 440.215 1196.6 506.562 1196.6 506.562L1232.8 554.649C1232.8 554.649 1229.14 560.51 1227.95 560.596C1226.76 560.682 1171.87 518.098 1171.87 518.098L1195.37 444.466L1205.3 438.009Z" fill="#074E4D"/>
<path d="M1160.88 566.467C1160.73 567.212 1160.06 571.64 1159.24 572.229C1157.82 573.323 1148.68 570.805 1148.33 570.282C1147.99 569.759 1147.92 568.796 1148.36 568.636C1148.8 568.475 1152.64 568.467 1153.21 568.224C1153.78 567.981 1154.85 566.286 1154.79 565.24" fill="#074E4D"/>
<path d="M1174.33 428.783C1169.74 421.376 1170.65 385.432 1171.68 368.386C1182.41 367.651 1205.28 367.328 1210.92 371.913C1216.56 376.497 1216.5 394.69 1215.77 403.213C1215.18 413.794 1213.03 435.219 1209.15 436.277C1205.28 437.335 1195.78 434.955 1191.52 433.632C1187.7 435.102 1178.91 436.189 1174.33 428.783Z" fill="#5A9FDB"/>
<rect x="1168.49" y="355.641" width="50.1122" height="14.1073" rx="7.05367" transform="rotate(7.0405 1168.49 355.641)" fill="#19588F"/>
<path d="M1231.72 554.979C1232.34 555.391 1236.13 557.807 1236.38 558.766C1236.82 560.503 1230.87 567.886 1230.26 567.993C1229.65 568.1 1228.73 567.791 1228.74 567.31C1228.75 566.828 1230.28 563.318 1230.28 562.696C1230.29 562.075 1229.16 560.42 1228.17 560.062" fill="#074E4D"/>
<path d="M1174.47 369.222C1175.34 366.992 1206.43 370.77 1208.59 373.14C1210.76 375.511 1205.92 436.652 1205.31 438.01C1202.32 438.628 1174.89 438.113 1173.66 435.743C1172.42 433.372 1166.21 390.36 1174.47 369.222Z" fill="#39BCBA"/>
<path d="M1208.47 373.172C1209.73 374.291 1225.94 399.277 1226.99 407.142C1228.05 415.007 1227.34 440.067 1227.34 440.067C1225.07 441.425 1222.47 442.137 1219.82 442.125C1218.18 437.458 1210.83 413.34 1210.83 413.34L1199.59 390.606" fill="#39BCBA"/>
<path d="M1174.6 369.177C1173.87 369.56 1157.61 402.386 1155.9 406.464C1152.35 410.02 1135.24 428.31 1135.24 428.31L1136.57 435.286L1165.66 416.469L1173.16 407.254" fill="#39BCBA"/>
<path d="M1170.55 410.435C1170.01 400.36 1170.1 388.894 1171.78 379.23" stroke="#074E4D" stroke-linecap="round" stroke-linejoin="round"/>
<path d="M1207.89 407.46L1199.57 390.631" stroke="#074E4D" stroke-linecap="round" stroke-linejoin="round"/>
<path d="M1183.56 369.247C1183.52 370.445 1190.1 370.733 1190.14 369.445L1190.38 361.436L1183.79 361.238L1183.56 369.247Z" fill="#E5D6C6"/>
<path d="M1190.24 366.221C1190.26 365.505 1188.71 363.003 1187.44 363.378C1189 362.88 1189.83 361.036 1190.38 361.435L1190.24 366.221Z" fill="#074E4D"/>
<path d="M1184.34 363.956C1189.07 363.956 1192.91 360.122 1192.91 355.392C1192.91 350.662 1189.07 346.827 1184.34 346.827C1179.61 346.827 1175.78 350.662 1175.78 355.392C1175.78 360.122 1179.61 363.956 1184.34 363.956Z" fill="#E5D6C6"/>
<path d="M1177.08 356.321C1177.09 355.91 1176.46 355.557 1175.68 355.533C1174.89 355.51 1174.24 355.824 1174.23 356.236C1174.21 356.647 1174.84 357 1175.63 357.023C1176.42 357.047 1177.07 356.733 1177.08 356.321Z" fill="#CFB293"/>
<path d="M1186.06 356.598C1186.07 356.186 1185.45 355.833 1184.66 355.81C1183.87 355.786 1183.22 356.101 1183.21 356.512C1183.19 356.923 1183.82 357.276 1184.61 357.3C1185.4 357.323 1186.05 357.009 1186.06 356.598Z" fill="#CFB293"/>
<path d="M1179.18 354.842C1178.91 355.216 1177.49 356.772 1178.92 357.463" stroke="#074E4D" stroke-width="0.69" stroke-miterlimit="10" stroke-linecap="round"/>
<path d="M1181.74 359.402C1182.15 359.402 1182.84 358.904 1183.21 358.435" stroke="#074E4D" stroke-width="0.69" stroke-miterlimit="10" stroke-linecap="round"/>
<path fill-rule="evenodd" clip-rule="evenodd" d="M1183.31 344.007C1184.48 343.782 1187.64 343.628 1188.22 343.628C1188.6 343.628 1189 343.727 1189.22 343.329C1189.4 343.002 1189.33 342.45 1189.39 342.071C1189.45 341.631 1189.54 341.196 1189.63 340.763C1189.88 339.53 1190.27 338.356 1190.81 337.255C1191.83 335.188 1193.32 333.569 1195.19 332.627C1197.27 331.587 1199.62 331.349 1201.85 331.56C1204.23 331.785 1206.4 332.705 1208.65 333.57C1210.8 334.394 1213.05 334.719 1215.29 334.316C1217.56 333.911 1219.27 332.479 1221.18 331.121C1223.13 329.73 1225.37 328.821 1227.68 329.03C1229.83 329.225 1231.82 330.264 1233.6 331.652C1235.27 332.951 1236.65 334.513 1237.43 336.712C1238.26 339.077 1238.26 341.673 1236.89 343.764C1234.89 346.794 1231.19 347.577 1228.12 347.499C1226.33 347.454 1224.59 347.075 1222.9 346.385C1220.66 345.465 1218.73 343.906 1216.63 342.641C1215.64 342.047 1214.63 341.56 1213.56 341.208C1212.52 340.867 1211.5 340.711 1210.57 341.44C1209.58 342.212 1208.69 342.97 1207.55 343.453C1206.47 343.916 1205.31 344.176 1204.15 344.165C1201.9 344.145 1199.68 343.325 1197.49 342.776C1195.7 342.328 1193.79 341.882 1191.97 342.312C1191.21 342.492 1190.1 342.863 1189.82 343.784C1194.44 344.761 1196.26 351.425 1194.95 356.317C1194.25 358.957 1190.03 362.044 1188.38 360.656C1187.34 359.776 1187.98 358.622 1188.38 357.86C1189.17 356.4 1189.44 354.525 1187.99 353.509C1186.74 352.633 1185.42 354.714 1185.4 354.712C1185.05 354.68 1182.09 352.722 1180.04 349.865C1178.02 350.004 1177.72 348.452 1178.2 347.183C1178.68 345.914 1181.69 344.317 1183.31 344.007Z" fill="#074E4D"/>
<path d="M1136.63 436.449C1138.9 434.478 1139.45 431.405 1137.87 429.586C1136.28 427.766 1133.16 427.889 1130.9 429.86C1128.63 431.83 1128.08 434.903 1129.66 436.722C1131.25 438.542 1134.37 438.419 1136.63 436.449Z" fill="#E5D6C6"/>
<path d="M1224.14 451.395C1226.92 451.275 1229.06 448.411 1228.91 444.997C1228.76 441.584 1226.39 438.915 1223.61 439.035C1220.83 439.155 1218.69 442.019 1218.84 445.432C1218.98 448.845 1221.36 451.515 1224.14 451.395Z" fill="#E5D6C6"/>
<path d="M1205.31 438.007C1203.45 442.151 1202.14 462.363 1176.69 505.96C1174.39 510.981 1162.81 568.035 1162.81 568.035L1151.7 565.455L1173.65 435.739" fill="#8AE6E3"/>
<path d="M1175.65 391.307C1176.09 381.609 1175.8 372.349 1174.77 368.822C1174.77 368.38 1180.87 367.979 1181.38 368.824C1182.7 371.029 1182.7 380.287 1180.94 393.072C1178.97 407.376 1171.24 417.318 1170.8 416.877C1170.45 416.524 1170.21 412.028 1170.36 410.705C1171.24 408.06 1175.23 400.635 1175.65 391.307Z" fill="#317EC2"/>
<path d="M1202.16 393.126C1201.72 383.427 1202.02 374.167 1203.05 370.64C1203.05 370.198 1196.94 369.797 1196.43 370.642C1195.11 372.847 1195.11 382.106 1196.87 394.89C1198.85 409.195 1206.57 419.136 1207.01 418.695C1207.37 418.343 1207.6 413.846 1207.45 412.523C1206.57 409.878 1202.59 402.454 1202.16 393.126Z" fill="#317EC2"/>
<path d="M1032.68 423.839C1032.58 427.032 1031.54 469.063 1027.82 480.591C1033.45 488.147 1074.32 541.15 1074.44 542.325C1074.56 543.501 1067.63 549.887 1066.39 549.887C1065.16 549.887 1002.48 498.909 999.276 495.573C996.077 492.238 994.61 478.364 994.61 478.364" fill="#074E4D"/>
<path d="M1034.47 410.607C1034.47 449.989 984.097 488.542 974.152 494.05C972.166 498.184 940.037 564.596 939.275 566.415C936.676 566.718 932.543 565.493 930.556 562.894C931.175 560.295 946.311 484.26 948.298 479.668C950.284 475.077 975.526 427.743 982.723 418.596" fill="#8AE6E3"/>
<path d="M1072.79 543.7C1073.41 544.319 1077.43 547.952 1077.53 549.14C1077.7 551.287 1069.15 558.83 1068.4 558.837C1067.64 558.843 1066.63 558.28 1066.74 557.717C1066.84 557.153 1069.38 553.298 1069.51 552.562C1069.63 551.825 1068.64 549.635 1067.55 549.004" fill="#074E4D"/>
<path d="M938.917 565.635C938.582 566.482 936.837 571.582 935.785 572.132C933.873 573.135 923.582 568.24 923.279 567.547C922.976 566.854 923.093 565.69 923.656 565.579C924.219 565.468 928.762 566.272 929.486 566.105C930.21 565.938 931.831 564.149 931.961 562.899" fill="#074E4D"/>
<path d="M999.122 330.582C986.516 330.582 981.294 350.948 981.294 357.018C981.294 366.629 986.789 404.6 982.723 418.598C987.748 419.421 1028.11 416.036 1034.47 410.609C1034.47 372.21 1011.11 330.582 999.122 330.582Z" fill="#39BCBA"/>
<path d="M989.917 338.89C987.69 337.771 933.609 315.592 932.402 315.027C931.224 316.555 927.924 322.717 927.445 325.152C929.604 327.002 980.621 355.874 980.621 355.874" fill="#BF9972"/>
<path d="M932.401 315.031C929.704 313.901 910.031 305.091 909.542 304.888C909.052 304.684 908.663 304.387 908.522 304.687C907.024 307.937 912.976 310.351 915.704 311.745C914.328 314.376 913.586 316.513 915.401 317.993C917.029 319.335 920.047 321.114 928.482 322.225" fill="#BF9972"/>
<path d="M980.62 355.877L971.411 350.627C974.465 341.806 979.348 336.353 980.873 335.044C985.899 337.131 989.385 338.612 989.921 338.869" fill="#39BCBA"/>
<path d="M941.227 419.112C936.132 419.112 932.001 415.729 932.001 411.556C932.001 407.383 936.132 404 941.227 404C946.323 404 950.454 407.383 950.454 411.556C950.454 415.729 946.323 419.112 941.227 419.112Z" fill="#BF9972"/>
<path d="M983.734 350.621C982.826 352.584 982.058 354.608 981.436 356.679C980.403 356.046 975.471 353.121 975.471 353.121C975.471 353.121 980.734 353.857 983.734 350.621Z" fill="#074E4D"/>
<path d="M992.005 403.005C991.312 405.48 986.739 418.476 996.634 418.129C992.358 418.438 985.198 419.045 982.723 418.599C982.896 417.98 984.103 411.074 984.121 408.147C985.291 407.485 992.005 403.005 992.005 403.005Z" fill="#074E4D"/>
<path d="M992.136 335.841C993.02 337.314 1001.21 332.549 1000.25 330.965L994.326 321.063L986.201 325.94L992.136 335.841Z" fill="#BF9972"/>
<path d="M997.884 326.986C997.358 326.108 992.444 323.942 991.2 325.384C992.704 323.564 993.354 321.052 994.344 321.095L997.884 326.986Z" fill="#074E4D"/>
<path d="M980.502 324.567C974.618 321.17 972.602 313.646 975.999 307.762C979.396 301.878 986.92 299.862 992.804 303.259C998.688 306.656 1000.7 314.18 997.307 320.064C993.91 325.948 986.386 327.964 980.502 324.567Z" fill="#BF9972"/>
<path d="M973.001 310.776C973.242 310.236 974.278 310.174 975.314 310.637C976.35 311.1 976.994 311.912 976.753 312.452C976.512 312.992 975.477 313.055 974.441 312.592C973.405 312.129 972.76 311.316 973.001 310.776Z" fill="#AA8053"/>
<path d="M984.781 316.046C985.022 315.506 986.057 315.444 987.093 315.906C988.129 316.369 988.773 317.182 988.532 317.722C988.291 318.262 987.256 318.324 986.22 317.861C985.184 317.399 984.539 316.586 984.781 316.046Z" fill="#AA8053"/>
<path d="M980.358 311.635C979.765 312.006 977.037 313.29 978.566 314.973" stroke="#074E4D" stroke-width="0.69" stroke-miterlimit="10" stroke-linecap="round"/>
<path d="M981.242 319.112C981.818 319.351 982.989 319.056 983.73 318.626" stroke="#074E4D" stroke-width="0.69" stroke-miterlimit="10" stroke-linecap="round"/>
<path d="M993.491 316.932C991.994 316.932 990.78 315.718 990.78 314.221C990.78 312.724 991.994 311.511 993.491 311.511C994.988 311.511 996.201 312.724 996.201 314.221C996.201 315.718 994.988 316.932 993.491 316.932Z" fill="#BF9972"/>
<path d="M993.253 318.718C991.452 321.837 993.712 325.893 994.875 326.564C995.048 326.698 995.248 326.792 995.461 326.839C995.674 326.887 995.895 326.887 996.108 326.839C996.321 326.792 996.521 326.698 996.694 326.564C996.866 326.431 997.007 326.26 997.107 326.066C997.862 324.759 997.737 323.193 996.935 320.844C997.501 320.52 1001.09 319.169 1003.18 315.541C1005.4 311.709 1004.9 307.14 1003.32 306.231C1002.62 305.883 1001.82 305.778 1001.06 305.932C1000.29 306.085 999.598 306.489 999.086 307.08C1002.18 301.726 998.669 294.584 995.282 292.629C992.104 290.794 990.729 291.851 990.083 292.971C988.659 295.436 989.077 299.193 989.442 300.269C988.421 297.928 986.406 295.007 983.994 293.615C982.483 292.742 980.306 292.057 979.106 294.137C976.9 297.958 979.2 302.229 980.039 303.536C981.019 302.91 982.08 302.421 983.192 302.084C982.555 302.68 982.681 304.504 984.199 305.773C985.033 306.483 997.387 311.558 993.253 318.718Z" fill="#074E4D"/>
<path d="M1049.95 357.756L1042.81 359.163L1048.1 386.007L1055.24 384.601C1058.47 383.965 1060.55 380.745 1059.9 377.41L1056.99 362.646C1056.33 359.31 1053.18 357.121 1049.95 357.756Z" fill="#0C3559"/>
<path d="M995.278 334.341L1019.88 329.497L1021.18 336.095L996.577 340.939C991.804 341.882 988.699 346.513 989.642 351.282C989.898 352.585 990.448 353.813 991.247 354.873L1020.4 393.474L1028.92 392.825L1030.22 399.423L1020.54 399.92C1018.31 400.034 1016.17 399.036 1014.83 397.255L985.889 358.926C980.721 352.083 982.086 342.346 988.937 337.179C990.808 335.766 992.977 334.797 995.278 334.341Z" fill="#317EC2"/>
<path d="M1048.74 389.253C1049.8 394.634 1046.26 399.86 1040.84 400.927L1031.03 402.86C1025.61 403.927 1020.35 400.431 1019.29 395.05L1018.65 391.803L1048.1 386.006C1048.1 386.006 1048.74 389.253 1048.74 389.253Z" fill="#317EC2"/>
<path d="M1009.43 342.031C1010.04 337.788 1013.22 334.402 1017.39 333.586L1027.2 331.654C1032.62 330.587 1037.89 334.168 1038.97 339.654L1048.1 386.008L1018.65 391.805L1009.53 345.452L1009.43 342.031Z" fill="#5A9FDB"/>
<path d="M1016.5 303.178C1024.63 301.577 1032.52 306.871 1034.12 315C1035.72 323.13 1030.42 331.019 1022.29 332.62C1014.16 334.221 1006.27 328.927 1004.67 320.798C1003.07 312.668 1008.37 304.778 1016.5 303.178ZM1020.36 322.806C1023.07 322.273 1024.83 319.641 1024.3 316.933C1023.77 314.224 1021.14 312.459 1018.43 312.992C1015.72 313.525 1013.95 316.156 1014.49 318.865C1015.02 321.574 1017.65 323.339 1020.36 322.806Z" fill="#19588F"/>
<path d="M991.044 341.1C994.574 338.629 999.575 339.482 1001.63 340.217L1006.93 375.962C1006.34 377.139 1005.08 379.493 1004.72 379.493C1004.37 379.493 1001.93 378.904 1000.75 378.61C994.868 376.551 983.012 370.667 982.659 363.606C982.218 354.78 986.631 344.189 991.044 341.1Z" fill="#39BCBA"/>
<path d="M980.41 373.314C987.871 377.707 1001.07 379.232 1006.05 378.205C993.807 405.042 956.872 414.55 946.033 417.443C944.27 414.656 941.816 409.267 941.62 405.173C946.192 402.964 972.527 392.797 980.41 373.314Z" fill="#BF9972"/>
<path d="M997.222 339.336C1006.55 339.336 1009.58 354.477 1009.58 360.43C1009.62 366.847 1007.85 373.663 1005.16 379.493" stroke="#074E4D" stroke-linecap="round" stroke-linejoin="round"/>
<path d="M980.894 373.756C982.187 370.649 983.368 358.14 983.542 354.78" stroke="#074E4D" stroke-linecap="round" stroke-linejoin="round"/>
<path d="M867.67 535.486C867.67 536.223 867.549 536.945 867.325 537.635C866.246 540.914 862.764 543.47 858.377 543.47H807.453C800.916 543.47 796.426 537.812 798.802 532.57L798.958 532.223C802.268 524.923 809.399 519.583 817.927 517.637C820.243 517.107 822.663 516.827 825.137 516.827H840.698C852.512 516.827 863.065 523.188 867.103 532.743C867.491 533.659 867.67 534.583 867.67 535.486Z" fill="#262626"/>
<path d="M859.33 484.347C859.071 487.53 857.379 490.181 855.183 490.181H832.258C829.553 490.181 827.17 485.903 828.431 480.758C828.438 480.73 828.445 480.701 828.452 480.671C830.086 473.833 836.135 469 843.106 469H844.322C851.383 469 857.528 473.938 859.043 480.897C859.066 481.001 859.088 481.099 859.109 481.194C859.349 482.254 859.414 483.327 859.33 484.347Z" fill="#262626"/>
<path d="M867.67 535.486C867.67 536.223 867.548 536.945 867.325 537.635H819.589C813.051 537.635 808.562 531.978 810.938 526.737L811.094 526.389C812.63 523.002 814.986 520.036 817.927 517.637C820.242 517.107 822.662 516.827 825.136 516.827H840.698C852.512 516.827 863.065 523.188 867.102 532.743C867.49 533.659 867.67 534.583 867.67 535.486Z" fill="#4B4B4B"/>
<path d="M859.33 484.347H844.394C841.689 484.347 839.306 480.069 840.566 474.923C840.573 474.895 840.58 474.868 840.588 474.837C841.108 472.657 842.079 470.68 843.384 469H844.322C851.383 469 857.529 473.938 859.043 480.897C859.066 481.001 859.088 481.099 859.109 481.194C859.349 482.254 859.414 483.327 859.33 484.347Z" fill="#4B4B4B"/>
<path d="M869.998 510.992C869.081 514.266 866.117 516.826 862.366 516.826H818.93C814.398 516.826 811 513.08 811 508.845C811 507.942 811.154 507.015 811.485 506.1C814.487 497.773 821.707 491.873 830.181 490.494C831.432 490.289 832.711 490.184 834.009 490.184H847.283C857.16 490.184 866.024 496.296 869.613 505.58L869.748 505.928C870.411 507.642 870.447 509.4 869.998 510.992Z" fill="#727272"/>
<path d="M869.998 510.992H831.066C826.534 510.992 823.136 507.246 823.136 503.01C823.136 502.107 823.29 501.18 823.622 500.266C825.007 496.422 827.29 493.096 830.182 490.494C831.432 490.289 832.711 490.184 834.009 490.184H847.284C857.16 490.184 866.024 496.296 869.613 505.58L869.749 505.928C870.411 507.642 870.447 509.4 869.998 510.992Z" fill="#A3A3A3"/>
<path d="M880.387 570.968C880.387 573.092 879.808 575.134 878.781 576.901C876.788 580.332 873.107 582.735 868.701 582.735H804.685C796.47 582.735 790.823 574.397 793.81 566.675L794.008 566.161C798.195 555.327 807.255 547.425 818.07 544.606C820.914 543.861 823.883 543.47 826.914 543.47H846.479C861.331 543.47 874.596 552.844 879.672 566.926C880.157 568.276 880.387 569.638 880.387 570.968Z" fill="#727272"/>
<path d="M880.387 570.968C880.387 573.092 879.808 575.134 878.781 576.901H816.821C808.606 576.901 802.958 568.562 805.946 560.84L806.143 560.326C808.624 553.909 812.816 548.517 818.07 544.606C820.914 543.861 823.883 543.47 826.914 543.47H846.479C861.331 543.47 874.596 552.844 879.672 566.926C880.157 568.276 880.387 569.638 880.387 570.968Z" fill="#A3A3A3"/>
<path d="M1196.29 567.57C1309.16 558.036 1357.73 563.597 1367.9 567.57V707.931L566.903 764.001C574.138 744.139 583.154 671.571 541.371 662.037C489.143 650.119 457.633 637.751 502.4 604.206C547.168 570.661 657.73 567.57 779.823 567.57C901.915 567.57 1055.21 579.487 1196.29 567.57Z" fill="#042039"/>
<path d="M849.694 526.788C844.656 546.218 850.156 567.371 850.234 567.696C850.22 567.593 850.097 566.073 850.097 566.073C848.482 553.021 852.418 545.659 852.418 545.659C849.761 556.951 854.665 563.39 857.54 566.073C858.617 567.077 859.419 567.935 859.419 567.935C859.502 567.935 859.576 566.579 859.637 566.073C861.57 550.136 852.421 529.834 852.421 529.834C858.274 535.037 861.82 551.969 863.38 561.285C861.52 545.585 864.594 538.355 864.594 538.355C863.38 551.485 866.43 562.261 867.71 566.073C868.031 567.034 868.245 567.935 868.245 567.935C868.394 567.935 868.527 566.619 868.654 566.073C870.853 556.583 869.767 533.18 869.767 533.18C871.95 538.639 873.264 549.856 873.966 557.997C873.962 544.195 878.29 535.918 878.29 535.918C873.724 553.57 879.812 565.135 879.812 565.135C878.595 549.31 882.855 545.354 882.855 545.354C879.708 551.903 886.812 564.833 886.812 564.833C889.55 547.79 882.855 523.745 882.855 523.745C886.909 529.457 889.289 543.756 890.535 554.152C890.668 540.946 896.182 535.918 896.182 535.918C890.64 549.31 896.246 565.744 896.246 565.744C895.636 549.919 899.595 542.308 899.595 542.308C899.097 549.294 904.728 561.789 906.776 566.071C907.227 567.01 907.508 567.933 907.508 567.933C907.625 567.933 907.725 566.597 907.816 566.071C909.862 554.317 905.683 529.221 905.683 529.221C910.473 532.948 913.402 559.45 914.063 566.073C914.158 567.028 914.205 567.935 914.205 567.935C914.233 567.935 914.265 566.577 914.294 566.073C914.926 555.785 914.856 544.369 914.856 544.369C916.87 546.58 918.457 567.933 918.467 567.933L918.414 566.071C917.104 539.484 921.815 530.745 921.815 530.745C919.509 543.808 923.672 560.966 925.045 566.071C925.303 567.034 925.466 567.933 925.466 567.933C925.768 567.933 926.026 566.625 926.252 566.071C929.448 558.234 925.466 540.179 925.466 540.179C929.141 544.901 930.397 553.239 930.806 559.48C930.468 527.499 933.076 517.048 933.076 517.048C931.2 528.58 935.229 558.995 936.213 566.071C936.27 566.488 936.264 566.444 936.213 566.071H936.292C935.564 555.305 939.163 535.918 939.163 535.918C939.163 544.369 941.104 561.009 941.717 566.071C941.832 567.024 941.902 567.933 941.902 567.933C942.213 567.312 942.364 566.583 942.57 566.071C947.208 552.294 941.902 529.221 941.902 529.221C948.969 538.647 949.733 560.223 949.807 566.071C949.813 566.522 949.815 566.645 949.807 566.071C949.807 566.071 949.446 568.31 950.436 566.071C953.831 558.735 949.62 535.918 949.62 535.918C953.791 540.351 955.488 560.418 955.863 566.071C955.924 567.014 956.001 567.932 956.001 567.932C956.105 567.932 956.218 566.573 956.303 566.071C959.615 546.651 949.801 525.141 949.801 525.141C959.537 531.229 962.058 567.93 962.058 567.93V584.672H843.001V566.071C842.983 532.005 849.694 526.788 849.694 526.788Z" fill="#042039"/>
<path d="M760.856 522.478C766.275 543.377 760.359 566.128 760.275 566.478C760.29 566.367 760.423 564.732 760.423 564.732C762.16 550.693 757.926 542.775 757.926 542.775C760.784 554.921 755.51 561.847 752.417 564.732C751.258 565.812 750.396 566.734 750.396 566.734C750.306 566.734 750.227 565.277 750.161 564.732C748.083 547.59 757.924 525.754 757.924 525.754C751.627 531.35 747.813 549.562 746.136 559.582C748.136 542.696 744.83 534.918 744.83 534.918C746.136 549.041 742.855 560.632 741.479 564.732C741.133 565.765 740.902 566.734 740.902 566.734C740.742 566.734 740.6 565.319 740.463 564.732C738.098 554.524 739.266 529.352 739.266 529.352C736.918 535.224 735.505 547.289 734.75 556.046C734.754 541.2 730.099 532.298 730.099 532.298C735.01 551.284 728.462 563.723 728.462 563.723C729.77 546.702 725.188 542.446 725.188 542.446C728.573 549.491 720.932 563.398 720.932 563.398C717.987 545.067 725.188 519.204 725.188 519.204C720.828 525.348 718.269 540.728 716.928 551.91C716.785 537.706 710.854 532.298 710.854 532.298C716.815 546.702 710.786 564.378 710.786 564.378C711.441 547.357 707.183 539.17 707.183 539.17C707.719 546.685 701.662 560.124 699.459 564.73C698.975 565.74 698.672 566.732 698.672 566.732C698.546 566.732 698.439 565.296 698.341 564.73C696.14 552.087 700.635 525.095 700.635 525.095C695.483 529.103 692.333 557.608 691.622 564.732C691.52 565.759 691.469 566.734 691.469 566.734C691.439 566.734 691.404 565.275 691.373 564.732C690.694 553.666 690.769 541.388 690.769 541.388C688.602 543.765 686.895 566.732 686.884 566.732L686.942 564.73C688.35 536.133 683.284 526.734 683.284 526.734C685.764 540.784 681.286 559.239 679.809 564.73C679.532 565.765 679.357 566.732 679.357 566.732C679.032 566.732 678.755 565.326 678.511 564.73C675.073 556.3 679.357 536.88 679.357 536.88C675.404 541.96 674.053 550.928 673.613 557.64C673.976 523.242 671.172 512.001 671.172 512.001C673.189 524.405 668.856 557.119 667.798 564.73C667.736 565.179 667.742 565.131 667.798 564.73H667.712C668.495 553.15 664.624 532.298 664.624 532.298C664.624 541.388 662.537 559.286 661.877 564.73C661.753 565.755 661.679 566.732 661.679 566.732C661.344 566.064 661.181 565.281 660.959 564.73C655.971 549.912 661.679 525.095 661.679 525.095C654.077 535.232 653.255 558.44 653.176 564.73C653.17 565.214 653.168 565.347 653.176 564.73C653.176 564.73 653.564 567.137 652.5 564.73C648.848 556.839 653.377 532.298 653.377 532.298C648.89 537.066 647.066 558.649 646.662 564.73C646.596 565.744 646.513 566.732 646.513 566.732C646.402 566.732 646.281 565.27 646.189 564.73C642.626 543.842 653.182 520.706 653.182 520.706C642.71 527.254 639.999 566.73 639.999 566.73V584.737H768.055V564.73C768.074 528.089 760.856 522.478 760.856 522.478Z" fill="#042039"/>
<path d="M788.46 501.713C799.69 545.023 787.429 592.172 787.257 592.898C787.288 592.668 787.562 589.28 787.562 589.28C791.162 560.185 782.387 543.776 782.387 543.776C788.31 568.947 777.381 583.3 770.971 589.28C768.57 591.518 766.783 593.429 766.783 593.429C766.597 593.429 766.433 590.408 766.296 589.28C761.988 553.754 782.383 508.502 782.383 508.502C769.334 520.1 761.431 557.841 757.954 578.607C762.099 543.612 755.247 527.495 755.247 527.495C757.954 556.762 751.156 580.783 748.303 589.28C747.587 591.42 747.109 593.429 747.109 593.429C746.777 593.429 746.481 590.496 746.198 589.28C741.297 568.125 743.716 515.959 743.716 515.959C738.851 528.127 735.923 553.13 734.358 571.278C734.367 540.512 724.72 522.064 724.72 522.064C734.897 561.411 721.327 587.188 721.327 587.188C724.038 551.914 714.542 543.095 714.542 543.095C721.557 557.695 705.723 586.516 705.723 586.516C699.62 548.527 714.542 494.928 714.542 494.928C705.506 507.662 700.203 539.534 697.425 562.707C697.129 533.271 684.838 522.064 684.838 522.064C697.191 551.914 684.696 588.546 684.696 588.546C686.054 553.272 677.23 536.305 677.23 536.305C678.339 551.879 665.787 579.731 661.223 589.276C660.219 591.368 659.59 593.424 659.59 593.424C659.33 593.424 659.108 590.448 658.905 589.276C654.345 563.074 663.66 507.136 663.66 507.136C652.983 515.442 646.454 574.516 644.981 589.28C644.769 591.408 644.663 593.429 644.663 593.429C644.601 593.429 644.53 590.404 644.464 589.28C643.058 566.347 643.213 540.901 643.213 540.901C638.723 545.829 635.185 593.424 635.163 593.424L635.282 589.276C638.201 530.012 627.701 510.533 627.701 510.533C632.84 539.65 623.561 577.895 620.5 589.276C619.925 591.421 619.563 593.424 619.563 593.424C618.89 593.424 618.315 590.51 617.811 589.276C610.686 571.805 619.563 531.56 619.563 531.56C611.371 542.087 608.571 560.672 607.66 574.582C608.412 503.297 602.6 480.001 602.6 480.001C606.78 505.707 597.802 573.503 595.608 589.276C595.48 590.205 595.493 590.107 595.608 589.276H595.431C597.054 565.276 589.031 522.064 589.031 522.064C589.031 540.901 584.705 577.992 583.339 589.276C583.082 591.399 582.927 593.424 582.927 593.424C582.233 592.04 581.897 590.417 581.437 589.276C571.1 558.566 582.927 507.136 582.927 507.136C567.173 528.145 565.47 576.24 565.307 589.275C565.293 590.279 565.289 590.554 565.307 589.275C565.307 589.275 566.111 594.264 563.905 589.275C556.337 572.923 565.722 522.063 565.722 522.063C556.425 531.944 552.644 576.674 551.808 589.275C551.671 591.376 551.499 593.424 551.499 593.424C551.268 593.424 551.017 590.394 550.826 589.275C543.444 545.987 565.32 498.042 565.32 498.042C543.617 511.612 537.999 593.419 537.999 593.419V630.737H803.379V589.275C803.419 513.341 788.46 501.713 788.46 501.713Z" fill="#042039"/>
<path d="M1006.86 528.673C1016 563.924 1006.02 602.3 1005.88 602.891C1005.9 602.704 1006.13 599.946 1006.13 599.946C1009.06 576.265 1001.91 562.909 1001.91 562.909C1006.73 583.397 997.838 595.079 992.622 599.946C990.667 601.768 989.212 603.323 989.212 603.323C989.061 603.323 988.928 600.864 988.816 599.946C985.31 571.031 1001.91 534.199 1001.91 534.199C991.289 543.638 984.856 574.357 982.027 591.259C985.4 562.775 979.823 549.657 979.823 549.657C982.027 573.479 976.493 593.03 974.171 599.946C973.588 601.688 973.199 603.323 973.199 603.323C972.929 603.323 972.688 600.936 972.457 599.946C968.469 582.727 970.438 540.269 970.438 540.269C966.478 550.172 964.095 570.523 962.821 585.294C962.828 560.252 954.976 545.237 954.976 545.237C963.26 577.262 952.215 598.243 952.215 598.243C954.421 569.533 946.693 562.355 946.693 562.355C952.402 574.238 939.514 597.696 939.514 597.696C934.546 566.776 946.693 523.151 946.693 523.151C939.338 533.515 935.021 559.457 932.76 578.317C932.519 554.359 922.515 545.237 922.515 545.237C932.57 569.533 922.399 599.348 922.399 599.348C923.505 570.638 916.323 556.829 916.323 556.829C917.226 569.504 907.009 592.174 903.294 599.943C902.477 601.645 901.966 603.319 901.966 603.319C901.753 603.319 901.573 600.896 901.408 599.943C897.696 578.616 905.278 533.087 905.278 533.087C896.587 539.848 891.274 587.929 890.075 599.946C889.902 601.678 889.816 603.323 889.816 603.323C889.765 603.323 889.708 600.861 889.654 599.946C888.509 581.28 888.635 560.569 888.635 560.569C884.981 564.58 882.101 603.319 882.083 603.319L882.18 599.943C884.556 551.706 876.01 535.852 876.01 535.852C880.193 559.551 872.64 590.68 870.149 599.943C869.681 601.689 869.386 603.319 869.386 603.319C868.838 603.319 868.37 600.947 867.96 599.943C862.161 585.723 869.386 552.966 869.386 552.966C862.719 561.534 860.44 576.661 859.698 587.983C860.31 529.962 855.58 511.001 855.58 511.001C858.982 531.924 851.674 587.105 849.888 599.943C849.784 600.699 849.795 600.619 849.888 599.943H849.745C851.066 580.409 844.535 545.237 844.535 545.237C844.535 560.569 841.015 590.759 839.902 599.943C839.693 601.671 839.567 603.319 839.567 603.319C839.002 602.193 838.729 600.872 838.354 599.943C829.941 574.948 839.567 533.087 839.567 533.087C826.745 550.187 825.359 589.333 825.225 599.942C825.215 600.759 825.211 600.983 825.225 599.942C825.225 599.942 825.881 604.003 824.084 599.942C817.925 586.633 825.564 545.236 825.564 545.236C817.996 553.279 814.919 589.686 814.239 599.942C814.127 601.652 813.987 603.319 813.987 603.319C813.799 603.319 813.594 600.853 813.439 599.942C807.431 564.709 825.236 525.685 825.236 525.685C807.571 536.73 802.999 603.315 802.999 603.315V633.689H1019V599.942C1019.03 538.137 1006.86 528.673 1006.86 528.673Z" fill="#042039"/>
<path d="M1021.33 506.401C1011.3 545.1 1022.25 587.23 1022.41 587.878C1022.38 587.673 1022.13 584.646 1022.13 584.646C1018.92 558.649 1026.76 543.986 1026.76 543.986C1021.46 566.478 1031.23 579.302 1036.96 584.646C1039.1 586.645 1040.7 588.353 1040.7 588.353C1040.87 588.353 1041.01 585.654 1041.13 584.646C1044.98 552.902 1026.76 512.468 1026.76 512.468C1038.42 522.831 1045.48 556.554 1048.59 575.109C1044.88 543.839 1051.01 529.438 1051.01 529.438C1048.59 555.589 1054.66 577.053 1057.21 584.646C1057.85 586.558 1058.28 588.353 1058.28 588.353C1058.58 588.353 1058.84 585.732 1059.09 584.646C1063.47 565.743 1061.31 519.131 1061.31 519.131C1065.66 530.004 1068.27 552.345 1069.67 568.561C1069.66 541.07 1078.28 524.585 1078.28 524.585C1069.19 559.743 1081.32 582.776 1081.32 582.776C1078.89 551.258 1087.38 543.378 1087.38 543.378C1081.11 556.423 1095.26 582.176 1095.26 582.176C1100.71 548.231 1087.38 500.339 1087.38 500.339C1095.45 511.717 1100.19 540.196 1102.67 560.901C1102.94 534.6 1113.92 524.585 1113.92 524.585C1102.88 551.258 1114.05 583.99 1114.05 583.99C1112.83 552.471 1120.72 537.311 1120.72 537.311C1119.73 551.227 1130.94 576.113 1135.02 584.642C1135.92 586.511 1136.48 588.349 1136.48 588.349C1136.71 588.349 1136.91 585.689 1137.09 584.642C1141.17 561.23 1132.84 511.247 1132.84 511.247C1142.38 518.669 1148.22 571.454 1149.53 584.646C1149.72 586.547 1149.82 588.353 1149.82 588.353C1149.87 588.353 1149.94 585.65 1150 584.646C1151.25 564.154 1151.11 541.418 1151.11 541.418C1155.13 545.82 1158.29 588.349 1158.31 588.349L1158.2 584.642C1155.59 531.687 1164.97 514.282 1164.97 514.282C1160.38 540.299 1168.67 574.473 1171.41 584.642C1171.92 586.559 1172.25 588.349 1172.25 588.349C1172.85 588.349 1173.36 585.744 1173.81 584.642C1180.18 569.031 1172.25 533.071 1172.25 533.071C1179.57 542.477 1182.07 559.083 1182.88 571.513C1182.21 507.816 1187.4 487.001 1187.4 487.001C1183.67 509.971 1191.69 570.549 1193.65 584.642C1193.76 585.472 1193.75 585.385 1193.65 584.642H1193.81C1192.36 563.198 1199.53 524.585 1199.53 524.585C1199.53 541.418 1203.39 574.56 1204.61 584.642C1204.84 586.539 1204.98 588.349 1204.98 588.349C1205.6 587.112 1205.9 585.662 1206.31 584.642C1215.55 557.202 1204.98 511.247 1204.98 511.247C1219.06 530.019 1220.58 572.994 1220.73 584.641C1220.74 585.539 1220.74 585.784 1220.73 584.641C1220.73 584.641 1220.01 589.1 1221.98 584.641C1228.74 570.03 1220.35 524.585 1220.35 524.585C1228.66 533.414 1232.04 573.382 1232.79 584.641C1232.91 586.519 1233.06 588.349 1233.06 588.349C1233.27 588.349 1233.49 585.642 1233.66 584.641C1240.26 545.962 1220.71 503.121 1220.71 503.121C1240.11 515.246 1245.13 588.344 1245.13 588.344V621.689H1008V584.641C1007.96 516.792 1021.33 506.401 1021.33 506.401Z" fill="#042039"/>
<path d="M1165.33 506.401C1155.3 545.1 1166.25 587.23 1166.41 587.878C1166.38 587.673 1166.13 584.646 1166.13 584.646C1162.92 558.649 1170.76 543.986 1170.76 543.986C1165.46 566.478 1175.23 579.302 1180.96 584.646C1183.1 586.645 1184.7 588.353 1184.7 588.353C1184.87 588.353 1185.01 585.654 1185.13 584.646C1188.98 552.902 1170.76 512.468 1170.76 512.468C1182.42 522.831 1189.48 556.554 1192.59 575.109C1188.88 543.839 1195.01 529.438 1195.01 529.438C1192.59 555.589 1198.66 577.053 1201.21 584.646C1201.85 586.558 1202.28 588.353 1202.28 588.353C1202.58 588.353 1202.84 585.732 1203.09 584.646C1207.47 565.743 1205.31 519.131 1205.31 519.131C1209.66 530.004 1212.27 552.345 1213.67 568.561C1213.66 541.07 1222.28 524.585 1222.28 524.585C1213.19 559.743 1225.32 582.776 1225.32 582.776C1222.89 551.258 1231.38 543.378 1231.38 543.378C1225.11 556.423 1239.26 582.176 1239.26 582.176C1244.71 548.231 1231.38 500.339 1231.38 500.339C1239.45 511.717 1244.19 540.196 1246.67 560.901C1246.94 534.6 1257.92 524.585 1257.92 524.585C1246.88 551.258 1258.05 583.99 1258.05 583.99C1256.83 552.471 1264.72 537.311 1264.72 537.311C1263.73 551.227 1274.94 576.113 1279.02 584.642C1279.92 586.511 1280.48 588.349 1280.48 588.349C1280.71 588.349 1280.91 585.689 1281.09 584.642C1285.17 561.23 1276.84 511.247 1276.84 511.247C1286.38 518.669 1292.22 571.454 1293.53 584.646C1293.72 586.547 1293.82 588.353 1293.82 588.353C1293.87 588.353 1293.94 585.65 1294 584.646C1295.25 564.154 1295.11 541.418 1295.11 541.418C1299.13 545.82 1302.29 588.349 1302.31 588.349L1302.2 584.642C1299.59 531.687 1308.97 514.282 1308.97 514.282C1304.38 540.299 1312.67 574.473 1315.41 584.642C1315.92 586.559 1316.25 588.349 1316.25 588.349C1316.85 588.349 1317.36 585.744 1317.81 584.642C1324.18 569.031 1316.25 533.071 1316.25 533.071C1323.57 542.477 1326.07 559.083 1326.88 571.513C1326.21 507.816 1331.4 487.001 1331.4 487.001C1327.67 509.971 1335.69 570.549 1337.65 584.642C1337.76 585.472 1337.75 585.385 1337.65 584.642H1337.81C1336.36 563.198 1343.53 524.585 1343.53 524.585C1343.53 541.418 1347.39 574.56 1348.61 584.642C1348.84 586.539 1348.98 588.349 1348.98 588.349C1349.6 587.112 1349.9 585.662 1350.31 584.642C1359.55 557.202 1348.98 511.247 1348.98 511.247C1363.06 530.019 1364.58 572.994 1364.73 584.641C1364.74 585.539 1364.74 585.784 1364.73 584.641C1364.73 584.641 1364.01 589.1 1365.98 584.641C1372.74 570.03 1364.35 524.585 1364.35 524.585C1372.66 533.414 1376.04 573.382 1376.79 584.641C1376.91 586.519 1377.06 588.349 1377.06 588.349C1377.27 588.349 1377.49 585.642 1377.66 584.641C1384.26 545.962 1364.71 503.121 1364.71 503.121C1384.11 515.246 1389.13 588.344 1389.13 588.344V621.689H1152V584.641C1151.96 516.792 1165.33 506.401 1165.33 506.401Z" fill="#042039"/>
<path d="M632.051 535.166C638.088 546.79 637.456 561.037 637.451 561.256C637.446 561.188 637.313 560.204 637.313 560.204C636.536 551.67 632.919 547.56 632.919 547.56C636.25 554.355 633.94 559.16 632.432 561.283C631.867 562.078 631.462 562.74 631.462 562.74C631.407 562.752 631.168 561.901 631.057 561.588C627.547 551.734 630.691 537.499 630.691 537.499C627.584 541.656 627.641 552.936 627.929 559.086C626.94 548.834 623.907 544.682 623.907 544.682C626.55 552.855 626.066 560.149 625.763 562.759C625.688 563.416 625.674 564.02 625.674 564.02C625.576 564.042 625.304 563.224 625.144 562.896C622.367 557.18 619.787 542.142 619.787 542.142C619.123 545.93 619.84 553.253 620.525 558.531C618.586 549.755 614.584 545.12 614.584 545.12C620.061 555.682 617.696 563.918 617.696 563.918C616.267 553.679 612.917 551.782 612.917 551.782C615.902 555.49 613.063 564.742 613.063 564.742C608.87 554.302 609.877 538.042 609.877 538.042C608.022 542.262 608.474 551.699 609.119 558.49C607.174 550.113 602.851 547.716 602.851 547.716C608.369 555.427 607.005 566.689 607.005 566.689C605.178 556.539 601.512 552.274 601.512 552.274C602.821 556.644 600.886 565.406 600.146 568.425C599.982 569.088 599.927 569.715 599.927 569.715C599.851 569.732 599.598 568.897 599.464 568.576C596.469 561.399 595.679 544.836 595.679 544.836C593.062 547.9 594.87 565.176 595.368 569.484C595.44 570.105 595.536 570.688 595.536 570.688C595.518 570.692 595.306 569.834 595.216 569.517C593.355 563.067 591.794 555.799 591.794 555.799C590.785 557.496 592.748 571.304 592.741 571.305L592.514 570.114C589.633 553.018 585.315 548.145 585.315 548.145C588.664 556.117 588.348 567.63 588.166 571.076C588.132 571.725 588.152 572.32 588.152 572.32C587.954 572.364 587.601 571.57 587.375 571.251C584.176 566.731 584.248 554.673 584.248 554.673C582.502 558.209 582.851 563.693 583.461 567.72C579.184 547.337 576.004 541.07 576.004 541.07C578.856 548.131 580.493 568.054 580.843 572.696C580.864 572.969 580.862 572.941 580.843 572.696L580.791 572.708C579.754 565.756 574.666 553.951 574.666 553.951C575.855 559.325 576.924 570.187 577.234 573.495C577.292 574.117 577.374 574.705 577.374 574.705C577.083 574.355 576.882 573.914 576.674 573.618C571.695 565.531 571.929 550.091 571.929 550.091C568.62 557.109 571.154 570.939 571.929 574.668C571.988 574.955 572.004 575.034 571.929 574.668C571.929 574.668 572.481 576.039 571.516 574.759C568.258 570.587 567.809 555.468 567.809 555.468C565.698 558.892 567.408 571.898 567.958 575.547C568.05 576.155 568.129 576.75 568.129 576.75C568.061 576.765 567.796 575.917 567.669 575.611C562.765 563.743 566.175 548.642 566.175 548.642C560.647 553.926 564.157 577.628 564.157 577.628L566.512 588.273L644.582 571L641.966 559.173C637.185 537.51 632.051 535.166 632.051 535.166Z" fill="#042039"/>
<path d="M490.238 576.835C490.78 588.455 498.167 598.743 498.277 598.902C498.249 598.85 497.886 598.052 497.886 598.052C494.428 591.321 495.478 586.483 495.478 586.483C495.96 593.177 500.207 595.615 502.492 596.452C503.348 596.765 504.005 597.057 504.005 597.057C504.057 597.04 503.847 596.289 503.79 596.001C501.984 586.943 492.498 577.901 492.498 577.901C497.101 579.464 502.484 587.884 505.204 592.6C501.096 584.487 501.636 579.905 501.636 579.905C503.358 587.286 507.275 592.474 508.785 594.266C509.164 594.718 509.467 595.16 509.467 595.16C509.559 595.128 509.393 594.387 509.369 594.063C508.942 588.444 503.863 575.987 503.863 575.987C506.241 578.478 509.167 584.278 511.135 588.542C508.533 581.058 509.652 575.64 509.652 575.64C510.151 586.194 516.097 591.156 516.097 591.156C512.363 582.836 514.254 579.775 514.254 579.775C513.541 584.004 520.372 589.488 520.372 589.488C518.856 579.658 510.184 568.058 510.184 568.058C513.769 570.284 517.934 577.526 520.663 582.896C518.258 575.706 520.723 571.795 520.723 571.795C519.816 580.248 526.381 587.954 526.381 587.954C523.023 579.504 524.039 574.526 524.039 574.526C525.047 578.421 530.885 583.987 532.958 585.869C533.414 586.281 533.762 586.721 533.762 586.721C533.835 586.696 533.644 585.95 533.602 585.645C532.654 578.831 525.341 566.121 525.341 566.121C529.007 567.112 535.811 580.854 537.468 584.304C537.706 584.801 537.906 585.282 537.906 585.282C537.924 585.276 537.688 584.534 537.611 584.254C536.064 578.539 533.871 572.364 533.871 572.364C535.533 573.13 540.537 584.367 540.543 584.365L540.16 583.367C534.342 569.231 535.611 563.48 535.611 563.48C536.644 571.059 542.452 579.469 544.263 581.942C544.604 582.409 544.874 582.861 544.874 582.861C545.061 582.796 544.974 582.032 545.01 581.683C545.512 576.746 539.647 567.811 539.647 567.811C542.81 569.582 545.158 573.833 546.586 577.13C540.354 559.86 539.999 553.632 539.999 553.632C541.011 560.289 549.232 575.916 551.174 579.542C551.288 579.756 551.276 579.733 551.174 579.542L551.223 579.525C548.744 573.843 547.32 562.557 547.32 562.557C548.912 567.14 553.247 575.746 554.58 578.359C554.83 578.851 555.044 579.329 555.044 579.329C555.12 578.925 555.076 578.498 555.108 578.176C555.382 569.708 547.753 558.337 547.753 558.337C553.902 561.929 558.438 573.465 559.585 576.62C559.674 576.863 559.698 576.929 559.585 576.62C559.585 576.62 559.783 577.912 559.974 576.485C560.694 571.777 553.791 560.309 553.791 560.309C557.207 561.817 562.036 572.334 563.333 575.319C563.548 575.816 563.769 576.298 563.769 576.298C563.833 576.276 563.647 575.515 563.605 575.224C561.997 563.981 551.873 554.427 551.873 554.427C559.044 555.635 567.516 574.995 567.516 574.995L570.67 584.074L496.998 609.662L493.495 599.576C487.068 581.107 490.238 576.835 490.238 576.835Z" fill="#042039"/>
<path d="M769.905 531.596C765.46 548.741 770.314 567.406 770.382 567.693C770.37 567.602 770.261 566.261 770.261 566.261C768.836 554.744 772.31 548.248 772.31 548.248C769.965 558.212 774.292 563.894 776.829 566.261C777.78 567.147 778.487 567.904 778.487 567.904C778.56 567.904 778.625 566.708 778.68 566.261C780.385 552.198 772.311 534.284 772.311 534.284C777.477 538.875 780.606 553.815 781.982 562.036C780.341 548.183 783.053 541.802 783.053 541.802C781.982 553.388 784.673 562.898 785.803 566.261C786.086 567.109 786.275 567.904 786.275 567.904C786.407 567.904 786.524 566.743 786.636 566.261C788.576 557.887 787.618 537.236 787.618 537.236C789.544 542.053 790.704 551.951 791.323 559.135C791.32 546.955 795.139 539.652 795.139 539.652C791.109 555.229 796.481 565.433 796.481 565.433C795.408 551.469 799.167 547.978 799.167 547.978C796.39 553.758 802.659 565.167 802.659 565.167C805.075 550.128 799.167 528.91 799.167 528.91C802.744 533.951 804.844 546.569 805.943 555.742C806.061 544.089 810.927 539.652 810.927 539.652C806.036 551.469 810.983 565.971 810.983 565.971C810.445 552.007 813.938 545.29 813.938 545.29C813.499 551.455 818.468 562.481 820.275 566.26C820.673 567.088 820.921 567.902 820.921 567.902C821.025 567.902 821.112 566.724 821.193 566.26C822.998 555.887 819.31 533.743 819.31 533.743C823.537 537.031 826.121 560.417 826.705 566.261C826.789 567.104 826.831 567.904 826.831 567.904C826.855 567.904 826.883 566.706 826.909 566.261C827.466 557.183 827.405 547.11 827.405 547.11C829.182 549.06 830.583 567.902 830.592 567.902L830.544 566.26C829.389 542.799 833.545 535.088 833.545 535.088C831.511 546.614 835.184 561.754 836.396 566.26C836.624 567.109 836.767 567.902 836.767 567.902C837.033 567.902 837.261 566.748 837.46 566.26C840.281 559.343 836.767 543.412 836.767 543.412C840.01 547.579 841.118 554.936 841.479 560.443C841.181 532.223 843.482 523.001 843.482 523.001C841.827 533.177 845.382 560.016 846.25 566.26C846.301 566.627 846.296 566.589 846.25 566.26H846.32C845.677 556.759 848.854 539.652 848.854 539.652C848.854 547.11 850.566 561.793 851.107 566.26C851.209 567.1 851.27 567.902 851.27 567.902C851.545 567.354 851.678 566.711 851.86 566.26C855.952 554.103 851.27 533.743 851.27 533.743C857.506 542.06 858.181 561.099 858.245 566.259C858.251 566.657 858.252 566.765 858.245 566.259C858.245 566.259 857.927 568.234 858.8 566.259C861.796 559.786 858.081 539.652 858.081 539.652C861.761 543.564 863.258 561.271 863.589 566.259C863.643 567.091 863.712 567.902 863.712 567.902C863.803 567.902 863.902 566.702 863.978 566.259C866.9 549.123 858.24 530.143 858.24 530.143C866.832 535.515 869.056 567.9 869.056 567.9V582.673H764V566.259C763.984 536.199 769.905 531.596 769.905 531.596Z" fill="#042039"/>
<path d="M959.836 541.037C956.197 555.072 960.17 570.351 960.226 570.586C960.216 570.512 960.127 569.414 960.127 569.414C958.96 559.986 961.804 554.668 961.804 554.668C959.885 562.825 963.427 567.476 965.504 569.414C966.282 570.139 966.861 570.759 966.861 570.759C966.921 570.759 966.974 569.78 967.019 569.414C968.415 557.902 961.806 543.237 961.806 543.237C966.034 546.995 968.595 559.226 969.722 565.955C968.379 554.615 970.599 549.392 970.599 549.392C969.722 558.876 971.925 566.661 972.85 569.414C973.082 570.108 973.237 570.759 973.237 570.759C973.344 570.759 973.44 569.808 973.532 569.414C975.12 562.558 974.336 545.654 974.336 545.654C975.913 549.597 976.862 557.699 977.369 563.58C977.366 553.61 980.492 547.632 980.492 547.632C977.194 560.383 981.591 568.736 981.591 568.736C980.713 557.305 983.79 554.447 983.79 554.447C981.517 559.179 986.648 568.518 986.648 568.518C988.626 556.207 983.79 538.838 983.79 538.838C986.718 542.965 988.437 553.293 989.337 560.803C989.433 551.264 993.416 547.632 993.416 547.632C989.413 557.305 993.462 569.176 993.462 569.176C993.022 557.745 995.882 552.247 995.882 552.247C995.522 557.294 999.59 566.32 1001.07 569.413C1001.39 570.091 1001.6 570.757 1001.6 570.757C1001.68 570.757 1001.75 569.792 1001.82 569.413C1003.3 560.922 1000.28 542.794 1000.28 542.794C1003.74 545.486 1005.85 564.63 1006.33 569.414C1006.4 570.104 1006.44 570.759 1006.44 570.759C1006.46 570.759 1006.48 569.778 1006.5 569.414C1006.96 561.982 1006.91 553.736 1006.91 553.736C1008.36 555.333 1009.51 570.757 1009.51 570.757L1009.48 569.413C1008.53 550.208 1011.93 543.895 1011.93 543.895C1010.27 553.331 1013.27 565.725 1014.27 569.413C1014.45 570.108 1014.57 570.757 1014.57 570.757C1014.79 570.757 1014.97 569.813 1015.14 569.413C1017.45 563.751 1014.57 550.709 1014.57 550.709C1017.22 554.121 1018.13 560.143 1018.43 564.651C1018.18 541.55 1020.07 534.001 1020.07 534.001C1018.71 542.331 1021.62 564.301 1022.33 569.413C1022.37 569.714 1022.37 569.682 1022.33 569.413H1022.39C1021.86 561.635 1024.46 547.632 1024.46 547.632C1024.46 553.736 1025.87 565.756 1026.31 569.413C1026.39 570.101 1026.44 570.757 1026.44 570.757C1026.67 570.309 1026.78 569.783 1026.92 569.413C1030.27 559.461 1026.44 542.794 1026.44 542.794C1031.55 549.603 1032.1 565.188 1032.15 569.412C1032.16 569.738 1032.16 569.827 1032.15 569.412C1032.15 569.412 1031.89 571.029 1032.61 569.412C1035.06 564.113 1032.02 547.632 1032.02 547.632C1035.03 550.834 1036.26 565.329 1036.53 569.412C1036.57 570.093 1036.63 570.757 1036.63 570.757C1036.7 570.757 1036.78 569.775 1036.84 569.412C1039.24 555.385 1032.15 539.847 1032.15 539.847C1039.18 544.245 1041 570.756 1041 570.756V582.849H955.002V569.412C954.989 544.805 959.836 541.037 959.836 541.037Z" fill="#042039"/>
<path d="M1045.84 541.037C1042.2 555.072 1046.17 570.351 1046.23 570.586C1046.22 570.512 1046.13 569.414 1046.13 569.414C1044.96 559.986 1047.8 554.668 1047.8 554.668C1045.88 562.825 1049.43 567.476 1051.5 569.414C1052.28 570.139 1052.86 570.759 1052.86 570.759C1052.92 570.759 1052.97 569.78 1053.02 569.414C1054.41 557.902 1047.81 543.237 1047.81 543.237C1052.03 546.995 1054.6 559.226 1055.72 565.955C1054.38 554.615 1056.6 549.392 1056.6 549.392C1055.72 558.876 1057.93 566.661 1058.85 569.414C1059.08 570.108 1059.24 570.759 1059.24 570.759C1059.34 570.759 1059.44 569.808 1059.53 569.414C1061.12 562.558 1060.34 545.654 1060.34 545.654C1061.91 549.597 1062.86 557.699 1063.37 563.58C1063.37 553.61 1066.49 547.632 1066.49 547.632C1063.19 560.383 1067.59 568.736 1067.59 568.736C1066.71 557.305 1069.79 554.447 1069.79 554.447C1067.52 559.179 1072.65 568.518 1072.65 568.518C1074.63 556.207 1069.79 538.838 1069.79 538.838C1072.72 542.965 1074.44 553.293 1075.34 560.803C1075.43 551.264 1079.42 547.632 1079.42 547.632C1075.41 557.305 1079.46 569.176 1079.46 569.176C1079.02 557.745 1081.88 552.247 1081.88 552.247C1081.52 557.294 1085.59 566.32 1087.07 569.413C1087.39 570.091 1087.6 570.757 1087.6 570.757C1087.68 570.757 1087.75 569.792 1087.82 569.413C1089.3 560.922 1086.28 542.794 1086.28 542.794C1089.74 545.486 1091.85 564.63 1092.33 569.414C1092.4 570.104 1092.44 570.759 1092.44 570.759C1092.46 570.759 1092.48 569.778 1092.5 569.414C1092.96 561.982 1092.91 553.736 1092.91 553.736C1094.36 555.333 1095.51 570.757 1095.51 570.757L1095.48 569.413C1094.53 550.208 1097.93 543.895 1097.93 543.895C1096.27 553.331 1099.27 565.725 1100.27 569.413C1100.45 570.108 1100.57 570.757 1100.57 570.757C1100.79 570.757 1100.97 569.813 1101.14 569.413C1103.45 563.751 1100.57 550.709 1100.57 550.709C1103.22 554.121 1104.13 560.143 1104.43 564.651C1104.18 541.55 1106.07 534.001 1106.07 534.001C1104.71 542.331 1107.62 564.301 1108.33 569.413C1108.37 569.714 1108.37 569.682 1108.33 569.413H1108.39C1107.86 561.635 1110.46 547.632 1110.46 547.632C1110.46 553.736 1111.87 565.756 1112.31 569.413C1112.39 570.101 1112.44 570.757 1112.44 570.757C1112.67 570.309 1112.78 569.783 1112.92 569.413C1116.27 559.461 1112.44 542.794 1112.44 542.794C1117.55 549.603 1118.1 565.188 1118.15 569.412C1118.16 569.738 1118.16 569.827 1118.15 569.412C1118.15 569.412 1117.89 571.029 1118.61 569.412C1121.06 564.113 1118.02 547.632 1118.02 547.632C1121.03 550.834 1122.26 565.329 1122.53 569.412C1122.57 570.093 1122.63 570.757 1122.63 570.757C1122.7 570.757 1122.78 569.775 1122.84 569.412C1125.24 555.385 1118.15 539.847 1118.15 539.847C1125.18 544.245 1127 570.756 1127 570.756V582.849H1041V569.412C1040.99 544.805 1045.84 541.037 1045.84 541.037Z" fill="#042039"/>
<path d="M1127.37 548.91C1124.83 558.702 1127.61 569.362 1127.65 569.526C1127.64 569.474 1127.58 568.708 1127.58 568.708C1126.76 562.13 1128.75 558.42 1128.75 558.42C1127.41 564.111 1129.88 567.356 1131.33 568.708C1131.87 569.214 1132.28 569.646 1132.28 569.646C1132.32 569.646 1132.35 568.963 1132.39 568.708C1133.36 560.676 1128.75 550.445 1128.75 550.445C1131.7 553.067 1133.49 561.6 1134.27 566.295C1133.33 558.383 1134.88 554.739 1134.88 554.739C1134.27 561.356 1135.81 566.787 1136.45 568.708C1136.62 569.192 1136.72 569.646 1136.72 569.646C1136.8 569.646 1136.87 568.983 1136.93 568.708C1138.04 563.925 1137.49 552.131 1137.49 552.131C1138.59 554.882 1139.25 560.535 1139.61 564.638C1139.6 557.682 1141.79 553.511 1141.79 553.511C1139.48 562.407 1142.55 568.235 1142.55 568.235C1141.94 560.26 1144.09 558.266 1144.09 558.266C1142.5 561.567 1146.08 568.083 1146.08 568.083C1147.46 559.494 1144.09 547.376 1144.09 547.376C1146.13 550.255 1147.33 557.461 1147.96 562.7C1148.02 556.045 1150.8 553.511 1150.8 553.511C1148.01 560.26 1150.83 568.542 1150.83 568.542C1150.53 560.567 1152.52 556.731 1152.52 556.731C1152.27 560.252 1155.11 566.549 1156.14 568.707C1156.37 569.18 1156.51 569.645 1156.51 569.645C1156.57 569.645 1156.62 568.972 1156.67 568.707C1157.7 562.783 1155.59 550.136 1155.59 550.136C1158 552.014 1159.48 565.37 1159.81 568.708C1159.86 569.189 1159.89 569.646 1159.89 569.646C1159.9 569.646 1159.92 568.962 1159.93 568.708C1160.25 563.523 1160.21 557.77 1160.21 557.77C1161.23 558.884 1162.03 569.645 1162.03 569.645L1162.01 568.707C1161.35 555.308 1163.72 550.904 1163.72 550.904C1162.56 557.487 1164.66 566.134 1165.35 568.707C1165.48 569.192 1165.56 569.645 1165.56 569.645C1165.71 569.645 1165.84 568.986 1165.96 568.707C1167.57 564.757 1165.56 555.658 1165.56 555.658C1167.41 558.038 1168.05 562.24 1168.25 565.385C1168.08 549.268 1169.4 544.001 1169.4 544.001C1168.45 549.813 1170.48 565.141 1170.98 568.707C1171.01 568.917 1171 568.895 1170.98 568.707H1171.02C1170.65 563.281 1172.46 553.511 1172.46 553.511C1172.46 557.77 1173.44 566.156 1173.75 568.707C1173.81 569.187 1173.84 569.645 1173.84 569.645C1174 569.332 1174.08 568.965 1174.18 568.707C1176.52 561.764 1173.84 550.136 1173.84 550.136C1177.4 554.886 1177.79 565.76 1177.83 568.707C1177.83 568.934 1177.83 568.996 1177.83 568.707C1177.83 568.707 1177.65 569.835 1178.14 568.707C1179.85 565.01 1177.73 553.511 1177.73 553.511C1179.84 555.745 1180.69 565.858 1180.88 568.707C1180.91 569.182 1180.95 569.645 1180.95 569.645C1181 569.645 1181.06 568.96 1181.1 568.707C1182.77 558.92 1177.82 548.08 1177.82 548.08C1182.73 551.148 1184 569.644 1184 569.644V578.081H1124V568.707C1123.99 551.539 1127.37 548.91 1127.37 548.91Z" fill="#042039"/>
<path d="M1186.88 543.646C1183.96 554.907 1187.15 567.166 1187.19 567.355C1187.18 567.295 1187.11 566.414 1187.11 566.414C1186.18 558.849 1188.46 554.583 1188.46 554.583C1186.92 561.127 1189.76 564.859 1191.43 566.414C1192.05 566.996 1192.52 567.493 1192.52 567.493C1192.56 567.493 1192.61 566.707 1192.64 566.414C1193.76 557.177 1188.46 545.411 1188.46 545.411C1191.85 548.427 1193.91 558.24 1194.81 563.639C1193.73 554.54 1195.52 550.35 1195.52 550.35C1194.81 557.959 1196.58 564.205 1197.32 566.414C1197.51 566.971 1197.63 567.493 1197.63 567.493C1197.72 567.493 1197.79 566.73 1197.87 566.414C1199.14 560.914 1198.51 547.35 1198.51 547.35C1199.78 550.514 1200.54 557.015 1200.95 561.733C1200.94 553.734 1203.45 548.937 1203.45 548.937C1200.81 559.168 1204.33 565.87 1204.33 565.87C1203.63 556.699 1206.1 554.406 1206.1 554.406C1204.27 558.202 1208.39 565.695 1208.39 565.695C1209.98 555.818 1206.1 541.882 1206.1 541.882C1208.45 545.193 1209.83 553.48 1210.55 559.505C1210.63 551.851 1213.82 548.937 1213.82 548.937C1210.61 556.699 1213.86 566.223 1213.86 566.223C1213.51 557.052 1215.8 552.64 1215.8 552.64C1215.51 556.69 1218.78 563.931 1219.96 566.413C1220.22 566.957 1220.39 567.492 1220.39 567.492C1220.45 567.492 1220.51 566.718 1220.56 566.413C1221.75 559.6 1219.33 545.056 1219.33 545.056C1222.1 547.216 1223.8 562.575 1224.19 566.414C1224.24 566.967 1224.27 567.493 1224.27 567.493C1224.28 567.493 1224.3 566.706 1224.32 566.414C1224.69 560.451 1224.64 553.835 1224.64 553.835C1225.81 555.116 1226.73 567.492 1226.74 567.492L1226.71 566.413C1225.95 551.004 1228.68 545.939 1228.68 545.939C1227.34 553.51 1229.75 563.454 1230.55 566.413C1230.7 566.971 1230.79 567.492 1230.79 567.492C1230.97 567.492 1231.12 566.734 1231.25 566.413C1233.1 561.87 1230.79 551.407 1230.79 551.407C1232.92 554.144 1233.65 558.976 1233.89 562.593C1233.69 544.058 1235.2 538.001 1235.2 538.001C1234.12 544.685 1236.45 562.312 1237.02 566.413C1237.06 566.654 1237.05 566.629 1237.02 566.413H1237.07C1236.65 560.173 1238.73 548.937 1238.73 548.937C1238.73 553.835 1239.86 563.479 1240.21 566.413C1240.28 566.965 1240.32 567.492 1240.32 567.492C1240.5 567.132 1240.59 566.71 1240.71 566.413C1243.39 558.428 1240.32 545.056 1240.32 545.056C1244.42 550.519 1244.86 563.024 1244.9 566.413C1244.9 566.674 1244.91 566.745 1244.9 566.413C1244.9 566.413 1244.69 567.71 1245.27 566.413C1247.23 562.161 1244.79 548.937 1244.79 548.937C1247.21 551.506 1248.19 563.136 1248.41 566.413C1248.45 566.959 1248.49 567.491 1248.49 567.491C1248.55 567.491 1248.62 566.704 1248.67 566.413C1250.59 555.158 1244.9 542.692 1244.9 542.692C1250.54 546.22 1252 567.49 1252 567.49V577.193H1183V566.413C1182.99 546.67 1186.88 543.646 1186.88 543.646Z" fill="#042039"/>
<path d="M1313.59 539.727C1316.11 551.083 1312.5 563.223 1312.45 563.41C1312.46 563.35 1312.56 562.472 1312.56 562.472C1313.76 554.945 1311.63 550.601 1311.63 550.601C1312.94 557.196 1309.97 560.826 1308.25 562.322C1307.6 562.881 1307.12 563.362 1307.12 563.362C1307.07 563.36 1307.06 562.574 1307.03 562.279C1306.24 553.009 1311.95 541.436 1311.95 541.436C1308.45 544.331 1306.05 554.066 1304.96 559.43C1306.36 550.374 1304.72 546.124 1304.72 546.124C1305.16 553.754 1303.18 559.934 1302.36 562.116C1302.15 562.665 1302.01 563.183 1302.01 563.183C1301.92 563.18 1301.87 562.415 1301.81 562.097C1300.73 556.555 1301.83 543.022 1301.83 543.022C1300.46 546.14 1299.47 552.61 1298.9 557.311C1299.18 549.317 1296.84 544.436 1296.84 544.436C1299.13 554.752 1295.37 561.327 1295.37 561.327C1296.39 552.186 1294 549.808 1294 549.808C1295.7 553.666 1291.32 561.011 1291.32 561.011C1290.08 551.084 1294.44 537.292 1294.44 537.292C1291.98 540.519 1290.31 548.753 1289.38 554.749C1289.57 547.097 1286.48 544.073 1286.48 544.073C1289.42 551.942 1285.84 561.347 1285.84 561.347C1286.51 552.194 1284.37 547.705 1284.37 547.705C1284.52 551.762 1281 558.885 1279.73 561.324C1279.45 561.858 1279.27 562.387 1279.27 562.387C1279.2 562.384 1279.17 561.609 1279.13 561.302C1278.18 554.453 1281.11 540.002 1281.11 540.002C1278.26 542.063 1276.03 557.354 1275.51 561.177C1275.44 561.728 1275.39 562.252 1275.39 562.252C1275.37 562.252 1275.38 561.465 1275.38 561.172C1275.22 555.201 1275.49 548.59 1275.49 548.59C1274.28 549.83 1272.93 562.165 1272.92 562.165L1272.99 561.088C1274.29 545.715 1271.74 540.558 1271.74 540.558C1272.81 548.171 1270.05 558.024 1269.15 560.954C1268.98 561.506 1268.87 562.023 1268.87 562.023C1268.69 562.017 1268.57 561.254 1268.45 560.929C1266.76 556.325 1269.43 545.948 1269.43 545.948C1267.21 548.609 1266.31 553.413 1265.95 557.019C1266.79 538.503 1265.49 532.396 1265.49 532.396C1266.34 539.114 1263.39 556.649 1262.68 560.727C1262.64 560.968 1262.64 560.943 1262.68 560.727L1262.63 560.726C1263.27 554.505 1261.58 543.203 1261.58 543.203C1261.41 548.098 1259.95 557.697 1259.49 560.616C1259.41 561.165 1259.35 561.69 1259.35 561.69C1259.18 561.324 1259.11 560.9 1259 560.599C1256.59 552.525 1260.13 539.269 1260.13 539.269C1255.85 544.585 1254.97 557.067 1254.81 560.452C1254.79 560.713 1254.79 560.784 1254.81 560.452C1254.81 560.452 1254.97 561.756 1254.44 560.439C1252.63 556.122 1255.53 542.991 1255.53 542.991C1253.02 545.474 1251.63 557.063 1251.3 560.329C1251.24 560.874 1251.18 561.405 1251.18 561.405C1251.12 561.403 1251.08 560.613 1251.04 560.321C1249.52 549.005 1255.64 536.746 1255.64 536.746C1249.88 540.074 1247.67 561.281 1247.67 561.281L1247.33 570.978L1316.29 573.388L1316.67 562.615C1317.37 542.884 1313.59 539.727 1313.59 539.727Z" fill="#042039"/>
<path d="M1371.25 539.727C1373.78 551.083 1370.16 563.223 1370.11 563.41C1370.12 563.35 1370.23 562.472 1370.23 562.472C1371.43 554.945 1369.29 550.601 1369.29 550.601C1370.6 557.196 1367.63 560.826 1365.91 562.322C1365.27 562.881 1364.79 563.362 1364.79 563.362C1364.74 563.36 1364.72 562.574 1364.7 562.279C1363.9 553.009 1369.61 541.436 1369.61 541.436C1366.12 544.331 1363.72 554.066 1362.63 559.43C1364.02 550.374 1362.39 546.124 1362.39 546.124C1362.83 553.754 1360.84 559.934 1360.02 562.116C1359.82 562.665 1359.68 563.183 1359.68 563.183C1359.59 563.18 1359.54 562.415 1359.48 562.097C1358.4 556.555 1359.5 543.022 1359.5 543.022C1358.12 546.14 1357.14 552.61 1356.56 557.311C1356.85 549.317 1354.51 544.436 1354.51 544.436C1356.79 554.752 1353.03 561.327 1353.03 561.327C1354.06 552.186 1351.67 549.808 1351.67 549.808C1353.36 553.666 1348.98 561.011 1348.98 561.011C1347.74 551.084 1352.11 537.292 1352.11 537.292C1349.64 540.519 1347.98 548.753 1347.05 554.749C1347.24 547.097 1344.14 544.073 1344.14 544.073C1347.08 551.942 1343.5 561.347 1343.5 561.347C1344.18 552.194 1342.04 547.705 1342.04 547.705C1342.18 551.762 1338.67 558.885 1337.4 561.324C1337.12 561.858 1336.93 562.387 1336.93 562.387C1336.87 562.384 1336.84 561.609 1336.79 561.302C1335.85 554.453 1338.78 540.002 1338.78 540.002C1335.93 542.063 1333.69 557.354 1333.18 561.177C1333.1 561.728 1333.06 562.252 1333.06 562.252C1333.04 562.252 1333.05 561.465 1333.04 561.172C1332.88 555.201 1333.16 548.59 1333.16 548.59C1331.94 549.83 1330.59 562.165 1330.59 562.165L1330.66 561.088C1331.95 545.715 1329.4 540.558 1329.4 540.558C1330.47 548.171 1327.71 558.024 1326.81 560.954C1326.65 561.506 1326.53 562.023 1326.53 562.023C1326.36 562.017 1326.24 561.254 1326.12 560.929C1324.42 556.325 1327.1 545.948 1327.1 545.948C1324.87 548.609 1323.98 553.413 1323.61 557.019C1324.46 538.503 1323.16 532.396 1323.16 532.396C1324.01 539.114 1321.06 556.649 1320.35 560.727C1320.31 560.968 1320.31 560.943 1320.35 560.727L1320.3 560.726C1320.94 554.505 1319.25 543.203 1319.25 543.203C1319.08 548.098 1317.62 557.697 1317.16 560.616C1317.07 561.165 1317.01 561.69 1317.01 561.69C1316.85 561.324 1316.77 560.9 1316.66 560.599C1314.26 552.525 1317.8 539.269 1317.8 539.269C1313.51 544.585 1312.63 557.067 1312.47 560.452C1312.46 560.713 1312.46 560.784 1312.47 560.452C1312.47 560.452 1312.64 561.756 1312.11 560.439C1310.29 556.122 1313.19 542.991 1313.19 542.991C1310.69 545.474 1309.3 557.063 1308.97 560.329C1308.91 560.874 1308.85 561.405 1308.85 561.405C1308.79 561.403 1308.75 560.613 1308.71 560.321C1307.19 549.005 1313.31 536.746 1313.31 536.746C1307.54 540.074 1305.34 561.281 1305.34 561.281L1305 570.978L1373.96 573.388L1374.34 562.615C1375.04 542.884 1371.25 539.727 1371.25 539.727Z" fill="#042039"/>
<path d="M231.038 46.2091V29.6895H198.081V46.2756L231.038 46.2091Z" fill="#FAEFD9"/>
<path d="M231.038 29.6895V31.9659H205.125C202.389 31.9659 200.17 34.1814 200.17 36.9144V46.2714L198.081 46.2756V29.6895H231.038Z" fill="#FAEFD9"/>
<path d="M211.473 46.2482V46.2473V37.2713C211.473 36.4289 211.819 35.6673 212.377 35.1152C212.936 34.5632 213.707 34.2217 214.56 34.2217C216.265 34.2217 217.646 35.5876 217.646 37.2713V46.235" fill="#EAF3FA"/>
<path d="M207.864 46.2549V37.2656C207.864 35.5848 206.482 34.2217 204.777 34.2217C203.924 34.2217 203.153 34.5622 202.594 35.1133C202.036 35.6644 201.69 36.4252 201.69 37.2656V46.2672" fill="#EAF3FA"/>
<path d="M227.523 46.2159V37.2798C227.523 35.5914 226.142 34.2227 224.437 34.2227C223.584 34.2227 222.813 34.5651 222.254 35.118C221.696 35.671 221.35 36.4356 221.35 37.2798V46.2282" fill="#EAF3FA"/>
<path d="M217.646 44.3439V46.2361L211.473 46.2494V46.2485V37.2725C211.473 36.4301 211.818 35.6685 212.377 35.1164C212.8 34.6977 213.347 34.4006 213.958 34.2812C213.825 34.6209 213.752 34.9895 213.752 35.3754V40.4633C213.752 42.6097 215.497 44.3484 217.646 44.3439Z" fill="#C6DEF3"/>
<path d="M202.594 35.1144C203.017 34.6967 203.563 34.4004 204.173 34.2812C204.042 34.6193 203.969 34.986 203.969 35.3696V40.4822C203.969 42.6288 205.714 44.3677 207.863 44.3635V46.256L201.69 46.2683V37.2667C201.69 36.4263 202.036 35.6655 202.594 35.1144Z" fill="#C6DEF3"/>
<path d="M222.254 35.1185C222.678 34.6987 223.225 34.4007 223.837 34.2812C223.703 34.6232 223.629 34.9946 223.629 35.3832V40.4427C223.629 42.5892 225.374 44.3282 227.523 44.3239V46.2164L221.35 46.2287V37.2802C221.35 36.436 221.696 35.6715 222.254 35.1185Z" fill="#C6DEF3"/>
<path d="M195.649 16.9783C195.119 16.9783 194.987 16.2411 195.485 16.0595C197.143 15.4549 199.032 14.5745 200.939 13.2805C203.038 11.856 204.555 10.34 205.605 9.10547H224.274C225.324 10.34 226.841 11.856 228.94 13.2805C230.847 14.5745 232.736 15.4549 234.394 16.0595C234.892 16.2411 234.76 16.9783 234.23 16.9783H195.649Z" fill="#C6DEF3"/>
<path d="M195.485 16.0595C197.143 15.4549 199.032 14.5745 200.939 13.2805C203.038 11.856 204.555 10.34 205.605 9.10547H210.262C209.42 9.91135 208.409 10.7572 207.207 11.5731C207.175 11.5952 207.142 11.6172 207.109 11.6391C205.48 12.7334 206.249 15.2709 208.213 15.2709H232.477C233.14 15.5758 233.783 15.8366 234.394 16.0595C234.892 16.241 234.76 16.9783 234.23 16.9783H195.649C195.119 16.9783 194.987 16.2411 195.485 16.0595Z" fill="#90C0EA"/>
<path d="M196.321 29.69C195.776 29.69 195.66 28.9247 196.181 28.7627C197.662 28.3013 199.294 27.6682 200.938 26.794C203.038 25.6785 204.554 24.4913 205.604 23.5244H224.274C225.324 24.4913 226.841 25.6784 228.94 26.794C230.585 27.6681 232.217 28.3013 233.698 28.7627C234.218 28.9247 234.103 29.69 233.558 29.69H196.321Z" fill="#C6DEF3"/>
<path d="M196.18 28.7626C197.662 28.3013 199.294 27.6681 200.938 26.7939C203.038 25.6784 204.554 24.4912 205.604 23.5244H210.987C210.254 24.0413 209.411 24.5715 208.442 25.0866C208.409 25.104 208.376 25.1211 208.344 25.1383C206.947 25.8729 207.466 27.9825 209.044 27.9825H231.504C232.26 28.2863 232.997 28.5444 233.7 28.7634C234.22 28.925 234.102 29.6899 233.558 29.6899H196.321C195.776 29.6899 195.66 28.9246 196.18 28.7626Z" fill="#90C0EA"/>
<path d="M223.82 3.88965H206.059C205.797 3.88965 205.584 4.10216 205.584 4.36424V9.10665H224.294V4.36424C224.294 4.10216 224.082 3.88965 223.82 3.88965Z" fill="#FAEFD9"/>
<path d="M206.059 3.88965H207.674C207.674 5.61837 209.077 7.01983 210.808 7.01983H224.294V9.10665H205.584V4.36396C205.584 4.10197 205.797 3.88965 206.059 3.88965Z" fill="#FAEFD9"/>
<path d="M224.294 16.9785H218.121V23.5235H224.294V16.9785Z" fill="#FAEFD9"/>
<path d="M211.758 16.9756H205.584V23.5205H211.758V16.9756Z" fill="#FAEFD9"/>
<path d="M224.294 16.9785V19.0653C222.039 19.0653 220.21 20.8915 220.21 23.1441V23.5235H218.121V16.9785H224.294Z" fill="#FAEFD9"/>
<path d="M211.758 16.9756V19.0624C209.502 19.0624 207.674 20.8885 207.674 23.1411V23.5205H205.584V16.9756H211.758Z" fill="#FAEFD9"/>
<path d="M213.259 1.53503L214.939 0L216.62 1.53503C217.091 1.96583 217.361 2.58638 217.361 3.23851V3.88898H212.518V3.23851C212.518 2.58638 212.788 1.96583 213.259 1.53503Z" fill="#C6DEF3"/>
<path d="M213.259 1.53503L214.939 0C215 0.274106 214.954 0.561063 214.809 0.801755C214.769 0.867573 214.721 0.927884 214.662 0.977822C214.216 1.35942 213.752 1.58286 213.752 2.19514C213.752 2.55443 214.044 2.84561 214.404 2.84561H217.328C217.35 2.97441 217.361 3.10577 217.361 3.23851V3.88898H212.518V3.23851C212.517 2.58638 212.788 1.96583 213.259 1.53503Z" fill="#90C0EA"/>
</svg>
