<svg width="96" height="96" viewBox="0 0 96 96" fill="none" xmlns="http://www.w3.org/2000/svg">
<g filter="url(#filter0_d)">
<path d="M16 40C16 22.3269 30.3269 8 48 8V8C65.6731 8 80 22.3269 80 40V40C80 57.6731 65.6731 72 48 72V72C30.3269 72 16 57.6731 16 40V40Z" fill="#F2A922"/>
<path fill-rule="evenodd" clip-rule="evenodd" d="M39.25 18C39.25 17.5858 38.9142 17.25 38.5 17.25C38.0858 17.25 37.75 17.5858 37.75 18V38.25L38 38.25L39.25 38.25H58C58.4142 38.25 58.75 37.9142 58.75 37.5C58.75 37.0858 58.4142 36.75 58 36.75L39.25 36.75V18ZM43 28C42.4477 28 42 28.4477 42 29V36H45V29C45 28.4477 44.5523 28 44 28H43ZM47 25C47 24.4477 47.4477 24 48 24H49C49.5523 24 50 24.4477 50 25V36H47V25ZM53 20C52.4477 20 52 20.4477 52 21V36H55V21C55 20.4477 54.5523 20 54 20H53Z" fill="#262626"/>
<path d="M35.8438 51.7109L34.4531 53.1562V57H32.9531V45.625H34.4531V51.25L39.5078 45.625H41.3203L36.8438 50.6484L41.6719 57H39.875L35.8438 51.7109ZM44.4844 52.5469V57H42.9844V45.625H47.1797C48.4245 45.625 49.3984 45.9427 50.1016 46.5781C50.8099 47.2135 51.1641 48.0547 51.1641 49.1016C51.1641 50.2057 50.8177 51.0573 50.125 51.6562C49.4375 52.25 48.4505 52.5469 47.1641 52.5469H44.4844ZM44.4844 51.3203H47.1797C47.9818 51.3203 48.5964 51.1328 49.0234 50.7578C49.4505 50.3776 49.6641 49.8307 49.6641 49.1172C49.6641 48.4401 49.4505 47.8984 49.0234 47.4922C48.5964 47.0859 48.0104 46.875 47.2656 46.8594H44.4844V51.3203ZM54.6875 57H53.1875V45.625H54.6875V57ZM62.1328 54.7578C62.1328 54.3672 61.9844 54.0651 61.6875 53.8516C61.3958 53.6328 60.8828 53.4453 60.1484 53.2891C59.4193 53.1328 58.8385 52.9453 58.4062 52.7266C57.9792 52.5078 57.6615 52.2474 57.4531 51.9453C57.25 51.6432 57.1484 51.2839 57.1484 50.8672C57.1484 50.1745 57.4401 49.5885 58.0234 49.1094C58.612 48.6302 59.362 48.3906 60.2734 48.3906C61.2318 48.3906 62.0078 48.638 62.6016 49.1328C63.2005 49.6276 63.5 50.2604 63.5 51.0312H62.0469C62.0469 50.6354 61.8776 50.2943 61.5391 50.0078C61.2057 49.7214 60.7839 49.5781 60.2734 49.5781C59.7474 49.5781 59.3359 49.6927 59.0391 49.9219C58.7422 50.151 58.5938 50.4505 58.5938 50.8203C58.5938 51.1693 58.7318 51.4323 59.0078 51.6094C59.2839 51.7865 59.7812 51.9557 60.5 52.1172C61.224 52.2786 61.8099 52.4714 62.2578 52.6953C62.7057 52.9193 63.0365 53.1901 63.25 53.5078C63.4688 53.8203 63.5781 54.2031 63.5781 54.6562C63.5781 55.4115 63.276 56.0182 62.6719 56.4766C62.0677 56.9297 61.2839 57.1562 60.3203 57.1562C59.6432 57.1562 59.0443 57.0365 58.5234 56.7969C58.0026 56.5573 57.5938 56.224 57.2969 55.7969C57.0052 55.3646 56.8594 54.8984 56.8594 54.3984H58.3047C58.3307 54.8828 58.5234 55.2682 58.8828 55.5547C59.2474 55.8359 59.7266 55.9766 60.3203 55.9766C60.8672 55.9766 61.3047 55.8672 61.6328 55.6484C61.9661 55.4245 62.1328 55.1276 62.1328 54.7578Z" fill="#262626"/>
</g>
<defs>
<filter id="filter0_d" x="0" y="0" width="96" height="96" filterUnits="userSpaceOnUse" color-interpolation-filters="sRGB">
<feFlood flood-opacity="0" result="BackgroundImageFix"/>
<feColorMatrix in="SourceAlpha" type="matrix" values="0 0 0 0 0 0 0 0 0 0 0 0 0 0 0 0 0 0 127 0"/>
<feOffset dy="8"/>
<feGaussianBlur stdDeviation="8"/>
<feColorMatrix type="matrix" values="0 0 0 0 0.94902 0 0 0 0 0.662745 0 0 0 0 0.133333 0 0 0 0.32 0"/>
<feBlend mode="normal" in2="BackgroundImageFix" result="effect1_dropShadow"/>
<feBlend mode="normal" in="SourceGraphic" in2="effect1_dropShadow" result="shape"/>
</filter>
</defs>
</svg>
