<svg width="24" height="24" viewBox="0 0 24 24" fill="none" xmlns="http://www.w3.org/2000/svg">
<path fill-rule="evenodd" clip-rule="evenodd" d="M18.3298 19.7417C18.7574 19.3921 18.7545 18.7545 18.364 18.364C17.9734 17.9734 17.3436 17.9792 16.9074 18.318C15.9293 19.0777 14.7843 19.6029 13.5607 19.8463C12.0089 20.155 10.4003 19.9965 8.93853 19.391C7.47672 18.7855 6.22729 17.7602 5.34824 16.4446C4.46919 15.129 4 13.5823 4 12C4 10.4178 4.46919 8.87104 5.34824 7.55544C6.22729 6.23985 7.47672 5.21447 8.93853 4.60897C10.4003 4.00347 12.0089 3.84504 13.5607 4.15372C14.7843 4.39711 15.9293 4.92228 16.9074 5.682C17.3436 6.02079 17.9734 6.02657 18.364 5.63604C18.7545 5.24552 18.7574 4.60789 18.3298 4.25831C17.0654 3.2245 15.5627 2.51275 13.9509 2.19215C12.0111 1.8063 10.0004 2.00433 8.17316 2.76121C6.3459 3.51809 4.78412 4.79981 3.6853 6.4443C2.58649 8.08879 2 10.0222 2 12C2 13.9778 2.58649 15.9112 3.6853 17.5557C4.78412 19.2002 6.3459 20.4819 8.17317 21.2388C10.0004 21.9957 12.0111 22.1937 13.9509 21.8079C15.5627 21.4873 17.0654 20.7755 18.3298 19.7417ZM18.2929 8.2929C18.6834 7.90237 19.3166 7.90237 19.7071 8.2929L22 10.5858C22.781 11.3668 22.781 12.6332 22 13.4142L19.7071 15.7071C19.3166 16.0976 18.6834 16.0976 18.2929 15.7071C17.9024 15.3166 17.9024 14.6834 18.2929 14.2929L19.5858 13L13 13C12.4477 13 12 12.5523 12 12C12 11.4477 12.4477 11 13 11H19.5858L18.2929 9.70711C17.9024 9.31659 17.9024 8.68342 18.2929 8.2929Z" fill="#4B4B4B"/>
</svg>
