<svg width="298" height="238" viewBox="0 0 298 238" fill="none" xmlns="http://www.w3.org/2000/svg">
<path d="M202.471 0H67.3175C66.2123 0 65.3164 0.892897 65.3164 1.99434V88.1424C65.3164 89.2438 66.2123 90.1367 67.3175 90.1367H202.471C203.576 90.1367 204.472 89.2438 204.472 88.1424V1.99434C204.472 0.892897 203.576 0 202.471 0Z" fill="#0C3559"/>
<path d="M148.979 45.0684H120.819V118.958H148.979V45.0684Z" fill="#0C3559"/>
<path d="M163.871 115.041H105.917V118.967H163.871V115.041Z" fill="#0C3559"/>
<path d="M120.819 115.041H117.774V118.967H120.819V115.041Z" fill="#0C3559"/>
<path d="M197.974 6.33691H70.2061V83.4562H197.974V6.33691Z" fill="#5A9FDB"/>
<path d="M98.0862 59.2518C111.324 59.2518 122.055 48.5569 122.055 35.3642C122.055 22.1714 111.324 11.4766 98.0862 11.4766C84.8488 11.4766 74.1177 22.1714 74.1177 35.3642C74.1177 48.5569 84.8488 59.2518 98.0862 59.2518Z" fill="white"/>
<path d="M94.8594 56.526C94.5354 58.1818 85.361 56.526 85.7094 54.7505L87.8865 43.665L97.0282 45.4406L94.8594 56.526Z" fill="#CFB293"/>
<path d="M86.5884 50.2855C86.782 49.2987 90.5978 45.6558 92.2292 46.5658C90.2263 45.3915 88.7759 43.2877 87.8819 43.6647L86.5884 50.2855Z" fill="#0C3559"/>
<path d="M97.8039 49.7604C104.491 49.7604 109.912 44.3577 109.912 37.6932C109.912 31.0286 104.491 25.626 97.8039 25.626C91.1168 25.626 85.6958 31.0286 85.6958 37.6932C85.6958 44.3577 91.1168 49.7604 97.8039 49.7604Z" fill="#CFB293"/>
<path d="M110.979 41.7293C111.039 41.1538 110.188 40.5941 109.079 40.4792C107.969 40.3643 107.021 40.7378 106.961 41.3133C106.901 41.8889 107.752 42.4486 108.861 42.5635C109.971 42.6784 110.919 42.3049 110.979 41.7293Z" fill="#ECADAD"/>
<path d="M98.3476 40.4207C98.4075 39.8452 97.5565 39.2855 96.4468 39.1706C95.3371 39.0557 94.3888 39.4292 94.3288 40.0047C94.2688 40.5803 95.1198 41.14 96.2296 41.2549C97.3393 41.3698 98.2876 40.9963 98.3476 40.4207Z" fill="#ECADAD"/>
<path d="M104.293 38.8535C104.614 39.4274 106.309 41.8694 104.178 42.566" stroke="#0C3559" stroke-width="1.00841" stroke-miterlimit="10" stroke-linecap="round"/>
<path d="M99.8555 44.7659C99.2541 44.6859 98.3982 43.8606 97.9746 43.1357" stroke="#0C3559" stroke-width="1.00841" stroke-miterlimit="10" stroke-linecap="round"/>
<path d="M89.8184 38.5384C89.8184 42.0737 85.8928 44.407 84.5731 44.407C83.1104 44.407 82.9175 43.3524 82.9175 42.8937C82.9175 41.4119 83.7892 40.1418 85.6316 38.5384C85.3109 37.9878 82.9175 35.0777 82.9175 30.9724C82.9175 26.6294 85.588 22.9965 87.3804 22.9965C89.2879 22.9965 90.5548 24.9665 90.5548 25.7918C90.5548 19.7299 97.0778 15.3857 100.951 15.3857C104.563 15.3857 105.184 16.9493 105.184 18.228C105.184 21.018 102.975 24.003 102.147 24.7376C104.167 23.2541 107.323 21.7583 110.059 21.7583C111.778 21.7583 113.969 22.2411 113.969 24.6006C113.969 28.9247 109.906 31.428 108.548 32.1282C108.021 31.1194 107.356 30.1881 106.573 29.3608C106.825 30.1772 105.82 31.6626 103.905 31.998C102.845 32.1816 89.8184 30.434 89.8184 38.5384Z" fill="#0C3559"/>
<path d="M88.7144 41.6296C90.1864 41.6296 91.3796 40.4405 91.3796 38.9735C91.3796 37.5066 90.1864 36.3174 88.7144 36.3174C87.2425 36.3174 86.0493 37.5066 86.0493 38.9735C86.0493 40.4405 87.2425 41.6296 88.7144 41.6296Z" fill="#CFB293"/>
<path d="M128.644 23.3145H152.92" stroke="white" stroke-width="4.03363" stroke-miterlimit="10" stroke-linecap="round"/>
<path d="M128.579 34.1533H190.973" stroke="white" stroke-width="4.03363" stroke-miterlimit="10" stroke-linecap="round"/>
<path d="M128.579 44.958H190.973" stroke="white" stroke-width="4.03363" stroke-miterlimit="10" stroke-linecap="round"/>
<path d="M128.579 55.7637H190.973" stroke="white" stroke-width="4.03363" stroke-miterlimit="10" stroke-linecap="round"/>
<path d="M77.8774 66.5693H190.973" stroke="white" stroke-width="4.03363" stroke-miterlimit="10" stroke-linecap="round"/>
<path d="M209.588 104.267C209.588 101.326 207.196 98.9424 204.246 98.9424C201.295 98.9424 198.903 101.326 198.903 104.267V107.36C198.903 110.3 201.295 112.684 204.246 112.684C207.196 112.684 209.588 110.3 209.588 107.36V104.267Z" stroke="#F2A922" stroke-width="4.03363" stroke-miterlimit="10"/>
<path d="M203.893 95.7324V114.013C203.897 115.361 204.437 116.653 205.394 117.606C206.35 118.56 207.646 119.098 208.999 119.102H224.16C225.513 119.098 226.809 118.56 227.765 117.606C228.722 116.653 229.261 115.361 229.266 114.013V95.7324H203.893Z" fill="#FCD995"/>
<path d="M230.935 94.2178H201.782C201.385 94.2178 201.062 94.5391 201.062 94.9354C201.062 95.3318 201.385 95.6531 201.782 95.6531H230.935C231.333 95.6531 231.655 95.3318 231.655 94.9354C231.655 94.5391 231.333 94.2178 230.935 94.2178Z" fill="#F2A922"/>
<path d="M216.581 111.686C218.946 111.686 220.863 109.776 220.863 107.419C220.863 105.062 218.946 103.151 216.581 103.151C214.216 103.151 212.299 105.062 212.299 107.419C212.299 109.776 214.216 111.686 216.581 111.686Z" fill="white"/>
<path d="M299.617 237.431L301.534 236.929C302.519 236.672 303.107 235.668 302.848 234.687L274.031 125.347C273.773 124.367 272.765 123.78 271.781 124.038L269.863 124.54C268.879 124.798 268.291 125.802 268.55 126.782L297.367 236.122C297.625 237.103 298.633 237.689 299.617 237.431Z" fill="#90C0EA"/>
<path d="M267.421 124.526L265.504 124.024C264.519 123.766 263.512 124.353 263.254 125.334L234.436 234.673C234.178 235.654 234.766 236.658 235.75 236.915L237.668 237.417C238.652 237.675 239.659 237.089 239.918 236.108L268.735 126.768C268.994 125.788 268.405 124.784 267.421 124.526Z" fill="#90C0EA"/>
<path d="M228.317 124.531L226.4 124.029C225.415 123.771 224.408 124.358 224.15 125.338L195.332 234.678C195.074 235.659 195.662 236.663 196.646 236.92L198.564 237.422C199.548 237.68 200.555 237.094 200.814 236.113L229.631 126.773C229.89 125.793 229.301 124.789 228.317 124.531Z" fill="#C6DEF3"/>
<path d="M260.018 237.434L261.936 236.932C262.92 236.675 263.508 235.671 263.25 234.69L234.432 125.35C234.174 124.37 233.167 123.783 232.182 124.041L230.265 124.543C229.281 124.801 228.692 125.805 228.951 126.785L257.768 236.125C258.027 237.106 259.034 237.692 260.018 237.434Z" fill="#C6DEF3"/>
<path d="M68.8336 124.299L66.9101 123.805C65.9229 123.551 64.9163 124.143 64.6619 125.127L36.2992 234.806C36.0448 235.79 36.6389 236.793 37.6261 237.047L39.5496 237.541C40.5368 237.794 41.5434 237.202 41.7979 236.218L70.1605 126.54C70.4149 125.556 69.8209 124.552 68.8336 124.299Z" fill="#90C0EA"/>
<path d="M100.107 237.039L102.031 236.545C103.018 236.292 103.612 235.288 103.358 234.304L74.995 124.626C74.7406 123.642 73.734 123.05 72.7468 123.303L70.8233 123.797C69.836 124.051 69.242 125.054 69.4964 126.038L97.859 235.717C98.1135 236.701 99.1201 237.293 100.107 237.039Z" fill="#90C0EA"/>
<path d="M286.823 118.968H10.9478C10.0473 118.968 9.31738 119.695 9.31738 120.593V125.702C9.31738 126.599 10.0473 127.326 10.9478 127.326H286.823C287.723 127.326 288.453 126.599 288.453 125.702V120.593C288.453 119.695 287.723 118.968 286.823 118.968Z" fill="#C6DEF3"/>
<path d="M28.1371 124.536L26.2194 124.034C25.2353 123.776 24.2279 124.362 23.9694 125.343L-4.84785 234.683C-5.10635 235.664 -4.51811 236.668 -3.53398 236.925L-1.61632 237.427C-0.632189 237.685 0.375164 237.099 0.633663 236.118L29.451 126.778C29.7095 125.797 29.1212 124.793 28.1371 124.536Z" fill="#C6DEF3"/>
<path d="M59.8429 237.435L61.7606 236.933C62.7447 236.676 63.3329 235.672 63.0744 234.691L34.2571 125.351C33.9986 124.371 32.9913 123.784 32.0071 124.042L30.0895 124.544C29.1054 124.802 28.5171 125.805 28.7756 126.786L57.5929 236.126C57.8514 237.107 58.8588 237.693 59.8429 237.435Z" fill="#C6DEF3"/>
</svg>
