<svg width="235" height="824" viewBox="0 0 235 824" fill="none" xmlns="http://www.w3.org/2000/svg">
<g clip-path="url(#clip0)">
<rect width="235" height="824" rx="20" fill="#DFF6F5"/>
<path d="M170.971 293H35.8173C34.7121 293 33.8162 293.893 33.8162 294.994V381.142C33.8162 382.244 34.7121 383.137 35.8173 383.137H170.971C172.076 383.137 172.972 382.244 172.972 381.142V294.994C172.972 293.893 172.076 293 170.971 293Z" fill="#0C3559"/>
<path d="M117.479 338.068H89.3188V411.957H117.479V338.068Z" fill="#0C3559"/>
<path d="M132.371 408.041H74.417V411.968H132.371V408.041Z" fill="#0C3559"/>
<path d="M89.3184 408.041H86.2739V411.968H89.3184V408.041Z" fill="#0C3559"/>
<path d="M166.473 299.337H38.7056V376.456H166.473V299.337Z" fill="#39BCBA"/>
<path d="M66.5857 352.252C79.8232 352.252 90.5543 341.557 90.5543 328.364C90.5543 315.171 79.8232 304.477 66.5857 304.477C53.3483 304.477 42.6172 315.171 42.6172 328.364C42.6172 341.557 53.3483 352.252 66.5857 352.252Z" fill="white"/>
<path d="M63.3586 349.525C63.0347 351.181 53.8603 349.525 54.2086 347.75L56.3857 336.664L65.5274 338.44L63.3586 349.525Z" fill="#CFB293"/>
<path d="M55.0874 343.285C55.281 342.299 59.0968 338.656 60.7283 339.566C58.7254 338.391 57.2749 336.288 56.3809 336.665L55.0874 343.285Z" fill="#0C3559"/>
<path d="M66.3031 342.76C72.9903 342.76 78.4112 337.357 78.4112 330.693C78.4112 324.028 72.9903 318.626 66.3031 318.626C59.616 318.626 54.1951 324.028 54.1951 330.693C54.1951 337.357 59.616 342.76 66.3031 342.76Z" fill="#CFB293"/>
<path d="M79.4787 334.73C79.5386 334.154 78.6876 333.594 77.5779 333.479C76.4682 333.365 75.5199 333.738 75.4599 334.314C75.3999 334.889 76.2509 335.449 77.3607 335.564C78.4704 335.679 79.4187 335.305 79.4787 334.73Z" fill="#ECADAD"/>
<path d="M66.8471 333.42C66.907 332.844 66.0561 332.285 64.9463 332.17C63.8366 332.055 62.8883 332.428 62.8283 333.004C62.7684 333.58 63.6193 334.139 64.7291 334.254C65.8388 334.369 66.7871 333.996 66.8471 333.42Z" fill="#ECADAD"/>
<path d="M72.7927 331.853C73.1133 332.427 74.8082 334.869 72.6775 335.565" stroke="#0C3559" stroke-width="1.00841" stroke-miterlimit="10" stroke-linecap="round"/>
<path d="M68.3548 337.766C67.7534 337.686 66.8975 336.861 66.4739 336.136" stroke="#0C3559" stroke-width="1.00841" stroke-miterlimit="10" stroke-linecap="round"/>
<path d="M58.3177 331.538C58.3177 335.073 54.3921 337.407 53.0723 337.407C51.6097 337.407 51.4167 336.352 51.4167 335.893C51.4167 334.412 52.2884 333.142 54.1308 331.538C53.8101 330.988 51.4167 328.077 51.4167 323.972C51.4167 319.629 54.0873 315.996 55.8796 315.996C57.7871 315.996 59.054 317.966 59.054 318.792C59.054 312.73 65.577 308.385 69.4504 308.385C73.0621 308.385 73.6829 309.949 73.6829 311.228C73.6829 314.018 71.4745 317.003 70.6464 317.737C72.6665 316.254 75.8219 314.758 78.5586 314.758C80.2772 314.758 82.4687 315.241 82.4687 317.6C82.4687 321.924 78.4053 324.428 77.0474 325.128C76.5202 324.119 75.8557 323.188 75.0725 322.361C75.3245 323.177 74.3196 324.662 72.4038 324.998C71.3442 325.181 58.3177 323.434 58.3177 331.538Z" fill="#0C3559"/>
<path d="M57.2137 334.629C58.6856 334.629 59.8788 333.44 59.8788 331.973C59.8788 330.506 58.6856 329.317 57.2137 329.317C55.7418 329.317 54.5486 330.506 54.5486 331.973C54.5486 333.44 55.7418 334.629 57.2137 334.629Z" fill="#CFB293"/>
<path d="M97.1431 316.315H121.419" stroke="white" stroke-width="4.03363" stroke-miterlimit="10" stroke-linecap="round"/>
<path d="M97.0781 327.154H159.472" stroke="white" stroke-width="4.03363" stroke-miterlimit="10" stroke-linecap="round"/>
<path d="M97.0781 337.958H159.472" stroke="white" stroke-width="4.03363" stroke-miterlimit="10" stroke-linecap="round"/>
<path d="M97.0781 348.764H159.472" stroke="white" stroke-width="4.03363" stroke-miterlimit="10" stroke-linecap="round"/>
<path d="M46.377 359.569H159.472" stroke="white" stroke-width="4.03363" stroke-miterlimit="10" stroke-linecap="round"/>
<path d="M178.088 397.266C178.088 394.326 175.696 391.942 172.746 391.942C169.795 391.942 167.403 394.326 167.403 397.266V400.359C167.403 403.3 169.795 405.684 172.746 405.684C175.696 405.684 178.088 403.3 178.088 400.359V397.266Z" stroke="#F2A922" stroke-width="4.03363" stroke-miterlimit="10"/>
<path d="M172.393 388.732V407.012C172.397 408.361 172.937 409.653 173.894 410.606C174.85 411.559 176.146 412.097 177.499 412.102H192.66C194.013 412.097 195.309 411.559 196.265 410.606C197.222 409.652 197.761 408.361 197.766 407.012V388.732H172.393Z" fill="#FCD995"/>
<path d="M199.435 387.218H170.283C169.885 387.218 169.563 387.539 169.563 387.935C169.563 388.332 169.885 388.653 170.283 388.653H199.435C199.833 388.653 200.155 388.332 200.155 387.935C200.155 387.539 199.833 387.218 199.435 387.218Z" fill="#F2A922"/>
<path d="M185.081 404.686C187.446 404.686 189.363 402.775 189.363 400.419C189.363 398.062 187.446 396.151 185.081 396.151C182.716 396.151 180.799 398.062 180.799 400.419C180.799 402.775 182.716 404.686 185.081 404.686Z" fill="white"/>
<path d="M235.921 417.526L234.003 417.024C233.019 416.766 232.012 417.352 231.753 418.333L202.936 527.673C202.678 528.654 203.266 529.658 204.25 529.915L206.168 530.417C207.152 530.675 208.159 530.089 208.418 529.108L237.235 419.768C237.493 418.787 236.905 417.783 235.921 417.526Z" fill="#60D7D4"/>
<path d="M196.817 417.531L194.899 417.029C193.915 416.771 192.908 417.357 192.649 418.338L163.832 527.678C163.574 528.659 164.162 529.662 165.146 529.92L167.064 530.422C168.048 530.68 169.055 530.093 169.314 529.113L198.131 419.773C198.389 418.792 197.801 417.788 196.817 417.531Z" fill="#8AE6E3"/>
<path d="M228.518 530.434L230.436 529.932C231.42 529.674 232.008 528.67 231.749 527.69L202.932 418.35C202.674 417.369 201.666 416.783 200.682 417.041L198.765 417.543C197.78 417.8 197.192 418.804 197.451 419.785L226.268 529.125C226.526 530.105 227.534 530.692 228.518 530.434Z" fill="#8AE6E3"/>
<path d="M37.3334 417.299L35.4099 416.805C34.4226 416.552 33.4161 417.144 33.1616 418.127L4.79899 527.806C4.54455 528.79 5.13861 529.793 6.12586 530.047L8.04935 530.541C9.03659 530.795 10.0432 530.203 10.2976 529.219L38.6602 419.54C38.9147 418.556 38.3206 417.553 37.3334 417.299Z" fill="#60D7D4"/>
<path d="M68.6071 530.039L70.5306 529.545C71.5178 529.291 72.1119 528.288 71.8574 527.304L43.4948 417.625C43.2404 416.641 42.2338 416.049 41.2465 416.303L39.323 416.797C38.3358 417.05 37.7417 418.054 37.9962 419.037L66.3588 528.716C66.6132 529.7 67.6198 530.292 68.6071 530.039Z" fill="#60D7D4"/>
<path d="M255.323 411.968H-20.5525C-21.4529 411.968 -22.1829 412.695 -22.1829 413.593V418.702C-22.1829 419.599 -21.4529 420.326 -20.5525 420.326H255.323C256.223 420.326 256.953 419.599 256.953 418.702V413.593C256.953 412.695 256.223 411.968 255.323 411.968Z" fill="#8AE6E3"/>
<path d="M28.3429 530.436L30.2606 529.934C31.2447 529.676 31.8329 528.672 31.5744 527.691L2.75713 418.352C2.49863 417.371 1.49128 416.785 0.507147 417.042L-1.41051 417.544C-2.39464 417.802 -2.98288 418.806 -2.72438 419.787L26.0929 529.126C26.3514 530.107 27.3588 530.693 28.3429 530.436Z" fill="#8AE6E3"/>
</g>
<defs>
<clipPath id="clip0">
<rect width="235" height="824" rx="20" fill="white"/>
</clipPath>
</defs>
</svg>
