<svg width="247" height="237" viewBox="0 0 247 237" fill="none" xmlns="http://www.w3.org/2000/svg">
<path d="M199.343 222.089C199.146 221.099 187.12 160.68 186.987 160.06C185.543 153.066 181.63 147.709 175.886 144.258C172.443 142.181 170.488 141.85 168.255 141.163C169.824 141.712 139.474 131.105 127.245 126.83C124.824 126 123.198 123.724 123.198 121.165V108.607C107.49 116.462 91.0184 115.966 76.3977 108.831V121.165C76.3977 123.724 74.7719 126.001 72.3514 126.83C70.6277 127.422 78.5956 124.689 55.4929 132.611H55.477C55.4776 132.612 55.4787 132.614 55.4787 132.614L55.477 132.617L31.3582 141.163C30.2448 141.492 28.0452 142.141 28.1852 142.1C22.4474 144.24 17.472 148.303 14.684 153.986C12.7541 157.901 13.3266 156.526 3.96142 203.538C0.493681 221.495 -0.271945 222.803 0.161727 226.815C1.36868 238.029 12.9034 236.859 13.2156 236.995C35.3324 236.995 101.979 236.995 99.88 236.995C100.112 236.995 110.08 236.995 109.46 236.995C124.861 236.995 179.46 236.995 186.395 236.995C186.518 236.953 201.606 238.102 199.343 222.089Z" fill="#60D7D4"/>
<path d="M14.3545 222.089L26.7101 154.425C26.5389 155.247 27.6272 145.374 36.9153 139.194C26.5422 142.869 29.7573 141.399 26.5684 142.765C20.549 145.484 15.8809 150.103 13.5791 156.612C12.6581 159.226 13.2553 156.928 3.96171 203.537C0.49398 221.494 -0.271098 222.804 0.162027 226.814C1.36898 238.029 12.9037 236.858 13.2159 236.995C14.5908 236.995 25.6054 236.995 27.3023 236.995C17.3634 236.995 13.0688 231.183 14.3545 222.089Z" fill="#39BCBA"/>
<path d="M38.71 236.995C30.6671 236.995 21.403 236.995 13.2157 236.995C12.8893 236.852 -0.258158 238.173 0.0705137 224.467C0.142154 221.545 0.508015 221.422 3.96153 203.537L4.16114 202.535H38.71V236.995Z" fill="#E5D6C6"/>
<path d="M17.9253 202.535H4.16156L3.96195 203.537C0.495854 221.484 0.142573 221.54 0.0709325 224.467C-0.256646 238.128 12.957 236.882 13.2162 236.995C14.591 236.995 25.6056 236.995 27.3026 236.995C18.1484 236.995 13.9725 232.179 14.1573 224.467C14.1792 223.572 14.5128 221.7 17.9253 202.535Z" fill="#CFB293"/>
<path d="M76.3975 106.664C76.3975 141.694 76.3975 102.673 76.398 130.264H76.4128V131.108C76.4128 136.712 79.9926 141.694 85.3072 143.474C93.8362 146.33 104.787 146.655 114.288 143.474C119.603 141.694 123.182 136.713 123.182 131.108V130.264H123.197C123.197 124.774 123.197 109.601 123.197 106.664C108.035 114.748 90.9383 114.417 76.3975 106.664Z" fill="#E5D6C6"/>
<path d="M90.503 134.948H90.485C90.4839 105.619 90.4844 115.391 90.4839 113.343C85.6221 112.369 80.8813 110.695 76.3975 108.304C76.3975 143.335 76.3975 102.673 76.398 130.264H76.4128V131.108C76.4128 136.712 79.9926 141.694 85.3071 143.474C87.9354 144.354 90.7108 144.99 93.5923 145.357C90.0103 140.493 90.5577 135.32 90.503 134.948Z" fill="#CFB293"/>
<path d="M38.7097 188.712C36.3756 188.712 34.4834 190.604 34.4834 192.938V236.995C37.4146 236.995 39.7892 236.995 42.9354 236.995V192.938C42.9359 190.604 41.0437 188.712 38.7097 188.712Z" fill="#60D7D4"/>
<path d="M236.612 236.995H99.7974C94.0891 236.995 89.4614 232.367 89.4614 226.659C89.4614 223.388 92.1138 220.735 95.3852 220.735H241.024C244.295 220.735 246.948 223.388 246.948 226.659C246.948 232.367 242.32 236.995 236.612 236.995Z" fill="#CBCBCB"/>
<path d="M116.084 226.659C116.084 223.388 118.737 220.735 122.008 220.735H95.3852C92.1138 220.735 89.4614 223.388 89.4614 226.659V226.66C89.4614 232.368 94.0891 236.996 99.7974 236.996H126.42C120.712 236.995 116.084 232.367 116.084 226.659Z" fill="#A3A3A3"/>
<path d="M227.65 130.264H108.759C105.04 130.264 101.998 133.307 101.998 137.026V213.974C101.998 217.693 105.04 220.735 108.759 220.735H227.65C231.369 220.735 234.412 217.693 234.412 213.974V137.026C234.412 133.307 231.369 130.264 227.65 130.264Z" fill="#E9E9E9"/>
<path d="M116.084 213.974V137.026C116.084 133.307 119.127 130.264 122.846 130.264H108.76C105.041 130.264 101.998 133.307 101.998 137.026V213.974C101.998 217.693 105.041 220.735 108.76 220.735H122.846C119.127 220.735 116.084 217.693 116.084 213.974Z" fill="#CBCBCB"/>
<path d="M168.207 185.265C173.601 185.265 177.974 180.892 177.974 175.498C177.974 170.104 173.601 165.732 168.207 165.732C162.813 165.732 158.44 170.104 158.44 175.498C158.44 180.892 162.813 185.265 168.207 185.265Z" fill="#CBCBCB"/>
<path d="M168.209 165.741C160.762 165.729 155.965 173.834 159.746 180.383C163.529 186.935 172.946 186.828 176.658 180.376C169.146 180.365 164.455 172.264 168.209 165.741Z" fill="#A3A3A3"/>
<path d="M100.006 0.0497126C72.8078 0.153507 49.8452 22.3573 49.8452 50.5663V69.711H150.893C150.893 51.5687 150.893 57.3007 150.893 41.07C150.893 21.5073 138.857 17.0008 138.857 17.0008C123.89 -1.45448 100.026 0.049304 100.026 0.049304" fill="#0C3559"/>
<path d="M106.832 0.351226C76.0065 -3.15775 50.9218 20.108 49.888 48.5754C49.8083 50.6223 49.8618 49.8565 49.8451 69.7109H61.8807V50.5663C61.8807 24.4331 81.6628 3.11362 106.832 0.351226Z" fill="#042039"/>
<path d="M62.2893 63.6993C55.9522 61.4412 49.0728 65.6407 49.0728 71.7679C49.0728 77.8933 55.9514 82.095 62.2893 79.8364V63.6993Z" fill="#E5D6C6"/>
<path d="M138.448 63.6991C144.785 61.4409 151.665 65.6405 151.665 71.7676C151.665 77.8931 144.786 82.0947 138.448 79.8362V63.6991Z" fill="#E5D6C6"/>
<path d="M49.9985 68.0579C46.2967 75.0852 54.0906 82.7582 62.2895 79.8368V72.4164C57.508 74.1196 52.1618 72.1655 49.9985 68.0579Z" fill="#CFB293"/>
<path d="M138.449 72.4161V79.8366C146.647 82.758 154.441 75.0854 150.74 68.0576C149.192 70.9974 143.232 74.1202 138.449 72.4161Z" fill="#CFB293"/>
<path d="M137.121 47.711C138.102 47.8058 138.857 48.6202 138.857 49.6063C138.857 82.0108 138.879 79.5643 138.803 81.071C138.304 90.9269 134.088 99.9766 127.233 106.666C103.209 130.09 63.1195 113.478 61.9136 80.6206C61.8572 79.172 61.8809 62.3884 61.8809 62.4359C61.8809 54.8895 68.5781 49.1318 76.0472 50.2102C87.8106 51.9081 104.981 51.2486 119.963 38.4419C121.503 37.1261 123.839 37.551 124.823 39.3217C126.679 42.6647 130.37 47.0596 137.121 47.711Z" fill="#E5D6C6"/>
<path d="M72.4447 80.6207C72.3965 79.3784 72.4067 56.643 72.4108 50.2205C66.5358 51.1019 61.8814 56.1457 61.8814 62.4359C61.8814 62.3885 61.8577 79.172 61.9141 80.6207C62.8029 104.846 84.8297 120.237 105.97 117.264C88.612 114.864 73.1856 100.812 72.4447 80.6207Z" fill="#CFB293"/>
</svg>
