<svg width="580" height="768" viewBox="0 0 580 768" fill="none" xmlns="http://www.w3.org/2000/svg">
<mask id="mask0" mask-type="alpha" maskUnits="userSpaceOnUse" x="0" y="0" width="473" height="768">
<rect width="473" height="768" fill="white"/>
</mask>
<g mask="url(#mask0)">
<circle cx="-27" cy="384" r="500" fill="#317EC2"/>
</g>
<circle cx="380" cy="416" r="200" fill="#C6DEF3"/>
<mask id="mask1" mask-type="alpha" maskUnits="userSpaceOnUse" x="180" y="216" width="400" height="400">
<circle cx="380" cy="416" r="200" fill="#EAF3FA"/>
</mask>
<g mask="url(#mask1)">
<rect x="380" y="261" width="223" height="361" rx="12" fill="#EAF3FA"/>
<line y1="-0.5" x2="189" y2="-0.5" transform="matrix(1 -8.74228e-08 -8.74228e-08 -1 396 328)" stroke="#90C0EA"/>
<line y1="-0.5" x2="189" y2="-0.5" transform="matrix(1 -8.74228e-08 -8.74228e-08 -1 396 392)" stroke="#90C0EA"/>
<line y1="-0.5" x2="189" y2="-0.5" transform="matrix(1 -8.74228e-08 -8.74228e-08 -1 396 456)" stroke="#90C0EA"/>
<line y1="-0.5" x2="189" y2="-0.5" transform="matrix(1 -8.74228e-08 -8.74228e-08 -1 396 520)" stroke="#90C0EA"/>
<line y1="-0.5" x2="189" y2="-0.5" transform="matrix(1 -8.74228e-08 -8.74228e-08 -1 396 584)" stroke="#90C0EA"/>
<path d="M441.829 363.695C441.396 361.246 443.28 359 445.768 359H473.232C475.72 359 477.604 361.246 477.171 363.695L472.583 389.695C472.246 391.607 470.585 393 468.644 393H450.356C448.415 393 446.754 391.607 446.417 389.695L441.829 363.695Z" fill="#90C0EA"/>
<rect x="441" y="353" width="37" height="5" rx="2.5" fill="#90C0EA"/>
<rect x="454" y="349" width="11" height="5" rx="2.5" fill="#90C0EA"/>
<path d="M493.829 363.695C493.396 361.246 495.28 359 497.768 359H525.232C527.72 359 529.604 361.246 529.171 363.695L524.583 389.695C524.246 391.607 522.585 393 520.644 393H502.356C500.415 393 498.754 391.607 498.417 389.695L493.829 363.695Z" fill="#90C0EA"/>
<rect x="493" y="353" width="37" height="5" rx="2.5" fill="#90C0EA"/>
<rect x="506" y="349" width="11" height="5" rx="2.5" fill="#90C0EA"/>
<path d="M477.829 426.695C477.396 424.246 479.28 422 481.768 422H509.232C511.72 422 513.604 424.246 513.171 426.695L508.583 452.695C508.246 454.607 506.585 456 504.644 456H486.356C484.415 456 482.754 454.607 482.417 452.695L477.829 426.695Z" fill="#90C0EA"/>
<rect x="477" y="416" width="37" height="5" rx="2.5" fill="#90C0EA"/>
<rect x="490" y="412" width="11" height="5" rx="2.5" fill="#90C0EA"/>
<path d="M453.829 298.695C453.396 296.246 455.28 294 457.768 294H485.232C487.72 294 489.604 296.246 489.171 298.695L484.583 324.695C484.246 326.607 482.585 328 480.644 328H462.356C460.415 328 458.754 326.607 458.417 324.695L453.829 298.695Z" fill="#F8BD4F"/>
<rect x="453" y="288" width="37" height="5" rx="2.5" fill="#F8BD4F"/>
<rect x="466" y="284" width="11" height="5" rx="2.5" fill="#F8BD4F"/>
<path d="M493.908 647.877L415.351 492.598C412.956 491.199 403.333 485.011 403.333 485.011" stroke="#F8BD4F" stroke-width="3" stroke-linecap="round" stroke-linejoin="round"/>
<path d="M409.718 504.892C408.78 501.786 405.96 495.387 405.96 495.387C404.24 495.282 392.267 489.116 392.267 489.116" stroke="#F8BD4F" stroke-width="3" stroke-linecap="round" stroke-linejoin="round"/>
<path d="M388.845 489.688L426.069 474.483" stroke="#F8BD4F" stroke-width="3" stroke-linecap="round" stroke-linejoin="round"/>
<path d="M682.829 706.471H437.433V653.167C450.855 651.979 641.648 633.93 641.648 633.93V518.021L409.717 504.893L437.433 653.179" stroke="#F8BD4F" stroke-width="3" stroke-linecap="round" stroke-linejoin="round"/>
<path d="M418.776 553.343H641.648" stroke="#F8BD4F" stroke-width="3" stroke-linecap="round" stroke-linejoin="round"/>
<path d="M424.934 586.296H641.647" stroke="#F8BD4F" stroke-width="3" stroke-linecap="round" stroke-linejoin="round"/>
<path d="M370 497.38L388.845 489.688" stroke="#F8BD4F" stroke-width="3" stroke-linecap="round" stroke-linejoin="round"/>
<path d="M443.794 586.296C441.352 579.385 415.456 505.202 415.456 505.202" stroke="#F8BD4F" stroke-width="3" stroke-linecap="round" stroke-linejoin="round"/>
<path d="M244.484 496.43C244.644 501.59 246.334 569.51 252.334 588.14C243.234 600.35 177.204 686 177.004 687.9C176.804 689.8 188.004 700.12 190.004 700.12C192.004 700.12 293.294 617.74 298.464 612.35C303.634 606.96 306.004 584.54 306.004 584.54" fill="#042039"/>
<path d="M241.594 475.05C241.594 538.69 322.994 600.99 339.064 609.89C342.274 616.57 394.194 723.89 395.424 726.83C399.624 727.32 406.304 725.34 409.514 721.14C408.514 716.94 384.054 594.07 380.844 586.65C377.634 579.23 336.844 502.74 325.214 487.96" fill="#0C3559"/>
<path d="M298.714 345.73C319.084 345.73 327.524 378.64 327.524 388.45C327.524 403.98 318.644 465.34 325.214 487.96C317.094 489.29 251.864 483.82 241.594 475.05C241.594 413 279.344 345.73 298.714 345.73Z" fill="#5A9FDB"/>
<path d="M324.184 422.18C311.994 429.24 290.434 431.69 282.294 430.04C302.294 473.17 362.644 488.45 380.354 493.1C383.234 488.62 387.244 479.96 387.564 473.38C380.094 469.83 337.064 453.49 324.184 422.18Z" fill="#E5D6C6"/>
<path d="M318.084 358.62C321.964 357.54 414.634 339.25 416.724 338.73C418.114 341.52 421.424 352.32 421.424 356.33C417.424 358.59 327.524 388.45 327.524 388.45" fill="#E5D6C6"/>
<path d="M416.724 338.73C421.354 337.78 455.294 329.95 456.134 329.78C456.974 329.61 457.684 329.26 457.814 329.78C459.174 335.4 448.984 337.37 444.224 338.73C445.584 343.33 446.094 346.95 442.754 348.73C439.754 350.35 434.414 352.23 420.694 351.36" fill="#E5D6C6"/>
<path d="M324.184 422.18C322.096 417.16 320.885 411.819 320.604 406.39" stroke="#042039" stroke-linecap="round" stroke-linejoin="round"/>
<path d="M297.454 365.15C282.384 365.15 275.804 390.33 275.804 399.95C275.737 410.32 277.949 420.579 282.284 430" stroke="#042039" stroke-linecap="round" stroke-linejoin="round"/>
<path d="M327.524 388.45L343.764 383C341.674 368.06 335.634 357.89 333.624 355.34C325.004 357.08 319.014 358.34 318.084 358.58" fill="#317EC2"/>
<path d="M391.584 497.37C399.819 497.37 406.494 491.903 406.494 485.16C406.494 478.417 399.819 472.95 391.584 472.95C383.349 472.95 376.674 478.417 376.674 485.16C376.674 491.903 383.349 497.37 391.584 497.37Z" fill="#E5D6C6"/>
<path d="M326.004 378.09C326.754 381.503 327.262 384.965 327.524 388.45C329.374 387.81 338.174 384.91 338.174 384.91C338.174 384.91 329.614 384.24 326.004 378.09Z" fill="#042039"/>
<path d="M310.214 462.76C311.334 466.76 318.724 487.76 302.734 487.2C309.644 487.7 321.214 488.68 325.214 487.96C324.934 486.96 322.984 475.8 322.954 471.07C321.064 470 310.214 462.76 310.214 462.76Z" fill="#042039"/>
<path d="M310.004 354.23C308.574 356.61 295.344 348.91 296.884 346.35L306.464 330.35L319.594 338.23L310.004 354.23Z" fill="#E5D6C6"/>
<path d="M300.714 339.92C301.564 338.5 309.504 335 311.514 337.33C309.084 334.39 308.034 330.33 306.434 330.4L300.714 339.92Z" fill="#042039"/>
<path d="M323.884 341.64C334.863 341.64 343.764 332.739 343.764 321.76C343.764 310.78 334.863 301.88 323.884 301.88C312.905 301.88 304.004 310.78 304.004 321.76C304.004 332.739 312.905 341.64 323.884 341.64Z" fill="#E5D6C6"/>
<path d="M345.521 328.403C345.62 327.453 344.221 326.529 342.398 326.34C340.574 326.15 339.015 326.767 338.917 327.717C338.818 328.668 340.216 329.592 342.04 329.781C343.864 329.97 345.422 329.354 345.521 328.403Z" fill="#BF9972"/>
<path d="M324.779 326.259C324.878 325.309 323.479 324.385 321.656 324.195C319.832 324.006 318.273 324.623 318.175 325.573C318.076 326.524 319.474 327.448 321.298 327.637C323.122 327.826 324.68 327.21 324.779 326.259Z" fill="#BF9972"/>
<path d="M334.534 323.66C335.064 324.66 337.844 328.66 334.344 329.78" stroke="#042039" stroke-width="0.69" stroke-miterlimit="10" stroke-linecap="round"/>
<path d="M327.254 333.41C326.254 333.28 324.854 331.92 324.164 330.72" stroke="#042039" stroke-width="0.69" stroke-miterlimit="10" stroke-linecap="round"/>
<path d="M307.814 323.67C310.233 323.67 312.194 321.709 312.194 319.29C312.194 316.871 310.233 314.91 307.814 314.91C305.395 314.91 303.434 316.871 303.434 319.29C303.434 321.709 305.395 323.67 307.814 323.67Z" fill="#E5D6C6"/>
<path d="M310.764 323.15C310.764 328.97 304.324 332.82 302.154 332.82C301.804 332.867 301.449 332.837 301.112 332.732C300.776 332.626 300.467 332.448 300.207 332.209C299.947 331.97 299.743 331.677 299.61 331.351C299.476 331.024 299.416 330.672 299.434 330.32C299.434 327.88 300.874 325.79 303.894 323.15C303.364 322.24 299.434 317.45 299.434 310.68C299.434 303.53 303.824 297.54 306.764 297.54C308.025 297.619 309.224 298.115 310.172 298.949C311.121 299.784 311.765 300.91 312.004 302.15C312.004 292.16 322.684 285 329.004 285C334.934 285 336.004 287.59 336.004 289.68C336.004 294.28 332.384 299.2 331.004 300.41C334.324 297.96 339.504 295.5 344.004 295.5C346.824 295.5 350.424 296.3 350.424 300.18C350.424 307.31 343.754 311.43 341.524 312.58C340.658 310.912 339.568 309.371 338.284 308C338.694 309.35 337.044 311.8 333.894 312.35C332.154 312.67 310.764 309.79 310.764 323.15Z" fill="#042039"/>
</g>
</svg>
