<svg width="200" height="200" viewBox="0 0 200 200" fill="none" xmlns="http://www.w3.org/2000/svg">
<path d="M191.809 105.776C191.809 157.62 150.38 199.639 99.287 199.639C48.1935 199.639 6.76531 157.62 6.76531 105.776C6.76531 53.9322 48.1935 11.9133 99.287 11.9133C150.38 11.9133 191.809 53.9322 191.809 105.776Z" stroke="#E9E9E9" stroke-width="0.722023"/>
<path d="M199.639 97.1122C199.639 148.956 158.211 190.975 107.117 190.975C56.0236 190.975 14.5954 148.956 14.5954 97.1122C14.5954 45.2682 56.0236 3.24919 107.117 3.24919C158.211 3.24919 199.639 45.2682 199.639 97.1122Z" stroke="#E9E9E9" stroke-width="0.722023"/>
<path d="M185.404 94.224C185.404 146.068 143.976 188.087 92.8827 188.087C41.7892 188.087 0.361011 146.068 0.361011 94.224C0.361011 42.38 41.7892 0.361011 92.8827 0.361011C143.976 0.361011 185.404 42.38 185.404 94.224Z" stroke="#E9E9E9" stroke-width="0.722023"/>
<path fill-rule="evenodd" clip-rule="evenodd" d="M79.2159 56.6636C74.5651 56.6636 70.7949 60.4338 70.7949 65.0845V71.7834H67.3813C64.2939 71.7834 61.791 74.2863 61.791 77.3737V126.228C61.791 129.315 64.2939 131.818 67.3813 131.818H131.58C134.667 131.818 137.17 129.315 137.17 126.228V77.3737C137.17 74.2863 134.667 71.7834 131.58 71.7834H128.167V65.0845C128.167 60.4338 124.397 56.6636 119.747 56.6636C115.096 56.6636 111.326 60.4338 111.326 65.0845V71.7834H87.6368V65.0845C87.6368 60.4338 83.8666 56.6636 79.2159 56.6636ZM111.326 75.1172V75.1168H87.6368V75.1172H85.9702H72.4616H70.7949V75.1168H67.3813C66.1348 75.1168 65.1244 76.1272 65.1244 77.3737V89.0184H133.837V77.3737C133.837 76.1272 132.826 75.1168 131.58 75.1168H128.167V75.1172H126.501H112.992H111.326ZM124.834 65.0845V71.7834H114.659V65.0845C114.659 62.2747 116.937 59.9969 119.747 59.9969C122.556 59.9969 124.834 62.2747 124.834 65.0845ZM84.3035 71.7834V65.0845C84.3035 62.2747 82.0257 59.9969 79.2159 59.9969C76.4061 59.9969 74.1283 62.2747 74.1283 65.0845V71.7834H84.3035ZM65.1244 126.228V92.3517H133.837V126.228C133.837 127.474 132.826 128.484 131.58 128.484H67.3813C66.1348 128.484 65.1244 127.474 65.1244 126.228ZM101.446 113.275C101.945 113.796 102.195 114.501 102.195 115.391C102.195 116.248 101.918 116.932 101.365 117.442C100.811 117.941 100.057 118.19 99.1023 118.19C97.9521 118.19 97.0678 117.849 96.4493 117.165C95.8416 116.471 95.5378 115.478 95.5378 114.186H90.834C90.834 116.411 91.4417 118.196 92.6569 119.541C93.8831 120.876 95.6083 121.663 97.8327 121.901V125.124H100.421V121.885C102.439 121.679 104.023 121.001 105.173 119.851C106.323 118.7 106.899 117.203 106.899 115.358C106.899 114.371 106.747 113.508 106.443 112.77C106.139 112.022 105.7 111.36 105.124 110.785C104.549 110.199 103.844 109.678 103.009 109.222C102.173 108.756 101.104 108.262 99.8021 107.741C98.5109 107.22 97.6266 106.71 97.1491 106.211C96.6717 105.712 96.433 105.05 96.433 104.225C96.433 103.336 96.6771 102.641 97.1654 102.142C97.6537 101.632 98.3427 101.377 99.2325 101.377C100.133 101.377 100.849 101.703 101.381 102.354C101.923 102.994 102.195 103.965 102.195 105.267H106.899C106.899 103.151 106.356 101.431 105.271 100.108C104.186 98.773 102.683 97.9701 100.762 97.6988V94.1669H98.1583V97.65C96.216 97.8453 94.6589 98.5289 93.487 99.7008C92.3152 100.873 91.7292 102.375 91.7292 104.209C91.7292 105.273 91.8974 106.189 92.2338 106.96C92.581 107.73 93.0584 108.403 93.6661 108.978C94.2846 109.542 95.0224 110.047 95.8796 110.492C96.7368 110.926 97.7568 111.365 98.9395 111.81C100.122 112.255 100.958 112.743 101.446 113.275Z" fill="#E9E9E9"/>
</svg>
