<svg width="200" height="200" viewBox="0 0 200 200" fill="none" xmlns="http://www.w3.org/2000/svg">
<path d="M191.811 105.776C191.811 157.62 150.382 199.639 99.289 199.639C48.1955 199.639 6.76726 157.62 6.76726 105.776C6.76726 53.9322 48.1955 11.9133 99.289 11.9133C150.382 11.9133 191.811 53.9322 191.811 105.776Z" stroke="#E9E9E9" stroke-width="0.722023"/>
<path d="M199.639 97.1119C199.639 148.956 158.211 190.975 107.117 190.975C56.0236 190.975 14.5954 148.956 14.5954 97.1119C14.5954 45.2679 56.0236 3.24895 107.117 3.24895C158.211 3.24895 199.639 45.2679 199.639 97.1119Z" stroke="#E9E9E9" stroke-width="0.722023"/>
<path d="M185.404 94.2239C185.404 146.068 143.976 188.087 92.8827 188.087C41.7892 188.087 0.361011 146.068 0.361011 94.2239C0.361011 42.38 41.7892 0.361011 92.8827 0.361011C143.976 0.361011 185.404 42.38 185.404 94.2239Z" stroke="#E9E9E9" stroke-width="0.722023"/>
<path fill-rule="evenodd" clip-rule="evenodd" d="M132.008 132.269C131.068 133.33 129.436 133.325 128.434 132.322C127.432 131.32 127.439 129.7 128.371 128.632C132.682 123.69 135.636 117.694 136.922 111.233C138.374 103.931 137.629 96.3616 134.779 89.483C131.93 82.6044 127.105 76.7251 120.915 72.5887C114.724 68.4522 107.446 66.2444 100.001 66.2444C92.5551 66.2444 85.277 68.4522 79.0863 72.5887C72.8957 76.7251 68.0708 82.6044 65.2215 89.483C62.3723 96.3616 61.6268 103.931 63.0793 111.233C64.3645 117.694 67.3195 123.69 71.6301 128.632C72.5618 129.7 72.5693 131.32 71.5669 132.322C70.5646 133.325 68.933 133.33 67.9925 132.269C62.9686 126.603 59.528 119.692 58.0446 112.234C56.394 103.936 57.2412 95.3352 60.4789 87.5185C63.7167 79.7019 69.1996 73.0209 76.2344 68.3204C83.2692 63.62 91.5399 61.1111 100.001 61.1111C108.461 61.1111 116.732 63.62 123.767 68.3204C130.801 73.0209 136.284 79.7019 139.522 87.5185C142.76 95.3352 143.607 103.936 141.956 112.234C140.473 119.692 137.032 126.603 132.008 132.269ZM99.5436 127.197C98.022 127.04 95.0178 126.128 92.2229 123.333C89.7152 120.826 87.0391 106.359 85.4165 95.4104C85.126 93.4504 87.5598 92.4511 88.7312 94.0492C95.4041 103.153 103.89 115.669 103.89 119.445C103.89 123.673 101.761 126.092 100.397 126.991C100.145 127.158 99.8439 127.228 99.5436 127.197Z" fill="#E9E9E9"/>
</svg>
