<svg width="1366" height="768" viewBox="0 0 1366 768" fill="none" xmlns="http://www.w3.org/2000/svg">
<path d="M-196.662 55.155L417.923 -110.006L915.925 249.102L641.017 585.541L-18.9073 527.249L268.955 976.674L1342.68 734.15L1213.5 -84.0983L285.147 271.771L1058.06 1009.06L1782.75 249.102" stroke="#CBCBCB"/>
<path d="M912.686 249.103L1061.3 1005.82L-15.669 527.25L414.685 -106.767L1782.75 249.103L272.193 979.913L288.385 278.249L-193.424 61.6327" stroke="#CBCBCB"/>
<path d="M285.147 268.534L1342.68 734.151L915.925 252.341L-196.662 61.6327L1213.5 -87.3359L1782.75 252.341L641.017 585.542" stroke="#CBCBCB"/>
<path d="M911.248 253.42H1780.59" stroke="#CBCBCB"/>
<circle cx="282.63" cy="269.613" r="43.1793" fill="#DFF6F5"/>
<circle cx="638.138" cy="580.505" r="43.1793" fill="#DFF6F5"/>
<circle cx="913.048" cy="247.303" r="43.1793" fill="#DFF6F5"/>
<circle cx="-15.309" cy="521.492" r="43.1793" fill="#DFF6F5"/>
<circle cx="1336.2" cy="729.473" r="43.1793" fill="#DFF6F5"/>
</svg>
