<svg width="126" height="62" viewBox="0 0 126 62" fill="none" xmlns="http://www.w3.org/2000/svg">
<g clip-path="url(#clip0)">
<path d="M0.5 61.907H63.6115L125.5 0H0.5V61.907Z" fill="#014185"/>
<path fill-rule="evenodd" clip-rule="evenodd" d="M74.619 11.6353L62.388 11.6329V40.9156L51.6248 11.6329H41.1062L31.8107 36.1225C30.8323 29.9535 24.4722 27.8213 19.3352 26.2253C16.1552 25.153 12.4859 23.5766 12.7305 21.8532C12.7305 20.4236 14.4428 19.1114 18.1121 19.3073C20.5583 19.4321 22.7599 19.6353 27.163 21.7357L31.5661 14.2767C27.4076 12.2595 22.026 10.9841 17.6229 10.9792C12.2413 10.9792 7.83814 12.6732 5.14733 15.4811C3.43501 17.4346 2.21191 19.9144 2.21191 22.6635C2.21191 26.4456 3.67962 29.1286 6.37043 31.2657C9.06123 33.0649 11.9967 34.2375 14.9321 35.0967C18.3567 36.1567 21.0475 37.0747 21.0475 39.0429C21.0475 39.7699 20.8029 40.4309 20.3137 40.9621C19.3352 41.8409 18.1121 42.1739 16.1552 42.2155C12.7305 42.2791 10.2843 41.7332 6.12581 39.3024L2.21191 46.8544C6.37043 49.1947 11.2628 50.5704 16.1552 50.5704L16.889 50.5655C21.0475 50.4872 24.7168 49.251 27.4076 47.0037C27.6522 46.8715 27.6522 46.7491 27.8968 46.6267L26.6738 49.9144H37.9262L39.6385 44.2155C41.5955 44.8715 43.797 45.2534 46.2432 45.2534C48.6894 45.2534 50.6464 44.8838 52.6033 44.262L54.5603 49.9144H72.662V38.0931H76.8205C86.3606 38.0931 91.9869 33.1947 91.9869 24.9792C91.9869 15.8336 86.6053 11.6353 74.619 11.6353ZM46.2432 36.7051C44.7755 36.7051 43.5524 36.4505 42.3293 36.005L46.2432 23.6867L50.1571 36.0441C48.934 36.4652 47.7109 36.7051 46.2432 36.7051ZM75.3528 29.6206H72.662V19.6892H75.3528C79.0221 19.6892 81.9575 20.8911 81.9575 24.6047C81.9575 28.4236 79.0221 29.6206 75.3528 29.6206Z" fill="white"/>
<path d="M79.0224 57.9511C79.0224 56.0589 80.4901 54.617 82.2025 54.617C83.9148 54.617 85.3825 56.0589 85.3825 57.9511C85.3825 59.9144 83.9148 61.3294 82.2025 61.3294C80.4901 61.3294 79.0224 59.9144 79.0224 57.9511ZM82.2025 62.0001C84.404 62.0001 86.361 60.2841 86.361 57.9511C86.361 55.6525 84.404 53.9634 82.2025 53.9634C80.0009 53.9634 78.0439 55.6525 78.0439 57.9511C78.0439 60.2841 80.0009 62.0001 82.2025 62.0001ZM81.4686 58.2865H82.2025L83.4256 60.2841H84.1594L82.9363 58.2473C83.4256 58.1641 84.1594 57.8043 84.1594 56.9817C84.1594 56.0589 83.4256 55.6525 82.4471 55.6525H80.7348V60.2841H81.4686V58.2865ZM81.4686 57.6892V56.2424H82.4471C82.6917 56.2424 83.4256 56.3551 83.4256 56.9401C83.4256 57.6427 82.6917 57.6892 82.2025 57.6892H81.4686Z" fill="#014185"/>
</g>
<defs>
<clipPath id="clip0">
<rect width="125" height="62" fill="white" transform="translate(0.5)"/>
</clipPath>
</defs>
</svg>
