<svg width="688" height="178" viewBox="0 0 688 178" fill="none" xmlns="http://www.w3.org/2000/svg">
<mask id="mask0" mask-type="alpha" maskUnits="userSpaceOnUse" x="0" y="0" width="688" height="178">
<rect width="688" height="178" rx="12" fill="#EAF3FA"/>
</mask>
<g mask="url(#mask0)">
<path d="M-854.067 -216.27C-1142.62 -216.27 -1270.31 -37.7149 -1298.81 53.1864C-1299.16 54.3141 -1299.32 55.4405 -1299.32 56.6223V204.115C-1299.32 210.802 -1293.85 216.2 -1287.16 216.114L1911.1 174.945C1921.92 174.806 1926.74 161.93 1918.22 155.272C1829.94 86.3302 1621.6 -21.5577 1332.3 -19.3098C1029.58 -16.9577 853.568 26.6162 794.736 51.2394C789.849 53.2848 784.273 52.1639 780.522 48.4225C718.952 -12.9855 532.393 -123.652 224.316 -121.266C-77.7875 -118.926 -270.728 -42.1129 -340.314 2.11632C-346.185 5.84749 -353.97 4.31268 -357.982 -1.3694C-412.937 -79.2006 -576.879 -216.27 -854.067 -216.27Z" fill="#EAF3FA"/>
<ellipse cx="351.969" cy="48.1428" rx="5.36541" ry="5.37231" fill="#C6DEF3"/>
<ellipse cx="357.252" cy="41.8623" rx="5.36541" ry="5.37231" fill="#C6DEF3"/>
<ellipse cx="362.038" cy="48.1428" rx="5.36541" ry="5.37231" fill="#C6DEF3"/>
<path d="M355.683 53.3504C356.921 55.1687 356.26 59.2186 355.683 60.541C355.599 60.7333 356.114 62.0288 356.324 62.0288H359.374C359.718 62.0288 359.89 61.6133 359.647 61.37L358.819 60.541C358.159 59.8798 358.324 55.2514 358.819 53.3504C359.216 51.8296 359.7 50.8984 359.892 50.6229L357.581 53.2174C357.356 53.471 356.965 53.4873 356.718 53.2534L356.293 52.8493C355.872 52.4498 355.356 52.871 355.683 53.3504Z" fill="#C6DEF3"/>
<path d="M-211.091 -8.01001C-394.46 -8.01001 -475.96 105.096 -494.504 163.261C-494.863 164.387 -495.021 165.521 -495.021 166.702V255.734C-495.021 262.422 -489.553 267.82 -482.866 267.733L1541.4 241.67C1552.21 241.531 1556.89 228.849 1548.13 222.496C1487.6 178.569 1358.76 116.258 1183.12 117.623C994.985 119.085 883.599 145.522 843.331 161.404C838.402 163.348 832.8 162.246 828.966 158.588C787.505 119.032 669.345 51.0961 476.578 52.5895C289.388 54.0396 167.922 100.34 120.482 128.844C114.518 132.427 106.67 130.849 102.501 125.28C64.9471 75.1104 -38.7448 -8.01001 -211.091 -8.01001Z" fill="#C6DEF3"/>
<ellipse cx="520.047" cy="90.9604" rx="9.91782" ry="9.93058" fill="#90C0EA"/>
<ellipse cx="529.812" cy="79.3506" rx="9.91782" ry="9.93058" fill="#90C0EA"/>
<ellipse cx="538.661" cy="90.9604" rx="9.91782" ry="9.93058" fill="#90C0EA"/>
<path d="M526.912 100.588C529.201 103.949 527.98 111.435 526.912 113.879C526.757 114.235 527.709 116.629 528.097 116.629H533.736C534.371 116.629 534.69 115.861 534.241 115.412L532.71 113.879C531.49 112.657 531.795 104.101 532.71 100.588C533.443 97.7764 534.338 96.0551 534.694 95.5458L530.422 100.342C530.004 100.81 529.282 100.841 528.827 100.408L528.04 99.6612C527.263 98.9228 526.309 99.7013 526.912 100.588Z" fill="#90C0EA"/>
<path d="M75.8672 72.98C-19.3694 72.98 -62.1524 131.434 -72.3472 162.241C-72.7171 163.359 -72.8755 164.506 -72.8755 165.684V205.894C-72.8755 212.582 -67.4078 217.979 -60.7203 217.893L979.802 204.446C990.606 204.306 994.922 192.028 985.766 186.292C950.666 164.302 888.177 138.4 806.254 139.039C713.391 139.763 656.222 152.145 632.279 160.559C627.266 162.321 621.558 161.174 617.549 157.686C593.356 136.64 532.561 104.094 436.117 104.844C344.452 105.556 282.871 126.875 254.927 141.895C248.785 145.196 240.803 143.568 236.311 138.235C213.951 111.688 160.835 72.98 75.8672 72.98Z" fill="#90C0EA"/>
<path d="M407.091 134.978C405.127 131.783 401.364 132.387 397.625 132.682C396.308 132.786 369.074 117.538 364.888 113.268C360.701 108.998 353.403 100.944 352.12 100.944C350.838 100.944 350.196 102.515 350.196 103.739C350.196 112.365 392.667 152.339 401.621 152.339C404.273 152.339 412.022 147.818 412.889 146.421C413.405 145.589 409.962 139.65 407.091 134.978Z" fill="#CFB293"/>
<path d="M440.093 162.433C435.23 162.479 431.397 165.711 430.485 170.489C424.589 201.367 404.224 313.127 401.152 331.531C400.867 333.24 401.169 334.991 402.711 335.782C406.026 337.48 412.283 338.111 414.137 337.024C416.521 335.627 437.427 260.894 438.953 257.831C440.478 254.767 480.323 194.38 464.089 165.055C462.711 162.63 449.122 162.347 440.093 162.433Z" fill="#CE8BC0"/>
<path d="M482.263 144.52C482.36 141.581 469.468 111.334 458.407 99.389C454.683 95.3668 449.488 89.7071 444.056 88.968C442.902 88.811 441.862 88.8289 441.178 88.8289C431.678 88.8289 426.802 95.7371 424.707 105.44C424.029 108.58 422.463 111.5 419.908 113.447C412.955 118.748 401.862 127.252 401.637 129.133C401.316 131.797 407.063 146.404 412.905 148.53C420.205 151.276 426.022 146.488 427.82 154.077C429.486 161.112 431.189 165.993 432.129 166.469C440.433 170.704 464.122 167.996 464.884 167.102C465.385 166.515 464.899 163.473 464.435 160.736C464.033 158.364 464.624 155.999 466.671 154.735C471.882 151.517 482.16 147.424 482.263 144.52Z" fill="#CE8BC0"/>
<path d="M421.278 67.2292C420.353 67.1435 417.482 63.6787 418.226 56.0267C418.406 54.173 419.192 52.3288 420.876 51.5346C423.912 50.1033 428.289 50.15 428.455 52.6923C428.671 56.0076 424.416 67.4982 421.278 67.2292Z" fill="#042039"/>
<path d="M436.69 93.6553C436.95 95.5472 447.412 94.2628 447.135 92.2146L446.113 84.7256C445.72 81.8455 443.065 79.8306 440.185 80.227C437.318 80.6218 435.308 83.26 435.69 86.1295L436.69 93.6553Z" fill="#CFB293"/>
<path d="M446.432 87.1014C446.276 85.9644 443.156 82.4235 441.231 83.3521C444.486 81.6865 445.669 81.6694 446.178 85.29L446.432 87.1014Z" fill="#042039"/>
<path d="M434.263 85.2797C441.822 85.2797 447.949 79.1443 447.949 71.5759C447.949 64.0076 441.822 57.8722 434.263 57.8722C426.705 57.8722 420.577 64.0076 420.577 71.5759C420.577 79.1443 426.705 85.2797 434.263 85.2797Z" fill="#CFB293"/>
<path d="M420.961 76.4575C422.213 76.2853 423.156 75.6183 423.067 74.9676C422.977 74.317 421.89 73.9291 420.638 74.1013C419.386 74.2735 418.443 74.9405 418.533 75.5911C418.622 76.2418 419.709 76.6297 420.961 76.4575Z" fill="#AA8053"/>
<path d="M435.186 74.5022C436.438 74.3301 437.38 73.663 437.291 73.0124C437.202 72.3617 436.115 71.9739 434.863 72.146C433.611 72.3182 432.668 72.9852 432.757 73.6359C432.847 74.2865 433.934 74.6744 435.186 74.5022Z" fill="#AA8053"/>
<path d="M425.985 72.0702C425.647 72.7386 423.818 75.5422 426.254 76.2887" stroke="#042039" stroke-width="0.69" stroke-miterlimit="10" stroke-linecap="round"/>
<path d="M431.219 78.622C432.117 78.2557 432.851 77.5736 433.282 76.7037" stroke="#042039" stroke-width="0.69" stroke-miterlimit="10" stroke-linecap="round"/>
<path d="M439.237 42.0327C457.353 42.0327 470.354 45.0182 478.831 45.0182C491.876 45.0182 502.173 39.16 516.804 39.16C523.469 39.16 540.527 44.8273 540.527 64.0246C540.527 74.8991 534.46 96.5092 508.526 96.5092C486.311 96.5092 482.437 87.1014 473.431 87.1014C463.94 87.1014 446.284 91.5796 443.311 79.4554C442.927 77.5546 442.516 75.3996 441.877 73.2852C441.021 70.4555 438.61 68.4707 435.782 67.6095C429.148 65.5891 426.257 65.4284 422.336 63.1134C415.558 59.8849 415.237 42.0327 439.237 42.0327Z" fill="#042039"/>
<path d="M442.618 74.1018C444.284 74.1018 445.634 72.7494 445.634 71.0812C445.634 69.4129 444.284 68.0605 442.618 68.0605C440.952 68.0605 439.602 69.4129 439.602 71.0812C439.602 72.7494 440.952 74.1018 442.618 74.1018Z" fill="#CFB293"/>
<path d="M463.784 157.276C463.16 157.849 461.184 160.661 460.508 159.932C459.832 159.203 435.493 102.652 443.476 97.0457" stroke="#042039" stroke-width="0.55" stroke-miterlimit="10" stroke-linecap="round"/>
<path d="M424.825 138.022C424.496 136.173 422.831 116.455 423.897 110.397" stroke="#042039" stroke-width="0.55" stroke-miterlimit="10" stroke-linecap="round"/>
<path d="M472.263 147.739C477.326 145.38 482.075 148.102 483.174 153.579C486.109 168.213 491.265 195.201 492.588 198.024C493.999 200.816 495.746 203.424 497.789 205.791C500.511 209.558 498.144 216.406 496.463 216.796C494.781 217.187 490.162 216.024 485.802 207.753C484.684 205.635 485.49 200.22 484.311 198.814C483.132 197.408 463.465 161.304 463.153 155.654C462.995 152.782 467.649 149.889 472.263 147.739Z" fill="#CFB293"/>
<path d="M357.082 107.1L350.754 93.4493C350.536 92.978 349.977 92.7734 349.506 92.9924C349.035 93.2113 348.83 93.7709 349.048 94.2422L355.377 107.893C355.595 108.364 356.154 108.569 356.625 108.35C357.096 108.131 357.301 107.571 357.082 107.1Z" fill="#042039"/>
</g>
</svg>
