<svg width="1366" height="768" viewBox="0 0 1366 768" fill="none" xmlns="http://www.w3.org/2000/svg">
<g clip-path="url(#clip0)">
<rect width="1366" height="768" fill="#FAEFD9"/>
<path d="M398.499 756.644C582.608 756.644 731.858 607.395 731.858 423.286C731.858 239.177 582.608 89.9275 398.499 89.9275C214.391 89.9275 65.1411 239.177 65.1411 423.286C65.1411 607.395 214.391 756.644 398.499 756.644Z" fill="#F4E4E5"/>
<path d="M666.498 767.858C666.644 764.718 666.74 761.57 666.74 758.37C666.74 607.129 504.278 484.524 303.874 484.524C103.47 484.524 -59 607.156 -59 758.37C-59 761.548 -58.9055 764.692 -58.7581 767.858H666.498Z" fill="#CBCBCB"/>
<path d="M873.991 767.857C874.094 765.64 874.172 763.415 874.172 761.173C874.172 654.354 752.86 567.756 603.216 567.756C453.571 567.756 332.259 654.354 332.259 761.173C332.259 763.415 332.328 765.64 332.44 767.857H873.991Z" fill="#E9E9E9"/>
<path d="M80.6659 767.857C81.1601 764.933 81.4081 761.973 81.4074 759.007C81.4074 735.47 66.0978 716.391 47.2086 716.391C28.3194 716.391 13.0195 735.471 13.0195 759.008C13.019 761.977 13.2677 764.941 13.7628 767.868L80.6659 767.857Z" fill="#CFB294"/>
<path d="M644.943 767.857C645.438 764.933 645.686 761.973 645.685 759.007C645.685 735.47 630.375 716.391 611.487 716.391C592.599 716.391 577.289 735.47 577.289 759.007C577.289 761.976 577.537 764.94 578.032 767.867L644.943 767.857Z" fill="#8D9E40"/>
<path d="M775.803 371.985L676.606 767.858H875L775.803 371.985Z" fill="#AFC15B"/>
<path d="M533.317 497.496C515.619 514.357 581.419 575.32 590.984 566.963C600.549 558.606 550.61 481.022 533.317 497.496Z" fill="#A5DE9A"/>
<path d="M540.77 505.94C548.185 512.366 582.171 549.402 590.985 566.962" stroke="#FBDC8E" stroke-width="2" stroke-miterlimit="10" stroke-linecap="round"/>
<path d="M212.44 516.549C237.884 528.123 240.799 571.033 236.18 580.624C228.789 595.943 201.887 618.109 194.65 633.413C191.545 639.985 165.281 708.447 140.856 700.465C119.112 693.332 107.218 661.85 119.5 639.951C137.612 607.572 144.909 564.378 151.327 552.838C159.792 537.662 187.677 505.285 212.44 516.549Z" fill="#A5DE99"/>
<path d="M132 768.01C132 752.33 141.488 626.857 186.614 575.611" stroke="#EFC156" stroke-width="3" stroke-miterlimit="10" stroke-linecap="round"/>
<path d="M170.554 599.381L160.782 562" stroke="#EFC156" stroke-width="3" stroke-miterlimit="10" stroke-linecap="round"/>
<path d="M567.284 443.357C600.68 434.283 612.996 565.083 596.126 568.894C579.256 572.706 548.118 448.566 567.284 443.357Z" fill="#6ABD58"/>
<path d="M574.942 465.212C577.667 473.13 592.899 528.632 596.169 568.895" stroke="#FBDC8E" stroke-width="2" stroke-miterlimit="10" stroke-linecap="round"/>
<path d="M694.692 423.286C702.385 423.286 710.864 435.697 711.416 440.009C712.977 452.171 708.129 460.313 708.406 465.212C709.023 476.14 713.084 485.912 710.083 491.871C692.376 527.148 632.017 519.342 624.824 531.478C622.978 534.928 617.673 545.813 617.673 545.813C614.871 543.01 607.771 523.801 607.771 516.307C607.771 508.812 618.173 488.198 638.58 473.493C649.368 465.721 669.188 423.286 694.692 423.286Z" fill="#A5DE99"/>
<path d="M611.486 564.866C613.737 557.103 635.706 490.691 690.639 459.995" stroke="#FBDC8E" stroke-width="2" stroke-miterlimit="10" stroke-linecap="round"/>
<path d="M671.672 472.88C672.103 469.646 674.312 462.927 671.672 452.991" stroke="#FBDC8E" stroke-width="2" stroke-miterlimit="10" stroke-linecap="round"/>
<path d="M658.338 485.154C658.804 479.91 658.338 472.458 656.466 468.223" stroke="#FBDC8E" stroke-width="2" stroke-miterlimit="10" stroke-linecap="round"/>
<path d="M646.03 499.334C655.183 498.065 664.494 498.548 673.466 500.757" stroke="#FBDC8E" stroke-width="2" stroke-miterlimit="10" stroke-linecap="round"/>
<path d="M681.427 496.081L615.626 767.857H747.228L681.427 496.081Z" fill="#5BCF90"/>
<path d="M47.8901 767.858C47.8901 759.751 62.5527 731.632 87.5656 731.632C112 731.632 117.615 740.585 137.893 740.585C153.039 740.585 152.004 734.617 166.209 734.617C195.258 734.617 206.557 757.646 206.557 767.884L47.8901 767.858Z" fill="#CFB294"/>
<path d="M681.428 582.065V767.858" stroke="#FBDC8E" stroke-width="3" stroke-miterlimit="10" stroke-linecap="round"/>
<path d="M775.803 485.154V767.858" stroke="#FBDC8E" stroke-width="3" stroke-miterlimit="10" stroke-linecap="round"/>
<path d="M681.428 651.48L698.885 634.022" stroke="#FBDC8E" stroke-width="3" stroke-miterlimit="10" stroke-linecap="round"/>
<path d="M681.427 726.872L654.275 699.72" stroke="#FBDC8E" stroke-width="3" stroke-miterlimit="10" stroke-linecap="round"/>
<path d="M775.803 565.91L755.948 546.055" stroke="#FBDC8E" stroke-width="3" stroke-miterlimit="10" stroke-linecap="round"/>
<path d="M775.803 680.201L815.357 640.638" stroke="#FBDC8E" stroke-width="3" stroke-miterlimit="10" stroke-linecap="round"/>
<path d="M13.0195 272.003C13.0195 259.436 44.2249 256.771 56.5499 256.771C81.5628 256.771 83.2277 242.454 103.987 242.454C122.238 242.454 131.529 257.228 148.536 257.228C185.037 257.228 193.162 215.215 228.654 215.215C264.758 215.215 262.921 259.074 296.524 259.074C313.611 259.074 416.258 262.309 416.258 272.012L13.0195 272.003Z" fill="white"/>
<path d="M510.254 325.142C510.254 317.197 537.302 304.77 552.097 304.77C581.275 304.77 572.167 314.956 590.521 314.956C611.437 314.956 616.215 269.596 648.041 269.596C682.822 269.596 677.367 313.955 698.712 313.955C707.905 313.955 712.512 309.642 725.587 309.642C733.16 309.642 741.457 317.216 741.457 325.167L510.254 325.142Z" fill="white"/>
<path d="M360.915 736.771C360.915 738.147 360.515 746.239 361.687 747.597C363.799 750.053 380.894 748.928 381.694 748.137C382.494 747.346 382.987 745.654 382.262 745.17C381.536 744.686 374.746 743.31 373.825 742.668C372.904 742.026 371.639 738.631 372.123 736.808" fill="#0C3559"/>
<path d="M246.495 719.173C245.909 720.408 242.095 727.544 242.579 729.283C243.434 732.408 259.377 738.687 260.447 738.305C261.517 737.924 262.67 736.612 262.224 735.868C261.778 735.124 256.221 730.985 255.657 730.008C255.093 729.032 255.392 725.423 256.587 723.981" fill="#0C3559"/>
<path d="M290.565 486.175C290.277 493.06 288.966 590.35 288.966 590.35L244.318 719.479C245.62 722.53 257.814 726.669 259.553 725.99C261.292 725.312 333.434 594.674 333.434 594.674" fill="#19588E"/>
<path d="M374.843 486.175C378.508 488.594 374.127 736.761 374.127 736.761C372.649 738.482 360.845 738.231 358.873 736.761C356.901 735.291 337.723 618.495 335.751 612.067C333.778 605.64 290.565 486.174 290.565 486.174C290.565 486.174 369.402 482.585 374.843 486.175Z" fill="#317EC2"/>
<path d="M465.603 353.056C468.002 351.372 478.178 339.001 479.374 334.843C480.569 330.686 481.482 315.009 469.614 318.575C457.745 322.141 463.103 334.694 454.731 342.61" fill="#F8CDBA"/>
<path d="M450.897 330.752L461.64 339.325L480.317 315.918L469.574 307.346L450.897 330.752Z" fill="#0C3559"/>
<path d="M318.571 342.61C315.651 345.326 285.784 395.627 285.784 401.924C285.784 408.221 292.676 446.415 296.642 454.56C300.607 462.705 318.571 342.61 318.571 342.61Z" fill="#0C3559"/>
<path d="M336.14 328.611C293.15 328.611 287.531 480.111 290.564 486.203C293.596 492.296 368.769 491.588 374.861 486.203C380.954 480.819 375.681 328.611 336.14 328.611Z" fill="#F9BD4F"/>
<path d="M343.87 333.671C343.87 336.369 328.987 336.572 328.987 333.671V315.589H343.87V333.671Z" fill="#F8CDBA"/>
<path d="M328.969 326.37C328.969 324.761 332.69 319.208 335.48 320.147C331.974 318.911 330.243 314.688 328.969 315.553V326.37Z" fill="#0C3559"/>
<path d="M343.033 321.673C353.723 321.673 362.389 313.006 362.389 302.316C362.389 291.626 353.723 282.96 343.033 282.96C332.343 282.96 323.677 291.626 323.677 302.316C323.677 313.006 332.343 321.673 343.033 321.673Z" fill="#F8CDBA"/>
<path d="M362.602 306.595C364.385 306.595 365.83 305.841 365.83 304.912C365.83 303.982 364.385 303.228 362.602 303.228C360.82 303.228 359.375 303.982 359.375 304.912C359.375 305.841 360.82 306.595 362.602 306.595Z" fill="#FA9E9F"/>
<path d="M342.307 306.595C344.09 306.595 345.535 305.841 345.535 304.912C345.535 303.982 344.09 303.228 342.307 303.228C340.525 303.228 339.08 303.982 339.08 304.912C339.08 305.841 340.525 306.595 342.307 306.595Z" fill="#FA9E9F"/>
<path d="M354.743 301.424C355.338 302.289 358.464 305.908 355.171 307.368" stroke="#0C3559" stroke-width="0.69" stroke-miterlimit="10" stroke-linecap="round"/>
<path d="M348.642 311.59C347.711 311.59 346.177 310.39 345.386 309.302" stroke="#0C3559" stroke-width="0.69" stroke-miterlimit="10" stroke-linecap="round"/>
<path d="M324.532 291.034C324.532 284.319 333.898 279.314 340.419 279.314C350.799 279.314 363.449 281.844 365.533 282.581C369.03 283.799 369.625 287.529 369.625 288.775C369.625 294.003 367.765 297.257 361.961 298.077C361.563 296.232 360.878 294.462 359.931 292.83C358.325 292.213 356.552 292.183 354.926 292.746C353.457 293.258 341.179 299.043 332.091 299.043C330.882 300.745 328.222 311.137 329.002 315.544C326.342 315.702 321.44 307.042 321.188 302.522C321.132 300.971 321.438 299.428 322.084 298.016C322.731 296.605 323.698 295.364 324.909 294.393C324.793 293.416 324.532 291.564 324.532 291.034Z" fill="#0C3559"/>
<path d="M331.239 307.497C333.592 307.497 335.499 305.59 335.499 303.237C335.499 300.884 333.592 298.977 331.239 298.977C328.886 298.977 326.979 300.884 326.979 303.237C326.979 305.59 328.886 307.497 331.239 307.497Z" fill="#F8CDBA"/>
<path d="M324.839 369.537C335.499 385.824 393.129 411.514 399.194 411.514C415.276 411.514 462.889 358.673 465.605 353.037C462.471 349.689 455.793 342.591 454.747 342.591C453.702 342.591 408.381 373.918 399.814 373.918C391.248 373.918 350.645 345.353 345.364 344.07" fill="#F9BD4F"/>
<path d="M359.728 352.246C352.706 347.883 347.115 344.488 345.367 344.07" stroke="#0C3559" stroke-linecap="round" stroke-linejoin="round"/>
<path d="M371.792 400.65C353.19 391.711 331.045 379.043 324.839 369.556" stroke="#0C3559" stroke-linecap="round" stroke-linejoin="round"/>
<path d="M374.796 423.699C374.415 420.062 355.57 392.41 351.933 390.27C355.793 392.418 370.405 399.832 371.795 400.65C372.601 402.814 374.796 423.699 374.796 423.699Z" fill="#0C3559"/>
</g>
<defs>
<clipPath id="clip0">
<rect width="1366" height="768" fill="white"/>
</clipPath>
</defs>
</svg>
