<svg width="20" height="20" viewBox="0 0 20 20" fill="none" xmlns="http://www.w3.org/2000/svg">
<path d="M6.1785 14.8239V18.3327H12.3539V15.7011C14.824 15.7011 15.4415 15.1163 15.4415 14.8239L15.636 11.8512C16.3222 11.9974 17.5 11.4906 17.5 10.4379C17.5 9.38531 16.5293 7.68941 15.8431 6.66602C15.8431 3.50812 11.7592 1.81221 10.0438 1.66602C1.81009 1.66602 0.00329399 9.56075 6.1785 14.8239Z" stroke="#262626" stroke-width="1.45833"/>
<path fill-rule="evenodd" clip-rule="evenodd" d="M9.52983 5.83293C9.54807 5.81483 9.56598 5.79635 9.58355 5.77749C9.60111 5.79635 9.61902 5.81483 9.63727 5.83293C10.172 5.84646 10.6567 6.06149 11.0182 6.40493C11.0439 6.40504 11.0696 6.40463 11.0954 6.40372C11.0945 6.42948 11.0941 6.45522 11.0942 6.48092C11.4376 6.84244 11.6527 7.32711 11.6662 7.86185C11.6843 7.8801 11.7028 7.89801 11.7216 7.91558C11.7028 7.93314 11.6843 7.95105 11.6662 7.9693C11.6527 8.50404 11.4376 8.98872 11.0942 9.35023C11.0941 9.37593 11.0945 9.40168 11.0954 9.42744C11.0696 9.42652 11.0439 9.42612 11.0182 9.42622C10.6567 9.76966 10.172 9.9847 9.63727 9.99823C9.61903 10.0163 9.60111 10.0348 9.58355 10.0537C9.56599 10.0348 9.54807 10.0163 9.52983 9.99823C8.99508 9.9847 8.51041 9.76967 8.1489 9.42623C8.12319 9.42612 8.09745 9.42652 8.07169 9.42744C8.07261 9.40168 8.07301 9.37594 8.0729 9.35023C7.72946 8.98872 7.51443 8.50405 7.50089 7.9693C7.4828 7.95106 7.46432 7.93314 7.44545 7.91558C7.46432 7.89801 7.4828 7.8801 7.50089 7.86186C7.51443 7.32711 7.72946 6.84244 8.0729 6.48092C8.07301 6.45522 8.07261 6.42948 8.07169 6.40372C8.09745 6.40464 8.12319 6.40504 8.14889 6.40493C8.51041 6.06149 8.99508 5.84646 9.52983 5.83293ZM8.88784 4.34689C9.03867 3.58489 10.1284 3.58489 10.2793 4.34689L10.3258 4.58182C10.424 5.0782 10.9956 5.31494 11.416 5.03343L11.615 4.90019C12.2605 4.46804 13.0311 5.23861 12.5989 5.88408L12.4657 6.08308C12.1842 6.50355 12.4209 7.07511 12.9173 7.17336L13.1522 7.21987C13.9142 7.3707 13.9142 8.46046 13.1522 8.61129L12.9173 8.6578C12.4209 8.75605 12.1842 9.32761 12.4657 9.74807L12.5989 9.94708C13.0311 10.5925 12.2605 11.3631 11.615 10.931L11.416 10.7977C10.9956 10.5162 10.424 10.753 10.3258 11.2493L10.2793 11.4843C10.1284 12.2463 9.03867 12.2463 8.88784 11.4843L8.84133 11.2493C8.74307 10.753 8.17152 10.5162 7.75105 10.7977L7.55205 10.931C6.90658 11.3631 6.136 10.5925 6.56816 9.94708L6.7014 9.74807C6.98291 9.32761 6.74617 8.75605 6.24979 8.6578L6.01486 8.61129C5.25286 8.46046 5.25286 7.3707 6.01486 7.21987L6.24979 7.17336C6.74617 7.07511 6.98291 6.50355 6.7014 6.08308L6.56816 5.88408C6.136 5.23861 6.90658 4.46804 7.55205 4.90019L7.75105 5.03343C8.17152 5.31494 8.74307 5.0782 8.84133 4.58182L8.88784 4.34689Z" fill="#262626"/>
</svg>
