<svg width="201" height="200" viewBox="0 0 201 200" fill="none" xmlns="http://www.w3.org/2000/svg">
<path d="M200.196 192.288L176.368 121.988L157.498 170.862L164.953 200H194.641C196.523 200 198.291 199.096 199.396 197.568C200.494 196.041 200.797 194.073 200.196 192.288Z" fill="#042039"/>
<path d="M0.803576 192.288C0.202796 194.073 0.50592 196.041 1.60475 197.568C2.70904 199.096 4.47739 200 6.35981 200H36.0472L45.0492 181.434L24.6316 121.988L0.803576 192.288Z" fill="#0C3559"/>
<path d="M172.231 118.161L167.934 117.087L104.552 166.068C103.419 167.15 101.959 167.693 100.5 167.693C99.0527 167.693 97.5992 167.155 96.4719 166.086L32.5396 117.219L28.7689 118.161C26.8236 118.641 25.2615 120.089 24.6318 121.988L36.0474 200H100.5H164.953L176.369 121.988C175.739 120.089 174.177 118.641 172.231 118.161Z" fill="#19588F"/>
<path d="M176.368 121.988C175.739 120.089 174.177 118.642 172.231 118.161L167.934 117.087L104.551 166.068C103.418 167.15 101.959 167.693 100.5 167.693V200H164.953L176.368 121.988Z" fill="#0C3559"/>
<path d="M135.395 108.954L100.5 127.984L65.6046 108.954L32.5391 117.219L96.4713 177.802C97.5986 178.872 99.0518 179.41 100.5 179.41C101.959 179.41 103.418 178.866 104.551 177.785L167.934 117.087L135.395 108.954Z" fill="#EAF3FA"/>
<path d="M167.934 117.087L135.395 108.954L100.5 127.984V179.41C101.959 179.41 103.418 178.867 104.551 177.785L167.934 117.087Z" fill="#C6DEF3"/>
<path d="M125.356 106.444H100.5H75.6431L65.6045 108.954L96.3568 139.7C97.5013 140.845 99.0005 141.417 100.499 141.417C101.998 141.417 103.498 140.845 104.642 139.7L135.394 108.954L125.356 106.444Z" fill="#CFB293"/>
<path d="M135.395 108.954L125.357 106.444H100.5V141.417C101.999 141.417 103.498 140.845 104.643 139.7L135.395 108.954Z" fill="#CFB293"/>
<path d="M100.5 52.5791H59.4844V76.5852C59.4844 99.1947 77.8863 117.984 100.5 117.984C123.114 117.984 141.515 99.1947 141.515 76.5852V52.5791H100.5Z" fill="#E5D6C6"/>
<path d="M141.516 76.5852V52.5791H100.5V117.984C123.114 117.984 141.516 99.1947 141.516 76.5852Z" fill="#E5D6C6"/>
<path d="M159.094 82.4434C155.855 82.4434 153.234 79.8232 153.234 76.5851V19.953C153.234 16.7149 155.855 14.0947 159.094 14.0947C162.332 14.0947 164.953 16.7149 164.953 19.953V76.5851C164.953 79.8232 162.332 82.4434 159.094 82.4434Z" fill="#F8BD4F"/>
<path d="M100.5 23.8604H59.4844V52.5789L99.5386 59.2561C99.8632 59.3089 100.182 59.3733 100.5 59.3733C100.817 59.3741 101.134 59.3096 101.461 59.2561L141.515 52.5789V23.8604H100.5Z" fill="#0C3559"/>
<path d="M141.516 52.5789V23.8604H100.5V59.3733C100.818 59.3741 101.134 59.3096 101.461 59.2561L141.516 52.5789Z" fill="#042039"/>
<path d="M171.773 12.2243L101.461 0.117166C101.146 0.0656128 100.823 0 100.5 0C100.176 0 99.8533 0.0656128 99.5385 0.117166L29.2262 12.2243C26.3996 12.6933 24.3281 15.1363 24.3281 18.0025C24.3281 20.8688 26.3996 23.3117 29.2265 23.7807L99.5389 35.4973C99.8658 35.5508 100.182 35.6153 100.5 35.6145C100.818 35.6145 101.137 35.5504 101.462 35.4973L171.774 23.7807C174.6 23.3117 176.672 20.8688 176.672 18.0025C176.672 15.1363 174.6 12.6933 171.773 12.2243Z" fill="#19588F"/>
<path d="M171.774 23.7807C174.6 23.3117 176.672 20.8688 176.672 18.0025C176.672 15.1363 174.6 12.6933 171.774 12.2243L101.461 0.117166C101.146 0.0656128 100.823 0 100.5 0V35.6145C100.818 35.6145 101.137 35.5504 101.461 35.4973L171.774 23.7807Z" fill="#0C3559"/>
</svg>
