<svg width="444" height="377" viewBox="0 0 444 377" fill="none" xmlns="http://www.w3.org/2000/svg">
<path d="M139 118.011C139 108.713 162.527 106.742 171.825 106.742C190.682 106.742 191.93 96.1554 207.588 96.1554C221.356 96.1554 228.354 107.086 241.173 107.086C268.679 107.087 274.804 76.0156 301.562 76.0156C328.788 76.0156 327.397 108.451 352.733 108.451C365.613 108.451 443 110.835 443 118.016L139 118.011Z" fill="#E9E9E9"/>
<path d="M299.006 280.925C287.614 276.049 274.889 281.827 270.014 293.218C265.138 304.609 270.917 317.334 282.307 322.21C293.693 326.376 342.619 322.437 342.619 322.437C342.619 322.437 310.392 285.091 299.006 280.925Z" fill="#F8BD4F"/>
<path d="M284.603 285.881C279.272 283.748 273.847 286.254 271.033 292.531C268.892 298.785 270.784 304.9 276.099 307.805C281.43 309.938 303.647 307.622 303.647 307.622C303.647 307.622 289.92 288.786 284.603 285.881Z" fill="#FAD897"/>
<path d="M273.485 260.767L229.769 238.707C248.592 211.454 282.665 204.066 306.757 222.855C313.449 228.119 318.753 234.994 322.685 242.697C305.099 239.359 286.647 246.234 273.485 260.767Z" fill="#203999"/>
<path d="M247.035 315.55L204.668 294.365C198.711 327.092 215.181 358.269 243.333 366.345C251.195 368.335 259.089 368.812 266.371 367.041C253.458 354.644 245.946 336.005 247.035 315.55Z" fill="#203999"/>
<path d="M49.2771 234.708C106.466 288.175 136.985 289.35 250.761 321.078L280.043 256.278C180.91 192.504 159.45 170.681 82.0558 163.494C61.6394 183.524 49.7657 207.033 49.2771 234.708Z" fill="#596FC7"/>
<path d="M81.6719 164.17C61.9652 184.194 50.0914 207.703 49.6029 235.378L0.837265 170.492L81.6719 164.17Z" fill="#203999"/>
<path d="M291.738 258.987L259.669 330.195C256.814 328.09 253.954 325.274 251.093 322.459L280.375 257.659C283.922 257.631 288.184 258.306 291.738 258.987Z" fill="#3C54AF"/>
<path fill-rule="evenodd" clip-rule="evenodd" d="M205.056 70.7633C209.445 66.4858 212.652 61.0421 212.796 54.622C213.214 36.1239 187.255 37.791 181.417 46.6047C175.579 55.4183 173.985 79.0021 180.263 81.2572C182.767 82.1566 188.381 81.0445 194.254 78.209L188.47 102.58L209.08 104.494L205.056 70.7633Z" fill="#BF9972"/>
<path fill-rule="evenodd" clip-rule="evenodd" d="M190.495 37.2585C193.391 36.6613 197.507 36.7497 199.208 37.1064C198.447 34.6716 198.302 32.0241 198.854 29.5108C199.391 27.0686 200.691 25.0674 201.917 22.9577C202.482 21.9853 203.109 21.0242 203.976 20.3209C204.86 19.6043 205.934 19.1769 207.032 19.0274C208.156 18.8743 209.305 19.0024 210.386 19.3364C210.864 19.4841 211.281 19.7477 211.747 19.916C212.225 20.0884 212.491 19.804 212.875 19.529C213.8 18.8665 215.09 18.6167 216.186 18.5862C217.415 18.5521 218.66 18.8526 219.782 19.36C220.874 19.8538 221.9 20.5863 222.63 21.5824C222.956 22.0259 223.242 22.5228 223.409 23.0576C223.477 23.277 223.48 23.4035 223.683 23.5005C223.872 23.5903 224.1 23.6135 224.294 23.7004C226.179 24.5401 227.703 26.1981 228.43 28.2127C228.854 29.3879 228.92 31.394 228.645 33.6101C228.37 35.8261 225.825 41.4387 223.751 43.3796C221.901 45.112 219.322 46.1292 216.895 46.4538C218.305 48.4034 219.146 50.7539 219.71 53.1175C220.322 55.6849 220.604 58.3196 220.552 60.9727C220.502 63.4934 220.274 66.1426 219.459 68.5384C218.697 70.7787 217.348 72.5494 215.277 73.5599C214.329 74.0228 213.324 74.3434 212.318 74.6283C211.326 74.9089 210.332 75.1791 209.31 75.2933C207.375 75.5094 205.194 75.2389 203.872 73.592C203.395 72.9983 202.879 72.2599 202.556 71.5587C202.44 71.3066 202.372 71.1423 202.561 70.924C202.788 70.6625 203.134 70.4781 203.413 70.2829C205.003 69.1702 206.07 67.5867 206.485 65.6255C206.905 63.6356 206.606 60.9891 204.731 59.9296C202.418 58.6217 199.644 59.6187 197.39 60.5789C196.777 57.2757 195.174 54.2039 192.375 52.4549C189.279 50.52 185.57 49.9827 182.363 48.2714C181.527 47.8255 180.68 47.3287 180.109 46.5251C179.87 46.1893 179.593 45.7568 179.525 45.3356C179.435 44.7823 179.825 44.3617 180.133 43.9655C181.768 41.8648 187.599 37.8557 190.495 37.2585Z" fill="#030F44"/>
<path d="M76.9674 183.924C77.601 177.001 93.5278 172.896 98.9172 181.831L101.762 216.319C101.829 220.986 101.863 225.964 101.856 231.11C101.832 248.727 96.7474 286.127 94.8819 296.878C93.7094 303.635 84.5974 300.992 84.2373 295.463C83.8773 289.935 75.3037 202.103 76.9674 183.924Z" fill="#BF9972"/>
<path fill-rule="evenodd" clip-rule="evenodd" d="M75.5261 190.124C73.4094 212.917 78.4244 267.423 77.9652 272.442L102.243 273.874C102.339 226.898 102.732 203.283 103.424 203.029C104.981 202.457 163.757 216.953 181.572 219.29C207.261 222.66 219.394 207.835 223.047 177.902L173.111 173.265C129.938 174.396 101.544 175.335 87.9309 176.081C79.1887 176.56 76.1092 183.845 75.5261 190.124Z" fill="#102373"/>
<path fill-rule="evenodd" clip-rule="evenodd" d="M97.6372 290.831C98.3598 293.485 98.662 295.448 98.5437 296.722C98.3999 298.27 97.9321 300.506 97.1402 303.429C95.3436 303.263 79.198 301.763 48.7034 298.931C47.8311 294.653 48.7663 292.474 51.509 292.394C54.2517 292.314 56.5324 292.224 58.3509 292.123L81.796 284.177C82.2471 284.024 82.7368 284.266 82.8897 284.717C82.8923 284.725 82.8948 284.733 82.8972 284.741L84.0183 288.385C86.42 289.79 88.4057 290.565 89.9752 290.711C91.2505 290.829 93.0595 290.478 95.4021 289.656L95.4021 289.656C96.3011 289.341 97.2855 289.814 97.6007 290.713C97.6143 290.752 97.6265 290.791 97.6372 290.831Z" fill="#3C54AF"/>
<path fill-rule="evenodd" clip-rule="evenodd" d="M144.13 81.4349L112.486 68.6403C106.853 63.3492 101.446 59.3611 96.2663 56.6758C94.7281 56.2357 92.1203 56.1662 95.018 60.141C97.9156 64.1159 100.785 68.4272 99.7169 69.8818C98.6491 71.3365 95.3876 69.8623 94.1858 72.212C93.3847 73.7785 98.8586 75.4622 110.608 77.2629L134.533 94.5081L144.13 81.4349ZM141.677 139.092L112.415 156.664C104.799 157.979 98.36 159.896 93.098 162.417C91.8209 163.381 90.1959 165.422 95.1142 165.5C100.033 165.578 105.202 165.881 105.721 167.609C106.241 169.337 103.1 171.055 104.254 173.429C105.023 175.011 109.662 171.653 118.17 163.353L146.342 154.624L141.677 139.092Z" fill="#BF9972"/>
<path fill-rule="evenodd" clip-rule="evenodd" d="M189.249 88.8675C171.749 115.298 148.197 134.617 114.865 153.878L125.467 168.329C161.589 158.596 180.745 152.478 192.235 127.039C195.119 120.654 198.659 99.7754 201.049 88.839L189.249 88.8675Z" fill="#8597DD"/>
<path fill-rule="evenodd" clip-rule="evenodd" d="M222.349 185.415L156.223 179.274C175.444 134.982 186.008 104.339 187.914 87.3445C188.011 86.4781 189.756 85.0975 190.446 85.3637C195.497 87.31 201.097 87.2778 207.248 85.2668C220.583 111.935 223.121 143.48 222.349 185.415Z" fill="#E9E9E9"/>
<path fill-rule="evenodd" clip-rule="evenodd" d="M201.603 84.7836C182.633 83.1785 151.559 83.7839 117.15 69.1038L112.024 86.275C137.228 106.004 163.13 121.88 187.09 122.192C172.648 165.534 169.756 201.844 192.557 203.961C203.446 204.973 215.199 206.064 227.816 207.236C236.911 170.122 227.039 116.576 215.839 88.9894C215.411 87.936 214.478 85.9383 211.865 85.6956C209.588 85.4842 206.173 85.167 201.62 84.7442C201.614 84.7573 201.608 84.7705 201.603 84.7836Z" fill="#8597DD"/>
<path d="M271.327 112.662C259.037 92.1639 219.585 89.9419 213.049 85.599L204.34 84.9837C202.426 88.8376 196.682 117.038 206.788 131.679C219.42 149.98 214.203 148.864 212.979 182.175C211.756 215.487 227.762 236.326 234.28 246.318C239.495 254.312 262.536 274.994 263.592 286.263C266.205 287.374 276.982 252.798 289.863 246.534C305.966 238.705 302.525 268.836 324.745 256.528C346.965 244.219 345.908 219.283 357.314 213.737C368.719 208.191 407.138 197.783 409.923 188.156C412.708 178.529 343.447 180.953 333.044 163.825C322.641 146.696 286.689 138.284 271.327 112.662Z" fill="#F2A922"/>
<path d="M46 214.093C46 204.795 69.5269 202.824 78.8247 202.824C97.682 202.824 98.9303 192.237 114.588 192.237C128.356 192.237 135.354 203.168 148.173 203.168C175.679 203.169 181.804 172.098 208.562 172.098C235.788 172.098 234.397 204.533 259.733 204.533C272.613 204.533 350 206.917 350 214.098L46 214.093Z" fill="#E9E9E9"/>
</svg>
