<svg width="549" height="435" viewBox="0 0 549 435" fill="none" xmlns="http://www.w3.org/2000/svg">
<path d="M545.595 167.047C545.595 167.036 545.595 167.025 545.592 167.014C545.591 167.011 545.592 167.008 545.591 167.004C545.565 166.924 545.464 166.873 545.365 166.887L545.176 166.914L513.584 171.398C513.501 171.41 513.437 171.463 513.423 171.53C513.409 171.596 513.448 171.663 513.522 171.696L519.635 174.451L523.566 181.879C523.569 181.885 523.577 181.889 523.582 181.896C523.588 181.905 523.595 181.912 523.604 181.92C523.618 181.933 523.635 181.943 523.654 181.951C523.661 181.955 523.665 181.961 523.673 181.964C523.679 181.966 523.685 181.965 523.691 181.967C523.695 181.968 523.698 181.971 523.703 181.972C523.718 181.974 523.733 181.976 523.749 181.976C523.772 181.976 523.795 181.973 523.817 181.966C523.838 181.96 523.859 181.95 523.877 181.938L528.853 178.544L533.051 180.543C533.082 180.558 533.117 180.565 533.152 180.565C533.213 180.565 533.273 180.543 533.312 180.5L545.449 167.219L545.461 167.206L545.474 167.192C545.492 167.186 545.509 167.178 545.524 167.168C545.546 167.154 545.563 167.137 545.576 167.118C545.576 167.117 545.576 167.116 545.576 167.116C545.582 167.106 545.585 167.095 545.588 167.085C545.59 167.079 545.594 167.073 545.596 167.066C545.596 167.065 545.596 167.063 545.596 167.061C545.597 167.056 545.595 167.051 545.595 167.047ZM514.203 171.636L543.071 167.538L519.811 174.163L514.203 171.636ZM520.057 174.433L541.576 168.304L523.015 175.471C522.951 175.496 522.908 175.547 522.903 175.604C522.902 175.615 522.909 175.625 522.911 175.636C522.91 175.645 522.902 175.652 522.903 175.661L523.447 180.837L520.057 174.433ZM526.072 180.021L523.914 181.493L523.328 175.912L528.49 178.371L526.072 180.021ZM533.098 180.194L528.938 178.212C528.937 178.211 528.936 178.21 528.934 178.209L523.559 175.65L544.709 167.489L533.098 180.194Z" fill="#317EC2"/>
<path d="M522.113 189.733C514.896 206.42 493.908 240.648 467.689 244.063C434.915 248.331 405.916 234.167 372.546 247.749C345.85 258.615 342.487 267.541 344.142 270.645" stroke="#317EC2" stroke-dasharray="20 30"/>
<path d="M0.166885 145.374C0.16674 145.363 0.167007 145.352 0.169674 145.341C0.170498 145.338 0.169434 145.335 0.170525 145.332C0.196709 145.251 0.297382 145.2 0.396891 145.214L0.585577 145.241L32.1774 149.726C32.2603 149.737 32.3249 149.79 32.339 149.857C32.353 149.924 32.3134 149.99 32.2399 150.023L26.1268 152.779L22.1958 160.206C22.1922 160.212 22.1847 160.217 22.1801 160.223C22.1734 160.232 22.1662 160.24 22.1574 160.248C22.1434 160.26 22.1267 160.27 22.1082 160.279C22.1009 160.282 22.0967 160.288 22.0889 160.291C22.0831 160.293 22.0769 160.292 22.071 160.294C22.0666 160.295 22.0634 160.298 22.0588 160.299C22.0437 160.302 22.0284 160.303 22.0131 160.303C21.9899 160.303 21.9669 160.3 21.9452 160.293C21.9235 160.287 21.903 160.278 21.8848 160.265L16.9089 156.871L12.7111 158.87C12.6795 158.885 12.6445 158.893 12.6102 158.893C12.5489 158.893 12.4888 158.87 12.4502 158.828L0.312634 145.546L0.300678 145.533L0.287586 145.519C0.269234 145.513 0.252235 145.505 0.237469 145.496C0.216061 145.481 0.198479 145.464 0.186115 145.445C0.185749 145.444 0.185776 145.444 0.18541 145.443C0.179497 145.433 0.176826 145.423 0.173409 145.412C0.171349 145.406 0.167274 145.4 0.166183 145.394C0.165894 145.392 0.165894 145.39 0.165649 145.388C0.16507 145.384 0.166958 145.379 0.166885 145.374ZM31.5587 149.963L2.6912 145.866L25.9511 152.491L31.5587 149.963ZM25.7043 152.76L4.1854 146.631L22.7463 153.798C22.8107 153.823 22.8535 153.874 22.8586 153.932C22.8596 153.943 22.8528 153.952 22.8511 153.963C22.8521 153.972 22.8594 153.979 22.8584 153.989L22.315 159.164L25.7043 152.76ZM19.6893 158.348L21.8476 159.82L22.4334 154.24L17.2713 156.698L19.6893 158.348ZM12.6634 158.521L16.8236 156.539C16.8251 156.538 16.8258 156.537 16.8274 156.536L22.2028 153.977L1.05291 145.816L12.6634 158.521Z" fill="#317EC2"/>
<path d="M26.9786 172.212C34.1955 188.899 55.1839 223.127 81.4028 226.542C114.177 230.81 143.176 216.646 176.546 230.228C203.242 241.094 206.605 250.02 204.95 253.124" stroke="#317EC2" stroke-dasharray="20 30"/>
<path d="M149.436 29.4081C154.021 27.3482 159.133 30.884 158.666 35.7924C158.198 40.7295 152.443 43.3493 148.325 40.5008C144.207 37.6522 144.825 31.48 149.436 29.4081Z" stroke="#317EC2"/>
<path d="M522.594 308.882C521.723 304.022 526.547 300.078 531.291 301.771C536.05 303.47 537.159 309.563 533.285 312.73C529.412 315.896 523.467 313.757 522.594 308.882Z" stroke="#317EC2"/>
<path d="M87.9527 94.1051C88.0984 93.8728 88.0252 93.5653 87.7892 93.4182L83.9436 91.0215C83.7076 90.8744 83.3982 90.9435 83.2525 91.1758C83.1068 91.4081 83.18 91.7157 83.416 91.8627L86.8343 93.9932L84.7238 97.358C84.5781 97.5903 84.6513 97.8979 84.8873 98.045C85.1233 98.192 85.4327 98.1229 85.5784 97.8906L87.9527 94.1051ZM45.4161 107.809C45.8721 108.023 45.8721 108.023 45.8721 108.023C45.8721 108.023 45.872 108.023 45.872 108.023C45.872 108.023 45.872 108.023 45.8721 108.023C45.8721 108.023 45.8722 108.023 45.8724 108.022C45.8727 108.022 45.8733 108.02 45.8742 108.019C45.8759 108.015 45.8786 108.009 45.8823 108.002C45.8897 107.986 45.901 107.963 45.9163 107.931C45.9469 107.869 45.9933 107.776 46.0553 107.656C46.1792 107.416 46.3653 107.067 46.6116 106.64C47.1046 105.786 47.8373 104.617 48.7944 103.366L47.9917 102.759C47.0032 104.051 46.2474 105.256 45.7383 106.139C45.4836 106.581 45.2903 106.942 45.1601 107.195C45.0949 107.321 45.0456 107.42 45.0122 107.488C44.9955 107.522 44.9828 107.548 44.9741 107.566C44.9698 107.575 44.9665 107.582 44.9641 107.587C44.963 107.59 44.9621 107.592 44.9614 107.593C44.9611 107.594 44.9608 107.594 44.9606 107.595C44.9605 107.595 44.9604 107.595 44.9604 107.595C44.9603 107.595 44.9603 107.595 44.9603 107.595C44.9602 107.596 44.9602 107.596 45.4161 107.809ZM57.281 96.6562C58.9129 96.0874 60.7011 95.838 62.6401 96.0791L62.754 95.0912C60.6473 94.8292 58.703 95.1014 56.9384 95.7165L57.281 96.6562ZM62.6401 96.0791C64.6812 96.3328 66.8196 96.4322 68.9471 96.4265L68.9331 95.4308C66.8372 95.4364 64.7429 95.3384 62.754 95.0912L62.6401 96.0791ZM81.4665 95.4181C83.3104 95.1488 84.852 94.8759 85.9334 94.6701C86.4741 94.5672 86.8999 94.4811 87.1911 94.4205C87.3366 94.3903 87.4486 94.3664 87.5244 94.35C87.5623 94.3419 87.5911 94.3355 87.6107 94.3313C87.6204 94.3291 87.6279 94.3275 87.6329 94.3263C87.6355 94.3258 87.6374 94.3254 87.6388 94.3251C87.6394 94.3249 87.6399 94.3248 87.6403 94.3247C87.6405 94.3247 87.6407 94.3246 87.6408 94.3246C87.6408 94.3246 87.6409 94.3246 87.6409 94.3246C87.6409 94.3246 87.641 94.3246 87.5254 93.8388C87.4098 93.3531 87.4098 93.3531 87.4098 93.3531C87.4098 93.3531 87.4098 93.3531 87.4098 93.3531C87.4097 93.3531 87.4097 93.3531 87.4095 93.3532C87.4093 93.3532 87.4089 93.3533 87.4084 93.3534C87.4073 93.3537 87.4057 93.354 87.4034 93.3545C87.399 93.3555 87.3921 93.357 87.3829 93.3591C87.3645 93.3631 87.3368 93.3691 87.3001 93.3771C87.2267 93.3929 87.1173 93.4163 86.9743 93.446C86.6883 93.5055 86.2681 93.5905 85.7333 93.6922C84.6637 93.8958 83.1365 94.1662 81.3092 94.433L81.4665 95.4181Z" fill="#317EC2"/>
<path d="M453.697 41.4005C453.419 41.4209 453.208 41.6584 453.227 41.9309L453.533 46.3716C453.552 46.6441 453.793 46.8484 454.071 46.828C454.35 46.8076 454.56 46.5701 454.541 46.2976L454.269 42.3503L458.301 42.0545C458.58 42.034 458.79 41.7966 458.771 41.5241C458.753 41.2516 458.512 41.0472 458.233 41.0676L453.697 41.4005ZM490.12 66.8673C490.023 66.3825 490.023 66.3825 490.023 66.3825C490.023 66.3825 490.023 66.3825 490.023 66.3825C490.023 66.3825 490.023 66.3825 490.023 66.3825C490.023 66.3826 490.022 66.3826 490.022 66.3827C490.021 66.3828 490.02 66.3831 490.018 66.3835C490.014 66.3843 490.008 66.3855 489.999 66.3871C489.982 66.3904 489.956 66.3953 489.921 66.4016C489.852 66.4142 489.748 66.4325 489.612 66.4544C489.341 66.4983 488.945 66.5568 488.448 66.6144C487.453 66.7297 486.058 66.841 484.463 66.8248L484.445 67.8144C486.093 67.8311 487.531 67.7162 488.559 67.5971C489.073 67.5376 489.485 67.4768 489.77 67.4307C489.912 67.4077 490.023 67.3883 490.098 67.3745C490.136 67.3676 490.165 67.3622 490.185 67.3583C490.196 67.3564 490.203 67.3549 490.209 67.3539C490.211 67.3533 490.214 67.3529 490.215 67.3526C490.216 67.3524 490.216 67.3523 490.217 67.3522C490.217 67.3522 490.217 67.3521 490.218 67.3521C490.218 67.3521 490.218 67.3521 490.218 67.3521C490.218 67.352 490.218 67.352 490.12 66.8673ZM473.906 64.0941C472.472 63.1426 471.209 61.8789 470.264 60.2057L469.379 60.6899C470.407 62.5094 471.782 63.8846 473.335 64.9148L473.906 64.0941ZM470.264 60.2057C469.27 58.4471 468.092 56.7028 466.833 55.0289L466.018 55.6197C467.258 57.2684 468.411 58.9767 469.379 60.6899L470.264 60.2057ZM458.613 45.7466C457.302 44.4503 456.166 43.3947 455.357 42.6627C454.953 42.2967 454.631 42.0114 454.409 41.8174C454.298 41.7203 454.212 41.6461 454.154 41.5959C454.124 41.5708 454.102 41.5517 454.087 41.5388C454.08 41.5324 454.074 41.5275 454.07 41.5241C454.068 41.5225 454.066 41.5212 454.065 41.5203C454.065 41.5199 454.064 41.5195 454.064 41.5193C454.064 41.5192 454.064 41.5191 454.064 41.519C454.064 41.5189 454.064 41.5189 454.064 41.5189C454.064 41.5189 454.064 41.5188 453.731 41.8939C453.399 42.2689 453.399 42.2689 453.399 42.2689C453.399 42.2689 453.399 42.2689 453.399 42.2689C453.399 42.269 453.399 42.269 453.399 42.2691C453.399 42.2692 453.4 42.2695 453.4 42.2698C453.401 42.2705 453.402 42.2716 453.404 42.2731C453.407 42.276 453.413 42.2806 453.42 42.2866C453.434 42.2987 453.455 42.317 453.483 42.3413C453.54 42.3899 453.624 42.4625 453.733 42.5578C453.951 42.7483 454.269 43.0298 454.669 43.3917C455.468 44.1156 456.593 45.1612 457.892 46.4457L458.613 45.7466Z" fill="#317EC2"/>
<circle cx="282.622" cy="156.076" r="156.076" fill="#FAEFD9"/>
<g clip-path="url(#clip0)">
<path d="M242.234 183.734C240.405 192.449 227.117 300.545 231.462 326.35C235.807 352.154 306.651 406.267 309.752 407.213C313.367 404.563 318.688 395.878 318.688 395.878C318.688 395.878 266.743 335.779 265.774 333.367C264.805 330.956 277.132 191.727 277.132 191.727L242.234 183.734Z" fill="#203999"/>
<path d="M326.837 203.43L273.836 419.313H255.979L274.074 194.102L326.837 203.43Z" fill="#3C54AF"/>
<path d="M289.19 79.8247C296.507 79.8247 334.672 81.0593 341.57 94.4739C348.467 107.889 341.967 169.893 337.68 172.298C335.366 173.59 334.738 172.334 334.065 174.962C333.393 177.59 326.835 203.43 326.835 203.43C322.671 203.546 261.956 194.412 242.248 183.734C242.363 180.767 243.318 173.049 243.318 172.457C240.701 173.525 237.534 173.749 236.659 172.457C228.974 160.825 240.44 100.185 248.661 87.9832C252.167 82.7488 277.449 79.8608 289.19 79.8247Z" fill="#AFBBE8"/>
<path d="M314.322 174.009C316.115 174.009 331.551 184.839 330.228 190.16C331.312 185.886 334.725 172.68 334.725 172.68C333.257 172.911 315.602 174.009 314.322 174.009Z" fill="#042039"/>
<path d="M289.615 70.4532C299.601 70.4532 307.696 62.3688 307.696 52.3961C307.696 42.4235 299.601 34.339 289.615 34.339C279.629 34.339 271.533 42.4235 271.533 52.3961C271.533 62.3688 279.629 70.4532 289.615 70.4532Z" fill="#BF9972"/>
<path d="M298.64 86.9002C298.64 89.2539 280.053 89.2539 280.053 86.9002V63.0744H298.64V86.9002Z" fill="#BF9972"/>
<path d="M283.498 26C274.215 26 268.424 31.8193 268.424 39.2775C268.424 45.4794 269.935 48.9883 271.706 49.8764C272.827 43.8549 275.263 41.068 277.28 39.8695C278.842 41.068 281.531 43.9704 285.117 44.8657C288.703 45.761 298.037 45.5877 305.577 51.0604C308.035 48.8222 310.501 45.9126 310.501 42.4831C310.501 39.0537 308.983 34.7506 300.047 32.2669C294.154 30.628 293.337 26 283.498 26Z" fill="#042039"/>
<path d="M278.573 60.3592C280.322 60.3592 281.739 59.6222 281.739 58.713C281.739 57.8039 280.322 57.0669 278.573 57.0669C276.824 57.0669 275.406 57.8039 275.406 58.713C275.406 59.6222 276.824 60.3592 278.573 60.3592Z" fill="#E5D6C6"/>
<path d="M297.69 60.3592C299.439 60.3592 300.857 59.6222 300.857 58.713C300.857 57.8039 299.439 57.0669 297.69 57.0669C295.941 57.0669 294.523 57.8039 294.523 58.713C294.523 59.6222 295.941 60.3592 297.69 60.3592Z" fill="#E5D6C6"/>
<path d="M289.218 54.0797C288.625 54.9244 285.603 58.4694 288.792 59.899" stroke="#042039" stroke-width="1.37112" stroke-miterlimit="10" stroke-linecap="round"/>
<path d="M287 65.2983C287.758 65.8666 289.648 65.8043 290.904 65.4194" stroke="#042039" stroke-width="1.37112" stroke-miterlimit="10" stroke-linecap="round"/>
<path d="M306.329 58.6486C308.637 58.6486 310.508 56.7802 310.508 54.4755C310.508 52.1707 308.637 50.3024 306.329 50.3024C304.021 50.3024 302.15 52.1707 302.15 54.4755C302.15 56.7802 304.021 58.6486 306.329 58.6486Z" fill="#BF9972"/>
<path d="M272.415 58.6486C274.723 58.6486 276.594 56.7802 276.594 54.4755C276.594 52.1707 274.723 50.3024 272.415 50.3024C270.107 50.3024 268.236 52.1707 268.236 54.4755C268.236 56.7802 270.107 58.6486 272.415 58.6486Z" fill="#BF9972"/>
<path d="M315 115C314.793 118.185 310.5 136.5 313.5 151C309.643 152.685 275.092 158.709 269 161" stroke="#042039" stroke-width="1.37112" stroke-miterlimit="10" stroke-linecap="round"/>
<path d="M250.229 109.138C248.957 113.6 244.648 133.851 247.677 143.259" stroke="#042039" stroke-width="1.37112" stroke-miterlimit="10" stroke-linecap="round"/>
<path d="M244 164C247.734 165.897 283.53 177.355 333 173.034" stroke="#042039" stroke-width="1.37112" stroke-miterlimit="10" stroke-linecap="round"/>
<path d="M261.762 143.259C263.621 143.555 257.562 138.725 254.128 140.523C250.694 142.32 246.067 150.457 247.014 152.349C247.141 152.691 247.344 153 247.607 153.253C247.87 153.507 248.187 153.698 248.534 153.813C248.881 153.928 249.249 153.964 249.611 153.918C249.974 153.872 250.322 153.745 250.629 153.547C251.561 152.941 258.502 142.739 261.762 143.259Z" fill="#BF9972"/>
<path d="M318.074 396.802C319.065 397.524 327.849 403.459 327.921 407.198C327.993 410.938 319.759 423.335 318.074 423.689C316.39 424.043 315.226 422.642 315.226 420.137C315.226 417.631 318.363 413.242 317.944 411.292C317.525 409.343 313.469 405.776 311.387 405.711" fill="#042039"/>
<path d="M272.144 419.314C272.144 421.032 273.142 431.818 271.139 432.822C269.137 433.826 247.129 434.418 246.132 433.421C245.134 432.425 244.527 430.324 245.409 429.725C246.291 429.125 254.807 427.422 255.957 426.627C257.106 425.833 258.711 421.573 258.126 419.314" fill="#042039"/>
<path d="M283.267 110.364C276.403 109.866 270.683 115.397 270.117 121.812C269.654 127.086 272.735 132.252 277.808 134.563C277.865 134.588 277.928 134.598 277.991 134.59C278.053 134.582 278.112 134.556 278.161 134.517C278.21 134.477 278.247 134.424 278.269 134.365C278.29 134.306 278.295 134.241 278.283 134.179C277.344 129.261 276.403 124.342 275.458 119.42C275.438 119.338 275.449 119.252 275.488 119.177C275.528 119.103 275.593 119.045 275.672 119.016C275.751 118.987 275.837 118.988 275.916 119.019C275.994 119.05 276.057 119.109 276.094 119.184L280.169 126.433C280.212 126.512 280.284 126.571 280.371 126.597C280.457 126.622 280.55 126.613 280.629 126.57C280.7 126.531 280.755 126.47 280.784 126.395L281.986 123.488C282.013 123.421 282.06 123.365 282.121 123.327C282.182 123.289 282.254 123.271 282.326 123.276C282.397 123.281 282.466 123.309 282.521 123.356C282.575 123.402 282.614 123.465 282.631 123.535L283.4 126.591C283.415 126.654 283.447 126.712 283.493 126.757C283.539 126.803 283.597 126.834 283.66 126.848C283.723 126.861 283.789 126.857 283.849 126.834C283.91 126.812 283.963 126.773 284.002 126.721L289.088 120.261C289.137 120.194 289.208 120.148 289.289 120.13C289.37 120.112 289.455 120.125 289.527 120.165C289.6 120.206 289.655 120.272 289.683 120.35C289.711 120.428 289.709 120.514 289.679 120.591L284.749 134.646C284.728 134.706 284.723 134.77 284.735 134.833C284.748 134.895 284.777 134.953 284.821 134.999C284.863 135.046 284.918 135.08 284.979 135.097C285.04 135.114 285.105 135.113 285.165 135.096C290.52 133.541 294.316 128.875 294.62 123.591C294.993 117.163 290.135 110.864 283.267 110.364ZM282.493 120.997C281.882 120.957 281.297 120.737 280.811 120.365C280.325 119.993 279.96 119.485 279.763 118.906C279.566 118.327 279.545 117.702 279.703 117.111C279.862 116.52 280.192 115.989 280.652 115.585C281.112 115.182 281.681 114.924 282.288 114.844C282.895 114.764 283.513 114.865 284.062 115.136C284.611 115.406 285.068 115.833 285.374 116.363C285.68 116.893 285.822 117.501 285.782 118.112L285.781 118.134C285.753 118.538 285.646 118.932 285.466 119.295C285.286 119.657 285.036 119.98 284.73 120.246C284.425 120.512 284.07 120.715 283.687 120.844C283.303 120.973 282.897 121.025 282.493 120.997Z" fill="white"/>
<g clip-path="url(#clip1)">
<path d="M191.941 163.999H269.203L255.206 116.019C254.857 114.861 254.141 113.846 253.166 113.127C252.19 112.408 251.007 112.024 249.794 112.031H184.232C183.371 112.019 182.52 112.207 181.745 112.58C180.97 112.954 180.293 113.502 179.768 114.182C179.242 114.861 178.883 115.654 178.719 116.496C178.554 117.338 178.589 118.207 178.82 119.033L191.941 163.999Z" fill="#727272"/>
<path d="M221.087 142.727C218.477 142.727 216.36 140.617 216.36 138.015C216.36 135.412 218.477 133.303 221.087 133.303C223.698 133.303 225.814 135.412 225.814 138.015C225.814 140.617 223.698 142.727 221.087 142.727Z" fill="white"/>
<path d="M260.023 160.635H314.234V164.007H260.023V160.635Z" fill="#727272"/>
</g>
</g>
<defs>
<clipPath id="clip0">
<rect width="185.804" height="408.649" fill="white" transform="translate(163.082 26)"/>
</clipPath>
<clipPath id="clip1">
<rect width="135.619" height="51.9772" fill="white" transform="matrix(-1 0 0 1 314.234 112.031)"/>
</clipPath>
</defs>
</svg>
