<svg width="200" height="200" viewBox="0 0 200 200" fill="none" xmlns="http://www.w3.org/2000/svg">
<path d="M191.811 105.776C191.811 157.62 150.382 199.639 99.289 199.639C48.1955 199.639 6.76726 157.62 6.76726 105.776C6.76726 53.9322 48.1955 11.9133 99.289 11.9133C150.382 11.9133 191.811 53.9322 191.811 105.776Z" stroke="#E9E9E9" stroke-width="0.722022"/>
<path d="M199.639 97.1121C199.639 148.956 158.211 190.975 107.117 190.975C56.0236 190.975 14.5954 148.956 14.5954 97.1121C14.5954 45.2681 56.0236 3.24919 107.117 3.24919C158.211 3.24919 199.639 45.2681 199.639 97.1121Z" stroke="#E9E9E9" stroke-width="0.722022"/>
<path d="M185.404 94.2239C185.404 146.068 143.976 188.087 92.8827 188.087C41.7892 188.087 0.361011 146.068 0.361011 94.2239C0.361011 42.38 41.7892 0.361011 92.8827 0.361011C143.976 0.361011 185.404 42.38 185.404 94.2239Z" stroke="#E9E9E9" stroke-width="0.722022"/>
<g clip-path="url(#clip0)">
<path d="M68.5036 125.268V138.926H92.5406V128.683C102.155 128.683 104.559 126.406 104.559 125.268L105.316 113.697C107.986 114.266 112.571 112.294 112.571 108.197C112.571 104.099 108.793 97.4982 106.122 93.5148C106.122 81.2231 90.2257 74.622 83.5488 74.053C51.5002 74.053 44.4675 104.782 68.5036 125.268Z" stroke="#E9E9E9" stroke-width="3.33334"/>
<path fill-rule="evenodd" clip-rule="evenodd" d="M79.2605 84.9966C80.0756 82.5633 83.5173 82.5633 84.3323 84.9966C84.8784 86.6268 86.7987 87.3258 88.2649 86.4279C90.4533 85.0878 93.0899 87.3001 92.1501 89.688C91.5205 91.2879 92.5423 93.0576 94.2426 93.3123C96.7805 93.6924 97.3781 97.0819 95.1233 98.3071C93.6127 99.1279 93.2578 101.14 94.3966 102.428C96.0964 104.351 94.3755 107.332 91.8607 106.821C90.1758 106.479 88.6104 107.792 88.6549 109.511C88.7212 112.076 85.487 113.253 83.8889 111.245C82.8182 109.9 80.7747 109.9 79.704 111.245C78.1058 113.253 74.8717 112.076 74.938 109.511C74.9825 107.792 73.417 106.479 71.7322 106.821C69.2173 107.332 67.4965 104.351 69.1963 102.428C70.335 101.14 69.9802 99.1279 68.4695 98.3071C66.2147 97.0819 66.8124 93.6924 69.3503 93.3123C71.0505 93.0576 72.0723 91.2879 71.4427 89.688C70.503 87.3001 73.1395 85.0878 75.328 86.4279C76.7942 87.3258 78.7145 86.6268 79.2605 84.9966ZM81.8411 107.576C87.0868 107.576 91.3392 103.323 91.3392 98.0776C91.3392 92.8319 87.0868 88.5795 81.8411 88.5795C76.5955 88.5795 72.343 92.8319 72.343 98.0776C72.343 103.323 76.5955 107.576 81.8411 107.576Z" fill="#E9E9E9"/>
<path d="M144.983 45C142.521 44.9913 140.521 46.9904 140.513 49.4523C140.513 50.6133 140.958 51.7308 141.77 52.5601L133.606 68.8937C133.431 68.8675 133.248 68.8413 133.065 68.8413C132.488 68.8413 131.912 68.9548 131.379 69.1731L125.04 62.0407C125.407 61.386 125.608 60.6527 125.617 59.8932C125.617 57.4226 123.617 55.4235 121.146 55.4235C118.675 55.4235 116.675 57.4226 116.675 59.8932C116.684 60.9582 117.068 61.9884 117.776 62.7915L110.013 76.3665C109.751 76.3141 109.481 76.2879 109.219 76.2879C106.748 76.2879 104.748 78.287 104.748 80.7576C104.748 83.2282 106.748 85.2273 109.219 85.2273C111.69 85.2273 113.689 83.2282 113.689 80.7576C113.68 79.6926 113.296 78.6624 112.589 77.8593L120.343 64.2843C121.172 64.4502 122.037 64.3629 122.814 64.0312L129.153 71.1635C128.786 71.8182 128.594 72.5602 128.585 73.311C128.577 75.7816 130.576 77.7894 133.038 77.7982C135.509 77.8069 137.518 75.8078 137.526 73.3459C137.526 72.1849 137.081 71.0587 136.269 70.2206L144.433 53.887C144.608 53.9132 144.791 53.9394 144.974 53.9394C147.446 53.9394 149.445 51.9403 149.445 49.4697C149.445 46.9992 147.454 45 144.983 45Z" fill="#E9E9E9"/>
</g>
<defs>
<clipPath id="clip0">
<rect width="98.3334" height="98.3334" fill="white" transform="translate(50.834 45)"/>
</clipPath>
</defs>
</svg>
