<svg width="93" height="160" viewBox="0 0 93 160" fill="none" xmlns="http://www.w3.org/2000/svg">
<path d="M93.0004 108.665H35.5518V155.539H93.0004V108.665Z" fill="#A16A06"/>
<path d="M18.5691 150.443C18.8696 151.049 20.8083 154.523 20.5901 155.389C20.1785 156.93 12.4404 160.17 11.9135 159.993C11.3867 159.816 10.8063 159.169 11.0162 158.814C11.2261 158.46 13.8974 156.341 14.1773 155.871C14.4572 155.401 14.2638 153.617 13.6505 152.916" fill="#0C3559"/>
<path d="M7.71113 47.2097C6.79737 47.2097 -1.15071 50.2804 0.141731 58.4826C0.479246 60.9309 2.34793 62.0809 3.02296 61.9861C3.69799 61.8913 7.04845 51.7766 8.48495 52.094C9.92144 52.4113 7.71113 47.2097 7.71113 47.2097Z" fill="#AA8053"/>
<path d="M72.9096 107.259C71.078 111.842 29.7941 107.853 28.5017 109.547C27.2092 111.241 21.0516 152.322 20.2572 152.915C19.4629 153.509 13.4987 152.915 12.6055 152.318C11.7123 151.72 12.3092 103.471 13.4987 101.88C14.6882 100.289 32.8729 88.3528 55.1242 89.0493C77.3755 89.7459 72.9096 107.259 72.9096 107.259Z" fill="#19588F"/>
<path d="M30.8268 41.6869C37.7911 36.9263 63.1542 25.2 66.1259 26.6344C76.416 31.6505 82.5078 85.7481 81.1454 90.3397C79.783 94.9313 45.4511 81.8984 45.4511 81.8984C45.4511 81.8984 44.8295 53.8707 45.3276 50.3755C42.4752 51.1215 29.9583 53.6028 7.8963 52.8485C7.20265 51.7865 6.79361 50.5636 6.70855 49.2974C6.62349 48.0313 6.86526 46.7645 7.41061 45.619C10.5018 44.3331 26.756 42.4742 30.8268 41.6869Z" fill="#F2A922"/>
<path d="M29.4805 98.2657C29.4147 98.9375 29.1965 102.911 28.5585 103.517C27.406 104.609 19.1204 103.195 18.7665 102.767C18.4125 102.338 18.2643 101.489 18.6389 101.291C19.0134 101.093 22.4009 100.759 22.8825 100.491C23.3641 100.224 24.1585 98.6325 24.0103 97.7134" fill="#0C3559"/>
<path d="M57.6012 30.3156C57.5642 31.4738 63.9482 31.754 63.9852 30.5093L64.2116 22.7357L57.8276 22.542L57.6012 30.3156Z" fill="#AA8053"/>
<path d="M58.3639 25.1842C62.9467 25.1842 66.6618 21.464 66.6618 16.8748C66.6618 12.2857 62.9467 8.56543 58.3639 8.56543C53.781 8.56543 50.0659 12.2857 50.0659 16.8748C50.0659 21.464 53.781 25.1842 58.3639 25.1842Z" fill="#AA8053"/>
<path d="M51.335 17.7788C51.3469 17.3804 50.7374 17.0389 49.9736 17.0159C49.2098 16.993 48.5809 17.2973 48.569 17.6957C48.557 18.0941 49.1665 18.4356 49.9304 18.4585C50.6942 18.4815 51.323 18.1771 51.335 17.7788Z" fill="#ECADAD"/>
<path d="M60.0308 18.0415C60.0427 17.6431 59.4332 17.3016 58.6694 17.2786C57.9056 17.2557 57.2767 17.56 57.2648 17.9584C57.2528 18.3568 57.8623 18.6983 58.6262 18.7212C59.39 18.7442 60.0188 18.4398 60.0308 18.0415Z" fill="#ECADAD"/>
<path d="M53.3674 16.3379C53.0998 16.7006 51.721 18.2133 53.1081 18.881" stroke="#0C3559" stroke-width="0.69" stroke-miterlimit="10" stroke-linecap="round"/>
<path d="M53.2929 22.6646C53.9489 21.9576 55.8382 21.5945 57.1861 21.7157" stroke="#0C3559" stroke-width="0.69" stroke-miterlimit="10" stroke-linecap="round"/>
<path d="M65.9202 20.3118C67.0397 19.2567 67.6571 9.66543 66.6611 8.83697C65.9507 8.32 65.0899 8.052 64.212 8.07445C64.212 8.07445 56.3339 0 52.9341 0C49.5342 0 49.9458 2.06086 49.9458 3.10365C49.9458 4.14645 50.8802 10.6588 52.1644 11.3471C52.8893 10.5755 53.7345 9.92685 54.6669 9.42637C55.1526 10.0611 59.5115 14.3271 63.4629 15.5842C64.5701 17.4761 65.9202 20.3118 65.9202 20.3118Z" fill="#0C3559"/>
<path d="M56.7372 49.168C53.9836 49.6131 45.731 50.7672 45.731 50.7672" stroke="#0C3559" stroke-width="0.55" stroke-miterlimit="10" stroke-linecap="round"/>
<path d="M68.583 109.008C78.3092 109.008 81.3428 98.46 81.3428 90.4227C81.3428 86.1938 39.4003 51.7939 35.9305 51.7939C25.6898 51.7939 22.5986 95.785 22.5986 97.6563C22.5986 99.5276 29.7482 99.5894 30.522 99.2679C31.0365 97.85 37.4123 78.7582 37.4123 78.7582C38.2437 80.242 51.769 109.008 68.583 109.008Z" fill="#317EC2"/>
</svg>
