<svg width="30" height="30" viewBox="0 0 30 30" fill="none" xmlns="http://www.w3.org/2000/svg">
<path d="M15.0009 0.585938C6.92559 0.585938 0.703192 7.55017 0.587506 15.1118C0.494577 21.3269 4.5398 27.1153 10.6731 29.3892C10.7424 29.4145 10.8174 29.42 10.8897 29.4053C10.9619 29.3905 11.0288 29.3561 11.0827 29.3058C11.1367 29.2548 11.1758 29.1901 11.1958 29.1186C11.2159 29.0471 11.2161 28.9715 11.1965 28.8999C9.67931 23.2203 8.15832 17.5388 6.63353 11.8554C6.60318 11.7612 6.60843 11.6592 6.64828 11.5687C6.68812 11.4782 6.75981 11.4054 6.84973 11.3642C6.93932 11.323 7.04104 11.3167 7.13502 11.3465C7.229 11.3764 7.3085 11.4401 7.358 11.5254L12.744 19.6674C12.8009 19.7564 12.8908 19.8192 12.9939 19.842C13.097 19.8648 13.205 19.8456 13.294 19.7888C13.3733 19.7377 13.4323 19.6606 13.4609 19.5707L14.6197 16.0639C14.6454 15.9835 14.696 15.9134 14.7642 15.8636C14.8324 15.8139 14.9146 15.7871 14.999 15.7871C15.0834 15.7871 15.1656 15.8139 15.2338 15.8636C15.3019 15.9134 15.3525 15.9835 15.3783 16.0639L16.5389 19.5783C16.5611 19.6508 16.6035 19.7155 16.6611 19.7648C16.7188 19.814 16.7893 19.8458 16.8644 19.8564C16.9395 19.8669 17.016 19.8558 17.085 19.8244C17.154 19.7929 17.2126 19.7424 17.2539 19.6788L22.6551 11.6809C22.7067 11.5984 22.7866 11.5376 22.8799 11.51C22.9732 11.4824 23.0734 11.4899 23.1615 11.5311C23.2495 11.5728 23.3196 11.6448 23.359 11.734C23.3983 11.8231 23.4043 11.9234 23.3758 12.0166L18.8033 28.8961C18.783 28.968 18.7828 29.0441 18.8029 29.116C18.8229 29.188 18.8625 29.253 18.9171 29.3039C18.971 29.355 19.0382 29.3899 19.1109 29.4046C19.1837 29.4194 19.2591 29.4134 19.3287 29.3874C25.4619 27.1115 29.5072 21.3231 29.4123 15.1099C29.3023 7.55017 23.0799 0.585938 15.0009 0.585938ZM15.0009 13.1033C14.2825 13.109 13.5786 12.9014 12.9783 12.5069C12.3779 12.1124 11.908 11.5487 11.628 10.8872C11.348 10.2256 11.2704 9.49581 11.4052 8.79016C11.54 8.08451 11.881 7.43468 12.3851 6.92286C12.8892 6.41104 13.5337 6.06022 14.2372 5.91478C14.9407 5.76933 15.6716 5.8358 16.3373 6.10576C17.003 6.37572 17.5737 6.83706 17.9772 7.43142C18.3807 8.02578 18.5989 8.72646 18.6042 9.44485V9.4714C18.6062 9.94652 18.5146 10.4174 18.3345 10.8571C18.1545 11.2968 17.8896 11.6967 17.555 12.034C17.2204 12.3712 16.8226 12.6393 16.3843 12.8228C15.9461 13.0063 15.476 13.1016 15.0009 13.1033Z" fill="#F2A922"/>
</svg>
