<svg width="351" height="392" viewBox="0 0 351 392" fill="none" xmlns="http://www.w3.org/2000/svg">
<path d="M309.753 218.495H262.908C255.253 218.495 249.052 224.699 249.052 232.351V288.402C249.052 280.751 242.848 274.546 235.196 274.546H188.348C180.694 274.546 174.492 280.748 174.492 288.402V325.356C174.492 317.704 168.288 311.5 160.637 311.5H113.789C106.134 311.5 99.9327 317.704 99.9327 325.356V359.756C99.9327 352.105 93.7284 345.901 86.0739 345.901H39.2289C31.5774 345.901 25.373 352.102 25.373 359.756V386.06H323.612V232.351C323.612 224.699 317.408 218.495 309.753 218.495Z" fill="#A7C7D3"/>
<path d="M269.29 224.346C266.055 224.346 263.436 221.727 263.436 218.494V5.85151C263.436 2.61928 266.055 0 269.29 0C272.522 0 275.142 2.61928 275.142 5.85151V218.494C275.142 221.727 272.519 224.346 269.29 224.346Z" fill="#A3A3A3"/>
<path d="M99.9327 386.059H25.373V359.755C25.373 352.104 31.5774 345.899 39.2289 345.899H86.0769C93.7284 345.899 99.9327 352.101 99.9327 359.755V386.059Z" fill="#8597DD"/>
<path d="M174.489 386.06H99.9297V325.356C99.9297 317.704 106.134 311.5 113.786 311.5H160.634C168.285 311.5 174.489 317.704 174.489 325.356V386.06Z" fill="#596FC7"/>
<path d="M249.048 386.06H174.488V288.402C174.488 280.75 180.69 274.546 188.344 274.546H235.192C242.844 274.546 249.048 280.747 249.048 288.402V386.06Z" fill="#3C54AF"/>
<path d="M323.609 386.06H249.049V232.351C249.049 224.699 255.25 218.495 262.905 218.495H309.75C317.404 218.495 323.609 224.699 323.609 232.351V386.06Z" fill="#203999"/>
<path d="M344.273 391.91H5.85151C2.61928 391.91 0 389.291 0 386.059C0 382.827 2.61928 380.207 5.85151 380.207H344.273C347.506 380.207 350.125 382.827 350.125 386.059C350.125 389.291 347.506 391.91 344.273 391.91Z" fill="#102373"/>
<path d="M269.289 61.4878H344.282C346.606 61.4878 347.691 58.6114 345.948 57.0775L326.468 39.9206C325.325 38.919 325.325 37.1429 326.468 36.1382L345.948 18.9843C347.691 17.4475 346.606 14.571 344.282 14.571H269.289V61.4878Z" fill="#F8BD4F"/>
<path d="M275.262 83.4437L205.699 127.568H194.022C186.775 131.506 184.792 138.425 182.263 147.338L166.107 204.475L187.444 211.803L205.699 188.248L221.064 141.791L263.436 99.8986C275.262 90.2929 275.262 90.2929 275.262 83.4437Z" fill="#AFBBE8"/>
<path d="M192.555 129.532C192.674 130.824 203.863 129.794 203.744 128.502L202.541 115.425L191.352 116.454L192.555 129.532Z" fill="#88613A"/>
<path d="M198.088 119.259C197.217 119.339 191.89 122.303 192.015 123.669L191.352 116.453C192.736 116.326 198.088 119.259 198.088 119.259Z" fill="#042039"/>
<path d="M199.712 120.167C193.701 120.72 188.38 116.298 187.827 110.29C187.275 104.283 191.7 98.9641 197.711 98.4111C203.723 97.8582 209.044 102.28 209.596 108.288C210.149 114.296 205.724 119.614 199.712 120.167Z" fill="#88613A"/>
<path d="M200.93 93.0487C206.518 92.5346 210.326 95.7197 210.74 100.213C211.083 103.949 210.368 106.147 209.351 106.78C208.343 103.214 206.722 101.67 205.441 101.06C204.568 101.868 203.109 103.766 201 104.504C198.891 105.242 193.263 105.654 189.027 109.368C187.423 108.156 185.778 106.54 185.588 104.474C185.398 102.408 186.074 99.7314 191.315 97.7404C194.771 96.4268 195.007 93.5935 200.93 93.0487Z" fill="#042039"/>
<path d="M209.181 111.586C208.128 111.682 207.233 111.317 207.183 110.769C207.133 110.222 207.945 109.699 208.998 109.602C210.051 109.505 210.945 109.871 210.996 110.419C211.046 110.966 210.233 111.489 209.181 111.586Z" fill="#BF9972"/>
<path d="M197.188 112.688C196.136 112.785 195.241 112.42 195.191 111.872C195.14 111.324 195.953 110.802 197.006 110.705C198.059 110.608 198.953 110.974 199.003 111.521C199.054 112.069 198.241 112.591 197.188 112.688Z" fill="#BF9972"/>
<path d="M203.085 108.85C203.488 109.326 205.504 111.294 203.664 112.332" stroke="#042039" stroke-miterlimit="10" stroke-linecap="round"/>
<path d="M203.828 116.293C203.462 116.733 201.664 117.963 199.535 117.254" stroke="#042039" stroke-miterlimit="10" stroke-linecap="round"/>
<path d="M188.994 113.981C187.605 114.109 186.375 113.087 186.247 111.699C186.119 110.31 187.142 109.081 188.531 108.953C189.921 108.826 191.15 109.847 191.278 111.236C191.406 112.624 190.383 113.854 188.994 113.981Z" fill="#88613A"/>
<path d="M205.699 188.247L229.093 215.899C232.971 221.033 236.344 224.642 235.644 230.29L230.172 274.522H215.895L212.163 236.497C211.936 234.195 210.48 232.201 208.357 231.286L166.107 204.474L205.699 188.247Z" fill="#203999"/>
<path d="M166.104 204.474L163.822 246.397C163.673 249.875 164.16 252.225 162.8 254.811L135.859 311.5H151.004L191.51 257.685C193.878 254.928 194.153 251.184 194.952 247.74L205.692 188.247L166.104 204.474Z" fill="#3C54AF"/>
<path d="M167.852 160.525C173.051 145.36 188.5 132 192 128.5L199.5 130C199.764 131.823 198.694 142.713 194.543 153.82C189.353 167.705 184.713 170.94 183.266 191.183C181.82 211.426 175.374 227.573 172.666 235.075C170.499 241.077 161.738 258.587 160.764 265.741C159.838 266.967 158.199 247.929 154.291 246.75C149.407 245.276 148.87 263.102 142.213 260.142C135.556 257.182 137.29 241.619 133.83 240.574C130.37 239.53 118.257 241.104 117.872 235.758C117.486 230.412 140.233 217.522 144.621 204.822C149.009 192.122 161.353 179.481 167.852 160.525Z" fill="#F2A922"/>
</svg>
