<svg width="1206" height="613" viewBox="0 0 1206 613" fill="none" xmlns="http://www.w3.org/2000/svg">
<mask id="mask0" mask-type="alpha" maskUnits="userSpaceOnUse" x="0" y="0" width="1206" height="613">
<rect width="1206" height="613" fill="#F8FBFD"/>
</mask>
<g mask="url(#mask0)">
<g opacity="0.25">
<mask id="path-2-outside-1" maskUnits="userSpaceOnUse" x="148.922" y="150" width="910" height="194" fill="black">
<rect fill="white" x="148.922" y="150" width="910" height="194"/>
<path d="M209.522 299.8C189.922 299.8 175.055 294.8 164.922 284.8C154.922 274.8 149.922 260.067 149.922 240.6V155.8H175.122V242C175.122 254.267 177.989 263.6 183.722 270C189.589 276.267 198.189 279.4 209.522 279.4C220.455 279.4 228.789 276.2 234.522 269.8C240.389 263.4 243.322 254.133 243.322 242V155.8H268.922V240.6C268.922 259.933 263.789 274.667 253.522 284.8C243.389 294.8 228.722 299.8 209.522 299.8ZM296.769 341.4V225.8C296.769 221.133 296.635 216.4 296.369 211.6C296.235 206.667 295.835 201.867 295.169 197.2H318.769L320.969 217.2L319.569 218.4C321.702 210.933 325.902 205.133 332.169 201C338.435 196.733 345.835 194.6 354.369 194.6C363.169 194.6 370.902 196.867 377.569 201.4C384.369 205.8 389.702 212 393.569 220C397.435 227.867 399.369 237.133 399.369 247.8C399.369 258.333 397.435 267.533 393.569 275.4C389.702 283.133 384.435 289.133 377.769 293.4C371.102 297.533 363.302 299.6 354.369 299.6C345.835 299.6 338.435 297.6 332.169 293.6C325.902 289.467 321.702 283.667 319.569 276.2L321.769 273V341.4H296.769ZM347.969 280.4C356.235 280.4 362.635 277.6 367.169 272C371.702 266.267 373.969 258.2 373.969 247.8C373.969 237.133 371.702 228.867 367.169 223C362.635 217.133 356.235 214.2 347.969 214.2C339.435 214.2 332.902 217.067 328.369 222.8C323.969 228.4 321.769 236.6 321.769 247.4C321.769 257.933 323.969 266.067 328.369 271.8C332.902 277.533 339.435 280.4 347.969 280.4ZM457.992 299.6C439.592 299.6 425.059 295.4 414.392 287L421.392 269.4C426.726 273.4 432.526 276.4 438.792 278.4C445.059 280.4 451.592 281.4 458.392 281.4C464.526 281.4 469.192 280.4 472.392 278.4C475.592 276.4 477.192 273.6 477.192 270C477.192 266.933 476.059 264.533 473.792 262.8C471.526 260.933 467.659 259.333 462.192 258L445.392 254.2C436.192 252.2 429.259 248.867 424.592 244.2C420.059 239.4 417.792 233.333 417.792 226C417.792 219.867 419.526 214.467 422.992 209.8C426.459 205 431.326 201.267 437.592 198.6C443.859 195.933 451.126 194.6 459.392 194.6C466.592 194.6 473.526 195.733 480.192 198C486.859 200.133 492.659 203.267 497.592 207.4L490.392 224.6C485.326 220.733 480.126 217.867 474.792 216C469.592 214.133 464.392 213.2 459.192 213.2C453.459 213.2 448.992 214.267 445.792 216.4C442.592 218.533 440.992 221.467 440.992 225.2C440.992 228.133 441.926 230.467 443.792 232.2C445.792 233.933 449.192 235.333 453.992 236.4L470.992 240.6C480.992 242.733 488.259 246.2 492.792 251C497.459 255.667 499.792 261.867 499.792 269.6C499.792 278.8 496.059 286.133 488.592 291.6C481.126 296.933 470.926 299.6 457.992 299.6ZM590.188 298.2L541.587 246.8L587.587 197.4H617.988L565.788 252.6L566.987 240L621.388 298.2H590.188ZM520.987 298.2V151H545.987V298.2H520.987ZM631.339 298.2V197.2H656.339V298.2H631.339ZM630.139 151.4H657.939V176H630.139V151.4ZM683.292 298.2V151H708.292V298.2H683.292ZM735.245 298.2V151H760.245V298.2H735.245ZM787.198 298.2V197.2H812.198V298.2H787.198ZM785.998 151.4H813.798V176H785.998V151.4ZM839.152 298.2V225.8C839.152 221 839.018 216.2 838.752 211.4C838.618 206.6 838.218 201.867 837.552 197.2H861.152L863.352 217.2L861.152 217.8C864.352 210.2 869.085 204.467 875.352 200.6C881.752 196.6 889.085 194.6 897.352 194.6C921.352 194.6 933.352 208.467 933.352 236.2V298.2H908.352V237.2C908.352 229.333 906.818 223.6 903.752 220C900.685 216.267 895.952 214.4 889.552 214.4C881.818 214.4 875.618 216.867 870.952 221.8C866.418 226.6 864.152 233 864.152 241V298.2H839.152ZM1005.86 342.8C990.264 342.8 976.597 339.6 964.864 333.2L968.864 314.2C974.997 317.4 980.997 319.733 986.864 321.2C992.864 322.8 999.064 323.6 1005.46 323.6C1014.4 323.6 1021.13 321.4 1025.66 317C1030.2 312.6 1032.46 305.933 1032.46 297V272H1034.86C1033.26 276.267 1030.73 280.2 1027.26 283.8C1023.93 287.267 1019.86 290.067 1015.06 292.2C1010.26 294.2 1005 295.2 999.264 295.2C990.464 295.2 982.664 293.133 975.864 289C969.064 284.867 963.731 279.067 959.864 271.6C956.131 264 954.264 255.133 954.264 245C954.264 234.867 956.131 226.067 959.864 218.6C963.731 211 969.064 205.133 975.864 201C982.664 196.733 990.464 194.6 999.264 194.6C1007.93 194.6 1015.46 196.733 1021.86 201C1028.26 205.267 1032.6 211 1034.86 218.2L1032.46 218.6V197.2H1057.26V295C1057.26 310.733 1052.93 322.6 1044.26 330.6C1035.6 338.733 1022.8 342.8 1005.86 342.8ZM1006.06 275.8C1014.33 275.8 1020.8 273.067 1025.46 267.6C1030.13 262.133 1032.46 254.6 1032.46 245C1032.46 235.4 1030.13 227.867 1025.46 222.4C1020.8 216.933 1014.33 214.2 1006.06 214.2C997.664 214.2 991.064 216.933 986.264 222.4C981.464 227.867 979.064 235.4 979.064 245C979.064 254.6 981.464 262.133 986.264 267.6C991.064 273.067 997.664 275.8 1006.06 275.8Z"/>
</mask>
<path d="M209.522 299.8C189.922 299.8 175.055 294.8 164.922 284.8C154.922 274.8 149.922 260.067 149.922 240.6V155.8H175.122V242C175.122 254.267 177.989 263.6 183.722 270C189.589 276.267 198.189 279.4 209.522 279.4C220.455 279.4 228.789 276.2 234.522 269.8C240.389 263.4 243.322 254.133 243.322 242V155.8H268.922V240.6C268.922 259.933 263.789 274.667 253.522 284.8C243.389 294.8 228.722 299.8 209.522 299.8ZM296.769 341.4V225.8C296.769 221.133 296.635 216.4 296.369 211.6C296.235 206.667 295.835 201.867 295.169 197.2H318.769L320.969 217.2L319.569 218.4C321.702 210.933 325.902 205.133 332.169 201C338.435 196.733 345.835 194.6 354.369 194.6C363.169 194.6 370.902 196.867 377.569 201.4C384.369 205.8 389.702 212 393.569 220C397.435 227.867 399.369 237.133 399.369 247.8C399.369 258.333 397.435 267.533 393.569 275.4C389.702 283.133 384.435 289.133 377.769 293.4C371.102 297.533 363.302 299.6 354.369 299.6C345.835 299.6 338.435 297.6 332.169 293.6C325.902 289.467 321.702 283.667 319.569 276.2L321.769 273V341.4H296.769ZM347.969 280.4C356.235 280.4 362.635 277.6 367.169 272C371.702 266.267 373.969 258.2 373.969 247.8C373.969 237.133 371.702 228.867 367.169 223C362.635 217.133 356.235 214.2 347.969 214.2C339.435 214.2 332.902 217.067 328.369 222.8C323.969 228.4 321.769 236.6 321.769 247.4C321.769 257.933 323.969 266.067 328.369 271.8C332.902 277.533 339.435 280.4 347.969 280.4ZM457.992 299.6C439.592 299.6 425.059 295.4 414.392 287L421.392 269.4C426.726 273.4 432.526 276.4 438.792 278.4C445.059 280.4 451.592 281.4 458.392 281.4C464.526 281.4 469.192 280.4 472.392 278.4C475.592 276.4 477.192 273.6 477.192 270C477.192 266.933 476.059 264.533 473.792 262.8C471.526 260.933 467.659 259.333 462.192 258L445.392 254.2C436.192 252.2 429.259 248.867 424.592 244.2C420.059 239.4 417.792 233.333 417.792 226C417.792 219.867 419.526 214.467 422.992 209.8C426.459 205 431.326 201.267 437.592 198.6C443.859 195.933 451.126 194.6 459.392 194.6C466.592 194.6 473.526 195.733 480.192 198C486.859 200.133 492.659 203.267 497.592 207.4L490.392 224.6C485.326 220.733 480.126 217.867 474.792 216C469.592 214.133 464.392 213.2 459.192 213.2C453.459 213.2 448.992 214.267 445.792 216.4C442.592 218.533 440.992 221.467 440.992 225.2C440.992 228.133 441.926 230.467 443.792 232.2C445.792 233.933 449.192 235.333 453.992 236.4L470.992 240.6C480.992 242.733 488.259 246.2 492.792 251C497.459 255.667 499.792 261.867 499.792 269.6C499.792 278.8 496.059 286.133 488.592 291.6C481.126 296.933 470.926 299.6 457.992 299.6ZM590.188 298.2L541.587 246.8L587.587 197.4H617.988L565.788 252.6L566.987 240L621.388 298.2H590.188ZM520.987 298.2V151H545.987V298.2H520.987ZM631.339 298.2V197.2H656.339V298.2H631.339ZM630.139 151.4H657.939V176H630.139V151.4ZM683.292 298.2V151H708.292V298.2H683.292ZM735.245 298.2V151H760.245V298.2H735.245ZM787.198 298.2V197.2H812.198V298.2H787.198ZM785.998 151.4H813.798V176H785.998V151.4ZM839.152 298.2V225.8C839.152 221 839.018 216.2 838.752 211.4C838.618 206.6 838.218 201.867 837.552 197.2H861.152L863.352 217.2L861.152 217.8C864.352 210.2 869.085 204.467 875.352 200.6C881.752 196.6 889.085 194.6 897.352 194.6C921.352 194.6 933.352 208.467 933.352 236.2V298.2H908.352V237.2C908.352 229.333 906.818 223.6 903.752 220C900.685 216.267 895.952 214.4 889.552 214.4C881.818 214.4 875.618 216.867 870.952 221.8C866.418 226.6 864.152 233 864.152 241V298.2H839.152ZM1005.86 342.8C990.264 342.8 976.597 339.6 964.864 333.2L968.864 314.2C974.997 317.4 980.997 319.733 986.864 321.2C992.864 322.8 999.064 323.6 1005.46 323.6C1014.4 323.6 1021.13 321.4 1025.66 317C1030.2 312.6 1032.46 305.933 1032.46 297V272H1034.86C1033.26 276.267 1030.73 280.2 1027.26 283.8C1023.93 287.267 1019.86 290.067 1015.06 292.2C1010.26 294.2 1005 295.2 999.264 295.2C990.464 295.2 982.664 293.133 975.864 289C969.064 284.867 963.731 279.067 959.864 271.6C956.131 264 954.264 255.133 954.264 245C954.264 234.867 956.131 226.067 959.864 218.6C963.731 211 969.064 205.133 975.864 201C982.664 196.733 990.464 194.6 999.264 194.6C1007.93 194.6 1015.46 196.733 1021.86 201C1028.26 205.267 1032.6 211 1034.86 218.2L1032.46 218.6V197.2H1057.26V295C1057.26 310.733 1052.93 322.6 1044.26 330.6C1035.6 338.733 1022.8 342.8 1005.86 342.8ZM1006.06 275.8C1014.33 275.8 1020.8 273.067 1025.46 267.6C1030.13 262.133 1032.46 254.6 1032.46 245C1032.46 235.4 1030.13 227.867 1025.46 222.4C1020.8 216.933 1014.33 214.2 1006.06 214.2C997.664 214.2 991.064 216.933 986.264 222.4C981.464 227.867 979.064 235.4 979.064 245C979.064 254.6 981.464 262.133 986.264 267.6C991.064 273.067 997.664 275.8 1006.06 275.8Z" stroke="#5A9FDB" stroke-width="2" mask="url(#path-2-outside-1)"/>
</g>
<path d="M1102.7 221.352C1102.7 221.332 1102.7 221.312 1102.69 221.292C1102.69 221.286 1102.69 221.28 1102.69 221.274C1102.64 221.125 1102.46 221.03 1102.28 221.057L1101.94 221.107L1045 229.381C1044.85 229.403 1044.73 229.5 1044.71 229.623C1044.68 229.747 1044.75 229.87 1044.89 229.931L1055.91 235.015L1062.99 248.719C1063 248.731 1063.01 248.739 1063.02 248.75C1063.03 248.767 1063.04 248.781 1063.06 248.796C1063.09 248.819 1063.12 248.838 1063.15 248.853C1063.16 248.859 1063.17 248.871 1063.18 248.876C1063.19 248.879 1063.21 248.878 1063.22 248.881C1063.22 248.883 1063.23 248.889 1063.24 248.89C1063.27 248.896 1063.29 248.898 1063.32 248.898C1063.36 248.898 1063.4 248.892 1063.44 248.88C1063.48 248.869 1063.52 248.851 1063.55 248.828L1072.52 242.565L1080.09 246.255C1080.14 246.282 1080.21 246.296 1080.27 246.296C1080.38 246.296 1080.49 246.254 1080.56 246.176L1102.43 221.669L1102.46 221.645L1102.48 221.62C1102.51 221.609 1102.54 221.594 1102.57 221.576C1102.61 221.55 1102.64 221.519 1102.66 221.483C1102.66 221.482 1102.66 221.48 1102.66 221.479C1102.67 221.462 1102.68 221.442 1102.69 221.423C1102.69 221.411 1102.7 221.4 1102.7 221.388C1102.7 221.385 1102.7 221.382 1102.7 221.378C1102.7 221.37 1102.7 221.361 1102.7 221.352ZM1046.11 229.82L1098.15 222.259L1056.22 234.483L1046.11 229.82ZM1056.67 234.981L1095.45 223.672L1062 236.896C1061.88 236.942 1061.81 237.036 1061.8 237.142C1061.79 237.162 1061.81 237.18 1061.81 237.2C1061.81 237.216 1061.79 237.23 1061.8 237.247L1062.78 246.797L1056.67 234.981ZM1067.51 245.29L1063.62 248.007L1062.56 237.71L1071.87 242.247L1067.51 245.29ZM1080.17 245.609L1072.67 241.953C1072.67 241.952 1072.67 241.949 1072.67 241.948L1062.98 237.226L1101.1 222.168L1080.17 245.609Z" fill="#317EC2"/>
<path d="M1060.37 263.211C1047.36 294.001 1009.53 357.155 962.274 363.457C903.201 371.333 850.93 345.198 790.783 370.259C742.665 390.308 736.602 406.777 739.586 412.505" stroke="#317EC2" stroke-dasharray="20 30"/>
<path d="M119.58 328.975C119.58 328.955 119.58 328.935 119.585 328.915C119.587 328.909 119.585 328.903 119.587 328.897C119.634 328.748 119.815 328.653 119.995 328.68L120.335 328.73L177.278 337.004C177.427 337.026 177.544 337.123 177.569 337.246C177.594 337.37 177.523 337.493 177.391 337.554L166.372 342.638L159.286 356.342C159.28 356.354 159.266 356.362 159.258 356.373C159.246 356.39 159.233 356.404 159.217 356.419C159.192 356.442 159.162 356.461 159.128 356.476C159.115 356.482 159.108 356.494 159.094 356.499C159.083 356.502 159.072 356.501 159.062 356.504C159.054 356.506 159.048 356.512 159.04 356.513C159.012 356.519 158.985 356.521 158.957 356.521C158.915 356.521 158.874 356.515 158.835 356.503C158.796 356.492 158.759 356.474 158.726 356.451L149.757 350.189L142.191 353.878C142.134 353.905 142.071 353.919 142.009 353.919C141.898 353.919 141.79 353.877 141.72 353.799L119.843 329.292L119.821 329.268L119.798 329.243C119.765 329.232 119.734 329.217 119.707 329.199C119.669 329.173 119.637 329.142 119.615 329.106C119.614 329.105 119.614 329.103 119.614 329.102C119.603 329.085 119.598 329.065 119.592 329.046C119.588 329.034 119.581 329.023 119.579 329.011C119.578 329.008 119.578 329.005 119.578 329.001C119.577 328.993 119.58 328.984 119.58 328.975ZM176.163 337.443L124.13 329.882L166.055 342.106L176.163 337.443ZM165.61 342.604L126.823 331.295L160.279 344.519C160.395 344.565 160.472 344.659 160.481 344.765C160.483 344.785 160.471 344.803 160.468 344.823C160.469 344.839 160.482 344.853 160.481 344.87L159.501 354.42L165.61 342.604ZM154.769 352.913L158.659 355.63L159.715 345.333L150.41 349.87L154.769 352.913ZM142.105 353.233L149.603 349.576C149.606 349.575 149.607 349.572 149.61 349.571L159.299 344.849L121.177 329.791L142.105 353.233Z" fill="#317EC2"/>
<path d="M167.906 378.494C180.914 409.284 218.744 472.439 266.003 478.74C325.076 486.616 377.347 460.481 437.495 485.542C485.613 505.591 491.675 522.06 488.692 527.789" stroke="#317EC2" stroke-dasharray="20 30"/>
<path d="M244.124 135.972C249.369 133.56 255.259 137.73 254.726 143.479L253.206 159.865C252.673 165.614 246.116 168.629 241.404 165.293L227.974 155.784C223.262 152.448 223.928 145.261 229.174 142.849L244.124 135.972Z" stroke="#317EC2"/>
<path d="M1155.93 450.67C1154.93 444.983 1160.47 440.351 1165.89 442.333L1181.35 447.98C1186.77 449.962 1188.01 457.071 1183.59 460.776L1170.97 471.338C1166.54 475.044 1159.76 472.567 1158.77 466.88L1155.93 450.67Z" stroke="#317EC2"/>
<path d="M80.6752 86.5394C80.822 86.3056 80.7515 85.997 80.5176 85.8501L76.7066 83.4572C76.4728 83.3103 76.1642 83.3808 76.0173 83.6147C75.8705 83.8486 75.941 84.1572 76.1749 84.304L79.5624 86.4311L77.4353 89.8187C77.2885 90.0525 77.359 90.3612 77.5929 90.508C77.8268 90.6549 78.1354 90.5843 78.2822 90.3504L80.6752 86.5394ZM35.4997 89.4957L35.4366 89.9917L35.4997 89.4957ZM4.35149 112.051C4.80623 112.259 4.80621 112.259 4.8062 112.259C4.8062 112.259 4.80619 112.259 4.80619 112.259C4.80619 112.259 4.8062 112.259 4.80623 112.259C4.80628 112.259 4.80638 112.259 4.80654 112.258C4.80685 112.258 4.80736 112.256 4.80808 112.255C4.80952 112.252 4.81177 112.247 4.81485 112.24C4.82099 112.227 4.8304 112.207 4.84306 112.18C4.86839 112.126 4.90671 112.046 4.9579 111.941C5.06029 111.731 5.21414 111.422 5.41844 111.032C5.8271 110.25 6.43726 109.14 7.24077 107.833L6.38888 107.31C5.57159 108.639 4.95008 109.769 4.53227 110.568C4.32334 110.968 4.16526 111.285 4.05903 111.503C4.00591 111.612 3.96574 111.696 3.93866 111.753C3.92512 111.782 3.91484 111.804 3.90785 111.819C3.90436 111.827 3.90169 111.832 3.89984 111.836C3.89891 111.838 3.89819 111.84 3.89768 111.841C3.89742 111.842 3.89722 111.842 3.89706 111.842C3.89699 111.843 3.89692 111.843 3.89687 111.843C3.89685 111.843 3.89682 111.843 3.89681 111.843C3.89678 111.843 3.89676 111.843 4.35149 112.051ZM13.3225 99.7165C15.5161 97.3295 18.1018 95.0312 21.0508 93.2514L20.5341 92.3953C17.4833 94.2365 14.8256 96.6029 12.5862 99.0398L13.3225 99.7165ZM30.4402 89.9476C32.038 89.7691 33.7039 89.7712 35.4366 89.9917L35.5628 88.9997C33.7504 88.769 32.0048 88.7666 30.3292 88.9537L30.4402 89.9476ZM35.4366 89.9917C37.2814 90.2265 39.1713 90.3893 41.0816 90.4917L41.1351 89.4932C39.246 89.3919 37.3805 89.231 35.5628 88.9997L35.4366 89.9917ZM52.3927 90.483C56.332 90.2947 60.1569 89.9425 63.648 89.5274L63.5299 88.5344C60.0574 88.9473 56.2564 89.2971 52.3449 89.4841L52.3927 90.483ZM74.8241 87.8588C76.5461 87.5493 77.9293 87.2752 78.8828 87.0783C79.3595 86.9798 79.7289 86.9007 79.9794 86.8461C80.1046 86.8188 80.2002 86.7976 80.2646 86.7832C80.2968 86.776 80.3213 86.7705 80.3378 86.7668C80.346 86.7649 80.3523 86.7635 80.3565 86.7625C80.3586 86.762 80.3602 86.7617 80.3613 86.7614C80.3619 86.7613 80.3623 86.7612 80.3626 86.7611C80.3628 86.7611 80.3629 86.7611 80.363 86.761C80.363 86.761 80.3631 86.761 80.3631 86.761C80.3631 86.761 80.3632 86.761 80.2517 86.2736C80.1403 85.7861 80.1403 85.7861 80.1403 85.7861C80.1403 85.7861 80.1403 85.7861 80.1403 85.7861C80.1403 85.7861 80.1402 85.7862 80.1401 85.7862C80.1399 85.7862 80.1396 85.7863 80.1391 85.7864C80.1382 85.7866 80.1368 85.7869 80.1348 85.7874C80.131 85.7883 80.1251 85.7896 80.1173 85.7914C80.1016 85.7949 80.078 85.8002 80.0466 85.8072C79.9838 85.8213 79.8899 85.8421 79.7663 85.869C79.5192 85.9229 79.1535 86.0013 78.6806 86.0989C77.7346 86.2943 76.3598 86.5667 74.6472 86.8745L74.8241 87.8588Z" fill="#317EC2"/>
<path d="M1118.32 -0.789022C1118.05 -0.769631 1117.84 -0.530603 1117.86 -0.255146L1118.17 4.23375C1118.19 4.50921 1118.43 4.71679 1118.71 4.6974C1118.98 4.67801 1119.19 4.43899 1119.17 4.16352L1118.89 0.173398L1122.88 -0.107482C1123.16 -0.126873 1123.36 -0.365896 1123.34 -0.641358C1123.33 -0.916819 1123.09 -1.12441 1122.81 -1.10501L1118.32 -0.789022ZM1147.36 33.9443L1147.8 33.7027L1147.36 33.9443ZM1183.95 45.7891C1183.85 45.2993 1183.85 45.2993 1183.85 45.2993C1183.85 45.2993 1183.85 45.2993 1183.85 45.2993C1183.85 45.2993 1183.85 45.2993 1183.85 45.2993C1183.85 45.2993 1183.85 45.2994 1183.85 45.2994C1183.84 45.2996 1183.84 45.2998 1183.84 45.3002C1183.84 45.3009 1183.83 45.3019 1183.83 45.3033C1183.81 45.3062 1183.79 45.3105 1183.76 45.3161C1183.7 45.3273 1183.62 45.3438 1183.5 45.3644C1183.27 45.4056 1182.93 45.4634 1182.49 45.5289C1181.62 45.66 1180.37 45.822 1178.84 45.9442L1178.92 46.941C1180.47 46.8167 1181.75 46.6519 1182.64 46.5178C1183.09 46.4508 1183.44 46.3915 1183.68 46.3487C1183.8 46.3273 1183.89 46.3101 1183.95 46.2981C1183.98 46.2921 1184 46.2874 1184.02 46.2841C1184.03 46.2825 1184.04 46.2813 1184.04 46.2804C1184.04 46.28 1184.04 46.2796 1184.04 46.2794C1184.05 46.2793 1184.05 46.2792 1184.05 46.2791C1184.05 46.279 1184.05 46.279 1184.05 46.279C1184.05 46.279 1184.05 46.279 1184.05 46.279C1184.05 46.2789 1184.05 46.2789 1183.95 45.7891ZM1168.69 45.8219C1165.47 45.4588 1162.09 44.7267 1158.92 43.3955L1158.53 44.3178C1161.82 45.695 1165.29 46.4449 1168.58 46.8156L1168.69 45.8219ZM1150.71 37.7631C1149.62 36.5782 1148.64 35.2318 1147.8 33.7027L1146.92 34.1859C1147.8 35.7854 1148.83 37.1963 1149.97 38.439L1150.71 37.7631ZM1147.8 33.7027C1146.9 32.0745 1145.91 30.4524 1144.87 28.8496L1144.03 29.3954C1145.07 30.9806 1146.04 32.5817 1146.92 34.1859L1147.8 33.7027ZM1138.19 19.7215C1135.71 16.6518 1133.17 13.7711 1130.78 11.1971L1130.05 11.8782C1132.43 14.4385 1134.95 17.3013 1137.41 20.3493L1138.19 19.7215ZM1122.84 3.15718C1121.57 1.94935 1120.54 0.994126 1119.81 0.340397C1119.45 0.0135263 1119.17 -0.237998 1118.98 -0.408052C1118.88 -0.493081 1118.81 -0.557749 1118.76 -0.601286C1118.74 -0.623059 1118.72 -0.639546 1118.7 -0.650655C1118.7 -0.656213 1118.69 -0.660421 1118.69 -0.663277C1118.69 -0.664707 1118.69 -0.665794 1118.69 -0.666539C1118.69 -0.666917 1118.69 -0.667203 1118.69 -0.66741C1118.69 -0.667511 1118.68 -0.667591 1118.68 -0.667651C1118.68 -0.667677 1118.68 -0.667707 1118.68 -0.667722C1118.68 -0.667747 1118.68 -0.667762 1118.36 -0.290254C1118.03 0.0872544 1118.03 0.0872448 1118.03 0.0872448C1118.03 0.08725 1118.03 0.0872544 1118.03 0.0872691C1118.03 0.0872949 1118.03 0.0873406 1118.03 0.0874106C1118.03 0.087547 1118.03 0.0877724 1118.03 0.0880798C1118.03 0.0886944 1118.03 0.0896503 1118.03 0.0909496C1118.04 0.0935386 1118.04 0.0974838 1118.05 0.102771C1118.06 0.113344 1118.08 0.129286 1118.1 0.150507C1118.15 0.192942 1118.22 0.256476 1118.32 0.340345C1118.51 0.508082 1118.78 0.757147 1119.14 1.08143C1119.86 1.73 1120.89 2.67936 1122.15 3.88064L1122.84 3.15718Z" fill="#317EC2"/>
<circle cx="603.5" cy="491.5" r="237.5" fill="#FAEFD9"/>
<path d="M688.567 494.587C685.2 456.21 671.531 424.811 665.118 413.908H538.874C534.465 417.906 520.691 432.988 525.02 461.334C530.432 496.768 484.134 525.66 458.88 573.086C433.627 620.512 435.431 661.397 437.836 680.476C439.76 695.74 427.414 733.717 421 750.798C424.007 754.25 435.791 761.155 458.88 761.155C487.741 761.155 500.969 780.235 541.856 778.054C582.742 775.874 603.787 761.155 624.23 761.155C644.673 761.155 688.567 773.148 699.39 761.155C710.214 749.162 675.941 670.664 672.934 638.501C669.928 606.339 692.776 542.559 688.567 494.587Z" fill="#F2A922"/>
<path d="M525.147 557.311C522.385 570.476 502.325 733.787 508.884 772.772C515.444 811.756 622.393 893.51 627.075 894.939C632.532 890.936 640.565 877.814 640.565 877.814C640.565 877.814 562.146 787.017 560.683 783.374C559.221 779.731 577.83 569.385 577.83 569.385L525.147 557.311Z" fill="#203999"/>
<path d="M652.865 587.069L572.853 913.223H545.895L573.213 572.977L652.865 587.069Z" fill="#3C54AF"/>
<path d="M596.034 400.326C607.079 400.326 664.695 402.191 675.107 422.458C685.52 442.725 675.708 536.401 669.236 540.033C665.743 541.985 664.794 540.088 663.779 544.058C662.763 548.028 652.864 587.067 652.864 587.067C646.578 587.242 554.92 573.443 525.168 557.311C525.342 552.828 526.783 541.167 526.783 540.273C522.832 541.887 518.052 542.225 516.731 540.273C505.129 522.701 522.439 431.086 534.849 412.652C540.142 404.744 578.309 400.381 596.034 400.326Z" fill="#AFBBE8"/>
<path d="M633.969 542.62C636.675 542.62 659.977 558.982 657.98 567.021C659.617 560.564 664.769 540.613 664.769 540.613C662.553 540.962 635.901 542.62 633.969 542.62Z" fill="#042039"/>
<path d="M610.303 411.017C610.303 414.573 582.242 414.573 582.242 411.017V375.021H610.303V411.017Z" fill="#88613A"/>
<path d="M594.184 383.54C596.366 383.54 610.293 389.692 610.293 393.117V375.021C606.822 375.021 594.184 383.54 594.184 383.54Z" fill="#042039"/>
<path d="M590.359 386.168C605.434 386.168 617.656 373.954 617.656 358.888C617.656 343.821 605.434 331.607 590.359 331.607C575.284 331.607 563.062 343.821 563.062 358.888C563.062 373.954 575.284 386.168 590.359 386.168Z" fill="#88613A"/>
<path d="M571.712 341.179C567.198 343.758 564.995 351.388 564.458 354.88C562.309 353 559.368 348.025 558.01 344.403C553.408 332.128 555.378 328.616 563.223 315.795C564.026 314.482 565.195 313.421 566.581 312.753L609.591 292.016C625.71 281.539 628.128 267.031 636.188 263.808C644.247 260.584 650.695 267.837 656.337 271.061C661.978 274.285 671.65 263.808 682.933 271.061C694.217 278.315 682.934 288.792 686.964 292.016C690.994 295.24 704.666 279.694 703.889 295.24C703.083 311.359 666.009 344.403 666.009 344.403C666.009 344.403 616.864 379.088 612.011 370.999C609.593 366.969 613.623 370.999 615.234 363.746C612.011 362.134 607.657 352.785 603.144 350.85C597.502 348.433 589.442 348.433 582.995 347.627C577.837 346.982 573.323 343.06 571.712 341.179Z" fill="#042039"/>
<path d="M615.594 368.334C619.078 368.334 621.902 365.511 621.902 362.029C621.902 358.547 619.078 355.725 615.594 355.725C612.11 355.725 609.285 358.547 609.285 362.029C609.285 365.511 612.11 368.334 615.594 368.334Z" fill="#88613A"/>
<path d="M564.851 366.993C567.491 366.993 569.631 365.88 569.631 364.507C569.631 363.133 567.491 362.02 564.851 362.02C562.211 362.02 560.07 363.133 560.07 364.507C560.07 365.88 562.211 366.993 564.851 366.993Z" fill="#BF9972"/>
<path d="M594.917 366.993C597.557 366.993 599.698 365.88 599.698 364.507C599.698 363.133 597.557 362.02 594.917 362.02C592.277 362.02 590.137 363.133 590.137 364.507C590.137 365.88 592.277 366.993 594.917 366.993Z" fill="#BF9972"/>
<path d="M576.53 359.367C575.635 360.643 571.073 365.999 575.886 368.159" stroke="#042039" stroke-miterlimit="10" stroke-linecap="round"/>
<path d="M585.52 374.4C586.949 374.4 589.176 372.611 590.344 371.008" stroke="#042039" stroke-miterlimit="10" stroke-linecap="round"/>
<path d="M634.603 454.004C634.112 460.025 632.191 489.781 632.912 493.697C623.754 496.882 539.868 536.63 525.406 540.961" stroke="#042039" stroke-miterlimit="10" stroke-linecap="round"/>
<path d="M537.224 444.613C535.303 451.354 528.798 481.951 533.371 496.163" stroke="#042039" stroke-miterlimit="10" stroke-linecap="round"/>
<path d="M558.621 527.066C562.987 530.131 604.843 548.642 662.688 541.661" stroke="#042039" stroke-miterlimit="10" stroke-linecap="round"/>
<path d="M554.63 496.163C557.435 496.611 548.289 489.313 543.104 492.029C537.92 494.745 530.935 507.039 532.365 509.896C532.557 510.413 532.864 510.88 533.261 511.263C533.658 511.646 534.136 511.934 534.659 512.108C535.183 512.282 535.739 512.336 536.286 512.267C536.834 512.197 537.358 512.006 537.822 511.707C539.23 510.791 549.708 495.378 554.63 496.163Z" fill="#88613A"/>
<path d="M572.57 434.285C580.366 432.81 588.138 432.566 595.886 433.554C603.634 434.542 609.381 436.576 613.125 439.656C613.676 442.663 613.817 445.483 613.548 448.118C612.761 454.29 609.538 459.151 603.881 462.701C598.223 466.25 591.272 468.433 583.026 469.25L578.758 487.024L570.581 486.782L572.57 434.285ZM597.684 448.498C598.212 444.361 596.931 441.061 593.841 438.599C592.922 438.481 591.715 438.528 590.22 438.738L584.222 463.798C588.019 462.28 591.099 460.103 593.463 457.268C595.892 454.442 597.299 451.518 597.684 448.498Z" fill="#102373"/>
</g>
</svg>
