<svg width="768" height="598" viewBox="0 0 768 598" fill="none" xmlns="http://www.w3.org/2000/svg">
<g opacity="0.25">
<mask id="path-1-outside-1" maskUnits="userSpaceOnUse" x="94.5234" y="28" width="581" height="125" fill="black">
<rect fill="white" x="94.5234" y="28" width="581" height="125"/>
<path d="M133.499 123.789C121.01 123.789 111.538 120.604 105.081 114.234C98.7093 107.863 95.5234 98.4779 95.5234 86.0772V32.0577H111.58V86.969C111.58 94.7832 113.407 100.729 117.06 104.806C120.798 108.798 126.277 110.794 133.499 110.794C140.465 110.794 145.775 108.755 149.428 104.678C153.166 100.601 155.035 94.6982 155.035 86.969V32.0577H171.346V86.0772C171.346 98.393 168.075 107.778 161.534 114.234C155.077 120.604 145.732 123.789 133.499 123.789ZM189.089 150.289V76.6493C189.089 73.6765 189.004 70.6613 188.834 67.6036C188.749 64.4609 188.495 61.4032 188.07 58.4304H203.107L204.509 71.1709L203.617 71.9353C204.976 67.1789 207.652 63.4841 211.645 60.8511C215.638 58.1332 220.353 56.7742 225.79 56.7742C231.397 56.7742 236.325 58.2181 240.572 61.1059C244.905 63.9088 248.303 67.8584 250.767 72.9545C253.231 77.9658 254.463 83.8689 254.463 90.6638C254.463 97.3737 253.231 103.234 250.767 108.246C248.303 113.172 244.948 116.994 240.7 119.712C236.452 122.345 231.482 123.662 225.79 123.662C220.353 123.662 215.638 122.387 211.645 119.839C207.652 117.206 204.976 113.512 203.617 108.755L205.018 106.717V150.289H189.089ZM221.712 111.431C226.979 111.431 231.057 109.647 233.946 106.08C236.834 102.427 238.279 97.2888 238.279 90.6638C238.279 83.8689 236.834 78.6028 233.946 74.8656C231.057 71.1284 226.979 69.2598 221.712 69.2598C216.275 69.2598 212.112 71.0859 209.224 74.7382C206.42 78.3055 205.018 83.5291 205.018 90.409C205.018 97.1189 206.42 102.3 209.224 105.952C212.112 109.605 216.275 111.431 221.712 111.431ZM291.815 123.662C280.092 123.662 270.831 120.986 264.035 115.635L268.495 104.423C271.893 106.972 275.589 108.883 279.582 110.157C283.575 111.431 287.738 112.068 292.07 112.068C295.978 112.068 298.952 111.431 300.991 110.157C303.03 108.883 304.049 107.099 304.049 104.806C304.049 102.852 303.327 101.323 301.883 100.219C300.438 99.03 297.975 98.0108 294.492 97.1614L283.787 94.7407C277.925 93.4667 273.507 91.3433 270.534 88.3705C267.646 85.3128 266.201 81.4482 266.201 76.7767C266.201 72.8696 267.306 69.4297 269.515 66.4569C271.723 63.3992 274.824 61.021 278.817 59.3223C282.81 57.6235 287.44 56.7742 292.707 56.7742C297.295 56.7742 301.713 57.4961 305.96 58.9401C310.208 60.299 313.904 62.295 317.047 64.9281L312.46 75.8848C309.231 73.4217 305.918 71.5956 302.52 70.4065C299.207 69.2174 295.893 68.6228 292.58 68.6228C288.927 68.6228 286.081 69.3023 284.042 70.6613C282.003 72.0203 280.984 73.8889 280.984 76.2671C280.984 78.1357 281.578 79.6221 282.768 80.7262C284.042 81.8304 286.208 82.7222 289.267 83.4017L300.099 86.0772C306.47 87.4362 311.1 89.6445 313.989 92.7022C316.962 95.675 318.449 99.6246 318.449 104.551C318.449 110.411 316.07 115.083 311.313 118.565C306.555 121.963 300.056 123.662 291.815 123.662ZM376.046 122.77L345.079 90.0267L374.389 58.5578H393.759L360.499 93.7215L361.263 85.695L395.925 122.77H376.046ZM331.954 122.77V29H347.883V122.77H331.954ZM402.266 122.77V58.4304H418.195V122.77H402.266ZM401.502 29.2548H419.215V44.9256H401.502V29.2548ZM435.369 122.77V29H451.298V122.77H435.369ZM468.472 122.77V29H484.401V122.77H468.472ZM501.574 122.77V58.4304H517.504V122.77H501.574ZM500.81 29.2548H518.523V44.9256H500.81V29.2548ZM534.677 122.77V76.6493C534.677 73.5916 534.592 70.5339 534.422 67.4762C534.337 64.4184 534.083 61.4032 533.658 58.4304H548.695L550.097 71.1709L548.695 71.5531C550.734 66.7117 553.75 63.0595 557.743 60.5963C561.82 58.0482 566.493 56.7742 571.76 56.7742C587.052 56.7742 594.698 65.6076 594.698 83.2743V122.77H578.769V83.9113C578.769 78.9001 577.792 75.2478 575.838 72.9545C573.884 70.5763 570.868 69.3872 566.79 69.3872C561.863 69.3872 557.913 70.9585 554.939 74.1012C552.051 77.1589 550.606 81.2358 550.606 86.332V122.77H534.677ZM640.901 151.181C630.961 151.181 622.253 149.142 614.777 145.065L617.326 132.962C621.234 135.001 625.057 136.487 628.795 137.421C632.618 138.44 636.568 138.95 640.646 138.95C646.338 138.95 650.628 137.549 653.517 134.746C656.405 131.943 657.849 127.696 657.849 122.005V106.08H659.379C658.359 108.798 656.745 111.303 654.536 113.597C652.412 115.805 649.821 117.589 646.763 118.948C643.704 120.222 640.349 120.859 636.695 120.859C631.088 120.859 626.119 119.542 621.786 116.909C617.453 114.276 614.055 110.581 611.591 105.825C609.212 100.984 608.023 95.3353 608.023 88.8801C608.023 82.425 609.212 76.8192 611.591 72.0627C614.055 67.2213 617.453 63.4841 621.786 60.8511C626.119 58.1332 631.088 56.7742 636.695 56.7742C642.218 56.7742 647.018 58.1332 651.095 60.8511C655.173 63.5691 657.934 67.2213 659.379 71.8079L657.849 72.0627V58.4304H673.651V120.731C673.651 130.754 670.89 138.313 665.368 143.409C659.846 148.59 651.69 151.181 640.901 151.181ZM641.028 108.5C646.295 108.5 650.416 106.759 653.389 103.277C656.363 99.7944 657.849 94.9955 657.849 88.8801C657.849 82.7647 656.363 77.9658 653.389 74.4834C650.416 71.001 646.295 69.2598 641.028 69.2598C635.676 69.2598 631.471 71.001 628.412 74.4834C625.354 77.9658 623.825 82.7647 623.825 88.8801C623.825 94.9955 625.354 99.7944 628.412 103.277C631.471 106.759 635.676 108.5 641.028 108.5Z"/>
</mask>
<path d="M133.499 123.789C121.01 123.789 111.538 120.604 105.081 114.234C98.7093 107.863 95.5234 98.4779 95.5234 86.0772V32.0577H111.58V86.969C111.58 94.7832 113.407 100.729 117.06 104.806C120.798 108.798 126.277 110.794 133.499 110.794C140.465 110.794 145.775 108.755 149.428 104.678C153.166 100.601 155.035 94.6982 155.035 86.969V32.0577H171.346V86.0772C171.346 98.393 168.075 107.778 161.534 114.234C155.077 120.604 145.732 123.789 133.499 123.789ZM189.089 150.289V76.6493C189.089 73.6765 189.004 70.6613 188.834 67.6036C188.749 64.4609 188.495 61.4032 188.07 58.4304H203.107L204.509 71.1709L203.617 71.9353C204.976 67.1789 207.652 63.4841 211.645 60.8511C215.638 58.1332 220.353 56.7742 225.79 56.7742C231.397 56.7742 236.325 58.2181 240.572 61.1059C244.905 63.9088 248.303 67.8584 250.767 72.9545C253.231 77.9658 254.463 83.8689 254.463 90.6638C254.463 97.3737 253.231 103.234 250.767 108.246C248.303 113.172 244.948 116.994 240.7 119.712C236.452 122.345 231.482 123.662 225.79 123.662C220.353 123.662 215.638 122.387 211.645 119.839C207.652 117.206 204.976 113.512 203.617 108.755L205.018 106.717V150.289H189.089ZM221.712 111.431C226.979 111.431 231.057 109.647 233.946 106.08C236.834 102.427 238.279 97.2888 238.279 90.6638C238.279 83.8689 236.834 78.6028 233.946 74.8656C231.057 71.1284 226.979 69.2598 221.712 69.2598C216.275 69.2598 212.112 71.0859 209.224 74.7382C206.42 78.3055 205.018 83.5291 205.018 90.409C205.018 97.1189 206.42 102.3 209.224 105.952C212.112 109.605 216.275 111.431 221.712 111.431ZM291.815 123.662C280.092 123.662 270.831 120.986 264.035 115.635L268.495 104.423C271.893 106.972 275.589 108.883 279.582 110.157C283.575 111.431 287.738 112.068 292.07 112.068C295.978 112.068 298.952 111.431 300.991 110.157C303.03 108.883 304.049 107.099 304.049 104.806C304.049 102.852 303.327 101.323 301.883 100.219C300.438 99.03 297.975 98.0108 294.492 97.1614L283.787 94.7407C277.925 93.4667 273.507 91.3433 270.534 88.3705C267.646 85.3128 266.201 81.4482 266.201 76.7767C266.201 72.8696 267.306 69.4297 269.515 66.4569C271.723 63.3992 274.824 61.021 278.817 59.3223C282.81 57.6235 287.44 56.7742 292.707 56.7742C297.295 56.7742 301.713 57.4961 305.96 58.9401C310.208 60.299 313.904 62.295 317.047 64.9281L312.46 75.8848C309.231 73.4217 305.918 71.5956 302.52 70.4065C299.207 69.2174 295.893 68.6228 292.58 68.6228C288.927 68.6228 286.081 69.3023 284.042 70.6613C282.003 72.0203 280.984 73.8889 280.984 76.2671C280.984 78.1357 281.578 79.6221 282.768 80.7262C284.042 81.8304 286.208 82.7222 289.267 83.4017L300.099 86.0772C306.47 87.4362 311.1 89.6445 313.989 92.7022C316.962 95.675 318.449 99.6246 318.449 104.551C318.449 110.411 316.07 115.083 311.313 118.565C306.555 121.963 300.056 123.662 291.815 123.662ZM376.046 122.77L345.079 90.0267L374.389 58.5578H393.759L360.499 93.7215L361.263 85.695L395.925 122.77H376.046ZM331.954 122.77V29H347.883V122.77H331.954ZM402.266 122.77V58.4304H418.195V122.77H402.266ZM401.502 29.2548H419.215V44.9256H401.502V29.2548ZM435.369 122.77V29H451.298V122.77H435.369ZM468.472 122.77V29H484.401V122.77H468.472ZM501.574 122.77V58.4304H517.504V122.77H501.574ZM500.81 29.2548H518.523V44.9256H500.81V29.2548ZM534.677 122.77V76.6493C534.677 73.5916 534.592 70.5339 534.422 67.4762C534.337 64.4184 534.083 61.4032 533.658 58.4304H548.695L550.097 71.1709L548.695 71.5531C550.734 66.7117 553.75 63.0595 557.743 60.5963C561.82 58.0482 566.493 56.7742 571.76 56.7742C587.052 56.7742 594.698 65.6076 594.698 83.2743V122.77H578.769V83.9113C578.769 78.9001 577.792 75.2478 575.838 72.9545C573.884 70.5763 570.868 69.3872 566.79 69.3872C561.863 69.3872 557.913 70.9585 554.939 74.1012C552.051 77.1589 550.606 81.2358 550.606 86.332V122.77H534.677ZM640.901 151.181C630.961 151.181 622.253 149.142 614.777 145.065L617.326 132.962C621.234 135.001 625.057 136.487 628.795 137.421C632.618 138.44 636.568 138.95 640.646 138.95C646.338 138.95 650.628 137.549 653.517 134.746C656.405 131.943 657.849 127.696 657.849 122.005V106.08H659.379C658.359 108.798 656.745 111.303 654.536 113.597C652.412 115.805 649.821 117.589 646.763 118.948C643.704 120.222 640.349 120.859 636.695 120.859C631.088 120.859 626.119 119.542 621.786 116.909C617.453 114.276 614.055 110.581 611.591 105.825C609.212 100.984 608.023 95.3353 608.023 88.8801C608.023 82.425 609.212 76.8192 611.591 72.0627C614.055 67.2213 617.453 63.4841 621.786 60.8511C626.119 58.1332 631.088 56.7742 636.695 56.7742C642.218 56.7742 647.018 58.1332 651.095 60.8511C655.173 63.5691 657.934 67.2213 659.379 71.8079L657.849 72.0627V58.4304H673.651V120.731C673.651 130.754 670.89 138.313 665.368 143.409C659.846 148.59 651.69 151.181 640.901 151.181ZM641.028 108.5C646.295 108.5 650.416 106.759 653.389 103.277C656.363 99.7944 657.849 94.9955 657.849 88.8801C657.849 82.7647 656.363 77.9658 653.389 74.4834C650.416 71.001 646.295 69.2598 641.028 69.2598C635.676 69.2598 631.471 71.001 628.412 74.4834C625.354 77.9658 623.825 82.7647 623.825 88.8801C623.825 94.9955 625.354 99.7944 628.412 103.277C631.471 106.759 635.676 108.5 641.028 108.5Z" stroke="#5A9FDB" stroke-width="2" mask="url(#path-1-outside-1)"/>
</g>
<path d="M702.6 142.191C702.6 142.178 702.6 142.165 702.597 142.152C702.596 142.148 702.597 142.145 702.596 142.141C702.566 142.046 702.45 141.986 702.336 142.003L702.119 142.034L665.837 147.305C665.742 147.319 665.668 147.381 665.652 147.46C665.636 147.538 665.681 147.617 665.765 147.656L672.786 150.894L677.301 159.624C677.305 159.632 677.314 159.637 677.319 159.644C677.327 159.655 677.335 159.664 677.345 159.673C677.361 159.688 677.38 159.7 677.401 159.71C677.41 159.713 677.415 159.721 677.424 159.724C677.43 159.726 677.437 159.726 677.444 159.727C677.449 159.729 677.453 159.732 677.458 159.733C677.475 159.737 677.493 159.738 677.511 159.738C677.537 159.738 677.564 159.734 677.589 159.727C677.613 159.719 677.637 159.708 677.658 159.694L683.373 155.704L688.194 158.054C688.23 158.072 688.27 158.08 688.31 158.08C688.38 158.08 688.449 158.053 688.493 158.004L702.433 142.393L702.447 142.377L702.462 142.361C702.483 142.354 702.502 142.345 702.519 142.334C702.544 142.317 702.564 142.297 702.578 142.274C702.579 142.273 702.579 142.272 702.579 142.272C702.586 142.26 702.589 142.248 702.593 142.236C702.595 142.228 702.6 142.221 702.601 142.214C702.601 142.212 702.601 142.21 702.602 142.207C702.602 142.202 702.6 142.196 702.6 142.191ZM666.548 147.585L699.701 142.768L672.988 150.555L666.548 147.585ZM673.271 150.873L697.985 143.668L676.669 152.093C676.595 152.122 676.545 152.182 676.54 152.249C676.538 152.262 676.546 152.273 676.548 152.286C676.547 152.296 676.539 152.305 676.54 152.316L677.164 158.4L673.271 150.873ZM680.179 157.44L677.701 159.17L677.028 152.611L682.956 155.501L680.179 157.44ZM688.248 157.643L683.471 155.314C683.469 155.313 683.468 155.312 683.466 155.311L677.293 152.303L701.583 142.71L688.248 157.643Z" fill="#317EC2"/>
<path d="M675.633 168.855C667.345 188.469 643.24 228.7 613.129 232.714C575.489 237.732 542.184 221.083 503.86 237.047C473.201 249.819 469.338 260.31 471.239 263.959" stroke="#317EC2" stroke-dasharray="20 30"/>
<path d="M76.1927 210.747C76.1925 210.734 76.1928 210.722 76.1959 210.709C76.1969 210.705 76.1956 210.701 76.1969 210.697C76.227 210.602 76.3426 210.542 76.4569 210.56L76.6736 210.591L112.956 215.862C113.051 215.876 113.125 215.938 113.141 216.016C113.157 216.095 113.112 216.173 113.028 216.212L106.007 219.451L101.492 228.18C101.488 228.188 101.479 228.193 101.474 228.2C101.466 228.211 101.458 228.22 101.448 228.23C101.432 228.244 101.413 228.256 101.392 228.266C101.383 228.27 101.378 228.277 101.369 228.28C101.363 228.283 101.356 228.282 101.349 228.284C101.344 228.285 101.34 228.289 101.335 228.29C101.318 228.293 101.3 228.295 101.282 228.295C101.256 228.295 101.229 228.291 101.204 228.283C101.179 228.276 101.156 228.265 101.135 228.25L95.4203 224.261L90.5993 226.611C90.563 226.629 90.5229 226.637 90.4835 226.637C90.4131 226.637 90.344 226.61 90.2997 226.56L76.3601 210.949L76.3464 210.934L76.3313 210.918C76.3102 210.911 76.2907 210.902 76.2738 210.89C76.2492 210.874 76.229 210.854 76.2148 210.831C76.2144 210.83 76.2144 210.829 76.214 210.828C76.2072 210.817 76.2041 210.804 76.2002 210.792C76.1978 210.785 76.1931 210.778 76.1919 210.77C76.1916 210.768 76.1916 210.766 76.1913 210.764C76.1906 210.759 76.1928 210.753 76.1927 210.747ZM112.245 216.142L79.0918 211.325L105.805 219.112L112.245 216.142ZM105.522 219.429L80.8078 212.225L102.124 220.649C102.198 220.679 102.248 220.738 102.253 220.806C102.255 220.819 102.247 220.83 102.245 220.843C102.246 220.853 102.254 220.862 102.253 220.873L101.629 226.956L105.522 219.429ZM98.6135 225.997L101.092 227.727L101.765 221.168L95.8365 224.058L98.6135 225.997ZM90.5445 226.2L95.3224 223.871C95.3241 223.87 95.3249 223.868 95.3267 223.867L101.5 220.859L77.2103 211.267L90.5445 226.2Z" fill="#317EC2"/>
<path d="M106.984 242.291C115.272 261.905 139.377 302.136 169.489 306.15C207.128 311.167 240.433 294.518 278.757 310.483C309.416 323.255 313.279 333.746 311.378 337.395" stroke="#317EC2" stroke-dasharray="20 30"/>
<path d="M151.056 90.068C156.302 87.6557 162.192 91.8252 161.659 97.5733L161.619 97.9983C161.086 103.747 154.528 106.762 149.816 103.427L149.468 103.18C144.755 99.8442 145.422 92.6587 150.668 90.2463L151.056 90.068Z" stroke="#317EC2"/>
<path d="M737.564 293.191C736.569 287.505 742.104 282.874 747.527 284.855L747.928 285.001C753.352 286.983 754.596 294.091 750.168 297.796L749.841 298.07C745.413 301.775 738.634 299.298 737.638 293.612L737.564 293.191Z" stroke="#317EC2"/>
<path d="M51.5572 56.4075C51.704 56.1736 51.6334 55.865 51.3996 55.7182L47.5882 53.3252C47.3543 53.1783 47.0457 53.2488 46.8989 53.4827C46.752 53.7165 46.8226 54.0251 47.0565 54.172L50.4443 56.2991L48.3174 59.6864C48.1706 59.9203 48.2412 60.2289 48.475 60.3757C48.7089 60.5226 49.0176 60.4521 49.1644 60.2182L51.5572 56.4075ZM22.6192 58.1941L22.5561 58.6901L22.6192 58.1941ZM2.77262 72.5624C3.22737 72.7703 3.22735 72.7704 3.22733 72.7704C3.22733 72.7704 3.22731 72.7705 3.22731 72.7705C3.22731 72.7705 3.22733 72.7704 3.22736 72.7703C3.22743 72.7702 3.22757 72.7699 3.22778 72.7694C3.2282 72.7685 3.22891 72.767 3.22991 72.7648C3.2319 72.7605 3.23503 72.7538 3.2393 72.7447C3.24783 72.7264 3.26092 72.6987 3.27853 72.6619C3.31374 72.5885 3.36702 72.4791 3.43809 72.3381C3.58025 72.056 3.79349 71.6475 4.07571 71.1463C4.64044 70.1435 5.47972 68.7727 6.57629 67.3033L5.77479 66.7053C4.64716 68.2162 3.78498 69.6245 3.20431 70.6556C2.91382 71.1714 2.69337 71.5936 2.54502 71.888C2.47083 72.0352 2.41464 72.1505 2.3767 72.2297C2.35773 72.2692 2.34333 72.2998 2.33351 72.3208C2.32861 72.3312 2.32485 72.3393 2.32224 72.345C2.32094 72.3478 2.31992 72.35 2.31919 72.3516C2.31883 72.3524 2.31854 72.353 2.31832 72.3535C2.31821 72.3537 2.31812 72.3539 2.31804 72.3541C2.31801 72.3542 2.31797 72.3542 2.31795 72.3543C2.31791 72.3544 2.31788 72.3544 2.77262 72.5624ZM16.3568 59.3765C18.2433 58.7015 20.312 58.4046 22.5561 58.6901L22.6823 57.6981C20.2688 57.3911 18.0416 57.7116 16.0198 58.4351L16.3568 59.3765ZM22.5561 58.6901C24.8936 58.9875 27.3431 59.1043 29.7814 59.0979L29.7787 58.098C27.3724 58.1043 24.9673 57.9889 22.6823 57.6981L22.5561 58.6901ZM44.1526 57.9143C46.2709 57.5979 48.042 57.277 49.2843 57.0351C49.9054 56.9141 50.3945 56.8128 50.7289 56.7417C50.8961 56.7061 51.0246 56.6781 51.1115 56.6589C51.155 56.6492 51.1882 56.6418 51.2105 56.6368C51.2217 56.6343 51.2302 56.6324 51.236 56.6311C51.2389 56.6304 51.2411 56.6299 51.2426 56.6296C51.2434 56.6294 51.244 56.6292 51.2444 56.6292C51.2446 56.6291 51.2448 56.6291 51.2449 56.629C51.245 56.629 51.245 56.629 51.2451 56.629C51.2451 56.629 51.2451 56.629 51.1337 56.1416C51.0222 55.6542 51.0223 55.6542 51.0223 55.6542C51.0223 55.6542 51.0222 55.6542 51.0222 55.6542C51.0222 55.6542 51.0221 55.6542 51.0219 55.6542C51.0217 55.6543 51.0212 55.6544 51.0206 55.6545C51.0194 55.6548 51.0174 55.6553 51.0148 55.6558C51.0096 55.657 51.0017 55.6588 50.9911 55.6612C50.9699 55.666 50.938 55.6731 50.8957 55.6824C50.8112 55.7011 50.6852 55.7286 50.5206 55.7636C50.1915 55.8337 49.7081 55.9338 49.093 56.0536C47.8627 56.2932 46.1062 56.6114 44.0048 56.9253L44.1526 57.9143Z" fill="#317EC2"/>
<path d="M712.544 0.5007C712.268 0.520101 712.061 0.75911 712.08 1.03454L712.396 5.52297C712.415 5.79841 712.654 6.00596 712.93 5.98656C713.205 5.96716 713.413 5.72815 713.394 5.45272L713.113 1.463L717.103 1.18197C717.379 1.16257 717.586 0.923559 717.567 0.648127C717.548 0.372694 717.309 0.165139 717.033 0.18454L712.544 0.5007ZM754.37 30.353C754.27 29.8632 754.27 29.8632 754.27 29.8632C754.27 29.8632 754.27 29.8632 754.27 29.8632C754.27 29.8632 754.27 29.8632 754.27 29.8632C754.27 29.8633 754.27 29.8633 754.269 29.8634C754.268 29.8636 754.266 29.864 754.264 29.8644C754.259 29.8654 754.252 29.8668 754.242 29.8688C754.222 29.8726 754.192 29.8784 754.152 29.8859C754.072 29.9008 753.952 29.9223 753.797 29.9481C753.485 29.9998 753.029 30.0686 752.458 30.1364C751.315 30.2721 749.713 30.4033 747.879 30.3849L747.869 31.3847C749.755 31.4036 751.4 31.2689 752.576 31.1294C753.164 31.0596 753.635 30.9885 753.96 30.9346C754.123 30.9076 754.249 30.885 754.335 30.8689C754.378 30.8609 754.412 30.8545 754.434 30.85C754.446 30.8478 754.454 30.8461 754.461 30.8448C754.464 30.8442 754.466 30.8437 754.468 30.8434C754.468 30.8432 754.469 30.8431 754.47 30.843C754.47 30.8429 754.47 30.8429 754.47 30.8429C754.47 30.8428 754.471 30.8428 754.471 30.8428C754.471 30.8428 754.471 30.8428 754.37 30.353ZM735.707 27.1656C734.049 26.0409 732.589 24.546 731.496 22.566L730.62 23.0492C731.796 25.1787 733.369 26.7877 735.146 27.993L735.707 27.1656ZM731.496 22.566C730.357 20.5035 729.006 18.4572 727.563 16.4926L726.757 17.0847C728.181 19.0234 729.507 21.0331 730.62 23.0492L731.496 22.566ZM718.129 5.58932C716.624 4.06593 715.32 2.82547 714.391 1.96536C713.927 1.53526 713.557 1.20015 713.302 0.972215C713.175 0.85824 713.076 0.77105 713.01 0.712166C712.976 0.682723 712.951 0.660354 712.933 0.645252C712.925 0.637701 712.918 0.631967 712.914 0.628071C712.912 0.626123 712.91 0.624636 712.909 0.623611C712.908 0.6231 712.908 0.622703 712.907 0.622424C712.907 0.622283 712.907 0.622172 712.907 0.622089C712.907 0.622049 712.907 0.622009 712.907 0.621988C712.907 0.621956 712.907 0.621931 712.579 0.999415C712.251 1.3769 712.251 1.37689 712.251 1.37689C712.251 1.37689 712.251 1.3769 712.251 1.37692C712.251 1.37695 712.251 1.37701 712.251 1.3771C712.251 1.37729 712.252 1.37759 712.252 1.37801C712.253 1.37884 712.255 1.38013 712.257 1.38188C712.261 1.38539 712.267 1.39073 712.275 1.39788C712.291 1.41219 712.316 1.43375 712.348 1.46237C712.413 1.5196 712.51 1.60507 712.635 1.71726C712.886 1.94164 713.252 2.27286 713.712 2.69874C714.631 3.5506 715.924 4.78078 717.417 6.29206L718.129 5.58932Z" fill="#317EC2"/>
<ellipse cx="384.53" cy="314.281" rx="151.327" ry="151.293" fill="#FAEFD9"/>
<path d="M438.735 316.25C436.589 291.803 427.88 271.801 423.794 264.855H343.355C340.546 267.402 331.77 277.01 334.528 295.067C337.976 317.639 308.477 336.044 292.386 366.255C276.295 396.467 277.445 422.511 278.977 434.665C280.203 444.389 272.337 468.581 268.25 479.462C270.166 481.661 277.675 486.06 292.386 486.06C310.775 486.06 319.204 498.214 345.255 496.825C371.307 495.436 384.716 486.06 397.741 486.06C410.767 486.06 438.735 493.699 445.631 486.06C452.527 478.42 430.69 428.415 428.774 407.926C426.858 387.438 441.417 346.809 438.735 316.25Z" fill="#F2A922"/>
<path d="M334.611 356.207C332.851 364.594 320.069 468.627 324.249 493.461C328.428 518.295 396.572 570.374 399.556 571.284C403.033 568.734 408.151 560.375 408.151 560.375C408.151 560.375 358.185 502.535 357.253 500.215C356.322 497.894 368.179 363.899 368.179 363.899L334.611 356.207Z" fill="#203999"/>
<path d="M415.986 375.163L365.005 582.93H347.828L365.234 366.186L415.986 375.163Z" fill="#3C54AF"/>
<path d="M379.777 256.203C386.815 256.203 423.526 257.391 430.16 270.302C436.794 283.212 430.543 342.886 426.419 345.199C424.194 346.443 423.589 345.234 422.942 347.763C422.295 350.293 415.988 375.161 415.988 375.161C411.982 375.273 353.581 366.483 334.624 356.206C334.735 353.35 335.653 345.922 335.653 345.352C333.135 346.381 330.09 346.596 329.248 345.352C321.856 334.158 332.885 275.798 340.792 264.055C344.165 259.017 368.484 256.238 379.777 256.203Z" fill="#AFBBE8"/>
<path d="M403.949 346.847C405.674 346.847 420.521 357.27 419.248 362.391C420.292 358.277 423.574 345.568 423.574 345.568C422.162 345.791 405.18 346.847 403.949 346.847Z" fill="#042039"/>
<path d="M388.871 263.014C388.871 265.279 370.992 265.279 370.992 263.014V240.084H388.871V263.014Z" fill="#88613A"/>
<path d="M378.602 245.511C379.992 245.511 388.866 249.43 388.866 251.612V240.084C386.655 240.084 378.602 245.511 378.602 245.511Z" fill="#042039"/>
<path d="M376.162 247.184C385.768 247.184 393.554 239.404 393.554 229.806C393.554 220.208 385.768 212.428 376.162 212.428C366.556 212.428 358.77 220.208 358.77 229.806C358.77 239.404 366.556 247.184 376.162 247.184Z" fill="#88613A"/>
<path d="M364.282 218.526C361.406 220.169 360.002 225.03 359.66 227.254C358.291 226.056 356.417 222.888 355.552 220.58C352.709 212.999 353.802 210.665 358.427 203.086C359.229 201.772 360.397 200.715 361.783 200.047L388.417 187.208C398.688 180.534 400.229 171.293 405.364 169.239C410.499 167.185 414.607 171.806 418.202 173.86C421.797 175.913 427.959 169.239 435.148 173.86C442.338 178.48 435.149 185.155 437.717 187.208C440.284 189.262 448.996 179.359 448.501 189.262C447.987 199.53 424.365 220.58 424.365 220.58C424.365 220.58 393.051 242.675 389.959 237.523C388.418 234.955 390.986 237.523 392.013 232.902C389.959 231.875 387.185 225.919 384.309 224.687C380.715 223.147 375.579 223.147 371.471 222.634C368.185 222.223 365.309 219.724 364.282 218.526Z" fill="#042039"/>
<path d="M392.242 235.823C394.462 235.823 396.262 234.025 396.262 231.807C396.262 229.589 394.462 227.791 392.242 227.791C390.022 227.791 388.223 229.589 388.223 231.807C388.223 234.025 390.022 235.823 392.242 235.823Z" fill="#88613A"/>
<path d="M359.913 234.97C361.595 234.97 362.959 234.261 362.959 233.385C362.959 232.51 361.595 231.801 359.913 231.801C358.231 231.801 356.867 232.51 356.867 233.385C356.867 234.261 358.231 234.97 359.913 234.97Z" fill="#BF9972"/>
<path d="M379.069 234.97C380.752 234.97 382.115 234.261 382.115 233.385C382.115 232.51 380.752 231.801 379.069 231.801C377.387 231.801 376.023 232.51 376.023 233.385C376.023 234.261 377.387 234.97 379.069 234.97Z" fill="#BF9972"/>
<path d="M367.352 230.111C366.782 230.924 363.875 234.336 366.942 235.712" stroke="#042039" stroke-miterlimit="10" stroke-linecap="round"/>
<path d="M373.078 239.689C373.989 239.689 375.408 238.549 376.152 237.527" stroke="#042039" stroke-miterlimit="10" stroke-linecap="round"/>
<path d="M404.354 290.398C404.041 294.234 402.817 313.19 403.276 315.684C397.441 317.713 343.992 343.033 334.777 345.792" stroke="#042039" stroke-miterlimit="10" stroke-linecap="round"/>
<path d="M342.305 284.414C341.081 288.708 336.936 308.199 339.85 317.253" stroke="#042039" stroke-miterlimit="10" stroke-linecap="round"/>
<path d="M355.938 336.939C358.719 338.892 385.388 350.684 422.246 346.237" stroke="#042039" stroke-miterlimit="10" stroke-linecap="round"/>
<path d="M353.393 317.255C355.18 317.54 349.353 312.891 346.049 314.621C342.746 316.352 338.295 324.183 339.206 326.003C339.329 326.332 339.524 326.63 339.777 326.873C340.03 327.117 340.335 327.301 340.668 327.412C341.002 327.523 341.356 327.557 341.705 327.513C342.054 327.469 342.388 327.347 342.683 327.156C343.581 326.573 350.257 316.755 353.393 317.255Z" fill="#88613A"/>
<path d="M407.562 561.264C408.514 561.959 416.964 567.67 417.033 571.269C417.103 574.869 409.182 586.799 407.562 587.14C405.941 587.48 404.822 586.132 404.822 583.721C404.822 581.31 407.84 577.085 407.436 575.209C407.033 573.333 403.132 569.901 401.129 569.838" fill="#042039"/>
<path d="M363.377 582.93C363.377 584.583 364.336 594.964 362.41 595.93C360.484 596.896 339.315 597.466 338.356 596.507C337.396 595.548 336.812 593.526 337.66 592.949C338.509 592.373 346.701 590.733 347.806 589.969C348.912 589.204 350.456 585.105 349.893 582.93" fill="#042039"/>
<path d="M364.829 277.835C369.796 276.896 374.748 276.74 379.685 277.37C384.622 277.999 388.283 279.295 390.669 281.257C391.02 283.172 391.11 284.969 390.938 286.647C390.437 290.579 388.384 293.676 384.779 295.937C381.174 298.198 376.745 299.588 371.491 300.109L368.772 311.431L363.561 311.277L364.829 277.835ZM380.83 286.889C381.167 284.254 380.35 282.152 378.382 280.583C377.796 280.508 377.027 280.538 376.075 280.672L372.253 296.635C374.672 295.669 376.635 294.282 378.141 292.476C379.689 290.676 380.585 288.813 380.83 286.889Z" fill="#102373"/>
</svg>
