<svg width="36" height="36" viewBox="0 0 36 36" fill="none" xmlns="http://www.w3.org/2000/svg">
<path d="M25.1996 22.5C26.7736 22.5 28.0496 21.1569 28.0496 19.5C28.0496 17.8431 26.7736 16.5 25.1996 16.5C23.6256 16.5 22.3496 17.8431 22.3496 19.5C22.3496 21.1569 23.6256 22.5 25.1996 22.5Z" fill="#F2A922"/>
<path d="M18 0C14.4399 0 10.9598 1.05568 7.99974 3.03355C5.03966 5.01141 2.73256 7.82263 1.37018 11.1117C0.00780086 14.4008 -0.348661 18.02 0.345872 21.5116C1.04041 25.0033 2.75474 28.2106 5.27209 30.7279C7.78943 33.2453 10.9967 34.9596 14.4884 35.6541C17.98 36.3487 21.5992 35.9922 24.8883 34.6298C28.1774 33.2675 30.9886 30.9603 32.9665 28.0003C34.9443 25.0402 36 21.5601 36 18C36 15.6362 35.5344 13.2956 34.6298 11.1117C33.7253 8.92784 32.3994 6.94353 30.7279 5.27208C29.0565 3.60062 27.0722 2.27475 24.8883 1.37017C22.7044 0.465584 20.3638 0 18 0V0ZM17.4 23.7C17.3369 23.9739 17.1906 24.2216 16.9813 24.4092C16.772 24.5968 16.5098 24.7151 16.2306 24.7479C15.9515 24.7808 15.669 24.7266 15.4219 24.5927C15.1747 24.4588 14.975 24.2518 14.85 24C13.9598 24.5875 12.9166 24.9005 11.85 24.9C10.7064 24.9175 9.60097 24.4887 8.76836 23.7045C7.93574 22.9204 7.44149 21.8426 7.39051 20.7C7.39051 20.5935 7.35001 20.4915 7.35001 20.3865V11.4L6.45001 12.3C6.29439 12.4033 6.11177 12.4583 5.92501 12.4583C5.73824 12.4583 5.55563 12.4033 5.40001 12.3C5.02201 12.024 4.92001 11.415 5.25001 10.95C6.17251 10.002 7.48951 8.658 7.80001 8.4C7.81651 8.3865 7.83751 8.3685 7.86301 8.3505C8.10836 8.1803 8.40149 8.09257 8.70001 8.1C8.9757 8.11703 9.23863 8.22219 9.45001 8.4L12.15 11.1C12.2413 11.284 12.2696 11.4929 12.2305 11.6945C12.1914 11.8962 12.087 12.0793 11.9335 12.2158C11.78 12.3522 11.5858 12.4344 11.381 12.4496C11.1762 12.4649 10.972 12.4123 10.8 12.3L9.90001 11.4V20.4C9.98548 20.9464 10.2507 21.4488 10.6536 21.8276C11.0566 22.2065 11.5743 22.4402 12.125 22.4918C12.6757 22.5434 13.2278 22.41 13.6942 22.1127C14.1605 21.8153 14.5145 21.371 14.7 20.85V15.45C14.7414 15.1317 14.8928 14.8379 15.1279 14.6195C15.3631 14.4011 15.6673 14.2718 15.9877 14.254C16.3082 14.2362 16.6248 14.331 16.8827 14.522C17.1406 14.713 17.3236 14.9883 17.4 15.3V23.7ZM25.35 24.9C23.9355 24.9 22.8585 24.1275 22.35 23.7V27.9C22.2851 28.1786 22.1343 28.4298 21.919 28.6182C21.7037 28.8065 21.4348 28.9226 21.15 28.95C20.4465 28.9905 19.818 28.377 19.8 27.9C19.7992 27.886 19.7992 27.872 19.8 27.858C19.815 27.498 19.818 25.0695 19.8 19.5C19.8 18.0877 20.361 16.7333 21.3597 15.7347C22.3583 14.736 23.7127 14.175 25.125 14.175C26.5373 14.175 27.8917 14.736 28.8903 15.7347C29.889 16.7333 30.45 18.0877 30.45 19.5C30.4575 22.443 28.5 24.9 25.35 24.9Z" fill="#F2A922"/>
</svg>
