<svg width="209" height="200" viewBox="0 0 209 200" fill="none" xmlns="http://www.w3.org/2000/svg">
<path d="M168.503 187.416C168.337 186.581 158.188 135.595 158.076 135.071C156.857 129.169 153.555 124.648 148.708 121.736C145.802 119.983 144.152 119.704 142.268 119.125C143.593 119.588 117.981 110.636 107.66 107.029C105.618 106.329 104.246 104.408 104.246 102.249V91.6514C90.9901 98.2794 77.0898 97.8608 64.7517 91.8397V102.249C64.7517 104.408 63.3796 106.329 61.3371 107.029C59.8824 107.528 66.6064 105.223 47.1105 111.907H47.0971C47.0975 111.909 47.0985 111.91 47.0985 111.91L47.0971 111.912L26.7436 119.125C25.804 119.402 23.9479 119.95 24.066 119.915C19.224 121.721 15.0253 125.15 12.6726 129.946C11.044 133.249 11.5271 132.089 3.62399 171.761C0.697638 186.915 0.05154 188.019 0.417508 191.405C1.43603 200.868 11.1699 199.88 11.4335 199.995C30.0974 199.995 86.3392 199.995 84.5679 199.995C84.7641 199.995 93.1753 199.995 92.6524 199.995C105.649 199.995 151.724 199.995 157.576 199.995C157.68 199.96 170.413 200.929 168.503 187.416Z" fill="#BA64A9"/>
<path d="M12.3946 187.417L22.8212 130.316C22.6768 131.01 23.5952 122.678 31.4333 117.463C22.6796 120.565 25.3927 119.324 22.7017 120.477C17.622 122.771 13.6827 126.669 11.7402 132.162C10.9631 134.368 11.467 132.428 3.62432 171.761C0.697966 186.915 0.0523312 188.02 0.417837 191.405C1.43636 200.868 11.1703 199.88 11.4338 199.995C12.594 199.995 21.889 199.995 23.321 199.995C14.9338 199.996 11.3096 195.091 12.3946 187.417Z" fill="#A33F8F"/>
<path d="M32.9477 199.995C26.1604 199.995 18.3427 199.995 11.4336 199.995C11.1581 199.875 0.0632035 200.989 0.340564 189.423C0.40102 186.957 0.709763 186.853 3.62412 171.761L3.79257 170.915H32.9477V199.995Z" fill="#E5D6C6"/>
<path d="M15.408 170.916H3.793L3.62455 171.761C0.699577 186.906 0.40145 186.954 0.340993 189.424C0.0645562 200.952 11.2153 199.9 11.434 199.996C12.5942 199.996 21.8892 199.996 23.3213 199.996C15.5963 199.996 12.0723 195.932 12.2283 189.424C12.2467 188.668 12.5282 187.089 15.408 170.916Z" fill="#CFB293"/>
<path d="M64.7515 90.0117C64.7515 119.573 64.7515 86.6442 64.7519 109.928H64.7644V110.639C64.7644 115.369 67.7854 119.573 72.2702 121.075C79.4677 123.485 88.7087 123.76 96.7263 121.075C101.212 119.573 104.232 115.37 104.232 110.639V109.928H104.245C104.245 105.295 104.245 92.49 104.245 90.0117C91.45 96.834 77.0222 96.5548 64.7515 90.0117Z" fill="#E5D6C6"/>
<path d="M76.6549 113.88H76.6396C76.6387 89.1305 76.6392 97.377 76.6387 95.6487C72.536 94.8263 68.5353 93.4142 64.7515 91.3965C64.7515 120.958 64.7515 86.6444 64.7519 109.928H64.7644V110.64C64.7644 115.369 67.7853 119.574 72.2702 121.075C74.4881 121.818 76.8302 122.355 79.2619 122.665C76.2391 118.56 76.701 114.194 76.6549 113.88Z" fill="#CFB293"/>
<path d="M32.9478 159.251C30.9781 159.251 29.3813 160.847 29.3813 162.817V199.996C31.855 199.996 33.8588 199.996 36.5138 199.996V162.817C36.5143 160.847 34.9175 159.251 32.9478 159.251Z" fill="#BA64A9"/>
<path d="M199.953 199.996H84.4982C79.6811 199.996 75.7759 196.09 75.7759 191.273C75.7759 188.513 78.0141 186.274 80.7748 186.274H203.677C206.437 186.274 208.676 188.513 208.676 191.273C208.676 196.09 204.77 199.996 199.953 199.996Z" fill="#727272"/>
<path d="M98.2425 191.273C98.2425 188.513 100.481 186.274 103.241 186.274H80.7748C78.0141 186.274 75.7759 188.513 75.7759 191.273V191.274C75.7759 196.091 79.6811 199.996 84.4982 199.996H106.964C102.147 199.996 98.2425 196.09 98.2425 191.273Z" fill="#4B4B4B"/>
<path d="M192.391 109.928H92.0609C88.9228 109.928 86.355 112.496 86.355 115.634V180.569C86.355 183.707 88.9228 186.275 92.0609 186.275H192.391C195.529 186.275 198.097 183.707 198.097 180.569V115.634C198.097 112.496 195.529 109.928 192.391 109.928Z" fill="#727272"/>
<path d="M98.2427 180.569V115.634C98.2427 112.496 100.81 109.928 103.949 109.928H92.0614C88.9232 109.928 86.3555 112.496 86.3555 115.634V180.569C86.3555 183.707 88.9232 186.275 92.0614 186.275H103.949C100.81 186.275 98.2427 183.707 98.2427 180.569Z" fill="#4B4B4B"/>
<path d="M142.228 156.342C146.78 156.342 150.47 152.652 150.47 148.1C150.47 143.548 146.78 139.858 142.228 139.858C137.676 139.858 133.986 143.548 133.986 148.1C133.986 152.652 137.676 156.342 142.228 156.342Z" fill="#4B4B4B"/>
<path d="M142.229 139.866C135.945 139.856 131.897 146.696 135.088 152.222C138.28 157.751 146.227 157.661 149.36 152.216C143.02 152.207 139.062 145.371 142.229 139.866Z" fill="#A3A3A3"/>
<path d="M84.6748 0.041865C61.7224 0.129455 42.3447 18.8668 42.3447 42.6719V58.8278H127.617C127.617 43.5178 127.617 48.3549 127.617 34.6581C127.617 18.1495 117.46 14.3466 117.46 14.3466C104.829 -1.2275 84.6917 0.0415202 84.6917 0.0415202" fill="#0C3559"/>
<path d="M90.4346 0.296393C64.4218 -2.66476 43.2534 16.9688 42.3809 40.9919C42.3137 42.7192 42.3589 42.0729 42.3447 58.8278H52.5013V42.6719C52.5013 20.6186 69.1951 2.62752 90.4346 0.296393Z" fill="#042039"/>
<path d="M52.8461 53.7548C47.4983 51.8492 41.6929 55.3931 41.6929 60.5637C41.6929 65.7329 47.4976 69.2785 52.8461 67.3726V53.7548Z" fill="#E5D6C6"/>
<path d="M117.115 53.7548C122.463 51.8492 128.268 55.3931 128.268 60.5637C128.268 65.7329 122.464 69.2785 117.115 67.3726V53.7548Z" fill="#E5D6C6"/>
<path d="M42.4738 57.4326C39.3498 63.3629 45.927 69.838 52.8459 67.3727V61.1107C48.8109 62.548 44.2994 60.899 42.4738 57.4326Z" fill="#CFB293"/>
<path d="M117.115 61.1107V67.3727C124.034 69.838 130.611 63.3632 127.487 57.4326C126.181 59.9134 121.152 62.5487 117.115 61.1107Z" fill="#CFB293"/>
<path d="M115.995 40.2628C116.823 40.3428 117.46 41.0301 117.46 41.8622C117.46 69.2078 117.478 67.1432 117.414 68.4146C116.993 76.7319 113.436 84.3688 107.65 90.0135C87.3768 109.781 53.5465 95.762 52.5288 68.0346C52.4812 66.8122 52.5012 52.6488 52.5012 52.6888C52.5012 46.3206 58.1529 41.4618 64.4559 42.3718C74.3828 43.8047 88.8727 43.2481 101.516 32.4407C102.815 31.3304 104.787 31.689 105.617 33.1832C107.183 36.0043 110.298 39.7131 115.995 40.2628Z" fill="#E5D6C6"/>
<path d="M61.4159 68.034C61.3752 66.9857 61.3838 47.7998 61.3873 42.3799C56.4295 43.1237 52.5017 47.3801 52.5017 52.6882C52.5017 52.6482 52.4817 66.8116 52.5293 68.034C53.2793 88.4777 71.8674 101.465 89.7074 98.9571C75.0592 96.9318 62.0411 85.0734 61.4159 68.034Z" fill="#CFB293"/>
</svg>
