<svg width="25" height="24" viewBox="0 0 25 24" fill="none" xmlns="http://www.w3.org/2000/svg">
<path d="M12.5323 4.87446e-07C10.1494 0.0183633 7.82531 0.737728 5.85297 2.06742C3.88062 3.39711 2.34831 5.27761 1.44919 7.47187C0.550061 9.66614 0.324364 12.076 0.800547 14.3976C1.27673 16.7192 2.43348 18.8487 4.12498 20.5176C5.81648 22.1866 7.96703 23.3202 10.3055 23.7758C12.644 24.2313 15.0659 23.9883 17.2657 23.0774C19.4655 22.1665 21.3449 20.6284 22.6669 18.6571C23.9889 16.6858 24.6945 14.3694 24.6945 12C24.6885 10.418 24.3691 8.8527 23.7546 7.39345C23.1401 5.93421 22.2425 4.6096 21.1131 3.49528C19.9837 2.38097 18.6446 1.49876 17.1723 0.899033C15.7 0.299309 14.1234 -0.00618352 12.5323 4.87446e-07ZM12.5323 21.6C10.626 21.5854 8.76665 21.01 7.18872 19.9463C5.6108 18.8826 4.38488 17.3782 3.66552 15.6228C2.94616 13.8674 2.76554 11.9395 3.14645 10.0822C3.52735 8.22487 4.45271 6.52124 5.8059 5.18605C7.15909 3.85086 8.87952 2.94387 10.7503 2.57941C12.6212 2.21495 14.5586 2.40933 16.3185 3.13806C18.0784 3.86678 19.5819 5.09723 20.6396 6.6743C21.6972 8.25137 22.2616 10.1045 22.2617 12C22.2568 13.2656 22.0013 14.5178 21.5097 15.6851C21.0181 16.8525 20.3001 17.9121 19.3966 18.8036C18.4932 19.695 17.422 20.4008 16.2442 20.8806C15.0664 21.3604 13.8051 21.6049 12.5323 21.6Z" fill="#F2A922"/>
<path d="M12.5322 4.80001C12.373 4.79882 12.2151 4.82898 12.0676 4.88875C11.9201 4.94853 11.786 5.03673 11.673 5.14828C11.56 5.25983 11.4703 5.39252 11.409 5.5387C11.3478 5.68488 11.3163 5.84166 11.3163 6.00001V11.508L8.02055 14.748C7.85168 14.8919 7.72607 15.0793 7.65757 15.2896C7.58907 15.5 7.58035 15.7251 7.63237 15.94C7.68439 16.155 7.79513 16.3515 7.95236 16.5078C8.1096 16.6642 8.30722 16.7743 8.52341 16.826C8.74084 16.8776 8.96834 16.8689 9.18113 16.8008C9.39393 16.7327 9.58387 16.6079 9.73028 16.44L13.3791 12.84C13.6076 12.6189 13.7388 12.317 13.7441 12V6.00001C13.7441 5.842 13.7128 5.68555 13.6518 5.53963C13.5908 5.39371 13.5015 5.2612 13.3889 5.14971C13.2763 5.03821 13.1426 4.94992 12.9956 4.88991C12.8486 4.8299 12.6911 4.79935 12.5322 4.80001Z" fill="#F2A922"/>
</svg>
