<svg xmlns="http://www.w3.org/2000/svg" width="1352.844" height="1080" viewBox="0 0 1352.844 1080">
    <defs>
        <style>
            .cls-2{fill:#0c3559}.cls-13,.cls-20,.cls-3,.cls-4{fill:none;stroke-linecap:round}.cls-20,.cls-3,.cls-4{stroke:#0c3559;stroke-miterlimit:10}.cls-3{stroke-width:4px}.cls-4{stroke-width:2px}.cls-6{fill:#fbdc8e}.cls-7{fill:#427cae}.cls-8{fill:#969696}.cls-9{fill:#3a6890}.cls-11{fill:#d8d8d8}.cls-12{fill:#fff}.cls-13{stroke:#969696;stroke-width:.82px;stroke-linejoin:round}.cls-16{fill:#1f161e}.cls-18{fill:#dd9f6a}.cls-19{fill:#fa9e9f}
        </style>
    </defs>
    <g id="Layer_2" opacity="0.7" transform="translate(-.003)">
        <g id="Layer_2-2" transform="translate(.003 1)">
            <ellipse id="Ellipse_347" cx="114.654" cy="25.343" class="cls-2" rx="114.654" ry="25.343" transform="translate(488.57 839.349)"/>
            <path id="Line_72" d="M64.403 0L0 201.567" class="cls-3" transform="translate(538.82 864.692)"/>
            <path id="Line_73" d="M0 0L64.403 201.567" class="cls-3" transform="translate(603.224 864.692)"/>
            <path id="Line_74" d="M0 46.036L71.797 0" class="cls-4" transform="translate(559.967 954.039)"/>
            <path id="Line_75" d="M0 0L71.815 46.036" class="cls-4" transform="translate(574.392 954.039)"/>
            <path id="Path_554" fill="none" stroke="#1f161e" stroke-linecap="round" stroke-miterlimit="10" d="M394.885 356.86c-.291 8.938-.164 40.241-1.635 53.63" transform="translate(321.176 289.643)"/>
            <rect id="Rectangle_274" width="23" height="62.695" class="cls-2" rx="6.33" transform="translate(324.21 239.137)"/>
            <circle id="Ellipse_348" cx="23.073" cy="23.073" r="23.073" class="cls-6" transform="translate(312.637 322.416)"/>
            <path id="Path_555" d="M630.891 382.2h10.9a4.341 4.341 0 0 0 4.324-4.324v-67a4.269 4.269 0 0 0-1.271-3.052l-13.771-13.771a4.3 4.3 0 0 0-3.052-1.272h-40.677a4.342 4.342 0 0 0-4.324 4.324v6.468" class="cls-6" transform="translate(476.167 237.306)"/>
            <path id="Path_556" d="M117.424 430.107c34.518 6.54 28.359 212.558-37.9 200.095-62.566-11.881-4.212-208.102 37.9-200.095z" class="cls-2" transform="translate(42.553 349.271)"/>
            <path id="Path_557" d="M8.428 444.524c27.472-15.551 142.45 129.133 89.855 158.892C48.6 631.647-25.019 463.491 8.428 444.524z" class="cls-7" transform="translate(-.003 360.289)"/>
            <path id="Path_558" d="M121.917 640.527H52.554a11.354 11.354 0 0 1-11.282-10.1L32.516 551.8A11.373 11.373 0 0 1 43.8 539.08h86.513a11.354 11.354 0 0 1 11.282 12.572l-8.375 78.628a11.373 11.373 0 0 1-11.303 10.247z" class="cls-8" transform="translate(26.487 438.468)"/>
            <path id="Path_559" d="M126.618 386.03c26.288 7.63 6.141 166.649-44.2 152.006-47.527-13.808 12.207-161.308 44.2-152.006z" class="cls-9" transform="translate(52.853 313.122)"/>
            <path id="Path_560" d="M166.342 456.593c18.167 15.66-55.737 135.456-90.655 105.37-32.974-28.286 68.473-124.409 90.655-105.37z" class="cls-7" transform="translate(56.476 369.076)"/>
            <path id="Path_561" fill="#7da6ca" d="M82.964 394.94c39.35 0 75.376 251.254 0 251.254-71.179 0-47.907-251.254 0-251.254z" transform="translate(30.94 320.744)"/>
            <rect id="Rectangle_275" width="153.151" height="28.123" class="cls-11" rx="4.05" transform="translate(37.166 960.543)"/>
            <path id="Path_562" d="M619.447 298.72h-39.968a4.869 4.869 0 0 0-4.869 4.887v79.573a4.887 4.887 0 0 0 4.869 4.887h53.394a4.887 4.887 0 0 0 4.869-4.887v-66.129a4.871 4.871 0 0 0-1.417-3.452l-13.444-13.444a4.871 4.871 0 0 0-3.434-1.435z" class="cls-11" transform="translate(469.299 242.158)"/>
            <path id="Path_563" d="M616.7 315.143h-13.575a2.725 2.725 0 0 1-2.725-2.725v-13.7" class="cls-8" transform="translate(490.362 242.158)"/>
            <path id="Path_564" d="M625.115 309.221h-13.572a2.761 2.761 0 0 1-2.743-2.743v-13.7" class="cls-7" transform="translate(497.223 237.306)"/>
            <rect id="Rectangle_276" width="104.68" height="41.603" class="cls-7" rx="3.03" transform="translate(944.788 449.914)"/>
            <path id="Path_565" d="M554.518 304.418l12.608-38.188H541.91z" class="cls-7" transform="translate(442.591 215.622)"/>
            <path id="Path_566" d="M539.854 254.75l-10.574 18.294h21.129z" class="cls-12" transform="translate(432.276 206.246)"/>
            <path id="Path_567" d="M567.364 273.044l10.573-18.294H556.79z" class="cls-12" transform="translate(454.744 206.246)"/>
            <circle id="Ellipse_349" cx="7.939" cy="7.939" r="7.939" class="cls-12" transform="translate(989.17 462.213)"/>
            <rect id="Rectangle_277" width="71.107" height="46.799" class="cls-11" rx="2.65" transform="translate(922.66 361.748)"/>
            <path id="Line_76" d="M0 0L33.319 21.928" class="cls-13" transform="translate(924.894 363.219)"/>
            <path id="Line_77" d="M35.553 0L0 23.4" class="cls-13" transform="translate(958.213 361.748)"/>
            <circle id="Ellipse_350" cx="10.174" cy="10.174" r="10.174" class="cls-6" transform="translate(983.593 351.574)"/>
            <text id="_1" fill="#fff" font-family="SegoeUI-Bold, Segoe UI" font-size="8px" font-weight="700" transform="translate(990.824 360.138)">
                <tspan x="0" y="0">1</tspan>
            </text>
            <rect id="Rectangle_278" width="269.712" height="5.85" class="cls-11" rx="1.23" transform="translate(1083.132 390.289)"/>
            <rect id="Rectangle_279" width="25.416" height="116.162" class="cls-8" rx="2.56" transform="translate(1176.639 274.127)"/>
            <rect id="Rectangle_280" width="12.717" height="88.929" class="cls-11" rx="2.13" transform="translate(1202.055 301.36)"/>
            <rect id="Rectangle_281" width="12.717" height="88.929" class="cls-8" rx="2.06" transform="translate(1214.772 301.36)"/>
            <rect id="Rectangle_282" width="12.717" height="88.929" class="cls-11" rx="2.2" transform="rotate(-24.66 1324.756 -2646.544)"/>
            <circle id="Ellipse_351" cx="7.103" cy="7.103" r="7.103" class="cls-11" transform="translate(1182.235 346.687)"/>
            <rect id="Rectangle_283" width="16.278" height="3.415" class="cls-11" rx=".94" transform="translate(1181.199 365.145)"/>
            <rect id="Rectangle_284" width="16.278" height="3.415" class="cls-11" rx=".94" transform="translate(1181.199 373.884)"/>
            <rect id="Rectangle_285" width="16.278" height="3.415" class="cls-8" rx=".94" transform="translate(1051.048 549.089)"/>
            <rect id="Rectangle_286" width="16.278" height="3.415" class="cls-8" rx=".94" transform="translate(1051.048 557.301)"/>
            <rect id="Rectangle_287" width="50.378" height="3.415" class="cls-8" rx=".94" transform="translate(1050.303 571.344)"/>
            <rect id="Rectangle_288" width="50.378" height="3.415" class="cls-8" rx=".94" transform="translate(1050.303 579.411)"/>
            <rect id="Rectangle_289" width="50.378" height="3.415" class="cls-8" rx=".94" transform="translate(1050.303 587.477)"/>
            <rect id="Rectangle_290" width="2.652" height="64.712" class="cls-8" rx=".73" transform="translate(1207.088 313.459)"/>
            <rect id="Rectangle_291" width="20.42" height="9.047" class="cls-11" rx="2.49" transform="translate(1138.052 393.214)"/>
            <rect id="Rectangle_292" width="20.42" height="9.047" class="cls-11" rx="2.49" transform="translate(1277.504 393.214)"/>
            <rect id="Rectangle_293" width="109.931" height="75.958" class="cls-11" rx="12" transform="translate(775.995 402.061)"/>
            <path id="Rectangle_294" d="M0 0H16.532V51.504H0z" class="cls-2" transform="translate(798.74 414.288)"/>
            <path id="Rectangle_295" d="M0 0H16.532V17.259H0z" class="cls-2" transform="translate(822.703 448.551)"/>
            <path id="Rectangle_296" d="M0 0H16.532V31.775H0z" class="cls-2" transform="translate(846.648 434.018)"/>
            <path id="Path_568" d="M216.071 152.88a69.563 69.563 0 0 0-69.581 69.563h139.162a69.563 69.563 0 0 0-69.581-69.563z" class="cls-9" transform="translate(119.639 123.045)"/>
            <path id="Line_78" fill="none" stroke="#0c3559" stroke-linecap="round" stroke-linejoin="round" stroke-width="2px" d="M0 252.381L0 0" transform="translate(335.71)"/>
            <path id="Path_569" d="M485.475 574.68c0 4.305-2.525 31.466 2.507 33.973s60.352 4.033 62.859 1.508 4.015-7.794 1.817-9.3-23.618-5.777-26.524-7.794-6.922-12.717-5.45-18.385" class="cls-16" transform="translate(395.981 467.543)"/>
            <path id="Path_570" fill="#f2a922" d="M514.071 480.811l31.139-11.173c-1.344-56.809-14.625-183.745-33.483-202.62-4.433-4.415-92.108-12.118-107.75-12.118-93.344 0-121.031 10.646-128.062 17.695-21.8 21.8-28.6 122.811-28.6 158.183S347.24 484.5 347.24 484.5l117.125 8.048s25.689 2.652 47.907 3.96c.491-6.813 1.799-15.697 1.799-15.697z" transform="translate(201.99 206.369)"/>
            <path id="Path_571" d="M445.22 400.712c8.521-2.525 93.253-16.35 111.711 1.817s76.557 278.632 76.557 284.628h-46.781l-63.15-135.91" class="cls-9" transform="translate(363.621 319.405)"/>
            <path id="Path_572" d="M282.107 385.464c-2.126 10.628-14.9 22.037-14.9 79.937 0 80.063 65.584 81.753 89.129 81.753 73.36 0 192.047-21.8 200.059-25.8 5.323 8.9 103.3 208.925 103.754 213.394h45.11S677.3 435.5 626.851 401.561C610.464 390.66 319.732 379 282.107 385.464z" class="cls-7" transform="translate(218.235 311.489)"/>
            <path id="Path_573" d="M443.213 352.41c-11.845 0-21.619 2.816-48.434 8.084l-1.4 51.3c25.434-10.246 31.338-24.49 38.714-24.49 18.422 0 28.051 9.5 38.933 9.5 7.594 0 21.256-5.959 21.256-14.062.001-16.961-34.39-30.332-49.069-30.332z" class="cls-18" transform="translate(321.282 286.008)"/>
            <path id="Path_574" d="M524.845 553.07c0 4.324-2.525 31.466 2.507 33.991s60.352 4.015 62.859 1.508 4.015-7.793 1.817-9.3-23.617-5.8-26.524-7.812-6.922-12.717-5.45-18.385" class="cls-16" transform="translate(428.136 449.894)"/>
            <path id="Path_575" d="M360.518 286.591c0 6.849-39.768 7.049-39.768 0v-55.7h39.768z" class="cls-18" transform="translate(261.963 186.759)"/>
            <path id="Path_576" d="M347.565 247.411c-3.633 0-26.815 10.246-26.815 15.969v-30.23c5.777 0 26.815 14.261 26.815 14.261z" class="cls-2" transform="translate(261.963 188.605)"/>
            <circle id="Ellipse_352" cx="48.143" cy="48.143" r="48.143" class="cls-18" transform="translate(569.069 342.091)"/>
            <path id="Path_577" d="M416.168 216.611c-5.959 9.465-18.422 13.807-31.92 13.807-11.5 0-28.25-3.343-40.168 3.452-6.45 3.634-13.843 11.9-15.333 28.45 0 2.834-3.216 13.825-3.216 17.368 0 2.416-2.725 4-7.267 4-2.344 0-6.976-3.8-6.976-9.592 0-6.7 2.671-9.084 2.671-14.77S307 248.167 307 232.362c0-22.764 14.534-36.789 24.817-36.789 9.374 0 12.317 2.18 13.5 3.107 0-20.693 27.251-30.14 38.061-30.14 12.354 0 18.167 5.069 18.167 11.518 0 10.283-4.905 19.021-7.394 20.983a30.52 30.52 0 0 1 20.529-7.83c14.152 0 18.912 9.3 18.912 15.66C433.59 222.7 417 235.5 410.826 235.5a65.986 65.986 0 0 0-5.45-9.429" class="cls-2" transform="translate(250.733 135.835)"/>
            <circle id="Ellipse_353" cx="10.265" cy="10.265" r="10.265" class="cls-18" transform="translate(570.704 386.328)"/>
            <ellipse id="Ellipse_354" cx="7.957" cy="4.142" class="cls-19" rx="7.957" ry="4.142" transform="translate(657.871 390.779)"/>
            <ellipse id="Ellipse_355" cx="7.957" cy="4.142" class="cls-19" rx="7.957" ry="4.142" transform="translate(607.82 390.779)"/>
            <path id="Path_578" d="M355.8 213.65c1.49 2.126 9.084 11.046 1.072 14.661" class="cls-20" transform="translate(290.589 172.678)"/>
            <path id="Path_579" d="M351.17 229.99c-2.4 0-6.086-2.979-8.03-5.65" class="cls-20" transform="translate(280.249 181.409)"/>
            <path id="Path_580" d="M382.5 298.62c3.634 7.721 21.165 82.207 21.165 105.807" class="cls-20" transform="translate(312.396 242.076)"/>
            <path id="Path_581" d="M247.32 348.41c0 83.733.781 108.023 34.391 108.023 77.466 0 194.572-63.586 215.446-63.586 18.44 0 28.069 9.52 38.951 9.52 7.576 0 21.238-5.977 21.238-14.062 0-16.986-34.391-30.357-49.052-30.357-33.01 0-164.741 31.829-167.957 31.829s-8.63-1.4-8.63-6.812c0-9.829 6.431-32.538 7.267-34.518z" class="cls-18" transform="translate(201.99 282.741)"/>
            <path id="Path_582" d="M318.082 308.21c-2.216 6.377-19.494 72.27-21.492 80.3" class="cls-20" transform="translate(242.23 249.909)"/>
            <rect id="Rectangle_297" width="18.603" height="384.421" class="cls-8" rx="5.12" transform="rotate(165.24 549.132 615.924)"/>
            <rect id="Rectangle_298" width="18.603" height="384.421" class="cls-8" rx="5.12" transform="rotate(14.76 -2154.526 4636.828)"/>
            <rect id="Rectangle_299" width="18.603" height="384.421" class="cls-11" rx="5.12" transform="rotate(14.76 -2219.083 4139.905)"/>
            <rect id="Rectangle_300" width="18.635" height="385.074" class="cls-11" rx="5.129" transform="rotate(165.548 485.758 602.965)"/>
            <rect id="Rectangle_301" width="18.603" height="384.421" class="cls-8" rx="5.12" transform="rotate(14.76 -2482.694 2111.236)"/>
            <rect id="Rectangle_302" width="18.603" height="384.421" class="cls-8" rx="5.12" transform="rotate(165.24 222.14 573.712)"/>
            <rect id="Rectangle_303" width="916.052" height="27.524" class="cls-11" rx="4.53" transform="translate(271.724 685.163)"/>
            <rect id="Rectangle_304" width="18.603" height="384.421" class="cls-11" rx="5.12" transform="rotate(14.76 -2549.587 1596.545)"/>
            <rect id="Rectangle_305" width="18.603" height="384.421" class="cls-11" rx="5.12" transform="rotate(165.24 155.663 565.129)"/>
            <path id="Path_583" d="M595.836 429.13H427.77l30.448-104.717a12.226 12.226 0 0 1 11.772-8.7H612.6a12.027 12.027 0 0 1 11.772 15.279z" class="cls-2" transform="translate(349.369 256.033)"/>
            <circle id="Ellipse_356" cx="10.283" cy="10.283" r="10.283" class="cls-12" transform="translate(871.519 618.162)"/>
            <path id="Rectangle_306" d="M0 0H117.924V7.358H0z" class="cls-2" transform="translate(679.181 677.805)"/>
        </g>
    </g>
</svg>
