<svg width="183" height="204" viewBox="0 0 183 204" fill="none" xmlns="http://www.w3.org/2000/svg">
<path d="M161.609 113.732H137.225C133.24 113.732 130.012 116.962 130.012 120.945V150.121C130.012 146.138 126.783 142.909 122.8 142.909H98.4145C94.4301 142.909 91.2022 146.137 91.2022 150.121V169.356C91.2022 165.374 87.9727 162.144 83.9898 162.144H59.6042C55.6198 162.144 52.3919 165.374 52.3919 169.356V187.263C52.3919 183.28 49.1623 180.05 45.178 180.05H20.7939C16.8111 180.05 13.5815 183.278 13.5815 187.263V200.954H168.823V120.945C168.823 116.962 165.593 113.732 161.609 113.732Z" fill="#A7C7D3"/>
<path d="M140.548 116.778C138.864 116.778 137.5 115.415 137.5 113.732V3.04587C137.5 1.3634 138.864 0 140.548 0C142.23 0 143.594 1.3634 143.594 3.04587V113.732C143.594 115.415 142.229 116.778 140.548 116.778Z" fill="#A3A3A3"/>
<path d="M52.3919 200.954H13.5815V187.262C13.5815 183.279 16.8111 180.05 20.7939 180.05H45.1795C49.1623 180.05 52.3919 183.278 52.3919 187.262V200.954Z" fill="#90C0EA"/>
<path d="M91.2019 200.954H52.3916V169.356C52.3916 165.373 55.6211 162.144 59.6039 162.144H83.9896C87.9724 162.144 91.2019 165.373 91.2019 169.356V200.954Z" fill="#5A9FDB"/>
<path d="M130.012 200.954H91.2021V150.121C91.2021 146.138 94.4301 142.908 98.4145 142.908H122.8C126.783 142.908 130.012 146.136 130.012 150.121V200.954Z" fill="#317EC2"/>
<path d="M168.823 200.954H130.012V120.945C130.012 116.962 133.24 113.732 137.225 113.732H161.609C165.593 113.732 168.823 116.962 168.823 120.945V200.954Z" fill="#19588F"/>
<path d="M179.579 204H3.42136C1.73889 204 0.375488 202.637 0.375488 200.954C0.375488 199.272 1.73889 197.908 3.42136 197.908H179.579C181.262 197.908 182.625 199.272 182.625 200.954C182.625 202.637 181.262 204 179.579 204Z" fill="#0C3559"/>
<path d="M140.548 32.0064H179.584C180.793 32.0064 181.358 30.5091 180.451 29.7107L170.311 20.7801C169.716 20.2587 169.716 19.3342 170.311 18.8113L180.451 9.8822C181.358 9.08221 180.793 7.58496 179.584 7.58496H140.548V32.0064Z" fill="#F8BD4F"/>
<path d="M143.656 43.4346L101.368 66.4023C97.5957 68.4521 96.5638 72.0536 95.2471 76.6932L86.8379 106.434L97.9443 110.249L107.446 97.9878L115.444 73.8061L136.725 60.8756C142.672 57.2632 145.5 50.1442 143.656 43.4346Z" fill="#A5DE99"/>
<path d="M143.656 43.4346L138.776 46.0851C137.955 50.2843 135.418 54.0772 131.581 56.4087L112.19 68.1906C110.97 68.9315 110.053 70.0848 109.603 71.4404L106.834 79.8122C103.957 88.5125 97.4198 95.521 88.9406 98.9964L86.8379 106.434L107.446 97.9894L115.444 73.8077L136.725 60.8756C142.672 57.2632 145.5 50.1442 143.656 43.4346Z" fill="#5ACF8F"/>
<path d="M107.446 97.9873L119.623 112.381C121.642 115.053 123.398 116.932 123.033 119.872L120.185 142.896H112.753L110.811 123.103C110.693 121.904 109.935 120.866 108.83 120.39L86.8379 106.434L107.446 97.9873Z" fill="#262626"/>
<path d="M86.8382 106.434L85.6506 128.256C85.5728 130.066 85.8265 131.29 85.1184 132.636L71.0952 162.144H78.9784L100.063 134.132C101.296 132.697 101.439 130.748 101.854 128.955L107.445 97.9873L86.8382 106.434Z" fill="#4B4B4B"/>
<path d="M105.935 48.1459L109.394 54.8975C111.018 58.0695 109.764 61.9605 106.59 63.5853L103.918 64.9534C100.745 66.5783 96.8552 65.3238 95.2303 62.1503L91.772 55.3987C90.1471 52.2252 91.4016 48.3358 94.5751 46.7109L97.2474 45.3428C100.419 43.7179 104.309 44.9724 105.935 48.1459Z" fill="#88613A"/>
</svg>
