<svg width="1000" height="1000" viewBox="0 0 1000 1000" fill="none" xmlns="http://www.w3.org/2000/svg">
<g clip-path="url(#clip0)">
<rect width="1000" height="1000" fill="#90C0EA"/>
<path d="M789.5 -111.5C728.667 -108.667 570.4 -43.8 424 193C241 489 254 620 -129 676.5C-435.4 721.7 -221.667 170 -76.4999 -111.5H789.5ZM393.5 -63.5C289 154 284.5 128.5 284.5 250C284.5 371.5 101.5 559 -129 467.5C-313.4 394.3 -130.5 83 -16 -63.5H393.5ZM249.5 -89.5C274.333 -63.5 290 24.2 154 167C-16 345.5 44.621 428 -76.4999 415C-173.397 404.6 -56.2069 74.3333 14.5 -89.5H249.5ZM139 -149.5C153.167 -102.333 162.9 10.6 88.5 85C-4.5 178 -76.4999 264 -76.4999 313C-76.4999 352.2 -29.5 21 -6 -149.5H139ZM726.5 -149.5C761.167 -73.1667 772.4 132 540 342C249.5 604.5 407 409 139 712C-75.3999 954.4 -145.333 1120 -153.5 1172.5H1187L1088 -149.5H726.5ZM983 -63.5C979 -5 911.6 158 674 342C377 572 297 572 225.5 793.5C168.3 970.7 0.333427 1056 -76.4999 1076.5L1073.5 1062V-63.5H983ZM1029.5 85C831.5 342 779.5 412.5 586.5 552C393.5 691.5 298.5 867 193.5 992C109.5 1092 778.167 1115.33 1123 1114.5L1029.5 85ZM1099.5 260.5C1060.83 269 957.8 315.8 855 435C726.5 584 749 630.5 586.5 729.5C424 828.5 375.5 828.5 284.5 971.5C211.7 1085.9 214.833 1131.83 225.5 1140.5H1169.5L1099.5 260.5ZM1099.5 435C1096.83 417.167 1023.4 440.5 751 676.5C410.5 971.5 538.5 979.5 366 1034C228 1077.6 762.167 1052.17 1046.5 1034L1099.5 435ZM1099.5 583C1115 586.333 1076.5 623.2 798.5 744C520.5 864.8 559.667 1041.33 614 1114.5L1143 1076.5L1099.5 583ZM1123 676.5C798.5 862.5 825.365 764 703.5 905C606.008 1017.8 612.212 1066.33 627.5 1076.5L1099.5 1062L1123 676.5ZM1046.5 812C1000.5 817.667 894.5 840.4 838.5 886C782.5 931.6 725.167 997.667 703.5 1025H1036L1046.5 812ZM1050.5 893.5C1020.33 913 929 960.2 805 993C681 1025.8 670.333 1040.67 680.5 1044L1064 1029.5L1050.5 893.5Z" stroke="#C6DEF3" stroke-width="10"/>
</g>
<defs>
<clipPath id="clip0">
<rect width="1000" height="1000" fill="white"/>
</clipPath>
</defs>
</svg>
