<svg width="138" height="49" viewBox="0 0 138 49" fill="none" xmlns="http://www.w3.org/2000/svg">
<path d="M113.047 48.0232C112.845 48.0232 112.682 47.8598 112.682 47.6582V3.70113C112.682 3.52807 112.804 3.37883 112.973 3.34379L120.65 1.7565C120.876 1.70968 121.089 1.8826 121.089 2.11383V47.6582C121.089 47.8598 120.926 48.0232 120.724 48.0232H113.047Z" fill="#1C4396"/>
<path d="M16.612 48.9531C13.5469 48.9531 10.8102 48.2088 8.40196 46.72C5.99371 45.2312 4.08899 43.1951 2.68782 40.6116C1.28665 38.0283 0.58606 35.0946 0.58606 31.8106C0.58606 28.5267 1.28665 25.6148 2.68782 23.0752C4.08899 20.4918 5.99371 18.4776 8.40196 17.0326C10.8102 15.5439 13.5469 14.7995 16.612 14.7995C19.064 14.7995 21.2096 15.2592 23.0486 16.1788C24.5257 16.9173 25.7769 17.896 26.8019 19.1147C27.0329 19.3893 27.5149 19.2332 27.5149 18.8744V2.91067C27.5149 2.73763 27.6363 2.58838 27.8058 2.55335L35.4831 0.966063C35.7095 0.919246 35.9219 1.09217 35.9219 1.3234V47.8001C35.9219 48.0016 35.7584 48.1649 35.5571 48.1649H28.7342C28.5599 48.1649 28.4101 48.0417 28.3762 47.8706L27.6764 44.3214C27.6149 44.0089 27.2052 43.9159 27.0012 44.1605C26.0215 45.3358 24.7914 46.386 23.3112 47.311C21.6037 48.4057 19.3705 48.9531 16.612 48.9531ZM18.3853 41.5969C21.1 41.5969 23.3112 40.6994 25.019 38.904C26.7704 37.0651 27.6462 34.7224 27.6462 31.8763C27.6462 29.0301 26.7704 26.7095 25.019 24.9142C23.3112 23.0752 21.1 22.1556 18.3853 22.1556C15.7143 22.1556 13.5031 23.0532 11.7516 24.8485C10.0002 26.6438 9.12445 28.9644 9.12445 31.8106C9.12445 34.6567 10.0002 36.9993 11.7516 38.8383C13.5031 40.6773 15.7143 41.5969 18.3853 41.5969Z" fill="#1C4396"/>
<path d="M56.4221 48.9583C53.1382 48.9583 50.2263 48.2577 47.6867 46.8567C45.1471 45.4555 43.1549 43.4851 41.7098 40.9455C40.2649 38.4059 39.5424 35.4722 39.5424 32.1444C39.5424 28.7728 40.243 25.7734 41.6441 23.1462C43.0892 20.519 45.0596 18.4829 47.5553 17.0379C50.0949 15.5492 53.0725 14.8048 56.4878 14.8048C59.6843 14.8048 62.5084 15.5054 64.9605 16.9066C67.4125 18.3078 69.3172 20.2344 70.6748 22.6864C72.0758 25.0946 72.7764 27.7877 72.7764 30.765C72.7764 31.2466 72.7546 31.7503 72.7107 32.2756C72.7107 32.6966 72.6967 33.1315 72.6686 33.5807C72.6568 33.7708 72.4979 33.9177 72.3072 33.9177H48.2748C48.0632 33.9177 47.8955 34.0972 47.9165 34.3076C48.1513 36.662 49.0162 38.5245 50.511 39.8946C52.131 41.3395 54.0796 42.062 56.3566 42.062C58.0641 42.062 59.4872 41.6897 60.6258 40.9455C61.7399 40.2028 62.5817 39.2655 63.1515 38.1338C63.2152 38.007 63.3437 37.9242 63.4857 37.9242H71.3019C71.5459 37.9242 71.7212 38.1592 71.644 38.391C71.0192 40.2677 70.0393 41.9949 68.7044 43.5726C67.3031 45.2365 65.5517 46.5502 63.4498 47.5134C61.3919 48.4767 59.0494 48.9583 56.4221 48.9583ZM56.4878 21.6356C54.4298 21.6356 52.6127 22.2266 51.0363 23.4089C49.5572 24.4773 48.5793 26.0853 48.1025 28.2334C48.053 28.4562 48.2257 28.6634 48.4539 28.6634H63.8501C64.0605 28.6634 64.228 28.4859 64.2068 28.2767C64.0084 26.3117 63.2307 24.7328 61.8735 23.5403C60.4286 22.2705 58.6333 21.6356 56.4878 21.6356Z" fill="#1C4396"/>
<path d="M92.9945 48.9583C89.7104 48.9583 86.7985 48.2577 84.2589 46.8567C81.7193 45.4555 79.7271 43.4851 78.2822 40.9455C76.8371 38.4059 76.1146 35.4722 76.1146 32.1444C76.1146 28.7728 76.8152 25.7734 78.2165 23.1462C79.6614 20.519 81.6318 18.4829 84.1277 17.0379C86.6673 15.5492 89.6447 14.8048 93.0602 14.8048C96.2565 14.8048 99.0808 15.5054 101.533 16.9066C103.985 18.3078 105.89 20.2344 107.247 22.6864C108.648 25.0946 109.349 27.7877 109.349 30.765C109.349 31.2466 109.327 31.7503 109.283 32.2756C109.283 32.6966 109.269 33.1315 109.241 33.5807C109.229 33.7708 109.07 33.9177 108.879 33.9177H84.847C84.6356 33.9177 84.4679 34.0972 84.4889 34.3076C84.7237 36.662 85.5884 38.5245 87.0832 39.8946C88.7034 41.3395 90.6518 42.062 92.9288 42.062C94.6365 42.062 96.0596 41.6897 97.198 40.9455C98.3121 40.2028 99.1539 39.2655 99.7237 38.1338C99.7876 38.007 99.9161 37.9242 100.058 37.9242H107.874C108.118 37.9242 108.293 38.1592 108.216 38.391C107.592 40.2677 106.611 41.9949 105.277 43.5726C103.875 45.2365 102.124 46.5502 100.022 47.5134C97.9643 48.4767 95.6216 48.9583 92.9945 48.9583ZM93.0602 21.6356C91.0022 21.6356 89.1851 22.2266 87.6087 23.4089C86.1294 24.4773 85.1515 26.0853 84.6749 28.2334C84.6254 28.4562 84.7979 28.6634 85.0261 28.6634H100.422C100.633 28.6634 100.8 28.4859 100.779 28.2767C100.581 26.3117 99.8029 24.7328 98.4459 23.5403C97.0008 22.2705 95.2057 21.6356 93.0602 21.6356Z" fill="#1C4396"/>
<path d="M132.106 48.0328C135.232 48.0328 137.766 45.4987 137.766 42.3727C137.766 39.2468 135.232 36.7127 132.106 36.7127C128.98 36.7127 126.446 39.2468 126.446 42.3727C126.446 45.4987 128.98 48.0328 132.106 48.0328Z" fill="#2C71F0"/>
</svg>
