<svg width="46" height="46" viewBox="0 0 46 46" fill="none" xmlns="http://www.w3.org/2000/svg">
<path d="M1 23C1 10.8497 10.8497 1 23 1V1C35.1503 1 45 10.8497 45 23V23C45 35.1503 35.1503 45 23 45V45C10.8497 45 1 35.1503 1 23V23Z" fill="white"/>
<path fill-rule="evenodd" clip-rule="evenodd" d="M21 13C20.4477 13 20 13.4477 20 14V15H17C16.4477 15 16 15.4477 16 16C16 16.5523 16.4477 17 17 17H29C29.5523 17 30 16.5523 30 16C30 15.4477 29.5523 15 29 15H26V14C26 13.4477 25.5523 13 25 13H21ZM27.5 19.5H18.5V31C18.5 31.2761 18.7239 31.5 19 31.5H27C27.2761 31.5 27.5 31.2761 27.5 31V19.5ZM18.5 18H17V19.5V31C17 32.1046 17.8954 33 19 33H27C28.1046 33 29 32.1046 29 31V19.5V18H27.5H18.5Z" fill="#262626"/>
<path d="M23 44C11.402 44 2 34.598 2 23H0C0 35.7025 10.2975 46 23 46V44ZM44 23C44 34.598 34.598 44 23 44V46C35.7025 46 46 35.7025 46 23H44ZM23 2C34.598 2 44 11.402 44 23H46C46 10.2975 35.7025 0 23 0V2ZM23 0C10.2975 0 0 10.2975 0 23H2C2 11.402 11.402 2 23 2V0Z" fill="#262626"/>
</svg>
