<svg width="24" height="24" viewBox="0 0 24 24" fill="none" xmlns="http://www.w3.org/2000/svg">
<path d="M15.0129 15.6599C15.0129 15.0483 14.7802 14.533 14.3147 14.1142C13.8564 13.6954 13.0795 13.3164 11.9839 12.9774C10.4586 12.5452 9.34515 11.9835 8.64339 11.292C7.9488 10.594 7.6015 9.70977 7.6015 8.63941C7.6015 7.5491 7.94164 6.65492 8.62191 5.95686C9.30934 5.2588 9.80415 4.85326 11 4.72029V2.52632C11 2.52632 11 2 12 2C13 2 13 2.52632 13 2.52632V4.72029C14.203 4.8732 15.1847 5.3419 15.8507 6.12639C16.5238 6.91087 16.8604 7.98456 16.8604 9.34744H14.884C14.884 8.41004 14.6441 7.66544 14.1643 7.11364C13.6846 6.56184 13.0365 6.28594 12.2202 6.28594C11.3681 6.28594 10.7164 6.49204 10.2653 6.90423C9.81418 7.30977 9.58861 7.87819 9.58861 8.60949C9.58861 9.2876 9.82492 9.82944 10.2975 10.235C10.7773 10.6339 11.5614 10.9995 12.6498 11.3319C13.7454 11.6577 14.5976 12.02 15.2062 12.4189C15.8221 12.8112 16.2732 13.2699 16.5596 13.7951C16.8532 14.3203 17 14.9353 17 15.64C17 16.7635 16.6348 17.6677 15.9044 18.3524C15.1812 19.0372 14.3104 19.4427 13 19.569V21.4737C13 21.4737 13 22 12 22C11 22 11 21.4737 11 21.4737V19.569C9.6681 19.456 8.88686 19.0172 8.12782 18.2527C7.37594 17.4815 7 16.4377 7 15.1214H8.98711C8.98711 16.0455 9.24848 16.7569 9.77121 17.2555C10.2939 17.7541 11.0351 18.0034 11.9946 18.0034C12.9327 18.0034 13.6702 17.794 14.2073 17.3751C14.7444 16.9563 15.0129 16.3846 15.0129 15.6599Z" fill="#262626"/>
</svg>
