<svg width="46" height="46" viewBox="0 0 46 46" fill="none" xmlns="http://www.w3.org/2000/svg">
<path d="M1 23C1 10.8497 10.8497 1 23 1V1C35.1503 1 45 10.8497 45 23V23C45 35.1503 35.1503 45 23 45V45C10.8497 45 1 35.1503 1 23V23Z" fill="white"/>
<path d="M16.5677 25.1037L27.1923 14.479C27.3876 14.2838 27.7042 14.2838 27.8995 14.479L31.435 18.0146C31.6302 18.2098 31.6302 18.5264 31.435 18.7217L20.8104 29.3463C20.7382 29.4184 20.6458 29.4668 20.5454 29.4848L16.2333 30.2614C15.8903 30.3232 15.5908 30.0238 15.6526 29.6807L16.4292 25.3686C16.4473 25.2682 16.4956 25.1758 16.5677 25.1037Z" stroke="#262626" stroke-width="1.75"/>
<path d="M23 44C11.402 44 2 34.598 2 23H0C0 35.7025 10.2975 46 23 46V44ZM44 23C44 34.598 34.598 44 23 44V46C35.7025 46 46 35.7025 46 23H44ZM23 2C34.598 2 44 11.402 44 23H46C46 10.2975 35.7025 0 23 0V2ZM23 0C10.2975 0 0 10.2975 0 23H2C2 11.402 11.402 2 23 2V0Z" fill="#262626"/>
</svg>
