<svg width="220" height="118" viewBox="0 0 220 118" fill="none" xmlns="http://www.w3.org/2000/svg">
<path d="M170.537 104.715C170.568 104.047 170.588 103.377 170.588 102.696C170.59 70.515 135.727 44.4229 92.7225 44.4229C49.718 44.4229 14.855 70.515 14.855 102.703C14.855 103.376 14.8753 104.047 14.9067 104.722L170.537 104.715Z" fill="#E2E2E2"/>
<path d="M215.063 104.715C215.085 104.243 215.102 103.769 215.102 103.294C215.102 80.559 189.07 62.1289 156.958 62.1289C124.846 62.1289 98.8145 80.559 98.8145 103.294C98.8145 103.77 98.8291 104.243 98.8534 104.715H215.063Z" fill="#EFEFEF"/>
<path d="M6.61816 114.286C6.61816 111.079 12.4869 99.9094 22.4952 99.9094C32.2734 99.9094 34.5206 103.462 42.6357 103.462C48.6965 103.462 48.2825 101.094 53.9706 101.094C65.5921 101.094 70.1137 110.233 70.1137 114.295L6.61816 114.286Z" fill="#FBDC8E"/>
<path d="M156.004 111.905C156.004 108.698 161.873 97.5283 171.881 97.5283C181.66 97.5283 183.907 101.081 192.022 101.081C198.083 101.081 197.669 98.7125 203.357 98.7125C214.978 98.7125 219.5 107.852 219.5 111.914L156.004 111.905Z" fill="#FBDC8E"/>
<path d="M56.5029 117.981C56.5029 112.061 67.3334 91.4436 85.8098 91.4436C103.859 91.4436 108.007 98.0022 122.985 98.0022C134.173 98.0022 133.408 93.6299 143.908 93.6299C165.359 93.6299 173.705 110.5 173.705 118L56.5029 117.981Z" fill="#FBDC8E"/>
<path d="M0.499512 40.4374C0.499512 36.5802 10.1509 35.7627 13.9656 35.7627C21.7017 35.7627 22.2139 31.3711 28.6375 31.3711C34.2848 31.3711 37.1578 35.9056 42.4157 35.9056C53.6996 35.9056 56.2125 23.0164 67.1897 23.0164C78.359 23.0164 77.7882 36.4717 88.1812 36.4717C93.4657 36.4717 125.213 37.4612 125.213 40.4401L0.499512 40.4374Z" fill="#7DA6CA"/>
<path d="M135.214 17.0375C135.214 14.6009 143.579 10.7886 148.154 10.7886C157.179 10.7886 154.362 13.913 160.039 13.913C166.508 13.913 167.985 0 177.829 0C188.587 0 186.899 13.6088 193.501 13.6088C196.345 13.6088 197.769 12.286 201.811 12.286C204.156 12.286 206.722 14.6088 206.722 17.048L135.214 17.0375Z" fill="#7DA6CA"/>
<path d="M70.9219 97.5608L83.5664 37.0222" stroke="#D8D8D8" stroke-linecap="round" stroke-linejoin="round"/>
<path d="M105.376 40.1439C104.114 41.3476 101.375 45.5805 100.086 45.5805C96.5118 45.5805 85.5693 38.9401 84.8197 37.1147C84.6303 36.6147 85.9187 35.3369 86.2762 35.3369C86.6337 35.3369 93.0119 39.128 96.928 38.7761C99.062 38.5856 100.476 34.3712 102.781 31.9241" fill="#0C3559"/>
<path d="M172.166 44.9244C172.433 44.6281 173.852 42.8079 174.361 42.7391C175.279 42.6016 178.779 46.0197 178.806 46.3424C178.832 46.6652 178.619 47.1149 178.374 47.0858C178.128 47.0567 176.394 46.0884 176.071 46.0567C175.749 46.0249 174.842 46.517 174.604 47.0012" fill="#0C3559"/>
<path d="M104.635 46.9509C103.518 47.9668 91.959 69.8086 91.959 72.6129C91.959 75.4172 101.237 96.4416 102.013 96.8913C102.789 97.3411 105.081 96.9813 105.665 96.349C106.249 95.7167 102.731 73.1526 102.731 73.1526L119.91 55.6443L104.635 46.9509Z" fill="#3A6890"/>
<path d="M118.369 38.5563C119.62 39.2892 137.647 49.3873 142.59 53.9377C145.274 53.2392 171.825 44.0644 172.177 44.2734C172.529 44.4824 175.143 46.4798 175.143 46.9507C175.143 47.4216 147.899 69.065 140.55 69.065C137.866 69.065 112.094 54.1096 104.644 46.9507C103.891 42.9427 114.906 36.5245 118.369 38.5563Z" fill="#427CAE"/>
<path d="M106.799 23.8632C109.512 22.9134 118.344 37.8847 118.344 38.5566C118.344 39.2286 105.871 47.041 104.609 46.951C103.347 46.8611 94.0105 28.3421 106.799 23.8632Z" fill="#F2A922"/>
<path d="M98.1339 18.2546C97.7684 18.2229 96.5547 16.7228 97.2029 13.3683C97.9872 12.3497 100.585 12.0269 100.671 13.1804C100.756 14.3339 99.2489 18.3578 98.1339 18.2546Z" fill="#0C3559"/>
<path d="M103.576 27.4821C103.667 28.1461 107.354 27.6937 107.255 26.9821L106.642 22.5481L102.963 23.0481L103.576 27.4821Z" fill="#F8CDBA"/>
<path d="M107.007 25.1964C106.954 24.8023 105.855 23.5668 105.185 23.8895C106.009 23.4689 106.295 22.3789 106.642 22.5482L107.007 25.1964Z" fill="#0C3559"/>
<path d="M102.72 24.5615C105.384 24.5615 107.543 22.42 107.543 19.7783C107.543 17.1366 105.384 14.9951 102.72 14.9951C100.056 14.9951 97.897 17.1366 97.897 19.7783C97.897 22.42 100.056 24.5615 102.72 24.5615Z" fill="#F8CDBA"/>
<path d="M98.0614 21.342C98.502 21.2802 98.8329 21.046 98.8005 20.8189C98.7681 20.5917 98.3847 20.4577 97.9442 20.5195C97.5036 20.5813 97.1727 20.8155 97.2051 21.0426C97.2375 21.2697 97.6209 21.4038 98.0614 21.342Z" fill="#FA9E9F"/>
<path d="M103.046 20.7995C103.487 20.7394 103.819 20.5065 103.787 20.2793C103.756 20.052 103.373 19.9165 102.932 19.9765C102.492 20.0365 102.16 20.2694 102.191 20.4967C102.223 20.724 102.606 20.8595 103.046 20.7995Z" fill="#FA9E9F"/>
<path d="M99.8047 19.9529C99.6847 20.183 99.0418 21.1751 99.9008 21.4212" stroke="#0C3559" stroke-width="0.2" stroke-miterlimit="10" stroke-linecap="round"/>
<path d="M101.647 22.2386C101.888 22.1989 102.216 21.8603 102.376 21.5667" stroke="#0C3559" stroke-width="0.2" stroke-miterlimit="10" stroke-linecap="round"/>
<path d="M104.472 9.47114C110.855 9.47114 115.438 10.5108 118.423 10.5108C123.02 10.5108 126.648 8.46582 131.801 8.46582C134.149 8.46582 140.159 10.4447 140.159 17.1433C140.159 20.9397 138.025 28.4795 128.883 28.4795C121.056 28.4795 119.693 25.1964 116.519 25.1964C113.173 25.1964 106.953 26.7599 105.904 22.5297C105.675 21.4053 105.419 20.027 104.792 18.8946C101.3 17.6856 100.166 17.7914 98.515 16.8232C96.1301 15.6988 96.0154 9.47114 104.472 9.47114Z" fill="#0C3559"/>
<path d="M105.665 20.6593C106.251 20.6593 106.726 20.1879 106.726 19.6064C106.726 19.0249 106.251 18.5535 105.665 18.5535C105.078 18.5535 104.603 19.0249 104.603 19.6064C104.603 20.1879 105.078 20.6593 105.665 20.6593Z" fill="#F8CDBA"/>
<path d="M105.419 96.2219C105.504 96.6029 106.113 98.8252 105.87 99.2749C105.43 100.084 100.572 100.82 100.3 100.645C100.028 100.471 99.7851 100.037 99.9558 99.8516C100.127 99.6665 101.946 98.8728 102.165 98.64C102.383 98.4072 102.53 97.3833 102.282 96.9071" fill="#0C3559"/>
<path d="M76.3081 102.759H125.899" stroke="#D8D8D8" stroke-linecap="round" stroke-linejoin="round"/>
<path d="M83.1929 36.5486L86.8021 34.2522" stroke="#969696" stroke-width="2" stroke-miterlimit="10" stroke-linecap="round"/>
<path d="M84.3501 36.874C85.4727 36.874 86.3828 36.3599 86.3828 35.7258C86.3828 35.0917 85.4727 34.5776 84.3501 34.5776C83.2275 34.5776 82.3174 35.0917 82.3174 35.7258C82.3174 36.3599 83.2275 36.874 84.3501 36.874Z" fill="#F8CDBA"/>
<path d="M82.7691 38.1701C83.8917 38.1701 84.8018 37.6561 84.8018 37.022C84.8018 36.3878 83.8917 35.8738 82.7691 35.8738C81.6464 35.8738 80.7363 36.3878 80.7363 37.022C80.7363 37.6561 81.6464 38.1701 82.7691 38.1701Z" fill="#F8CDBA"/>
<path d="M79.3276 39.0063L82.0513 37.2734" stroke="#969696" stroke-width="2" stroke-miterlimit="10" stroke-linecap="round"/>
<path d="M106.727 40.4586C105.465 41.6597 100.135 46.6413 98.852 46.6413C95.2774 46.6413 84.3376 40.001 83.5853 38.1755C83.3959 37.6755 84.6844 36.3977 85.0418 36.3977C85.3993 36.3977 93.1994 40.4772 97.1154 40.1174C99.2495 39.9269 103.374 32.4981 105.678 30.0483" fill="#F2A922"/>
<path d="M70.5484 108.511C73.7292 108.511 76.3078 105.953 76.3078 102.799C76.3078 99.6444 73.7292 97.0872 70.5484 97.0872C67.3676 97.0872 64.7891 99.6444 64.7891 102.799C64.7891 105.953 67.3676 108.511 70.5484 108.511Z" stroke="#969696" stroke-miterlimit="10"/>
<path d="M131.658 108.511C134.839 108.511 137.417 105.953 137.417 102.799C137.417 99.6444 134.839 97.0872 131.658 97.0872C128.477 97.0872 125.898 99.6444 125.898 102.799C125.898 105.953 128.477 108.511 131.658 108.511Z" stroke="#969696" stroke-miterlimit="10"/>
<path d="M100.302 37.1306C101.268 35.8766 102.364 34.2893 103.301 32.9612" stroke="#0C3559" stroke-width="0.2" stroke-linecap="round" stroke-linejoin="round"/>
<path d="M106.726 40.4587C106.094 41.0593 104.448 42.6043 102.797 44.0012" stroke="#0C3559" stroke-width="0.2" stroke-linecap="round" stroke-linejoin="round"/>
<path d="M105.257 41.9983C104.897 42.3237 103.038 44.9428 103.579 45.7391C102.888 44.4772 102.696 44.0856 102.696 44.0856" fill="#1F161E"/>
</svg>
