<svg width="88" height="19" viewBox="0 0 88 19" fill="none" xmlns="http://www.w3.org/2000/svg">
<g clip-path="url(#clip0)">
<path d="M21.3839 0.450602C19.1839 0.450602 18.3919 2.02771 18.3919 3.5147V4.4159H17.9519C17.5999 4.4159 17.3359 4.68626 17.3359 5.04675C17.3359 5.40723 17.5999 5.67759 17.9519 5.67759H18.3919V11.8959C18.3919 12.2564 18.6559 12.5718 19.0519 12.5718C19.4479 12.5718 19.7119 12.3014 19.7119 11.8959V5.63253H21.1199C21.4719 5.63253 21.7359 5.36217 21.7359 5.00169C21.7359 4.6412 21.4719 4.37084 21.1199 4.37084H19.7119V3.46964C19.7119 2.65855 20.0199 1.66723 21.4279 1.66723C21.7799 1.66723 22.0439 1.39687 22.0439 1.08145C21.9999 0.720964 21.7359 0.450602 21.3839 0.450602ZM26.3999 4.1906C25.5199 4.14554 24.7279 4.55108 24.1999 5.27205V4.91157C24.1999 4.55108 23.9359 4.23566 23.5399 4.23566C23.1439 4.23566 22.8799 4.55108 22.8799 4.91157V11.8508C22.8799 12.2113 23.1439 12.5267 23.5399 12.5267C23.9359 12.5267 24.1999 12.2564 24.1999 11.8508V8.02072C24.1999 6.39855 25.0359 5.45229 26.3999 5.45229C26.7519 5.45229 27.0159 5.18193 27.0159 4.82145C27.0159 4.46096 26.7079 4.1906 26.3999 4.1906ZM34.1879 7.61518C34.1879 6.84916 33.9679 6.08313 33.5719 5.45229C32.9559 4.59614 31.9439 4.10048 30.8879 4.1906C28.6439 4.1906 27.3679 5.72265 27.3679 8.3812C27.3679 11.1299 28.6439 12.6169 31.0639 12.6169C32.0319 12.6619 32.9999 12.3014 33.7479 11.6255C33.8799 11.5354 33.9679 11.3552 33.9679 11.1749C33.9679 10.8595 33.7039 10.5892 33.3959 10.5892C33.2639 10.5892 33.1319 10.6342 33.0439 10.7243C32.5159 11.1749 31.8119 11.4453 31.1079 11.4453C29.6559 11.4453 28.7319 10.454 28.6879 8.87687H33.4399C34.1879 8.78675 34.1879 8.06578 34.1879 7.61518ZM30.9319 5.36217C32.2519 5.36217 32.9119 6.12819 32.9559 7.61518H28.6879C28.8199 6.17325 29.6119 5.36217 30.9319 5.36217ZM38.4999 7.7053C37.5319 7.34482 36.7399 7.07446 36.7399 6.35349C36.7399 5.54241 37.6199 5.45229 38.1039 5.45229C38.7639 5.40723 39.4239 5.67759 39.8639 6.12819C40.0839 6.35349 40.4799 6.35349 40.6999 6.12819C40.8319 5.99301 40.8759 5.85783 40.8759 5.67759C40.8759 5.54241 40.8319 5.40723 40.7439 5.27205C40.0839 4.50602 39.1159 4.05542 38.1479 4.14554C36.5199 4.14554 35.5079 5.00169 35.5079 6.30843C35.5079 7.9306 36.9159 8.42627 38.1479 8.87687C39.0719 9.19229 39.9079 9.46265 39.9079 10.1836C39.9079 11.1299 38.8519 11.3101 38.2359 11.3101C37.4879 11.3552 36.7399 11.0398 36.2119 10.499C36.0799 10.3639 35.9479 10.3188 35.7719 10.2737C35.4639 10.2737 35.1999 10.5441 35.1999 10.8595C35.1999 10.9947 35.2439 11.1299 35.3319 11.2651C36.0799 12.1663 37.1359 12.6169 38.2359 12.6169C40.0839 12.6169 41.1839 11.7157 41.1839 10.2737C41.0959 8.60651 39.7319 8.1559 38.4999 7.7053ZM46.1119 4.14554C45.3199 4.10048 44.5279 4.46096 43.9999 5.09181V0.675904C43.9999 0.315422 43.7359 0 43.3399 0C42.9879 0 42.7239 0.270361 42.7239 0.675904V11.8508C42.7239 12.2113 42.9879 12.5267 43.3399 12.5267C43.6919 12.5267 43.9999 12.2564 43.9999 11.8508V7.66024C43.9999 6.12819 44.7039 5.36217 46.1119 5.36217C47.5199 5.36217 48.0039 5.99301 48.0039 7.52506V11.8508C48.0039 12.2113 48.2679 12.5267 48.6639 12.5267C49.0159 12.5267 49.2799 12.2564 49.2799 11.8508V7.29976C49.2799 5.22699 48.2239 4.14554 46.1119 4.14554ZM59.9279 4.28072C59.6639 4.28072 59.3999 4.46096 59.3119 4.73133L57.4639 10.0484L55.9679 4.73133C55.8359 4.37084 55.4839 4.23566 55.1319 4.32578C54.9559 4.37084 54.8239 4.55108 54.7359 4.73133L53.2399 10.0484L51.4799 4.68626C51.3919 4.4159 51.1719 4.23566 50.8639 4.28072C50.5119 4.28072 50.2479 4.55108 50.2479 4.91157C50.2479 5.00169 50.2479 5.09181 50.2919 5.18193L52.7559 12.0761C52.8439 12.3465 53.0639 12.5267 53.3719 12.5267C53.6359 12.5267 53.8999 12.3465 53.9879 12.0761L55.4399 7.0294L56.8919 12.0761C56.9799 12.3465 57.2439 12.5267 57.5079 12.5267C57.7719 12.5267 58.0359 12.3465 58.1239 12.0761L60.5879 5.18193C60.6319 5.09181 60.6319 5.00169 60.6319 4.91157C60.5439 4.55108 60.2799 4.28072 59.9279 4.28072ZM64.5919 4.14554C62.2599 4.14554 60.9839 5.63253 60.9839 8.33614C60.9839 11.0398 62.2599 12.5718 64.5919 12.5718C66.9239 12.5718 68.1999 11.0848 68.1999 8.33614C68.1999 5.58747 66.9239 4.14554 64.5919 4.14554ZM64.5919 11.3552C63.0519 11.3552 62.2599 10.3639 62.2599 8.33614C62.2599 6.30843 63.0519 5.31711 64.5919 5.31711C66.1319 5.31711 66.8799 6.35349 66.8799 8.33614C66.8799 10.3188 66.1319 11.4002 64.5919 11.3552ZM73.1279 4.1906C72.2479 4.14554 71.4559 4.55108 70.9279 5.27205V4.91157C70.9279 4.55108 70.6639 4.23566 70.3119 4.23566C69.9599 4.23566 69.6519 4.50602 69.6519 4.86651V11.8058C69.6519 12.1663 69.9159 12.4817 70.2679 12.4817C70.6199 12.4817 70.9279 12.2113 70.9279 11.8508V8.02072C70.9279 6.39855 71.7639 5.45229 73.1279 5.45229C73.4799 5.45229 73.7439 5.18193 73.7439 4.82145C73.7439 4.46096 73.4799 4.1906 73.1279 4.1906ZM78.0119 7.61518L80.6519 5.45229C80.8279 5.31711 80.9159 5.13687 80.9159 4.91157C80.9159 4.55108 80.6519 4.28072 80.2999 4.28072C80.1239 4.28072 79.9919 4.32578 79.8599 4.46096L76.0759 7.61518V0.675904C76.0759 0.315422 75.8119 0 75.4599 0C75.1079 0 74.7999 0.270361 74.7999 0.630843V11.8058C74.7999 12.1663 75.0639 12.4817 75.4159 12.4817C75.7679 12.4817 76.0759 12.2113 76.0759 11.8508V9.14723L76.9559 8.42627L79.8599 12.2113C79.9919 12.3916 80.2119 12.5267 80.3879 12.5267C80.7399 12.5267 81.0039 12.2564 81.0039 11.8959C81.0039 11.7607 80.9599 11.5805 80.8719 11.4904L78.0119 7.61518ZM85.2279 7.7053C84.2599 7.34482 83.4679 7.07446 83.4679 6.35349C83.4679 5.54241 84.3479 5.45229 84.8319 5.45229C85.4919 5.40723 86.1519 5.67759 86.5919 6.12819C86.7239 6.26337 86.8559 6.30843 87.0319 6.30843C87.3399 6.26337 87.5599 5.99301 87.5599 5.67759C87.5599 5.54241 87.5159 5.40723 87.4279 5.27205C86.7679 4.50602 85.7999 4.05542 84.8319 4.14554C83.2039 4.14554 82.1919 5.00169 82.1919 6.30843C82.1919 7.9306 83.5999 8.42627 84.8319 8.87687C85.7559 9.19229 86.5919 9.46265 86.5919 10.1836C86.5919 11.1299 85.5359 11.3101 84.9199 11.3101C84.1719 11.3552 83.4239 11.0398 82.8959 10.499C82.7639 10.3639 82.6319 10.3188 82.4559 10.2737C82.1479 10.2737 81.8839 10.5441 81.8839 10.8595C81.8839 10.9947 81.9279 11.1299 82.0159 11.2651C82.7639 12.1212 83.8199 12.5718 84.9639 12.5267C86.8119 12.5267 87.9119 11.6255 87.9119 10.1836C87.8239 8.60651 86.4599 8.1559 85.2279 7.7053Z" fill="#4D4D4D"/>
<path d="M0.0880127 11.4905C0.308013 13.1126 1.05601 14.5996 2.20001 15.7712L4.75201 13.1577C4.75201 10.409 6.16001 7.88564 8.49201 6.48877L0.0880127 11.4905Z" fill="#9B65C3"/>
<path d="M4.75201 13.1575C3.43201 13.1575 2.15601 12.797 1.01201 12.1211C0.704013 11.9408 0.396013 11.7155 0.0880127 11.4902C0.308013 13.1124 1.05601 14.5994 2.20001 15.771L4.75201 13.1575Z" fill="#9B65C3"/>
<path d="M4.75195 13.1575L2.19995 15.771C3.34395 16.9426 4.79595 17.7086 6.37995 17.9339L11.22 9.32739C9.89995 11.6705 7.43595 13.1575 4.75195 13.1575Z" fill="#BE63C5"/>
<path d="M5.76395 16.9878C5.10395 15.8163 4.75195 14.5095 4.75195 13.1577L2.19995 15.7712C3.34395 16.9428 4.79595 17.7088 6.37995 17.9341C6.15995 17.6187 5.93995 17.3033 5.76395 16.9878Z" fill="#BF63C6"/>
<path d="M14.3 3.06396L8.492 6.48854C6.16 7.84035 3.344 7.84035 1.012 6.48854C0.352 7.66011 0 9.01192 0 10.3637C0 10.7242 0.044 11.1297 0.088 11.4902C0.396 11.7155 0.704 11.9408 1.012 12.1211C2.156 12.797 3.432 13.1575 4.752 13.1575L14.432 3.24421C14.388 3.19915 14.344 3.15409 14.3 3.06396Z" fill="#3278B1"/>
<path d="M1.01201 12.1213C2.15601 12.7972 3.43201 13.1577 4.75201 13.1577C4.75201 10.409 6.16001 7.88564 8.49201 6.48877L0.0880127 11.4454C0.396013 11.7158 0.704013 11.9411 1.01201 12.1213Z" fill="#3278B2"/>
<path d="M1.012 6.48877C0.352 7.66034 0 9.01214 0 10.364C0 10.7244 0.044 11.13 0.088 11.4905L8.492 6.48877C6.204 7.88564 3.344 7.88564 1.012 6.48877Z" fill="#45A4EC"/>
<path d="M14.432 3.24447C14.3 3.10929 14.212 3.01917 14.08 2.92905C13.816 2.74881 13.464 2.65869 13.156 2.65869H7.47996C4.79596 2.65869 2.33196 4.14568 1.01196 6.48881C3.34396 7.84062 6.15996 7.84062 8.49196 6.48881C6.15996 7.84062 4.75196 10.4091 4.75196 13.1577C7.43596 13.1577 9.89996 11.7158 11.264 9.32761L14.608 3.37966C14.52 3.33459 14.476 3.28953 14.432 3.24447Z" fill="#19BB7D"/>
<path d="M8.49196 6.48861L14.3 3.06403C14.212 3.01897 14.168 2.92885 14.08 2.88379L1.01196 6.48861C3.34396 7.88547 6.20396 7.88547 8.49196 6.48861Z" fill="#08C7FB"/>
<path d="M13.112 2.65869H7.47996C4.79596 2.65869 2.33196 4.14568 1.01196 6.48881L14.08 2.88399C13.772 2.74881 13.464 2.65869 13.112 2.65869Z" fill="#59F2F6"/>
<path d="M11.264 9.32741L14.608 3.37946C14.564 3.3344 14.52 3.28934 14.476 3.19922L4.79602 13.1125C4.79602 14.4643 5.14802 15.771 5.80802 16.9426C5.98402 17.258 6.20402 17.5734 6.42402 17.8889C6.77602 17.9339 7.12802 17.979 7.48002 17.979C8.80002 17.979 10.076 17.6185 11.22 16.9426C9.90002 14.5995 9.90002 11.6705 11.264 9.32741Z" fill="#DA3757"/>
<path d="M4.75195 13.1575C4.75195 14.5093 5.10395 15.8161 5.76395 16.9876C5.93995 17.3031 6.15995 17.6185 6.37995 17.9339L11.22 9.32739C9.89995 11.6705 7.43595 13.1575 4.75195 13.1575Z" fill="#D33C4E"/>
<path d="M11.2641 9.32739L6.42407 17.9339C6.77607 17.979 7.12807 18.024 7.52407 18.024C8.84407 18.024 10.1201 17.6635 11.2641 16.9876C9.90007 14.5994 9.90007 11.6705 11.2641 9.32739Z" fill="#EE5A24"/>
<path d="M14.74 3.60469C14.608 3.37939 14.476 3.19915 14.3 3.06396L8.49195 6.48854C6.15995 7.84035 4.75195 10.4088 4.75195 13.1575C7.43595 13.1575 9.89995 11.7155 11.264 9.32734C9.94395 11.7155 9.94395 14.5994 11.264 16.9876C13.552 15.6358 15.004 13.1124 15.004 10.4088V4.59601C15.004 4.23553 14.916 3.92011 14.74 3.60469Z" fill="#8BDF55"/>
<path d="M14.3 3.06396L8.49195 6.48854C6.15995 7.84035 4.75195 10.4088 4.75195 13.1575L14.432 3.24421C14.388 3.19915 14.344 3.10903 14.3 3.06396Z" fill="#25C16F"/>
<path d="M4.75195 13.1575C7.43595 13.1575 9.89995 11.7156 11.264 9.32741L14.608 3.37946C14.564 3.3344 14.52 3.28934 14.476 3.19922L4.75195 13.1575Z" fill="#8BDF55"/>
<path d="M14.608 3.37964L11.264 9.32759C9.94405 11.7158 9.94405 14.5996 11.264 16.9878L14.784 3.60494C14.696 3.51482 14.6521 3.46976 14.608 3.37964Z" fill="#FFBB00"/>
<path d="M11.264 16.9876C13.596 15.6358 15.004 13.1124 15.004 10.3638V4.59606C15.004 4.23558 14.916 3.92016 14.74 3.60474L11.264 16.9876Z" fill="#FFA800"/>
</g>
<defs>
<clipPath id="clip0">
<rect width="88" height="18.0241" fill="white"/>
</clipPath>
</defs>
</svg>
