<svg width="480" height="480" viewBox="0 0 480 480" fill="none" xmlns="http://www.w3.org/2000/svg">
<mask id="mask0" mask-type="alpha" maskUnits="userSpaceOnUse" x="0" y="0" width="480" height="480">
<circle cx="240" cy="240" r="240" fill="#FAEFD9"/>
</mask>
<g mask="url(#mask0)">
<path d="M255.333 357.851C253.848 353.017 251.967 348.315 249.709 343.791C247.375 339.123 245.815 335.776 242.679 332.543C241.57 331.441 240.391 330.413 239.15 329.463C239.15 329.463 233.526 324.795 227.902 319.185C223.037 314.25 225.61 313.997 216.654 299.501C214.559 296.099 211.972 291.613 206.812 282.629C206.812 282.629 206.587 282.249 205.406 279.817C204.225 277.385 204 276.611 204 275.599C204.027 274.843 204.271 274.111 204.703 273.49C206.193 271.62 210.51 272.478 213.139 273.49C217.708 275.233 219.143 278.355 225.09 285.441C230.433 291.796 233.203 295.086 234.229 294.58C236.816 293.287 227.199 268.513 222.981 258.024C217.751 244.863 213.054 234.122 209.624 226.388C208.928 224.889 208.832 223.18 209.355 221.612C209.878 220.044 210.98 218.735 212.436 217.952C213.613 217.45 214.914 217.316 216.169 217.567C217.423 217.817 218.573 218.442 219.466 219.358C224.846 229.903 230.236 240.449 235.635 250.994C235.635 250.994 241.751 266.558 244.071 266.46C244.957 266.094 237.997 246.227 232.823 232.716C229.941 225.151 225.54 214.226 219.466 201.08C219.135 199.497 219.319 197.849 219.991 196.378C220.664 194.907 221.789 193.689 223.203 192.904C224.617 192.118 226.246 191.806 227.85 192.012C229.454 192.218 230.951 192.932 232.12 194.05C237.408 203.595 242.103 213.455 246.18 223.576C254.321 243.781 257.26 258.221 258.131 258.024C259.003 257.827 256.444 240.42 251.101 221.467C248.289 211.625 245.477 203.681 243.368 198.268C243.089 196.853 243.321 195.385 244.023 194.125C244.726 192.865 245.853 191.895 247.203 191.389C248.554 190.882 250.04 190.872 251.398 191.359C252.756 191.847 253.896 192.8 254.616 194.05C259.101 202.627 262.863 211.563 265.864 220.764C271.488 237.988 272.768 251.106 273.597 250.994C274.427 250.881 273.597 237.426 271.488 223.576C270.082 214.69 268.494 207.421 267.27 202.486C267.154 201.215 267.53 199.947 268.321 198.945C269.113 197.943 270.259 197.284 271.523 197.103C272.787 196.923 274.072 197.235 275.112 197.975C276.153 198.715 276.869 199.827 277.112 201.08C278.884 208.476 280.304 214.719 281.331 219.358C284.986 235.907 286.828 244.189 287.658 250.994C287.96 254.022 288.429 257.03 289.064 260.006C290.709 267.486 292.818 270.833 294.688 286.144C295.939 296.422 295.827 301.301 297.5 311.452C299.07 321.002 301.421 330.407 304.53 339.573L255.333 357.851Z" fill="#E5D6C6"/>
<path d="M223.684 205.298L220.872 199.674C221.619 197.811 223.075 196.32 224.92 195.529C226.766 194.738 228.849 194.712 230.714 195.456L233.526 201.08C232.276 202.233 230.853 203.182 229.308 203.892C227.533 204.695 225.628 205.171 223.684 205.298Z" fill="#F5EEE7"/>
<path d="M212.141 229.201L209.624 224.195C210.341 222.521 211.69 221.197 213.378 220.511C214.988 219.889 216.773 219.889 218.383 220.511C219.213 222.185 220.042 223.844 220.886 225.517C219.772 226.541 218.506 227.385 217.132 228.02C215.551 228.707 213.861 229.106 212.141 229.201Z" fill="#F5EEE7"/>
<path d="M206.812 282.629C206.29 281.719 205.821 280.78 205.406 279.817C204.817 278.454 204.347 277.043 204 275.599C204.368 275.04 204.847 274.561 205.406 274.193C206.233 273.708 207.158 273.412 208.113 273.327C209.069 273.242 210.031 273.37 210.931 273.701L213.842 278.805C212.434 279.728 210.979 280.578 209.483 281.35C208.583 281.828 207.683 282.249 206.812 282.629Z" fill="#F5EEE7"/>
<path d="M247.291 202.486L244.774 197.481C245.492 195.807 246.841 194.483 248.528 193.797C250.139 193.175 251.923 193.175 253.534 193.797C254.363 195.47 255.193 197.129 256.036 198.803C254.922 199.827 253.656 200.671 252.282 201.305C250.702 201.992 249.012 202.392 247.291 202.486Z" fill="#F5EEE7"/>
<path d="M269.562 204.933L268.676 200.602C269.571 199.463 270.88 198.724 272.318 198.549C273.671 198.41 275.027 198.787 276.114 199.604L276.958 203.934C275.899 204.478 274.76 204.848 273.583 205.031C272.248 205.24 270.886 205.207 269.562 204.933Z" fill="#F5EEE7"/>
<path d="M277.816 339.32C268.817 342.132 252.976 349.396 246.18 352.677L284.143 479.921L357.958 452.504L308.045 332.29C301.718 333.461 286.814 336.508 277.816 339.32Z" fill="#0C3559"/>
<path d="M366.546 271.164C361.491 271.082 356.437 271.418 351.436 272.168C346.276 272.945 342.611 273.395 338.566 275.378C337.176 276.092 335.834 276.896 334.547 277.783C334.547 277.783 328.37 281.689 321.297 285.304C315.1 288.406 315.654 285.88 299.1 289.919C295.216 290.86 290.151 291.934 280.012 294.066C280.012 294.066 279.582 294.162 276.903 294.534C274.225 294.905 273.42 294.88 272.457 294.568C271.747 294.308 271.126 293.849 270.669 293.247C269.351 291.252 271.5 287.412 273.275 285.224C276.346 281.417 279.757 281.017 288.335 277.551C296.03 274.433 300.015 272.816 299.851 271.683C299.42 268.823 272.887 270.314 261.608 271.084C247.475 271.992 235.808 273.139 227.393 274.012C225.752 274.21 224.097 273.773 222.768 272.791C221.438 271.81 220.533 270.357 220.239 268.731C220.125 267.456 220.399 266.177 221.025 265.061C221.652 263.945 222.601 263.045 223.748 262.479C235.44 260.621 247.135 258.753 258.832 256.877C258.832 256.877 275.525 255.87 276.148 253.633C276.074 252.678 255.029 253.158 240.579 253.903C232.495 254.307 220.745 255.116 206.365 256.831C204.757 256.656 203.247 255.972 202.055 254.878C200.864 253.784 200.054 252.337 199.744 250.75C199.434 249.162 199.64 247.517 200.331 246.055C201.023 244.593 202.165 243.39 203.589 242.624C214.301 240.544 225.13 239.125 236.015 238.376C257.746 236.877 272.388 238.544 272.47 237.654C272.552 236.764 255.207 233.819 235.53 233.044C225.301 232.677 216.877 232.896 211.077 233.229C209.644 233.058 208.32 232.383 207.338 231.326C206.357 230.269 205.783 228.897 205.719 227.456C205.655 226.015 206.104 224.598 206.987 223.457C207.87 222.317 209.13 221.527 210.541 221.228C220.084 219.614 229.745 218.797 239.424 218.786C257.542 218.76 270.414 221.596 270.563 220.773C270.712 219.949 257.659 216.58 243.836 214.306C234.95 212.897 227.546 212.162 222.475 211.8C221.229 211.519 220.14 210.769 219.432 209.707C218.723 208.644 218.45 207.351 218.669 206.093C218.888 204.835 219.582 203.709 220.607 202.948C221.633 202.188 222.911 201.85 224.179 202.006C231.76 202.606 238.136 203.185 242.866 203.642C259.734 205.279 268.179 206.087 274.908 207.401C277.881 208.049 280.887 208.532 283.914 208.849C291.536 209.595 295.37 208.624 310.51 211.577C320.672 213.563 325.277 215.177 335.449 216.723C345.017 218.18 354.688 218.851 364.365 218.727L366.546 271.164Z" fill="#694827"/>
<path d="M211.68 254.123L205.463 255.059C203.921 253.773 202.954 251.927 202.772 249.928C202.59 247.928 203.209 245.939 204.492 244.395L210.71 243.459C211.42 245.004 211.883 246.651 212.081 248.339C212.296 250.275 212.161 252.235 211.68 254.123Z" fill="#88613A"/>
<path d="M230.845 272.487L225.307 273.334C223.937 272.134 223.095 270.442 222.964 268.626C222.87 266.902 223.421 265.205 224.511 263.865C226.358 263.593 228.192 263.317 230.044 263.032C230.674 264.408 231.086 265.873 231.265 267.375C231.429 269.091 231.288 270.822 230.845 272.487Z" fill="#88613A"/>
<path d="M280.012 294.065C278.986 294.28 277.948 294.437 276.903 294.534C275.425 294.672 273.938 294.683 272.457 294.567C272.039 294.044 271.732 293.441 271.555 292.796C271.349 291.859 271.354 290.888 271.568 289.953C271.782 289.018 272.201 288.142 272.794 287.388L278.548 286.198C278.991 287.822 279.349 289.468 279.621 291.129C279.798 292.133 279.921 293.119 280.012 294.065Z" fill="#88613A"/>
<path d="M216.301 230.802L210.762 231.649C209.392 230.449 208.55 228.757 208.419 226.941C208.325 225.217 208.876 223.52 209.966 222.18C211.813 221.908 213.648 221.632 215.5 221.347C216.129 222.722 216.541 224.188 216.72 225.69C216.885 227.406 216.743 229.137 216.301 230.802Z" fill="#88613A"/>
<path d="M225.509 210.377L221.117 209.881C220.31 208.678 220.012 207.205 220.29 205.783C220.576 204.453 221.353 203.28 222.466 202.499L226.845 203.035C227.035 204.21 227.035 205.408 226.846 206.583C226.632 207.917 226.179 209.203 225.509 210.377Z" fill="#88613A"/>
<path d="M355.869 244.055C355.763 253.482 357.777 270.793 358.797 278.27L491.545 281.486L488.279 202.811L358.525 213.133C357.684 219.512 355.976 234.628 355.869 244.055Z" fill="#0C3559"/>
<path d="M296.097 133.08C294.457 137.863 293.215 142.774 292.383 147.761C291.527 152.909 290.823 156.534 291.459 160.993C291.709 162.536 292.058 164.061 292.504 165.558C292.504 165.558 294.31 172.641 295.562 180.485C296.597 187.337 294.367 186.029 293.092 203.021C292.787 207.005 292.244 212.155 291.138 222.456C291.138 222.456 291.096 222.896 290.622 225.558C290.148 228.22 289.875 228.978 289.28 229.797C288.814 230.392 288.186 230.841 287.472 231.09C285.167 231.726 282.179 228.495 280.647 226.131C277.975 222.035 278.649 218.666 278.003 209.438C277.416 201.156 277.109 196.866 275.981 196.672C273.128 196.198 266.347 221.893 263.594 232.858C260.09 246.58 257.575 258.03 255.805 266.303C255.486 267.925 254.56 269.364 253.215 270.325C251.871 271.286 250.209 271.698 248.572 271.475C247.324 271.19 246.192 270.534 245.325 269.593C244.457 268.653 243.895 267.472 243.711 266.205C245.556 254.512 247.394 242.813 249.224 231.108C249.224 231.108 253.425 214.921 251.49 213.637C250.559 213.412 244.512 233.576 240.756 247.548C238.641 255.362 235.78 266.787 232.967 280.993C232.304 282.468 231.187 283.693 229.778 284.488C228.369 285.283 226.743 285.606 225.137 285.411C223.532 285.215 222.031 284.511 220.854 283.401C219.677 282.291 218.886 280.834 218.597 279.242C219.929 268.413 221.927 257.675 224.578 247.091C229.867 225.96 235.977 212.551 235.157 212.197C234.336 211.844 226.175 227.431 219.357 245.904C215.847 255.52 213.452 263.599 211.977 269.218C211.371 270.527 210.32 271.579 209.011 272.185C207.702 272.792 206.221 272.914 204.83 272.53C203.44 272.146 202.231 271.28 201.419 270.088C200.607 268.896 200.245 267.454 200.397 266.019C201.811 256.444 204.019 247.004 207 237.796C212.574 220.556 219.249 209.191 218.512 208.794C217.775 208.398 210.537 219.771 204.103 232.215C200.017 240.23 197.03 247.045 195.119 251.756C194.466 252.854 193.416 253.658 192.187 254.004C190.958 254.349 189.643 254.209 188.514 253.612C187.386 253.015 186.53 252.007 186.123 250.797C185.716 249.586 185.79 248.266 186.33 247.109C189.244 240.084 191.764 234.199 193.661 229.842C200.431 214.305 203.808 206.523 207.137 200.53C208.672 197.903 210.061 195.193 211.297 192.412C214.363 185.394 214.623 181.447 222.11 167.96C227.139 158.91 230.098 155.029 234.711 145.833C239.054 137.184 242.68 128.193 245.553 118.951L296.097 133.08Z" fill="#CFB293"/>
<path d="M232.034 275.101L231.003 281.304C229.303 282.372 227.249 282.722 225.291 282.277C223.333 281.833 221.632 280.629 220.561 278.931L221.592 272.728C223.28 272.531 224.99 272.599 226.657 272.933C228.565 273.326 230.386 274.061 232.034 275.101Z" fill="#E5D6C6"/>
<path d="M255.422 262.549L254.516 268.078C252.951 269.011 251.082 269.289 249.313 268.852C247.645 268.408 246.201 267.359 245.264 265.909C245.576 264.068 245.88 262.238 246.181 260.389C247.684 260.215 249.205 260.277 250.689 260.571C252.372 260.944 253.974 261.614 255.422 262.549Z" fill="#E5D6C6"/>
<path d="M291.137 222.456C291.025 223.499 290.852 224.535 290.622 225.558C290.297 227.007 289.848 228.425 289.28 229.797C288.653 230.033 287.985 230.138 287.316 230.108C286.361 230.014 285.44 229.709 284.617 229.217C283.794 228.724 283.09 228.055 282.556 227.258L283.202 221.418C284.883 221.499 286.56 221.666 288.224 221.921C289.233 222.064 290.209 222.251 291.137 222.456Z" fill="#E5D6C6"/>
<path d="M211.282 263.5L210.376 269.029C208.811 269.962 206.942 270.24 205.174 269.803C203.505 269.359 202.061 268.31 201.124 266.861C201.437 265.019 201.741 263.19 202.042 261.34C203.545 261.166 205.066 261.228 206.55 261.522C208.232 261.895 209.835 262.565 211.282 263.5Z" fill="#E5D6C6"/>
<path d="M194.703 248.43L192.874 252.454C191.481 252.85 189.987 252.678 188.721 251.974C187.545 251.292 186.669 250.19 186.27 248.89L188.133 244.89C189.309 245.073 190.448 245.443 191.507 245.987C192.711 246.602 193.793 247.43 194.703 248.43Z" fill="#E5D6C6"/>
<path d="M267.016 134.858C275.949 137.872 293.035 141.306 300.461 142.647L344.541 17.39L268.707 -3.81677L238.428 122.777C244.235 125.548 258.083 131.844 267.016 134.858Z" fill="#0C3559"/>
<path d="M146.777 162.932C150.819 165.97 155.105 168.669 159.591 171.002C164.223 173.406 167.452 175.196 171.89 175.969C173.434 176.208 174.993 176.347 176.555 176.386C176.555 176.386 183.849 176.857 191.696 178.09C198.532 179.223 196.6 180.94 212.366 187.403C216.061 188.924 220.79 191.032 230.246 195.268C230.246 195.268 230.651 195.443 233.036 196.716C235.421 197.99 236.058 198.483 236.653 199.302C237.075 199.93 237.308 200.666 237.324 201.422C237.217 203.811 233.221 205.654 230.499 206.381C225.777 207.656 222.782 205.974 213.805 203.737C205.747 201.736 201.573 200.702 201.04 201.715C199.707 204.282 222.049 218.672 231.627 224.678C243.594 232.25 253.707 238.181 261.028 242.42C262.472 243.225 263.554 244.551 264.053 246.126C264.552 247.702 264.43 249.409 263.712 250.898C263.055 251.996 262.081 252.87 260.919 253.404C259.756 253.939 258.459 254.109 257.198 253.893C246.647 248.524 236.088 243.161 225.522 237.803C225.522 237.803 211.425 228.806 209.606 230.25C209.104 231.066 226.413 243.048 238.541 250.938C245.319 255.363 255.3 261.615 267.941 268.68C269.14 269.766 269.96 271.208 270.28 272.793C270.601 274.379 270.406 276.025 269.724 277.492C269.041 278.958 267.908 280.168 266.489 280.945C265.069 281.721 263.439 282.022 261.836 281.806C251.948 277.192 242.353 271.975 233.106 266.183C214.644 254.622 203.779 244.667 203.19 245.339C202.6 246.01 214.902 258.588 230.365 270.781C238.425 277.091 245.369 281.865 250.257 285.005C251.315 285.985 251.99 287.31 252.162 288.742C252.335 290.174 251.993 291.621 251.198 292.824C250.403 294.028 249.206 294.91 247.822 295.314C246.437 295.718 244.954 295.616 243.636 295.028C234.967 290.725 226.671 285.708 218.834 280.028C204.16 269.399 195.415 259.538 194.81 260.117C194.205 260.696 202.785 271.094 212.631 281.058C218.992 287.421 224.55 292.368 228.44 295.641C229.282 296.601 229.723 297.848 229.672 299.124C229.62 300.4 229.08 301.607 228.164 302.496C227.248 303.385 226.025 303.888 224.748 303.9C223.471 303.913 222.238 303.435 221.304 302.564C215.524 297.622 210.706 293.406 207.148 290.256C194.464 279.016 188.106 273.399 183.435 268.381C181.411 266.109 179.262 263.951 177 261.917C171.272 256.832 167.599 255.364 157.086 244.076C150.033 236.497 147.256 232.484 139.936 225.254C133.052 218.451 125.621 212.225 117.72 206.637L146.777 162.932Z" fill="#AA8053"/>
<path d="M262.05 267.747L267.63 270.644C268.121 272.59 267.819 274.652 266.791 276.377C265.763 278.101 264.093 279.347 262.147 279.841L256.567 276.944C256.9 275.277 257.494 273.673 258.326 272.19C259.29 270.497 260.551 268.992 262.05 267.747Z" fill="#BF9972"/>
<path d="M257.339 241.624L262.317 244.195C262.721 245.971 262.408 247.835 261.445 249.381C260.508 250.831 259.065 251.88 257.396 252.323C255.741 251.457 254.095 250.603 252.429 249.745C252.728 248.262 253.257 246.834 253.995 245.514C254.87 244.029 256.002 242.712 257.339 241.624Z" fill="#BF9972"/>
<path d="M230.246 195.267C231.203 195.696 232.135 196.18 233.036 196.716C234.314 197.472 235.524 198.338 236.653 199.302C236.684 199.971 236.578 200.639 236.342 201.266C235.958 202.144 235.383 202.927 234.66 203.557C233.937 204.188 233.084 204.65 232.161 204.912L226.806 202.493C227.402 200.919 228.08 199.376 228.837 197.872C229.284 196.957 229.764 196.087 230.246 195.267Z" fill="#BF9972"/>
<path d="M244.604 283.897L249.582 286.468C249.986 288.244 249.673 290.108 248.71 291.654C247.773 293.104 246.329 294.153 244.661 294.596C243.006 293.73 241.36 292.876 239.694 292.018C239.993 290.535 240.522 289.107 241.26 287.787C242.135 286.302 243.267 284.985 244.604 283.897Z" fill="#BF9972"/>
<path d="M225.149 295.009L228.411 297.992C228.357 299.439 227.731 300.806 226.671 301.793C225.658 302.701 224.34 303.193 222.98 303.171L219.752 300.163C220.289 299.101 220.993 298.132 221.837 297.293C222.795 296.339 223.917 295.565 225.149 295.009Z" fill="#BF9972"/>
<path d="M139.48 191.139C145.108 183.575 153.653 168.386 157.223 161.738L51.7183 81.1088L8.1156 146.678L119.157 214.595C123.587 209.928 133.853 198.703 139.48 191.139Z" fill="#0C3559"/>
<path d="M131.959 297.381C136.097 294.475 139.988 291.233 143.593 287.687C147.311 284.025 150.011 281.506 152.118 277.525C152.822 276.13 153.436 274.691 153.956 273.217C153.956 273.217 156.658 266.426 160.255 259.344C163.445 253.192 164.481 255.561 175.5 242.563C178.089 239.519 181.555 235.673 188.505 227.989C188.505 227.989 188.796 227.658 190.745 225.783C192.693 223.908 193.359 223.455 194.322 223.142C195.049 222.935 195.821 222.941 196.545 223.159C198.784 223.999 199.302 228.369 199.152 231.182C198.906 236.067 196.38 238.395 191.479 246.242C187.086 253.287 184.813 256.938 185.611 257.758C187.641 259.818 208.23 243.016 216.902 235.763C227.802 226.722 236.567 218.937 242.862 213.284C244.073 212.159 245.668 211.54 247.321 211.553C248.974 211.565 250.56 212.209 251.754 213.352C252.595 214.316 253.125 215.512 253.275 216.783C253.424 218.053 253.185 219.34 252.589 220.472C244.223 228.848 235.859 237.232 227.499 245.626C227.499 245.626 214.586 256.252 215.397 258.428C216.018 259.158 232.762 246.399 244.013 237.303C250.317 232.224 259.347 224.663 269.973 214.824C271.376 214.02 273 213.686 274.607 213.871C276.214 214.055 277.72 214.75 278.904 215.852C280.088 216.954 280.888 218.406 281.188 219.995C281.488 221.585 281.271 223.229 280.569 224.686C273.126 232.665 265.199 240.178 256.833 247.182C240.133 261.168 227.308 268.425 227.765 269.193C228.221 269.962 243.985 262.149 260.359 251.211C268.851 245.495 275.537 240.366 280.033 236.687C281.293 235.984 282.761 235.751 284.177 236.03C285.592 236.309 286.862 237.081 287.761 238.209C288.66 239.337 289.13 240.747 289.086 242.189C289.042 243.631 288.487 245.01 287.521 246.081C280.749 252.997 273.414 259.336 265.59 265.034C250.947 275.705 238.867 280.976 239.23 281.73C239.593 282.484 252.134 277.537 264.654 271.252C272.67 267.169 279.092 263.411 283.408 260.723C284.581 260.219 285.903 260.185 287.1 260.628C288.298 261.071 289.279 261.958 289.842 263.104C290.404 264.25 290.504 265.569 290.122 266.787C289.739 268.005 288.903 269.03 287.787 269.649C281.3 273.619 275.802 276.899 271.706 279.309C257.097 287.899 249.79 292.21 243.575 295.102C240.788 296.325 238.072 297.701 235.438 299.224C228.832 303.1 226.301 306.14 212.317 312.65C202.929 317.016 198.254 318.417 189.116 323.145C180.519 327.59 172.301 332.732 164.545 338.521L131.959 297.381Z" fill="#88613A"/>
<path d="M267.265 220.139L271.745 215.727C273.748 215.861 275.615 216.786 276.938 218.296C278.26 219.807 278.929 221.78 278.798 223.783L274.318 228.196C272.835 227.363 271.493 226.303 270.34 225.053C269.028 223.613 267.986 221.949 267.265 220.139Z" fill="#AA8053"/>
<path d="M240.965 216.547L244.948 212.606C246.762 212.771 248.438 213.645 249.612 215.038C250.701 216.378 251.252 218.075 251.158 219.799C249.823 221.105 248.502 222.406 247.171 223.726C245.853 222.983 244.659 222.039 243.631 220.929C242.489 219.638 241.587 218.154 240.965 216.547Z" fill="#AA8053"/>
<path d="M188.505 227.989C189.209 227.211 189.957 226.475 190.745 225.783C191.859 224.802 193.056 223.918 194.322 223.142C194.968 223.32 195.57 223.627 196.094 224.045C196.811 224.682 197.377 225.47 197.754 226.352C198.13 227.235 198.306 228.189 198.269 229.148L194.315 233.493C193.001 232.44 191.744 231.318 190.547 230.134C189.815 229.426 189.135 228.701 188.505 227.989Z" fill="#AA8053"/>
<path d="M277.234 241.721L281.217 237.781C283.031 237.946 284.707 238.82 285.88 240.213C286.97 241.552 287.521 243.25 287.427 244.973C286.092 246.279 284.771 247.581 283.44 248.9C282.122 248.157 280.928 247.214 279.9 246.103C278.758 244.813 277.855 243.329 277.234 241.721Z" fill="#AA8053"/>
<path d="M281.789 263.659L285.634 261.478C286.994 261.976 288.101 262.994 288.712 264.307C289.262 265.551 289.323 266.957 288.882 268.243L285.024 270.384C284.18 269.545 283.475 268.576 282.938 267.514C282.327 266.308 281.938 265.002 281.789 263.659Z" fill="#AA8053"/>
<path d="M156.531 313.036C151.075 305.347 139.271 292.526 134.051 287.077L24.7658 362.502L73.6515 424.232L172.558 339.614C169.488 333.958 161.986 320.725 156.531 313.036Z" fill="#0C3559"/>
</g>
</svg>
