<svg width="200" height="200" viewBox="0 0 200 200" fill="none" xmlns="http://www.w3.org/2000/svg">
<path d="M191.811 105.777C191.811 157.621 150.383 199.64 99.2891 199.64C48.1956 199.64 6.76731 157.621 6.76731 105.777C6.76731 53.9326 48.1956 11.9136 99.2891 11.9136C150.383 11.9136 191.811 53.9326 191.811 105.777Z" stroke="#E9E9E9" stroke-width="0.722126"/>
<path d="M199.639 97.1128C199.639 148.957 158.211 190.976 107.117 190.976C56.0237 190.976 14.5954 148.957 14.5954 97.1128C14.5954 45.2688 56.0237 3.24973 107.117 3.24973C158.211 3.24973 199.639 45.2688 199.639 97.1128Z" stroke="#E9E9E9" stroke-width="0.722126"/>
<path d="M185.405 94.2242C185.405 146.068 143.976 188.087 92.8829 188.087C41.7894 188.087 0.361063 146.068 0.361063 94.2242C0.361063 42.3801 41.7894 0.361063 92.8829 0.361063C143.976 0.361063 185.405 42.3801 185.405 94.2242Z" stroke="#E9E9E9" stroke-width="0.722126"/>
<path fill-rule="evenodd" clip-rule="evenodd" d="M98.4721 81.6965C98.4721 84.6235 96.0988 86.9975 93.1697 86.9975C90.2405 86.9975 87.8672 84.6235 87.8672 81.6965C87.8672 78.7695 90.2405 76.3955 93.1697 76.3955C96.0988 76.3955 98.4721 78.7695 98.4721 81.6965ZM103.472 81.6965C103.472 87.3856 98.8596 91.9975 93.1697 91.9975C87.4798 91.9975 82.8672 87.3856 82.8672 81.6965C82.8672 76.0074 87.4798 71.3955 93.1697 71.3955C98.8596 71.3955 103.472 76.0074 103.472 81.6965ZM84.8301 100.039H101.837C104.598 100.039 106.837 102.277 106.837 105.039V116.017C106.837 121.54 102.359 126.017 96.8366 126.017H89.8301C84.3073 126.017 79.8301 121.54 79.8301 116.017V105.039C79.8301 102.277 82.0687 100.039 84.8301 100.039ZM74.8301 105.039C74.8301 99.5159 79.3072 95.0388 84.8301 95.0388H101.837C107.359 95.0388 111.837 99.516 111.837 105.039V116.017C111.837 124.302 105.121 131.017 96.8366 131.017H89.8301C81.5458 131.017 74.8301 124.302 74.8301 116.017V105.039Z" fill="#E9E9E9"/>
<path fill-rule="evenodd" clip-rule="evenodd" d="M59.0208 93.8348C59.0208 74.9823 74.3061 59.6988 93.1619 59.6988C112.018 59.6988 127.303 74.9823 127.303 93.8348C127.303 112.687 112.018 127.971 93.1619 127.971C74.3061 127.971 59.0208 112.687 59.0208 93.8348ZM93.1619 56.3655C72.4656 56.3655 55.6875 73.1409 55.6875 93.8348C55.6875 114.529 72.4656 131.304 93.1619 131.304C104.131 131.304 113.999 126.592 120.853 119.082L142.52 140.746C143.822 142.048 145.932 142.048 147.234 140.746C148.536 139.444 148.536 137.334 147.234 136.032L124.925 113.726C128.544 107.962 130.636 101.143 130.636 93.8348C130.636 73.1409 113.858 56.3655 93.1619 56.3655Z" fill="#E9E9E9"/>
</svg>
