<svg width="243" height="400" viewBox="0 0 243 400" fill="none" xmlns="http://www.w3.org/2000/svg">
<path fill-rule="evenodd" clip-rule="evenodd" d="M58.4471 58.7102C53.0891 52.421 49.4627 44.7134 50.0687 36.0769C51.8146 11.1927 86.4544 16.6669 93.1925 29.2263C99.9307 41.7857 99.13 73.6438 90.4215 75.8885C86.9486 76.7837 79.5503 74.5908 72.0205 70.0523L76.7468 103.489H48.8398L58.4471 58.7102Z" fill="#B28B67"/>
<path fill-rule="evenodd" clip-rule="evenodd" d="M37.9018 27.7926C37.0005 26.8994 36.5088 25.6245 36.0835 24.4138C35.6418 23.1563 35.2126 21.8857 34.9193 20.5767C34.3334 17.9614 34.3278 14.9536 36.1936 12.9228C37.6899 11.2943 39.9351 10.5638 42.0072 10.4051C43.3877 10.2992 44.8056 10.4926 46.129 10.9276C47.442 11.3592 48.5738 12.2193 49.8466 12.7532C49.8952 9.93475 50.378 6.98568 51.8078 4.57915C53.1838 2.26368 55.3775 0.964327 57.8758 0.62057C60.44 0.267788 62.9721 0.86783 65.2677 2.10922C65.8424 2.42012 66.4118 2.74582 66.9567 3.11446C67.4129 3.42316 67.8872 3.79491 68.4226 3.92045C69.0194 4.06057 69.3152 3.71589 69.7031 3.28049C70.1578 2.77 70.6701 2.32038 71.2123 1.92178C73.6097 0.159604 76.7552 -0.564934 79.5326 0.491328C80.8123 0.97798 82.0567 1.80445 82.9249 2.94333C83.6988 3.95852 84.2508 5.56889 85.3189 6.27619C85.7722 6.57644 86.0923 6.17865 86.505 5.88464C87.1249 5.44289 87.7161 4.95543 88.3435 4.5257C89.2247 3.92196 90.1788 3.47036 91.2006 3.23398C92.6964 2.88791 94.7635 2.96902 95.1912 4.92812C95.3517 5.664 95.2286 6.45102 95.1767 7.19245C95.1055 8.21053 95.0313 9.22826 94.9429 10.2448C94.8758 11.0167 94.7909 11.7622 94.6452 12.5202C94.5675 12.9242 94.3244 13.6774 94.4976 14.082C94.7142 14.5878 95.7135 14.3003 96.1404 14.3179C96.9836 14.3527 97.8304 14.5006 98.6101 14.8609C99.2144 15.1402 99.8497 15.5509 100.105 16.2435C100.261 16.669 100.22 17.106 100.146 17.5437C100.057 18.069 100.159 18.3476 100.225 18.8776C101.358 18.3199 105.282 17.0809 105.776 19.1105C105.941 19.7864 105.566 20.55 105.281 21.12C104.78 22.1197 104.123 23.0334 103.451 23.9048C102.051 25.7226 100.378 27.2905 98.5794 28.6314C100.687 29.5685 101.237 32.3325 99.4125 33.9793C98.6067 34.7064 97.5232 34.8683 96.5068 34.8218C96.1348 34.8048 95.5985 34.6618 95.3058 34.7266C95.1482 34.7614 94.9796 34.8949 94.7613 34.9098C93.3269 35.0081 91.7076 34.6625 90.3053 34.3442C87.8067 33.777 85.4412 32.5932 83.5095 30.7903C83.014 30.3278 82.6047 30.0616 81.9377 30.0684C81.3532 30.0743 80.7798 30.2346 80.1958 30.2494C78.6508 30.2888 77.2578 29.5335 75.8231 29.0308C75.7352 30.9689 75.1833 33.1036 74.3904 34.8472C73.7439 36.2691 72.3938 36.4758 71.0671 36.6005C66.8246 36.9997 62.5671 36.5542 58.3193 36.5601C62.4313 37.4896 66.6804 37.8727 70.756 38.9664C72.5982 39.4607 71.1914 40.7023 70.4037 41.563C69.1067 42.9804 68.1423 44.7366 67.4734 46.5867C65.4618 43.9646 61.9063 42.2369 58.7564 43.0424C55.2759 43.9323 52.8251 48.639 55.0507 52.0228C56.3428 53.9871 58.6762 54.7454 60.6178 55.5894C59.1031 57.1641 58.7368 59.4899 57.8251 61.449C57.3755 62.4151 56.7444 63.5075 55.7389 63.8442C55.3669 63.9688 54.9306 63.9794 54.6372 64.2827C54.2736 64.6582 54.187 65.0779 53.7228 65.4006C51.8701 66.6887 48.9763 66.5894 47.3342 64.9085C45.8492 63.3884 46.2356 60.9829 47.4758 59.4418C45.5016 58.6189 41.9049 57.5605 42.6895 54.4849C38.4117 54.2008 28.0253 47.263 33.7668 42.1933C30.6158 40.4125 27.721 36.0604 29.745 32.224C31.3035 29.2698 34.928 27.9493 37.9018 27.7926Z" fill="#191847"/>
<rect y="260.465" width="99.9999" height="139.535" rx="12" fill="#FAD897"/>
<path fill-rule="evenodd" clip-rule="evenodd" d="M190.645 224.134C200.223 218.383 216.292 225.772 216.281 233.997C216.248 258.607 193.789 374.593 192.616 381.925C191.443 389.257 178.882 391.194 178.15 381.949C176.986 367.239 174.824 316.317 176.987 292.746C177.88 283.017 178.842 273.751 179.789 265.485C168.004 286.767 149.778 317.238 125.11 356.899L111.719 350.781C122.235 316.134 130.857 291.674 137.587 277.402C149.11 252.964 159.915 232.036 164.462 224.664C171.615 213.069 184.066 217.114 190.645 224.134Z" fill="#B28B67"/>
<path fill-rule="evenodd" clip-rule="evenodd" d="M112.673 331.541L158.636 222.659C169.647 204.947 200.518 226.264 196.763 236.537C188.238 259.859 144.883 335.365 142.343 342.314L112.673 331.541Z" fill="#203999"/>
<path fill-rule="evenodd" clip-rule="evenodd" d="M110.122 343.916C107.259 346.273 105.396 348.198 104.534 349.691C103.486 351.507 102.259 354.332 100.852 358.165C102.959 359.381 121.891 370.312 157.649 390.957C161.942 386.929 162.611 383.803 159.656 381.578C156.7 379.353 154.262 377.477 152.339 375.949L132.735 348.939C132.358 348.419 131.631 348.304 131.111 348.681C131.102 348.687 131.094 348.694 131.085 348.701L127.011 351.837C123.275 351.511 120.486 350.817 118.645 349.754C117.15 348.891 115.434 347.094 113.496 344.365L113.496 344.365C112.753 343.318 111.301 343.072 110.254 343.815C110.209 343.847 110.165 343.881 110.122 343.916Z" fill="#203999"/>
<path fill-rule="evenodd" clip-rule="evenodd" d="M175.205 376.048C173.904 379.521 173.254 382.119 173.254 383.843C173.254 385.94 173.603 389 174.302 393.023C176.734 393.023 198.595 393.023 239.885 393.023C241.59 387.388 240.606 384.347 236.934 383.897C233.262 383.448 230.212 383.043 227.783 382.681L197.3 369.091C196.714 368.83 196.026 369.093 195.765 369.68C195.76 369.69 195.756 369.7 195.752 369.71L193.793 374.463C190.393 376.049 187.631 376.842 185.506 376.842C183.779 376.842 181.395 376.145 178.352 374.75L178.352 374.75C177.185 374.215 175.804 374.727 175.269 375.895C175.246 375.945 175.225 375.996 175.205 376.048Z" fill="#203999"/>
<path fill-rule="evenodd" clip-rule="evenodd" d="M219.5 242.364C219.5 273.256 204.829 345.314 204.82 352.116L173.255 352.14C177.875 287.843 179.513 255.349 178.17 254.656C176.154 253.617 95.5527 262.703 71.3789 262.703C36.5202 262.703 22.0998 240.721 20.9297 200H89.9835C104.043 201.504 177.382 216.297 204.618 221.382C216.278 223.559 219.5 233.854 219.5 242.364Z" fill="#3C54AF"/>
<path fill-rule="evenodd" clip-rule="evenodd" d="M100.742 127.56L141.102 105.454C147.814 97.4844 154.427 91.2945 160.941 86.8848C162.931 86.0538 166.412 85.5508 163.157 91.3286C159.902 97.1063 156.737 103.33 158.396 105.11C160.054 106.89 164.19 104.403 166.168 107.361C167.487 109.333 160.422 112.447 144.973 116.705L115.647 143.557L100.742 127.56ZM163.954 146.21L181.682 136.471C184.17 127.006 187.143 122.243 190.603 122.184C193.261 120.947 188.632 132.908 193.67 131.871C198.708 130.833 211.005 121.688 213.124 123.545C216.258 126.292 213.463 134.727 210.17 138.923C204.015 146.766 198.919 149.448 186.324 152.96C179.738 154.796 172.618 158.476 164.963 164.001L163.954 146.21Z" fill="#997659"/>
<path d="M210.282 53.8652L197.631 48.9922L184.98 53.8652L197.631 58.9103L210.282 53.8652Z" fill="#D55555"/>
<path d="M223.311 58.8884L210.565 64.0661H210.552L209.982 63.8308L197.633 58.9132L210.28 53.8594C215.916 56.0271 217.316 56.5721 223.311 58.8884Z" fill="#5A9FDB"/>
<path d="M210.55 64.067L197.63 69.319L184.711 64.067L197.63 58.9141L209.98 63.8316L210.55 64.067Z" fill="#F8BD4F"/>
<path d="M197.635 69.9392C197.555 69.939 197.476 69.9235 197.402 69.8933L184.482 64.6413C184.368 64.5952 184.269 64.5159 184.2 64.4134C184.131 64.311 184.094 64.1902 184.094 64.0666C184.094 63.9429 184.131 63.8221 184.2 63.7197C184.269 63.6172 184.368 63.5379 184.482 63.4918L197.402 58.3389C197.549 58.2803 197.713 58.2803 197.86 58.3389L210.79 63.4955C210.903 63.5422 211 63.6216 211.069 63.7236C211.137 63.8256 211.174 63.9456 211.174 64.0684C211.174 64.1912 211.137 64.3112 211.069 64.4133C211 64.5153 210.903 64.5946 210.79 64.6413L197.87 69.8933C197.795 69.9238 197.715 69.9394 197.635 69.9392ZM186.374 64.0727L197.635 68.6522L208.907 64.069L197.635 59.5813L186.374 64.0727Z" fill="#203999"/>
<path d="M197.632 58.9123L184.982 53.8672L171.953 58.8851L184.708 64.0665L197.632 58.9123Z" fill="#37BA72"/>
<path d="M184.71 64.684C184.63 64.6837 184.551 64.6681 184.477 64.6382L171.718 59.4568C171.603 59.41 171.505 59.3297 171.436 59.2263C171.367 59.1229 171.331 59.0012 171.332 58.877C171.333 58.7528 171.372 58.6318 171.443 58.5297C171.514 58.4277 171.613 58.3493 171.729 58.3048L184.762 53.2869C184.907 53.2299 185.068 53.2299 185.214 53.2869L197.864 58.332C197.98 58.3779 198.078 58.4572 198.148 58.5598C198.217 58.6624 198.255 58.7835 198.255 58.9074C198.255 59.0313 198.217 59.1524 198.148 59.255C198.078 59.3576 197.98 59.4369 197.864 59.4828L184.94 64.6394C184.867 64.6688 184.788 64.684 184.71 64.684ZM173.639 58.9018L184.712 63.3995L195.963 58.913L184.981 54.5305L173.639 58.9018Z" fill="#203999"/>
<path d="M197.631 69.3184L184.34 74.7191L170.938 69.5538L184.712 64.0664L197.631 69.3184Z" fill="#37BA72"/>
<path d="M184.338 75.338C184.262 75.3378 184.186 75.3236 184.115 75.2959L170.714 70.1306C170.598 70.0851 170.498 70.0058 170.428 69.903C170.358 69.8001 170.32 69.6785 170.32 69.554C170.32 69.4295 170.358 69.3079 170.428 69.205C170.498 69.1022 170.598 69.0228 170.714 68.9774L184.488 63.49C184.636 63.4304 184.802 63.4304 184.95 63.49L197.869 68.742C197.984 68.7883 198.082 68.8677 198.151 68.97C198.219 69.0722 198.256 69.1928 198.256 69.3162C198.256 69.4395 198.219 69.5601 198.151 69.6624C198.082 69.7647 197.984 69.844 197.869 69.8903L184.578 75.291C184.502 75.3223 184.42 75.3383 184.338 75.338ZM172.632 69.5435L184.33 74.0523L195.983 69.318L184.711 64.7349L172.632 69.5435Z" fill="#203999"/>
<path d="M184.712 64.0664L170.938 69.5537L157.598 64.4132L171.954 58.8887L184.712 64.0664Z" fill="#5A9FDB"/>
<path d="M170.938 70.1739C170.862 70.1739 170.786 70.1601 170.715 70.133L157.375 64.9925C157.258 64.9477 157.157 64.8684 157.086 64.7651C157.015 64.6618 156.977 64.5394 156.977 64.414C156.977 64.2887 157.015 64.1662 157.086 64.0629C157.157 63.9597 157.258 63.8804 157.375 63.8356L171.731 58.311C171.877 58.2531 172.04 58.2531 172.187 58.311L184.945 63.4887C185.06 63.5348 185.158 63.6142 185.228 63.7166C185.297 63.819 185.334 63.9398 185.334 64.0635C185.334 64.1871 185.297 64.308 185.228 64.4104C185.158 64.5128 185.06 64.5922 184.945 64.6382L171.171 70.1256C171.097 70.1569 171.018 70.1733 170.938 70.1739ZM159.321 64.4153L170.935 68.8894L183.053 64.0585L171.947 59.5522L159.321 64.4153Z" fill="#203999"/>
<path d="M224.326 69.5662C220.065 71.2136 215.321 73.0469 210.973 74.7191L197.633 69.3184L210.552 64.0664H210.565L224.326 69.5662Z" fill="#D55555"/>
<path d="M210.967 75.3381C210.888 75.3378 210.809 75.3222 210.735 75.2922L197.395 69.8916C197.281 69.8453 197.183 69.7659 197.114 69.6637C197.045 69.5614 197.008 69.4408 197.008 69.3174C197.008 69.1941 197.045 69.0735 197.114 68.9712C197.183 68.869 197.281 68.7896 197.395 68.7433L210.314 63.4913C210.468 63.4326 210.638 63.4326 210.791 63.4913L224.552 68.9911C224.668 69.0365 224.767 69.1158 224.837 69.2187C224.908 69.3215 224.945 69.4432 224.945 69.5677C224.945 69.6922 224.908 69.8138 224.837 69.9166C224.767 70.0195 224.668 70.0988 224.552 70.1443C220.291 71.7917 215.545 73.6262 211.198 75.2984C211.124 75.326 211.046 75.3394 210.967 75.3381ZM199.274 69.3168L210.972 74.0523C214.762 72.5944 218.84 71.02 222.627 69.5559L210.553 64.725L199.274 69.3168Z" fill="#203999"/>
<path d="M237.665 64.4132C237.665 64.4132 231.707 66.7172 224.324 69.5661L210.562 64.0664L223.309 58.8887C229.911 61.428 237.665 64.4132 237.665 64.4132Z" fill="#37BA72"/>
<path d="M210.283 53.8602L205.972 55.582C200.893 53.6373 194.155 51.036 193.238 50.6892L197.636 48.9922C197.636 48.9922 204.82 51.7545 210.283 53.8602Z" fill="#C23131"/>
<path d="M223.31 58.8884L219.024 60.635H219.012C213.066 58.331 211.667 57.786 206.043 55.6183L205.969 55.5811L210.279 53.8594C215.915 56.0271 217.315 56.5721 223.31 58.8884Z" fill="#317EC2"/>
<path d="M237.666 64.4132C237.666 64.4132 235.969 65.0697 233.268 66.1102C232.141 65.6767 225.13 62.9763 219.073 60.6476C219.058 60.6378 219.041 60.6334 219.023 60.6352L223.309 58.8887C229.911 61.428 237.666 64.4132 237.666 64.4132Z" fill="#209755"/>
<path d="M210.551 64.6868C210.47 64.6866 210.39 64.6706 210.316 64.6397L209.746 64.4044C209.668 64.3753 209.597 64.3308 209.537 64.2736C209.476 64.2165 209.428 64.1478 209.395 64.0716C209.362 63.9955 209.345 63.9135 209.344 63.8305C209.343 63.7474 209.359 63.6651 209.391 63.5883C209.422 63.5116 209.469 63.4419 209.528 63.3836C209.587 63.3253 209.657 63.2794 209.735 63.2488C209.812 63.2182 209.894 63.2033 209.977 63.2052C210.06 63.2071 210.142 63.2257 210.218 63.2598L210.788 63.4952C210.92 63.5499 211.029 63.6488 211.097 63.7751C211.164 63.9013 211.186 64.047 211.158 64.1875C211.131 64.3279 211.055 64.4545 210.944 64.5455C210.834 64.6365 210.695 64.6865 210.552 64.6868H210.551Z" fill="#203999"/>
<path d="M224.895 70.4084C224.817 70.4085 224.74 70.3938 224.668 70.3651L224.099 70.1421C224.023 70.1126 223.953 70.0684 223.894 70.0121C223.835 69.9557 223.788 69.8882 223.755 69.8136C223.723 69.7389 223.705 69.6586 223.703 69.577C223.702 69.4955 223.716 69.4145 223.746 69.3386C223.776 69.2627 223.82 69.1934 223.877 69.1347C223.933 69.076 224.001 69.0291 224.076 68.9966C224.15 68.9641 224.231 68.9467 224.312 68.9454C224.394 68.9441 224.475 68.9589 224.551 68.9889L225.12 69.2119C225.254 69.2648 225.366 69.3628 225.435 69.489C225.505 69.6152 225.528 69.7617 225.501 69.9032C225.474 70.0448 225.399 70.1726 225.288 70.2645C225.177 70.3565 225.038 70.407 224.894 70.4072L224.895 70.4084Z" fill="#203999"/>
<path d="M224.895 70.4084C224.817 70.4085 224.74 70.3938 224.668 70.3651L224.099 70.1421C224.023 70.1126 223.953 70.0684 223.894 70.0121C223.835 69.9557 223.788 69.8882 223.755 69.8136C223.723 69.7389 223.705 69.6586 223.703 69.577C223.702 69.4955 223.716 69.4145 223.746 69.3386C223.776 69.2627 223.82 69.1934 223.877 69.1347C223.933 69.076 224.001 69.0291 224.076 68.9966C224.15 68.9641 224.231 68.9467 224.312 68.9454C224.394 68.9441 224.475 68.9589 224.551 68.9889L225.12 69.2119C225.254 69.2648 225.366 69.3628 225.435 69.489C225.505 69.6152 225.528 69.7617 225.501 69.9032C225.474 70.0448 225.399 70.1726 225.288 70.2645C225.177 70.3565 225.038 70.407 224.894 70.4072L224.895 70.4084Z" fill="#203999"/>
<path d="M210.551 64.6868C210.47 64.6866 210.39 64.6706 210.316 64.6397L209.746 64.4044C209.668 64.3753 209.597 64.3308 209.537 64.2736C209.476 64.2165 209.428 64.1478 209.395 64.0716C209.362 63.9955 209.345 63.9135 209.344 63.8305C209.343 63.7474 209.359 63.6651 209.391 63.5883C209.422 63.5116 209.469 63.4419 209.528 63.3836C209.587 63.3253 209.657 63.2794 209.735 63.2488C209.812 63.2182 209.894 63.2033 209.977 63.2052C210.06 63.2071 210.142 63.2257 210.218 63.2598L210.788 63.4952C210.92 63.5499 211.029 63.6488 211.097 63.7751C211.164 63.9013 211.186 64.047 211.158 64.1875C211.131 64.3279 211.055 64.4545 210.944 64.5455C210.834 64.6365 210.695 64.6865 210.552 64.6868H210.551Z" fill="#203999"/>
<path d="M210.972 74.719C205.075 76.9982 197.631 79.8348 197.631 79.8348L184.34 74.719L197.631 69.3184L210.972 74.719Z" fill="#F8BD4F"/>
<path d="M197.63 80.4559C197.554 80.4559 197.478 80.4421 197.407 80.415L184.116 75.2993C184 75.2547 183.9 75.1764 183.829 75.0743C183.759 74.9723 183.72 74.8513 183.719 74.7271C183.718 74.6028 183.754 74.4811 183.823 74.3777C183.891 74.2743 183.99 74.194 184.105 74.1473L197.396 68.7466C197.545 68.686 197.712 68.686 197.862 68.7466L211.202 74.1473C211.318 74.1938 211.416 74.2739 211.485 74.3771C211.554 74.4804 211.591 74.602 211.59 74.7262C211.589 74.8504 211.551 74.9715 211.48 75.0737C211.409 75.1759 211.31 75.2545 211.194 75.2993C205.296 77.5784 197.851 80.4163 197.851 80.4163C197.78 80.443 197.705 80.4564 197.63 80.4559ZM186.022 74.7047L197.63 79.1726C198.792 78.7304 204.312 76.6247 209.285 74.7072L197.63 69.989L186.022 74.7047Z" fill="#203999"/>
<path d="M184.291 74.6952V92.6066L170.938 87.4661V69.5547L184.291 74.6952Z" fill="#5A9FDB"/>
<path d="M184.289 93.2268C184.213 93.2267 184.137 93.2128 184.066 93.1859L170.713 88.0454C170.596 88.0003 170.496 87.9209 170.425 87.8176C170.354 87.7144 170.316 87.5921 170.316 87.4669V69.5555C170.316 69.4549 170.341 69.3558 170.388 69.2667C170.434 69.1776 170.502 69.1013 170.585 69.0443C170.668 68.9874 170.764 68.9515 170.864 68.9398C170.964 68.928 171.065 68.9408 171.159 68.9771L184.512 74.1176C184.629 74.1627 184.729 74.2421 184.8 74.3453C184.87 74.4486 184.908 74.5709 184.908 74.6961V92.6075C184.908 92.7717 184.843 92.9292 184.727 93.0454C184.611 93.1615 184.453 93.2268 184.289 93.2268ZM171.555 87.042L183.669 91.7057V75.1209L171.555 70.4573V87.042Z" fill="#203999"/>
<path d="M197.634 79.8339V97.7453L184.293 92.6047V74.6934L197.634 79.8339Z" fill="#37BA72"/>
<path d="M197.632 98.3655C197.556 98.3655 197.48 98.3516 197.409 98.3246L184.068 93.184C183.951 93.139 183.851 93.0596 183.78 92.9563C183.71 92.8531 183.672 92.7308 183.672 92.6056V74.6942C183.672 74.5936 183.696 74.4944 183.743 74.4054C183.79 74.3163 183.858 74.24 183.941 74.183C184.024 74.1261 184.119 74.0902 184.219 74.0784C184.319 74.0667 184.42 74.0795 184.514 74.1157L197.855 79.2563C197.972 79.3014 198.072 79.3807 198.143 79.484C198.214 79.5873 198.251 79.7096 198.251 79.8347V97.7461C198.251 97.9104 198.186 98.0679 198.07 98.1841C197.954 98.3002 197.796 98.3655 197.632 98.3655ZM184.911 92.1807L197.013 96.8444V80.2596L184.911 75.596V92.1807Z" fill="#203999"/>
<path d="M170.941 87.4621L157.594 82.3203V100.228L170.941 105.369V87.4621Z" fill="#5A9FDB"/>
<path d="M170.938 105.987C170.862 105.987 170.786 105.973 170.715 105.946L157.373 100.805C157.256 100.76 157.156 100.681 157.085 100.578C157.014 100.474 156.976 100.352 156.977 100.227V82.3192C156.976 82.2186 157.001 82.1194 157.048 82.0304C157.095 81.9413 157.162 81.865 157.245 81.808C157.328 81.7511 157.424 81.7152 157.524 81.7034C157.624 81.6917 157.725 81.7045 157.819 81.7407L171.166 86.8813C171.282 86.9264 171.383 87.0058 171.454 87.109C171.524 87.2123 171.562 87.3346 171.562 87.4597V105.367C171.562 105.532 171.497 105.689 171.381 105.805C171.265 105.922 171.107 105.987 170.943 105.987H170.938ZM158.21 99.802L170.318 104.466V87.8846L158.21 83.2222V99.802Z" fill="#203999"/>
<path d="M170.941 69.5546L157.594 64.4141V82.3205L170.941 87.4623V69.5546Z" fill="#D55555"/>
<path d="M170.938 88.0825C170.862 88.0824 170.786 88.0685 170.715 88.0416L157.373 82.8998C157.256 82.8547 157.156 82.7753 157.085 82.6721C157.014 82.5688 156.976 82.4465 156.977 82.3213V64.4149C156.976 64.3143 157.001 64.2152 157.048 64.1261C157.095 64.037 157.162 63.9607 157.245 63.9037C157.328 63.8468 157.424 63.8109 157.524 63.7991C157.624 63.7874 157.725 63.8002 157.819 63.8364L171.166 68.977C171.282 69.0221 171.383 69.1015 171.454 69.2047C171.524 69.308 171.562 69.4303 171.562 69.5555V87.4631C171.562 87.6274 171.497 87.7849 171.381 87.9011C171.265 88.0172 171.107 88.0825 170.943 88.0825H170.938ZM158.21 81.8965L170.318 86.5601V69.9803L158.21 65.3167V81.8965Z" fill="#203999"/>
<path d="M184.281 92.6035V110.51L197.628 115.65V97.7441L184.281 92.6035Z" fill="#D55555"/>
<path d="M197.633 116.271C197.557 116.271 197.481 116.257 197.41 116.23L184.064 111.089C183.948 111.044 183.847 110.965 183.776 110.862C183.706 110.758 183.668 110.636 183.668 110.511V92.6044C183.668 92.5037 183.692 92.4046 183.739 92.3155C183.786 92.2265 183.854 92.1501 183.937 92.0932C184.02 92.0362 184.115 92.0003 184.215 91.9886C184.315 91.9769 184.416 91.9897 184.51 92.0259L197.856 97.1664C197.973 97.2115 198.073 97.2909 198.144 97.3942C198.215 97.4974 198.252 97.6197 198.252 97.7449V115.651C198.252 115.816 198.187 115.973 198.071 116.089C197.955 116.205 197.797 116.271 197.633 116.271ZM184.907 110.086L197.014 114.75V98.1685L184.907 93.5049V110.086Z" fill="#203999"/>
<path d="M170.938 87.4609V105.367L184.283 110.508V92.6015L170.938 87.4609Z" fill="#37BA72"/>
<path d="M184.285 111.13C184.209 111.13 184.134 111.116 184.062 111.089L170.717 105.949C170.6 105.904 170.5 105.824 170.429 105.721C170.358 105.618 170.32 105.495 170.32 105.37V87.4637C170.32 87.3631 170.345 87.264 170.391 87.1749C170.438 87.0858 170.506 87.0095 170.589 86.9526C170.672 86.8956 170.768 86.8597 170.868 86.848C170.967 86.8362 171.069 86.8491 171.163 86.8853L184.508 92.0258C184.625 92.0709 184.725 92.1503 184.796 92.2536C184.867 92.3568 184.905 92.4791 184.905 92.6043V110.511C184.905 110.675 184.839 110.832 184.723 110.949C184.607 111.065 184.45 111.13 184.285 111.13ZM171.558 104.945L183.665 109.609V93.0292L171.558 88.3655V104.945Z" fill="#203999"/>
<path d="M157.594 100.23V117.801L170.941 122.943V105.371L157.594 100.23Z" fill="#F8BD4F"/>
<path d="M170.938 123.561C170.862 123.561 170.786 123.547 170.715 123.52L157.373 118.379C157.256 118.334 157.156 118.254 157.085 118.151C157.014 118.048 156.976 117.925 156.977 117.8V100.229C156.976 100.129 157.001 100.03 157.048 99.9405C157.095 99.8515 157.162 99.7751 157.245 99.7182C157.328 99.6612 157.424 99.6253 157.524 99.6136C157.624 99.6019 157.725 99.6147 157.819 99.6509L171.166 104.791C171.282 104.837 171.383 104.916 171.454 105.019C171.524 105.122 171.562 105.245 171.562 105.37V122.942C171.562 123.106 171.497 123.264 171.381 123.38C171.265 123.496 171.107 123.561 170.943 123.561H170.938ZM158.21 117.375L170.318 122.039V105.795L158.21 101.131V117.375Z" fill="#203999"/>
<path d="M184.291 110.504V128.081L170.938 122.94V105.363L184.291 110.504Z" fill="#D55555"/>
<path d="M184.289 128.703C184.213 128.703 184.137 128.689 184.066 128.662L170.713 123.521C170.596 123.476 170.496 123.397 170.425 123.294C170.354 123.19 170.316 123.068 170.316 122.943V105.366C170.316 105.265 170.341 105.166 170.388 105.077C170.434 104.988 170.502 104.912 170.585 104.855C170.668 104.798 170.764 104.762 170.864 104.75C170.964 104.739 171.065 104.751 171.159 104.788L184.512 109.928C184.629 109.973 184.729 110.053 184.8 110.156C184.87 110.259 184.908 110.381 184.908 110.507V128.084C184.908 128.248 184.843 128.405 184.727 128.521C184.611 128.638 184.453 128.703 184.289 128.703ZM171.555 122.518L183.669 127.182V110.928L171.555 106.264V122.518Z" fill="#203999"/>
<path d="M184.293 110.504L197.634 115.644V133.221L184.293 128.081" fill="#5A9FDB"/>
<path d="M197.633 133.841C197.557 133.841 197.481 133.827 197.41 133.8L184.069 128.66C183.916 128.601 183.792 128.483 183.725 128.333C183.659 128.183 183.654 128.013 183.713 127.859C183.772 127.706 183.89 127.582 184.04 127.515C184.19 127.448 184.361 127.444 184.514 127.503L197.014 132.319V116.07L184.07 111.083C183.995 111.054 183.925 111.01 183.866 110.954C183.807 110.898 183.76 110.831 183.727 110.756C183.694 110.682 183.675 110.602 183.673 110.52C183.671 110.439 183.685 110.358 183.714 110.282C183.744 110.206 183.787 110.137 183.843 110.078C183.9 110.019 183.967 109.971 184.041 109.938C184.115 109.905 184.196 109.887 184.277 109.885C184.358 109.883 184.439 109.897 184.515 109.926L197.856 115.067C197.973 115.112 198.073 115.191 198.144 115.294C198.215 115.398 198.252 115.52 198.252 115.645V133.222C198.252 133.386 198.187 133.544 198.071 133.66C197.955 133.776 197.797 133.841 197.633 133.841Z" fill="#203999"/>
<path d="M210.977 110.508L224.322 105.367V87.4609L210.977 92.6015V110.508Z" fill="#F8BD4F"/>
<path d="M210.975 111.13C210.811 111.13 210.653 111.065 210.537 110.949C210.421 110.832 210.355 110.675 210.355 110.511V92.6043C210.355 92.4791 210.393 92.3568 210.464 92.2536C210.535 92.1503 210.635 92.0709 210.752 92.0258L224.097 86.8853C224.191 86.8491 224.293 86.8362 224.393 86.848C224.492 86.8597 224.588 86.8956 224.671 86.9526C224.754 87.0095 224.822 87.0858 224.869 87.1749C224.915 87.264 224.94 87.3631 224.94 87.4637V105.37C224.94 105.495 224.902 105.618 224.831 105.721C224.761 105.824 224.66 105.904 224.543 105.949L211.198 111.089C211.127 111.116 211.051 111.13 210.975 111.13ZM211.594 93.0292V109.609L223.701 104.945V88.3655L211.594 93.0292Z" fill="#203999"/>
<path d="M224.324 105.369L237.671 100.228V82.3203L224.324 87.4621V105.369Z" fill="#D55555"/>
<path d="M224.324 69.5546V87.4623L237.671 82.3205V64.4141L224.324 69.5546Z" fill="#F8BD4F"/>
<path d="M197.633 97.7441V115.65L210.98 110.51V92.6035L197.633 97.7441Z" fill="#37BA72"/>
<path d="M197.627 116.271C197.463 116.271 197.305 116.205 197.189 116.089C197.073 115.973 197.008 115.816 197.008 115.651V97.7449C197.008 97.6197 197.045 97.4974 197.116 97.3942C197.187 97.2909 197.287 97.2115 197.404 97.1664L210.75 92.0259C210.844 91.9897 210.945 91.9769 211.045 91.9886C211.145 92.0003 211.24 92.0362 211.323 92.0932C211.406 92.1501 211.474 92.2265 211.521 92.3155C211.568 92.4046 211.592 92.5037 211.592 92.6044V110.511C211.592 110.636 211.554 110.758 211.484 110.862C211.413 110.965 211.312 111.044 211.196 111.089L197.85 116.23C197.779 116.257 197.703 116.271 197.627 116.271ZM198.246 98.1685V114.75L210.353 110.086V93.5061L198.246 98.1685Z" fill="#203999"/>
<path d="M224.326 105.363V122.94L210.973 128.081V110.504L224.326 105.363Z" fill="#37BA72"/>
<path d="M210.973 110.504V128.081L197.633 133.221V115.644L210.973 110.504Z" fill="#D55555"/>
<path d="M210.973 74.6934V92.6047L197.633 97.7453V79.8339L210.973 74.6934Z" fill="#D55555"/>
<path d="M197.627 98.3655C197.463 98.3655 197.305 98.3002 197.189 98.1841C197.073 98.0679 197.008 97.9104 197.008 97.7461V79.8347C197.008 79.7096 197.045 79.5873 197.116 79.484C197.187 79.3807 197.287 79.3014 197.404 79.2563L210.745 74.1157C210.839 74.0795 210.94 74.0667 211.04 74.0784C211.14 74.0902 211.235 74.1261 211.318 74.183C211.401 74.24 211.469 74.3163 211.516 74.4054C211.563 74.4944 211.587 74.5936 211.587 74.6942V92.6056C211.587 92.7308 211.549 92.8531 211.479 92.9563C211.408 93.0596 211.308 93.139 211.191 93.184L197.85 98.3246C197.779 98.3516 197.703 98.3655 197.627 98.3655ZM198.246 80.2596V96.8431L210.348 92.1795V75.5972L198.246 80.2596Z" fill="#203999"/>
<path d="M224.326 69.5547V87.4661L210.973 92.6066V74.6952L224.326 69.5547Z" fill="#5A9FDB"/>
<path d="M210.971 93.2268C210.807 93.2268 210.649 93.1615 210.533 93.0454C210.417 92.9292 210.352 92.7717 210.352 92.6075V74.6961C210.351 74.5709 210.389 74.4486 210.46 74.3453C210.531 74.2421 210.631 74.1627 210.748 74.1176L224.101 68.9771C224.195 68.9408 224.296 68.928 224.396 68.9398C224.496 68.9515 224.592 68.9874 224.675 69.0443C224.757 69.1013 224.825 69.1776 224.872 69.2667C224.919 69.3558 224.943 69.4549 224.943 69.5555V87.4669C224.943 87.5921 224.906 87.7144 224.835 87.8176C224.764 87.9209 224.664 88.0003 224.547 88.0454L211.194 93.1859C211.123 93.2128 211.047 93.2267 210.971 93.2268ZM211.59 75.1209V91.7057L223.705 87.042V70.4573L211.59 75.1209Z" fill="#203999"/>
<path d="M224.324 122.943L237.671 117.801V100.23L224.324 105.371V122.943Z" fill="#5A9FDB"/>
<path d="M224.326 118.508V122.942L210.973 128.083V123.648L224.326 118.508Z" fill="#209755"/>
<path d="M210.973 123.646V128.081L197.633 133.222V128.787L210.973 123.646Z" fill="#C23131"/>
<path d="M237.669 113.365V117.8L224.328 122.94V118.506L237.669 113.365Z" fill="#317EC2"/>
<path d="M237.664 82.3242V100.223L233.328 101.895V83.9964L237.664 82.3242Z" fill="#C23131"/>
<path d="M237.664 64.4141V82.3254L233.328 83.9977V66.0863L237.664 64.4141Z" fill="#F2A922"/>
<path d="M237.664 100.223V117.8L233.328 119.472V101.895L237.664 100.223Z" fill="#317EC2"/>
<path d="M197.631 59.5298C197.552 59.5297 197.474 59.5146 197.401 59.4852L184.749 54.4425C184.633 54.3963 184.534 54.3163 184.465 54.213C184.395 54.1097 184.359 53.9879 184.359 53.8633C184.36 53.7388 184.399 53.6175 184.469 53.5151C184.54 53.4126 184.64 53.334 184.756 53.2893L197.408 48.4138C197.552 48.3595 197.71 48.3595 197.853 48.4138L210.505 53.2868C210.622 53.3309 210.723 53.4095 210.794 53.5121C210.866 53.6147 210.905 53.7366 210.906 53.8617C210.907 53.9868 210.87 54.1092 210.8 54.2129C210.73 54.3166 210.63 54.3966 210.514 54.4425L197.862 59.4852C197.788 59.5146 197.71 59.5297 197.631 59.5298ZM186.678 53.8752L197.631 58.244L208.585 53.8752L197.631 49.6562L186.678 53.8752Z" fill="#203999"/>
<path d="M210.562 64.687C210.477 64.687 210.393 64.671 210.314 64.6399L209.744 64.4046L197.402 59.4895C197.287 59.4436 197.188 59.3643 197.118 59.2617C197.049 59.1591 197.012 59.038 197.012 58.9141C197.012 58.7902 197.049 58.6691 197.118 58.5665C197.188 58.464 197.287 58.3846 197.402 58.3387L210.049 53.2849C210.194 53.2279 210.356 53.2279 210.501 53.2849C214.637 54.8754 216.492 55.5913 219.554 56.778L223.527 58.3127C223.643 58.3574 223.743 58.4359 223.813 58.538C223.884 58.6401 223.923 58.7611 223.924 58.8854C223.925 59.0096 223.888 59.1312 223.819 59.2346C223.75 59.3379 223.652 59.4181 223.537 59.4647L210.791 64.6424C210.718 64.6713 210.64 64.6865 210.562 64.687ZM199.302 58.9135L210.558 63.4013L221.627 58.9024L219.114 57.93C216.102 56.7669 214.262 56.0546 210.282 54.5236L199.302 58.9135Z" fill="#203999"/>
<path d="M224.321 70.1884C224.242 70.1884 224.164 70.1733 224.091 70.1439L210.33 64.6441C210.215 64.598 210.117 64.5187 210.048 64.4162C209.978 64.3138 209.941 64.193 209.941 64.0693C209.941 63.9457 209.978 63.8249 210.048 63.7225C210.117 63.62 210.215 63.5407 210.33 63.4946L223.076 58.3169C223.222 58.259 223.385 58.259 223.532 58.3169L237.888 63.8414C238.005 63.8864 238.105 63.9657 238.176 64.0689C238.247 64.172 238.285 64.2942 238.285 64.4193C238.285 64.5444 238.247 64.6665 238.176 64.7697C238.105 64.8728 238.005 64.9521 237.888 64.9971L224.546 70.1501C224.474 70.1767 224.398 70.1898 224.321 70.1884ZM212.218 64.0644L224.325 68.9039L235.941 64.4174L223.306 59.5581L212.218 64.0644Z" fill="#203999"/>
<path d="M224.322 105.989C224.158 105.989 224.001 105.924 223.885 105.808C223.768 105.692 223.703 105.534 223.703 105.37V87.4637C223.703 87.3385 223.741 87.2162 223.812 87.1129C223.882 87.0097 223.983 86.9303 224.1 86.8852L237.446 81.7447C237.54 81.7084 237.642 81.6956 237.741 81.7073C237.841 81.7191 237.937 81.755 238.02 81.8119C238.103 81.8689 238.171 81.9452 238.218 82.0343C238.264 82.1234 238.289 82.2225 238.289 82.3231V100.23C238.289 100.355 238.251 100.477 238.18 100.58C238.109 100.684 238.009 100.763 237.892 100.808L224.545 105.949C224.474 105.975 224.399 105.989 224.322 105.989ZM224.942 87.8885V104.468L237.05 99.8047V83.2249L224.942 87.8885Z" fill="#203999"/>
<path d="M224.322 88.0837C224.158 88.0837 224.001 88.0184 223.885 87.9023C223.768 87.7861 223.703 87.6286 223.703 87.4643V69.5555C223.703 69.4303 223.741 69.308 223.812 69.2047C223.882 69.1015 223.983 69.0221 224.1 68.977L237.446 63.8364C237.54 63.8002 237.642 63.7874 237.741 63.7991C237.841 63.8109 237.937 63.8468 238.02 63.9037C238.103 63.9607 238.171 64.037 238.218 64.1261C238.264 64.2152 238.289 64.3143 238.289 64.4149V82.3226C238.289 82.4478 238.251 82.57 238.18 82.6733C238.109 82.7766 238.009 82.856 237.892 82.901L224.545 88.0416C224.474 88.0689 224.399 88.0832 224.322 88.0837ZM224.942 69.9828V86.5613L237.05 81.8977V65.3179L224.942 69.9828Z" fill="#203999"/>
<path d="M224.322 123.561C224.158 123.561 224.001 123.496 223.885 123.38C223.768 123.264 223.703 123.106 223.703 122.942V105.37C223.703 105.245 223.741 105.123 223.812 105.019C223.882 104.916 223.983 104.837 224.1 104.792L237.448 99.6548C237.541 99.6186 237.643 99.6058 237.743 99.6175C237.843 99.6292 237.938 99.6651 238.021 99.7221C238.104 99.7791 238.172 99.8554 238.219 99.9444C238.266 100.034 238.29 100.133 238.29 100.233V117.8C238.29 117.925 238.252 118.048 238.181 118.151C238.111 118.254 238.01 118.334 237.893 118.379L224.547 123.519C224.475 123.547 224.399 123.561 224.322 123.561ZM224.942 105.796V122.039L237.05 117.375V101.131L224.942 105.796Z" fill="#203999"/>
<path d="M210.971 128.703C210.807 128.703 210.649 128.638 210.533 128.521C210.417 128.405 210.352 128.248 210.352 128.084V110.507C210.351 110.381 210.389 110.259 210.46 110.156C210.531 110.053 210.631 109.973 210.748 109.928L224.101 104.788C224.195 104.751 224.296 104.739 224.396 104.75C224.496 104.762 224.592 104.798 224.675 104.855C224.757 104.912 224.825 104.988 224.872 105.077C224.919 105.166 224.943 105.265 224.943 105.366V122.943C224.943 123.068 224.906 123.19 224.835 123.294C224.764 123.397 224.664 123.476 224.547 123.521L211.194 128.662C211.123 128.689 211.047 128.703 210.971 128.703ZM211.59 110.928V127.182L223.705 122.518V106.268L211.59 110.928Z" fill="#203999"/>
<path d="M197.631 133.842C197.467 133.842 197.309 133.776 197.193 133.66C197.077 133.544 197.012 133.386 197.012 133.222V115.645C197.012 115.52 197.049 115.398 197.12 115.295C197.191 115.191 197.291 115.112 197.408 115.067L210.749 109.926C210.843 109.89 210.944 109.877 211.044 109.889C211.144 109.901 211.239 109.937 211.322 109.994C211.405 110.051 211.473 110.127 211.52 110.216C211.567 110.305 211.591 110.404 211.591 110.505V128.082C211.591 128.207 211.553 128.329 211.483 128.432C211.412 128.536 211.311 128.615 211.195 128.66L197.854 133.801C197.783 133.828 197.707 133.842 197.631 133.842ZM198.25 116.07V132.319L210.352 127.656V111.408L198.25 116.07Z" fill="#203999"/>
<path d="M174.98 54.3531C174.836 54.3535 174.695 54.3031 174.584 54.2107C174.472 54.1182 174.396 53.9896 174.37 53.8471C174.343 53.7047 174.368 53.5575 174.438 53.4311C174.509 53.3047 174.622 53.2071 174.757 53.1553L175.511 52.8655C175.664 52.8065 175.835 52.8109 175.985 52.8777C176.135 52.9445 176.252 53.0682 176.311 53.2216C176.37 53.375 176.366 53.5456 176.299 53.6958C176.232 53.8459 176.109 53.9634 175.955 54.0224L175.202 54.3123C175.131 54.3393 175.056 54.3532 174.98 54.3531Z" fill="#203999"/>
<path d="M178.973 52.8155C178.828 52.8159 178.687 52.7654 178.576 52.673C178.464 52.5805 178.389 52.4519 178.362 52.3095C178.336 52.167 178.36 52.0198 178.431 51.8934C178.501 51.767 178.614 51.6694 178.75 51.6177L188.877 47.717C188.953 47.6878 189.034 47.6739 189.115 47.676C189.197 47.6781 189.277 47.6962 189.351 47.7292C189.426 47.7623 189.493 47.8097 189.549 47.8687C189.605 47.9277 189.649 47.9972 189.678 48.0732C189.707 48.1491 189.721 48.2301 189.719 48.3115C189.717 48.3928 189.699 48.473 189.666 48.5473C189.633 48.6217 189.585 48.6888 189.526 48.7449C189.467 48.8009 189.398 48.8448 189.322 48.874L179.194 52.7746C179.124 52.8017 179.048 52.8155 178.973 52.8155Z" fill="#203999"/>
<path d="M241.385 112.011C241.221 112.011 241.063 111.946 240.947 111.83C240.831 111.714 240.766 111.556 240.766 111.392V110.506C240.766 110.342 240.831 110.184 240.947 110.068C241.063 109.952 241.221 109.887 241.385 109.887C241.549 109.887 241.707 109.952 241.823 110.068C241.939 110.184 242.004 110.342 242.004 110.506V111.392C242.004 111.556 241.939 111.714 241.823 111.83C241.707 111.946 241.549 112.011 241.385 112.011Z" fill="#203999"/>
<path d="M236.277 122.943C236.132 122.943 235.992 122.893 235.88 122.801C235.769 122.708 235.693 122.579 235.667 122.437C235.64 122.295 235.664 122.147 235.735 122.021C235.806 121.895 235.919 121.797 236.054 121.745L240.772 119.929V114.334C240.772 114.17 240.838 114.012 240.954 113.896C241.07 113.78 241.228 113.715 241.392 113.715C241.556 113.715 241.714 113.78 241.83 113.896C241.946 114.012 242.011 114.17 242.011 114.334V120.353C242.011 120.478 241.973 120.6 241.903 120.704C241.832 120.807 241.732 120.886 241.615 120.931L236.5 122.901C236.429 122.928 236.354 122.943 236.277 122.943Z" fill="#203999"/>
<path d="M190.957 126.795C190.86 126.795 190.764 126.778 190.673 126.743L189.919 126.458C189.818 126.423 189.725 126.367 189.646 126.295C189.567 126.223 189.503 126.136 189.458 126.039C189.413 125.941 189.387 125.836 189.383 125.729C189.379 125.622 189.397 125.516 189.435 125.415C189.473 125.315 189.53 125.224 189.604 125.146C189.677 125.068 189.766 125.006 189.864 124.963C189.962 124.92 190.067 124.896 190.174 124.895C190.281 124.893 190.388 124.912 190.487 124.952L191.242 125.237C191.418 125.304 191.565 125.43 191.658 125.594C191.75 125.758 191.783 125.949 191.749 126.134C191.715 126.32 191.618 126.487 191.473 126.608C191.328 126.729 191.146 126.795 190.958 126.795H190.957Z" fill="white"/>
<path d="M186.881 125.252C186.784 125.252 186.688 125.234 186.597 125.2L175.352 120.949C175.251 120.913 175.159 120.857 175.079 120.785C175 120.713 174.936 120.626 174.891 120.529C174.846 120.432 174.821 120.326 174.817 120.219C174.813 120.112 174.83 120.006 174.868 119.906C174.906 119.805 174.964 119.714 175.037 119.636C175.111 119.558 175.199 119.496 175.297 119.453C175.395 119.41 175.501 119.387 175.608 119.385C175.715 119.383 175.821 119.403 175.921 119.442L187.166 123.694C187.342 123.76 187.489 123.886 187.582 124.05C187.674 124.214 187.707 124.406 187.673 124.591C187.639 124.776 187.542 124.944 187.397 125.065C187.253 125.185 187.07 125.252 186.882 125.252H186.881Z" fill="white"/>
<path d="M184.291 128.702C184.127 128.702 183.969 128.637 183.853 128.521C183.737 128.405 183.672 128.247 183.672 128.083V110.506C183.672 110.342 183.737 110.184 183.853 110.068C183.969 109.952 184.127 109.887 184.291 109.887C184.455 109.887 184.613 109.952 184.729 110.068C184.845 110.184 184.911 110.342 184.911 110.506V128.083C184.911 128.247 184.845 128.405 184.729 128.521C184.613 128.637 184.455 128.702 184.291 128.702Z" fill="#203999"/>
<path d="M181.682 136.471L163.953 146.21L164.963 164.001C172.617 158.476 179.738 154.795 186.323 152.959C198.919 149.447 204.015 146.765 210.17 138.923C213.463 134.727 216.258 126.292 213.123 123.544C211.005 121.688 198.708 130.833 193.67 131.87C188.632 132.907 193.26 120.947 190.602 122.184C187.143 122.243 184.169 127.005 181.682 136.471Z" fill="#997659"/>
<path fill-rule="evenodd" clip-rule="evenodd" d="M81.0892 122.636C95.2259 122.487 114.077 119.501 134.192 106.733L142.091 124.349C128.217 138.118 108.708 149.431 91.6497 148.952C78.2068 148.575 71.3364 132.315 81.0892 122.636Z" fill="#596FC7"/>
<path fill-rule="evenodd" clip-rule="evenodd" d="M100.121 150.886C115.129 154.629 140.296 150.215 175.623 137.645C184.385 155.773 188.436 168.697 187.775 176.416C157.47 192.246 131.496 199.304 110.097 199.77C110.777 212.468 109.231 224.55 104.039 235.589C93.3657 258.285 30.8663 237.266 9.85203 241.403C-3.30771 198.665 22.137 181.297 22.1575 153.951C22.1799 124.004 46.226 77.9082 49.7639 77.9082L82.0275 77.9082C83.8076 100.779 92.7677 125.985 100.121 150.886Z" fill="#8597DD"/>
</svg>
