<svg width="857" height="408" viewBox="0 0 857 408" fill="none" xmlns="http://www.w3.org/2000/svg">
<path d="M318.92 129.466C318.92 160.483 294.135 185.618 263.573 185.618C233.011 185.618 208.226 160.483 208.226 129.466C208.226 98.4481 233.011 73.3129 263.573 73.3129C294.135 73.3129 318.92 98.4481 318.92 129.466Z" stroke="#262626" stroke-width="0.763593"/>
<path d="M323.62 124.267C323.62 155.285 298.835 180.42 268.272 180.42C237.71 180.42 212.925 155.285 212.925 124.267C212.925 93.2499 237.71 68.1147 268.272 68.1147C298.835 68.1147 323.62 93.2499 323.62 124.267Z" stroke="#262626" stroke-width="0.763593"/>
<path d="M315.077 122.534C315.077 153.552 290.292 178.687 259.729 178.687C229.167 178.687 204.382 153.552 204.382 122.534C204.382 91.517 229.167 66.3818 259.729 66.3818C290.292 66.3818 315.077 91.517 315.077 122.534Z" stroke="#262626" stroke-width="0.763593"/>
<path d="M236.934 113.93C235.647 113.56 234.71 113.107 234.121 112.57C233.538 112.029 233.246 111.362 233.246 110.57C233.246 109.674 233.603 108.935 234.317 108.352C235.035 107.763 235.968 107.469 237.114 107.469C237.895 107.469 238.59 107.62 239.199 107.922C239.814 108.224 240.288 108.641 240.621 109.172C240.96 109.703 241.129 110.284 241.129 110.914H239.621C239.621 110.227 239.403 109.688 238.965 109.297C238.528 108.901 237.91 108.703 237.114 108.703C236.374 108.703 235.796 108.867 235.379 109.195C234.968 109.518 234.762 109.969 234.762 110.547C234.762 111.01 234.957 111.404 235.348 111.727C235.744 112.044 236.413 112.336 237.356 112.602C238.304 112.867 239.043 113.161 239.574 113.484C240.111 113.802 240.507 114.174 240.762 114.602C241.022 115.029 241.153 115.531 241.153 116.109C241.153 117.031 240.793 117.771 240.074 118.328C239.356 118.88 238.395 119.156 237.192 119.156C236.41 119.156 235.681 119.008 235.004 118.711C234.327 118.409 233.804 117.997 233.434 117.477C233.069 116.956 232.887 116.365 232.887 115.703H234.395C234.395 116.391 234.647 116.935 235.153 117.336C235.663 117.732 236.343 117.93 237.192 117.93C237.983 117.93 238.59 117.768 239.012 117.445C239.434 117.122 239.645 116.682 239.645 116.125C239.645 115.568 239.449 115.138 239.059 114.836C238.668 114.529 237.96 114.227 236.934 113.93ZM242.473 114.695C242.473 113.867 242.634 113.122 242.957 112.461C243.285 111.799 243.739 111.289 244.317 110.93C244.9 110.57 245.564 110.391 246.309 110.391C247.46 110.391 248.39 110.789 249.098 111.586C249.811 112.383 250.168 113.443 250.168 114.766V114.867C250.168 115.69 250.009 116.43 249.692 117.086C249.379 117.737 248.929 118.245 248.34 118.609C247.757 118.974 247.085 119.156 246.324 119.156C245.179 119.156 244.249 118.758 243.535 117.961C242.827 117.164 242.473 116.109 242.473 114.797V114.695ZM243.926 114.867C243.926 115.805 244.142 116.557 244.574 117.125C245.012 117.693 245.595 117.977 246.324 117.977C247.059 117.977 247.642 117.69 248.074 117.117C248.507 116.539 248.723 115.732 248.723 114.695C248.723 113.768 248.502 113.018 248.059 112.445C247.621 111.867 247.038 111.578 246.309 111.578C245.595 111.578 245.02 111.862 244.582 112.43C244.145 112.997 243.926 113.81 243.926 114.867ZM252.692 119V111.664H251.356V110.547H252.692V109.68C252.692 108.773 252.934 108.073 253.418 107.578C253.903 107.083 254.588 106.836 255.473 106.836C255.806 106.836 256.137 106.88 256.465 106.969L256.387 108.141C256.142 108.094 255.882 108.07 255.606 108.07C255.137 108.07 254.775 108.208 254.52 108.484C254.265 108.755 254.137 109.146 254.137 109.656V110.547H255.942V111.664H254.137V119H252.692ZM259.504 108.5V110.547H261.082V111.664H259.504V116.906C259.504 117.245 259.574 117.5 259.715 117.672C259.856 117.839 260.095 117.922 260.434 117.922C260.601 117.922 260.83 117.891 261.121 117.828V119C260.741 119.104 260.371 119.156 260.012 119.156C259.366 119.156 258.879 118.961 258.551 118.57C258.223 118.18 258.059 117.625 258.059 116.906V111.664H256.52V110.547H258.059V108.5H259.504ZM270.262 117.008L271.887 110.547H273.332L270.871 119H269.699L267.645 112.594L265.645 119H264.473L262.02 110.547H263.457L265.121 116.875L267.09 110.547H268.254L270.262 117.008ZM280.028 119C279.944 118.833 279.877 118.536 279.824 118.109C279.153 118.807 278.351 119.156 277.418 119.156C276.585 119.156 275.9 118.922 275.364 118.453C274.832 117.979 274.567 117.38 274.567 116.656C274.567 115.776 274.9 115.094 275.567 114.609C276.239 114.12 277.181 113.875 278.395 113.875H279.801V113.211C279.801 112.706 279.65 112.305 279.348 112.008C279.046 111.706 278.601 111.555 278.012 111.555C277.496 111.555 277.064 111.685 276.715 111.945C276.366 112.206 276.192 112.521 276.192 112.891H274.739C274.739 112.469 274.887 112.062 275.184 111.672C275.486 111.276 275.892 110.964 276.403 110.734C276.918 110.505 277.483 110.391 278.098 110.391C279.072 110.391 279.835 110.635 280.387 111.125C280.939 111.609 281.226 112.279 281.246 113.133V117.023C281.246 117.799 281.345 118.417 281.543 118.875V119H280.028ZM277.629 117.898C278.082 117.898 278.512 117.781 278.918 117.547C279.324 117.312 279.619 117.008 279.801 116.633V114.898H278.668C276.897 114.898 276.012 115.417 276.012 116.453C276.012 116.906 276.163 117.26 276.465 117.516C276.767 117.771 277.155 117.898 277.629 117.898ZM287.598 111.844C287.379 111.807 287.142 111.789 286.887 111.789C285.939 111.789 285.296 112.193 284.957 113V119H283.512V110.547H284.918L284.942 111.523C285.416 110.768 286.088 110.391 286.957 110.391C287.239 110.391 287.452 110.427 287.598 110.5V111.844ZM292.285 119.156C291.14 119.156 290.207 118.781 289.489 118.031C288.77 117.276 288.41 116.268 288.41 115.008V114.742C288.41 113.904 288.569 113.156 288.887 112.5C289.21 111.839 289.658 111.323 290.231 110.953C290.809 110.578 291.434 110.391 292.106 110.391C293.205 110.391 294.059 110.753 294.668 111.477C295.278 112.201 295.582 113.237 295.582 114.586V115.188H289.856C289.877 116.021 290.119 116.695 290.582 117.211C291.051 117.721 291.645 117.977 292.364 117.977C292.874 117.977 293.306 117.872 293.66 117.664C294.015 117.456 294.324 117.18 294.59 116.836L295.473 117.523C294.765 118.612 293.702 119.156 292.285 119.156ZM292.106 111.578C291.522 111.578 291.033 111.792 290.637 112.219C290.241 112.641 289.996 113.234 289.903 114H294.137V113.891C294.095 113.156 293.897 112.589 293.543 112.188C293.189 111.781 292.71 111.578 292.106 111.578ZM230.082 143V131.625H233.293C234.283 131.625 235.158 131.844 235.918 132.281C236.679 132.719 237.265 133.341 237.676 134.148C238.093 134.956 238.304 135.883 238.309 136.93V137.656C238.309 138.729 238.101 139.669 237.684 140.477C237.272 141.284 236.681 141.904 235.91 142.336C235.145 142.768 234.252 142.99 233.231 143H230.082ZM231.582 132.859V141.773H233.16C234.317 141.773 235.215 141.414 235.856 140.695C236.502 139.977 236.824 138.953 236.824 137.625V136.961C236.824 135.669 236.52 134.667 235.91 133.953C235.306 133.234 234.447 132.87 233.332 132.859H231.582ZM243.864 143.156C242.718 143.156 241.785 142.781 241.067 142.031C240.348 141.276 239.989 140.268 239.989 139.008V138.742C239.989 137.904 240.147 137.156 240.465 136.5C240.788 135.839 241.236 135.323 241.809 134.953C242.387 134.578 243.012 134.391 243.684 134.391C244.783 134.391 245.637 134.753 246.246 135.477C246.856 136.201 247.16 137.237 247.16 138.586V139.188H241.434C241.455 140.021 241.697 140.695 242.16 141.211C242.629 141.721 243.223 141.977 243.942 141.977C244.452 141.977 244.884 141.872 245.239 141.664C245.593 141.456 245.903 141.18 246.168 140.836L247.051 141.523C246.343 142.612 245.28 143.156 243.864 143.156ZM243.684 135.578C243.101 135.578 242.611 135.792 242.215 136.219C241.819 136.641 241.574 137.234 241.481 138H245.715V137.891C245.673 137.156 245.476 136.589 245.121 136.188C244.767 135.781 244.288 135.578 243.684 135.578ZM251.52 141.039L253.614 134.547H255.09L252.059 143H250.957L247.895 134.547H249.371L251.52 141.039ZM259.879 143.156C258.733 143.156 257.801 142.781 257.082 142.031C256.364 141.276 256.004 140.268 256.004 139.008V138.742C256.004 137.904 256.163 137.156 256.481 136.5C256.804 135.839 257.252 135.323 257.824 134.953C258.403 134.578 259.028 134.391 259.699 134.391C260.798 134.391 261.653 134.753 262.262 135.477C262.871 136.201 263.176 137.237 263.176 138.586V139.188H257.449C257.47 140.021 257.713 140.695 258.176 141.211C258.645 141.721 259.239 141.977 259.957 141.977C260.468 141.977 260.9 141.872 261.254 141.664C261.608 141.456 261.918 141.18 262.184 140.836L263.067 141.523C262.358 142.612 261.296 143.156 259.879 143.156ZM259.699 135.578C259.116 135.578 258.627 135.792 258.231 136.219C257.835 136.641 257.59 137.234 257.496 138H261.731V137.891C261.689 137.156 261.491 136.589 261.137 136.188C260.783 135.781 260.304 135.578 259.699 135.578ZM266.426 143H264.981V131H266.426V143ZM268.364 138.695C268.364 137.867 268.525 137.122 268.848 136.461C269.176 135.799 269.629 135.289 270.207 134.93C270.791 134.57 271.455 134.391 272.199 134.391C273.351 134.391 274.28 134.789 274.989 135.586C275.702 136.383 276.059 137.443 276.059 138.766V138.867C276.059 139.69 275.9 140.43 275.582 141.086C275.27 141.737 274.819 142.245 274.231 142.609C273.647 142.974 272.976 143.156 272.215 143.156C271.069 143.156 270.14 142.758 269.426 141.961C268.718 141.164 268.364 140.109 268.364 138.797V138.695ZM269.817 138.867C269.817 139.805 270.033 140.557 270.465 141.125C270.903 141.693 271.486 141.977 272.215 141.977C272.949 141.977 273.533 141.69 273.965 141.117C274.397 140.539 274.614 139.732 274.614 138.695C274.614 137.768 274.392 137.018 273.949 136.445C273.512 135.867 272.929 135.578 272.199 135.578C271.486 135.578 270.91 135.862 270.473 136.43C270.035 136.997 269.817 137.81 269.817 138.867ZM285.012 138.867C285.012 140.154 284.718 141.19 284.129 141.977C283.541 142.763 282.744 143.156 281.739 143.156C280.713 143.156 279.905 142.831 279.317 142.18V146.25H277.871V134.547H279.192L279.262 135.484C279.851 134.755 280.668 134.391 281.715 134.391C282.731 134.391 283.533 134.773 284.121 135.539C284.715 136.305 285.012 137.37 285.012 138.734V138.867ZM283.567 138.703C283.567 137.75 283.364 136.997 282.957 136.445C282.551 135.893 281.994 135.617 281.285 135.617C280.41 135.617 279.754 136.005 279.317 136.781V140.82C279.749 141.591 280.41 141.977 281.301 141.977C281.994 141.977 282.543 141.703 282.949 141.156C283.361 140.604 283.567 139.786 283.567 138.703ZM290.364 143.156C289.218 143.156 288.285 142.781 287.567 142.031C286.848 141.276 286.489 140.268 286.489 139.008V138.742C286.489 137.904 286.647 137.156 286.965 136.5C287.288 135.839 287.736 135.323 288.309 134.953C288.887 134.578 289.512 134.391 290.184 134.391C291.283 134.391 292.137 134.753 292.746 135.477C293.356 136.201 293.66 137.237 293.66 138.586V139.188H287.934C287.955 140.021 288.197 140.695 288.66 141.211C289.129 141.721 289.723 141.977 290.442 141.977C290.952 141.977 291.384 141.872 291.739 141.664C292.093 141.456 292.403 141.18 292.668 140.836L293.551 141.523C292.843 142.612 291.78 143.156 290.364 143.156ZM290.184 135.578C289.601 135.578 289.111 135.792 288.715 136.219C288.319 136.641 288.074 137.234 287.981 138H292.215V137.891C292.173 137.156 291.976 136.589 291.621 136.188C291.267 135.781 290.788 135.578 290.184 135.578ZM299.426 135.844C299.207 135.807 298.97 135.789 298.715 135.789C297.767 135.789 297.124 136.193 296.785 137V143H295.34V134.547H296.746L296.77 135.523C297.244 134.768 297.916 134.391 298.785 134.391C299.067 134.391 299.28 134.427 299.426 134.5V135.844Z" fill="#262626"/>
<path d="M114.92 279.466C114.92 310.483 90.1354 335.618 59.573 335.618C29.0106 335.618 4.22555 310.483 4.22555 279.466C4.22555 248.448 29.0106 223.313 59.573 223.313C90.1354 223.313 114.92 248.448 114.92 279.466Z" stroke="#262626" stroke-width="0.763593"/>
<path d="M119.62 274.267C119.62 305.285 94.8346 330.42 64.2722 330.42C33.7098 330.42 8.92477 305.285 8.92477 274.267C8.92477 243.25 33.7098 218.115 64.2722 218.115C94.8346 218.115 119.62 243.25 119.62 274.267Z" stroke="#262626" stroke-width="0.763593"/>
<path d="M111.077 272.534C111.077 303.552 86.2917 328.687 55.7292 328.687C25.1668 328.687 0.381797 303.552 0.381797 272.534C0.381797 241.517 25.1668 216.382 55.7292 216.382C86.2917 216.382 111.077 241.517 111.077 272.534Z" stroke="#262626" stroke-width="0.763593"/>
<path d="M44.2464 267.508C43.8609 268.06 43.3219 268.474 42.6292 268.75C41.9417 269.021 41.1396 269.156 40.2229 269.156C39.2958 269.156 38.4729 268.94 37.7542 268.508C37.0354 268.07 36.4781 267.451 36.0823 266.648C35.6917 265.846 35.4912 264.917 35.4807 263.859V262.867C35.4807 261.154 35.8792 259.826 36.6761 258.883C37.4781 257.94 38.6031 257.469 40.0511 257.469C41.2386 257.469 42.1943 257.773 42.9182 258.383C43.6422 258.987 44.0849 259.846 44.2464 260.961H42.7464C42.4651 259.456 41.5693 258.703 40.0589 258.703C39.0537 258.703 38.2906 259.057 37.7698 259.766C37.2542 260.469 36.9938 261.49 36.9886 262.828V263.758C36.9886 265.034 37.2802 266.049 37.8636 266.805C38.4469 267.555 39.2359 267.93 40.2307 267.93C40.7932 267.93 41.2854 267.867 41.7073 267.742C42.1292 267.617 42.4781 267.406 42.7542 267.109V264.555H40.1214V263.336H44.2464V267.508ZM50.6136 261.844C50.3948 261.807 50.1578 261.789 49.9026 261.789C48.9547 261.789 48.3115 262.193 47.9729 263V269H46.5276V260.547H47.9339L47.9573 261.523C48.4313 260.768 49.1031 260.391 49.9729 260.391C50.2542 260.391 50.4677 260.427 50.6136 260.5V261.844ZM51.4104 264.695C51.4104 263.867 51.5719 263.122 51.8948 262.461C52.2229 261.799 52.6761 261.289 53.2542 260.93C53.8375 260.57 54.5016 260.391 55.2464 260.391C56.3974 260.391 57.3271 260.789 58.0354 261.586C58.749 262.383 59.1057 263.443 59.1057 264.766V264.867C59.1057 265.69 58.9469 266.43 58.6292 267.086C58.3167 267.737 57.8662 268.245 57.2776 268.609C56.6943 268.974 56.0224 269.156 55.262 269.156C54.1162 269.156 53.1865 268.758 52.4729 267.961C51.7646 267.164 51.4104 266.109 51.4104 264.797V264.695ZM52.8636 264.867C52.8636 265.805 53.0797 266.557 53.512 267.125C53.9495 267.693 54.5328 267.977 55.262 267.977C55.9964 267.977 56.5797 267.69 57.012 267.117C57.4443 266.539 57.6604 265.732 57.6604 264.695C57.6604 263.768 57.4391 263.018 56.9964 262.445C56.5589 261.867 55.9755 261.578 55.2464 261.578C54.5328 261.578 53.9573 261.862 53.5198 262.43C53.0823 262.997 52.8636 263.81 52.8636 264.867ZM68.4026 267.008L70.0276 260.547H71.4729L69.012 269H67.8401L65.7854 262.594L63.7854 269H62.6136L60.1604 260.547H61.5979L63.262 266.875L65.2307 260.547H66.3948L68.4026 267.008ZM74.9104 258.5V260.547H76.4886V261.664H74.9104V266.906C74.9104 267.245 74.9807 267.5 75.1214 267.672C75.262 267.839 75.5016 267.922 75.8401 267.922C76.0068 267.922 76.236 267.891 76.5276 267.828V269C76.1474 269.104 75.7776 269.156 75.4182 269.156C74.7724 269.156 74.2854 268.961 73.9573 268.57C73.6292 268.18 73.4651 267.625 73.4651 266.906V261.664H71.9261V260.547H73.4651V258.5H74.9104ZM79.6292 261.57C80.2698 260.784 81.1031 260.391 82.1292 260.391C83.9156 260.391 84.8167 261.398 84.8323 263.414V269H83.387V263.406C83.3818 262.797 83.2412 262.346 82.9651 262.055C82.6943 261.763 82.2698 261.617 81.6917 261.617C81.2229 261.617 80.8115 261.742 80.4573 261.992C80.1031 262.242 79.8271 262.57 79.6292 262.977V269H78.1839V257H79.6292V261.57ZM35.4729 287.93C34.1865 287.56 33.249 287.107 32.6604 286.57C32.0771 286.029 31.7854 285.362 31.7854 284.57C31.7854 283.674 32.1422 282.935 32.8557 282.352C33.5745 281.763 34.5068 281.469 35.6526 281.469C36.4339 281.469 37.1292 281.62 37.7386 281.922C38.3531 282.224 38.8271 282.641 39.1604 283.172C39.499 283.703 39.6682 284.284 39.6682 284.914H38.1604C38.1604 284.227 37.9417 283.688 37.5042 283.297C37.0667 282.901 36.4495 282.703 35.6526 282.703C34.913 282.703 34.3349 282.867 33.9182 283.195C33.5068 283.518 33.3011 283.969 33.3011 284.547C33.3011 285.01 33.4964 285.404 33.887 285.727C34.2828 286.044 34.9521 286.336 35.8948 286.602C36.8427 286.867 37.5823 287.161 38.1136 287.484C38.65 287.802 39.0458 288.174 39.3011 288.602C39.5615 289.029 39.6917 289.531 39.6917 290.109C39.6917 291.031 39.3323 291.771 38.6136 292.328C37.8948 292.88 36.9339 293.156 35.7307 293.156C34.9495 293.156 34.2203 293.008 33.5432 292.711C32.8662 292.409 32.3427 291.997 31.9729 291.477C31.6083 290.956 31.4261 290.365 31.4261 289.703H32.9339C32.9339 290.391 33.1865 290.935 33.6917 291.336C34.2021 291.732 34.8818 291.93 35.7307 291.93C36.5224 291.93 37.1292 291.768 37.5511 291.445C37.9729 291.122 38.1839 290.682 38.1839 290.125C38.1839 289.568 37.9886 289.138 37.5979 288.836C37.2073 288.529 36.499 288.227 35.4729 287.93ZM43.3557 282.5V284.547H44.9339V285.664H43.3557V290.906C43.3557 291.245 43.4261 291.5 43.5667 291.672C43.7073 291.839 43.9469 291.922 44.2854 291.922C44.4521 291.922 44.6813 291.891 44.9729 291.828V293C44.5927 293.104 44.2229 293.156 43.8636 293.156C43.2177 293.156 42.7307 292.961 42.4026 292.57C42.0745 292.18 41.9104 291.625 41.9104 290.906V285.664H40.3714V284.547H41.9104V282.5H43.3557ZM50.7151 285.844C50.4964 285.807 50.2594 285.789 50.0042 285.789C49.0563 285.789 48.413 286.193 48.0745 287V293H46.6292V284.547H48.0354L48.0589 285.523C48.5328 284.768 49.2047 284.391 50.0745 284.391C50.3557 284.391 50.5693 284.427 50.7151 284.5V285.844ZM56.9573 293C56.874 292.833 56.8063 292.536 56.7542 292.109C56.0823 292.807 55.2802 293.156 54.3479 293.156C53.5146 293.156 52.8297 292.922 52.2932 292.453C51.762 291.979 51.4964 291.38 51.4964 290.656C51.4964 289.776 51.8297 289.094 52.4964 288.609C53.1682 288.12 54.1109 287.875 55.3245 287.875H56.7307V287.211C56.7307 286.706 56.5797 286.305 56.2776 286.008C55.9755 285.706 55.5302 285.555 54.9417 285.555C54.4261 285.555 53.9938 285.685 53.6448 285.945C53.2958 286.206 53.1214 286.521 53.1214 286.891H51.6682C51.6682 286.469 51.8167 286.062 52.1136 285.672C52.4156 285.276 52.8219 284.964 53.3323 284.734C53.8479 284.505 54.413 284.391 55.0276 284.391C56.0016 284.391 56.7646 284.635 57.3167 285.125C57.8688 285.609 58.1552 286.279 58.1761 287.133V291.023C58.1761 291.799 58.275 292.417 58.4729 292.875V293H56.9573ZM54.5589 291.898C55.012 291.898 55.4417 291.781 55.8479 291.547C56.2542 291.312 56.5484 291.008 56.7307 290.633V288.898H55.5979C53.8271 288.898 52.9417 289.417 52.9417 290.453C52.9417 290.906 53.0927 291.26 53.3948 291.516C53.6969 291.771 54.0849 291.898 54.5589 291.898ZM62.4026 282.5V284.547H63.9807V285.664H62.4026V290.906C62.4026 291.245 62.4729 291.5 62.6136 291.672C62.7542 291.839 62.9938 291.922 63.3323 291.922C63.499 291.922 63.7281 291.891 64.0198 291.828V293C63.6396 293.104 63.2698 293.156 62.9104 293.156C62.2646 293.156 61.7776 292.961 61.4495 292.57C61.1214 292.18 60.9573 291.625 60.9573 290.906V285.664H59.4182V284.547H60.9573V282.5H62.4026ZM69.1839 293.156C68.038 293.156 67.1057 292.781 66.387 292.031C65.6682 291.276 65.3089 290.268 65.3089 289.008V288.742C65.3089 287.904 65.4677 287.156 65.7854 286.5C66.1083 285.839 66.5563 285.323 67.1292 284.953C67.7073 284.578 68.3323 284.391 69.0042 284.391C70.1031 284.391 70.9573 284.753 71.5667 285.477C72.1761 286.201 72.4807 287.237 72.4807 288.586V289.188H66.7542C66.775 290.021 67.0172 290.695 67.4807 291.211C67.9495 291.721 68.5432 291.977 69.262 291.977C69.7724 291.977 70.2047 291.872 70.5589 291.664C70.913 291.456 71.2229 291.18 71.4886 290.836L72.3714 291.523C71.663 292.612 70.6005 293.156 69.1839 293.156ZM69.0042 285.578C68.4208 285.578 67.9313 285.792 67.5354 286.219C67.1396 286.641 66.8948 287.234 66.8011 288H71.0354V287.891C70.9938 287.156 70.7958 286.589 70.4417 286.188C70.0875 285.781 69.6083 285.578 69.0042 285.578ZM73.8167 288.703C73.8167 287.385 74.1214 286.339 74.7307 285.562C75.3401 284.781 76.1474 284.391 77.1526 284.391C78.1839 284.391 78.9886 284.755 79.5667 285.484L79.637 284.547H80.9573V292.797C80.9573 293.891 80.6318 294.753 79.9807 295.383C79.3349 296.013 78.4651 296.328 77.3714 296.328C76.762 296.328 76.1656 296.198 75.5823 295.938C74.999 295.677 74.5537 295.32 74.2464 294.867L74.9964 294C75.6162 294.766 76.374 295.148 77.2698 295.148C77.9729 295.148 78.5198 294.951 78.9104 294.555C79.3063 294.159 79.5042 293.602 79.5042 292.883V292.156C78.9261 292.823 78.137 293.156 77.137 293.156C76.1474 293.156 75.3453 292.758 74.7307 291.961C74.1214 291.164 73.8167 290.078 73.8167 288.703ZM75.2698 288.867C75.2698 289.82 75.4651 290.57 75.8557 291.117C76.2464 291.659 76.7932 291.93 77.4964 291.93C78.4078 291.93 79.0771 291.516 79.5042 290.688V286.828C79.0615 286.021 78.3974 285.617 77.512 285.617C76.8089 285.617 76.2594 285.891 75.8636 286.438C75.4677 286.984 75.2698 287.794 75.2698 288.867ZM85.9104 290.883L87.8792 284.547H89.4261L86.0276 294.305C85.5016 295.711 84.6656 296.414 83.5198 296.414L83.2464 296.391L82.7073 296.289V295.117L83.0979 295.148C83.5875 295.148 83.9677 295.049 84.2386 294.852C84.5146 294.654 84.7412 294.292 84.9182 293.766L85.2386 292.906L82.2229 284.547H83.8011L85.9104 290.883Z" fill="#262626"/>
<path d="M258.92 279.466C258.92 310.483 234.135 335.618 203.573 335.618C173.011 335.618 148.226 310.483 148.226 279.466C148.226 248.448 173.011 223.313 203.573 223.313C234.135 223.313 258.92 248.448 258.92 279.466Z" stroke="#262626" stroke-width="0.763593"/>
<path d="M263.62 274.267C263.62 305.285 238.835 330.42 208.272 330.42C177.71 330.42 152.925 305.285 152.925 274.267C152.925 243.25 177.71 218.115 208.272 218.115C238.835 218.115 263.62 243.25 263.62 274.267Z" stroke="#262626" stroke-width="0.763593"/>
<path d="M255.077 272.534C255.077 303.552 230.292 328.687 199.729 328.687C169.167 328.687 144.382 303.552 144.382 272.534C144.382 241.517 169.167 216.382 199.729 216.382C230.292 216.382 255.077 241.517 255.077 272.534Z" stroke="#262626" stroke-width="0.763593"/>
<path d="M171.739 269.625L175.457 278.906L179.176 269.625H181.121V281H179.621V276.57L179.762 271.789L176.028 281H174.879L171.153 271.812L171.301 276.57V281H169.801V269.625H171.739ZM188.762 281C188.679 280.833 188.611 280.536 188.559 280.109C187.887 280.807 187.085 281.156 186.153 281.156C185.319 281.156 184.634 280.922 184.098 280.453C183.567 279.979 183.301 279.38 183.301 278.656C183.301 277.776 183.634 277.094 184.301 276.609C184.973 276.12 185.916 275.875 187.129 275.875H188.535V275.211C188.535 274.706 188.384 274.305 188.082 274.008C187.78 273.706 187.335 273.555 186.746 273.555C186.231 273.555 185.798 273.685 185.449 273.945C185.101 274.206 184.926 274.521 184.926 274.891H183.473C183.473 274.469 183.621 274.062 183.918 273.672C184.22 273.276 184.627 272.964 185.137 272.734C185.653 272.505 186.218 272.391 186.832 272.391C187.806 272.391 188.569 272.635 189.121 273.125C189.673 273.609 189.96 274.279 189.981 275.133V279.023C189.981 279.799 190.08 280.417 190.278 280.875V281H188.762ZM186.364 279.898C186.817 279.898 187.246 279.781 187.653 279.547C188.059 279.312 188.353 279.008 188.535 278.633V276.898H187.403C185.632 276.898 184.746 277.417 184.746 278.453C184.746 278.906 184.897 279.26 185.199 279.516C185.502 279.771 185.89 279.898 186.364 279.898ZM196.332 273.844C196.114 273.807 195.877 273.789 195.621 273.789C194.673 273.789 194.03 274.193 193.692 275V281H192.246V272.547H193.653L193.676 273.523C194.15 272.768 194.822 272.391 195.692 272.391C195.973 272.391 196.186 272.427 196.332 272.5V273.844ZM200.028 277.086L199.121 278.031V281H197.676V269H199.121V276.258L199.895 275.328L202.528 272.547H204.285L200.996 276.078L204.668 281H202.973L200.028 277.086ZM209.129 281.156C207.983 281.156 207.051 280.781 206.332 280.031C205.614 279.276 205.254 278.268 205.254 277.008V276.742C205.254 275.904 205.413 275.156 205.731 274.5C206.054 273.839 206.502 273.323 207.074 272.953C207.653 272.578 208.278 272.391 208.949 272.391C210.048 272.391 210.903 272.753 211.512 273.477C212.121 274.201 212.426 275.237 212.426 276.586V277.188H206.699C206.72 278.021 206.963 278.695 207.426 279.211C207.895 279.721 208.489 279.977 209.207 279.977C209.718 279.977 210.15 279.872 210.504 279.664C210.858 279.456 211.168 279.18 211.434 278.836L212.317 279.523C211.608 280.612 210.546 281.156 209.129 281.156ZM208.949 273.578C208.366 273.578 207.877 273.792 207.481 274.219C207.085 274.641 206.84 275.234 206.746 276H210.981V275.891C210.939 275.156 210.741 274.589 210.387 274.188C210.033 273.781 209.554 273.578 208.949 273.578ZM216.067 270.5V272.547H217.645V273.664H216.067V278.906C216.067 279.245 216.137 279.5 216.278 279.672C216.418 279.839 216.658 279.922 216.996 279.922C217.163 279.922 217.392 279.891 217.684 279.828V281C217.304 281.104 216.934 281.156 216.574 281.156C215.929 281.156 215.442 280.961 215.114 280.57C214.785 280.18 214.621 279.625 214.621 278.906V273.664H213.082V272.547H214.621V270.5H216.067ZM220.91 281H219.465V272.547H220.91V281ZM219.348 270.305C219.348 270.07 219.418 269.872 219.559 269.711C219.705 269.549 219.918 269.469 220.199 269.469C220.481 269.469 220.694 269.549 220.84 269.711C220.986 269.872 221.059 270.07 221.059 270.305C221.059 270.539 220.986 270.734 220.84 270.891C220.694 271.047 220.481 271.125 220.199 271.125C219.918 271.125 219.705 271.047 219.559 270.891C219.418 270.734 219.348 270.539 219.348 270.305ZM224.598 272.547L224.645 273.609C225.291 272.797 226.134 272.391 227.176 272.391C228.963 272.391 229.864 273.398 229.879 275.414V281H228.434V275.406C228.429 274.797 228.288 274.346 228.012 274.055C227.741 273.763 227.317 273.617 226.739 273.617C226.27 273.617 225.858 273.742 225.504 273.992C225.15 274.242 224.874 274.57 224.676 274.977V281H223.231V272.547H224.598ZM231.715 276.703C231.715 275.385 232.02 274.339 232.629 273.562C233.239 272.781 234.046 272.391 235.051 272.391C236.082 272.391 236.887 272.755 237.465 273.484L237.535 272.547H238.856V280.797C238.856 281.891 238.53 282.753 237.879 283.383C237.233 284.013 236.364 284.328 235.27 284.328C234.66 284.328 234.064 284.198 233.481 283.938C232.897 283.677 232.452 283.32 232.145 282.867L232.895 282C233.515 282.766 234.272 283.148 235.168 283.148C235.871 283.148 236.418 282.951 236.809 282.555C237.205 282.159 237.403 281.602 237.403 280.883V280.156C236.824 280.823 236.035 281.156 235.035 281.156C234.046 281.156 233.244 280.758 232.629 279.961C232.02 279.164 231.715 278.078 231.715 276.703ZM233.168 276.867C233.168 277.82 233.364 278.57 233.754 279.117C234.145 279.659 234.692 279.93 235.395 279.93C236.306 279.93 236.976 279.516 237.403 278.688V274.828C236.96 274.021 236.296 273.617 235.41 273.617C234.707 273.617 234.158 273.891 233.762 274.438C233.366 274.984 233.168 275.794 233.168 276.867Z" fill="#262626"/>
<path d="M850.92 279.466C850.92 310.483 826.135 335.618 795.573 335.618C765.011 335.618 740.226 310.483 740.226 279.466C740.226 248.448 765.011 223.313 795.573 223.313C826.135 223.313 850.92 248.448 850.92 279.466Z" stroke="#262626" stroke-width="0.763593"/>
<path d="M855.62 274.267C855.62 305.285 830.835 330.42 800.272 330.42C769.71 330.42 744.925 305.285 744.925 274.267C744.925 243.25 769.71 218.115 800.272 218.115C830.835 218.115 855.62 243.25 855.62 274.267Z" stroke="#262626" stroke-width="0.763593"/>
<path d="M847.077 272.534C847.077 303.552 822.292 328.687 791.729 328.687C761.167 328.687 736.382 303.552 736.382 272.534C736.382 241.517 761.167 216.382 791.729 216.382C822.292 216.382 847.077 241.517 847.077 272.534Z" stroke="#262626" stroke-width="0.763593"/>
<path d="M784.676 257.625V265.359C784.671 266.432 784.332 267.31 783.66 267.992C782.994 268.674 782.088 269.057 780.942 269.141L780.543 269.156C779.298 269.156 778.306 268.82 777.567 268.148C776.827 267.477 776.452 266.552 776.442 265.375V257.625H777.926V265.328C777.926 266.151 778.153 266.792 778.606 267.25C779.059 267.703 779.705 267.93 780.543 267.93C781.392 267.93 782.041 267.703 782.489 267.25C782.942 266.797 783.168 266.159 783.168 265.336V257.625H784.676ZM788.653 269H787.153V257.625H788.653V269ZM791.465 269.977H790.223L794.973 257.625H796.207L791.465 269.977ZM806.004 257.625V265.359C805.999 266.432 805.66 267.31 804.989 267.992C804.322 268.674 803.416 269.057 802.27 269.141L801.871 269.156C800.627 269.156 799.634 268.82 798.895 268.148C798.155 267.477 797.78 266.552 797.77 265.375V257.625H799.254V265.328C799.254 266.151 799.481 266.792 799.934 267.25C800.387 267.703 801.033 267.93 801.871 267.93C802.72 267.93 803.369 267.703 803.817 267.25C804.27 266.797 804.496 266.159 804.496 265.336V257.625H806.004ZM812.082 261.984L814.809 257.625H816.574L812.981 263.266L816.66 269H814.879L812.082 264.562L809.27 269H807.496L811.184 263.266L807.582 257.625H809.34L812.082 261.984ZM766.114 293V281.625H769.324C770.314 281.625 771.189 281.844 771.949 282.281C772.71 282.719 773.296 283.341 773.707 284.148C774.124 284.956 774.335 285.883 774.34 286.93V287.656C774.34 288.729 774.132 289.669 773.715 290.477C773.304 291.284 772.713 291.904 771.942 292.336C771.176 292.768 770.283 292.99 769.262 293H766.114ZM767.614 282.859V291.773H769.192C770.348 291.773 771.246 291.414 771.887 290.695C772.533 289.977 772.856 288.953 772.856 287.625V286.961C772.856 285.669 772.551 284.667 771.942 283.953C771.338 283.234 770.478 282.87 769.364 282.859H767.614ZM779.895 293.156C778.749 293.156 777.817 292.781 777.098 292.031C776.379 291.276 776.02 290.268 776.02 289.008V288.742C776.02 287.904 776.179 287.156 776.496 286.5C776.819 285.839 777.267 285.323 777.84 284.953C778.418 284.578 779.043 284.391 779.715 284.391C780.814 284.391 781.668 284.753 782.278 285.477C782.887 286.201 783.192 287.237 783.192 288.586V289.188H777.465C777.486 290.021 777.728 290.695 778.192 291.211C778.66 291.721 779.254 291.977 779.973 291.977C780.483 291.977 780.916 291.872 781.27 291.664C781.624 291.456 781.934 291.18 782.199 290.836L783.082 291.523C782.374 292.612 781.311 293.156 779.895 293.156ZM779.715 285.578C779.132 285.578 778.642 285.792 778.246 286.219C777.851 286.641 777.606 287.234 777.512 288H781.746V287.891C781.705 287.156 781.507 286.589 781.153 286.188C780.798 285.781 780.319 285.578 779.715 285.578ZM789.793 290.758C789.793 290.367 789.645 290.065 789.348 289.852C789.056 289.633 788.543 289.445 787.809 289.289C787.08 289.133 786.499 288.945 786.067 288.727C785.64 288.508 785.322 288.247 785.114 287.945C784.91 287.643 784.809 287.284 784.809 286.867C784.809 286.174 785.101 285.589 785.684 285.109C786.272 284.63 787.022 284.391 787.934 284.391C788.892 284.391 789.668 284.638 790.262 285.133C790.861 285.628 791.16 286.26 791.16 287.031H789.707C789.707 286.635 789.538 286.294 789.199 286.008C788.866 285.721 788.444 285.578 787.934 285.578C787.408 285.578 786.996 285.693 786.699 285.922C786.403 286.151 786.254 286.451 786.254 286.82C786.254 287.169 786.392 287.432 786.668 287.609C786.944 287.786 787.442 287.956 788.16 288.117C788.884 288.279 789.47 288.471 789.918 288.695C790.366 288.919 790.697 289.19 790.91 289.508C791.129 289.82 791.239 290.203 791.239 290.656C791.239 291.411 790.936 292.018 790.332 292.477C789.728 292.93 788.944 293.156 787.981 293.156C787.304 293.156 786.705 293.036 786.184 292.797C785.663 292.557 785.254 292.224 784.957 291.797C784.666 291.365 784.52 290.898 784.52 290.398H785.965C785.991 290.883 786.184 291.268 786.543 291.555C786.908 291.836 787.387 291.977 787.981 291.977C788.528 291.977 788.965 291.867 789.293 291.648C789.627 291.424 789.793 291.128 789.793 290.758ZM794.692 293H793.246V284.547H794.692V293ZM793.129 282.305C793.129 282.07 793.199 281.872 793.34 281.711C793.486 281.549 793.699 281.469 793.981 281.469C794.262 281.469 794.476 281.549 794.621 281.711C794.767 281.872 794.84 282.07 794.84 282.305C794.84 282.539 794.767 282.734 794.621 282.891C794.476 283.047 794.262 283.125 793.981 283.125C793.699 283.125 793.486 283.047 793.34 282.891C793.199 282.734 793.129 282.539 793.129 282.305ZM796.668 288.703C796.668 287.385 796.973 286.339 797.582 285.562C798.192 284.781 798.999 284.391 800.004 284.391C801.035 284.391 801.84 284.755 802.418 285.484L802.489 284.547H803.809V292.797C803.809 293.891 803.483 294.753 802.832 295.383C802.186 296.013 801.317 296.328 800.223 296.328C799.614 296.328 799.017 296.198 798.434 295.938C797.851 295.677 797.405 295.32 797.098 294.867L797.848 294C798.468 294.766 799.226 295.148 800.121 295.148C800.824 295.148 801.371 294.951 801.762 294.555C802.158 294.159 802.356 293.602 802.356 292.883V292.156C801.778 292.823 800.989 293.156 799.989 293.156C798.999 293.156 798.197 292.758 797.582 291.961C796.973 291.164 796.668 290.078 796.668 288.703ZM798.121 288.867C798.121 289.82 798.317 290.57 798.707 291.117C799.098 291.659 799.645 291.93 800.348 291.93C801.259 291.93 801.929 291.516 802.356 290.688V286.828C801.913 286.021 801.249 285.617 800.364 285.617C799.66 285.617 799.111 285.891 798.715 286.438C798.319 286.984 798.121 287.794 798.121 288.867ZM807.364 284.547L807.41 285.609C808.056 284.797 808.9 284.391 809.942 284.391C811.728 284.391 812.629 285.398 812.645 287.414V293H811.199V287.406C811.194 286.797 811.054 286.346 810.778 286.055C810.507 285.763 810.082 285.617 809.504 285.617C809.035 285.617 808.624 285.742 808.27 285.992C807.916 286.242 807.64 286.57 807.442 286.977V293H805.996V284.547H807.364ZM818.332 293.156C817.186 293.156 816.254 292.781 815.535 292.031C814.817 291.276 814.457 290.268 814.457 289.008V288.742C814.457 287.904 814.616 287.156 814.934 286.5C815.257 285.839 815.705 285.323 816.278 284.953C816.856 284.578 817.481 284.391 818.153 284.391C819.252 284.391 820.106 284.753 820.715 285.477C821.324 286.201 821.629 287.237 821.629 288.586V289.188H815.903C815.923 290.021 816.166 290.695 816.629 291.211C817.098 291.721 817.692 291.977 818.41 291.977C818.921 291.977 819.353 291.872 819.707 291.664C820.061 291.456 820.371 291.18 820.637 290.836L821.52 291.523C820.811 292.612 819.749 293.156 818.332 293.156ZM818.153 285.578C817.569 285.578 817.08 285.792 816.684 286.219C816.288 286.641 816.043 287.234 815.949 288H820.184V287.891C820.142 287.156 819.944 286.589 819.59 286.188C819.236 285.781 818.757 285.578 818.153 285.578ZM827.395 285.844C827.176 285.807 826.939 285.789 826.684 285.789C825.736 285.789 825.093 286.193 824.754 287V293H823.309V284.547H824.715L824.739 285.523C825.213 284.768 825.884 284.391 826.754 284.391C827.035 284.391 827.249 284.427 827.395 284.5V285.844Z" fill="#262626"/>
<path d="M650.92 129.466C650.92 160.483 626.135 185.618 595.573 185.618C565.011 185.618 540.226 160.483 540.226 129.466C540.226 98.4481 565.011 73.3129 595.573 73.3129C626.135 73.3129 650.92 98.4481 650.92 129.466Z" stroke="#262626" stroke-width="0.763593"/>
<path d="M655.62 124.267C655.62 155.285 630.835 180.42 600.272 180.42C569.71 180.42 544.925 155.285 544.925 124.267C544.925 93.2499 569.71 68.1147 600.272 68.1147C630.835 68.1147 655.62 93.2499 655.62 124.267Z" stroke="#262626" stroke-width="0.763593"/>
<path d="M647.077 122.534C647.077 153.552 622.292 178.687 591.729 178.687C561.167 178.687 536.382 153.552 536.382 122.534C536.382 91.517 561.167 66.3818 591.729 66.3818C622.292 66.3818 647.077 91.517 647.077 122.534Z" stroke="#262626" stroke-width="0.763593"/>
<path d="M574.989 119V107.625H578.199C579.189 107.625 580.064 107.844 580.824 108.281C581.585 108.719 582.171 109.341 582.582 110.148C582.999 110.956 583.21 111.883 583.215 112.93V113.656C583.215 114.729 583.007 115.669 582.59 116.477C582.179 117.284 581.588 117.904 580.817 118.336C580.051 118.768 579.158 118.99 578.137 119H574.989ZM576.489 108.859V117.773H578.067C579.223 117.773 580.121 117.414 580.762 116.695C581.408 115.977 581.731 114.953 581.731 113.625V112.961C581.731 111.669 581.426 110.667 580.817 109.953C580.213 109.234 579.353 108.87 578.239 108.859H576.489ZM586.832 119H585.387V110.547H586.832V119ZM585.27 108.305C585.27 108.07 585.34 107.872 585.481 107.711C585.627 107.549 585.84 107.469 586.121 107.469C586.403 107.469 586.616 107.549 586.762 107.711C586.908 107.872 586.981 108.07 586.981 108.305C586.981 108.539 586.908 108.734 586.762 108.891C586.616 109.047 586.403 109.125 586.121 109.125C585.84 109.125 585.627 109.047 585.481 108.891C585.34 108.734 585.27 108.539 585.27 108.305ZM588.809 114.703C588.809 113.385 589.114 112.339 589.723 111.562C590.332 110.781 591.14 110.391 592.145 110.391C593.176 110.391 593.981 110.755 594.559 111.484L594.629 110.547H595.949V118.797C595.949 119.891 595.624 120.753 594.973 121.383C594.327 122.013 593.457 122.328 592.364 122.328C591.754 122.328 591.158 122.198 590.574 121.938C589.991 121.677 589.546 121.32 589.239 120.867L589.989 120C590.608 120.766 591.366 121.148 592.262 121.148C592.965 121.148 593.512 120.951 593.903 120.555C594.298 120.159 594.496 119.602 594.496 118.883V118.156C593.918 118.823 593.129 119.156 592.129 119.156C591.14 119.156 590.338 118.758 589.723 117.961C589.114 117.164 588.809 116.078 588.809 114.703ZM590.262 114.867C590.262 115.82 590.457 116.57 590.848 117.117C591.239 117.659 591.785 117.93 592.489 117.93C593.4 117.93 594.069 117.516 594.496 116.688V112.828C594.054 112.021 593.39 111.617 592.504 111.617C591.801 111.617 591.252 111.891 590.856 112.438C590.46 112.984 590.262 113.794 590.262 114.867ZM599.707 119H598.262V110.547H599.707V119ZM598.145 108.305C598.145 108.07 598.215 107.872 598.356 107.711C598.502 107.549 598.715 107.469 598.996 107.469C599.278 107.469 599.491 107.549 599.637 107.711C599.783 107.872 599.856 108.07 599.856 108.305C599.856 108.539 599.783 108.734 599.637 108.891C599.491 109.047 599.278 109.125 598.996 109.125C598.715 109.125 598.502 109.047 598.356 108.891C598.215 108.734 598.145 108.539 598.145 108.305ZM603.989 108.5V110.547H605.567V111.664H603.989V116.906C603.989 117.245 604.059 117.5 604.199 117.672C604.34 117.839 604.58 117.922 604.918 117.922C605.085 117.922 605.314 117.891 605.606 117.828V119C605.226 119.104 604.856 119.156 604.496 119.156C603.851 119.156 603.364 118.961 603.035 118.57C602.707 118.18 602.543 117.625 602.543 116.906V111.664H601.004V110.547H602.543V108.5H603.989ZM612.481 119C612.397 118.833 612.33 118.536 612.278 118.109C611.606 118.807 610.804 119.156 609.871 119.156C609.038 119.156 608.353 118.922 607.817 118.453C607.285 117.979 607.02 117.38 607.02 116.656C607.02 115.776 607.353 115.094 608.02 114.609C608.692 114.12 609.634 113.875 610.848 113.875H612.254V113.211C612.254 112.706 612.103 112.305 611.801 112.008C611.499 111.706 611.054 111.555 610.465 111.555C609.949 111.555 609.517 111.685 609.168 111.945C608.819 112.206 608.645 112.521 608.645 112.891H607.192C607.192 112.469 607.34 112.062 607.637 111.672C607.939 111.276 608.345 110.964 608.856 110.734C609.371 110.505 609.936 110.391 610.551 110.391C611.525 110.391 612.288 110.635 612.84 111.125C613.392 111.609 613.679 112.279 613.699 113.133V117.023C613.699 117.799 613.798 118.417 613.996 118.875V119H612.481ZM610.082 117.898C610.535 117.898 610.965 117.781 611.371 117.547C611.778 117.312 612.072 117.008 612.254 116.633V114.898H611.121C609.351 114.898 608.465 115.417 608.465 116.453C608.465 116.906 608.616 117.26 608.918 117.516C609.22 117.771 609.608 117.898 610.082 117.898ZM617.535 119H616.09V107H617.535V119ZM563.739 131.625L567.457 140.906L571.176 131.625H573.121V143H571.621V138.57L571.762 133.789L568.028 143H566.879L563.153 133.812L563.301 138.57V143H561.801V131.625H563.739ZM580.762 143C580.679 142.833 580.611 142.536 580.559 142.109C579.887 142.807 579.085 143.156 578.153 143.156C577.319 143.156 576.634 142.922 576.098 142.453C575.567 141.979 575.301 141.38 575.301 140.656C575.301 139.776 575.634 139.094 576.301 138.609C576.973 138.12 577.916 137.875 579.129 137.875H580.535V137.211C580.535 136.706 580.384 136.305 580.082 136.008C579.78 135.706 579.335 135.555 578.746 135.555C578.231 135.555 577.798 135.685 577.449 135.945C577.101 136.206 576.926 136.521 576.926 136.891H575.473C575.473 136.469 575.621 136.062 575.918 135.672C576.22 135.276 576.627 134.964 577.137 134.734C577.653 134.505 578.218 134.391 578.832 134.391C579.806 134.391 580.569 134.635 581.121 135.125C581.673 135.609 581.96 136.279 581.981 137.133V141.023C581.981 141.799 582.08 142.417 582.278 142.875V143H580.762ZM578.364 141.898C578.817 141.898 579.246 141.781 579.653 141.547C580.059 141.312 580.353 141.008 580.535 140.633V138.898H579.403C577.632 138.898 576.746 139.417 576.746 140.453C576.746 140.906 576.897 141.26 577.199 141.516C577.502 141.771 577.89 141.898 578.364 141.898ZM588.332 135.844C588.114 135.807 587.877 135.789 587.621 135.789C586.673 135.789 586.03 136.193 585.692 137V143H584.246V134.547H585.653L585.676 135.523C586.15 134.768 586.822 134.391 587.692 134.391C587.973 134.391 588.186 134.427 588.332 134.5V135.844ZM592.028 139.086L591.121 140.031V143H589.676V131H591.121V138.258L591.895 137.328L594.528 134.547H596.285L592.996 138.078L596.668 143H594.973L592.028 139.086ZM601.129 143.156C599.983 143.156 599.051 142.781 598.332 142.031C597.614 141.276 597.254 140.268 597.254 139.008V138.742C597.254 137.904 597.413 137.156 597.731 136.5C598.054 135.839 598.502 135.323 599.074 134.953C599.653 134.578 600.278 134.391 600.949 134.391C602.048 134.391 602.903 134.753 603.512 135.477C604.121 136.201 604.426 137.237 604.426 138.586V139.188H598.699C598.72 140.021 598.963 140.695 599.426 141.211C599.895 141.721 600.489 141.977 601.207 141.977C601.718 141.977 602.15 141.872 602.504 141.664C602.858 141.456 603.168 141.18 603.434 140.836L604.317 141.523C603.608 142.612 602.546 143.156 601.129 143.156ZM600.949 135.578C600.366 135.578 599.877 135.792 599.481 136.219C599.085 136.641 598.84 137.234 598.746 138H602.981V137.891C602.939 137.156 602.741 136.589 602.387 136.188C602.033 135.781 601.554 135.578 600.949 135.578ZM608.067 132.5V134.547H609.645V135.664H608.067V140.906C608.067 141.245 608.137 141.5 608.278 141.672C608.418 141.839 608.658 141.922 608.996 141.922C609.163 141.922 609.392 141.891 609.684 141.828V143C609.304 143.104 608.934 143.156 608.574 143.156C607.929 143.156 607.442 142.961 607.114 142.57C606.785 142.18 606.621 141.625 606.621 140.906V135.664H605.082V134.547H606.621V132.5H608.067ZM612.91 143H611.465V134.547H612.91V143ZM611.348 132.305C611.348 132.07 611.418 131.872 611.559 131.711C611.705 131.549 611.918 131.469 612.199 131.469C612.481 131.469 612.694 131.549 612.84 131.711C612.986 131.872 613.059 132.07 613.059 132.305C613.059 132.539 612.986 132.734 612.84 132.891C612.694 133.047 612.481 133.125 612.199 133.125C611.918 133.125 611.705 133.047 611.559 132.891C611.418 132.734 611.348 132.539 611.348 132.305ZM616.598 134.547L616.645 135.609C617.291 134.797 618.134 134.391 619.176 134.391C620.963 134.391 621.864 135.398 621.879 137.414V143H620.434V137.406C620.429 136.797 620.288 136.346 620.012 136.055C619.741 135.763 619.317 135.617 618.739 135.617C618.27 135.617 617.858 135.742 617.504 135.992C617.15 136.242 616.874 136.57 616.676 136.977V143H615.231V134.547H616.598ZM623.715 138.703C623.715 137.385 624.02 136.339 624.629 135.562C625.239 134.781 626.046 134.391 627.051 134.391C628.082 134.391 628.887 134.755 629.465 135.484L629.535 134.547H630.856V142.797C630.856 143.891 630.53 144.753 629.879 145.383C629.233 146.013 628.364 146.328 627.27 146.328C626.66 146.328 626.064 146.198 625.481 145.938C624.897 145.677 624.452 145.32 624.145 144.867L624.895 144C625.515 144.766 626.272 145.148 627.168 145.148C627.871 145.148 628.418 144.951 628.809 144.555C629.205 144.159 629.403 143.602 629.403 142.883V142.156C628.824 142.823 628.035 143.156 627.035 143.156C626.046 143.156 625.244 142.758 624.629 141.961C624.02 141.164 623.715 140.078 623.715 138.703ZM625.168 138.867C625.168 139.82 625.364 140.57 625.754 141.117C626.145 141.659 626.692 141.93 627.395 141.93C628.306 141.93 628.976 141.516 629.403 140.688V136.828C628.96 136.021 628.296 135.617 627.41 135.617C626.707 135.617 626.158 135.891 625.762 136.438C625.366 136.984 625.168 137.794 625.168 138.867Z" fill="#262626"/>
<path d="M794.92 129.466C794.92 160.483 770.135 185.618 739.573 185.618C709.011 185.618 684.226 160.483 684.226 129.466C684.226 98.4481 709.011 73.3129 739.573 73.3129C770.135 73.3129 794.92 98.4481 794.92 129.466Z" stroke="#262626" stroke-width="0.763593"/>
<path d="M799.62 124.267C799.62 155.285 774.835 180.42 744.272 180.42C713.71 180.42 688.925 155.285 688.925 124.267C688.925 93.2499 713.71 68.1147 744.272 68.1147C774.835 68.1147 799.62 93.2499 799.62 124.267Z" stroke="#262626" stroke-width="0.763593"/>
<path d="M791.077 122.534C791.077 153.552 766.292 178.687 735.729 178.687C705.167 178.687 680.382 153.552 680.382 122.534C680.382 91.517 705.167 66.3818 735.729 66.3818C766.292 66.3818 791.077 91.517 791.077 122.534Z" stroke="#262626" stroke-width="0.763593"/>
<path d="M710.207 113.93C708.921 113.56 707.983 113.107 707.395 112.57C706.811 112.029 706.52 111.362 706.52 110.57C706.52 109.674 706.877 108.935 707.59 108.352C708.309 107.763 709.241 107.469 710.387 107.469C711.168 107.469 711.864 107.62 712.473 107.922C713.088 108.224 713.561 108.641 713.895 109.172C714.233 109.703 714.403 110.284 714.403 110.914H712.895C712.895 110.227 712.676 109.688 712.239 109.297C711.801 108.901 711.184 108.703 710.387 108.703C709.647 108.703 709.069 108.867 708.653 109.195C708.241 109.518 708.035 109.969 708.035 110.547C708.035 111.01 708.231 111.404 708.621 111.727C709.017 112.044 709.686 112.336 710.629 112.602C711.577 112.867 712.317 113.161 712.848 113.484C713.384 113.802 713.78 114.174 714.035 114.602C714.296 115.029 714.426 115.531 714.426 116.109C714.426 117.031 714.067 117.771 713.348 118.328C712.629 118.88 711.668 119.156 710.465 119.156C709.684 119.156 708.955 119.008 708.278 118.711C707.601 118.409 707.077 117.997 706.707 117.477C706.343 116.956 706.16 116.365 706.16 115.703H707.668C707.668 116.391 707.921 116.935 708.426 117.336C708.936 117.732 709.616 117.93 710.465 117.93C711.257 117.93 711.864 117.768 712.285 117.445C712.707 117.122 712.918 116.682 712.918 116.125C712.918 115.568 712.723 115.138 712.332 114.836C711.942 114.529 711.233 114.227 710.207 113.93ZM721.348 119C721.265 118.833 721.197 118.536 721.145 118.109C720.473 118.807 719.671 119.156 718.739 119.156C717.905 119.156 717.22 118.922 716.684 118.453C716.153 117.979 715.887 117.38 715.887 116.656C715.887 115.776 716.22 115.094 716.887 114.609C717.559 114.12 718.502 113.875 719.715 113.875H721.121V113.211C721.121 112.706 720.97 112.305 720.668 112.008C720.366 111.706 719.921 111.555 719.332 111.555C718.817 111.555 718.384 111.685 718.035 111.945C717.686 112.206 717.512 112.521 717.512 112.891H716.059C716.059 112.469 716.207 112.062 716.504 111.672C716.806 111.276 717.213 110.964 717.723 110.734C718.239 110.505 718.804 110.391 719.418 110.391C720.392 110.391 721.155 110.635 721.707 111.125C722.259 111.609 722.546 112.279 722.567 113.133V117.023C722.567 117.799 722.666 118.417 722.864 118.875V119H721.348ZM718.949 117.898C719.403 117.898 719.832 117.781 720.239 117.547C720.645 117.312 720.939 117.008 721.121 116.633V114.898H719.989C718.218 114.898 717.332 115.417 717.332 116.453C717.332 116.906 717.483 117.26 717.785 117.516C718.088 117.771 718.476 117.898 718.949 117.898ZM726.403 119H724.957V107H726.403V119ZM732.231 119.156C731.085 119.156 730.153 118.781 729.434 118.031C728.715 117.276 728.356 116.268 728.356 115.008V114.742C728.356 113.904 728.515 113.156 728.832 112.5C729.155 111.839 729.603 111.323 730.176 110.953C730.754 110.578 731.379 110.391 732.051 110.391C733.15 110.391 734.004 110.753 734.614 111.477C735.223 112.201 735.528 113.237 735.528 114.586V115.188H729.801C729.822 116.021 730.064 116.695 730.528 117.211C730.996 117.721 731.59 117.977 732.309 117.977C732.819 117.977 733.252 117.872 733.606 117.664C733.96 117.456 734.27 117.18 734.535 116.836L735.418 117.523C734.71 118.612 733.647 119.156 732.231 119.156ZM732.051 111.578C731.468 111.578 730.978 111.792 730.582 112.219C730.186 112.641 729.942 113.234 729.848 114H734.082V113.891C734.041 113.156 733.843 112.589 733.489 112.188C733.134 111.781 732.655 111.578 732.051 111.578ZM742.129 116.758C742.129 116.367 741.981 116.065 741.684 115.852C741.392 115.633 740.879 115.445 740.145 115.289C739.416 115.133 738.835 114.945 738.403 114.727C737.976 114.508 737.658 114.247 737.449 113.945C737.246 113.643 737.145 113.284 737.145 112.867C737.145 112.174 737.436 111.589 738.02 111.109C738.608 110.63 739.358 110.391 740.27 110.391C741.228 110.391 742.004 110.638 742.598 111.133C743.197 111.628 743.496 112.26 743.496 113.031H742.043C742.043 112.635 741.874 112.294 741.535 112.008C741.202 111.721 740.78 111.578 740.27 111.578C739.744 111.578 739.332 111.693 739.035 111.922C738.739 112.151 738.59 112.451 738.59 112.82C738.59 113.169 738.728 113.432 739.004 113.609C739.28 113.786 739.778 113.956 740.496 114.117C741.22 114.279 741.806 114.471 742.254 114.695C742.702 114.919 743.033 115.19 743.246 115.508C743.465 115.82 743.574 116.203 743.574 116.656C743.574 117.411 743.272 118.018 742.668 118.477C742.064 118.93 741.28 119.156 740.317 119.156C739.64 119.156 739.041 119.036 738.52 118.797C737.999 118.557 737.59 118.224 737.293 117.797C737.002 117.365 736.856 116.898 736.856 116.398H738.301C738.327 116.883 738.52 117.268 738.879 117.555C739.244 117.836 739.723 117.977 740.317 117.977C740.864 117.977 741.301 117.867 741.629 117.648C741.963 117.424 742.129 117.128 742.129 116.758ZM754.645 119C754.561 118.833 754.494 118.536 754.442 118.109C753.77 118.807 752.968 119.156 752.035 119.156C751.202 119.156 750.517 118.922 749.981 118.453C749.449 117.979 749.184 117.38 749.184 116.656C749.184 115.776 749.517 115.094 750.184 114.609C750.856 114.12 751.798 113.875 753.012 113.875H754.418V113.211C754.418 112.706 754.267 112.305 753.965 112.008C753.663 111.706 753.218 111.555 752.629 111.555C752.114 111.555 751.681 111.685 751.332 111.945C750.983 112.206 750.809 112.521 750.809 112.891H749.356C749.356 112.469 749.504 112.062 749.801 111.672C750.103 111.276 750.509 110.964 751.02 110.734C751.535 110.505 752.101 110.391 752.715 110.391C753.689 110.391 754.452 110.635 755.004 111.125C755.556 111.609 755.843 112.279 755.864 113.133V117.023C755.864 117.799 755.963 118.417 756.16 118.875V119H754.645ZM752.246 117.898C752.699 117.898 753.129 117.781 753.535 117.547C753.942 117.312 754.236 117.008 754.418 116.633V114.898H753.285C751.515 114.898 750.629 115.417 750.629 116.453C750.629 116.906 750.78 117.26 751.082 117.516C751.384 117.771 751.772 117.898 752.246 117.898ZM759.496 110.547L759.543 111.609C760.189 110.797 761.033 110.391 762.074 110.391C763.861 110.391 764.762 111.398 764.778 113.414V119H763.332V113.406C763.327 112.797 763.186 112.346 762.91 112.055C762.64 111.763 762.215 111.617 761.637 111.617C761.168 111.617 760.757 111.742 760.403 111.992C760.048 112.242 759.772 112.57 759.574 112.977V119H758.129V110.547H759.496ZM766.606 114.703C766.606 113.406 766.913 112.365 767.528 111.578C768.142 110.786 768.947 110.391 769.942 110.391C770.931 110.391 771.715 110.729 772.293 111.406V107H773.739V119H772.41L772.34 118.094C771.762 118.802 770.957 119.156 769.926 119.156C768.947 119.156 768.147 118.755 767.528 117.953C766.913 117.151 766.606 116.104 766.606 114.812V114.703ZM768.051 114.867C768.051 115.826 768.249 116.576 768.645 117.117C769.041 117.659 769.588 117.93 770.285 117.93C771.202 117.93 771.871 117.518 772.293 116.695V112.812C771.861 112.016 771.197 111.617 770.301 111.617C769.593 111.617 769.041 111.891 768.645 112.438C768.249 112.984 768.051 113.794 768.051 114.867ZM697.699 138.547V143H696.199V131.625H700.395C701.64 131.625 702.614 131.943 703.317 132.578C704.025 133.214 704.379 134.055 704.379 135.102C704.379 136.206 704.033 137.057 703.34 137.656C702.653 138.25 701.666 138.547 700.379 138.547H697.699ZM697.699 137.32H700.395C701.197 137.32 701.811 137.133 702.239 136.758C702.666 136.378 702.879 135.831 702.879 135.117C702.879 134.44 702.666 133.898 702.239 133.492C701.811 133.086 701.226 132.875 700.481 132.859H697.699V137.32ZM711.192 143C711.108 142.833 711.041 142.536 710.989 142.109C710.317 142.807 709.515 143.156 708.582 143.156C707.749 143.156 707.064 142.922 706.528 142.453C705.996 141.979 705.731 141.38 705.731 140.656C705.731 139.776 706.064 139.094 706.731 138.609C707.403 138.12 708.345 137.875 709.559 137.875H710.965V137.211C710.965 136.706 710.814 136.305 710.512 136.008C710.21 135.706 709.765 135.555 709.176 135.555C708.66 135.555 708.228 135.685 707.879 135.945C707.53 136.206 707.356 136.521 707.356 136.891H705.903C705.903 136.469 706.051 136.062 706.348 135.672C706.65 135.276 707.056 134.964 707.567 134.734C708.082 134.505 708.647 134.391 709.262 134.391C710.236 134.391 710.999 134.635 711.551 135.125C712.103 135.609 712.39 136.279 712.41 137.133V141.023C712.41 141.799 712.509 142.417 712.707 142.875V143H711.192ZM708.793 141.898C709.246 141.898 709.676 141.781 710.082 141.547C710.489 141.312 710.783 141.008 710.965 140.633V138.898H709.832C708.061 138.898 707.176 139.417 707.176 140.453C707.176 140.906 707.327 141.26 707.629 141.516C707.931 141.771 708.319 141.898 708.793 141.898ZM718.762 135.844C718.543 135.807 718.306 135.789 718.051 135.789C717.103 135.789 716.46 136.193 716.121 137V143H714.676V134.547H716.082L716.106 135.523C716.58 134.768 717.252 134.391 718.121 134.391C718.403 134.391 718.616 134.427 718.762 134.5V135.844ZM722.449 132.5V134.547H724.028V135.664H722.449V140.906C722.449 141.245 722.52 141.5 722.66 141.672C722.801 141.839 723.041 141.922 723.379 141.922C723.546 141.922 723.775 141.891 724.067 141.828V143C723.686 143.104 723.317 143.156 722.957 143.156C722.311 143.156 721.824 142.961 721.496 142.57C721.168 142.18 721.004 141.625 721.004 140.906V135.664H719.465V134.547H721.004V132.5H722.449ZM727.09 134.547L727.137 135.609C727.783 134.797 728.627 134.391 729.668 134.391C731.455 134.391 732.356 135.398 732.371 137.414V143H730.926V137.406C730.921 136.797 730.78 136.346 730.504 136.055C730.233 135.763 729.809 135.617 729.231 135.617C728.762 135.617 728.351 135.742 727.996 135.992C727.642 136.242 727.366 136.57 727.168 136.977V143H725.723V134.547H727.09ZM738.059 143.156C736.913 143.156 735.981 142.781 735.262 142.031C734.543 141.276 734.184 140.268 734.184 139.008V138.742C734.184 137.904 734.343 137.156 734.66 136.5C734.983 135.839 735.431 135.323 736.004 134.953C736.582 134.578 737.207 134.391 737.879 134.391C738.978 134.391 739.832 134.753 740.442 135.477C741.051 136.201 741.356 137.237 741.356 138.586V139.188H735.629C735.65 140.021 735.892 140.695 736.356 141.211C736.824 141.721 737.418 141.977 738.137 141.977C738.647 141.977 739.08 141.872 739.434 141.664C739.788 141.456 740.098 141.18 740.364 140.836L741.246 141.523C740.538 142.612 739.476 143.156 738.059 143.156ZM737.879 135.578C737.296 135.578 736.806 135.792 736.41 136.219C736.015 136.641 735.77 137.234 735.676 138H739.91V137.891C739.869 137.156 739.671 136.589 739.317 136.188C738.963 135.781 738.483 135.578 737.879 135.578ZM747.121 135.844C746.903 135.807 746.666 135.789 746.41 135.789C745.463 135.789 744.819 136.193 744.481 137V143H743.035V134.547H744.442L744.465 135.523C744.939 134.768 745.611 134.391 746.481 134.391C746.762 134.391 746.976 134.427 747.121 134.5V135.844ZM753.379 140.758C753.379 140.367 753.231 140.065 752.934 139.852C752.642 139.633 752.129 139.445 751.395 139.289C750.666 139.133 750.085 138.945 749.653 138.727C749.226 138.508 748.908 138.247 748.699 137.945C748.496 137.643 748.395 137.284 748.395 136.867C748.395 136.174 748.686 135.589 749.27 135.109C749.858 134.63 750.608 134.391 751.52 134.391C752.478 134.391 753.254 134.638 753.848 135.133C754.447 135.628 754.746 136.26 754.746 137.031H753.293C753.293 136.635 753.124 136.294 752.785 136.008C752.452 135.721 752.03 135.578 751.52 135.578C750.994 135.578 750.582 135.693 750.285 135.922C749.989 136.151 749.84 136.451 749.84 136.82C749.84 137.169 749.978 137.432 750.254 137.609C750.53 137.786 751.028 137.956 751.746 138.117C752.47 138.279 753.056 138.471 753.504 138.695C753.952 138.919 754.283 139.19 754.496 139.508C754.715 139.82 754.824 140.203 754.824 140.656C754.824 141.411 754.522 142.018 753.918 142.477C753.314 142.93 752.53 143.156 751.567 143.156C750.89 143.156 750.291 143.036 749.77 142.797C749.249 142.557 748.84 142.224 748.543 141.797C748.252 141.365 748.106 140.898 748.106 140.398H749.551C749.577 140.883 749.77 141.268 750.129 141.555C750.494 141.836 750.973 141.977 751.567 141.977C752.114 141.977 752.551 141.867 752.879 141.648C753.213 141.424 753.379 141.128 753.379 140.758ZM758.153 135.57C758.793 134.784 759.627 134.391 760.653 134.391C762.439 134.391 763.34 135.398 763.356 137.414V143H761.91V137.406C761.905 136.797 761.765 136.346 761.489 136.055C761.218 135.763 760.793 135.617 760.215 135.617C759.746 135.617 759.335 135.742 758.981 135.992C758.627 136.242 758.351 136.57 758.153 136.977V143H756.707V131H758.153V135.57ZM767.09 143H765.645V134.547H767.09V143ZM765.528 132.305C765.528 132.07 765.598 131.872 765.739 131.711C765.884 131.549 766.098 131.469 766.379 131.469C766.66 131.469 766.874 131.549 767.02 131.711C767.166 131.872 767.239 132.07 767.239 132.305C767.239 132.539 767.166 132.734 767.02 132.891C766.874 133.047 766.66 133.125 766.379 133.125C766.098 133.125 765.884 133.047 765.739 132.891C765.598 132.734 765.528 132.539 765.528 132.305ZM776.551 138.867C776.551 140.154 776.257 141.19 775.668 141.977C775.08 142.763 774.283 143.156 773.278 143.156C772.252 143.156 771.444 142.831 770.856 142.18V146.25H769.41V134.547H770.731L770.801 135.484C771.39 134.755 772.207 134.391 773.254 134.391C774.27 134.391 775.072 134.773 775.66 135.539C776.254 136.305 776.551 137.37 776.551 138.734V138.867ZM775.106 138.703C775.106 137.75 774.903 136.997 774.496 136.445C774.09 135.893 773.533 135.617 772.824 135.617C771.949 135.617 771.293 136.005 770.856 136.781V140.82C771.288 141.591 771.949 141.977 772.84 141.977C773.533 141.977 774.082 141.703 774.489 141.156C774.9 140.604 775.106 139.786 775.106 138.703ZM783.317 140.758C783.317 140.367 783.168 140.065 782.871 139.852C782.58 139.633 782.067 139.445 781.332 139.289C780.603 139.133 780.022 138.945 779.59 138.727C779.163 138.508 778.845 138.247 778.637 137.945C778.434 137.643 778.332 137.284 778.332 136.867C778.332 136.174 778.624 135.589 779.207 135.109C779.796 134.63 780.546 134.391 781.457 134.391C782.416 134.391 783.192 134.638 783.785 135.133C784.384 135.628 784.684 136.26 784.684 137.031H783.231C783.231 136.635 783.061 136.294 782.723 136.008C782.39 135.721 781.968 135.578 781.457 135.578C780.931 135.578 780.52 135.693 780.223 135.922C779.926 136.151 779.778 136.451 779.778 136.82C779.778 137.169 779.916 137.432 780.192 137.609C780.468 137.786 780.965 137.956 781.684 138.117C782.408 138.279 782.994 138.471 783.442 138.695C783.89 138.919 784.22 139.19 784.434 139.508C784.653 139.82 784.762 140.203 784.762 140.656C784.762 141.411 784.46 142.018 783.856 142.477C783.252 142.93 782.468 143.156 781.504 143.156C780.827 143.156 780.228 143.036 779.707 142.797C779.186 142.557 778.778 142.224 778.481 141.797C778.189 141.365 778.043 140.898 778.043 140.398H779.489C779.515 140.883 779.707 141.268 780.067 141.555C780.431 141.836 780.91 141.977 781.504 141.977C782.051 141.977 782.489 141.867 782.817 141.648C783.15 141.424 783.317 141.128 783.317 140.758Z" fill="#262626"/>
<path d="M706.92 279.466C706.92 310.483 682.135 335.618 651.573 335.618C621.011 335.618 596.226 310.483 596.226 279.466C596.226 248.448 621.011 223.313 651.573 223.313C682.135 223.313 706.92 248.448 706.92 279.466Z" stroke="#262626" stroke-width="0.763593"/>
<path d="M711.62 274.267C711.62 305.285 686.835 330.42 656.272 330.42C625.71 330.42 600.925 305.285 600.925 274.267C600.925 243.25 625.71 218.115 656.272 218.115C686.835 218.115 711.62 243.25 711.62 274.267Z" stroke="#262626" stroke-width="0.763593"/>
<path d="M703.077 272.534C703.077 303.552 678.292 328.687 647.729 328.687C617.167 328.687 592.382 303.552 592.382 272.534C592.382 241.517 617.167 216.382 647.729 216.382C678.292 216.382 703.077 241.517 703.077 272.534Z" stroke="#262626" stroke-width="0.763593"/>
<path d="M604.137 281V269.625H607.348C608.338 269.625 609.213 269.844 609.973 270.281C610.733 270.719 611.319 271.341 611.731 272.148C612.147 272.956 612.358 273.883 612.364 274.93V275.656C612.364 276.729 612.155 277.669 611.739 278.477C611.327 279.284 610.736 279.904 609.965 280.336C609.199 280.768 608.306 280.99 607.285 281H604.137ZM605.637 270.859V279.773H607.215C608.371 279.773 609.27 279.414 609.91 278.695C610.556 277.977 610.879 276.953 610.879 275.625V274.961C610.879 273.669 610.574 272.667 609.965 271.953C609.361 271.234 608.502 270.87 607.387 270.859H605.637ZM619.629 281C619.546 280.833 619.478 280.536 619.426 280.109C618.754 280.807 617.952 281.156 617.02 281.156C616.186 281.156 615.502 280.922 614.965 280.453C614.434 279.979 614.168 279.38 614.168 278.656C614.168 277.776 614.502 277.094 615.168 276.609C615.84 276.12 616.783 275.875 617.996 275.875H619.403V275.211C619.403 274.706 619.252 274.305 618.949 274.008C618.647 273.706 618.202 273.555 617.614 273.555C617.098 273.555 616.666 273.685 616.317 273.945C615.968 274.206 615.793 274.521 615.793 274.891H614.34C614.34 274.469 614.489 274.062 614.785 273.672C615.088 273.276 615.494 272.964 616.004 272.734C616.52 272.505 617.085 272.391 617.699 272.391C618.673 272.391 619.436 272.635 619.989 273.125C620.541 273.609 620.827 274.279 620.848 275.133V279.023C620.848 279.799 620.947 280.417 621.145 280.875V281H619.629ZM617.231 279.898C617.684 279.898 618.114 279.781 618.52 279.547C618.926 279.312 619.22 279.008 619.403 278.633V276.898H618.27C616.499 276.898 615.614 277.417 615.614 278.453C615.614 278.906 615.765 279.26 616.067 279.516C616.369 279.771 616.757 279.898 617.231 279.898ZM625.074 270.5V272.547H626.653V273.664H625.074V278.906C625.074 279.245 625.145 279.5 625.285 279.672C625.426 279.839 625.666 279.922 626.004 279.922C626.171 279.922 626.4 279.891 626.692 279.828V281C626.311 281.104 625.942 281.156 625.582 281.156C624.936 281.156 624.449 280.961 624.121 280.57C623.793 280.18 623.629 279.625 623.629 278.906V273.664H622.09V272.547H623.629V270.5H625.074ZM633.567 281C633.483 280.833 633.416 280.536 633.364 280.109C632.692 280.807 631.89 281.156 630.957 281.156C630.124 281.156 629.439 280.922 628.903 280.453C628.371 279.979 628.106 279.38 628.106 278.656C628.106 277.776 628.439 277.094 629.106 276.609C629.778 276.12 630.72 275.875 631.934 275.875H633.34V275.211C633.34 274.706 633.189 274.305 632.887 274.008C632.585 273.706 632.14 273.555 631.551 273.555C631.035 273.555 630.603 273.685 630.254 273.945C629.905 274.206 629.731 274.521 629.731 274.891H628.278C628.278 274.469 628.426 274.062 628.723 273.672C629.025 273.276 629.431 272.964 629.942 272.734C630.457 272.505 631.022 272.391 631.637 272.391C632.611 272.391 633.374 272.635 633.926 273.125C634.478 273.609 634.765 274.279 634.785 275.133V279.023C634.785 279.799 634.884 280.417 635.082 280.875V281H633.567ZM631.168 279.898C631.621 279.898 632.051 279.781 632.457 279.547C632.864 279.312 633.158 279.008 633.34 278.633V276.898H632.207C630.436 276.898 629.551 277.417 629.551 278.453C629.551 278.906 629.702 279.26 630.004 279.516C630.306 279.771 630.694 279.898 631.168 279.898ZM644.598 275.93C643.311 275.56 642.374 275.107 641.785 274.57C641.202 274.029 640.91 273.362 640.91 272.57C640.91 271.674 641.267 270.935 641.981 270.352C642.699 269.763 643.632 269.469 644.778 269.469C645.559 269.469 646.254 269.62 646.864 269.922C647.478 270.224 647.952 270.641 648.285 271.172C648.624 271.703 648.793 272.284 648.793 272.914H647.285C647.285 272.227 647.067 271.688 646.629 271.297C646.192 270.901 645.574 270.703 644.778 270.703C644.038 270.703 643.46 270.867 643.043 271.195C642.632 271.518 642.426 271.969 642.426 272.547C642.426 273.01 642.621 273.404 643.012 273.727C643.408 274.044 644.077 274.336 645.02 274.602C645.968 274.867 646.707 275.161 647.239 275.484C647.775 275.802 648.171 276.174 648.426 276.602C648.686 277.029 648.817 277.531 648.817 278.109C648.817 279.031 648.457 279.771 647.739 280.328C647.02 280.88 646.059 281.156 644.856 281.156C644.074 281.156 643.345 281.008 642.668 280.711C641.991 280.409 641.468 279.997 641.098 279.477C640.733 278.956 640.551 278.365 640.551 277.703H642.059C642.059 278.391 642.311 278.935 642.817 279.336C643.327 279.732 644.007 279.93 644.856 279.93C645.647 279.93 646.254 279.768 646.676 279.445C647.098 279.122 647.309 278.682 647.309 278.125C647.309 277.568 647.114 277.138 646.723 276.836C646.332 276.529 645.624 276.227 644.598 275.93ZM653.91 279.977C654.426 279.977 654.877 279.82 655.262 279.508C655.647 279.195 655.861 278.805 655.903 278.336H657.27C657.244 278.82 657.077 279.281 656.77 279.719C656.463 280.156 656.051 280.505 655.535 280.766C655.025 281.026 654.483 281.156 653.91 281.156C652.759 281.156 651.843 280.773 651.16 280.008C650.483 279.237 650.145 278.185 650.145 276.852V276.609C650.145 275.786 650.296 275.055 650.598 274.414C650.9 273.773 651.332 273.276 651.895 272.922C652.463 272.568 653.132 272.391 653.903 272.391C654.851 272.391 655.637 272.674 656.262 273.242C656.892 273.81 657.228 274.547 657.27 275.453H655.903C655.861 274.906 655.653 274.458 655.278 274.109C654.908 273.755 654.449 273.578 653.903 273.578C653.168 273.578 652.598 273.844 652.192 274.375C651.791 274.901 651.59 275.664 651.59 276.664V276.938C651.59 277.911 651.791 278.661 652.192 279.188C652.593 279.714 653.166 279.977 653.91 279.977ZM660.465 281H659.02V272.547H660.465V281ZM658.903 270.305C658.903 270.07 658.973 269.872 659.114 269.711C659.259 269.549 659.473 269.469 659.754 269.469C660.035 269.469 660.249 269.549 660.395 269.711C660.541 269.872 660.614 270.07 660.614 270.305C660.614 270.539 660.541 270.734 660.395 270.891C660.249 271.047 660.035 271.125 659.754 271.125C659.473 271.125 659.259 271.047 659.114 270.891C658.973 270.734 658.903 270.539 658.903 270.305ZM666.293 281.156C665.147 281.156 664.215 280.781 663.496 280.031C662.778 279.276 662.418 278.268 662.418 277.008V276.742C662.418 275.904 662.577 275.156 662.895 274.5C663.218 273.839 663.666 273.323 664.239 272.953C664.817 272.578 665.442 272.391 666.114 272.391C667.213 272.391 668.067 272.753 668.676 273.477C669.285 274.201 669.59 275.237 669.59 276.586V277.188H663.864C663.884 278.021 664.127 278.695 664.59 279.211C665.059 279.721 665.653 279.977 666.371 279.977C666.882 279.977 667.314 279.872 667.668 279.664C668.022 279.456 668.332 279.18 668.598 278.836L669.481 279.523C668.772 280.612 667.71 281.156 666.293 281.156ZM666.114 273.578C665.53 273.578 665.041 273.792 664.645 274.219C664.249 274.641 664.004 275.234 663.91 276H668.145V275.891C668.103 275.156 667.905 274.589 667.551 274.188C667.197 273.781 666.718 273.578 666.114 273.578ZM672.637 272.547L672.684 273.609C673.33 272.797 674.173 272.391 675.215 272.391C677.002 272.391 677.903 273.398 677.918 275.414V281H676.473V275.406C676.468 274.797 676.327 274.346 676.051 274.055C675.78 273.763 675.356 273.617 674.778 273.617C674.309 273.617 673.897 273.742 673.543 273.992C673.189 274.242 672.913 274.57 672.715 274.977V281H671.27V272.547H672.637ZM682.059 270.5V272.547H683.637V273.664H682.059V278.906C682.059 279.245 682.129 279.5 682.27 279.672C682.41 279.839 682.65 279.922 682.989 279.922C683.155 279.922 683.384 279.891 683.676 279.828V281C683.296 281.104 682.926 281.156 682.567 281.156C681.921 281.156 681.434 280.961 681.106 280.57C680.778 280.18 680.614 279.625 680.614 278.906V273.664H679.074V272.547H680.614V270.5H682.059ZM686.903 281H685.457V272.547H686.903V281ZM685.34 270.305C685.34 270.07 685.41 269.872 685.551 269.711C685.697 269.549 685.91 269.469 686.192 269.469C686.473 269.469 686.686 269.549 686.832 269.711C686.978 269.872 687.051 270.07 687.051 270.305C687.051 270.539 686.978 270.734 686.832 270.891C686.686 271.047 686.473 271.125 686.192 271.125C685.91 271.125 685.697 271.047 685.551 270.891C685.41 270.734 685.34 270.539 685.34 270.305ZM694.145 278.758C694.145 278.367 693.996 278.065 693.699 277.852C693.408 277.633 692.895 277.445 692.16 277.289C691.431 277.133 690.851 276.945 690.418 276.727C689.991 276.508 689.673 276.247 689.465 275.945C689.262 275.643 689.16 275.284 689.16 274.867C689.16 274.174 689.452 273.589 690.035 273.109C690.624 272.63 691.374 272.391 692.285 272.391C693.244 272.391 694.02 272.638 694.614 273.133C695.213 273.628 695.512 274.26 695.512 275.031H694.059C694.059 274.635 693.89 274.294 693.551 274.008C693.218 273.721 692.796 273.578 692.285 273.578C691.759 273.578 691.348 273.693 691.051 273.922C690.754 274.151 690.606 274.451 690.606 274.82C690.606 275.169 690.744 275.432 691.02 275.609C691.296 275.786 691.793 275.956 692.512 276.117C693.236 276.279 693.822 276.471 694.27 276.695C694.718 276.919 695.048 277.19 695.262 277.508C695.481 277.82 695.59 278.203 695.59 278.656C695.59 279.411 695.288 280.018 694.684 280.477C694.08 280.93 693.296 281.156 692.332 281.156C691.655 281.156 691.056 281.036 690.535 280.797C690.015 280.557 689.606 280.224 689.309 279.797C689.017 279.365 688.871 278.898 688.871 278.398H690.317C690.343 278.883 690.535 279.268 690.895 279.555C691.259 279.836 691.739 279.977 692.332 279.977C692.879 279.977 693.317 279.867 693.645 279.648C693.978 279.424 694.145 279.128 694.145 278.758ZM699.434 270.5V272.547H701.012V273.664H699.434V278.906C699.434 279.245 699.504 279.5 699.645 279.672C699.785 279.839 700.025 279.922 700.364 279.922C700.53 279.922 700.759 279.891 701.051 279.828V281C700.671 281.104 700.301 281.156 699.942 281.156C699.296 281.156 698.809 280.961 698.481 280.57C698.153 280.18 697.989 279.625 697.989 278.906V273.664H696.449V272.547H697.989V270.5H699.434Z" fill="#262626"/>
<path d="M482.92 63.4655C482.92 94.4829 458.135 119.618 427.573 119.618C397.011 119.618 372.226 94.4829 372.226 63.4655C372.226 32.4481 397.011 7.31295 427.573 7.31295C458.135 7.31295 482.92 32.4481 482.92 63.4655Z" stroke="#262626" stroke-width="0.763593"/>
<path d="M487.62 58.2673C487.62 89.2847 462.835 114.42 432.272 114.42C401.71 114.42 376.925 89.2847 376.925 58.2673C376.925 27.2499 401.71 2.11471 432.272 2.11471C462.835 2.11471 487.62 27.2499 487.62 58.2673Z" stroke="#262626" stroke-width="0.763593"/>
<path d="M479.077 56.5344C479.077 87.5518 454.292 112.687 423.729 112.687C393.167 112.687 368.382 87.5518 368.382 56.5344C368.382 25.517 393.167 0.381797 423.729 0.381797C454.292 0.381797 479.077 25.517 479.077 56.5344Z" stroke="#262626" stroke-width="0.763593"/>
<path d="M397.16 53V41.625H400.879C402.114 41.625 403.041 41.8802 403.66 42.3906C404.285 42.901 404.598 43.6562 404.598 44.6562C404.598 45.1875 404.447 45.6589 404.145 46.0703C403.843 46.4766 403.431 46.7917 402.91 47.0156C403.525 47.1875 404.009 47.5156 404.364 48C404.723 48.4792 404.903 49.0521 404.903 49.7188C404.903 50.7396 404.572 51.5417 403.91 52.125C403.249 52.7083 402.314 53 401.106 53H397.16ZM398.66 47.6797V51.7734H401.137C401.835 51.7734 402.384 51.5938 402.785 51.2344C403.192 50.8698 403.395 50.3698 403.395 49.7344C403.395 48.3646 402.65 47.6797 401.16 47.6797H398.66ZM398.66 46.4766H400.926C401.582 46.4766 402.106 46.3125 402.496 45.9844C402.892 45.6562 403.09 45.2109 403.09 44.6484C403.09 44.0234 402.908 43.5703 402.543 43.2891C402.179 43.0026 401.624 42.8594 400.879 42.8594H398.66V46.4766ZM412.121 52.1641C411.559 52.8255 410.733 53.1562 409.645 53.1562C408.744 53.1562 408.056 52.8958 407.582 52.375C407.114 51.849 406.877 51.0729 406.871 50.0469V44.5469H408.317V50.0078C408.317 51.2891 408.838 51.9297 409.879 51.9297C410.983 51.9297 411.718 51.5182 412.082 50.6953V44.5469H413.528V53H412.153L412.121 52.1641ZM420.653 50.7578C420.653 50.3672 420.504 50.0651 420.207 49.8516C419.916 49.6328 419.403 49.4453 418.668 49.2891C417.939 49.1328 417.358 48.9453 416.926 48.7266C416.499 48.5078 416.181 48.2474 415.973 47.9453C415.77 47.6432 415.668 47.2839 415.668 46.8672C415.668 46.1745 415.96 45.5885 416.543 45.1094C417.132 44.6302 417.882 44.3906 418.793 44.3906C419.752 44.3906 420.528 44.638 421.121 45.1328C421.72 45.6276 422.02 46.2604 422.02 47.0312H420.567C420.567 46.6354 420.397 46.2943 420.059 46.0078C419.726 45.7214 419.304 45.5781 418.793 45.5781C418.267 45.5781 417.856 45.6927 417.559 45.9219C417.262 46.151 417.114 46.4505 417.114 46.8203C417.114 47.1693 417.252 47.4323 417.528 47.6094C417.804 47.7865 418.301 47.9557 419.02 48.1172C419.744 48.2786 420.33 48.4714 420.778 48.6953C421.226 48.9193 421.556 49.1901 421.77 49.5078C421.989 49.8203 422.098 50.2031 422.098 50.6562C422.098 51.4115 421.796 52.0182 421.192 52.4766C420.588 52.9297 419.804 53.1562 418.84 53.1562C418.163 53.1562 417.564 53.0365 417.043 52.7969C416.522 52.5573 416.114 52.224 415.817 51.7969C415.525 51.3646 415.379 50.8984 415.379 50.3984H416.824C416.851 50.8828 417.043 51.2682 417.403 51.5547C417.767 51.8359 418.246 51.9766 418.84 51.9766C419.387 51.9766 419.824 51.8672 420.153 51.6484C420.486 51.4245 420.653 51.1276 420.653 50.7578ZM425.551 53H424.106V44.5469H425.551V53ZM423.989 42.3047C423.989 42.0703 424.059 41.8724 424.199 41.7109C424.345 41.5495 424.559 41.4688 424.84 41.4688C425.121 41.4688 425.335 41.5495 425.481 41.7109C425.627 41.8724 425.699 42.0703 425.699 42.3047C425.699 42.5391 425.627 42.7344 425.481 42.8906C425.335 43.0469 425.121 43.125 424.84 43.125C424.559 43.125 424.345 43.0469 424.199 42.8906C424.059 42.7344 423.989 42.5391 423.989 42.3047ZM429.239 44.5469L429.285 45.6094C429.931 44.7969 430.775 44.3906 431.817 44.3906C433.603 44.3906 434.504 45.3984 434.52 47.4141V53H433.074V47.4062C433.069 46.7969 432.929 46.3464 432.653 46.0547C432.382 45.763 431.957 45.6172 431.379 45.6172C430.91 45.6172 430.499 45.7422 430.145 45.9922C429.791 46.2422 429.515 46.5703 429.317 46.9766V53H427.871V44.5469H429.239ZM440.207 53.1562C439.061 53.1562 438.129 52.7812 437.41 52.0312C436.692 51.276 436.332 50.2682 436.332 49.0078V48.7422C436.332 47.9036 436.491 47.1562 436.809 46.5C437.132 45.8385 437.58 45.3229 438.153 44.9531C438.731 44.5781 439.356 44.3906 440.028 44.3906C441.127 44.3906 441.981 44.7526 442.59 45.4766C443.199 46.2005 443.504 47.237 443.504 48.5859V49.1875H437.778C437.798 50.0208 438.041 50.6953 438.504 51.2109C438.973 51.7214 439.567 51.9766 440.285 51.9766C440.796 51.9766 441.228 51.8724 441.582 51.6641C441.936 51.4557 442.246 51.1797 442.512 50.8359L443.395 51.5234C442.686 52.612 441.624 53.1562 440.207 53.1562ZM440.028 45.5781C439.444 45.5781 438.955 45.7917 438.559 46.2188C438.163 46.6406 437.918 47.2344 437.824 48H442.059V47.8906C442.017 47.1562 441.819 46.5885 441.465 46.1875C441.111 45.7812 440.632 45.5781 440.028 45.5781ZM450.106 50.7578C450.106 50.3672 449.957 50.0651 449.66 49.8516C449.369 49.6328 448.856 49.4453 448.121 49.2891C447.392 49.1328 446.811 48.9453 446.379 48.7266C445.952 48.5078 445.634 48.2474 445.426 47.9453C445.223 47.6432 445.121 47.2839 445.121 46.8672C445.121 46.1745 445.413 45.5885 445.996 45.1094C446.585 44.6302 447.335 44.3906 448.246 44.3906C449.205 44.3906 449.981 44.638 450.574 45.1328C451.173 45.6276 451.473 46.2604 451.473 47.0312H450.02C450.02 46.6354 449.851 46.2943 449.512 46.0078C449.179 45.7214 448.757 45.5781 448.246 45.5781C447.72 45.5781 447.309 45.6927 447.012 45.9219C446.715 46.151 446.567 46.4505 446.567 46.8203C446.567 47.1693 446.705 47.4323 446.981 47.6094C447.257 47.7865 447.754 47.9557 448.473 48.1172C449.197 48.2786 449.783 48.4714 450.231 48.6953C450.679 48.9193 451.009 49.1901 451.223 49.5078C451.442 49.8203 451.551 50.2031 451.551 50.6562C451.551 51.4115 451.249 52.0182 450.645 52.4766C450.041 52.9297 449.257 53.1562 448.293 53.1562C447.616 53.1562 447.017 53.0365 446.496 52.7969C445.976 52.5573 445.567 52.224 445.27 51.7969C444.978 51.3646 444.832 50.8984 444.832 50.3984H446.278C446.304 50.8828 446.496 51.2682 446.856 51.5547C447.22 51.8359 447.699 51.9766 448.293 51.9766C448.84 51.9766 449.278 51.8672 449.606 51.6484C449.939 51.4245 450.106 51.1276 450.106 50.7578ZM458.356 50.7578C458.356 50.3672 458.207 50.0651 457.91 49.8516C457.619 49.6328 457.106 49.4453 456.371 49.2891C455.642 49.1328 455.061 48.9453 454.629 48.7266C454.202 48.5078 453.884 48.2474 453.676 47.9453C453.473 47.6432 453.371 47.2839 453.371 46.8672C453.371 46.1745 453.663 45.5885 454.246 45.1094C454.835 44.6302 455.585 44.3906 456.496 44.3906C457.455 44.3906 458.231 44.638 458.824 45.1328C459.423 45.6276 459.723 46.2604 459.723 47.0312H458.27C458.27 46.6354 458.101 46.2943 457.762 46.0078C457.429 45.7214 457.007 45.5781 456.496 45.5781C455.97 45.5781 455.559 45.6927 455.262 45.9219C454.965 46.151 454.817 46.4505 454.817 46.8203C454.817 47.1693 454.955 47.4323 455.231 47.6094C455.507 47.7865 456.004 47.9557 456.723 48.1172C457.447 48.2786 458.033 48.4714 458.481 48.6953C458.929 48.9193 459.259 49.1901 459.473 49.5078C459.692 49.8203 459.801 50.2031 459.801 50.6562C459.801 51.4115 459.499 52.0182 458.895 52.4766C458.291 52.9297 457.507 53.1562 456.543 53.1562C455.866 53.1562 455.267 53.0365 454.746 52.7969C454.226 52.5573 453.817 52.224 453.52 51.7969C453.228 51.3646 453.082 50.8984 453.082 50.3984H454.528C454.554 50.8828 454.746 51.2682 455.106 51.5547C455.47 51.8359 455.949 51.9766 456.543 51.9766C457.09 51.9766 457.528 51.8672 457.856 51.6484C458.189 51.4245 458.356 51.1276 458.356 50.7578ZM382.746 77V65.625H385.957C386.947 65.625 387.822 65.8438 388.582 66.2812C389.343 66.7188 389.929 67.3411 390.34 68.1484C390.757 68.9557 390.968 69.8828 390.973 70.9297V71.6562C390.973 72.7292 390.765 73.6693 390.348 74.4766C389.936 75.2839 389.345 75.9036 388.574 76.3359C387.809 76.7682 386.916 76.9896 385.895 77H382.746ZM384.246 66.8594V75.7734H385.824C386.981 75.7734 387.879 75.4141 388.52 74.6953C389.166 73.9766 389.489 72.9531 389.489 71.625V70.9609C389.489 69.6693 389.184 68.6667 388.574 67.9531C387.97 67.2344 387.111 66.8698 385.996 66.8594H384.246ZM396.528 77.1562C395.382 77.1562 394.449 76.7812 393.731 76.0312C393.012 75.276 392.653 74.2682 392.653 73.0078V72.7422C392.653 71.9036 392.811 71.1562 393.129 70.5C393.452 69.8385 393.9 69.3229 394.473 68.9531C395.051 68.5781 395.676 68.3906 396.348 68.3906C397.447 68.3906 398.301 68.7526 398.91 69.4766C399.52 70.2005 399.824 71.237 399.824 72.5859V73.1875H394.098C394.119 74.0208 394.361 74.6953 394.824 75.2109C395.293 75.7214 395.887 75.9766 396.606 75.9766C397.116 75.9766 397.548 75.8724 397.903 75.6641C398.257 75.4557 398.567 75.1797 398.832 74.8359L399.715 75.5234C399.007 76.612 397.944 77.1562 396.528 77.1562ZM396.348 69.5781C395.765 69.5781 395.275 69.7917 394.879 70.2188C394.483 70.6406 394.239 71.2344 394.145 72H398.379V71.8906C398.338 71.1562 398.14 70.5885 397.785 70.1875C397.431 69.7812 396.952 69.5781 396.348 69.5781ZM404.184 75.0391L406.278 68.5469H407.754L404.723 77H403.621L400.559 68.5469H402.035L404.184 75.0391ZM412.543 77.1562C411.397 77.1562 410.465 76.7812 409.746 76.0312C409.028 75.276 408.668 74.2682 408.668 73.0078V72.7422C408.668 71.9036 408.827 71.1562 409.145 70.5C409.468 69.8385 409.916 69.3229 410.489 68.9531C411.067 68.5781 411.692 68.3906 412.364 68.3906C413.463 68.3906 414.317 68.7526 414.926 69.4766C415.535 70.2005 415.84 71.237 415.84 72.5859V73.1875H410.114C410.134 74.0208 410.377 74.6953 410.84 75.2109C411.309 75.7214 411.903 75.9766 412.621 75.9766C413.132 75.9766 413.564 75.8724 413.918 75.6641C414.272 75.4557 414.582 75.1797 414.848 74.8359L415.731 75.5234C415.022 76.612 413.96 77.1562 412.543 77.1562ZM412.364 69.5781C411.78 69.5781 411.291 69.7917 410.895 70.2188C410.499 70.6406 410.254 71.2344 410.16 72H414.395V71.8906C414.353 71.1562 414.155 70.5885 413.801 70.1875C413.447 69.7812 412.968 69.5781 412.364 69.5781ZM419.09 77H417.645V65H419.09V77ZM421.028 72.6953C421.028 71.8672 421.189 71.1224 421.512 70.4609C421.84 69.7995 422.293 69.2891 422.871 68.9297C423.455 68.5703 424.119 68.3906 424.864 68.3906C426.015 68.3906 426.944 68.7891 427.653 69.5859C428.366 70.3828 428.723 71.4427 428.723 72.7656V72.8672C428.723 73.6901 428.564 74.4297 428.246 75.0859C427.934 75.737 427.483 76.2448 426.895 76.6094C426.311 76.974 425.64 77.1562 424.879 77.1562C423.733 77.1562 422.804 76.7578 422.09 75.9609C421.382 75.1641 421.028 74.1094 421.028 72.7969V72.6953ZM422.481 72.8672C422.481 73.8047 422.697 74.5573 423.129 75.125C423.567 75.6927 424.15 75.9766 424.879 75.9766C425.614 75.9766 426.197 75.6901 426.629 75.1172C427.061 74.5391 427.278 73.7318 427.278 72.6953C427.278 71.7682 427.056 71.0182 426.614 70.4453C426.176 69.8672 425.593 69.5781 424.864 69.5781C424.15 69.5781 423.574 69.862 423.137 70.4297C422.699 70.9974 422.481 71.8099 422.481 72.8672ZM437.676 72.8672C437.676 74.1536 437.382 75.1901 436.793 75.9766C436.205 76.763 435.408 77.1562 434.403 77.1562C433.377 77.1562 432.569 76.8307 431.981 76.1797V80.25H430.535V68.5469H431.856L431.926 69.4844C432.515 68.7552 433.332 68.3906 434.379 68.3906C435.395 68.3906 436.197 68.7734 436.785 69.5391C437.379 70.3047 437.676 71.3698 437.676 72.7344V72.8672ZM436.231 72.7031C436.231 71.75 436.028 70.9974 435.621 70.4453C435.215 69.8932 434.658 69.6172 433.949 69.6172C433.074 69.6172 432.418 70.0052 431.981 70.7812V74.8203C432.413 75.5911 433.074 75.9766 433.965 75.9766C434.658 75.9766 435.207 75.7031 435.614 75.1562C436.025 74.6042 436.231 73.7865 436.231 72.7031ZM440.879 68.5469L440.918 69.4844C441.538 68.7552 442.374 68.3906 443.426 68.3906C444.608 68.3906 445.413 68.8438 445.84 69.75C446.121 69.3438 446.486 69.0156 446.934 68.7656C447.387 68.5156 447.921 68.3906 448.535 68.3906C450.39 68.3906 451.332 69.3724 451.364 71.3359V77H449.918V71.4219C449.918 70.8177 449.78 70.3672 449.504 70.0703C449.228 69.7682 448.765 69.6172 448.114 69.6172C447.577 69.6172 447.132 69.7786 446.778 70.1016C446.423 70.4193 446.218 70.849 446.16 71.3906V77H444.707V71.4609C444.707 70.2318 444.106 69.6172 442.903 69.6172C441.955 69.6172 441.306 70.0208 440.957 70.8281V77H439.512V68.5469H440.879ZM457.059 77.1562C455.913 77.1562 454.981 76.7812 454.262 76.0312C453.543 75.276 453.184 74.2682 453.184 73.0078V72.7422C453.184 71.9036 453.343 71.1562 453.66 70.5C453.983 69.8385 454.431 69.3229 455.004 68.9531C455.582 68.5781 456.207 68.3906 456.879 68.3906C457.978 68.3906 458.832 68.7526 459.442 69.4766C460.051 70.2005 460.356 71.237 460.356 72.5859V73.1875H454.629C454.65 74.0208 454.892 74.6953 455.356 75.2109C455.824 75.7214 456.418 75.9766 457.137 75.9766C457.647 75.9766 458.08 75.8724 458.434 75.6641C458.788 75.4557 459.098 75.1797 459.364 74.8359L460.246 75.5234C459.538 76.612 458.476 77.1562 457.059 77.1562ZM456.879 69.5781C456.296 69.5781 455.806 69.7917 455.41 70.2188C455.015 70.6406 454.77 71.2344 454.676 72H458.91V71.8906C458.869 71.1562 458.671 70.5885 458.317 70.1875C457.963 69.7812 457.483 69.5781 456.879 69.5781ZM463.403 68.5469L463.449 69.6094C464.095 68.7969 464.939 68.3906 465.981 68.3906C467.767 68.3906 468.668 69.3984 468.684 71.4141V77H467.239V71.4062C467.233 70.7969 467.093 70.3464 466.817 70.0547C466.546 69.763 466.121 69.6172 465.543 69.6172C465.074 69.6172 464.663 69.7422 464.309 69.9922C463.955 70.2422 463.679 70.5703 463.481 70.9766V77H462.035V68.5469H463.403ZM472.824 66.5V68.5469H474.403V69.6641H472.824V74.9062C472.824 75.2448 472.895 75.5 473.035 75.6719C473.176 75.8385 473.416 75.9219 473.754 75.9219C473.921 75.9219 474.15 75.8906 474.442 75.8281V77C474.061 77.1042 473.692 77.1562 473.332 77.1562C472.686 77.1562 472.199 76.9609 471.871 76.5703C471.543 76.1797 471.379 75.625 471.379 74.9062V69.6641H469.84V68.5469H471.379V66.5H472.824Z" fill="#262626"/>
<path d="M174.92 129.466C174.92 160.483 150.135 185.618 119.573 185.618C89.0106 185.618 64.2255 160.483 64.2255 129.466C64.2255 98.4481 89.0106 73.3129 119.573 73.3129C150.135 73.3129 174.92 98.4481 174.92 129.466Z" stroke="#262626" stroke-width="0.763593"/>
<path d="M179.62 124.267C179.62 155.285 154.835 180.42 124.272 180.42C93.7098 180.42 68.9248 155.285 68.9248 124.267C68.9248 93.2499 93.7098 68.1147 124.272 68.1147C154.835 68.1147 179.62 93.2499 179.62 124.267Z" stroke="#262626" stroke-width="0.763593"/>
<path d="M171.077 122.534C171.077 153.552 146.292 178.687 115.729 178.687C85.1668 178.687 60.3818 153.552 60.3818 122.534C60.3818 91.517 85.1668 66.3818 115.729 66.3818C146.292 66.3818 171.077 91.517 171.077 122.534Z" stroke="#262626" stroke-width="0.763593"/>
<path d="M95.0589 114.547V119H93.5589V107.625H97.7542C98.999 107.625 99.9729 107.943 100.676 108.578C101.384 109.214 101.739 110.055 101.739 111.102C101.739 112.206 101.392 113.057 100.699 113.656C100.012 114.25 99.025 114.547 97.7386 114.547H95.0589ZM95.0589 113.32H97.7542C98.5563 113.32 99.1708 113.133 99.5979 112.758C100.025 112.378 100.239 111.831 100.239 111.117C100.239 110.44 100.025 109.898 99.5979 109.492C99.1708 109.086 98.5849 108.875 97.8401 108.859H95.0589V113.32ZM107.512 111.844C107.293 111.807 107.056 111.789 106.801 111.789C105.853 111.789 105.21 112.193 104.871 113V119H103.426V110.547H104.832L104.856 111.523C105.33 110.768 106.002 110.391 106.871 110.391C107.153 110.391 107.366 110.427 107.512 110.5V111.844ZM108.309 114.695C108.309 113.867 108.47 113.122 108.793 112.461C109.121 111.799 109.574 111.289 110.153 110.93C110.736 110.57 111.4 110.391 112.145 110.391C113.296 110.391 114.226 110.789 114.934 111.586C115.647 112.383 116.004 113.443 116.004 114.766V114.867C116.004 115.69 115.845 116.43 115.528 117.086C115.215 117.737 114.765 118.245 114.176 118.609C113.593 118.974 112.921 119.156 112.16 119.156C111.015 119.156 110.085 118.758 109.371 117.961C108.663 117.164 108.309 116.109 108.309 114.797V114.695ZM109.762 114.867C109.762 115.805 109.978 116.557 110.41 117.125C110.848 117.693 111.431 117.977 112.16 117.977C112.895 117.977 113.478 117.69 113.91 117.117C114.343 116.539 114.559 115.732 114.559 114.695C114.559 113.768 114.338 113.018 113.895 112.445C113.457 111.867 112.874 111.578 112.145 111.578C111.431 111.578 110.856 111.862 110.418 112.43C109.981 112.997 109.762 113.81 109.762 114.867ZM117.465 114.703C117.465 113.406 117.772 112.365 118.387 111.578C119.002 110.786 119.806 110.391 120.801 110.391C121.791 110.391 122.574 110.729 123.153 111.406V107H124.598V119H123.27L123.199 118.094C122.621 118.802 121.817 119.156 120.785 119.156C119.806 119.156 119.007 118.755 118.387 117.953C117.772 117.151 117.465 116.104 117.465 114.812V114.703ZM118.91 114.867C118.91 115.826 119.108 116.576 119.504 117.117C119.9 117.659 120.447 117.93 121.145 117.93C122.061 117.93 122.731 117.518 123.153 116.695V112.812C122.72 112.016 122.056 111.617 121.16 111.617C120.452 111.617 119.9 111.891 119.504 112.438C119.108 112.984 118.91 113.794 118.91 114.867ZM132.067 118.164C131.504 118.826 130.679 119.156 129.59 119.156C128.689 119.156 128.002 118.896 127.528 118.375C127.059 117.849 126.822 117.073 126.817 116.047V110.547H128.262V116.008C128.262 117.289 128.783 117.93 129.824 117.93C130.929 117.93 131.663 117.518 132.028 116.695V110.547H133.473V119H132.098L132.067 118.164ZM139.067 117.977C139.582 117.977 140.033 117.82 140.418 117.508C140.804 117.195 141.017 116.805 141.059 116.336H142.426C142.4 116.82 142.233 117.281 141.926 117.719C141.619 118.156 141.207 118.505 140.692 118.766C140.181 119.026 139.64 119.156 139.067 119.156C137.916 119.156 136.999 118.773 136.317 118.008C135.64 117.237 135.301 116.185 135.301 114.852V114.609C135.301 113.786 135.452 113.055 135.754 112.414C136.056 111.773 136.489 111.276 137.051 110.922C137.619 110.568 138.288 110.391 139.059 110.391C140.007 110.391 140.793 110.674 141.418 111.242C142.048 111.81 142.384 112.547 142.426 113.453H141.059C141.017 112.906 140.809 112.458 140.434 112.109C140.064 111.755 139.606 111.578 139.059 111.578C138.324 111.578 137.754 111.844 137.348 112.375C136.947 112.901 136.746 113.664 136.746 114.664V114.938C136.746 115.911 136.947 116.661 137.348 117.188C137.749 117.714 138.322 117.977 139.067 117.977ZM146.012 108.5V110.547H147.59V111.664H146.012V116.906C146.012 117.245 146.082 117.5 146.223 117.672C146.364 117.839 146.603 117.922 146.942 117.922C147.108 117.922 147.338 117.891 147.629 117.828V119C147.249 119.104 146.879 119.156 146.52 119.156C145.874 119.156 145.387 118.961 145.059 118.57C144.731 118.18 144.567 117.625 144.567 116.906V111.664H143.028V110.547H144.567V108.5H146.012ZM76.3479 131.625L80.0667 140.906L83.7854 131.625H85.7307V143H84.2307V138.57L84.3714 133.789L80.637 143H79.4886L75.762 133.812L75.9104 138.57V143H74.4104V131.625H76.3479ZM93.3714 143C93.288 142.833 93.2203 142.536 93.1682 142.109C92.4964 142.807 91.6943 143.156 90.762 143.156C89.9287 143.156 89.2438 142.922 88.7073 142.453C88.1761 141.979 87.9104 141.38 87.9104 140.656C87.9104 139.776 88.2438 139.094 88.9104 138.609C89.5823 138.12 90.525 137.875 91.7386 137.875H93.1448V137.211C93.1448 136.706 92.9938 136.305 92.6917 136.008C92.3896 135.706 91.9443 135.555 91.3557 135.555C90.8401 135.555 90.4078 135.685 90.0589 135.945C89.7099 136.206 89.5354 136.521 89.5354 136.891H88.0823C88.0823 136.469 88.2307 136.062 88.5276 135.672C88.8297 135.276 89.2359 134.964 89.7464 134.734C90.262 134.505 90.8271 134.391 91.4417 134.391C92.4156 134.391 93.1787 134.635 93.7307 135.125C94.2828 135.609 94.5693 136.279 94.5901 137.133V141.023C94.5901 141.799 94.6891 142.417 94.887 142.875V143H93.3714ZM90.9729 141.898C91.4261 141.898 91.8557 141.781 92.262 141.547C92.6682 141.312 92.9625 141.008 93.1448 140.633V138.898H92.012C90.2412 138.898 89.3557 139.417 89.3557 140.453C89.3557 140.906 89.5068 141.26 89.8089 141.516C90.1109 141.771 90.499 141.898 90.9729 141.898ZM98.2229 134.547L98.2698 135.609C98.9156 134.797 99.7594 134.391 100.801 134.391C102.588 134.391 103.489 135.398 103.504 137.414V143H102.059V137.406C102.054 136.797 101.913 136.346 101.637 136.055C101.366 135.763 100.942 135.617 100.364 135.617C99.8948 135.617 99.4833 135.742 99.1292 135.992C98.775 136.242 98.499 136.57 98.3011 136.977V143H96.8557V134.547H98.2229ZM110.903 143C110.819 142.833 110.752 142.536 110.699 142.109C110.028 142.807 109.226 143.156 108.293 143.156C107.46 143.156 106.775 142.922 106.239 142.453C105.707 141.979 105.442 141.38 105.442 140.656C105.442 139.776 105.775 139.094 106.442 138.609C107.114 138.12 108.056 137.875 109.27 137.875H110.676V137.211C110.676 136.706 110.525 136.305 110.223 136.008C109.921 135.706 109.476 135.555 108.887 135.555C108.371 135.555 107.939 135.685 107.59 135.945C107.241 136.206 107.067 136.521 107.067 136.891H105.614C105.614 136.469 105.762 136.062 106.059 135.672C106.361 135.276 106.767 134.964 107.278 134.734C107.793 134.505 108.358 134.391 108.973 134.391C109.947 134.391 110.71 134.635 111.262 135.125C111.814 135.609 112.101 136.279 112.121 137.133V141.023C112.121 141.799 112.22 142.417 112.418 142.875V143H110.903ZM108.504 141.898C108.957 141.898 109.387 141.781 109.793 141.547C110.199 141.312 110.494 141.008 110.676 140.633V138.898H109.543C107.772 138.898 106.887 139.417 106.887 140.453C106.887 140.906 107.038 141.26 107.34 141.516C107.642 141.771 108.03 141.898 108.504 141.898ZM114.043 138.703C114.043 137.385 114.348 136.339 114.957 135.562C115.567 134.781 116.374 134.391 117.379 134.391C118.41 134.391 119.215 134.755 119.793 135.484L119.864 134.547H121.184V142.797C121.184 143.891 120.858 144.753 120.207 145.383C119.561 146.013 118.692 146.328 117.598 146.328C116.989 146.328 116.392 146.198 115.809 145.938C115.226 145.677 114.78 145.32 114.473 144.867L115.223 144C115.843 144.766 116.601 145.148 117.496 145.148C118.199 145.148 118.746 144.951 119.137 144.555C119.533 144.159 119.731 143.602 119.731 142.883V142.156C119.153 142.823 118.364 143.156 117.364 143.156C116.374 143.156 115.572 142.758 114.957 141.961C114.348 141.164 114.043 140.078 114.043 138.703ZM115.496 138.867C115.496 139.82 115.692 140.57 116.082 141.117C116.473 141.659 117.02 141.93 117.723 141.93C118.634 141.93 119.304 141.516 119.731 140.688V136.828C119.288 136.021 118.624 135.617 117.739 135.617C117.035 135.617 116.486 135.891 116.09 136.438C115.694 136.984 115.496 137.794 115.496 138.867ZM126.879 143.156C125.733 143.156 124.801 142.781 124.082 142.031C123.364 141.276 123.004 140.268 123.004 139.008V138.742C123.004 137.904 123.163 137.156 123.481 136.5C123.804 135.839 124.252 135.323 124.824 134.953C125.403 134.578 126.028 134.391 126.699 134.391C127.798 134.391 128.653 134.753 129.262 135.477C129.871 136.201 130.176 137.237 130.176 138.586V139.188H124.449C124.47 140.021 124.713 140.695 125.176 141.211C125.645 141.721 126.239 141.977 126.957 141.977C127.468 141.977 127.9 141.872 128.254 141.664C128.608 141.456 128.918 141.18 129.184 140.836L130.067 141.523C129.358 142.612 128.296 143.156 126.879 143.156ZM126.699 135.578C126.116 135.578 125.627 135.792 125.231 136.219C124.835 136.641 124.59 137.234 124.496 138H128.731V137.891C128.689 137.156 128.491 136.589 128.137 136.188C127.783 135.781 127.304 135.578 126.699 135.578ZM133.215 134.547L133.254 135.484C133.874 134.755 134.71 134.391 135.762 134.391C136.944 134.391 137.749 134.844 138.176 135.75C138.457 135.344 138.822 135.016 139.27 134.766C139.723 134.516 140.257 134.391 140.871 134.391C142.726 134.391 143.668 135.372 143.699 137.336V143H142.254V137.422C142.254 136.818 142.116 136.367 141.84 136.07C141.564 135.768 141.101 135.617 140.449 135.617C139.913 135.617 139.468 135.779 139.114 136.102C138.759 136.419 138.554 136.849 138.496 137.391V143H137.043V137.461C137.043 136.232 136.442 135.617 135.239 135.617C134.291 135.617 133.642 136.021 133.293 136.828V143H131.848V134.547H133.215ZM149.395 143.156C148.249 143.156 147.317 142.781 146.598 142.031C145.879 141.276 145.52 140.268 145.52 139.008V138.742C145.52 137.904 145.679 137.156 145.996 136.5C146.319 135.839 146.767 135.323 147.34 134.953C147.918 134.578 148.543 134.391 149.215 134.391C150.314 134.391 151.168 134.753 151.778 135.477C152.387 136.201 152.692 137.237 152.692 138.586V139.188H146.965C146.986 140.021 147.228 140.695 147.692 141.211C148.16 141.721 148.754 141.977 149.473 141.977C149.983 141.977 150.416 141.872 150.77 141.664C151.124 141.456 151.434 141.18 151.699 140.836L152.582 141.523C151.874 142.612 150.811 143.156 149.395 143.156ZM149.215 135.578C148.632 135.578 148.142 135.792 147.746 136.219C147.351 136.641 147.106 137.234 147.012 138H151.246V137.891C151.205 137.156 151.007 136.589 150.653 136.188C150.298 135.781 149.819 135.578 149.215 135.578ZM155.739 134.547L155.785 135.609C156.431 134.797 157.275 134.391 158.317 134.391C160.103 134.391 161.004 135.398 161.02 137.414V143H159.574V137.406C159.569 136.797 159.429 136.346 159.153 136.055C158.882 135.763 158.457 135.617 157.879 135.617C157.41 135.617 156.999 135.742 156.645 135.992C156.291 136.242 156.015 136.57 155.817 136.977V143H154.371V134.547H155.739ZM165.16 132.5V134.547H166.739V135.664H165.16V140.906C165.16 141.245 165.231 141.5 165.371 141.672C165.512 141.839 165.752 141.922 166.09 141.922C166.257 141.922 166.486 141.891 166.778 141.828V143C166.397 143.104 166.028 143.156 165.668 143.156C165.022 143.156 164.535 142.961 164.207 142.57C163.879 142.18 163.715 141.625 163.715 140.906V135.664H162.176V134.547H163.715V132.5H165.16Z" fill="#262626"/>
<circle cx="428" cy="276" r="132" fill="#E5E9F6"/>
<g clip-path="url(#clip0)">
<path d="M449.471 222.558C449.25 222.389 447.206 220.869 443.565 219.405C438.873 217.52 433.491 216.523 427.998 216.523C422.506 216.523 417.123 217.52 412.432 219.405C408.79 220.869 406.746 222.389 406.525 222.558C405.416 223.404 404.766 224.718 404.766 226.113V233.125L409.235 235.516L413.705 233.125V228.644C416.158 227.392 421.064 225.463 427.998 225.463C434.932 225.463 439.838 227.392 442.291 228.644V233.125L446.76 235.516L451.23 233.125V226.113C451.231 224.718 450.58 223.403 449.471 222.558Z" fill="#D55555"/>
<path d="M404.766 233.125V238.061L409.236 240.451L413.705 238.061V233.125H404.766Z" fill="#E38282"/>
<path d="M451.231 233.125H442.291V238.061L446.761 240.451L451.231 238.061V233.125Z" fill="#E38282"/>
<path d="M363.52 287.232V326.941C363.52 331.655 367.341 335.477 372.055 335.477H483.946C488.661 335.477 492.482 331.655 492.482 326.941V287.232H363.52Z" fill="#0C3559"/>
<path d="M363.52 282.297V287.232C370.611 292.862 389.352 303.792 428.001 303.792C466.65 303.792 485.391 292.862 492.482 287.232V282.296H363.52V282.297Z" fill="#19588F"/>
<path d="M363.148 279.454C369.944 284.987 388.66 296.312 428 296.312C467.34 296.312 486.056 284.987 492.852 279.454C494.844 277.833 496 273.011 496 270.443V246.596C496 241.882 492.178 238.061 487.464 238.061H368.536C363.822 238.061 360 241.882 360 246.596V270.443C360 273.011 361.156 277.833 363.148 279.454Z" fill="#317EC2"/>
<path d="M492.852 277.064C486.056 282.597 467.34 293.921 428 293.921C388.66 293.921 369.944 282.596 363.148 277.064C361.156 275.442 360 273.011 360 270.442V275.378C360 277.947 361.156 280.377 363.148 281.999C369.944 287.532 388.66 298.857 428 298.857C467.34 298.857 486.056 287.532 492.852 281.999C494.844 280.377 496 277.947 496 275.378V270.442C496 273.011 494.844 275.442 492.852 277.064Z" fill="#0C3559"/>
<path d="M427.999 307.071C432.415 307.071 435.995 303.793 435.995 296.685V291.838C435.995 290.266 434.721 288.993 433.149 288.993H422.849C421.278 288.993 420.004 290.267 420.004 291.838V296.686C420.004 303.793 423.583 307.071 427.999 307.071Z" fill="#F8BD4F"/>
<path d="M427.999 304.681C423.583 304.681 420.004 301.101 420.004 296.686V301.621C420.004 306.037 423.583 309.616 427.999 309.616C432.415 309.616 435.995 306.037 435.995 301.621V296.686C435.995 301.101 432.415 304.681 427.999 304.681Z" fill="#F2A922"/>
</g>
<defs>
<clipPath id="clip0">
<rect width="136" height="136" fill="white" transform="translate(360 208)"/>
</clipPath>
</defs>
</svg>
