<svg width="281" height="1032" viewBox="0 0 281 1032" fill="none" xmlns="http://www.w3.org/2000/svg">
<path d="M115.747 63.466C115.747 94.4834 90.9616 119.619 60.3992 119.619C29.8368 119.619 5.05172 94.4834 5.05172 63.466C5.05172 32.4486 29.8368 7.31344 60.3992 7.31344C90.9616 7.31344 115.747 32.4486 115.747 63.466Z" stroke="#262626" stroke-width="0.763593"/>
<path d="M120.446 58.2668C120.446 89.2842 95.6608 114.419 65.0984 114.419C34.536 114.419 9.75094 89.2842 9.75094 58.2668C9.75094 27.2494 34.536 2.11422 65.0984 2.11422C95.6608 2.11422 120.446 27.2494 120.446 58.2668Z" stroke="#262626" stroke-width="0.763593"/>
<path d="M111.903 56.5344C111.903 87.5518 87.1178 112.687 56.5554 112.687C25.993 112.687 1.20797 87.5518 1.20797 56.5344C1.20797 25.517 25.993 0.381797 56.5554 0.381797C87.1178 0.381797 111.903 25.517 111.903 56.5344Z" stroke="#262626" stroke-width="0.763593"/>
<path d="M28.5647 53.625L32.2835 62.9062L36.0022 53.625H37.9475V65H36.4475V60.5703L36.5882 55.7891L32.8538 65H31.7053L27.9788 55.8125L28.1272 60.5703V65H26.6272V53.625H28.5647ZM45.5882 65C45.5048 64.8333 45.4371 64.5365 45.385 64.1094C44.7132 64.8073 43.9111 65.1562 42.9788 65.1562C42.1455 65.1562 41.4606 64.9219 40.9241 64.4531C40.3928 63.9792 40.1272 63.3802 40.1272 62.6562C40.1272 61.776 40.4606 61.0938 41.1272 60.6094C41.7991 60.1198 42.7418 59.875 43.9553 59.875H45.3616V59.2109C45.3616 58.7057 45.2106 58.3047 44.9085 58.0078C44.6064 57.7057 44.1611 57.5547 43.5725 57.5547C43.0569 57.5547 42.6246 57.6849 42.2757 57.9453C41.9267 58.2057 41.7522 58.5208 41.7522 58.8906H40.2991C40.2991 58.4688 40.4475 58.0625 40.7444 57.6719C41.0465 57.276 41.4527 56.9635 41.9632 56.7344C42.4788 56.5052 43.0439 56.3906 43.6585 56.3906C44.6324 56.3906 45.3955 56.6354 45.9475 57.125C46.4996 57.6094 46.7861 58.2786 46.8069 59.1328V63.0234C46.8069 63.7995 46.9059 64.4167 47.1038 64.875V65H45.5882ZM43.1897 63.8984C43.6428 63.8984 44.0725 63.7812 44.4788 63.5469C44.885 63.3125 45.1793 63.0078 45.3616 62.6328V60.8984H44.2288C42.458 60.8984 41.5725 61.4167 41.5725 62.4531C41.5725 62.9062 41.7236 63.2604 42.0257 63.5156C42.3277 63.7708 42.7158 63.8984 43.1897 63.8984ZM53.1585 57.8438C52.9397 57.8073 52.7027 57.7891 52.4475 57.7891C51.4996 57.7891 50.8564 58.1927 50.5178 59V65H49.0725V56.5469H50.4788L50.5022 57.5234C50.9762 56.7682 51.6481 56.3906 52.5178 56.3906C52.7991 56.3906 53.0126 56.4271 53.1585 56.5V57.8438ZM56.8538 61.0859L55.9475 62.0312V65H54.5022V53H55.9475V60.2578L56.721 59.3281L59.3538 56.5469H61.1116L57.8225 60.0781L61.4944 65H59.7991L56.8538 61.0859ZM65.9553 65.1562C64.8095 65.1562 63.8772 64.7812 63.1585 64.0312C62.4397 63.276 62.0803 62.2682 62.0803 61.0078V60.7422C62.0803 59.9036 62.2392 59.1562 62.5569 58.5C62.8798 57.8385 63.3277 57.3229 63.9007 56.9531C64.4788 56.5781 65.1038 56.3906 65.7757 56.3906C66.8746 56.3906 67.7288 56.7526 68.3382 57.4766C68.9475 58.2005 69.2522 59.237 69.2522 60.5859V61.1875H63.5257C63.5465 62.0208 63.7887 62.6953 64.2522 63.2109C64.721 63.7214 65.3147 63.9766 66.0335 63.9766C66.5439 63.9766 66.9762 63.8724 67.3303 63.6641C67.6845 63.4557 67.9944 63.1797 68.26 62.8359L69.1428 63.5234C68.4345 64.612 67.372 65.1562 65.9553 65.1562ZM65.7757 57.5781C65.1923 57.5781 64.7027 57.7917 64.3069 58.2188C63.9111 58.6406 63.6663 59.2344 63.5725 60H67.8069V59.8906C67.7652 59.1562 67.5673 58.5885 67.2132 58.1875C66.859 57.7812 66.3798 57.5781 65.7757 57.5781ZM72.8928 54.5V56.5469H74.471V57.6641H72.8928V62.9062C72.8928 63.2448 72.9632 63.5 73.1038 63.6719C73.2444 63.8385 73.484 63.9219 73.8225 63.9219C73.9892 63.9219 74.2184 63.8906 74.51 63.8281V65C74.1298 65.1042 73.76 65.1562 73.4007 65.1562C72.7548 65.1562 72.2678 64.9609 71.9397 64.5703C71.6116 64.1797 71.4475 63.625 71.4475 62.9062V57.6641H69.9085V56.5469H71.4475V54.5H72.8928ZM77.7366 65H76.2913V56.5469H77.7366V65ZM76.1741 54.3047C76.1741 54.0703 76.2444 53.8724 76.385 53.7109C76.5309 53.5495 76.7444 53.4688 77.0257 53.4688C77.3069 53.4688 77.5205 53.5495 77.6663 53.7109C77.8121 53.8724 77.885 54.0703 77.885 54.3047C77.885 54.5391 77.8121 54.7344 77.6663 54.8906C77.5205 55.0469 77.3069 55.125 77.0257 55.125C76.7444 55.125 76.5309 55.0469 76.385 54.8906C76.2444 54.7344 76.1741 54.5391 76.1741 54.3047ZM81.4241 56.5469L81.471 57.6094C82.1168 56.7969 82.9606 56.3906 84.0022 56.3906C85.7887 56.3906 86.6897 57.3984 86.7054 59.4141V65H85.26V59.4062C85.2548 58.7969 85.1142 58.3464 84.8382 58.0547C84.5673 57.763 84.1429 57.6172 83.5647 57.6172C83.096 57.6172 82.6845 57.7422 82.3304 57.9922C81.9762 58.2422 81.7001 58.5703 81.5022 58.9766V65H80.0569V56.5469H81.4241ZM88.5413 60.7031C88.5413 59.3854 88.846 58.3385 89.4554 57.5625C90.0647 56.7812 90.872 56.3906 91.8772 56.3906C92.9085 56.3906 93.7132 56.7552 94.2913 57.4844L94.3616 56.5469H95.6819V64.7969C95.6819 65.8906 95.3564 66.7526 94.7054 67.3828C94.0595 68.013 93.1897 68.3281 92.096 68.3281C91.4866 68.3281 90.8902 68.1979 90.3069 67.9375C89.7236 67.6771 89.2783 67.3203 88.971 66.8672L89.721 66C90.3408 66.7656 91.0986 67.1484 91.9944 67.1484C92.6975 67.1484 93.2444 66.9505 93.635 66.5547C94.0309 66.1589 94.2288 65.6016 94.2288 64.8828V64.1562C93.6507 64.8229 92.8616 65.1562 91.8616 65.1562C90.872 65.1562 90.0699 64.7578 89.4554 63.9609C88.846 63.1641 88.5413 62.0781 88.5413 60.7031ZM89.9944 60.8672C89.9944 61.8203 90.1897 62.5703 90.5804 63.1172C90.971 63.6589 91.5179 63.9297 92.221 63.9297C93.1324 63.9297 93.8017 63.5156 94.2288 62.6875V58.8281C93.7861 58.0208 93.122 57.6172 92.2366 57.6172C91.5335 57.6172 90.984 57.8906 90.5882 58.4375C90.1923 58.9844 89.9944 59.7943 89.9944 60.8672Z" fill="#262626"/>
<path d="M115.747 223.466C115.747 254.483 90.9616 279.619 60.3992 279.619C29.8368 279.619 5.05172 254.483 5.05172 223.466C5.05172 192.449 29.8368 167.313 60.3992 167.313C90.9616 167.313 115.747 192.449 115.747 223.466Z" stroke="#262626" stroke-width="0.763593"/>
<path d="M120.446 218.267C120.446 249.284 95.6608 274.419 65.0984 274.419C34.536 274.419 9.75094 249.284 9.75094 218.267C9.75094 187.249 34.536 162.114 65.0984 162.114C95.6608 162.114 120.446 187.249 120.446 218.267Z" stroke="#262626" stroke-width="0.763593"/>
<path d="M111.903 216.534C111.903 247.552 87.1178 272.687 56.5554 272.687C25.993 272.687 1.20797 247.552 1.20797 216.534C1.20797 185.517 25.993 160.382 56.5554 160.382C87.1178 160.382 111.903 185.517 111.903 216.534Z" stroke="#262626" stroke-width="0.763593"/>
<path d="M35.885 208.547V213H34.385V201.625H38.5803C39.8251 201.625 40.7991 201.943 41.5022 202.578C42.2106 203.214 42.5647 204.055 42.5647 205.102C42.5647 206.206 42.2184 207.057 41.5257 207.656C40.8382 208.25 39.8512 208.547 38.5647 208.547H35.885ZM35.885 207.32H38.5803C39.3824 207.32 39.997 207.133 40.4241 206.758C40.8512 206.378 41.0647 205.831 41.0647 205.117C41.0647 204.44 40.8512 203.898 40.4241 203.492C39.997 203.086 39.4111 202.875 38.6663 202.859H35.885V207.32ZM48.3382 205.844C48.1194 205.807 47.8824 205.789 47.6272 205.789C46.6793 205.789 46.0361 206.193 45.6975 207V213H44.2522V204.547H45.6585L45.6819 205.523C46.1559 204.768 46.8277 204.391 47.6975 204.391C47.9788 204.391 48.1923 204.427 48.3382 204.5V205.844ZM49.135 208.695C49.135 207.867 49.2965 207.122 49.6194 206.461C49.9475 205.799 50.4007 205.289 50.9788 204.93C51.5621 204.57 52.2262 204.391 52.971 204.391C54.122 204.391 55.0517 204.789 55.76 205.586C56.4736 206.383 56.8303 207.443 56.8303 208.766V208.867C56.8303 209.69 56.6715 210.43 56.3538 211.086C56.0413 211.737 55.5908 212.245 55.0022 212.609C54.4189 212.974 53.747 213.156 52.9866 213.156C51.8408 213.156 50.9111 212.758 50.1975 211.961C49.4892 211.164 49.135 210.109 49.135 208.797V208.695ZM50.5882 208.867C50.5882 209.805 50.8043 210.557 51.2366 211.125C51.6741 211.693 52.2574 211.977 52.9866 211.977C53.721 211.977 54.3043 211.69 54.7366 211.117C55.1689 210.539 55.385 209.732 55.385 208.695C55.385 207.768 55.1637 207.018 54.721 206.445C54.2835 205.867 53.7001 205.578 52.971 205.578C52.2574 205.578 51.6819 205.862 51.2444 206.43C50.8069 206.997 50.5882 207.81 50.5882 208.867ZM58.2913 208.703C58.2913 207.406 58.5986 206.365 59.2132 205.578C59.8277 204.786 60.6324 204.391 61.6272 204.391C62.6168 204.391 63.4007 204.729 63.9788 205.406V201H65.4241V213H64.096L64.0257 212.094C63.4475 212.802 62.6428 213.156 61.6116 213.156C60.6324 213.156 59.833 212.755 59.2132 211.953C58.5986 211.151 58.2913 210.104 58.2913 208.812V208.703ZM59.7366 208.867C59.7366 209.826 59.9345 210.576 60.3303 211.117C60.7262 211.659 61.2731 211.93 61.971 211.93C62.8876 211.93 63.5569 211.518 63.9788 210.695V206.812C63.5465 206.016 62.8824 205.617 61.9866 205.617C61.2783 205.617 60.7262 205.891 60.3303 206.438C59.9345 206.984 59.7366 207.794 59.7366 208.867ZM72.8928 212.164C72.3303 212.826 71.5048 213.156 70.4163 213.156C69.5152 213.156 68.8277 212.896 68.3538 212.375C67.885 211.849 67.6481 211.073 67.6428 210.047V204.547H69.0882V210.008C69.0882 211.289 69.609 211.93 70.6507 211.93C71.7548 211.93 72.4892 211.518 72.8538 210.695V204.547H74.2991V213H72.9241L72.8928 212.164ZM79.8929 211.977C80.4085 211.977 80.859 211.82 81.2444 211.508C81.6298 211.195 81.8434 210.805 81.885 210.336H83.2522C83.2262 210.82 83.0595 211.281 82.7522 211.719C82.4449 212.156 82.0335 212.505 81.5179 212.766C81.0074 213.026 80.4658 213.156 79.8929 213.156C78.7418 213.156 77.8251 212.773 77.1429 212.008C76.4658 211.237 76.1272 210.185 76.1272 208.852V208.609C76.1272 207.786 76.2783 207.055 76.5804 206.414C76.8824 205.773 77.3147 205.276 77.8772 204.922C78.4449 204.568 79.1142 204.391 79.885 204.391C80.833 204.391 81.6194 204.674 82.2444 205.242C82.8746 205.81 83.2106 206.547 83.2522 207.453H81.885C81.8434 206.906 81.635 206.458 81.26 206.109C80.8902 205.755 80.4319 205.578 79.885 205.578C79.1507 205.578 78.5804 205.844 78.1741 206.375C77.7731 206.901 77.5725 207.664 77.5725 208.664V208.938C77.5725 209.911 77.7731 210.661 78.1741 211.188C78.5751 211.714 79.1481 211.977 79.8929 211.977ZM86.8382 202.5V204.547H88.4163V205.664H86.8382V210.906C86.8382 211.245 86.9085 211.5 87.0491 211.672C87.1897 211.839 87.4293 211.922 87.7679 211.922C87.9345 211.922 88.1637 211.891 88.4554 211.828V213C88.0751 213.104 87.7054 213.156 87.346 213.156C86.7001 213.156 86.2132 212.961 85.885 212.57C85.5569 212.18 85.3929 211.625 85.3929 210.906V205.664H83.8538V204.547H85.3929V202.5H86.8382ZM17.1741 225.625L20.8928 234.906L24.6116 225.625H26.5569V237H25.0569V232.57L25.1975 227.789L21.4632 237H20.3147L16.5882 227.812L16.7366 232.57V237H15.2366V225.625H17.1741ZM34.1975 237C34.1142 236.833 34.0465 236.536 33.9944 236.109C33.3225 236.807 32.5205 237.156 31.5882 237.156C30.7548 237.156 30.0699 236.922 29.5335 236.453C29.0022 235.979 28.7366 235.38 28.7366 234.656C28.7366 233.776 29.0699 233.094 29.7366 232.609C30.4085 232.12 31.3512 231.875 32.5647 231.875H33.971V231.211C33.971 230.706 33.8199 230.305 33.5178 230.008C33.2158 229.706 32.7705 229.555 32.1819 229.555C31.6663 229.555 31.234 229.685 30.885 229.945C30.5361 230.206 30.3616 230.521 30.3616 230.891H28.9085C28.9085 230.469 29.0569 230.062 29.3538 229.672C29.6559 229.276 30.0621 228.964 30.5725 228.734C31.0882 228.505 31.6533 228.391 32.2678 228.391C33.2418 228.391 34.0048 228.635 34.5569 229.125C35.109 229.609 35.3955 230.279 35.4163 231.133V235.023C35.4163 235.799 35.5152 236.417 35.7132 236.875V237H34.1975ZM31.7991 235.898C32.2522 235.898 32.6819 235.781 33.0882 235.547C33.4944 235.312 33.7887 235.008 33.971 234.633V232.898H32.8382C31.0673 232.898 30.1819 233.417 30.1819 234.453C30.1819 234.906 30.333 235.26 30.635 235.516C30.9371 235.771 31.3251 235.898 31.7991 235.898ZM39.0491 228.547L39.096 229.609C39.7418 228.797 40.5856 228.391 41.6272 228.391C43.4137 228.391 44.3147 229.398 44.3303 231.414V237H42.885V231.406C42.8798 230.797 42.7392 230.346 42.4632 230.055C42.1923 229.763 41.7678 229.617 41.1897 229.617C40.721 229.617 40.3095 229.742 39.9553 229.992C39.6012 230.242 39.3251 230.57 39.1272 230.977V237H37.6819V228.547H39.0491ZM51.7288 237C51.6455 236.833 51.5777 236.536 51.5257 236.109C50.8538 236.807 50.0517 237.156 49.1194 237.156C48.2861 237.156 47.6012 236.922 47.0647 236.453C46.5335 235.979 46.2678 235.38 46.2678 234.656C46.2678 233.776 46.6012 233.094 47.2678 232.609C47.9397 232.12 48.8824 231.875 50.096 231.875H51.5022V231.211C51.5022 230.706 51.3512 230.305 51.0491 230.008C50.747 229.706 50.3017 229.555 49.7132 229.555C49.1975 229.555 48.7652 229.685 48.4163 229.945C48.0673 230.206 47.8928 230.521 47.8928 230.891H46.4397C46.4397 230.469 46.5882 230.062 46.885 229.672C47.1871 229.276 47.5934 228.964 48.1038 228.734C48.6194 228.505 49.1845 228.391 49.7991 228.391C50.7731 228.391 51.5361 228.635 52.0882 229.125C52.6402 229.609 52.9267 230.279 52.9475 231.133V235.023C52.9475 235.799 53.0465 236.417 53.2444 236.875V237H51.7288ZM49.3303 235.898C49.7835 235.898 50.2132 235.781 50.6194 235.547C51.0257 235.312 51.3199 235.008 51.5022 234.633V232.898H50.3694C48.5986 232.898 47.7132 233.417 47.7132 234.453C47.7132 234.906 47.8642 235.26 48.1663 235.516C48.4684 235.771 48.8564 235.898 49.3303 235.898ZM54.8694 232.703C54.8694 231.385 55.1741 230.339 55.7835 229.562C56.3928 228.781 57.2001 228.391 58.2053 228.391C59.2366 228.391 60.0413 228.755 60.6194 229.484L60.6897 228.547H62.01V236.797C62.01 237.891 61.6845 238.753 61.0335 239.383C60.3876 240.013 59.5178 240.328 58.4241 240.328C57.8147 240.328 57.2184 240.198 56.635 239.938C56.0517 239.677 55.6064 239.32 55.2991 238.867L56.0491 238C56.6689 238.766 57.4267 239.148 58.3225 239.148C59.0257 239.148 59.5725 238.951 59.9632 238.555C60.359 238.159 60.5569 237.602 60.5569 236.883V236.156C59.9788 236.823 59.1897 237.156 58.1897 237.156C57.2001 237.156 56.3981 236.758 55.7835 235.961C55.1741 235.164 54.8694 234.078 54.8694 232.703ZM56.3225 232.867C56.3225 233.82 56.5178 234.57 56.9085 235.117C57.2991 235.659 57.846 235.93 58.5491 235.93C59.4606 235.93 60.1298 235.516 60.5569 234.688V230.828C60.1142 230.021 59.4501 229.617 58.5647 229.617C57.8616 229.617 57.3121 229.891 56.9163 230.438C56.5205 230.984 56.3225 231.794 56.3225 232.867ZM67.7053 237.156C66.5595 237.156 65.6272 236.781 64.9085 236.031C64.1897 235.276 63.8303 234.268 63.8303 233.008V232.742C63.8303 231.904 63.9892 231.156 64.3069 230.5C64.6298 229.839 65.0777 229.323 65.6507 228.953C66.2288 228.578 66.8538 228.391 67.5257 228.391C68.6246 228.391 69.4788 228.753 70.0882 229.477C70.6975 230.201 71.0022 231.237 71.0022 232.586V233.188H65.2757C65.2965 234.021 65.5387 234.695 66.0022 235.211C66.471 235.721 67.0647 235.977 67.7835 235.977C68.2939 235.977 68.7262 235.872 69.0803 235.664C69.4345 235.456 69.7444 235.18 70.01 234.836L70.8928 235.523C70.1845 236.612 69.122 237.156 67.7053 237.156ZM67.5257 229.578C66.9423 229.578 66.4527 229.792 66.0569 230.219C65.6611 230.641 65.4163 231.234 65.3225 232H69.5569V231.891C69.5152 231.156 69.3173 230.589 68.9632 230.188C68.609 229.781 68.1298 229.578 67.5257 229.578ZM74.0413 228.547L74.0804 229.484C74.7001 228.755 75.5361 228.391 76.5882 228.391C77.7705 228.391 78.5751 228.844 79.0022 229.75C79.2835 229.344 79.6481 229.016 80.096 228.766C80.5491 228.516 81.083 228.391 81.6975 228.391C83.5517 228.391 84.4944 229.372 84.5257 231.336V237H83.0804V231.422C83.0804 230.818 82.9423 230.367 82.6663 230.07C82.3902 229.768 81.9267 229.617 81.2757 229.617C80.7392 229.617 80.2939 229.779 79.9397 230.102C79.5856 230.419 79.3798 230.849 79.3225 231.391V237H77.8694V231.461C77.8694 230.232 77.2679 229.617 76.0647 229.617C75.1168 229.617 74.4684 230.021 74.1194 230.828V237H72.6741V228.547H74.0413ZM90.221 237.156C89.0751 237.156 88.1429 236.781 87.4241 236.031C86.7054 235.276 86.346 234.268 86.346 233.008V232.742C86.346 231.904 86.5048 231.156 86.8225 230.5C87.1455 229.839 87.5934 229.323 88.1663 228.953C88.7444 228.578 89.3694 228.391 90.0413 228.391C91.1402 228.391 91.9944 228.753 92.6038 229.477C93.2132 230.201 93.5179 231.237 93.5179 232.586V233.188H87.7913C87.8121 234.021 88.0543 234.695 88.5179 235.211C88.9866 235.721 89.5804 235.977 90.2991 235.977C90.8095 235.977 91.2418 235.872 91.596 235.664C91.9501 235.456 92.26 235.18 92.5257 234.836L93.4085 235.523C92.7001 236.612 91.6376 237.156 90.221 237.156ZM90.0413 229.578C89.458 229.578 88.9684 229.792 88.5725 230.219C88.1767 230.641 87.9319 231.234 87.8382 232H92.0725V231.891C92.0309 231.156 91.833 230.589 91.4788 230.188C91.1246 229.781 90.6455 229.578 90.0413 229.578ZM96.5647 228.547L96.6116 229.609C97.2574 228.797 98.1012 228.391 99.1429 228.391C100.929 228.391 101.83 229.398 101.846 231.414V237H100.401V231.406C100.395 230.797 100.255 230.346 99.9788 230.055C99.708 229.763 99.2835 229.617 98.7054 229.617C98.2366 229.617 97.8251 229.742 97.471 229.992C97.1168 230.242 96.8408 230.57 96.6429 230.977V237H95.1975V228.547H96.5647ZM105.987 226.5V228.547H107.565V229.664H105.987V234.906C105.987 235.245 106.057 235.5 106.198 235.672C106.338 235.839 106.578 235.922 106.916 235.922C107.083 235.922 107.312 235.891 107.604 235.828V237C107.224 237.104 106.854 237.156 106.494 237.156C105.849 237.156 105.362 236.961 105.033 236.57C104.705 236.18 104.541 235.625 104.541 234.906V229.664H103.002V228.547H104.541V226.5H105.987Z" fill="#262626"/>
<path d="M115.747 383.466C115.747 414.483 90.9616 439.619 60.3992 439.619C29.8368 439.619 5.05172 414.483 5.05172 383.466C5.05172 352.449 29.8368 327.313 60.3992 327.313C90.9616 327.313 115.747 352.449 115.747 383.466Z" stroke="#262626" stroke-width="0.763593"/>
<path d="M120.446 378.267C120.446 409.284 95.6608 434.419 65.0984 434.419C34.536 434.419 9.75094 409.284 9.75094 378.267C9.75094 347.249 34.536 322.114 65.0984 322.114C95.6608 322.114 120.446 347.249 120.446 378.267Z" stroke="#262626" stroke-width="0.763593"/>
<path d="M111.903 376.534C111.903 407.552 87.1178 432.687 56.5554 432.687C25.993 432.687 1.20797 407.552 1.20797 376.534C1.20797 345.517 25.993 320.382 56.5554 320.382C87.1178 320.382 111.903 345.517 111.903 376.534Z" stroke="#262626" stroke-width="0.763593"/>
<path d="M33.76 367.93C32.4736 367.56 31.5361 367.107 30.9475 366.57C30.3642 366.029 30.0725 365.362 30.0725 364.57C30.0725 363.674 30.4293 362.935 31.1428 362.352C31.8616 361.763 32.7939 361.469 33.9397 361.469C34.721 361.469 35.4163 361.62 36.0257 361.922C36.6402 362.224 37.1142 362.641 37.4475 363.172C37.7861 363.703 37.9553 364.284 37.9553 364.914H36.4475C36.4475 364.227 36.2288 363.688 35.7913 363.297C35.3538 362.901 34.7366 362.703 33.9397 362.703C33.2001 362.703 32.622 362.867 32.2053 363.195C31.7939 363.518 31.5882 363.969 31.5882 364.547C31.5882 365.01 31.7835 365.404 32.1741 365.727C32.5699 366.044 33.2392 366.336 34.1819 366.602C35.1298 366.867 35.8694 367.161 36.4007 367.484C36.9371 367.802 37.333 368.174 37.5882 368.602C37.8486 369.029 37.9788 369.531 37.9788 370.109C37.9788 371.031 37.6194 371.771 36.9007 372.328C36.1819 372.88 35.221 373.156 34.0178 373.156C33.2366 373.156 32.5074 373.008 31.8303 372.711C31.1533 372.409 30.6298 371.997 30.26 371.477C29.8955 370.956 29.7132 370.365 29.7132 369.703H31.221C31.221 370.391 31.4736 370.935 31.9788 371.336C32.4892 371.732 33.1689 371.93 34.0178 371.93C34.8095 371.93 35.4163 371.768 35.8382 371.445C36.26 371.122 36.471 370.682 36.471 370.125C36.471 369.568 36.2757 369.138 35.885 368.836C35.4944 368.529 34.7861 368.227 33.76 367.93ZM39.2991 368.695C39.2991 367.867 39.4606 367.122 39.7835 366.461C40.1116 365.799 40.5647 365.289 41.1428 364.93C41.7262 364.57 42.3902 364.391 43.135 364.391C44.2861 364.391 45.2158 364.789 45.9241 365.586C46.6376 366.383 46.9944 367.443 46.9944 368.766V368.867C46.9944 369.69 46.8356 370.43 46.5178 371.086C46.2053 371.737 45.7548 372.245 45.1663 372.609C44.583 372.974 43.9111 373.156 43.1507 373.156C42.0048 373.156 41.0751 372.758 40.3616 371.961C39.6533 371.164 39.2991 370.109 39.2991 368.797V368.695ZM40.7522 368.867C40.7522 369.805 40.9684 370.557 41.4007 371.125C41.8382 371.693 42.4215 371.977 43.1507 371.977C43.885 371.977 44.4684 371.69 44.9007 371.117C45.333 370.539 45.5491 369.732 45.5491 368.695C45.5491 367.768 45.3277 367.018 44.885 366.445C44.4475 365.867 43.8642 365.578 43.135 365.578C42.4215 365.578 41.846 365.862 41.4085 366.43C40.971 366.997 40.7522 367.81 40.7522 368.867ZM49.5178 373V365.664H48.1819V364.547H49.5178V363.68C49.5178 362.773 49.76 362.073 50.2444 361.578C50.7288 361.083 51.4137 360.836 52.2991 360.836C52.6324 360.836 52.9632 360.88 53.2913 360.969L53.2132 362.141C52.9684 362.094 52.708 362.07 52.4319 362.07C51.9632 362.07 51.6012 362.208 51.346 362.484C51.0908 362.755 50.9632 363.146 50.9632 363.656V364.547H52.7678V365.664H50.9632V373H49.5178ZM56.3303 362.5V364.547H57.9085V365.664H56.3303V370.906C56.3303 371.245 56.4007 371.5 56.5413 371.672C56.6819 371.839 56.9215 371.922 57.26 371.922C57.4267 371.922 57.6559 371.891 57.9475 371.828V373C57.5673 373.104 57.1975 373.156 56.8382 373.156C56.1923 373.156 55.7053 372.961 55.3772 372.57C55.0491 372.18 54.885 371.625 54.885 370.906V365.664H53.346V364.547H54.885V362.5H56.3303ZM67.0882 371.008L68.7132 364.547H70.1585L67.6975 373H66.5257L64.471 366.594L62.471 373H61.2991L58.846 364.547H60.2835L61.9475 370.875L63.9163 364.547H65.0803L67.0882 371.008ZM76.8538 373C76.7705 372.833 76.7027 372.536 76.6507 372.109C75.9788 372.807 75.1767 373.156 74.2444 373.156C73.4111 373.156 72.7262 372.922 72.1897 372.453C71.6585 371.979 71.3928 371.38 71.3928 370.656C71.3928 369.776 71.7262 369.094 72.3928 368.609C73.0647 368.12 74.0074 367.875 75.221 367.875H76.6272V367.211C76.6272 366.706 76.4762 366.305 76.1741 366.008C75.872 365.706 75.4267 365.555 74.8382 365.555C74.3225 365.555 73.8902 365.685 73.5413 365.945C73.1923 366.206 73.0178 366.521 73.0178 366.891H71.5647C71.5647 366.469 71.7132 366.062 72.01 365.672C72.3121 365.276 72.7184 364.964 73.2288 364.734C73.7444 364.505 74.3095 364.391 74.9241 364.391C75.8981 364.391 76.6611 364.635 77.2132 365.125C77.7652 365.609 78.0517 366.279 78.0725 367.133V371.023C78.0725 371.799 78.1715 372.417 78.3694 372.875V373H76.8538ZM74.4553 371.898C74.9085 371.898 75.3382 371.781 75.7444 371.547C76.1507 371.312 76.4449 371.008 76.6272 370.633V368.898H75.4944C73.7236 368.898 72.8382 369.417 72.8382 370.453C72.8382 370.906 72.9892 371.26 73.2913 371.516C73.5934 371.771 73.9814 371.898 74.4553 371.898ZM84.4241 365.844C84.2054 365.807 83.9684 365.789 83.7132 365.789C82.7652 365.789 82.122 366.193 81.7835 367V373H80.3382V364.547H81.7444L81.7679 365.523C82.2418 364.768 82.9137 364.391 83.7835 364.391C84.0647 364.391 84.2783 364.427 84.4241 364.5V365.844ZM89.1116 373.156C87.9658 373.156 87.0335 372.781 86.3147 372.031C85.596 371.276 85.2366 370.268 85.2366 369.008V368.742C85.2366 367.904 85.3955 367.156 85.7132 366.5C86.0361 365.839 86.484 365.323 87.0569 364.953C87.635 364.578 88.26 364.391 88.9319 364.391C90.0309 364.391 90.885 364.753 91.4944 365.477C92.1038 366.201 92.4085 367.237 92.4085 368.586V369.188H86.6819C86.7027 370.021 86.9449 370.695 87.4085 371.211C87.8772 371.721 88.471 371.977 89.1897 371.977C89.7001 371.977 90.1324 371.872 90.4866 371.664C90.8408 371.456 91.1507 371.18 91.4163 370.836L92.2991 371.523C91.5908 372.612 90.5283 373.156 89.1116 373.156ZM88.9319 365.578C88.3486 365.578 87.859 365.792 87.4632 366.219C87.0673 366.641 86.8225 367.234 86.7288 368H90.9632V367.891C90.9215 367.156 90.7236 366.589 90.3694 366.188C90.0152 365.781 89.5361 365.578 88.9319 365.578ZM26.9085 397V385.625H30.1194C31.109 385.625 31.984 385.844 32.7444 386.281C33.5048 386.719 34.0908 387.341 34.5022 388.148C34.9189 388.956 35.1298 389.883 35.135 390.93V391.656C35.135 392.729 34.9267 393.669 34.51 394.477C34.0986 395.284 33.5074 395.904 32.7366 396.336C31.971 396.768 31.0777 396.99 30.0569 397H26.9085ZM28.4085 386.859V395.773H29.9866C31.1428 395.773 32.0413 395.414 32.6819 394.695C33.3277 393.977 33.6507 392.953 33.6507 391.625V390.961C33.6507 389.669 33.346 388.667 32.7366 387.953C32.1324 387.234 31.2731 386.87 30.1585 386.859H28.4085ZM40.6897 397.156C39.5439 397.156 38.6116 396.781 37.8928 396.031C37.1741 395.276 36.8147 394.268 36.8147 393.008V392.742C36.8147 391.904 36.9736 391.156 37.2913 390.5C37.6142 389.839 38.0621 389.323 38.635 388.953C39.2132 388.578 39.8382 388.391 40.51 388.391C41.609 388.391 42.4632 388.753 43.0725 389.477C43.6819 390.201 43.9866 391.237 43.9866 392.586V393.188H38.26C38.2809 394.021 38.5231 394.695 38.9866 395.211C39.4553 395.721 40.0491 395.977 40.7678 395.977C41.2783 395.977 41.7106 395.872 42.0647 395.664C42.4189 395.456 42.7288 395.18 42.9944 394.836L43.8772 395.523C43.1689 396.612 42.1064 397.156 40.6897 397.156ZM40.51 389.578C39.9267 389.578 39.4371 389.792 39.0413 390.219C38.6455 390.641 38.4007 391.234 38.3069 392H42.5413V391.891C42.4996 391.156 42.3017 390.589 41.9475 390.188C41.5934 389.781 41.1142 389.578 40.51 389.578ZM48.346 395.039L50.4397 388.547H51.9163L48.885 397H47.7835L44.721 388.547H46.1975L48.346 395.039ZM56.7053 397.156C55.5595 397.156 54.6272 396.781 53.9085 396.031C53.1897 395.276 52.8303 394.268 52.8303 393.008V392.742C52.8303 391.904 52.9892 391.156 53.3069 390.5C53.6298 389.839 54.0777 389.323 54.6507 388.953C55.2288 388.578 55.8538 388.391 56.5257 388.391C57.6246 388.391 58.4788 388.753 59.0882 389.477C59.6975 390.201 60.0022 391.237 60.0022 392.586V393.188H54.2757C54.2965 394.021 54.5387 394.695 55.0022 395.211C55.471 395.721 56.0647 395.977 56.7835 395.977C57.2939 395.977 57.7262 395.872 58.0803 395.664C58.4345 395.456 58.7444 395.18 59.01 394.836L59.8928 395.523C59.1845 396.612 58.122 397.156 56.7053 397.156ZM56.5257 389.578C55.9423 389.578 55.4527 389.792 55.0569 390.219C54.6611 390.641 54.4163 391.234 54.3225 392H58.5569V391.891C58.5152 391.156 58.3173 390.589 57.9632 390.188C57.609 389.781 57.1298 389.578 56.5257 389.578ZM63.2522 397H61.8069V385H63.2522V397ZM65.1897 392.695C65.1897 391.867 65.3512 391.122 65.6741 390.461C66.0022 389.799 66.4553 389.289 67.0335 388.93C67.6168 388.57 68.2809 388.391 69.0257 388.391C70.1767 388.391 71.1064 388.789 71.8147 389.586C72.5283 390.383 72.885 391.443 72.885 392.766V392.867C72.885 393.69 72.7262 394.43 72.4085 395.086C72.096 395.737 71.6455 396.245 71.0569 396.609C70.4736 396.974 69.8017 397.156 69.0413 397.156C67.8955 397.156 66.9658 396.758 66.2522 395.961C65.5439 395.164 65.1897 394.109 65.1897 392.797V392.695ZM66.6428 392.867C66.6428 393.805 66.859 394.557 67.2913 395.125C67.7288 395.693 68.3121 395.977 69.0413 395.977C69.7757 395.977 70.359 395.69 70.7913 395.117C71.2236 394.539 71.4397 393.732 71.4397 392.695C71.4397 391.768 71.2184 391.018 70.7757 390.445C70.3382 389.867 69.7548 389.578 69.0257 389.578C68.3121 389.578 67.7366 389.862 67.2991 390.43C66.8616 390.997 66.6428 391.81 66.6428 392.867ZM81.8382 392.867C81.8382 394.154 81.5439 395.19 80.9554 395.977C80.3668 396.763 79.5699 397.156 78.5647 397.156C77.5387 397.156 76.7314 396.831 76.1429 396.18V400.25H74.6975V388.547H76.0179L76.0882 389.484C76.6767 388.755 77.4944 388.391 78.5413 388.391C79.5569 388.391 80.359 388.773 80.9475 389.539C81.5413 390.305 81.8382 391.37 81.8382 392.734V392.867ZM80.3929 392.703C80.3929 391.75 80.1897 390.997 79.7835 390.445C79.3772 389.893 78.8199 389.617 78.1116 389.617C77.2366 389.617 76.5804 390.005 76.1429 390.781V394.82C76.5751 395.591 77.2366 395.977 78.1272 395.977C78.8199 395.977 79.3694 395.703 79.7757 395.156C80.1871 394.604 80.3929 393.786 80.3929 392.703ZM87.1897 397.156C86.0439 397.156 85.1116 396.781 84.3929 396.031C83.6741 395.276 83.3147 394.268 83.3147 393.008V392.742C83.3147 391.904 83.4736 391.156 83.7913 390.5C84.1142 389.839 84.5621 389.323 85.135 388.953C85.7132 388.578 86.3382 388.391 87.01 388.391C88.109 388.391 88.9632 388.753 89.5725 389.477C90.1819 390.201 90.4866 391.237 90.4866 392.586V393.188H84.76C84.7809 394.021 85.0231 394.695 85.4866 395.211C85.9554 395.721 86.5491 395.977 87.2679 395.977C87.7783 395.977 88.2106 395.872 88.5647 395.664C88.9189 395.456 89.2288 395.18 89.4944 394.836L90.3772 395.523C89.6689 396.612 88.6064 397.156 87.1897 397.156ZM87.01 389.578C86.4267 389.578 85.9371 389.792 85.5413 390.219C85.1455 390.641 84.9007 391.234 84.8069 392H89.0413V391.891C88.9996 391.156 88.8017 390.589 88.4475 390.188C88.0934 389.781 87.6142 389.578 87.01 389.578ZM96.2522 389.844C96.0335 389.807 95.7965 389.789 95.5413 389.789C94.5934 389.789 93.9501 390.193 93.6116 391V397H92.1663V388.547H93.5725L93.596 389.523C94.0699 388.768 94.7418 388.391 95.6116 388.391C95.8929 388.391 96.1064 388.427 96.2522 388.5V389.844Z" fill="#262626"/>
<path d="M115.747 543.466C115.747 574.483 90.9616 599.619 60.3992 599.619C29.8368 599.619 5.05172 574.483 5.05172 543.466C5.05172 512.449 29.8368 487.313 60.3992 487.313C90.9616 487.313 115.747 512.449 115.747 543.466Z" stroke="#262626" stroke-width="0.763593"/>
<path d="M120.446 538.267C120.446 569.284 95.6608 594.419 65.0984 594.419C34.536 594.419 9.75094 569.284 9.75094 538.267C9.75094 507.249 34.536 482.114 65.0984 482.114C95.6608 482.114 120.446 507.249 120.446 538.267Z" stroke="#262626" stroke-width="0.763593"/>
<path d="M111.903 536.534C111.903 567.552 87.1178 592.687 56.5554 592.687C25.993 592.687 1.20797 567.552 1.20797 536.534C1.20797 505.517 25.993 480.382 56.5554 480.382C87.1178 480.382 111.903 505.517 111.903 536.534Z" stroke="#262626" stroke-width="0.763593"/>
<path d="M45.0725 531.508C44.6871 532.06 44.1481 532.474 43.4553 532.75C42.7678 533.021 41.9658 533.156 41.0491 533.156C40.122 533.156 39.2991 532.94 38.5803 532.508C37.8616 532.07 37.3043 531.451 36.9085 530.648C36.5178 529.846 36.3173 528.917 36.3069 527.859V526.867C36.3069 525.154 36.7053 523.826 37.5022 522.883C38.3043 521.94 39.4293 521.469 40.8772 521.469C42.0647 521.469 43.0205 521.773 43.7444 522.383C44.4684 522.987 44.9111 523.846 45.0725 524.961H43.5725C43.2913 523.456 42.3955 522.703 40.885 522.703C39.8798 522.703 39.1168 523.057 38.596 523.766C38.0803 524.469 37.8199 525.49 37.8147 526.828V527.758C37.8147 529.034 38.1064 530.049 38.6897 530.805C39.2731 531.555 40.0621 531.93 41.0569 531.93C41.6194 531.93 42.1116 531.867 42.5335 531.742C42.9553 531.617 43.3043 531.406 43.5803 531.109V528.555H40.9475V527.336H45.0725V531.508ZM51.4397 525.844C51.221 525.807 50.984 525.789 50.7288 525.789C49.7809 525.789 49.1376 526.193 48.7991 527V533H47.3538V524.547H48.76L48.7835 525.523C49.2574 524.768 49.9293 524.391 50.7991 524.391C51.0803 524.391 51.2939 524.427 51.4397 524.5V525.844ZM52.2366 528.695C52.2366 527.867 52.3981 527.122 52.721 526.461C53.0491 525.799 53.5022 525.289 54.0803 524.93C54.6637 524.57 55.3277 524.391 56.0725 524.391C57.2236 524.391 58.1533 524.789 58.8616 525.586C59.5751 526.383 59.9319 527.443 59.9319 528.766V528.867C59.9319 529.69 59.7731 530.43 59.4553 531.086C59.1428 531.737 58.6923 532.245 58.1038 532.609C57.5205 532.974 56.8486 533.156 56.0882 533.156C54.9423 533.156 54.0126 532.758 53.2991 531.961C52.5908 531.164 52.2366 530.109 52.2366 528.797V528.695ZM53.6897 528.867C53.6897 529.805 53.9059 530.557 54.3382 531.125C54.7757 531.693 55.359 531.977 56.0882 531.977C56.8225 531.977 57.4059 531.69 57.8382 531.117C58.2705 530.539 58.4866 529.732 58.4866 528.695C58.4866 527.768 58.2652 527.018 57.8225 526.445C57.385 525.867 56.8017 525.578 56.0725 525.578C55.359 525.578 54.7835 525.862 54.346 526.43C53.9085 526.997 53.6897 527.81 53.6897 528.867ZM69.2288 531.008L70.8538 524.547H72.2991L69.8382 533H68.6663L66.6116 526.594L64.6116 533H63.4397L60.9866 524.547H62.4241L64.0882 530.875L66.0569 524.547H67.221L69.2288 531.008ZM75.7366 522.5V524.547H77.3147V525.664H75.7366V530.906C75.7366 531.245 75.8069 531.5 75.9475 531.672C76.0882 531.839 76.3277 531.922 76.6663 531.922C76.833 531.922 77.0621 531.891 77.3538 531.828V533C76.9736 533.104 76.6038 533.156 76.2444 533.156C75.5986 533.156 75.1116 532.961 74.7835 532.57C74.4554 532.18 74.2913 531.625 74.2913 530.906V525.664H72.7522V524.547H74.2913V522.5H75.7366ZM80.4554 525.57C81.096 524.784 81.9293 524.391 82.9554 524.391C84.7418 524.391 85.6429 525.398 85.6585 527.414V533H84.2132V527.406C84.208 526.797 84.0673 526.346 83.7913 526.055C83.5205 525.763 83.096 525.617 82.5179 525.617C82.0491 525.617 81.6376 525.742 81.2835 525.992C80.9293 526.242 80.6533 526.57 80.4554 526.977V533H79.01V521H80.4554V525.57ZM36.2991 551.93C35.0126 551.56 34.0751 551.107 33.4866 550.57C32.9033 550.029 32.6116 549.362 32.6116 548.57C32.6116 547.674 32.9684 546.935 33.6819 546.352C34.4007 545.763 35.333 545.469 36.4788 545.469C37.26 545.469 37.9553 545.62 38.5647 545.922C39.1793 546.224 39.6533 546.641 39.9866 547.172C40.3251 547.703 40.4944 548.284 40.4944 548.914H38.9866C38.9866 548.227 38.7678 547.688 38.3303 547.297C37.8928 546.901 37.2757 546.703 36.4788 546.703C35.7392 546.703 35.1611 546.867 34.7444 547.195C34.333 547.518 34.1272 547.969 34.1272 548.547C34.1272 549.01 34.3225 549.404 34.7132 549.727C35.109 550.044 35.7783 550.336 36.721 550.602C37.6689 550.867 38.4085 551.161 38.9397 551.484C39.4762 551.802 39.872 552.174 40.1272 552.602C40.3876 553.029 40.5178 553.531 40.5178 554.109C40.5178 555.031 40.1585 555.771 39.4397 556.328C38.721 556.88 37.76 557.156 36.5569 557.156C35.7757 557.156 35.0465 557.008 34.3694 556.711C33.6923 556.409 33.1689 555.997 32.7991 555.477C32.4345 554.956 32.2522 554.365 32.2522 553.703H33.76C33.76 554.391 34.0126 554.935 34.5178 555.336C35.0283 555.732 35.708 555.93 36.5569 555.93C37.3486 555.93 37.9553 555.768 38.3772 555.445C38.7991 555.122 39.01 554.682 39.01 554.125C39.01 553.568 38.8147 553.138 38.4241 552.836C38.0335 552.529 37.3251 552.227 36.2991 551.93ZM44.1819 546.5V548.547H45.76V549.664H44.1819V554.906C44.1819 555.245 44.2522 555.5 44.3928 555.672C44.5335 555.839 44.7731 555.922 45.1116 555.922C45.2783 555.922 45.5074 555.891 45.7991 555.828V557C45.4189 557.104 45.0491 557.156 44.6897 557.156C44.0439 557.156 43.5569 556.961 43.2288 556.57C42.9007 556.18 42.7366 555.625 42.7366 554.906V549.664H41.1975V548.547H42.7366V546.5H44.1819ZM51.5413 549.844C51.3225 549.807 51.0856 549.789 50.8303 549.789C49.8824 549.789 49.2392 550.193 48.9007 551V557H47.4553V548.547H48.8616L48.885 549.523C49.359 548.768 50.0309 548.391 50.9007 548.391C51.1819 548.391 51.3955 548.427 51.5413 548.5V549.844ZM57.7835 557C57.7001 556.833 57.6324 556.536 57.5803 556.109C56.9085 556.807 56.1064 557.156 55.1741 557.156C54.3408 557.156 53.6559 556.922 53.1194 556.453C52.5882 555.979 52.3225 555.38 52.3225 554.656C52.3225 553.776 52.6559 553.094 53.3225 552.609C53.9944 552.12 54.9371 551.875 56.1507 551.875H57.5569V551.211C57.5569 550.706 57.4059 550.305 57.1038 550.008C56.8017 549.706 56.3564 549.555 55.7678 549.555C55.2522 549.555 54.8199 549.685 54.471 549.945C54.122 550.206 53.9475 550.521 53.9475 550.891H52.4944C52.4944 550.469 52.6428 550.062 52.9397 549.672C53.2418 549.276 53.6481 548.964 54.1585 548.734C54.6741 548.505 55.2392 548.391 55.8538 548.391C56.8277 548.391 57.5908 548.635 58.1428 549.125C58.6949 549.609 58.9814 550.279 59.0022 551.133V555.023C59.0022 555.799 59.1012 556.417 59.2991 556.875V557H57.7835ZM55.385 555.898C55.8382 555.898 56.2678 555.781 56.6741 555.547C57.0803 555.312 57.3746 555.008 57.5569 554.633V552.898H56.4241C54.6533 552.898 53.7678 553.417 53.7678 554.453C53.7678 554.906 53.9189 555.26 54.221 555.516C54.5231 555.771 54.9111 555.898 55.385 555.898ZM63.2288 546.5V548.547H64.8069V549.664H63.2288V554.906C63.2288 555.245 63.2991 555.5 63.4397 555.672C63.5803 555.839 63.8199 555.922 64.1585 555.922C64.3251 555.922 64.5543 555.891 64.846 555.828V557C64.4658 557.104 64.096 557.156 63.7366 557.156C63.0908 557.156 62.6038 556.961 62.2757 556.57C61.9475 556.18 61.7835 555.625 61.7835 554.906V549.664H60.2444V548.547H61.7835V546.5H63.2288ZM70.01 557.156C68.8642 557.156 67.9319 556.781 67.2132 556.031C66.4944 555.276 66.135 554.268 66.135 553.008V552.742C66.135 551.904 66.2939 551.156 66.6116 550.5C66.9345 549.839 67.3824 549.323 67.9553 548.953C68.5335 548.578 69.1585 548.391 69.8303 548.391C70.9293 548.391 71.7835 548.753 72.3928 549.477C73.0022 550.201 73.3069 551.237 73.3069 552.586V553.188H67.5803C67.6012 554.021 67.8434 554.695 68.3069 555.211C68.7757 555.721 69.3694 555.977 70.0882 555.977C70.5986 555.977 71.0309 555.872 71.385 555.664C71.7392 555.456 72.0491 555.18 72.3147 554.836L73.1975 555.523C72.4892 556.612 71.4267 557.156 70.01 557.156ZM69.8303 549.578C69.247 549.578 68.7574 549.792 68.3616 550.219C67.9658 550.641 67.721 551.234 67.6272 552H71.8616V551.891C71.8199 551.156 71.622 550.589 71.2678 550.188C70.9137 549.781 70.4345 549.578 69.8303 549.578ZM74.6429 552.703C74.6429 551.385 74.9475 550.339 75.5569 549.562C76.1663 548.781 76.9736 548.391 77.9788 548.391C79.01 548.391 79.8147 548.755 80.3929 549.484L80.4632 548.547H81.7835V556.797C81.7835 557.891 81.458 558.753 80.8069 559.383C80.1611 560.013 79.2913 560.328 78.1975 560.328C77.5882 560.328 76.9918 560.198 76.4085 559.938C75.8251 559.677 75.3798 559.32 75.0725 558.867L75.8225 558C76.4423 558.766 77.2001 559.148 78.096 559.148C78.7991 559.148 79.346 558.951 79.7366 558.555C80.1324 558.159 80.3304 557.602 80.3304 556.883V556.156C79.7522 556.823 78.9632 557.156 77.9632 557.156C76.9736 557.156 76.1715 556.758 75.5569 555.961C74.9475 555.164 74.6429 554.078 74.6429 552.703ZM76.096 552.867C76.096 553.82 76.2913 554.57 76.6819 555.117C77.0725 555.659 77.6194 555.93 78.3225 555.93C79.234 555.93 79.9033 555.516 80.3304 554.688V550.828C79.8876 550.021 79.2236 549.617 78.3382 549.617C77.635 549.617 77.0856 549.891 76.6897 550.438C76.2939 550.984 76.096 551.794 76.096 552.867ZM86.7366 554.883L88.7054 548.547H90.2522L86.8538 558.305C86.3277 559.711 85.4918 560.414 84.346 560.414L84.0725 560.391L83.5335 560.289V559.117L83.9241 559.148C84.4137 559.148 84.7939 559.049 85.0647 558.852C85.3408 558.654 85.5673 558.292 85.7444 557.766L86.0647 556.906L83.0491 548.547H84.6272L86.7366 554.883Z" fill="#262626"/>
<path d="M275.749 63.466C275.749 94.4834 250.964 119.619 220.401 119.619C189.839 119.619 165.054 94.4834 165.054 63.466C165.054 32.4486 189.839 7.31344 220.401 7.31344C250.964 7.31344 275.749 32.4486 275.749 63.466Z" stroke="#262626" stroke-width="0.763593"/>
<path d="M280.448 58.2668C280.448 89.2842 255.663 114.419 225.1 114.419C194.538 114.419 169.753 89.2842 169.753 58.2668C169.753 27.2494 194.538 2.11422 225.1 2.11422C255.663 2.11422 280.448 27.2494 280.448 58.2668Z" stroke="#262626" stroke-width="0.763593"/>
<path d="M271.905 56.5344C271.905 87.5518 247.12 112.687 216.557 112.687C185.995 112.687 161.21 87.5518 161.21 56.5344C161.21 25.517 185.995 0.381797 216.557 0.381797C247.12 0.381797 271.905 25.517 271.905 56.5344Z" stroke="#262626" stroke-width="0.763593"/>
<path d="M209.504 41.625V49.3594C209.499 50.4323 209.16 51.3099 208.489 51.9922C207.822 52.6745 206.916 53.0573 205.77 53.1406L205.371 53.1562C204.127 53.1562 203.134 52.8203 202.395 52.1484C201.655 51.4766 201.28 50.5521 201.27 49.375V41.625H202.754V49.3281C202.754 50.151 202.981 50.7917 203.434 51.25C203.887 51.7031 204.533 51.9297 205.371 51.9297C206.22 51.9297 206.869 51.7031 207.317 51.25C207.77 50.7969 207.996 50.1589 207.996 49.3359V41.625H209.504ZM213.481 53H211.981V41.625H213.481V53ZM216.293 53.9766H215.051L219.801 41.625H221.035L216.293 53.9766ZM230.832 41.625V49.3594C230.827 50.4323 230.489 51.3099 229.817 51.9922C229.15 52.6745 228.244 53.0573 227.098 53.1406L226.699 53.1562C225.455 53.1562 224.463 52.8203 223.723 52.1484C222.983 51.4766 222.608 50.5521 222.598 49.375V41.625H224.082V49.3281C224.082 50.151 224.309 50.7917 224.762 51.25C225.215 51.7031 225.861 51.9297 226.699 51.9297C227.548 51.9297 228.197 51.7031 228.645 51.25C229.098 50.7969 229.324 50.1589 229.324 49.3359V41.625H230.832ZM236.91 45.9844L239.637 41.625H241.403L237.809 47.2656L241.489 53H239.707L236.91 48.5625L234.098 53H232.324L236.012 47.2656L232.41 41.625H234.168L236.91 45.9844ZM190.942 77V65.625H194.153C195.142 65.625 196.017 65.8438 196.778 66.2812C197.538 66.7188 198.124 67.3411 198.535 68.1484C198.952 68.9557 199.163 69.8828 199.168 70.9297V71.6562C199.168 72.7292 198.96 73.6693 198.543 74.4766C198.132 75.2839 197.541 75.9036 196.77 76.3359C196.004 76.7682 195.111 76.9896 194.09 77H190.942ZM192.442 66.8594V75.7734H194.02C195.176 75.7734 196.074 75.4141 196.715 74.6953C197.361 73.9766 197.684 72.9531 197.684 71.625V70.9609C197.684 69.6693 197.379 68.6667 196.77 67.9531C196.166 67.2344 195.306 66.8698 194.192 66.8594H192.442ZM204.723 77.1562C203.577 77.1562 202.645 76.7812 201.926 76.0312C201.207 75.276 200.848 74.2682 200.848 73.0078V72.7422C200.848 71.9036 201.007 71.1562 201.324 70.5C201.647 69.8385 202.095 69.3229 202.668 68.9531C203.246 68.5781 203.871 68.3906 204.543 68.3906C205.642 68.3906 206.496 68.7526 207.106 69.4766C207.715 70.2005 208.02 71.237 208.02 72.5859V73.1875H202.293C202.314 74.0208 202.556 74.6953 203.02 75.2109C203.489 75.7214 204.082 75.9766 204.801 75.9766C205.311 75.9766 205.744 75.8724 206.098 75.6641C206.452 75.4557 206.762 75.1797 207.028 74.8359L207.91 75.5234C207.202 76.612 206.14 77.1562 204.723 77.1562ZM204.543 69.5781C203.96 69.5781 203.47 69.7917 203.074 70.2188C202.679 70.6406 202.434 71.2344 202.34 72H206.574V71.8906C206.533 71.1562 206.335 70.5885 205.981 70.1875C205.627 69.7812 205.147 69.5781 204.543 69.5781ZM214.621 74.7578C214.621 74.3672 214.473 74.0651 214.176 73.8516C213.884 73.6328 213.371 73.4453 212.637 73.2891C211.908 73.1328 211.327 72.9453 210.895 72.7266C210.468 72.5078 210.15 72.2474 209.942 71.9453C209.739 71.6432 209.637 71.2839 209.637 70.8672C209.637 70.1745 209.929 69.5885 210.512 69.1094C211.101 68.6302 211.851 68.3906 212.762 68.3906C213.72 68.3906 214.496 68.638 215.09 69.1328C215.689 69.6276 215.989 70.2604 215.989 71.0312H214.535C214.535 70.6354 214.366 70.2943 214.028 70.0078C213.694 69.7214 213.272 69.5781 212.762 69.5781C212.236 69.5781 211.824 69.6927 211.528 69.9219C211.231 70.151 211.082 70.4505 211.082 70.8203C211.082 71.1693 211.22 71.4323 211.496 71.6094C211.772 71.7865 212.27 71.9557 212.989 72.1172C213.713 72.2786 214.298 72.4714 214.746 72.6953C215.194 72.9193 215.525 73.1901 215.739 73.5078C215.957 73.8203 216.067 74.2031 216.067 74.6562C216.067 75.4115 215.765 76.0182 215.16 76.4766C214.556 76.9297 213.772 77.1562 212.809 77.1562C212.132 77.1562 211.533 77.0365 211.012 76.7969C210.491 76.5573 210.082 76.224 209.785 75.7969C209.494 75.3646 209.348 74.8984 209.348 74.3984H210.793C210.819 74.8828 211.012 75.2682 211.371 75.5547C211.736 75.8359 212.215 75.9766 212.809 75.9766C213.356 75.9766 213.793 75.8672 214.121 75.6484C214.455 75.4245 214.621 75.1276 214.621 74.7578ZM219.52 77H218.074V68.5469H219.52V77ZM217.957 66.3047C217.957 66.0703 218.028 65.8724 218.168 65.7109C218.314 65.5495 218.528 65.4688 218.809 65.4688C219.09 65.4688 219.304 65.5495 219.449 65.7109C219.595 65.8724 219.668 66.0703 219.668 66.3047C219.668 66.5391 219.595 66.7344 219.449 66.8906C219.304 67.0469 219.09 67.125 218.809 67.125C218.528 67.125 218.314 67.0469 218.168 66.8906C218.028 66.7344 217.957 66.5391 217.957 66.3047ZM221.496 72.7031C221.496 71.3854 221.801 70.3385 222.41 69.5625C223.02 68.7812 223.827 68.3906 224.832 68.3906C225.864 68.3906 226.668 68.7552 227.246 69.4844L227.317 68.5469H228.637V76.7969C228.637 77.8906 228.311 78.7526 227.66 79.3828C227.015 80.013 226.145 80.3281 225.051 80.3281C224.442 80.3281 223.845 80.1979 223.262 79.9375C222.679 79.6771 222.233 79.3203 221.926 78.8672L222.676 78C223.296 78.7656 224.054 79.1484 224.949 79.1484C225.653 79.1484 226.199 78.9505 226.59 78.5547C226.986 78.1589 227.184 77.6016 227.184 76.8828V76.1562C226.606 76.8229 225.817 77.1562 224.817 77.1562C223.827 77.1562 223.025 76.7578 222.41 75.9609C221.801 75.1641 221.496 74.0781 221.496 72.7031ZM222.949 72.8672C222.949 73.8203 223.145 74.5703 223.535 75.1172C223.926 75.6589 224.473 75.9297 225.176 75.9297C226.088 75.9297 226.757 75.5156 227.184 74.6875V70.8281C226.741 70.0208 226.077 69.6172 225.192 69.6172C224.489 69.6172 223.939 69.8906 223.543 70.4375C223.147 70.9844 222.949 71.7943 222.949 72.8672ZM232.192 68.5469L232.239 69.6094C232.884 68.7969 233.728 68.3906 234.77 68.3906C236.556 68.3906 237.457 69.3984 237.473 71.4141V77H236.028V71.4062C236.022 70.7969 235.882 70.3464 235.606 70.0547C235.335 69.763 234.91 69.6172 234.332 69.6172C233.864 69.6172 233.452 69.7422 233.098 69.9922C232.744 70.2422 232.468 70.5703 232.27 70.9766V77H230.824V68.5469H232.192ZM243.16 77.1562C242.015 77.1562 241.082 76.7812 240.364 76.0312C239.645 75.276 239.285 74.2682 239.285 73.0078V72.7422C239.285 71.9036 239.444 71.1562 239.762 70.5C240.085 69.8385 240.533 69.3229 241.106 68.9531C241.684 68.5781 242.309 68.3906 242.981 68.3906C244.08 68.3906 244.934 68.7526 245.543 69.4766C246.153 70.2005 246.457 71.237 246.457 72.5859V73.1875H240.731C240.752 74.0208 240.994 74.6953 241.457 75.2109C241.926 75.7214 242.52 75.9766 243.239 75.9766C243.749 75.9766 244.181 75.8724 244.535 75.6641C244.89 75.4557 245.199 75.1797 245.465 74.8359L246.348 75.5234C245.64 76.612 244.577 77.1562 243.16 77.1562ZM242.981 69.5781C242.397 69.5781 241.908 69.7917 241.512 70.2188C241.116 70.6406 240.871 71.2344 240.778 72H245.012V71.8906C244.97 71.1562 244.772 70.5885 244.418 70.1875C244.064 69.7812 243.585 69.5781 242.981 69.5781ZM252.223 69.8438C252.004 69.8073 251.767 69.7891 251.512 69.7891C250.564 69.7891 249.921 70.1927 249.582 71V77H248.137V68.5469H249.543L249.567 69.5234C250.041 68.7682 250.713 68.3906 251.582 68.3906C251.864 68.3906 252.077 68.4271 252.223 68.5V69.8438Z" fill="#262626"/>
<path d="M275.749 223.466C275.749 254.483 250.964 279.619 220.401 279.619C189.839 279.619 165.054 254.483 165.054 223.466C165.054 192.449 189.839 167.313 220.401 167.313C250.964 167.313 275.749 192.449 275.749 223.466Z" stroke="#262626" stroke-width="0.763593"/>
<path d="M280.448 218.267C280.448 249.284 255.663 274.419 225.1 274.419C194.538 274.419 169.753 249.284 169.753 218.267C169.753 187.249 194.538 162.114 225.1 162.114C255.663 162.114 280.448 187.249 280.448 218.267Z" stroke="#262626" stroke-width="0.763593"/>
<path d="M271.905 216.534C271.905 247.552 247.12 272.687 216.557 272.687C185.995 272.687 161.21 247.552 161.21 216.534C161.21 185.517 185.995 160.382 216.557 160.382C247.12 160.382 271.905 185.517 271.905 216.534Z" stroke="#262626" stroke-width="0.763593"/>
<path d="M199.817 213V201.625H203.028C204.017 201.625 204.892 201.844 205.653 202.281C206.413 202.719 206.999 203.341 207.41 204.148C207.827 204.956 208.038 205.883 208.043 206.93V207.656C208.043 208.729 207.835 209.669 207.418 210.477C207.007 211.284 206.416 211.904 205.645 212.336C204.879 212.768 203.986 212.99 202.965 213H199.817ZM201.317 202.859V211.773H202.895C204.051 211.773 204.949 211.414 205.59 210.695C206.236 209.977 206.559 208.953 206.559 207.625V206.961C206.559 205.669 206.254 204.667 205.645 203.953C205.041 203.234 204.181 202.87 203.067 202.859H201.317ZM211.66 213H210.215V204.547H211.66V213ZM210.098 202.305C210.098 202.07 210.168 201.872 210.309 201.711C210.455 201.549 210.668 201.469 210.949 201.469C211.231 201.469 211.444 201.549 211.59 201.711C211.736 201.872 211.809 202.07 211.809 202.305C211.809 202.539 211.736 202.734 211.59 202.891C211.444 203.047 211.231 203.125 210.949 203.125C210.668 203.125 210.455 203.047 210.309 202.891C210.168 202.734 210.098 202.539 210.098 202.305ZM213.637 208.703C213.637 207.385 213.942 206.339 214.551 205.562C215.16 204.781 215.968 204.391 216.973 204.391C218.004 204.391 218.809 204.755 219.387 205.484L219.457 204.547H220.778V212.797C220.778 213.891 220.452 214.753 219.801 215.383C219.155 216.013 218.285 216.328 217.192 216.328C216.582 216.328 215.986 216.198 215.403 215.938C214.819 215.677 214.374 215.32 214.067 214.867L214.817 214C215.436 214.766 216.194 215.148 217.09 215.148C217.793 215.148 218.34 214.951 218.731 214.555C219.127 214.159 219.324 213.602 219.324 212.883V212.156C218.746 212.823 217.957 213.156 216.957 213.156C215.968 213.156 215.166 212.758 214.551 211.961C213.942 211.164 213.637 210.078 213.637 208.703ZM215.09 208.867C215.09 209.82 215.285 210.57 215.676 211.117C216.067 211.659 216.614 211.93 217.317 211.93C218.228 211.93 218.897 211.516 219.324 210.688V206.828C218.882 206.021 218.218 205.617 217.332 205.617C216.629 205.617 216.08 205.891 215.684 206.438C215.288 206.984 215.09 207.794 215.09 208.867ZM224.535 213H223.09V204.547H224.535V213ZM222.973 202.305C222.973 202.07 223.043 201.872 223.184 201.711C223.33 201.549 223.543 201.469 223.824 201.469C224.106 201.469 224.319 201.549 224.465 201.711C224.611 201.872 224.684 202.07 224.684 202.305C224.684 202.539 224.611 202.734 224.465 202.891C224.319 203.047 224.106 203.125 223.824 203.125C223.543 203.125 223.33 203.047 223.184 202.891C223.043 202.734 222.973 202.539 222.973 202.305ZM228.817 202.5V204.547H230.395V205.664H228.817V210.906C228.817 211.245 228.887 211.5 229.028 211.672C229.168 211.839 229.408 211.922 229.746 211.922C229.913 211.922 230.142 211.891 230.434 211.828V213C230.054 213.104 229.684 213.156 229.324 213.156C228.679 213.156 228.192 212.961 227.864 212.57C227.535 212.18 227.371 211.625 227.371 210.906V205.664H225.832V204.547H227.371V202.5H228.817ZM237.309 213C237.226 212.833 237.158 212.536 237.106 212.109C236.434 212.807 235.632 213.156 234.699 213.156C233.866 213.156 233.181 212.922 232.645 212.453C232.114 211.979 231.848 211.38 231.848 210.656C231.848 209.776 232.181 209.094 232.848 208.609C233.52 208.12 234.463 207.875 235.676 207.875H237.082V207.211C237.082 206.706 236.931 206.305 236.629 206.008C236.327 205.706 235.882 205.555 235.293 205.555C234.778 205.555 234.345 205.685 233.996 205.945C233.647 206.206 233.473 206.521 233.473 206.891H232.02C232.02 206.469 232.168 206.062 232.465 205.672C232.767 205.276 233.173 204.964 233.684 204.734C234.199 204.505 234.765 204.391 235.379 204.391C236.353 204.391 237.116 204.635 237.668 205.125C238.22 205.609 238.507 206.279 238.528 207.133V211.023C238.528 211.799 238.627 212.417 238.824 212.875V213H237.309ZM234.91 211.898C235.364 211.898 235.793 211.781 236.199 211.547C236.606 211.312 236.9 211.008 237.082 210.633V208.898H235.949C234.179 208.898 233.293 209.417 233.293 210.453C233.293 210.906 233.444 211.26 233.746 211.516C234.048 211.771 234.436 211.898 234.91 211.898ZM242.364 213H240.918V201H242.364V213ZM188.567 225.625L192.285 234.906L196.004 225.625H197.949V237H196.449V232.57L196.59 227.789L192.856 237H191.707L187.981 227.812L188.129 232.57V237H186.629V225.625H188.567ZM205.59 237C205.507 236.833 205.439 236.536 205.387 236.109C204.715 236.807 203.913 237.156 202.981 237.156C202.147 237.156 201.463 236.922 200.926 236.453C200.395 235.979 200.129 235.38 200.129 234.656C200.129 233.776 200.463 233.094 201.129 232.609C201.801 232.12 202.744 231.875 203.957 231.875H205.364V231.211C205.364 230.706 205.213 230.305 204.91 230.008C204.608 229.706 204.163 229.555 203.574 229.555C203.059 229.555 202.627 229.685 202.278 229.945C201.929 230.206 201.754 230.521 201.754 230.891H200.301C200.301 230.469 200.449 230.062 200.746 229.672C201.048 229.276 201.455 228.964 201.965 228.734C202.481 228.505 203.046 228.391 203.66 228.391C204.634 228.391 205.397 228.635 205.949 229.125C206.502 229.609 206.788 230.279 206.809 231.133V235.023C206.809 235.799 206.908 236.417 207.106 236.875V237H205.59ZM203.192 235.898C203.645 235.898 204.074 235.781 204.481 235.547C204.887 235.312 205.181 235.008 205.364 234.633V232.898H204.231C202.46 232.898 201.574 233.417 201.574 234.453C201.574 234.906 201.726 235.26 202.028 235.516C202.33 235.771 202.718 235.898 203.192 235.898ZM213.16 229.844C212.942 229.807 212.705 229.789 212.449 229.789C211.502 229.789 210.858 230.193 210.52 231V237H209.074V228.547H210.481L210.504 229.523C210.978 228.768 211.65 228.391 212.52 228.391C212.801 228.391 213.015 228.427 213.16 228.5V229.844ZM216.856 233.086L215.949 234.031V237H214.504V225H215.949V232.258L216.723 231.328L219.356 228.547H221.114L217.824 232.078L221.496 237H219.801L216.856 233.086ZM225.957 237.156C224.811 237.156 223.879 236.781 223.16 236.031C222.442 235.276 222.082 234.268 222.082 233.008V232.742C222.082 231.904 222.241 231.156 222.559 230.5C222.882 229.839 223.33 229.323 223.903 228.953C224.481 228.578 225.106 228.391 225.778 228.391C226.877 228.391 227.731 228.753 228.34 229.477C228.949 230.201 229.254 231.237 229.254 232.586V233.188H223.528C223.548 234.021 223.791 234.695 224.254 235.211C224.723 235.721 225.317 235.977 226.035 235.977C226.546 235.977 226.978 235.872 227.332 235.664C227.686 235.456 227.996 235.18 228.262 234.836L229.145 235.523C228.436 236.612 227.374 237.156 225.957 237.156ZM225.778 229.578C225.194 229.578 224.705 229.792 224.309 230.219C223.913 230.641 223.668 231.234 223.574 232H227.809V231.891C227.767 231.156 227.569 230.589 227.215 230.188C226.861 229.781 226.382 229.578 225.778 229.578ZM232.895 226.5V228.547H234.473V229.664H232.895V234.906C232.895 235.245 232.965 235.5 233.106 235.672C233.246 235.839 233.486 235.922 233.824 235.922C233.991 235.922 234.22 235.891 234.512 235.828V237C234.132 237.104 233.762 237.156 233.403 237.156C232.757 237.156 232.27 236.961 231.942 236.57C231.614 236.18 231.449 235.625 231.449 234.906V229.664H229.91V228.547H231.449V226.5H232.895ZM237.739 237H236.293V228.547H237.739V237ZM236.176 226.305C236.176 226.07 236.246 225.872 236.387 225.711C236.533 225.549 236.746 225.469 237.028 225.469C237.309 225.469 237.522 225.549 237.668 225.711C237.814 225.872 237.887 226.07 237.887 226.305C237.887 226.539 237.814 226.734 237.668 226.891C237.522 227.047 237.309 227.125 237.028 227.125C236.746 227.125 236.533 227.047 236.387 226.891C236.246 226.734 236.176 226.539 236.176 226.305ZM241.426 228.547L241.473 229.609C242.119 228.797 242.963 228.391 244.004 228.391C245.791 228.391 246.692 229.398 246.707 231.414V237H245.262V231.406C245.257 230.797 245.116 230.346 244.84 230.055C244.569 229.763 244.145 229.617 243.567 229.617C243.098 229.617 242.686 229.742 242.332 229.992C241.978 230.242 241.702 230.57 241.504 230.977V237H240.059V228.547H241.426ZM248.543 232.703C248.543 231.385 248.848 230.339 249.457 229.562C250.067 228.781 250.874 228.391 251.879 228.391C252.91 228.391 253.715 228.755 254.293 229.484L254.364 228.547H255.684V236.797C255.684 237.891 255.358 238.753 254.707 239.383C254.061 240.013 253.192 240.328 252.098 240.328C251.489 240.328 250.892 240.198 250.309 239.938C249.726 239.677 249.28 239.32 248.973 238.867L249.723 238C250.343 238.766 251.101 239.148 251.996 239.148C252.699 239.148 253.246 238.951 253.637 238.555C254.033 238.159 254.231 237.602 254.231 236.883V236.156C253.653 236.823 252.864 237.156 251.864 237.156C250.874 237.156 250.072 236.758 249.457 235.961C248.848 235.164 248.543 234.078 248.543 232.703ZM249.996 232.867C249.996 233.82 250.192 234.57 250.582 235.117C250.973 235.659 251.52 235.93 252.223 235.93C253.134 235.93 253.804 235.516 254.231 234.688V230.828C253.788 230.021 253.124 229.617 252.239 229.617C251.535 229.617 250.986 229.891 250.59 230.438C250.194 230.984 249.996 231.794 249.996 232.867Z" fill="#262626"/>
<path d="M275.749 383.466C275.749 414.483 250.964 439.619 220.401 439.619C189.839 439.619 165.054 414.483 165.054 383.466C165.054 352.449 189.839 327.313 220.401 327.313C250.964 327.313 275.749 352.449 275.749 383.466Z" stroke="#262626" stroke-width="0.763593"/>
<path d="M280.448 378.267C280.448 409.284 255.663 434.419 225.1 434.419C194.538 434.419 169.753 409.284 169.753 378.267C169.753 347.249 194.538 322.114 225.1 322.114C255.663 322.114 280.448 347.249 280.448 378.267Z" stroke="#262626" stroke-width="0.763593"/>
<path d="M271.905 376.534C271.905 407.552 247.12 432.687 216.557 432.687C185.995 432.687 161.21 407.552 161.21 376.534C161.21 345.517 185.995 320.382 216.557 320.382C247.12 320.382 271.905 345.517 271.905 376.534Z" stroke="#262626" stroke-width="0.763593"/>
<path d="M191.035 367.93C189.749 367.56 188.811 367.107 188.223 366.57C187.64 366.029 187.348 365.362 187.348 364.57C187.348 363.674 187.705 362.935 188.418 362.352C189.137 361.763 190.069 361.469 191.215 361.469C191.996 361.469 192.692 361.62 193.301 361.922C193.916 362.224 194.39 362.641 194.723 363.172C195.061 363.703 195.231 364.284 195.231 364.914H193.723C193.723 364.227 193.504 363.688 193.067 363.297C192.629 362.901 192.012 362.703 191.215 362.703C190.476 362.703 189.897 362.867 189.481 363.195C189.069 363.518 188.864 363.969 188.864 364.547C188.864 365.01 189.059 365.404 189.449 365.727C189.845 366.044 190.515 366.336 191.457 366.602C192.405 366.867 193.145 367.161 193.676 367.484C194.213 367.802 194.608 368.174 194.864 368.602C195.124 369.029 195.254 369.531 195.254 370.109C195.254 371.031 194.895 371.771 194.176 372.328C193.457 372.88 192.496 373.156 191.293 373.156C190.512 373.156 189.783 373.008 189.106 372.711C188.429 372.409 187.905 371.997 187.535 371.477C187.171 370.956 186.989 370.365 186.989 369.703H188.496C188.496 370.391 188.749 370.935 189.254 371.336C189.765 371.732 190.444 371.93 191.293 371.93C192.085 371.93 192.692 371.768 193.114 371.445C193.535 371.122 193.746 370.682 193.746 370.125C193.746 369.568 193.551 369.138 193.16 368.836C192.77 368.529 192.061 368.227 191.035 367.93ZM202.176 373C202.093 372.833 202.025 372.536 201.973 372.109C201.301 372.807 200.499 373.156 199.567 373.156C198.733 373.156 198.048 372.922 197.512 372.453C196.981 371.979 196.715 371.38 196.715 370.656C196.715 369.776 197.048 369.094 197.715 368.609C198.387 368.12 199.33 367.875 200.543 367.875H201.949V367.211C201.949 366.706 201.798 366.305 201.496 366.008C201.194 365.706 200.749 365.555 200.16 365.555C199.645 365.555 199.213 365.685 198.864 365.945C198.515 366.206 198.34 366.521 198.34 366.891H196.887C196.887 366.469 197.035 366.062 197.332 365.672C197.634 365.276 198.041 364.964 198.551 364.734C199.067 364.505 199.632 364.391 200.246 364.391C201.22 364.391 201.983 364.635 202.535 365.125C203.088 365.609 203.374 366.279 203.395 367.133V371.023C203.395 371.799 203.494 372.417 203.692 372.875V373H202.176ZM199.778 371.898C200.231 371.898 200.66 371.781 201.067 371.547C201.473 371.312 201.767 371.008 201.949 370.633V368.898H200.817C199.046 368.898 198.16 369.417 198.16 370.453C198.16 370.906 198.311 371.26 198.614 371.516C198.916 371.771 199.304 371.898 199.778 371.898ZM207.231 373H205.785V361H207.231V373ZM213.059 373.156C211.913 373.156 210.981 372.781 210.262 372.031C209.543 371.276 209.184 370.268 209.184 369.008V368.742C209.184 367.904 209.343 367.156 209.66 366.5C209.983 365.839 210.431 365.323 211.004 364.953C211.582 364.578 212.207 364.391 212.879 364.391C213.978 364.391 214.832 364.753 215.442 365.477C216.051 366.201 216.356 367.237 216.356 368.586V369.188H210.629C210.65 370.021 210.892 370.695 211.356 371.211C211.824 371.721 212.418 371.977 213.137 371.977C213.647 371.977 214.08 371.872 214.434 371.664C214.788 371.456 215.098 371.18 215.364 370.836L216.246 371.523C215.538 372.612 214.476 373.156 213.059 373.156ZM212.879 365.578C212.296 365.578 211.806 365.792 211.41 366.219C211.015 366.641 210.77 367.234 210.676 368H214.91V367.891C214.869 367.156 214.671 366.589 214.317 366.188C213.963 365.781 213.483 365.578 212.879 365.578ZM222.957 370.758C222.957 370.367 222.809 370.065 222.512 369.852C222.22 369.633 221.707 369.445 220.973 369.289C220.244 369.133 219.663 368.945 219.231 368.727C218.804 368.508 218.486 368.247 218.278 367.945C218.074 367.643 217.973 367.284 217.973 366.867C217.973 366.174 218.265 365.589 218.848 365.109C219.436 364.63 220.186 364.391 221.098 364.391C222.056 364.391 222.832 364.638 223.426 365.133C224.025 365.628 224.324 366.26 224.324 367.031H222.871C222.871 366.635 222.702 366.294 222.364 366.008C222.03 365.721 221.608 365.578 221.098 365.578C220.572 365.578 220.16 365.693 219.864 365.922C219.567 366.151 219.418 366.451 219.418 366.82C219.418 367.169 219.556 367.432 219.832 367.609C220.108 367.786 220.606 367.956 221.324 368.117C222.048 368.279 222.634 368.471 223.082 368.695C223.53 368.919 223.861 369.19 224.074 369.508C224.293 369.82 224.403 370.203 224.403 370.656C224.403 371.411 224.101 372.018 223.496 372.477C222.892 372.93 222.108 373.156 221.145 373.156C220.468 373.156 219.869 373.036 219.348 372.797C218.827 372.557 218.418 372.224 218.121 371.797C217.83 371.365 217.684 370.898 217.684 370.398H219.129C219.155 370.883 219.348 371.268 219.707 371.555C220.072 371.836 220.551 371.977 221.145 371.977C221.692 371.977 222.129 371.867 222.457 371.648C222.791 371.424 222.957 371.128 222.957 370.758ZM235.473 373C235.39 372.833 235.322 372.536 235.27 372.109C234.598 372.807 233.796 373.156 232.864 373.156C232.03 373.156 231.345 372.922 230.809 372.453C230.278 371.979 230.012 371.38 230.012 370.656C230.012 369.776 230.345 369.094 231.012 368.609C231.684 368.12 232.627 367.875 233.84 367.875H235.246V367.211C235.246 366.706 235.095 366.305 234.793 366.008C234.491 365.706 234.046 365.555 233.457 365.555C232.942 365.555 232.509 365.685 232.16 365.945C231.811 366.206 231.637 366.521 231.637 366.891H230.184C230.184 366.469 230.332 366.062 230.629 365.672C230.931 365.276 231.338 364.964 231.848 364.734C232.364 364.505 232.929 364.391 233.543 364.391C234.517 364.391 235.28 364.635 235.832 365.125C236.384 365.609 236.671 366.279 236.692 367.133V371.023C236.692 371.799 236.791 372.417 236.989 372.875V373H235.473ZM233.074 371.898C233.528 371.898 233.957 371.781 234.364 371.547C234.77 371.312 235.064 371.008 235.246 370.633V368.898H234.114C232.343 368.898 231.457 369.417 231.457 370.453C231.457 370.906 231.608 371.26 231.91 371.516C232.213 371.771 232.601 371.898 233.074 371.898ZM240.324 364.547L240.371 365.609C241.017 364.797 241.861 364.391 242.903 364.391C244.689 364.391 245.59 365.398 245.606 367.414V373H244.16V367.406C244.155 366.797 244.015 366.346 243.739 366.055C243.468 365.763 243.043 365.617 242.465 365.617C241.996 365.617 241.585 365.742 241.231 365.992C240.877 366.242 240.601 366.57 240.403 366.977V373H238.957V364.547H240.324ZM247.434 368.703C247.434 367.406 247.741 366.365 248.356 365.578C248.97 364.786 249.775 364.391 250.77 364.391C251.759 364.391 252.543 364.729 253.121 365.406V361H254.567V373H253.239L253.168 372.094C252.59 372.802 251.785 373.156 250.754 373.156C249.775 373.156 248.976 372.755 248.356 371.953C247.741 371.151 247.434 370.104 247.434 368.812V368.703ZM248.879 368.867C248.879 369.826 249.077 370.576 249.473 371.117C249.869 371.659 250.416 371.93 251.114 371.93C252.03 371.93 252.699 371.518 253.121 370.695V366.812C252.689 366.016 252.025 365.617 251.129 365.617C250.421 365.617 249.869 365.891 249.473 366.438C249.077 366.984 248.879 367.794 248.879 368.867ZM178.528 392.547V397H177.028V385.625H181.223C182.468 385.625 183.442 385.943 184.145 386.578C184.853 387.214 185.207 388.055 185.207 389.102C185.207 390.206 184.861 391.057 184.168 391.656C183.481 392.25 182.494 392.547 181.207 392.547H178.528ZM178.528 391.32H181.223C182.025 391.32 182.64 391.133 183.067 390.758C183.494 390.378 183.707 389.831 183.707 389.117C183.707 388.44 183.494 387.898 183.067 387.492C182.64 387.086 182.054 386.875 181.309 386.859H178.528V391.32ZM192.02 397C191.936 396.833 191.869 396.536 191.817 396.109C191.145 396.807 190.343 397.156 189.41 397.156C188.577 397.156 187.892 396.922 187.356 396.453C186.824 395.979 186.559 395.38 186.559 394.656C186.559 393.776 186.892 393.094 187.559 392.609C188.231 392.12 189.173 391.875 190.387 391.875H191.793V391.211C191.793 390.706 191.642 390.305 191.34 390.008C191.038 389.706 190.593 389.555 190.004 389.555C189.489 389.555 189.056 389.685 188.707 389.945C188.358 390.206 188.184 390.521 188.184 390.891H186.731C186.731 390.469 186.879 390.062 187.176 389.672C187.478 389.276 187.884 388.964 188.395 388.734C188.91 388.505 189.476 388.391 190.09 388.391C191.064 388.391 191.827 388.635 192.379 389.125C192.931 389.609 193.218 390.279 193.239 391.133V395.023C193.239 395.799 193.338 396.417 193.535 396.875V397H192.02ZM189.621 395.898C190.074 395.898 190.504 395.781 190.91 395.547C191.317 395.312 191.611 395.008 191.793 394.633V392.898H190.66C188.89 392.898 188.004 393.417 188.004 394.453C188.004 394.906 188.155 395.26 188.457 395.516C188.759 395.771 189.147 395.898 189.621 395.898ZM199.59 389.844C199.371 389.807 199.134 389.789 198.879 389.789C197.931 389.789 197.288 390.193 196.949 391V397H195.504V388.547H196.91L196.934 389.523C197.408 388.768 198.08 388.391 198.949 388.391C199.231 388.391 199.444 388.427 199.59 388.5V389.844ZM203.278 386.5V388.547H204.856V389.664H203.278V394.906C203.278 395.245 203.348 395.5 203.489 395.672C203.629 395.839 203.869 395.922 204.207 395.922C204.374 395.922 204.603 395.891 204.895 395.828V397C204.515 397.104 204.145 397.156 203.785 397.156C203.14 397.156 202.653 396.961 202.324 396.57C201.996 396.18 201.832 395.625 201.832 394.906V389.664H200.293V388.547H201.832V386.5H203.278ZM207.918 388.547L207.965 389.609C208.611 388.797 209.455 388.391 210.496 388.391C212.283 388.391 213.184 389.398 213.199 391.414V397H211.754V391.406C211.749 390.797 211.608 390.346 211.332 390.055C211.061 389.763 210.637 389.617 210.059 389.617C209.59 389.617 209.179 389.742 208.824 389.992C208.47 390.242 208.194 390.57 207.996 390.977V397H206.551V388.547H207.918ZM218.887 397.156C217.741 397.156 216.809 396.781 216.09 396.031C215.371 395.276 215.012 394.268 215.012 393.008V392.742C215.012 391.904 215.171 391.156 215.489 390.5C215.811 389.839 216.259 389.323 216.832 388.953C217.41 388.578 218.035 388.391 218.707 388.391C219.806 388.391 220.66 388.753 221.27 389.477C221.879 390.201 222.184 391.237 222.184 392.586V393.188H216.457C216.478 394.021 216.72 394.695 217.184 395.211C217.653 395.721 218.246 395.977 218.965 395.977C219.476 395.977 219.908 395.872 220.262 395.664C220.616 395.456 220.926 395.18 221.192 394.836L222.074 395.523C221.366 396.612 220.304 397.156 218.887 397.156ZM218.707 389.578C218.124 389.578 217.634 389.792 217.239 390.219C216.843 390.641 216.598 391.234 216.504 392H220.739V391.891C220.697 391.156 220.499 390.589 220.145 390.188C219.791 389.781 219.311 389.578 218.707 389.578ZM227.949 389.844C227.731 389.807 227.494 389.789 227.239 389.789C226.291 389.789 225.647 390.193 225.309 391V397H223.864V388.547H225.27L225.293 389.523C225.767 388.768 226.439 388.391 227.309 388.391C227.59 388.391 227.804 388.427 227.949 388.5V389.844ZM234.207 394.758C234.207 394.367 234.059 394.065 233.762 393.852C233.47 393.633 232.957 393.445 232.223 393.289C231.494 393.133 230.913 392.945 230.481 392.727C230.054 392.508 229.736 392.247 229.528 391.945C229.324 391.643 229.223 391.284 229.223 390.867C229.223 390.174 229.515 389.589 230.098 389.109C230.686 388.63 231.436 388.391 232.348 388.391C233.306 388.391 234.082 388.638 234.676 389.133C235.275 389.628 235.574 390.26 235.574 391.031H234.121C234.121 390.635 233.952 390.294 233.614 390.008C233.28 389.721 232.858 389.578 232.348 389.578C231.822 389.578 231.41 389.693 231.114 389.922C230.817 390.151 230.668 390.451 230.668 390.82C230.668 391.169 230.806 391.432 231.082 391.609C231.358 391.786 231.856 391.956 232.574 392.117C233.298 392.279 233.884 392.471 234.332 392.695C234.78 392.919 235.111 393.19 235.324 393.508C235.543 393.82 235.653 394.203 235.653 394.656C235.653 395.411 235.351 396.018 234.746 396.477C234.142 396.93 233.358 397.156 232.395 397.156C231.718 397.156 231.119 397.036 230.598 396.797C230.077 396.557 229.668 396.224 229.371 395.797C229.08 395.365 228.934 394.898 228.934 394.398H230.379C230.405 394.883 230.598 395.268 230.957 395.555C231.322 395.836 231.801 395.977 232.395 395.977C232.942 395.977 233.379 395.867 233.707 395.648C234.041 395.424 234.207 395.128 234.207 394.758ZM238.981 389.57C239.621 388.784 240.455 388.391 241.481 388.391C243.267 388.391 244.168 389.398 244.184 391.414V397H242.739V391.406C242.733 390.797 242.593 390.346 242.317 390.055C242.046 389.763 241.621 389.617 241.043 389.617C240.574 389.617 240.163 389.742 239.809 389.992C239.455 390.242 239.179 390.57 238.981 390.977V397H237.535V385H238.981V389.57ZM247.918 397H246.473V388.547H247.918V397ZM246.356 386.305C246.356 386.07 246.426 385.872 246.567 385.711C246.713 385.549 246.926 385.469 247.207 385.469C247.489 385.469 247.702 385.549 247.848 385.711C247.994 385.872 248.067 386.07 248.067 386.305C248.067 386.539 247.994 386.734 247.848 386.891C247.702 387.047 247.489 387.125 247.207 387.125C246.926 387.125 246.713 387.047 246.567 386.891C246.426 386.734 246.356 386.539 246.356 386.305ZM257.379 392.867C257.379 394.154 257.085 395.19 256.496 395.977C255.908 396.763 255.111 397.156 254.106 397.156C253.08 397.156 252.272 396.831 251.684 396.18V400.25H250.239V388.547H251.559L251.629 389.484C252.218 388.755 253.035 388.391 254.082 388.391C255.098 388.391 255.9 388.773 256.489 389.539C257.082 390.305 257.379 391.37 257.379 392.734V392.867ZM255.934 392.703C255.934 391.75 255.731 390.997 255.324 390.445C254.918 389.893 254.361 389.617 253.653 389.617C252.778 389.617 252.121 390.005 251.684 390.781V394.82C252.116 395.591 252.778 395.977 253.668 395.977C254.361 395.977 254.91 395.703 255.317 395.156C255.728 394.604 255.934 393.786 255.934 392.703ZM264.145 394.758C264.145 394.367 263.996 394.065 263.699 393.852C263.408 393.633 262.895 393.445 262.16 393.289C261.431 393.133 260.851 392.945 260.418 392.727C259.991 392.508 259.673 392.247 259.465 391.945C259.262 391.643 259.16 391.284 259.16 390.867C259.16 390.174 259.452 389.589 260.035 389.109C260.624 388.63 261.374 388.391 262.285 388.391C263.244 388.391 264.02 388.638 264.614 389.133C265.213 389.628 265.512 390.26 265.512 391.031H264.059C264.059 390.635 263.89 390.294 263.551 390.008C263.218 389.721 262.796 389.578 262.285 389.578C261.759 389.578 261.348 389.693 261.051 389.922C260.754 390.151 260.606 390.451 260.606 390.82C260.606 391.169 260.744 391.432 261.02 391.609C261.296 391.786 261.793 391.956 262.512 392.117C263.236 392.279 263.822 392.471 264.27 392.695C264.718 392.919 265.048 393.19 265.262 393.508C265.481 393.82 265.59 394.203 265.59 394.656C265.59 395.411 265.288 396.018 264.684 396.477C264.08 396.93 263.296 397.156 262.332 397.156C261.655 397.156 261.056 397.036 260.535 396.797C260.015 396.557 259.606 396.224 259.309 395.797C259.017 395.365 258.871 394.898 258.871 394.398H260.317C260.343 394.883 260.535 395.268 260.895 395.555C261.259 395.836 261.739 395.977 262.332 395.977C262.879 395.977 263.317 395.867 263.645 395.648C263.978 395.424 264.145 395.128 264.145 394.758Z" fill="#262626"/>
<path d="M275.749 543.466C275.749 574.483 250.964 599.619 220.401 599.619C189.839 599.619 165.054 574.483 165.054 543.466C165.054 512.449 189.839 487.313 220.401 487.313C250.964 487.313 275.749 512.449 275.749 543.466Z" stroke="#262626" stroke-width="0.763593"/>
<path d="M280.448 538.267C280.448 569.284 255.663 594.419 225.1 594.419C194.538 594.419 169.753 569.284 169.753 538.267C169.753 507.249 194.538 482.114 225.1 482.114C255.663 482.114 280.448 507.249 280.448 538.267Z" stroke="#262626" stroke-width="0.763593"/>
<path d="M271.905 536.534C271.905 567.552 247.12 592.687 216.557 592.687C185.995 592.687 161.21 567.552 161.21 536.534C161.21 505.517 185.995 480.382 216.557 480.382C247.12 480.382 271.905 505.517 271.905 536.534Z" stroke="#262626" stroke-width="0.763593"/>
<path d="M172.965 545V533.625H176.176C177.166 533.625 178.041 533.844 178.801 534.281C179.561 534.719 180.147 535.341 180.559 536.148C180.976 536.956 181.186 537.883 181.192 538.93V539.656C181.192 540.729 180.983 541.669 180.567 542.477C180.155 543.284 179.564 543.904 178.793 544.336C178.028 544.768 177.134 544.99 176.114 545H172.965ZM174.465 534.859V543.773H176.043C177.199 543.773 178.098 543.414 178.739 542.695C179.384 541.977 179.707 540.953 179.707 539.625V538.961C179.707 537.669 179.403 536.667 178.793 535.953C178.189 535.234 177.33 534.87 176.215 534.859H174.465ZM188.457 545C188.374 544.833 188.306 544.536 188.254 544.109C187.582 544.807 186.78 545.156 185.848 545.156C185.015 545.156 184.33 544.922 183.793 544.453C183.262 543.979 182.996 543.38 182.996 542.656C182.996 541.776 183.33 541.094 183.996 540.609C184.668 540.12 185.611 539.875 186.824 539.875H188.231V539.211C188.231 538.706 188.08 538.305 187.778 538.008C187.476 537.706 187.03 537.555 186.442 537.555C185.926 537.555 185.494 537.685 185.145 537.945C184.796 538.206 184.621 538.521 184.621 538.891H183.168C183.168 538.469 183.317 538.062 183.614 537.672C183.916 537.276 184.322 536.964 184.832 536.734C185.348 536.505 185.913 536.391 186.528 536.391C187.502 536.391 188.265 536.635 188.817 537.125C189.369 537.609 189.655 538.279 189.676 539.133V543.023C189.676 543.799 189.775 544.417 189.973 544.875V545H188.457ZM186.059 543.898C186.512 543.898 186.942 543.781 187.348 543.547C187.754 543.312 188.048 543.008 188.231 542.633V540.898H187.098C185.327 540.898 184.442 541.417 184.442 542.453C184.442 542.906 184.593 543.26 184.895 543.516C185.197 543.771 185.585 543.898 186.059 543.898ZM193.903 534.5V536.547H195.481V537.664H193.903V542.906C193.903 543.245 193.973 543.5 194.114 543.672C194.254 543.839 194.494 543.922 194.832 543.922C194.999 543.922 195.228 543.891 195.52 543.828V545C195.14 545.104 194.77 545.156 194.41 545.156C193.765 545.156 193.278 544.961 192.949 544.57C192.621 544.18 192.457 543.625 192.457 542.906V537.664H190.918V536.547H192.457V534.5H193.903ZM202.395 545C202.311 544.833 202.244 544.536 202.192 544.109C201.52 544.807 200.718 545.156 199.785 545.156C198.952 545.156 198.267 544.922 197.731 544.453C197.199 543.979 196.934 543.38 196.934 542.656C196.934 541.776 197.267 541.094 197.934 540.609C198.606 540.12 199.548 539.875 200.762 539.875H202.168V539.211C202.168 538.706 202.017 538.305 201.715 538.008C201.413 537.706 200.968 537.555 200.379 537.555C199.864 537.555 199.431 537.685 199.082 537.945C198.733 538.206 198.559 538.521 198.559 538.891H197.106C197.106 538.469 197.254 538.062 197.551 537.672C197.853 537.276 198.259 536.964 198.77 536.734C199.285 536.505 199.851 536.391 200.465 536.391C201.439 536.391 202.202 536.635 202.754 537.125C203.306 537.609 203.593 538.279 203.614 539.133V543.023C203.614 543.799 203.713 544.417 203.91 544.875V545H202.395ZM199.996 543.898C200.449 543.898 200.879 543.781 201.285 543.547C201.692 543.312 201.986 543.008 202.168 542.633V540.898H201.035C199.265 540.898 198.379 541.417 198.379 542.453C198.379 542.906 198.53 543.26 198.832 543.516C199.134 543.771 199.522 543.898 199.996 543.898ZM213.426 539.93C212.14 539.56 211.202 539.107 210.614 538.57C210.03 538.029 209.739 537.362 209.739 536.57C209.739 535.674 210.095 534.935 210.809 534.352C211.528 533.763 212.46 533.469 213.606 533.469C214.387 533.469 215.082 533.62 215.692 533.922C216.306 534.224 216.78 534.641 217.114 535.172C217.452 535.703 217.621 536.284 217.621 536.914H216.114C216.114 536.227 215.895 535.688 215.457 535.297C215.02 534.901 214.403 534.703 213.606 534.703C212.866 534.703 212.288 534.867 211.871 535.195C211.46 535.518 211.254 535.969 211.254 536.547C211.254 537.01 211.449 537.404 211.84 537.727C212.236 538.044 212.905 538.336 213.848 538.602C214.796 538.867 215.535 539.161 216.067 539.484C216.603 539.802 216.999 540.174 217.254 540.602C217.515 541.029 217.645 541.531 217.645 542.109C217.645 543.031 217.285 543.771 216.567 544.328C215.848 544.88 214.887 545.156 213.684 545.156C212.903 545.156 212.173 545.008 211.496 544.711C210.819 544.409 210.296 543.997 209.926 543.477C209.561 542.956 209.379 542.365 209.379 541.703H210.887C210.887 542.391 211.14 542.935 211.645 543.336C212.155 543.732 212.835 543.93 213.684 543.93C214.476 543.93 215.082 543.768 215.504 543.445C215.926 543.122 216.137 542.682 216.137 542.125C216.137 541.568 215.942 541.138 215.551 540.836C215.16 540.529 214.452 540.227 213.426 539.93ZM222.739 543.977C223.254 543.977 223.705 543.82 224.09 543.508C224.476 543.195 224.689 542.805 224.731 542.336H226.098C226.072 542.82 225.905 543.281 225.598 543.719C225.291 544.156 224.879 544.505 224.364 544.766C223.853 545.026 223.311 545.156 222.739 545.156C221.588 545.156 220.671 544.773 219.989 544.008C219.311 543.237 218.973 542.185 218.973 540.852V540.609C218.973 539.786 219.124 539.055 219.426 538.414C219.728 537.773 220.16 537.276 220.723 536.922C221.291 536.568 221.96 536.391 222.731 536.391C223.679 536.391 224.465 536.674 225.09 537.242C225.72 537.81 226.056 538.547 226.098 539.453H224.731C224.689 538.906 224.481 538.458 224.106 538.109C223.736 537.755 223.278 537.578 222.731 537.578C221.996 537.578 221.426 537.844 221.02 538.375C220.619 538.901 220.418 539.664 220.418 540.664V540.938C220.418 541.911 220.619 542.661 221.02 543.188C221.421 543.714 221.994 543.977 222.739 543.977ZM229.293 545H227.848V536.547H229.293V545ZM227.731 534.305C227.731 534.07 227.801 533.872 227.942 533.711C228.088 533.549 228.301 533.469 228.582 533.469C228.864 533.469 229.077 533.549 229.223 533.711C229.369 533.872 229.442 534.07 229.442 534.305C229.442 534.539 229.369 534.734 229.223 534.891C229.077 535.047 228.864 535.125 228.582 535.125C228.301 535.125 228.088 535.047 227.942 534.891C227.801 534.734 227.731 534.539 227.731 534.305ZM235.121 545.156C233.976 545.156 233.043 544.781 232.324 544.031C231.606 543.276 231.246 542.268 231.246 541.008V540.742C231.246 539.904 231.405 539.156 231.723 538.5C232.046 537.839 232.494 537.323 233.067 536.953C233.645 536.578 234.27 536.391 234.942 536.391C236.041 536.391 236.895 536.753 237.504 537.477C238.114 538.201 238.418 539.237 238.418 540.586V541.188H232.692C232.713 542.021 232.955 542.695 233.418 543.211C233.887 543.721 234.481 543.977 235.199 543.977C235.71 543.977 236.142 543.872 236.496 543.664C236.851 543.456 237.16 543.18 237.426 542.836L238.309 543.523C237.601 544.612 236.538 545.156 235.121 545.156ZM234.942 537.578C234.358 537.578 233.869 537.792 233.473 538.219C233.077 538.641 232.832 539.234 232.739 540H236.973V539.891C236.931 539.156 236.733 538.589 236.379 538.188C236.025 537.781 235.546 537.578 234.942 537.578ZM241.465 536.547L241.512 537.609C242.158 536.797 243.002 536.391 244.043 536.391C245.83 536.391 246.731 537.398 246.746 539.414V545H245.301V539.406C245.296 538.797 245.155 538.346 244.879 538.055C244.608 537.763 244.184 537.617 243.606 537.617C243.137 537.617 242.726 537.742 242.371 537.992C242.017 538.242 241.741 538.57 241.543 538.977V545H240.098V536.547H241.465ZM250.887 534.5V536.547H252.465V537.664H250.887V542.906C250.887 543.245 250.957 543.5 251.098 543.672C251.239 543.839 251.478 543.922 251.817 543.922C251.983 543.922 252.213 543.891 252.504 543.828V545C252.124 545.104 251.754 545.156 251.395 545.156C250.749 545.156 250.262 544.961 249.934 544.57C249.606 544.18 249.442 543.625 249.442 542.906V537.664H247.903V536.547H249.442V534.5H250.887ZM255.731 545H254.285V536.547H255.731V545ZM254.168 534.305C254.168 534.07 254.239 533.872 254.379 533.711C254.525 533.549 254.739 533.469 255.02 533.469C255.301 533.469 255.515 533.549 255.66 533.711C255.806 533.872 255.879 534.07 255.879 534.305C255.879 534.539 255.806 534.734 255.66 534.891C255.515 535.047 255.301 535.125 255.02 535.125C254.739 535.125 254.525 535.047 254.379 534.891C254.239 534.734 254.168 534.539 254.168 534.305ZM262.973 542.758C262.973 542.367 262.824 542.065 262.528 541.852C262.236 541.633 261.723 541.445 260.989 541.289C260.259 541.133 259.679 540.945 259.246 540.727C258.819 540.508 258.502 540.247 258.293 539.945C258.09 539.643 257.989 539.284 257.989 538.867C257.989 538.174 258.28 537.589 258.864 537.109C259.452 536.63 260.202 536.391 261.114 536.391C262.072 536.391 262.848 536.638 263.442 537.133C264.041 537.628 264.34 538.26 264.34 539.031H262.887C262.887 538.635 262.718 538.294 262.379 538.008C262.046 537.721 261.624 537.578 261.114 537.578C260.588 537.578 260.176 537.693 259.879 537.922C259.582 538.151 259.434 538.451 259.434 538.82C259.434 539.169 259.572 539.432 259.848 539.609C260.124 539.786 260.621 539.956 261.34 540.117C262.064 540.279 262.65 540.471 263.098 540.695C263.546 540.919 263.877 541.19 264.09 541.508C264.309 541.82 264.418 542.203 264.418 542.656C264.418 543.411 264.116 544.018 263.512 544.477C262.908 544.93 262.124 545.156 261.16 545.156C260.483 545.156 259.884 545.036 259.364 544.797C258.843 544.557 258.434 544.224 258.137 543.797C257.845 543.365 257.699 542.898 257.699 542.398H259.145C259.171 542.883 259.364 543.268 259.723 543.555C260.088 543.836 260.567 543.977 261.16 543.977C261.707 543.977 262.145 543.867 262.473 543.648C262.806 543.424 262.973 543.128 262.973 542.758ZM268.262 534.5V536.547H269.84V537.664H268.262V542.906C268.262 543.245 268.332 543.5 268.473 543.672C268.614 543.839 268.853 543.922 269.192 543.922C269.358 543.922 269.588 543.891 269.879 543.828V545C269.499 545.104 269.129 545.156 268.77 545.156C268.124 545.156 267.637 544.961 267.309 544.57C266.981 544.18 266.817 543.625 266.817 542.906V537.664H265.278V536.547H266.817V534.5H268.262Z" fill="#262626"/>
<path d="M195.747 687.466C195.747 718.483 170.962 743.619 140.399 743.619C109.837 743.619 85.0517 718.483 85.0517 687.466C85.0517 656.449 109.837 631.313 140.399 631.313C170.962 631.313 195.747 656.449 195.747 687.466Z" stroke="#262626" stroke-width="0.763593"/>
<path d="M200.446 682.267C200.446 713.284 175.661 738.419 145.098 738.419C114.536 738.419 89.7509 713.284 89.7509 682.267C89.7509 651.249 114.536 626.114 145.098 626.114C175.661 626.114 200.446 651.249 200.446 682.267Z" stroke="#262626" stroke-width="0.763593"/>
<path d="M191.903 680.534C191.903 711.552 167.118 736.687 136.555 736.687C105.993 736.687 81.208 711.552 81.208 680.534C81.208 649.517 105.993 624.382 136.555 624.382C167.118 624.382 191.903 649.517 191.903 680.534Z" stroke="#262626" stroke-width="0.763593"/>
<path d="M109.987 677V665.625H113.705C114.94 665.625 115.867 665.88 116.487 666.391C117.112 666.901 117.424 667.656 117.424 668.656C117.424 669.188 117.273 669.659 116.971 670.07C116.669 670.477 116.257 670.792 115.737 671.016C116.351 671.188 116.836 671.516 117.19 672C117.549 672.479 117.729 673.052 117.729 673.719C117.729 674.74 117.398 675.542 116.737 676.125C116.075 676.708 115.14 677 113.932 677H109.987ZM111.487 671.68V675.773H113.963C114.661 675.773 115.211 675.594 115.612 675.234C116.018 674.87 116.221 674.37 116.221 673.734C116.221 672.365 115.476 671.68 113.987 671.68H111.487ZM111.487 670.477H113.752C114.408 670.477 114.932 670.312 115.323 669.984C115.718 669.656 115.916 669.211 115.916 668.648C115.916 668.023 115.734 667.57 115.369 667.289C115.005 667.003 114.45 666.859 113.705 666.859H111.487V670.477ZM124.948 676.164C124.385 676.826 123.56 677.156 122.471 677.156C121.57 677.156 120.882 676.896 120.408 676.375C119.94 675.849 119.703 675.073 119.698 674.047V668.547H121.143V674.008C121.143 675.289 121.664 675.93 122.705 675.93C123.81 675.93 124.544 675.518 124.908 674.695V668.547H126.354V677H124.979L124.948 676.164ZM133.479 674.758C133.479 674.367 133.33 674.065 133.033 673.852C132.742 673.633 132.229 673.445 131.494 673.289C130.765 673.133 130.185 672.945 129.752 672.727C129.325 672.508 129.007 672.247 128.799 671.945C128.596 671.643 128.494 671.284 128.494 670.867C128.494 670.174 128.786 669.589 129.369 669.109C129.958 668.63 130.708 668.391 131.619 668.391C132.578 668.391 133.354 668.638 133.948 669.133C134.546 669.628 134.846 670.26 134.846 671.031H133.393C133.393 670.635 133.224 670.294 132.885 670.008C132.552 669.721 132.13 669.578 131.619 669.578C131.093 669.578 130.682 669.693 130.385 669.922C130.088 670.151 129.94 670.451 129.94 670.82C129.94 671.169 130.078 671.432 130.354 671.609C130.63 671.786 131.127 671.956 131.846 672.117C132.57 672.279 133.156 672.471 133.604 672.695C134.052 672.919 134.382 673.19 134.596 673.508C134.815 673.82 134.924 674.203 134.924 674.656C134.924 675.411 134.622 676.018 134.018 676.477C133.414 676.93 132.63 677.156 131.666 677.156C130.989 677.156 130.39 677.036 129.869 676.797C129.349 676.557 128.94 676.224 128.643 675.797C128.351 675.365 128.205 674.898 128.205 674.398H129.651C129.677 674.883 129.869 675.268 130.229 675.555C130.593 675.836 131.073 675.977 131.666 675.977C132.213 675.977 132.651 675.867 132.979 675.648C133.312 675.424 133.479 675.128 133.479 674.758ZM138.377 677H136.932V668.547H138.377V677ZM136.815 666.305C136.815 666.07 136.885 665.872 137.026 665.711C137.171 665.549 137.385 665.469 137.666 665.469C137.948 665.469 138.161 665.549 138.307 665.711C138.453 665.872 138.526 666.07 138.526 666.305C138.526 666.539 138.453 666.734 138.307 666.891C138.161 667.047 137.948 667.125 137.666 667.125C137.385 667.125 137.171 667.047 137.026 666.891C136.885 666.734 136.815 666.539 136.815 666.305ZM142.065 668.547L142.112 669.609C142.757 668.797 143.601 668.391 144.643 668.391C146.429 668.391 147.33 669.398 147.346 671.414V677H145.901V671.406C145.895 670.797 145.755 670.346 145.479 670.055C145.208 669.763 144.783 669.617 144.205 669.617C143.737 669.617 143.325 669.742 142.971 669.992C142.617 670.242 142.341 670.57 142.143 670.977V677H140.698V668.547H142.065ZM153.033 677.156C151.888 677.156 150.955 676.781 150.237 676.031C149.518 675.276 149.158 674.268 149.158 673.008V672.742C149.158 671.904 149.317 671.156 149.635 670.5C149.958 669.839 150.406 669.323 150.979 668.953C151.557 668.578 152.182 668.391 152.854 668.391C153.953 668.391 154.807 668.753 155.416 669.477C156.026 670.201 156.33 671.237 156.33 672.586V673.188H150.604C150.625 674.021 150.867 674.695 151.33 675.211C151.799 675.721 152.393 675.977 153.112 675.977C153.622 675.977 154.054 675.872 154.408 675.664C154.763 675.456 155.073 675.18 155.338 674.836L156.221 675.523C155.513 676.612 154.45 677.156 153.033 677.156ZM152.854 669.578C152.27 669.578 151.781 669.792 151.385 670.219C150.989 670.641 150.744 671.234 150.651 672H154.885V671.891C154.843 671.156 154.645 670.589 154.291 670.188C153.937 669.781 153.458 669.578 152.854 669.578ZM162.932 674.758C162.932 674.367 162.783 674.065 162.487 673.852C162.195 673.633 161.682 673.445 160.948 673.289C160.218 673.133 159.638 672.945 159.205 672.727C158.778 672.508 158.461 672.247 158.252 671.945C158.049 671.643 157.948 671.284 157.948 670.867C157.948 670.174 158.239 669.589 158.823 669.109C159.411 668.63 160.161 668.391 161.073 668.391C162.031 668.391 162.807 668.638 163.401 669.133C164 669.628 164.299 670.26 164.299 671.031H162.846C162.846 670.635 162.677 670.294 162.338 670.008C162.005 669.721 161.583 669.578 161.073 669.578C160.546 669.578 160.135 669.693 159.838 669.922C159.541 670.151 159.393 670.451 159.393 670.82C159.393 671.169 159.531 671.432 159.807 671.609C160.083 671.786 160.58 671.956 161.299 672.117C162.023 672.279 162.609 672.471 163.057 672.695C163.505 672.919 163.836 673.19 164.049 673.508C164.268 673.82 164.377 674.203 164.377 674.656C164.377 675.411 164.075 676.018 163.471 676.477C162.867 676.93 162.083 677.156 161.119 677.156C160.442 677.156 159.843 677.036 159.323 676.797C158.802 676.557 158.393 676.224 158.096 675.797C157.804 675.365 157.658 674.898 157.658 674.398H159.104C159.13 674.883 159.323 675.268 159.682 675.555C160.046 675.836 160.526 675.977 161.119 675.977C161.666 675.977 162.104 675.867 162.432 675.648C162.765 675.424 162.932 675.128 162.932 674.758ZM171.182 674.758C171.182 674.367 171.033 674.065 170.737 673.852C170.445 673.633 169.932 673.445 169.198 673.289C168.468 673.133 167.888 672.945 167.455 672.727C167.028 672.508 166.711 672.247 166.502 671.945C166.299 671.643 166.198 671.284 166.198 670.867C166.198 670.174 166.489 669.589 167.073 669.109C167.661 668.63 168.411 668.391 169.323 668.391C170.281 668.391 171.057 668.638 171.651 669.133C172.25 669.628 172.549 670.26 172.549 671.031H171.096C171.096 670.635 170.927 670.294 170.588 670.008C170.255 669.721 169.833 669.578 169.323 669.578C168.796 669.578 168.385 669.693 168.088 669.922C167.791 670.151 167.643 670.451 167.643 670.82C167.643 671.169 167.781 671.432 168.057 671.609C168.333 671.786 168.83 671.956 169.549 672.117C170.273 672.279 170.859 672.471 171.307 672.695C171.755 672.919 172.086 673.19 172.299 673.508C172.518 673.82 172.627 674.203 172.627 674.656C172.627 675.411 172.325 676.018 171.721 676.477C171.117 676.93 170.333 677.156 169.369 677.156C168.692 677.156 168.093 677.036 167.573 676.797C167.052 676.557 166.643 676.224 166.346 675.797C166.054 675.365 165.908 674.898 165.908 674.398H167.354C167.38 674.883 167.573 675.268 167.932 675.555C168.296 675.836 168.776 675.977 169.369 675.977C169.916 675.977 170.354 675.867 170.682 675.648C171.015 675.424 171.182 675.128 171.182 674.758ZM95.5725 701V689.625H98.7835C99.7731 689.625 100.648 689.844 101.408 690.281C102.169 690.719 102.755 691.341 103.166 692.148C103.583 692.956 103.794 693.883 103.799 694.93V695.656C103.799 696.729 103.591 697.669 103.174 698.477C102.763 699.284 102.171 699.904 101.401 700.336C100.635 700.768 99.7418 700.99 98.721 701H95.5725ZM97.0725 690.859V699.773H98.6507C99.8069 699.773 100.705 699.414 101.346 698.695C101.992 697.977 102.315 696.953 102.315 695.625V694.961C102.315 693.669 102.01 692.667 101.401 691.953C100.796 691.234 99.9371 690.87 98.8225 690.859H97.0725ZM109.354 701.156C108.208 701.156 107.276 700.781 106.557 700.031C105.838 699.276 105.479 698.268 105.479 697.008V696.742C105.479 695.904 105.638 695.156 105.955 694.5C106.278 693.839 106.726 693.323 107.299 692.953C107.877 692.578 108.502 692.391 109.174 692.391C110.273 692.391 111.127 692.753 111.737 693.477C112.346 694.201 112.651 695.237 112.651 696.586V697.188H106.924C106.945 698.021 107.187 698.695 107.651 699.211C108.119 699.721 108.713 699.977 109.432 699.977C109.942 699.977 110.375 699.872 110.729 699.664C111.083 699.456 111.393 699.18 111.658 698.836L112.541 699.523C111.833 700.612 110.77 701.156 109.354 701.156ZM109.174 693.578C108.591 693.578 108.101 693.792 107.705 694.219C107.31 694.641 107.065 695.234 106.971 696H111.205V695.891C111.164 695.156 110.966 694.589 110.612 694.188C110.257 693.781 109.778 693.578 109.174 693.578ZM117.01 699.039L119.104 692.547H120.58L117.549 701H116.448L113.385 692.547H114.862L117.01 699.039ZM125.369 701.156C124.224 701.156 123.291 700.781 122.573 700.031C121.854 699.276 121.494 698.268 121.494 697.008V696.742C121.494 695.904 121.653 695.156 121.971 694.5C122.294 693.839 122.742 693.323 123.315 692.953C123.893 692.578 124.518 692.391 125.19 692.391C126.289 692.391 127.143 692.753 127.752 693.477C128.362 694.201 128.666 695.237 128.666 696.586V697.188H122.94C122.961 698.021 123.203 698.695 123.666 699.211C124.135 699.721 124.729 699.977 125.448 699.977C125.958 699.977 126.39 699.872 126.744 699.664C127.099 699.456 127.408 699.18 127.674 698.836L128.557 699.523C127.849 700.612 126.786 701.156 125.369 701.156ZM125.19 693.578C124.606 693.578 124.117 693.792 123.721 694.219C123.325 694.641 123.08 695.234 122.987 696H127.221V695.891C127.179 695.156 126.981 694.589 126.627 694.188C126.273 693.781 125.794 693.578 125.19 693.578ZM131.916 701H130.471V689H131.916V701ZM133.854 696.695C133.854 695.867 134.015 695.122 134.338 694.461C134.666 693.799 135.119 693.289 135.698 692.93C136.281 692.57 136.945 692.391 137.69 692.391C138.841 692.391 139.77 692.789 140.479 693.586C141.192 694.383 141.549 695.443 141.549 696.766V696.867C141.549 697.69 141.39 698.43 141.073 699.086C140.76 699.737 140.31 700.245 139.721 700.609C139.138 700.974 138.466 701.156 137.705 701.156C136.56 701.156 135.63 700.758 134.916 699.961C134.208 699.164 133.854 698.109 133.854 696.797V696.695ZM135.307 696.867C135.307 697.805 135.523 698.557 135.955 699.125C136.393 699.693 136.976 699.977 137.705 699.977C138.44 699.977 139.023 699.69 139.455 699.117C139.888 698.539 140.104 697.732 140.104 696.695C140.104 695.768 139.882 695.018 139.44 694.445C139.002 693.867 138.419 693.578 137.69 693.578C136.976 693.578 136.401 693.862 135.963 694.43C135.526 694.997 135.307 695.81 135.307 696.867ZM150.502 696.867C150.502 698.154 150.208 699.19 149.619 699.977C149.031 700.763 148.234 701.156 147.229 701.156C146.203 701.156 145.395 700.831 144.807 700.18V704.25H143.362V692.547H144.682L144.752 693.484C145.341 692.755 146.158 692.391 147.205 692.391C148.221 692.391 149.023 692.773 149.612 693.539C150.205 694.305 150.502 695.37 150.502 696.734V696.867ZM149.057 696.703C149.057 695.75 148.854 694.997 148.448 694.445C148.041 693.893 147.484 693.617 146.776 693.617C145.901 693.617 145.244 694.005 144.807 694.781V698.82C145.239 699.591 145.901 699.977 146.791 699.977C147.484 699.977 148.033 699.703 148.44 699.156C148.851 698.604 149.057 697.786 149.057 696.703ZM153.705 692.547L153.744 693.484C154.364 692.755 155.2 692.391 156.252 692.391C157.435 692.391 158.239 692.844 158.666 693.75C158.948 693.344 159.312 693.016 159.76 692.766C160.213 692.516 160.747 692.391 161.362 692.391C163.216 692.391 164.158 693.372 164.19 695.336V701H162.744V695.422C162.744 694.818 162.606 694.367 162.33 694.07C162.054 693.768 161.591 693.617 160.94 693.617C160.403 693.617 159.958 693.779 159.604 694.102C159.25 694.419 159.044 694.849 158.987 695.391V701H157.533V695.461C157.533 694.232 156.932 693.617 155.729 693.617C154.781 693.617 154.132 694.021 153.783 694.828V701H152.338V692.547H153.705ZM169.885 701.156C168.739 701.156 167.807 700.781 167.088 700.031C166.369 699.276 166.01 698.268 166.01 697.008V696.742C166.01 695.904 166.169 695.156 166.487 694.5C166.81 693.839 167.257 693.323 167.83 692.953C168.408 692.578 169.033 692.391 169.705 692.391C170.804 692.391 171.658 692.753 172.268 693.477C172.877 694.201 173.182 695.237 173.182 696.586V697.188H167.455C167.476 698.021 167.718 698.695 168.182 699.211C168.651 699.721 169.244 699.977 169.963 699.977C170.474 699.977 170.906 699.872 171.26 699.664C171.614 699.456 171.924 699.18 172.19 698.836L173.073 699.523C172.364 700.612 171.302 701.156 169.885 701.156ZM169.705 693.578C169.122 693.578 168.632 693.792 168.237 694.219C167.841 694.641 167.596 695.234 167.502 696H171.737V695.891C171.695 695.156 171.497 694.589 171.143 694.188C170.789 693.781 170.31 693.578 169.705 693.578ZM176.229 692.547L176.276 693.609C176.921 692.797 177.765 692.391 178.807 692.391C180.593 692.391 181.494 693.398 181.51 695.414V701H180.065V695.406C180.06 694.797 179.919 694.346 179.643 694.055C179.372 693.763 178.948 693.617 178.369 693.617C177.901 693.617 177.489 693.742 177.135 693.992C176.781 694.242 176.505 694.57 176.307 694.977V701H174.862V692.547H176.229ZM185.651 690.5V692.547H187.229V693.664H185.651V698.906C185.651 699.245 185.721 699.5 185.862 699.672C186.002 699.839 186.242 699.922 186.58 699.922C186.747 699.922 186.976 699.891 187.268 699.828V701C186.888 701.104 186.518 701.156 186.158 701.156C185.513 701.156 185.026 700.961 184.698 700.57C184.369 700.18 184.205 699.625 184.205 698.906V693.664H182.666V692.547H184.205V690.5H185.651Z" fill="#262626"/>
<circle cx="140.828" cy="900" r="132" fill="#E5E9F6"/>
<g clip-path="url(#clip0)">
<path d="M162.299 846.558C162.078 846.389 160.034 844.869 156.393 843.405C151.702 841.52 146.319 840.523 140.826 840.523C135.334 840.523 129.951 841.52 125.26 843.405C121.618 844.869 119.574 846.389 119.353 846.558C118.245 847.404 117.594 848.718 117.594 850.113V857.125L122.063 859.516L126.533 857.125V852.644C128.986 851.392 133.892 849.463 140.826 849.463C147.761 849.463 152.666 851.392 155.119 852.644V857.125L159.589 859.516L164.058 857.125V850.113C164.059 848.718 163.408 847.403 162.299 846.558Z" fill="#D55555"/>
<path d="M117.594 857.125V862.06L122.064 864.451L126.534 862.06V857.125H117.594Z" fill="#E38282"/>
<path d="M164.059 857.125H155.119V862.06L159.589 864.451L164.059 862.06V857.125Z" fill="#E38282"/>
<path d="M76.3477 911.232V950.941C76.3477 955.655 80.1692 959.477 84.8833 959.477H196.775C201.489 959.477 205.31 955.655 205.31 950.941V911.232H76.3477Z" fill="#0C3559"/>
<path d="M76.3477 906.297V911.233C83.4388 916.863 102.18 927.793 140.829 927.793C179.478 927.793 198.219 916.863 205.31 911.232V906.297H76.3477V906.297Z" fill="#19588F"/>
<path d="M75.9763 903.454C82.7723 908.987 101.488 920.312 140.828 920.312C180.169 920.312 198.884 908.987 205.68 903.454C207.672 901.833 208.828 897.011 208.828 894.443V870.596C208.828 865.882 205.007 862.061 200.293 862.061H81.3637C76.6497 862.061 72.8281 865.882 72.8281 870.596V894.443C72.8281 897.011 73.9841 901.833 75.9763 903.454Z" fill="#317EC2"/>
<path d="M205.68 901.064C198.884 906.597 180.169 917.921 140.828 917.921C101.488 917.921 82.7726 906.596 75.9763 901.064C73.9841 899.442 72.8281 897.011 72.8281 894.442V899.378C72.8281 901.947 73.9841 904.377 75.9763 905.999C82.7723 911.532 101.488 922.857 140.828 922.857C180.169 922.857 198.884 911.532 205.68 905.999C207.672 904.377 208.828 901.947 208.828 899.378V894.442C208.828 897.011 207.672 899.442 205.68 901.064Z" fill="#0C3559"/>
<path d="M140.827 931.071C145.243 931.071 148.823 927.792 148.823 920.685V915.837C148.823 914.266 147.549 912.992 145.978 912.992H135.677C134.106 912.992 132.832 914.266 132.832 915.837V920.686C132.832 927.792 136.412 931.071 140.827 931.071Z" fill="#F8BD4F"/>
<path d="M140.827 928.681C136.412 928.681 132.832 925.101 132.832 920.686V925.621C132.832 930.037 136.412 933.616 140.827 933.616C145.243 933.616 148.823 930.037 148.823 925.621V920.686C148.823 925.101 145.243 928.681 140.827 928.681Z" fill="#F2A922"/>
</g>
<defs>
<clipPath id="clip0">
<rect width="136" height="136" fill="white" transform="translate(72.8281 832)"/>
</clipPath>
</defs>
</svg>
