<svg width="160" height="160" viewBox="0 0 160 160" fill="none" xmlns="http://www.w3.org/2000/svg">
<circle cx="80" cy="80" r="79" stroke="#317EC2" stroke-width="2"/>
<path d="M101.666 120H41.6661C41.0794 120 40.5328 119.69 40.2328 119.183C39.9328 118.676 39.9228 118.05 40.2028 117.533L70.2028 62.533C70.7861 61.463 72.5461 61.463 73.1295 62.533L103.129 117.533C103.409 118.05 103.399 118.676 103.099 119.183C102.799 119.69 102.253 120 101.666 120ZM44.4728 116.666H98.8561L71.6661 66.813L44.4728 116.666Z" fill="#317EC2"/>
<path d="M118.332 120H101.666C100.746 120 99.9992 119.253 99.9992 118.333C99.9992 117.413 100.746 116.666 101.666 116.666H115.512L100.096 88.633L93.7425 101.78C93.3425 102.606 92.3525 102.956 91.5158 102.553C90.6858 102.153 90.3392 101.156 90.7425 100.326L98.5025 84.273C98.7758 83.713 99.3358 83.3497 99.9592 83.333C100.586 83.363 101.162 83.6497 101.462 84.1963L119.796 117.53C120.079 118.046 120.072 118.673 119.769 119.18C119.466 119.69 118.922 120 118.332 120Z" fill="#317EC2"/>
<path d="M71.6657 65C70.7457 65 69.999 64.2533 69.999 63.3333V41.6667C69.999 40.7467 70.7457 40 71.6657 40H91.6657C92.339 40 92.949 40.4067 93.2057 41.03C93.4657 41.6533 93.3224 42.37 92.8457 42.8467L87.3557 48.3333L92.8424 53.82C93.319 54.2967 93.4624 55.0133 93.2024 55.6367C92.949 56.26 92.339 56.6667 91.6657 56.6667H73.3324V63.3333C73.3324 64.2533 72.5857 65 71.6657 65ZM73.3324 53.3333H87.6424L83.8224 49.5133C83.1724 48.8633 83.1724 47.8067 83.8224 47.1567L87.6424 43.3333H73.3324V53.3333Z" fill="#317EC2"/>
<path d="M76.6665 90.0005C76.6265 90.0005 76.5899 90.0005 76.5465 89.9971C76.0632 89.9638 75.6232 89.7205 75.3332 89.3338L71.6665 84.4471L67.9999 89.3338C67.7099 89.7205 67.2665 89.9605 66.7865 89.9971C66.2832 90.0371 65.8299 89.8571 65.4899 89.5138L59.8898 83.9138C59.2398 83.2638 59.2398 82.2071 59.8898 81.5571C60.5398 80.9071 61.5965 80.9071 62.2465 81.5571L66.4865 85.7971L70.3332 80.6671C70.9599 79.8271 72.3699 79.8271 72.9999 80.6671L76.8465 85.7971L81.0865 81.5571C81.7365 80.9071 82.7932 80.9071 83.4432 81.5571C84.0932 82.2071 84.0932 83.2638 83.4432 83.9138L77.8432 89.5138C77.5299 89.8271 77.1065 90.0005 76.6665 90.0005Z" fill="#317EC2"/>
</svg>
