<svg width="81" height="60" viewBox="0 0 81 60" fill="none" xmlns="http://www.w3.org/2000/svg">
<path fill-rule="evenodd" clip-rule="evenodd" d="M14.1001 4.35352C15.9341 2.58789 18.1333 1.7041 20.6997 1.7041C23.2329 1.7041 25.3833 2.58789 27.1509 4.35352C28.9829 6.1875 29.9009 8.37109 29.9009 10.9043C29.9009 13.4375 28.9829 15.6035 27.1509 17.4043C25.3833 19.2373 23.2329 20.1543 20.6997 20.1543C18.1333 20.1543 15.9341 19.2373 14.1001 17.4043C12.3345 15.6035 11.4497 13.4375 11.4497 10.9043C11.4497 8.37109 12.3345 6.1875 14.1001 4.35352ZM19.6997 5.6543C18.7329 5.9209 17.8833 6.4209 17.1509 7.1543C17.1177 7.1543 17.1001 7.1709 17.1001 7.2041C16.3013 7.9707 15.7681 8.87109 15.5005 9.9043C15.3345 10.3711 15.4009 10.8379 15.6997 11.3047C15.9673 11.7715 16.3501 12.0879 16.8501 12.2539C17.3169 12.3535 17.8013 12.2871 18.3013 12.0547C18.7329 11.7539 19.0337 11.3711 19.1997 10.9043C19.3013 10.5039 19.5005 10.1875 19.8013 9.9541H19.8501C20.0845 9.6543 20.3833 9.4541 20.7505 9.35352C21.2505 9.1875 21.6333 8.88672 21.9009 8.4541C22.1333 7.9541 22.1997 7.4541 22.1001 6.9541C21.9341 6.4541 21.6177 6.07031 21.1509 5.80469C20.6841 5.53711 20.1997 5.4873 19.6997 5.6543ZM47.6997 12.9541C47.8677 13.5547 47.9673 15.2041 48.0005 17.9043C48.0337 20.1709 48.4009 21.8203 49.1001 22.8535C49.6665 23.6543 50.5005 24.2539 51.6001 24.6543C51.7329 21.7871 51.9497 19.2207 52.2505 16.9541C53.6177 6.05469 56.2681 0.603516 60.1997 0.603516C62.8677 0.603516 64.8345 4.4873 66.1001 12.2539C66.2329 13.0547 66.3501 13.8711 66.4497 14.7041C67.6841 14.4375 68.5845 13.9043 69.1509 13.1035C69.6841 12.3379 69.9673 11.0547 70.0005 9.25391C70.0337 7.1875 70.1177 5.9209 70.2505 5.4541C70.5845 4.32031 71.4497 3.75391 72.8501 3.75391C73.9165 3.75391 74.6665 4.77148 75.1001 6.80469C75.3345 8.10352 75.4497 9.55469 75.4497 11.1543C75.4497 13.2871 74.6997 15.1875 73.1997 16.8535C71.5669 18.5879 69.4829 19.4873 66.9497 19.5547C67.1509 21.7539 67.2505 23.9043 67.2505 26.0039C67.2505 27.7373 66.9341 31.4707 66.3013 37.2041C68.2681 37.0039 69.6665 36.2715 70.5005 35.0039C71.1997 34.0039 71.5669 32.3535 71.6001 30.0547C71.6333 27.3867 71.7329 25.7715 71.9009 25.2041C72.3677 23.6709 73.4829 22.9043 75.2505 22.9043C76.6509 22.9043 77.6177 24.2539 78.1509 26.9541C78.4849 28.5879 78.6509 30.4375 78.6509 32.5039C78.6509 35.2715 77.6841 37.7041 75.7505 39.8047C73.5513 42.1367 70.7173 43.3047 67.2505 43.3047C67.0181 43.3047 66.4829 43.2539 65.6509 43.1543C65.4497 44.5215 65.2505 45.9873 65.0513 47.5547C64.7173 50.3535 64.4165 52.9209 64.1509 55.2539C65.2505 55.0879 66.3833 54.8711 67.5513 54.6035C70.9497 53.8379 74.1509 52.6211 77.1509 50.9541C77.6177 50.6543 78.1177 50.5879 78.6509 50.7539C79.1177 50.8867 79.5024 51.1709 79.8013 51.6035C80.0356 52.0371 80.0845 52.5371 79.9517 53.1035C79.8188 53.5703 79.5181 53.9541 79.0513 54.2539C75.7173 56.1543 72.1509 57.5215 68.3501 58.3535C66.9497 58.6543 65.5669 58.9209 64.1997 59.1543C64.1665 59.1543 64.1333 59.1543 64.1001 59.1543C60.0337 59.5879 55.7681 59.4375 51.3013 58.7041H51.2505C47.7837 58.1035 44.1997 57.1709 40.5005 55.9043C29.5669 52.2715 19.6665 51.2373 10.8013 52.8047C9.33447 53.0703 7.8833 53.4043 6.44971 53.8047C6.21729 53.8711 6.00049 53.9375 5.80127 54.0039L5.90088 53.9541C4.86768 54.3203 3.80127 54.7207 2.69971 55.1543C2.19971 55.3535 1.69971 55.3535 1.19971 55.1543C0.73291 54.9541 0.383301 54.6211 0.150879 54.1543C-0.050293 53.6543 -0.050293 53.1543 0.150879 52.6543C0.350098 52.1875 0.699707 51.8379 1.19971 51.6035C2.40088 51.1035 3.58447 50.6709 4.75049 50.3047C4.78369 50.2715 4.81689 50.2539 4.8501 50.2539C4.94971 50.1875 5.06689 50.1543 5.19971 50.1543C6.83447 49.6875 8.48291 49.3047 10.1509 49.0039C19.5845 47.2715 30.1001 48.3535 41.6997 52.2539C45.1665 53.4209 48.4829 54.2871 51.6509 54.8535C51.7505 52.1875 51.8013 49.7207 51.8013 47.4541C51.8013 46.1543 51.7329 44.1543 51.6001 41.4541C51.4341 38.6875 51.3501 36.6367 51.3501 35.3047C51.3501 33.8379 51.3677 32.4375 51.4009 31.1035C48.3677 30.9043 45.8501 29.7207 43.8501 27.5547C41.9165 25.4541 40.9497 23.0371 40.9497 20.3047C40.9497 18.2373 41.1177 16.3711 41.4497 14.7041C41.9829 12.0371 42.9497 10.7041 44.3501 10.7041C46.1177 10.7041 47.2329 11.4541 47.6997 12.9541Z" fill="#C6DEF3"/>
</svg>
