<svg width="418" height="478" viewBox="0 0 418 478" fill="none" xmlns="http://www.w3.org/2000/svg">
<circle r="174" transform="matrix(-1 0 0 1 216.041 174)" fill="#FAEFD9"/>
<mask id="mask0" mask-type="alpha" maskUnits="userSpaceOnUse" x="38" y="102" width="160" height="351">
<g clip-path="url(#clip0)">
<path d="M190.427 201.821C188.513 180.002 180.741 162.151 177.095 155.952H105.322C102.815 158.225 94.9841 166.799 97.4453 182.915C100.522 203.06 74.2001 219.486 59.8427 246.45C45.4853 273.413 46.5108 296.657 47.8782 307.504C48.9721 316.182 41.9529 337.774 38.3066 347.484C40.0158 349.447 46.7159 353.373 59.8427 353.373C76.2511 353.373 83.7716 364.22 107.017 362.981C130.262 361.741 142.227 353.373 153.849 353.373C165.472 353.373 190.427 360.191 196.58 353.373C202.734 346.555 183.248 301.926 181.539 283.64C179.83 265.355 192.82 229.094 190.427 201.821Z" fill="#F2A922"/>
<path d="M97.5198 237.482C95.9499 244.968 84.545 337.815 88.2742 359.979C92.0035 382.143 152.807 428.622 155.469 429.435C158.572 427.159 163.139 419.699 163.139 419.699C163.139 419.699 118.555 368.078 117.724 366.007C116.892 363.935 127.472 244.347 127.472 244.347L97.5198 237.482Z" fill="#203999"/>
<path d="M170.132 254.4L124.643 439.828H109.316L124.848 246.388L170.132 254.4Z" fill="#3C54AF"/>
<path d="M137.821 148.231C144.101 148.231 176.858 149.292 182.777 160.814C188.697 172.336 183.119 225.594 179.439 227.659C177.453 228.769 176.913 227.69 176.336 229.947C175.759 232.205 170.131 254.4 170.131 254.4C166.557 254.499 114.447 246.654 97.5318 237.482C97.6311 234.933 98.4502 228.304 98.4502 227.796C96.2039 228.713 93.4861 228.906 92.7353 227.796C86.1393 217.805 95.9806 165.719 103.036 155.239C106.045 150.743 127.744 148.262 137.821 148.231Z" fill="#AFBBE8"/>
<path d="M159.391 229.129C160.929 229.129 174.177 238.431 173.042 243.001C173.973 239.33 176.901 227.988 176.901 227.988C175.642 228.186 160.489 229.129 159.391 229.129Z" fill="#042039"/>
<path d="M145.932 154.309C145.932 156.331 129.979 156.331 129.979 154.309V133.844H145.932V154.309Z" fill="#88613A"/>
<path d="M136.773 138.688C138.014 138.688 145.932 142.185 145.932 144.132V133.844C143.959 133.844 136.773 138.688 136.773 138.688Z" fill="#042039"/>
<path d="M134.595 140.182C143.166 140.182 150.114 133.238 150.114 124.672C150.114 116.107 143.166 109.163 134.595 109.163C126.024 109.163 119.076 116.107 119.076 124.672C119.076 133.238 126.024 140.182 134.595 140.182Z" fill="#88613A"/>
<path d="M129.346 102C121.378 102 116.408 106.998 116.408 113.404C116.408 118.731 117.705 121.745 119.225 122.508C120.187 117.336 122.278 114.942 124.009 113.913C125.35 114.942 127.658 117.435 130.736 118.204C133.813 118.973 141.824 118.824 148.296 123.525C150.406 121.603 152.522 119.103 152.522 116.158C152.522 113.212 151.219 109.516 143.549 107.383C138.492 105.975 137.791 102 129.346 102Z" fill="#042039"/>
<path d="M120.095 129.28C121.596 129.28 122.813 128.647 122.813 127.866C122.813 127.085 121.596 126.452 120.095 126.452C118.594 126.452 117.377 127.085 117.377 127.866C117.377 128.647 118.594 129.28 120.095 129.28Z" fill="#BF9972"/>
<path d="M137.189 129.28C138.69 129.28 139.906 128.647 139.906 127.866C139.906 127.085 138.69 126.452 137.189 126.452C135.688 126.452 134.471 127.085 134.471 127.866C134.471 128.647 135.688 129.28 137.189 129.28Z" fill="#BF9972"/>
<path d="M126.733 124.945C126.224 125.671 123.631 128.716 126.367 129.944" stroke="#042039" stroke-miterlimit="10" stroke-linecap="round"/>
<path d="M131.846 133.491C132.659 133.491 133.924 132.474 134.588 131.562" stroke="#042039" stroke-miterlimit="10" stroke-linecap="round"/>
<path d="M148.942 130.043C150.923 130.043 152.529 128.438 152.529 126.458C152.529 124.479 150.923 122.874 148.942 122.874C146.961 122.874 145.355 124.479 145.355 126.458C145.355 128.438 146.961 130.043 148.942 130.043Z" fill="#88613A"/>
<path d="M159.75 178.749C159.471 182.172 158.379 199.089 158.788 201.315C153.582 203.126 105.89 225.724 97.668 228.186" stroke="#042039" stroke-miterlimit="10" stroke-linecap="round"/>
<path d="M104.384 173.409C103.292 177.242 99.5934 194.637 102.193 202.717" stroke="#042039" stroke-miterlimit="10" stroke-linecap="round"/>
<path d="M116.551 220.286C119.033 222.028 142.829 232.552 175.716 228.583" stroke="#042039" stroke-miterlimit="10" stroke-linecap="round"/>
<path d="M114.279 202.717C115.874 202.971 110.674 198.823 107.727 200.367C104.78 201.911 100.808 208.9 101.621 210.525C101.731 210.819 101.905 211.084 102.13 211.302C102.356 211.519 102.628 211.684 102.926 211.782C103.223 211.881 103.539 211.912 103.851 211.872C104.162 211.833 104.46 211.724 104.724 211.554C105.524 211.033 111.481 202.271 114.279 202.717Z" fill="#88613A"/>
<path d="M162.611 420.492C163.461 421.112 171 426.21 171.062 429.422C171.124 432.635 164.057 443.282 162.611 443.586C161.165 443.89 160.166 442.687 160.166 440.535C160.166 438.383 162.859 434.613 162.499 432.938C162.139 431.264 158.658 428.201 156.871 428.145" fill="#042039"/>
<path d="M123.189 439.828C123.189 441.304 124.046 450.569 122.327 451.431C120.608 452.293 101.72 452.801 100.863 451.946C100.007 451.09 99.4859 449.285 100.243 448.771C101 448.256 108.31 446.792 109.296 446.11C110.283 445.428 111.66 441.769 111.158 439.828" fill="#042039"/>
<path d="M123.731 182.44H130.939V169.595L144.945 190.592H137.737V203.436L123.731 182.44Z" fill="#127776"/>
</g>
</mask>
<g mask="url(#mask0)">
<rect width="159.471" height="351" transform="matrix(-1 0 0 1 197.777 102)" fill="#F8FBFD"/>
</g>
<mask id="mask1" mask-type="alpha" maskUnits="userSpaceOnUse" x="0" y="127" width="116" height="254">
<g clip-path="url(#clip1)">
<path d="M110.458 199.235C109.073 183.446 103.449 170.528 100.811 166.042H48.872C47.058 167.687 41.3913 173.892 43.1724 185.554C45.3988 200.132 26.3511 212.019 15.9614 231.531C5.57172 251.043 6.31384 267.863 7.30334 275.713C8.09493 281.993 3.01553 297.617 0.376892 304.644C1.61375 306.065 6.46227 308.905 15.9614 308.905C27.8353 308.905 33.2775 316.755 50.0989 315.858C66.9202 314.961 75.5783 308.905 83.989 308.905C92.3996 308.905 110.458 313.84 114.911 308.905C119.364 303.971 105.263 271.676 104.027 258.444C102.79 245.211 112.19 218.971 110.458 199.235Z" fill="#F2A922"/>
<path d="M43.2257 225.042C42.0897 230.458 33.8365 297.647 36.5352 313.686C39.2338 329.725 83.2342 363.359 85.1605 363.947C87.4057 362.3 90.7105 356.902 90.7105 356.902C90.7105 356.902 58.4478 319.547 57.8461 318.048C57.2444 316.549 64.9003 230.009 64.9003 230.009L43.2257 225.042Z" fill="#203999"/>
<path d="M95.771 237.283L62.8527 371.468H51.7617L63.0009 231.485L95.771 237.283Z" fill="#3C54AF"/>
<path d="M72.3911 160.455C76.9353 160.455 100.639 161.222 104.923 169.56C109.207 177.899 105.17 216.438 102.507 217.933C101.071 218.736 100.68 217.955 100.262 219.589C99.8447 221.222 95.772 237.283 95.772 237.283C93.1856 237.355 55.4762 231.678 43.2356 225.041C43.3075 223.197 43.9002 218.399 43.9002 218.031C42.2747 218.696 40.3079 218.835 39.7646 218.031C34.9914 210.802 42.113 173.11 47.2185 165.526C49.3963 162.273 65.0988 160.478 72.3911 160.455Z" fill="#AFBBE8"/>
<path d="M87.998 218.997C89.1116 218.997 98.6984 225.728 97.8767 229.035C98.5502 226.379 100.67 218.171 100.67 218.171C99.7581 218.315 88.7928 218.997 87.998 218.997Z" fill="#042039"/>
<path d="M78.2594 164.853C78.2594 166.316 66.7148 166.316 66.7148 164.853V150.044H78.2594V164.853Z" fill="#88613A"/>
<path d="M71.6309 153.549C72.5289 153.549 78.2585 156.08 78.2585 157.489V150.044C76.8306 150.044 71.6309 153.549 71.6309 153.549Z" fill="#042039"/>
<path d="M70.0564 154.63C76.2587 154.63 81.2866 149.605 81.2866 143.407C81.2866 137.208 76.2587 132.183 70.0564 132.183C63.8541 132.183 58.8262 137.208 58.8262 143.407C58.8262 149.605 63.8541 154.63 70.0564 154.63Z" fill="#88613A"/>
<path d="M66.2568 127C60.4913 127 56.8945 130.617 56.8945 135.253C56.8945 139.108 57.833 141.289 58.9331 141.841C59.6291 138.098 61.1423 136.366 62.3951 135.621C63.365 136.366 65.0354 138.17 67.2626 138.726C69.4898 139.283 75.2868 139.175 79.9701 142.577C81.4968 141.185 83.028 139.377 83.028 137.245C83.028 135.114 82.0851 132.439 76.5351 130.895C72.8755 129.877 72.3681 127 66.2568 127Z" fill="#042039"/>
<path d="M59.5625 146.741C60.6487 146.741 61.5292 146.283 61.5292 145.718C61.5292 145.153 60.6487 144.695 59.5625 144.695C58.4762 144.695 57.5957 145.153 57.5957 145.718C57.5957 146.283 58.4762 146.741 59.5625 146.741Z" fill="#BF9972"/>
<path d="M71.9316 146.741C73.0178 146.741 73.8983 146.283 73.8983 145.718C73.8983 145.153 73.0178 144.695 71.9316 144.695C70.8454 144.695 69.9648 145.153 69.9648 145.718C69.9648 146.283 70.8454 146.741 71.9316 146.741Z" fill="#BF9972"/>
<path d="M64.3652 143.604C63.997 144.129 62.1201 146.332 64.1003 147.221" stroke="#042039" stroke-miterlimit="10" stroke-linecap="round"/>
<path d="M68.0664 149.788C68.6546 149.788 69.5707 149.052 70.0511 148.393" stroke="#042039" stroke-miterlimit="10" stroke-linecap="round"/>
<path d="M80.4372 147.293C81.8706 147.293 83.0326 146.132 83.0326 144.699C83.0326 143.267 81.8706 142.105 80.4372 142.105C79.0038 142.105 77.8418 143.267 77.8418 144.699C77.8418 146.132 79.0038 147.293 80.4372 147.293Z" fill="#88613A"/>
<path d="M88.2593 182.539C88.0573 185.016 87.267 197.258 87.5633 198.87C83.796 200.18 49.2836 216.533 43.334 218.314" stroke="#042039" stroke-miterlimit="10" stroke-linecap="round"/>
<path d="M48.1915 178.675C47.4012 181.449 44.725 194.036 46.6064 199.884" stroke="#042039" stroke-miterlimit="10" stroke-linecap="round"/>
<path d="M56.998 212.597C58.7942 213.858 76.0144 221.474 99.813 218.602" stroke="#042039" stroke-miterlimit="10" stroke-linecap="round"/>
<path d="M55.3532 199.884C56.5072 200.068 52.7443 197.066 50.6114 198.183C48.4786 199.3 45.6048 204.358 46.193 205.534C46.2722 205.746 46.3982 205.938 46.5616 206.096C46.7249 206.253 46.9216 206.372 47.137 206.444C47.3524 206.515 47.5811 206.538 47.8063 206.509C48.0315 206.48 48.2474 206.402 48.4381 206.279C49.0174 205.902 53.3281 199.561 55.3532 199.884Z" fill="#88613A"/>
<path d="M90.3293 357.476C90.9445 357.924 96.4002 361.613 96.4451 363.938C96.49 366.262 91.3755 373.968 90.3293 374.188C89.2831 374.407 88.5601 373.537 88.5601 371.98C88.5601 370.422 90.5089 367.694 90.2485 366.482C89.988 365.271 87.469 363.054 86.1758 363.013" fill="#042039"/>
<path d="M61.8016 371.468C61.8016 372.536 62.4212 379.241 61.1774 379.865C59.9336 380.488 46.2651 380.856 45.6455 380.237C45.0258 379.618 44.6486 378.312 45.1965 377.939C45.7443 377.567 51.0338 376.508 51.7478 376.014C52.4617 375.521 53.4586 372.873 53.0949 371.468" fill="#042039"/>
<path d="M62.193 185.21H67.4095V175.915L77.5449 191.109H72.3283V200.404L62.193 185.21Z" fill="#127776"/>
</g>
</mask>
<g mask="url(#mask1)">
<rect width="115.4" height="254" transform="matrix(-1 0 0 1 115.777 127)" fill="#F8FBFD"/>
</g>
<mask id="mask2" mask-type="alpha" maskUnits="userSpaceOnUse" x="222" y="65" width="175" height="383">
<g clip-path="url(#clip2)">
<path d="M230.313 173.751C232.398 149.98 240.865 130.532 244.837 123.779H323.031C325.762 126.255 334.293 135.596 331.612 153.154C328.26 175.101 356.937 192.997 372.578 222.372C388.22 251.747 387.103 277.071 385.613 288.888C384.421 298.342 392.069 321.865 396.041 332.445C394.179 334.583 386.879 338.86 372.578 338.86C354.702 338.86 346.509 350.678 321.184 349.327C295.859 347.977 282.825 338.86 270.162 338.86C257.5 338.86 230.313 346.288 223.609 338.86C216.905 331.432 238.134 282.811 239.996 262.89C241.858 242.968 227.706 203.464 230.313 173.751Z" fill="#F2A922"/>
<path d="M331.532 212.602C333.242 220.757 345.667 321.91 341.604 346.057C337.542 370.203 271.299 420.841 268.399 421.726C265.018 419.246 260.043 411.118 260.043 411.118C260.043 411.118 308.615 354.88 309.521 352.624C310.427 350.367 298.9 220.081 298.9 220.081L331.532 212.602Z" fill="#203999"/>
<path d="M252.425 231.033L301.984 433.049H318.682L301.761 222.304L252.425 231.033Z" fill="#3C54AF"/>
<path d="M287.624 115.367C280.783 115.367 245.096 116.522 238.647 129.075C232.198 141.628 238.275 199.65 242.284 201.9C244.447 203.11 245.035 201.934 245.664 204.393C246.293 206.852 252.424 231.033 252.424 231.033C256.318 231.141 313.09 222.594 331.518 212.602C331.41 209.825 330.518 202.603 330.518 202.049C332.965 203.049 335.926 203.258 336.744 202.049C343.93 191.165 333.208 134.42 325.522 123.002C322.243 118.103 298.603 115.401 287.624 115.367Z" fill="#AFBBE8"/>
<path d="M264.127 203.501C262.45 203.501 248.017 213.636 249.255 218.615C248.241 214.615 245.05 202.258 245.05 202.258C246.422 202.474 262.93 203.501 264.127 203.501Z" fill="#042039"/>
<path d="M278.79 121.988C278.79 124.191 296.17 124.191 296.17 121.988V99.6929H278.79V121.988Z" fill="#88613A"/>
<path d="M288.768 104.969C287.416 104.969 278.79 108.78 278.79 110.901V99.6929C280.939 99.6929 288.768 104.969 288.768 104.969Z" fill="#042039"/>
<path d="M291.14 106.598C281.802 106.598 274.232 99.0324 274.232 89.7004C274.232 80.3683 281.802 72.8032 291.14 72.8032C300.477 72.8032 308.047 80.3683 308.047 89.7004C308.047 99.0324 300.477 106.598 291.14 106.598Z" fill="#88613A"/>
<path d="M296.858 65C305.538 65 310.953 70.4455 310.953 77.4246C310.953 83.2281 309.54 86.5116 307.884 87.3426C306.836 81.708 304.558 79.1001 302.672 77.9786C301.212 79.1001 298.697 81.8161 295.344 82.6539C291.991 83.4916 283.263 83.3295 276.213 88.4507C273.914 86.3562 271.609 83.6335 271.609 80.4243C271.609 77.2151 273.029 73.1885 281.384 70.8644C286.894 69.3307 287.658 65 296.858 65Z" fill="#042039"/>
<path d="M306.937 94.7205C305.302 94.7205 303.977 94.0308 303.977 93.1801C303.977 92.3293 305.302 91.6396 306.937 91.6396C308.573 91.6396 309.898 92.3293 309.898 93.1801C309.898 94.0308 308.573 94.7205 306.937 94.7205Z" fill="#BF9972"/>
<path d="M288.314 94.7205C286.679 94.7205 285.353 94.0308 285.353 93.1801C285.353 92.3293 286.679 91.6396 288.314 91.6396C289.95 91.6396 291.275 92.3293 291.275 93.1801C291.275 94.0308 289.95 94.7205 288.314 94.7205Z" fill="#BF9972"/>
<path d="M299.706 89.998C300.26 90.7885 303.086 94.1058 300.104 95.4435" stroke="#042039" stroke-miterlimit="10" stroke-linecap="round"/>
<path d="M294.135 99.3077C293.249 99.3077 291.87 98.1997 291.147 97.2065" stroke="#042039" stroke-miterlimit="10" stroke-linecap="round"/>
<path d="M275.511 95.5513C273.353 95.5513 271.603 93.803 271.603 91.6463C271.603 89.4896 273.353 87.7412 275.511 87.7412C277.669 87.7412 279.418 89.4896 279.418 91.6463C279.418 93.803 277.669 95.5513 275.511 95.5513Z" fill="#88613A"/>
<path d="M263.734 148.614C264.038 152.344 265.228 170.774 264.781 173.2C270.453 175.173 322.412 199.792 331.369 202.474" stroke="#042039" stroke-miterlimit="10" stroke-linecap="round"/>
<path d="M324.054 142.797C325.244 146.973 329.273 165.924 326.44 174.727" stroke="#042039" stroke-miterlimit="10" stroke-linecap="round"/>
<path d="M310.799 193.867C308.095 195.766 282.17 207.231 246.341 202.907" stroke="#042039" stroke-miterlimit="10" stroke-linecap="round"/>
<path d="M313.272 174.727C311.535 175.004 317.2 170.484 320.411 172.166C323.622 173.849 327.948 181.463 327.063 183.233C326.943 183.553 326.754 183.842 326.508 184.079C326.262 184.316 325.966 184.495 325.641 184.603C325.317 184.711 324.973 184.744 324.634 184.701C324.295 184.658 323.97 184.54 323.683 184.354C322.81 183.787 316.321 174.24 313.272 174.727Z" fill="#88613A"/>
<path d="M260.618 411.983C259.692 412.659 251.478 418.213 251.411 421.712C251.343 425.212 259.043 436.812 260.618 437.143C262.193 437.474 263.281 436.164 263.281 433.819C263.281 431.475 260.348 427.367 260.74 425.543C261.132 423.719 264.924 420.381 266.871 420.32" fill="#042039"/>
<path d="M303.565 433.049C303.565 434.657 302.632 444.75 304.505 445.69C306.377 446.629 326.955 447.183 327.888 446.25C328.821 445.318 329.389 443.352 328.564 442.791C327.739 442.23 319.776 440.636 318.701 439.893C317.626 439.15 316.125 435.164 316.673 433.049" fill="#042039"/>
<path d="M302.976 152.636H295.122V138.642L279.863 161.517H287.717V175.51L302.976 152.636Z" fill="#127776"/>
</g>
</mask>
<g mask="url(#mask2)">
<rect x="222.305" y="65" width="173.736" height="382.399" fill="#F8FBFD"/>
</g>
<mask id="mask3" mask-type="alpha" maskUnits="userSpaceOnUse" x="300" y="101" width="118" height="257">
<g clip-path="url(#clip3)">
<path d="M306.214 174.088C307.616 158.113 313.306 145.042 315.975 140.503H368.528C370.363 142.168 376.097 148.446 374.295 160.246C372.042 174.996 391.315 187.023 401.827 206.765C412.339 226.507 411.588 243.527 410.587 251.469C409.786 257.823 414.926 273.632 417.595 280.742C416.344 282.179 411.438 285.054 401.827 285.054C389.813 285.054 384.306 292.996 367.286 292.088C350.266 291.181 341.506 285.054 332.996 285.054C324.486 285.054 306.214 290.046 301.709 285.054C297.203 280.061 311.47 247.384 312.722 233.996C313.973 220.607 304.462 194.057 306.214 174.088Z" fill="#F2A922"/>
<path d="M374.24 200.199C375.389 205.68 383.74 273.662 381.009 289.89C378.279 306.119 333.759 340.151 331.81 340.746C329.538 339.079 326.194 333.617 326.194 333.617C326.194 333.617 358.838 295.82 359.447 294.304C360.055 292.787 352.309 205.226 352.309 205.226L374.24 200.199Z" fill="#203999"/>
<path d="M321.074 212.586L354.382 348.356H365.604L354.232 206.72L321.074 212.586Z" fill="#3C54AF"/>
<path d="M344.73 134.851C340.133 134.851 316.148 135.627 311.814 144.064C307.48 152.5 311.564 191.495 314.258 193.007C315.712 193.82 316.107 193.03 316.53 194.683C316.952 196.335 321.073 212.586 321.073 212.586C323.69 212.659 361.845 206.915 374.23 200.199C374.157 198.333 373.558 193.479 373.558 193.107C375.202 193.779 377.192 193.92 377.742 193.107C382.572 185.792 375.366 147.655 370.2 139.982C367.997 136.69 352.109 134.873 344.73 134.851Z" fill="#AFBBE8"/>
<path d="M328.938 194.083C327.811 194.083 318.111 200.894 318.942 204.24C318.261 201.552 316.116 193.248 316.116 193.248C317.039 193.393 328.133 194.083 328.938 194.083Z" fill="#042039"/>
<path d="M338.792 139.301C338.792 140.781 350.473 140.781 350.473 139.301V124.316H338.792V139.301Z" fill="#88613A"/>
<path d="M345.498 127.863C344.589 127.863 338.792 130.424 338.792 131.849V124.316C340.237 124.316 345.498 127.863 345.498 127.863Z" fill="#042039"/>
<path d="M347.092 128.957C340.817 128.957 335.729 123.873 335.729 117.601C335.729 111.329 340.817 106.245 347.092 106.245C353.368 106.245 358.455 111.329 358.455 117.601C358.455 123.873 353.368 128.957 347.092 128.957Z" fill="#88613A"/>
<path d="M350.937 101C356.771 101 360.41 104.66 360.41 109.35C360.41 113.251 359.461 115.457 358.347 116.016C357.643 112.229 356.112 110.476 354.845 109.723C353.863 110.476 352.173 112.302 349.92 112.865C347.666 113.428 341.801 113.319 337.062 116.761C335.517 115.353 333.968 113.523 333.968 111.366C333.968 109.209 334.922 106.503 340.538 104.941C344.24 103.911 344.754 101 350.937 101Z" fill="#042039"/>
<path d="M357.711 120.974C356.612 120.974 355.721 120.511 355.721 119.939C355.721 119.367 356.612 118.904 357.711 118.904C358.81 118.904 359.701 119.367 359.701 119.939C359.701 120.511 358.81 120.974 357.711 120.974Z" fill="#BF9972"/>
<path d="M345.194 120.974C344.095 120.974 343.204 120.511 343.204 119.939C343.204 119.367 344.095 118.904 345.194 118.904C346.293 118.904 347.184 119.367 347.184 119.939C347.184 120.511 346.293 120.974 345.194 120.974Z" fill="#BF9972"/>
<path d="M352.85 117.8C353.222 118.332 355.121 120.561 353.118 121.46" stroke="#042039" stroke-miterlimit="10" stroke-linecap="round"/>
<path d="M349.105 124.057C348.51 124.057 347.583 123.312 347.097 122.645" stroke="#042039" stroke-miterlimit="10" stroke-linecap="round"/>
<path d="M336.589 121.533C335.138 121.533 333.963 120.358 333.963 118.908C333.963 117.459 335.138 116.284 336.589 116.284C338.039 116.284 339.215 117.459 339.215 118.908C339.215 120.358 338.039 121.533 336.589 121.533Z" fill="#88613A"/>
<path d="M328.675 157.195C328.879 159.701 329.679 172.088 329.379 173.718C333.191 175.044 368.111 191.59 374.131 193.393" stroke="#042039" stroke-miterlimit="10" stroke-linecap="round"/>
<path d="M369.214 153.286C370.013 156.092 372.721 168.828 370.817 174.745" stroke="#042039" stroke-miterlimit="10" stroke-linecap="round"/>
<path d="M360.305 187.608C358.487 188.884 341.064 196.589 316.984 193.683" stroke="#042039" stroke-miterlimit="10" stroke-linecap="round"/>
<path d="M361.969 174.744C360.802 174.93 364.609 171.893 366.767 173.023C368.925 174.154 371.833 179.271 371.238 180.461C371.158 180.676 371.03 180.87 370.865 181.03C370.7 181.189 370.501 181.309 370.283 181.382C370.065 181.454 369.833 181.477 369.605 181.448C369.377 181.419 369.159 181.339 368.966 181.215C368.38 180.833 364.018 174.417 361.969 174.744Z" fill="#88613A"/>
<path d="M326.581 334.198C325.958 334.652 320.438 338.384 320.393 340.736C320.347 343.088 325.522 350.885 326.581 351.107C327.639 351.33 328.371 350.449 328.371 348.873C328.371 347.298 326.399 344.537 326.662 343.311C326.926 342.085 329.475 339.842 330.783 339.801" fill="#042039"/>
<path d="M355.445 348.356C355.445 349.437 354.818 356.22 356.076 356.851C357.335 357.483 371.164 357.855 371.791 357.228C372.418 356.602 372.8 355.28 372.246 354.904C371.691 354.527 366.339 353.455 365.617 352.956C364.895 352.456 363.886 349.777 364.254 348.356" fill="#042039"/>
<path d="M355.049 159.898H349.771V150.493L339.516 165.867H344.794V175.271L355.049 159.898Z" fill="#127776"/>
</g>
</mask>
<g mask="url(#mask3)">
<rect x="300.832" y="101" width="116.763" height="257" fill="#F8FBFD"/>
</g>
<g clip-path="url(#clip4)">
<path d="M288.099 172.435C285.77 145.892 276.316 124.175 271.881 116.634H184.566C181.517 119.399 171.99 129.83 174.985 149.436C178.727 173.943 146.706 193.925 129.24 226.727C111.774 259.528 113.022 287.805 114.685 301.001C116.016 311.558 107.477 337.824 103.041 349.638C105.12 352.026 113.271 356.802 129.24 356.802C149.201 356.802 158.35 369.998 186.629 368.489C214.907 366.981 229.462 356.802 243.601 356.802C257.741 356.802 288.099 365.096 295.585 356.802C303.07 348.507 279.366 294.215 277.287 271.97C275.207 249.725 291.01 205.613 288.099 172.435Z" fill="#F2A922"/>
<path d="M175.076 215.817C173.166 224.923 159.291 337.874 163.828 364.837C168.365 391.8 242.334 448.344 245.572 449.332C249.347 446.563 254.902 437.488 254.902 437.488C254.902 437.488 200.665 374.69 199.654 372.17C198.642 369.651 211.513 224.169 211.513 224.169L175.076 215.817Z" fill="#203999"/>
<path d="M263.41 236.398L208.071 461.976H189.426L208.32 226.651L263.41 236.398Z" fill="#3C54AF"/>
<path d="M224.104 107.242C231.743 107.242 271.592 108.532 278.794 122.549C285.995 136.566 279.209 201.355 274.733 203.867C272.317 205.218 271.66 203.905 270.958 206.651C270.256 209.397 263.41 236.398 263.41 236.398C259.062 236.519 195.668 226.975 175.091 215.817C175.211 212.717 176.208 204.652 176.208 204.033C173.475 205.15 170.169 205.384 169.255 204.033C161.231 191.88 173.203 128.516 181.786 115.767C185.447 110.297 211.845 107.279 224.104 107.242Z" fill="#AFBBE8"/>
<path d="M250.344 205.656C252.216 205.656 268.332 216.972 266.951 222.532C268.083 218.066 271.646 204.268 271.646 204.268C270.114 204.509 251.68 205.656 250.344 205.656Z" fill="#042039"/>
<path d="M233.97 114.635C233.97 117.094 214.562 117.094 214.562 114.635V89.7393H233.97V114.635Z" fill="#88613A"/>
<path d="M222.828 95.6313C224.338 95.6313 233.97 99.8862 233.97 102.255V89.7393C231.569 89.7393 222.828 95.6313 222.828 95.6313Z" fill="#042039"/>
<path d="M220.178 97.4493C230.605 97.4493 239.057 89.0018 239.057 78.5813C239.057 68.1609 230.605 59.7134 220.178 59.7134C209.751 59.7134 201.299 68.1609 201.299 78.5813C201.299 89.0018 209.751 97.4493 220.178 97.4493Z" fill="#88613A"/>
<path d="M213.792 51C204.099 51 198.053 57.0806 198.053 64.8737C198.053 71.3542 199.63 75.0206 201.48 75.9486C202.65 69.6567 205.194 66.7447 207.3 65.4923C208.93 66.7447 211.738 69.7774 215.483 70.7129C219.227 71.6484 228.972 71.4673 236.845 77.1858C239.412 74.8471 241.986 71.8068 241.986 68.2233C241.986 64.6399 240.401 60.1435 231.07 57.5483C224.918 55.8358 224.065 51 213.792 51Z" fill="#042039"/>
<path d="M202.537 84.1867C204.363 84.1867 205.843 83.4166 205.843 82.4667C205.843 81.5167 204.363 80.7466 202.537 80.7466C200.711 80.7466 199.23 81.5167 199.23 82.4667C199.23 83.4166 200.711 84.1867 202.537 84.1867Z" fill="#BF9972"/>
<path d="M223.334 84.1867C225.16 84.1867 226.64 83.4166 226.64 82.4667C226.64 81.5167 225.16 80.7466 223.334 80.7466C221.508 80.7466 220.027 81.5167 220.027 82.4667C220.027 83.4166 221.508 84.1867 223.334 84.1867Z" fill="#BF9972"/>
<path d="M210.615 78.9136C209.996 79.7962 206.841 83.5004 210.17 84.9942" stroke="#042039" stroke-miterlimit="10" stroke-linecap="round"/>
<path d="M216.834 89.3091C217.823 89.3091 219.363 88.0719 220.17 86.9629" stroke="#042039" stroke-miterlimit="10" stroke-linecap="round"/>
<path d="M237.631 85.1146C240.04 85.1146 241.994 83.1623 241.994 80.7541C241.994 78.3458 240.04 76.3936 237.631 76.3936C235.221 76.3936 233.268 78.3458 233.268 80.7541C233.268 83.1623 235.221 85.1146 237.631 85.1146Z" fill="#88613A"/>
<path d="M250.782 144.367C250.442 148.531 249.114 169.112 249.612 171.82C243.279 174.023 185.26 201.514 175.258 204.509" stroke="#042039" stroke-miterlimit="10" stroke-linecap="round"/>
<path d="M183.424 137.871C182.095 142.533 177.596 163.695 180.759 173.525" stroke="#042039" stroke-miterlimit="10" stroke-linecap="round"/>
<path d="M198.227 194.897C201.246 197.017 230.195 209.82 270.203 204.992" stroke="#042039" stroke-miterlimit="10" stroke-linecap="round"/>
<path d="M195.464 173.525C197.404 173.834 191.078 168.787 187.492 170.666C183.907 172.544 179.075 181.047 180.064 183.023C180.198 183.381 180.409 183.703 180.684 183.968C180.959 184.233 181.289 184.433 181.651 184.553C182.013 184.673 182.398 184.711 182.776 184.663C183.155 184.615 183.518 184.482 183.839 184.275C184.812 183.642 192.059 172.982 195.464 173.525Z" fill="#88613A"/>
<path d="M254.262 438.454C255.296 439.208 264.468 445.409 264.543 449.317C264.618 453.225 256.021 466.178 254.262 466.548C252.503 466.918 251.288 465.454 251.288 462.836C251.288 460.219 254.564 455.632 254.126 453.595C253.688 451.558 249.453 447.831 247.279 447.763" fill="#042039"/>
<path d="M206.305 461.976C206.305 463.772 207.347 475.043 205.256 476.091C203.165 477.14 180.187 477.758 179.145 476.717C178.104 475.676 177.47 473.481 178.39 472.855C179.311 472.229 188.204 470.448 189.404 469.618C190.604 468.788 192.28 464.337 191.669 461.976" fill="#042039"/>
<path d="M207.757 161.207C207.964 158.888 208.77 157.053 210.174 155.703C210.613 155.523 211.123 155.4 211.702 155.335C212.283 155.256 212.888 155.244 213.518 155.3C214.626 155.399 215.606 155.676 216.456 156.132C216.419 156.553 216.399 156.865 216.395 157.069C216.28 158.534 216.205 159.791 216.172 160.84C216.14 161.875 216.173 163.032 216.27 164.311C216.382 165.593 216.602 166.934 216.93 168.337C217.267 168.455 217.727 168.54 218.312 168.592L219.123 168.642C219.259 168.64 219.454 168.65 219.709 168.673L220.044 168.724C220.191 167.583 220.345 166.122 220.504 164.339C220.812 160.889 221.106 156.745 221.387 151.905C221.584 148.518 221.779 145.738 221.973 143.564C222.148 141.607 222.327 140.104 222.512 139.054C220.903 138.969 219.586 138.924 218.559 138.92L217.946 145.023C217.028 145.16 216.221 145.234 215.525 145.245C214.845 145.258 214.1 145.22 213.293 145.134C212.944 144.81 212.588 144.224 212.226 143.373C211.881 142.509 211.612 141.543 211.42 140.474C211.23 139.391 211.177 138.378 211.261 137.436C211.378 136.131 211.714 135.066 212.272 134.239C212.844 133.413 213.634 132.848 214.643 132.544C215.176 132.329 215.777 132.185 216.448 132.114C217.136 132.029 217.986 131.973 219 131.947C220.091 131.913 221.295 131.955 222.614 132.072C224.007 132.197 225.447 132.391 226.934 132.655C228.437 132.906 229.831 133.199 231.115 133.532L232.186 134.987C231.554 140.204 231.069 144.106 230.733 146.691C230.577 147.758 230.344 149.607 230.034 152.238C229.519 156.312 229.081 159.692 228.721 162.377C228.362 165.048 228.062 166.971 227.821 168.148C227.581 169.31 227.304 170.293 226.991 171.098C226.691 171.918 226.274 172.619 225.739 173.199C225.054 173.927 224.171 174.433 223.089 174.716C222.021 175 220.836 175.084 219.532 174.968C217.33 174.772 215.488 174.344 214.006 173.686C212.524 173.028 211.291 172.034 210.308 170.704C209.338 169.39 208.587 167.643 208.057 165.463C207.729 164.06 207.629 162.642 207.757 161.207Z" fill="#102373"/>
</g>
<defs>
<clipPath id="clip0">
<rect width="159.471" height="351" fill="white" transform="translate(38.3066 102)"/>
</clipPath>
<clipPath id="clip1">
<rect width="115.4" height="254" fill="white" transform="translate(0.376953 127)"/>
</clipPath>
<clipPath id="clip2">
<rect width="173.736" height="382.399" fill="white" transform="matrix(-1 0 0 1 396.041 65)"/>
</clipPath>
<clipPath id="clip3">
<rect width="116.763" height="257" fill="white" transform="matrix(-1 0 0 1 417.596 101)"/>
</clipPath>
<clipPath id="clip4">
<rect width="194" height="427" fill="white" transform="translate(103.041 51)"/>
</clipPath>
</defs>
</svg>
