<svg width="24" height="24" viewBox="0 0 24 24" fill="none" xmlns="http://www.w3.org/2000/svg">
<path fill-rule="evenodd" clip-rule="evenodd" d="M16 8C16 10.2091 14.2091 12 12 12C9.79086 12 8 10.2091 8 8C8 5.79086 9.79086 4 12 4C14.2091 4 16 5.79086 16 8ZM18 8C18 11.3137 15.3137 14 12 14C8.68629 14 6 11.3137 6 8C6 4.68629 8.68629 2 12 2C15.3137 2 18 4.68629 18 8ZM6 13C5.40258 13 4.4927 13.1143 3.69227 13.4985C2.86859 13.8938 2 14.6747 2 16V16.007V16.014V16.021V16.028V16.0351V16.0421V16.0492V16.0562V16.0633V16.0704V16.0775V16.0846V16.0917V16.0988V16.1059V16.1131V16.1202V16.1274V16.1346V16.1417V16.1489V16.1561V16.1633V16.1706V16.1778V16.185V16.1923V16.1995V16.2068V16.214V16.2213V16.2286V16.2359V16.2432V16.2505V16.2579V16.2652V16.2725V16.2799V16.2872V16.2946V16.302V16.3094V16.3168V16.3242V16.3316V16.339V16.3464V16.3538V16.3613V16.3687V16.3762V16.3837V16.3911V16.3986V16.4061V16.4136V16.4211V16.4286V16.4361V16.4437V16.4512V16.4587V16.4663V16.4739V16.4814V16.489V16.4966V16.5042V16.5118V16.5194V16.527V16.5346V16.5422V16.5499V16.5575V16.5652V16.5728V16.5805V16.5881V16.5958V16.6035V16.6112V16.6189V16.6266V16.6343V16.642V16.6497V16.6575V16.6652V16.6729V16.6807V16.6884V16.6962V16.704V16.7117V16.7195V16.7273V16.7351V16.7429V16.7507V16.7585V16.7663V16.7742V16.782V16.7898V16.7977V16.8055V16.8134V16.8212V16.8291V16.837V16.8448V16.8527V16.8606V16.8685V16.8764V16.8843V16.8922V16.9001V16.908V16.9159V16.9239V16.9318V16.9398V16.9477V16.9556V16.9636V16.9716V16.9795V16.9875V16.9955V17.0034V17.0114V17.0194V17.0274V17.0354V17.0434V17.0514V17.0594V17.0674V17.0755V17.0835V17.0915V17.0995V17.1076V17.1156V17.1237V17.1317V17.1398V17.1478V17.1559V17.164V17.172V17.1801V17.1882V17.1963V17.2044V17.2124V17.2205V17.2286V17.2367V17.2448V17.2529V17.2611V17.2692V17.2773V17.2854V17.2935V17.3017V17.3098V17.3179V17.3261V17.3342V17.3423V17.3505V17.3586V17.3668V17.3749V17.3831V17.3913V17.3994V17.4076V17.4158V17.4239V17.4321V17.4403V17.4485V17.4567V17.4648V17.473V17.4812V17.4894V17.4976V17.5058V17.514V17.5222V17.5304V17.5386V17.5468V17.555V17.5632V17.5714V17.5797V17.5879V17.5961V17.6043V17.6125V17.6208V17.629V17.6372V17.6454V17.6537V17.6619V17.6701V17.6784V17.6866V17.6949V17.7031V17.7113V17.7196V17.7278V17.7361V17.7443V17.7525V17.7608V17.769V17.7773V17.7855V17.7938V17.802V17.8103V17.8185V17.8268V17.8351V17.8433V17.8516V17.8598V17.8681V17.8763V17.8846V17.8928V17.9011V17.9094V17.9176V17.9259V17.9341V17.9424V17.9507V17.9589V17.9672V17.9754V17.9837V17.9919V18.0002V18.0085V18.0167V18.025V18.0332V18.0415V18.0498V18.058V18.0663V18.0745V18.0828V18.091V18.0993V18.1075V18.1158V18.124V18.1323V18.1405V18.1488V18.157V18.1653V18.1735V18.1818V18.19V18.1982V18.2065V18.2147V18.223V18.2312V18.2394V18.2477V18.2559V18.2641V18.2724V18.2806V18.2888V18.297V18.3053V18.3135V18.3217V18.3299V18.3381V18.3464V18.3546V18.3628V18.371V18.3792V18.3874V18.3956V18.4038V18.412V18.4202V18.4284V18.4366V18.4448V18.453V18.4611V18.4693V18.4775V18.4857V18.4939V18.502V18.5102V18.5184V18.5265V18.5347V18.5428V18.551V18.5591V18.5673V18.5754V18.5836V18.5917V18.5998V18.608V18.6161V18.6242V18.6324V18.6405V18.6486V18.6567V18.6648V18.6729V18.681V18.6891V18.6972V18.7053V18.7134V18.7215V18.7296V18.7376V18.7457V18.7538V18.7618V18.7699V18.778V18.786V18.7941V18.8021V18.8101V18.8182V18.8262V18.8342V18.8423V18.8503V18.8583V18.8663V18.8743V18.8823V18.8903V18.8983V18.9063V18.9143V18.9222V18.9302V18.9382V18.9461V18.9541V18.962V18.97V18.9779V18.9859V18.9938V19.0017V19.0096V19.0176V19.0255V19.0334V19.0413V19.0492V19.0571V19.0649V19.0728V19.0807V19.0886V19.0964V19.1043V19.1121V19.12V19.1278V19.1356V19.1435V19.1513V19.1591V19.1669V19.1747V19.1825V19.1903V19.1981V19.2059V19.2136V19.2214V19.2292V19.2369V19.2447V19.2524V19.2601V19.2679V19.2756V19.2833V19.291V19.2987V19.3064V19.3141V19.3217V19.3294V19.3371V19.3447V19.3524V19.36V19.3677V19.3753V19.3829V19.3905V19.3982V19.4058V19.4133V19.4209V19.4285V19.4361V19.4436V19.4512V19.4588V19.4663V19.4738V19.4814V19.4889V19.4964V19.5039V19.5114V19.5189V19.5263V19.5338V19.5413V19.5487V19.5562V19.5636V19.571V19.5785V19.5859V19.5933V19.6007V19.6081V19.6154V19.6228V19.6302V19.6375V19.6449V19.6522V19.6595V19.6669V19.6742V19.6815V19.6888V19.6961V19.7033V19.7106V19.7179V19.7251V19.7323V19.7396V19.7468V19.754V19.7612V19.7684V19.7756V19.7828V19.7899V19.7971V19.8042V19.8114V19.8185V19.8256V19.8327V19.8398V19.8469V19.854V19.8611V19.8681V19.8752V19.8822V19.8892V19.8962V19.9033V19.9103V19.9172V19.9242V19.9312V19.9382V19.9451V19.952V19.959V19.9659V19.9728V19.9797V19.9866V19.9934V20.0003C2 21.1053 2.89583 22 4 22H20C21.1046 22 22 21.1046 22 20V16C22 15.3984 21.7413 14.6291 21.0794 14.0162C20.4026 13.3896 19.3882 13 18 13C17.4477 13 17 13.4477 17 14C17 14.5523 17.4477 15 18 15C19.0118 15 19.4974 15.2771 19.7206 15.4838C19.9587 15.7043 20 15.9349 20 16V20H4V19.9934V19.9866V19.9797V19.9728V19.9659V19.959V19.952V19.9451V19.9382V19.9312V19.9242V19.9172V19.9103V19.9033V19.8962V19.8892V19.8822V19.8752V19.8681V19.8611V19.854V19.8469V19.8398V19.8327V19.8256V19.8185V19.8114V19.8042V19.7971V19.7899V19.7828V19.7756V19.7684V19.7612V19.754V19.7468V19.7396V19.7323V19.7251V19.7179V19.7106V19.7033V19.6961V19.6888V19.6815V19.6742V19.6669V19.6595V19.6522V19.6449V19.6375V19.6302V19.6228V19.6154V19.6081V19.6007V19.5933V19.5859V19.5785V19.571V19.5636V19.5562V19.5487V19.5413V19.5338V19.5263V19.5189V19.5114V19.5039V19.4964V19.4889V19.4814V19.4738V19.4663V19.4588V19.4512V19.4436V19.4361V19.4285V19.4209V19.4133V19.4058V19.3982V19.3905V19.3829V19.3753V19.3677V19.36V19.3524V19.3447V19.3371V19.3294V19.3217V19.3141V19.3064V19.2987V19.291V19.2833V19.2756V19.2679V19.2601V19.2524V19.2447V19.2369V19.2292V19.2214V19.2136V19.2059V19.1981V19.1903V19.1825V19.1747V19.1669V19.1591V19.1513V19.1435V19.1356V19.1278V19.12V19.1121V19.1043V19.0964V19.0886V19.0807V19.0728V19.0649V19.0571V19.0492V19.0413V19.0334V19.0255V19.0176V19.0096V19.0017V18.9938V18.9859V18.9779V18.97V18.962V18.9541V18.9461V18.9382V18.9302V18.9222V18.9143V18.9063V18.8983V18.8903V18.8823V18.8743V18.8663V18.8583V18.8503V18.8423V18.8342V18.8262V18.8182V18.8101V18.8021V18.7941V18.786V18.778V18.7699V18.7618V18.7538V18.7457V18.7376V18.7296V18.7215V18.7134V18.7053V18.6972V18.6891V18.681V18.6729V18.6648V18.6567V18.6486V18.6405V18.6324V18.6242V18.6161V18.608V18.5998V18.5917V18.5836V18.5754V18.5673V18.5591V18.551V18.5428V18.5347V18.5265V18.5184V18.5102V18.502V18.4939V18.4857V18.4775V18.4693V18.4611V18.453V18.4448V18.4366V18.4284V18.4202V18.412V18.4038V18.3956V18.3874V18.3792V18.371V18.3628V18.3546V18.3464V18.3381V18.3299V18.3217V18.3135V18.3053V18.297V18.2888V18.2806V18.2724V18.2641V18.2559V18.2477V18.2394V18.2312V18.223V18.2147V18.2065V18.1982V18.19V18.1818V18.1735V18.1653V18.157V18.1488V18.1405V18.1323V18.124V18.1158V18.1075V18.0993V18.091V18.0828V18.0745V18.0663V18.058V18.0498V18.0415V18.0332V18.025V18.0167V18.0085V18.0002V17.9919V17.9837V17.9754V17.9672V17.9589V17.9507V17.9424V17.9341V17.9259V17.9176V17.9094V17.9011V17.8928V17.8846V17.8763V17.8681V17.8598V17.8516V17.8433V17.8351V17.8268V17.8185V17.8103V17.802V17.7938V17.7855V17.7773V17.769V17.7608V17.7525V17.7443V17.7361V17.7278V17.7196V17.7113V17.7031V17.6949V17.6866V17.6784V17.6701V17.6619V17.6537V17.6454V17.6372V17.629V17.6208V17.6125V17.6043V17.5961V17.5879V17.5797V17.5714V17.5632V17.555V17.5468V17.5386V17.5304V17.5222V17.514V17.5058V17.4976V17.4894V17.4812V17.473V17.4648V17.4567V17.4485V17.4403V17.4321V17.4239V17.4158V17.4076V17.3994V17.3913V17.3831V17.3749V17.3668V17.3586V17.3505V17.3423V17.3342V17.3261V17.3179V17.3098V17.3017V17.2935V17.2854V17.2773V17.2692V17.2611V17.2529V17.2448V17.2367V17.2286V17.2205V17.2124V17.2044V17.1963V17.1882V17.1801V17.172V17.164V17.1559V17.1478V17.1398V17.1317V17.1237V17.1156V17.1076V17.0995V17.0915V17.0835V17.0755V17.0674V17.0594V17.0514V17.0434V17.0354V17.0274V17.0194V17.0114V17.0034V16.9955V16.9875V16.9795V16.9716V16.9636V16.9556V16.9477V16.9398V16.9318V16.9239V16.9159V16.908V16.9001V16.8922V16.8843V16.8764V16.8685V16.8606V16.8527V16.8448V16.837V16.8291V16.8212V16.8134V16.8055V16.7977V16.7898V16.782V16.7742V16.7663V16.7585V16.7507V16.7429V16.7351V16.7273V16.7195V16.7117V16.704V16.6962V16.6884V16.6807V16.6729V16.6652V16.6575V16.6497V16.642V16.6343V16.6266V16.6189V16.6112V16.6035V16.5958V16.5881V16.5805V16.5728V16.5652V16.5575V16.5499V16.5422V16.5346V16.527V16.5194V16.5118V16.5042V16.4966V16.489V16.4814V16.4739V16.4663V16.4587V16.4512V16.4437V16.4361V16.4286V16.4211V16.4136V16.4061V16.3986V16.3911V16.3837V16.3762V16.3687V16.3613V16.3538V16.3464V16.339V16.3316V16.3242V16.3168V16.3094V16.302V16.2946V16.2872V16.2799V16.2725V16.2652V16.2579V16.2505V16.2432V16.2359V16.2286V16.2213V16.214V16.2068V16.1995V16.1923V16.185V16.1778V16.1706V16.1633V16.1561V16.1489V16.1417V16.1346V16.1274V16.1202V16.1131V16.1059V16.0988V16.0917V16.0846V16.0775V16.0704V16.0633V16.0562V16.0492V16.0421V16.0351V16.028V16.021V16.014V16.007V16C4 15.7253 4.13141 15.5062 4.55773 15.3015C5.0073 15.0857 5.59742 15 6 15C6.55228 15 7 14.5523 7 14C7 13.4477 6.55228 13 6 13Z" fill="#4B4B4B"/>
</svg>
