<svg width="1366" height="200" viewBox="0 0 1366 200" fill="none" xmlns="http://www.w3.org/2000/svg">
<rect width="1366" height="200" fill="white"/>
<mask id="mask0" mask-type="alpha" maskUnits="userSpaceOnUse" x="0" y="0" width="1366" height="200">
<rect width="1366" height="200" fill="#EAF3FA"/>
</mask>
<g mask="url(#mask0)">
<path d="M-961.001 -243C-1287.66 -243 -1431.11 -39.9214 -1462 61.6179V243L2184 196.136C2104.84 122.368 1857.05 -24.4736 1499.11 -21.6964C1141.17 -18.9193 940.672 35.0036 885.167 61.6179C823.869 -5.49643 611.5 -139.031 252.402 -136.254C-106.696 -133.476 -328.719 -37.3179 -394.843 10.4143C-447.453 -74.0571 -634.338 -243 -961.001 -243Z" fill="#EAF3FA"/>
<ellipse cx="396.037" cy="54.0929" rx="6.03719" ry="6.0363" fill="#C6DEF3"/>
<ellipse cx="401.982" cy="47.0363" rx="6.03719" ry="6.0363" fill="#C6DEF3"/>
<ellipse cx="407.367" cy="54.0929" rx="6.03719" ry="6.0363" fill="#C6DEF3"/>
<path d="M400.216 68.0228C399.696 69.2115 398.699 69.6325 398.266 69.6944H405.417L403.746 68.0228C403.002 67.2799 403.188 62.0794 403.746 59.9435C404.191 58.2348 404.736 57.1885 404.953 56.8789L401.888 60.315L398.266 56.8789C398.451 57.2194 399.102 58.309 400.216 59.9435C401.609 61.9865 400.866 66.537 400.216 68.0228Z" fill="#C6DEF3"/>
<ellipse cx="1195.04" cy="123.095" rx="6.03719" ry="6.0363" fill="#C6DEF3"/>
<ellipse cx="1200.98" cy="116.036" rx="6.03719" ry="6.0363" fill="#C6DEF3"/>
<ellipse cx="1206.37" cy="123.095" rx="6.03719" ry="6.0363" fill="#C6DEF3"/>
<path d="M1199.22 137.025C1198.7 138.213 1197.7 138.634 1197.27 138.696H1204.42L1202.75 137.025C1202 136.282 1202.19 131.081 1202.75 128.945C1203.19 127.237 1203.74 126.19 1203.95 125.881L1200.89 129.317L1197.27 125.881C1197.45 126.221 1198.1 127.311 1199.22 128.945C1200.61 130.988 1199.87 135.539 1199.22 137.025Z" fill="#C6DEF3"/>
<path d="M-237.52 -9C-445.828 -9 -537.302 120.536 -557 185.304V301L1768 271.107C1717.52 224.054 1559.51 130.389 1331.25 132.161C1103 133.932 975.149 168.327 939.753 185.304C900.665 142.494 765.24 57.3179 536.249 59.0893C307.257 60.8607 165.677 122.196 123.51 152.643C89.9619 98.7619 -29.212 -9 -237.52 -9Z" fill="#C6DEF3"/>
<ellipse cx="585.16" cy="102.203" rx="11.1596" ry="11.158" fill="#90C0EA"/>
<ellipse cx="596.148" cy="89.158" rx="11.1596" ry="11.158" fill="#90C0EA"/>
<ellipse cx="606.105" cy="102.203" rx="11.1596" ry="11.158" fill="#90C0EA"/>
<path d="M592.885 127.955C591.923 130.152 590.08 130.93 589.279 131.045H602.499L599.409 127.955C598.035 126.581 598.379 116.968 599.409 113.02C600.233 109.862 601.24 107.928 601.641 107.355L595.975 113.707L589.279 107.355C589.623 107.985 590.824 109.999 592.885 113.02C595.46 116.797 594.087 125.208 592.885 127.955Z" fill="#90C0EA"/>
<path d="M85.3662 82C-23.7604 82 -71.6807 150.111 -82 184.166V245L1136 229.282C1109.56 204.541 1026.78 155.292 907.202 156.223C787.627 157.155 720.648 175.24 702.106 184.166C681.628 161.657 610.683 116.87 490.721 117.802C370.759 118.733 296.589 150.984 274.5 166.993C256.925 138.662 194.493 82 85.3662 82Z" fill="#90C0EA"/>
<path d="M911.658 145.18C910.556 145.921 906.586 148.964 905.104 149.081C903.621 149.198 872.978 132.065 868.267 127.267C863.557 122.469 855.345 113.42 853.901 113.42C852.458 113.42 851.736 115.185 851.736 116.56C851.736 126.253 899.525 171.168 909.6 171.168C912.584 171.168 921.303 166.087 922.279 164.517C923.254 162.947 911.658 145.18 911.658 145.18Z" fill="#CFB293"/>
<path d="M980.415 189.637C985.028 195.293 990.168 255.147 989.192 282.519C991.572 286.283 1018.95 365.025 1018.95 367.804C1018.95 370.584 1011.81 374.153 1010.02 373.363C1008.24 372.573 952.093 280.725 951.107 275.176C950.122 269.627 980.415 189.637 980.415 189.637Z" fill="#042039"/>
<path d="M943.852 182.715C942.877 185.387 908.635 372.867 908.635 375.373C910.137 378.63 921.001 380.249 923.683 378.679C926.365 377.109 949.889 293.14 951.606 289.697C953.322 286.255 998.156 218.405 979.889 185.455C977.548 181.34 943.852 182.715 943.852 182.715Z" fill="#CE8BC0"/>
<path d="M1000.34 162.382C1000.48 158.257 977.81 106.263 964.838 106.263C963.132 99.6025 956.568 99.8073 954.11 99.8073C941.675 99.8073 936.282 110.31 934.663 124.04C928.812 128.584 909.93 142.489 909.618 145.093C909.257 148.086 915.723 164.498 922.297 166.887C925.905 168.243 932.166 157.136 935.687 155.078C938.057 171.656 942.173 186.156 943.928 187.043C953.272 191.802 979.926 188.76 980.784 187.755C981.643 186.751 979.926 179.349 979.643 176.502C981.662 172.797 1000.19 166.517 1000.34 162.382Z" fill="#CE8BC0"/>
<path d="M931.718 75.539C930.557 75.4317 926.676 70.6048 928.743 59.8002C931.25 56.5238 939.549 55.4804 939.793 59.2054C940.037 62.9304 935.248 75.8413 931.718 75.539Z" fill="#042039"/>
<path d="M949.06 105.231C949.353 107.357 961.124 105.913 960.812 103.612L958.862 89.3359L947.158 90.9449L949.06 105.231Z" fill="#CFB293"/>
<path d="M960.022 97.8667C959.846 96.5893 956.335 92.6107 954.17 93.6541C956.803 92.3084 957.71 88.7784 958.822 89.3342L960.022 97.8667Z" fill="#042039"/>
<path d="M946.329 95.8203C954.834 95.8203 961.729 88.9266 961.729 80.4228C961.729 71.9191 954.834 65.0254 946.329 65.0254C937.824 65.0254 930.93 71.9191 930.93 80.4228C930.93 88.9266 937.824 95.8203 946.329 95.8203Z" fill="#CFB293"/>
<path d="M931.362 85.9065C932.77 85.7131 933.831 84.9636 933.731 84.2325C933.63 83.5015 932.407 83.0657 930.998 83.2591C929.589 83.4526 928.529 84.202 928.629 84.9331C928.73 85.6641 929.953 86.1 931.362 85.9065Z" fill="#AA8053"/>
<path d="M947.368 83.7112C948.776 83.5178 949.837 82.7683 949.737 82.0372C949.636 81.3062 948.413 80.8703 947.004 81.0638C945.595 81.2572 944.535 82.0067 944.635 82.7378C944.735 83.4688 945.959 83.9047 947.368 83.7112Z" fill="#AA8053"/>
<path d="M937.015 80.9785C936.634 81.7295 934.577 84.8796 937.317 85.7184" stroke="#042039" stroke-width="0.69" stroke-miterlimit="10" stroke-linecap="round"/>
<path d="M942.904 88.339C943.915 87.9274 944.74 87.1609 945.225 86.1836" stroke="#042039" stroke-width="0.69" stroke-miterlimit="10" stroke-linecap="round"/>
<path d="M951.926 47.2277C972.31 47.2277 986.939 50.5822 996.477 50.5822C1011.16 50.5822 1022.74 44 1039.2 44C1046.7 44 1065.9 50.3677 1065.9 71.9377C1065.9 84.1562 1059.07 108.437 1029.89 108.437C1004.89 108.437 1000.53 97.8667 990.401 97.8667C979.722 97.8667 959.856 102.898 956.51 89.2757C955.779 85.658 954.96 81.2211 952.951 77.5741C941.803 73.6735 938.185 74.0245 932.908 70.9139C925.282 67.2863 924.921 47.2277 951.926 47.2277Z" fill="#042039"/>
<path d="M955.73 83.2606C957.604 83.2606 959.124 81.7411 959.124 79.8666C959.124 77.9922 957.604 76.4727 955.73 76.4727C953.855 76.4727 952.336 77.9922 952.336 79.8666C952.336 81.7411 953.855 83.2606 955.73 83.2606Z" fill="#CFB293"/>
<path d="M979.547 176.714C978.844 177.357 976.621 180.517 975.86 179.698C975.099 178.879 947.713 115.338 956.696 109.039" stroke="#042039" stroke-width="0.55" stroke-miterlimit="10" stroke-linecap="round"/>
<path d="M935.709 155.08C935.339 153.003 933.466 130.847 934.666 124.041" stroke="#042039" stroke-width="0.55" stroke-miterlimit="10" stroke-linecap="round"/>
<path d="M999.083 162.109C999.903 163.504 1009.93 218.18 1011.96 222.5C1013.54 225.637 1015.51 228.568 1017.81 231.227C1020.87 235.459 1018.21 243.153 1016.32 243.592C1014.42 244.031 1009.23 242.724 1004.32 233.431C1003.06 231.052 1003.97 224.967 1002.64 223.387C1001.32 221.807 979.188 181.242 978.836 174.893C978.485 168.545 999.083 162.109 999.083 162.109Z" fill="#CFB293"/>
<path d="M851.92 104.041L850 104.932L858.011 122.187L859.93 121.296L851.92 104.041Z" fill="#042039"/>
</g>
<path d="M829.488 106.043C829.645 106.187 829.807 106.327 829.973 106.461C830.905 107.213 830.437 109.865 829.248 109.732C825.215 109.281 820.865 108.219 817.602 106.043C815.722 104.791 814.335 103.628 813.325 102.586C811.393 100.593 807.999 97.6377 805.223 97.6377H770C767.791 97.6377 766 95.8468 766 93.6377V37C766 34.7909 767.791 33 770 33H832.445C834.654 33 836.445 34.7909 836.445 37V93.6377C836.445 95.8468 834.654 97.6377 832.445 97.6377H829.827C827.014 97.6377 825.158 100.454 826.74 102.78C827.535 103.949 828.461 105.103 829.488 106.043Z" fill="#FAD897"/>
<path d="M809.352 68.7446L815.348 58.3613L819.71 60.8791L813.714 71.2624L813.252 68.2266L809.352 68.7446Z" fill="#F2A922"/>
<path d="M826.904 68.7446L820.909 58.3613L816.547 60.8791L822.543 71.2624L823.005 68.2266L826.904 68.7446Z" fill="#F2A922"/>
<path d="M817.471 39.8073C817.774 39.1707 818.68 39.1707 818.983 39.8073C819.243 40.355 819.982 40.4522 820.375 39.9906C820.833 39.4542 821.708 39.6886 821.836 40.3817C821.945 40.9783 822.634 41.2633 823.133 40.9193C823.714 40.5195 824.498 40.9723 824.442 41.6749C824.394 42.2796 824.985 42.733 825.557 42.53C826.221 42.2941 826.862 42.9345 826.626 43.5987C826.423 44.1702 826.876 44.7612 827.481 44.713C828.184 44.657 828.637 45.4415 828.237 46.0219C827.893 46.5214 828.178 47.2096 828.774 47.3196C829.467 47.4473 829.702 48.3223 829.166 48.7794C828.704 49.1728 828.801 49.9114 829.349 50.172C829.985 50.4747 829.985 51.3806 829.349 51.6834C828.801 51.9439 828.704 52.6825 829.166 53.0759C829.702 53.5331 829.467 54.4081 828.774 54.5358C828.178 54.6457 827.893 55.3339 828.237 55.8334C828.637 56.4139 828.184 57.1983 827.481 57.1423C826.876 57.0941 826.423 57.6851 826.626 58.2567C826.862 58.9208 826.221 59.5612 825.557 59.3253C824.985 59.1223 824.394 59.5757 824.442 60.1804C824.498 60.883 823.714 61.3358 823.133 60.9361C822.634 60.592 821.945 60.877 821.836 61.4736C821.708 62.1668 820.833 62.4012 820.375 61.8648C819.982 61.4031 819.243 61.5003 818.983 62.0481C818.68 62.6846 817.774 62.6846 817.471 62.0481C817.21 61.5003 816.472 61.4031 816.078 61.8648C815.621 62.4012 814.746 62.1668 814.618 61.4736C814.508 60.877 813.82 60.592 813.32 60.9361C812.74 61.3358 811.955 60.883 812.011 60.1804C812.06 59.5757 811.468 59.1223 810.897 59.3253C810.233 59.5612 809.592 58.9208 809.828 58.2567C810.031 57.6851 809.577 57.0941 808.973 57.1423C808.27 57.1983 807.817 56.4139 808.217 55.8334C808.561 55.3339 808.276 54.6457 807.679 54.5358C806.986 54.4081 806.752 53.5331 807.288 53.0759C807.75 52.6825 807.653 51.9439 807.105 51.6834C806.468 51.3806 806.468 50.4747 807.105 50.172C807.653 49.9114 807.75 49.1728 807.288 48.7794C806.752 48.3223 806.986 47.4473 807.679 47.3196C808.276 47.2096 808.561 46.5214 808.217 46.0219C807.817 45.4415 808.27 44.657 808.973 44.713C809.577 44.7612 810.031 44.1702 809.828 43.5987C809.592 42.9345 810.233 42.2941 810.897 42.53C811.468 42.733 812.06 42.2796 812.011 41.6749C811.955 40.9723 812.74 40.5195 813.32 40.9193C813.82 41.2633 814.508 40.9783 814.618 40.3817C814.746 39.6886 815.621 39.4542 816.078 39.9906C816.472 40.4522 817.21 40.355 817.471 39.8073Z" fill="url(#paint0_linear)"/>
<ellipse cx="818.225" cy="50.9281" rx="7.62646" ry="7.62535" fill="#FAD897"/>
<path d="M816.649 52.5352H814.081L813.592 54H812.035L814.681 46.8906H816.039L818.7 54H817.142L816.649 52.5352ZM814.476 51.3486H816.253L815.36 48.6875L814.476 51.3486ZM822.118 50.0205H823.88V51.2949H822.118V53.2871H820.775V51.2949H819.007V50.0205H820.775V48.1113H822.118V50.0205Z" fill="#6B4603"/>
<line x1="773.799" y1="44.332" x2="799.948" y2="44.332" stroke="#F8BD4F" stroke-width="4" stroke-linecap="round"/>
<line x1="773.799" y1="54.7676" x2="799.948" y2="54.7676" stroke="#F8BD4F" stroke-width="4" stroke-linecap="round"/>
<line x1="773.799" y1="66.9414" x2="799.948" y2="66.9414" stroke="#F8BD4F" stroke-width="4" stroke-linecap="round"/>
<line x1="773.799" y1="78.5352" x2="827.199" y2="78.5352" stroke="#F8BD4F" stroke-width="4" stroke-linecap="round"/>
<line x1="773.799" y1="87.8105" x2="827.199" y2="87.8105" stroke="#F8BD4F" stroke-width="4" stroke-linecap="round"/>
<path d="M93.248 118L81.152 83.824H87.44L96.8 111.904H95.072L104.864 83.824L109.28 83.872L118.784 111.904H117.152L126.704 83.824H132.608L120.56 118H115.52L106.352 91.792H107.504L98.24 118H93.248ZM137.029 118V93.76H143.029V118H137.029ZM136.741 82.768H143.413V88.672H136.741V82.768ZM158.425 118.336C154.009 118.336 150.521 117.328 147.961 115.312L149.641 111.088C150.921 112.048 152.313 112.768 153.817 113.248C155.321 113.728 156.889 113.968 158.521 113.968C159.993 113.968 161.113 113.728 161.881 113.248C162.649 112.768 163.033 112.096 163.033 111.232C163.033 110.496 162.761 109.92 162.217 109.504C161.673 109.056 160.745 108.672 159.433 108.352L155.401 107.44C153.193 106.96 151.529 106.16 150.409 105.04C149.321 103.888 148.777 102.432 148.777 100.672C148.777 99.2 149.193 97.904 150.025 96.784C150.857 95.632 152.025 94.736 153.529 94.096C155.033 93.456 156.777 93.136 158.761 93.136C160.489 93.136 162.153 93.408 163.753 93.952C165.353 94.464 166.745 95.216 167.929 96.208L166.201 100.336C164.985 99.408 163.737 98.72 162.457 98.272C161.209 97.824 159.961 97.6 158.713 97.6C157.337 97.6 156.265 97.856 155.497 98.368C154.729 98.88 154.345 99.584 154.345 100.48C154.345 101.184 154.569 101.744 155.017 102.16C155.497 102.576 156.313 102.912 157.465 103.168L161.545 104.176C163.945 104.688 165.689 105.52 166.777 106.672C167.897 107.792 168.457 109.28 168.457 111.136C168.457 113.344 167.561 115.104 165.769 116.416C163.977 117.696 161.529 118.336 158.425 118.336ZM194.376 115.312C193.224 116.272 191.8 117.024 190.104 117.568C188.44 118.08 186.744 118.336 185.016 118.336C182.392 118.336 180.12 117.84 178.2 116.848C176.312 115.856 174.856 114.416 173.832 112.528C172.808 110.64 172.296 108.4 172.296 105.808C172.296 103.312 172.792 101.12 173.784 99.232C174.776 97.312 176.152 95.824 177.912 94.768C179.672 93.68 181.704 93.136 184.008 93.136C186.248 93.136 188.168 93.632 189.768 94.624C191.368 95.584 192.6 96.976 193.464 98.8C194.36 100.624 194.808 102.784 194.808 105.28V106.192H177.576L177.624 102.976H191.256L189.624 104.608C189.656 102.272 189.192 100.496 188.232 99.28C187.304 98.064 185.944 97.456 184.152 97.456C182.232 97.456 180.744 98.144 179.688 99.52C178.632 100.864 178.104 102.8 178.104 105.328C178.104 108.208 178.696 110.336 179.88 111.712C181.064 113.056 182.856 113.728 185.256 113.728C186.568 113.728 187.848 113.52 189.096 113.104C190.376 112.656 191.56 112.016 192.648 111.184L194.376 115.312ZM214.433 118.384C209.729 118.384 206.161 117.184 203.729 114.784C201.329 112.384 200.129 108.848 200.129 104.176V83.824H206.177V104.512C206.177 107.456 206.865 109.696 208.241 111.232C209.649 112.736 211.713 113.488 214.433 113.488C217.057 113.488 219.057 112.72 220.433 111.184C221.841 109.648 222.545 107.424 222.545 104.512V83.824H228.689V104.176C228.689 108.816 227.457 112.352 224.993 114.784C222.561 117.184 219.041 118.384 214.433 118.384ZM235.372 128.368V100.624C235.372 99.504 235.34 98.368 235.276 97.216C235.244 96.032 235.148 94.88 234.988 93.76H240.652L241.18 98.56L240.844 98.848C241.356 97.056 242.364 95.664 243.868 94.672C245.372 93.648 247.148 93.136 249.196 93.136C251.308 93.136 253.164 93.68 254.764 94.768C256.396 95.824 257.676 97.312 258.604 99.232C259.532 101.12 259.996 103.344 259.996 105.904C259.996 108.432 259.532 110.64 258.604 112.528C257.676 114.384 256.412 115.824 254.812 116.848C253.212 117.84 251.34 118.336 249.196 118.336C247.148 118.336 245.372 117.856 243.868 116.896C242.364 115.904 241.356 114.512 240.844 112.72L241.372 111.952V128.368H235.372ZM247.66 113.728C249.644 113.728 251.18 113.056 252.268 111.712C253.356 110.336 253.9 108.4 253.9 105.904C253.9 103.344 253.356 101.36 252.268 99.952C251.18 98.544 249.644 97.84 247.66 97.84C245.612 97.84 244.044 98.528 242.956 99.904C241.9 101.248 241.372 103.216 241.372 105.808C241.372 108.336 241.9 110.288 242.956 111.664C244.044 113.04 245.612 113.728 247.66 113.728ZM290.358 118.384C288.598 118.384 286.918 118.24 285.318 117.952C283.718 117.632 282.214 117.168 280.806 116.56C279.43 115.952 278.214 115.216 277.158 114.352L279.222 109.84C280.95 111.12 282.71 112.048 284.502 112.624C286.294 113.2 288.262 113.488 290.406 113.488C292.774 113.488 294.598 113.072 295.878 112.24C297.19 111.408 297.846 110.24 297.846 108.736C297.846 107.84 297.558 107.104 296.982 106.528C296.406 105.92 295.542 105.408 294.39 104.992C293.238 104.576 291.814 104.176 290.118 103.792C288.102 103.408 286.326 102.944 284.79 102.4C283.254 101.824 281.974 101.152 280.95 100.384C279.926 99.616 279.142 98.704 278.598 97.648C278.086 96.56 277.83 95.28 277.83 93.808C277.83 91.792 278.374 90 279.462 88.432C280.55 86.864 282.07 85.648 284.022 84.784C286.006 83.888 288.326 83.44 290.982 83.44C292.582 83.44 294.134 83.6 295.638 83.92C297.174 84.24 298.582 84.704 299.862 85.312C301.142 85.888 302.246 86.608 303.174 87.472L301.062 91.984C299.526 90.736 297.926 89.824 296.262 89.248C294.598 88.64 292.854 88.336 291.03 88.336C288.822 88.336 287.078 88.784 285.798 89.68C284.518 90.576 283.878 91.824 283.878 93.424C283.878 94.352 284.134 95.12 284.646 95.728C285.19 96.336 286.006 96.848 287.094 97.264C288.214 97.68 289.638 98.096 291.366 98.512C293.35 98.928 295.11 99.408 296.646 99.952C298.214 100.496 299.542 101.152 300.63 101.92C301.718 102.656 302.534 103.552 303.078 104.608C303.654 105.632 303.942 106.864 303.942 108.304C303.942 110.352 303.398 112.144 302.31 113.68C301.222 115.184 299.654 116.352 297.606 117.184C295.59 117.984 293.174 118.384 290.358 118.384ZM325.231 118.384C321.839 118.384 318.895 117.68 316.399 116.272C313.903 114.832 311.983 112.8 310.639 110.176C309.327 107.552 308.671 104.448 308.671 100.864C308.671 97.312 309.327 94.24 310.639 91.648C311.983 89.024 313.903 87.008 316.399 85.6C318.895 84.16 321.839 83.44 325.231 83.44C327.535 83.44 329.695 83.792 331.711 84.496C333.759 85.168 335.455 86.16 336.799 87.472L334.783 91.984C333.215 90.736 331.679 89.84 330.175 89.296C328.671 88.72 327.055 88.432 325.327 88.432C322.031 88.432 319.471 89.504 317.647 91.648C315.855 93.76 314.959 96.832 314.959 100.864C314.959 104.896 315.855 108 317.647 110.176C319.471 112.32 322.031 113.392 325.327 113.392C327.055 113.392 328.671 113.12 330.175 112.576C331.679 112 333.215 111.088 334.783 109.84L336.799 114.352C335.455 115.664 333.759 116.672 331.711 117.376C329.695 118.048 327.535 118.384 325.231 118.384ZM357.052 118.384C353.724 118.384 350.844 117.68 348.412 116.272C345.98 114.864 344.108 112.848 342.796 110.224C341.484 107.6 340.828 104.496 340.828 100.912C340.828 97.296 341.484 94.192 342.796 91.6C344.108 88.976 345.98 86.96 348.412 85.552C350.844 84.144 353.724 83.44 357.052 83.44C360.412 83.44 363.308 84.144 365.74 85.552C368.172 86.96 370.044 88.976 371.356 91.6C372.668 94.192 373.324 97.28 373.324 100.864C373.324 104.48 372.652 107.6 371.308 110.224C369.996 112.848 368.124 114.864 365.692 116.272C363.292 117.68 360.412 118.384 357.052 118.384ZM357.052 113.488C360.188 113.488 362.652 112.416 364.444 110.272C366.236 108.096 367.132 104.96 367.132 100.864C367.132 96.768 366.236 93.664 364.444 91.552C362.652 89.408 360.188 88.336 357.052 88.336C353.948 88.336 351.5 89.408 349.708 91.552C347.916 93.664 347.02 96.768 347.02 100.864C347.02 104.96 347.916 108.096 349.708 110.272C351.5 112.416 353.948 113.488 357.052 113.488ZM379.665 118V83.824H394.305C398.177 83.824 401.121 84.672 403.137 86.368C405.153 88.064 406.161 90.496 406.161 93.664C406.161 96.672 405.121 99.072 403.041 100.864C400.961 102.624 398.065 103.504 394.353 103.504L398.193 102.736C399.377 102.736 400.433 103.088 401.361 103.792C402.289 104.496 403.025 105.584 403.569 107.056L407.793 118H401.265L396.945 106.624C396.497 105.504 395.857 104.752 395.025 104.368C394.225 103.984 393.217 103.792 392.001 103.792H385.761V118H379.665ZM385.713 98.992H393.441C395.809 98.992 397.537 98.56 398.625 97.696C399.713 96.832 400.257 95.536 400.257 93.808C400.257 92.048 399.713 90.752 398.625 89.92C397.537 89.088 395.809 88.672 393.441 88.672H385.713V98.992ZM413.368 118V83.824H436.216V88.672H419.416V98.176H435.256V103.072H419.416V113.152H436.216V118H413.368ZM457.325 118.384C453.933 118.384 450.989 117.68 448.493 116.272C445.997 114.832 444.077 112.8 442.733 110.176C441.421 107.552 440.765 104.448 440.765 100.864C440.765 97.312 441.421 94.24 442.733 91.648C444.077 89.024 445.997 87.008 448.493 85.6C450.989 84.16 453.933 83.44 457.325 83.44C459.629 83.44 461.789 83.792 463.805 84.496C465.853 85.168 467.549 86.16 468.893 87.472L466.877 91.984C465.309 90.736 463.773 89.84 462.269 89.296C460.765 88.72 459.149 88.432 457.421 88.432C454.125 88.432 451.565 89.504 449.741 91.648C447.949 93.76 447.053 96.832 447.053 100.864C447.053 104.896 447.949 108 449.741 110.176C451.565 112.32 454.125 113.392 457.421 113.392C459.149 113.392 460.765 113.12 462.269 112.576C463.773 112 465.309 111.088 466.877 109.84L468.893 114.352C467.549 115.664 465.853 116.672 463.805 117.376C461.789 118.048 459.629 118.384 457.325 118.384ZM476.568 118H470.328L485.784 83.824H490.824L506.28 118H500.136L487.56 88.624H489.24L476.568 118ZM477.144 109.984L479.496 105.184H496.92L499.176 109.984H477.144ZM509.977 118V83.824H524.617C528.489 83.824 531.433 84.672 533.449 86.368C535.465 88.064 536.473 90.496 536.473 93.664C536.473 96.672 535.433 99.072 533.353 100.864C531.273 102.624 528.377 103.504 524.665 103.504L528.505 102.736C529.689 102.736 530.745 103.088 531.673 103.792C532.601 104.496 533.337 105.584 533.881 107.056L538.105 118H531.577L527.257 106.624C526.809 105.504 526.169 104.752 525.337 104.368C524.537 103.984 523.529 103.792 522.313 103.792H516.073V118H509.977ZM516.025 98.992H523.753C526.121 98.992 527.849 98.56 528.937 97.696C530.025 96.832 530.569 95.536 530.569 93.808C530.569 92.048 530.025 90.752 528.937 89.92C527.849 89.088 526.121 88.672 523.753 88.672H516.025V98.992ZM543.68 118V83.824H556.256C560 83.824 563.184 84.496 565.808 85.84C568.432 87.184 570.432 89.136 571.808 91.696C573.216 94.224 573.92 97.28 573.92 100.864C573.92 104.48 573.216 107.568 571.808 110.128C570.432 112.688 568.416 114.64 565.76 115.984C563.136 117.328 559.968 118 556.256 118H543.68ZM549.872 112.96H555.872C559.808 112.96 562.752 111.952 564.704 109.936C566.688 107.92 567.68 104.896 567.68 100.864C567.68 92.864 563.744 88.864 555.872 88.864H549.872V112.96Z" fill="#111111"/>
<defs>
<linearGradient id="paint0_linear" x1="818.227" y1="38.2188" x2="818.227" y2="63.6366" gradientUnits="userSpaceOnUse">
<stop stop-color="#F8BD4F"/>
<stop offset="1" stop-color="#F2A922"/>
</linearGradient>
</defs>
</svg>
