<svg width="235" height="824" viewBox="0 0 235 824" fill="none" xmlns="http://www.w3.org/2000/svg">
<rect width="235" height="824" rx="20" fill="#DFF6F5"/>
<path d="M181.503 499.417C181.337 498.581 171.188 447.595 171.076 447.071C169.857 441.17 166.555 436.649 161.708 433.736C158.802 431.984 157.152 431.704 155.268 431.125C156.593 431.588 130.981 422.637 120.66 419.03C118.618 418.329 117.246 416.409 117.246 414.249V403.652C103.99 410.28 90.0898 409.861 77.7517 403.84V414.249C77.7517 416.409 76.3796 418.33 74.3371 419.03C72.8824 419.529 79.6064 417.223 60.1105 423.908H60.0971C60.0975 423.909 60.0985 423.911 60.0985 423.911L60.0971 423.913L39.7436 431.125C38.804 431.403 36.9479 431.95 37.066 431.915C32.224 433.721 28.0253 437.151 25.6726 441.946C24.044 445.249 24.5271 444.089 16.624 483.762C13.6976 498.916 13.0515 500.02 13.4175 503.405C14.436 512.869 24.1699 511.881 24.4335 511.996C43.0974 511.996 99.3392 511.996 97.5679 511.996C97.7641 511.996 106.175 511.996 105.652 511.996C118.649 511.996 164.724 511.996 170.576 511.996C170.68 511.961 183.413 512.93 181.503 499.417Z" fill="#60D7D4"/>
<path d="M25.3946 499.416L35.8212 442.316C35.6768 443.009 36.5952 434.678 44.4333 429.463C35.6796 432.564 38.3927 431.323 35.7017 432.477C30.622 434.771 26.6827 438.669 24.7402 444.161C23.9631 446.367 24.467 444.428 16.6243 483.761C13.698 498.915 13.0523 500.02 13.4178 503.404C14.4364 512.868 24.1703 511.88 24.4338 511.995C25.594 511.995 34.889 511.995 36.321 511.995C27.9338 511.996 24.3096 507.091 25.3946 499.416Z" fill="#39BCBA"/>
<path d="M45.9477 511.996C39.1604 511.996 31.3427 511.996 24.4336 511.996C24.1581 511.875 13.0632 512.99 13.3406 501.424C13.401 498.957 13.7098 498.854 16.6241 483.761L16.7926 482.915H45.9477V511.996Z" fill="#E5D6C6"/>
<path d="M28.408 482.916H16.793L16.6245 483.761C13.6996 498.906 13.4014 498.954 13.341 501.424C13.0646 512.951 24.2153 511.9 24.434 511.996C25.5942 511.996 34.8892 511.996 36.3213 511.996C28.5963 511.996 25.0723 507.932 25.2283 501.424C25.2467 500.668 25.5282 499.088 28.408 482.916Z" fill="#CFB293"/>
<path d="M77.7515 402.012C77.7515 431.573 77.7515 398.644 77.7519 421.928H77.7644V422.639C77.7644 427.369 80.7854 431.573 85.2702 433.075C92.4677 435.485 101.709 435.76 109.726 433.075C114.212 431.573 117.232 427.37 117.232 422.639V421.928H117.245C117.245 417.295 117.245 404.49 117.245 402.012C104.45 408.834 90.0222 408.555 77.7515 402.012Z" fill="#E5D6C6"/>
<path d="M89.6549 425.88H89.6396C89.6387 401.13 89.6392 409.377 89.6387 407.648C85.536 406.826 81.5353 405.414 77.7515 403.396C77.7515 432.958 77.7515 398.644 77.7519 421.928H77.7644V422.639C77.7644 427.369 80.7853 431.573 85.2702 433.075C87.4881 433.818 89.8302 434.354 92.2619 434.665C89.2391 430.56 89.701 426.194 89.6549 425.88Z" fill="#CFB293"/>
<path d="M45.9478 471.25C43.9781 471.25 42.3813 472.847 42.3813 474.817V511.996C44.855 511.996 46.8588 511.996 49.5138 511.996V474.817C49.5143 472.847 47.9175 471.25 45.9478 471.25Z" fill="#60D7D4"/>
<path d="M212.953 511.996H97.4982C92.6811 511.996 88.7759 508.09 88.7759 503.273C88.7759 500.513 91.0141 498.274 93.7748 498.274H216.677C219.437 498.274 221.676 500.513 221.676 503.273C221.676 508.09 217.77 511.996 212.953 511.996Z" fill="#727272"/>
<path d="M111.243 503.273C111.243 500.513 113.481 498.274 116.241 498.274H93.7748C91.0141 498.274 88.7759 500.513 88.7759 503.273V503.274C88.7759 508.091 92.6811 511.996 97.4982 511.996H119.964C115.147 511.996 111.243 508.09 111.243 503.273Z" fill="#4B4B4B"/>
<path d="M205.391 421.927H105.061C101.923 421.927 99.355 424.495 99.355 427.633V492.568C99.355 495.707 101.923 498.274 105.061 498.274H205.391C208.529 498.274 211.097 495.707 211.097 492.568V427.633C211.097 424.495 208.529 421.927 205.391 421.927Z" fill="#727272"/>
<path d="M111.243 492.568V427.633C111.243 424.495 113.81 421.927 116.949 421.927H105.061C101.923 421.927 99.3555 424.495 99.3555 427.633V492.568C99.3555 495.707 101.923 498.274 105.061 498.274H116.949C113.81 498.274 111.243 495.707 111.243 492.568Z" fill="#4B4B4B"/>
<path d="M155.228 468.342C159.78 468.342 163.47 464.652 163.47 460.1C163.47 455.548 159.78 451.858 155.228 451.858C150.676 451.858 146.986 455.548 146.986 460.1C146.986 464.652 150.676 468.342 155.228 468.342Z" fill="#4B4B4B"/>
<path d="M155.229 451.866C148.945 451.856 144.897 458.696 148.088 464.222C151.28 469.751 159.227 469.66 162.36 464.216C156.02 464.207 152.062 457.37 155.229 451.866Z" fill="#A3A3A3"/>
<path d="M97.6748 312.042C74.7224 312.129 55.3447 330.867 55.3447 354.672V370.828H140.617C140.617 355.518 140.617 360.355 140.617 346.658C140.617 330.15 130.46 326.347 130.46 326.347C117.829 310.773 97.6917 312.042 97.6917 312.042" fill="#0C3559"/>
<path d="M103.435 312.296C77.4218 309.335 56.2534 328.969 55.3809 352.992C55.3137 354.719 55.3589 354.073 55.3447 370.828H65.5013V354.672C65.5013 332.619 82.1951 314.628 103.435 312.296Z" fill="#042039"/>
<path d="M65.8461 365.755C60.4983 363.849 54.6929 367.393 54.6929 372.563C54.6929 377.733 60.4976 381.278 65.8461 379.372V365.755Z" fill="#E5D6C6"/>
<path d="M130.115 365.755C135.463 363.849 141.268 367.393 141.268 372.563C141.268 377.733 135.464 381.278 130.115 379.372V365.755Z" fill="#E5D6C6"/>
<path d="M55.4738 369.433C52.3498 375.363 58.927 381.838 65.8459 379.373V373.111C61.8109 374.548 57.2994 372.899 55.4738 369.433Z" fill="#CFB293"/>
<path d="M130.115 373.111V379.373C137.034 381.838 143.611 375.363 140.487 369.433C139.181 371.913 134.152 374.549 130.115 373.111Z" fill="#CFB293"/>
<path d="M128.995 352.263C129.823 352.343 130.46 353.03 130.46 353.862C130.46 381.208 130.478 379.143 130.414 380.414C129.993 388.732 126.436 396.369 120.65 402.013C100.377 421.78 66.5465 407.762 65.5288 380.034C65.4812 378.812 65.5012 364.649 65.5012 364.689C65.5012 358.32 71.1529 353.462 77.4559 354.372C87.3828 355.804 101.873 355.248 114.516 344.44C115.815 343.33 117.787 343.689 118.617 345.183C120.183 348.004 123.298 351.713 128.995 352.263Z" fill="#E5D6C6"/>
<path d="M74.4159 380.035C74.3752 378.986 74.3838 359.8 74.3873 354.38C69.4295 355.124 65.5017 359.381 65.5017 364.689C65.5017 364.649 65.4817 378.812 65.5293 380.035C66.2793 400.478 84.8674 413.466 102.707 410.958C88.0592 408.932 75.0411 397.074 74.4159 380.035Z" fill="#CFB293"/>
</svg>
