<svg width="1214" height="160" viewBox="0 0 1214 160" fill="none" xmlns="http://www.w3.org/2000/svg">
<rect width="1214" height="160" rx="12" fill="#E5E9F6"/>
<path d="M394 29.4783L395.835 27.5C399.088 23.9921 404.638 23.9921 407.891 27.5V27.5C411.144 31.0079 416.694 31.0079 419.947 27.5V27.5C423.2 23.9921 428.75 23.9921 432.004 27.5V27.5C435.257 31.0079 440.807 31.0079 444.06 27.5V27.5C447.313 23.9921 452.863 23.9921 456.116 27.5V27.5C459.369 31.0079 464.919 31.0079 468.172 27.5V27.5C471.426 23.9921 476.975 23.9921 480.229 27.5V27.5C483.482 31.0079 489.032 31.0079 492.285 27.5V27.5C495.538 23.9921 501.088 23.9921 504.341 27.5V27.5C507.595 31.0079 513.144 31.0079 516.398 27.5V27.5C519.651 23.9921 525.201 23.9921 528.454 27.5V27.5C531.707 31.0079 537.257 31.0079 540.51 27.5L543 24.8152" stroke="#596FC7"/>
<path d="M394 37.4783L395.835 35.5C399.088 31.9921 404.638 31.9921 407.891 35.5V35.5C411.144 39.0079 416.694 39.0079 419.947 35.5V35.5C423.2 31.9921 428.75 31.9921 432.004 35.5V35.5C435.257 39.0079 440.807 39.0079 444.06 35.5V35.5C447.313 31.9921 452.863 31.9921 456.116 35.5V35.5C459.369 39.0079 464.919 39.0079 468.172 35.5V35.5C471.426 31.9921 476.975 31.9921 480.229 35.5V35.5C483.482 39.0079 489.032 39.0079 492.285 35.5V35.5C495.538 31.9921 501.088 31.9921 504.341 35.5V35.5C507.595 39.0079 513.144 39.0079 516.398 35.5V35.5C519.651 31.9921 525.201 31.9921 528.454 35.5V35.5C531.707 39.0079 537.257 39.0079 540.51 35.5L543 32.8152" stroke="#596FC7"/>
<path d="M394 45.4783L395.835 43.5C399.088 39.9921 404.638 39.9921 407.891 43.5V43.5C411.144 47.0079 416.694 47.0079 419.947 43.5V43.5C423.2 39.9921 428.75 39.9921 432.004 43.5V43.5C435.257 47.0079 440.807 47.0079 444.06 43.5V43.5C447.313 39.9921 452.863 39.9921 456.116 43.5V43.5C459.369 47.0079 464.919 47.0079 468.172 43.5V43.5C471.426 39.9921 476.975 39.9921 480.229 43.5V43.5C483.482 47.0079 489.032 47.0079 492.285 43.5V43.5C495.538 39.9921 501.088 39.9921 504.341 43.5V43.5C507.595 47.0079 513.144 47.0079 516.398 43.5V43.5C519.651 39.9921 525.201 39.9921 528.454 43.5V43.5C531.707 47.0079 537.257 47.0079 540.51 43.5L543 40.8152" stroke="#596FC7"/>
<path d="M394 53.4783L395.835 51.5C399.088 47.9921 404.638 47.9921 407.891 51.5V51.5C411.144 55.0079 416.694 55.0079 419.947 51.5V51.5C423.2 47.9921 428.75 47.9921 432.004 51.5V51.5C435.257 55.0079 440.807 55.0079 444.06 51.5V51.5C447.313 47.9921 452.863 47.9921 456.116 51.5V51.5C459.369 55.0079 464.919 55.0079 468.172 51.5V51.5C471.426 47.9921 476.975 47.9921 480.229 51.5V51.5C483.482 55.0079 489.032 55.0079 492.285 51.5V51.5C495.538 47.9921 501.088 47.9921 504.341 51.5V51.5C507.595 55.0079 513.144 55.0079 516.398 51.5V51.5C519.651 47.9921 525.201 47.9921 528.454 51.5V51.5C531.707 55.0079 537.257 55.0079 540.51 51.5L543 48.8152" stroke="#596FC7"/>
<path d="M969 43.4783L970.835 41.5C974.088 37.9921 979.638 37.9921 982.891 41.5V41.5C986.144 45.0079 991.694 45.0079 994.947 41.5V41.5C998.2 37.9921 1003.75 37.9921 1007 41.5V41.5C1010.26 45.0079 1015.81 45.0079 1019.06 41.5V41.5C1022.31 37.9921 1027.86 37.9921 1031.12 41.5V41.5C1034.37 45.0079 1039.92 45.0079 1043.17 41.5V41.5C1046.43 37.9921 1051.98 37.9921 1055.23 41.5V41.5C1058.48 45.0079 1064.03 45.0079 1067.28 41.5V41.5C1070.54 37.9921 1076.09 37.9921 1079.34 41.5V41.5C1082.59 45.0079 1088.14 45.0079 1091.4 41.5V41.5C1094.65 37.9921 1100.2 37.9921 1103.45 41.5V41.5C1106.71 45.0079 1112.26 45.0079 1115.51 41.5L1118 38.8152" stroke="#596FC7"/>
<path d="M969 51.4783L970.835 49.5C974.088 45.9921 979.638 45.9921 982.891 49.5V49.5C986.144 53.0079 991.694 53.0079 994.947 49.5V49.5C998.2 45.9921 1003.75 45.9921 1007 49.5V49.5C1010.26 53.0079 1015.81 53.0079 1019.06 49.5V49.5C1022.31 45.9921 1027.86 45.9921 1031.12 49.5V49.5C1034.37 53.0079 1039.92 53.0079 1043.17 49.5V49.5C1046.43 45.9921 1051.98 45.9921 1055.23 49.5V49.5C1058.48 53.0079 1064.03 53.0079 1067.28 49.5V49.5C1070.54 45.9921 1076.09 45.9921 1079.34 49.5V49.5C1082.59 53.0079 1088.14 53.0079 1091.4 49.5V49.5C1094.65 45.9921 1100.2 45.9921 1103.45 49.5V49.5C1106.71 53.0079 1112.26 53.0079 1115.51 49.5L1118 46.8152" stroke="#596FC7"/>
<path d="M899.231 61.5C902.417 61.5 905.042 58.9041 904.59 55.7502C903.734 49.7813 901.552 44.0534 898.175 38.9994C893.724 32.3392 887.399 27.1482 879.999 24.0829C872.598 21.0175 864.455 20.2155 856.599 21.7782C848.743 23.3409 841.526 27.1981 835.862 32.8622C830.198 38.5262 826.341 45.7426 824.778 53.5988C823.215 61.4551 824.018 69.5983 827.083 76.9987C830.148 84.3991 835.339 90.7243 841.999 95.1745C847.053 98.5515 852.781 100.734 858.75 101.59C861.904 102.042 864.5 99.417 864.5 96.2308C864.5 93.0446 861.892 90.5194 858.769 89.8889C855.086 89.1454 851.564 87.6885 848.41 85.5807C843.647 82.3984 839.935 77.8752 837.743 72.5831C835.551 67.2911 834.977 61.4679 836.095 55.8499C837.212 50.2319 839.971 45.0714 844.021 41.021C848.071 36.9707 853.232 34.2124 858.85 33.0949C864.468 31.9774 870.291 32.5509 875.583 34.7429C880.875 36.935 885.398 40.6471 888.581 45.4098C890.688 48.5643 892.145 52.0859 892.889 55.7688C893.519 58.892 896.045 61.5 899.231 61.5Z" fill="#8597DD"/>
<path d="M1154.5 131.608C1154.5 141.766 1163.14 150.351 1172.27 145.895C1174.17 144.964 1176.01 143.881 1177.77 142.651C1184.58 137.868 1189.76 131.101 1192.59 123.271C1195.42 115.441 1195.77 106.929 1193.59 98.8931C1191.41 90.8577 1186.8 83.6895 1180.4 78.3648C1174 73.0401 1166.11 69.8175 1157.82 69.1359C1149.52 68.4544 1141.21 70.3469 1134.03 74.5558C1126.84 78.7648 1121.13 85.0856 1117.67 92.6575C1116.78 94.6049 1116.05 96.6106 1115.48 98.6552C1112.76 108.442 1122.77 115.373 1132.76 113.524C1144.07 111.431 1154.5 120.11 1154.5 131.608Z" fill="#AFBBE8"/>
<path d="M1015.43 119.061C1017.48 119.611 1018.73 121.735 1017.89 123.688C1015.61 129.023 1011.65 133.515 1006.57 136.451C1000.37 140.031 992.997 141.001 986.08 139.148C979.163 137.295 973.266 132.77 969.685 126.568C966.75 121.484 965.569 115.615 966.26 109.853C966.513 107.744 968.651 106.526 970.703 107.075C972.755 107.625 973.931 109.74 973.798 111.86C973.562 115.625 974.433 119.407 976.347 122.722C978.907 127.157 983.125 130.393 988.071 131.718C993.017 133.043 998.287 132.349 1002.72 129.789C1006.04 127.875 1008.68 125.035 1010.36 121.657C1011.31 119.755 1013.38 118.511 1015.43 119.061Z" fill="#8597DD"/>
</svg>
