<svg width="320" height="320" viewBox="0 0 320 320" fill="none" xmlns="http://www.w3.org/2000/svg">
<path d="M160 320C244.569 320 313.125 251.444 313.125 166.875C313.125 82.3064 244.569 13.75 160 13.75C75.4314 13.75 6.875 82.3064 6.875 166.875C6.875 251.444 75.4314 320 160 320Z" fill="#030F44"/>
<path d="M135.498 236.828C143.405 236.828 150.688 240.804 154.983 247.465C155.088 247.63 155.266 247.735 155.461 247.75C155.477 247.751 155.493 247.752 155.508 247.752C155.687 247.752 155.858 247.675 155.977 247.54C162.414 240.259 171.669 236.082 181.368 236.082C184.673 236.082 187.866 236.566 190.888 237.453L179.734 208.862H140.268L128.992 237.765C131.058 237.159 133.24 236.828 135.498 236.828Z" fill="#E5E9F6"/>
<path d="M145.411 208.862H140.266L128.99 237.764C130.745 237.25 132.588 236.948 134.486 236.864L145.411 208.862Z" fill="#AFBBE8"/>
<path d="M123.491 266.37C123.516 266.535 123.605 266.683 123.74 266.782C123.847 266.861 123.977 266.903 124.109 266.903C124.141 266.903 124.175 266.9 124.207 266.895C126.438 266.54 128.679 266.36 130.866 266.36C141.553 266.36 151.748 270.376 159.573 277.667C159.693 277.779 159.846 277.835 160 277.835C160.153 277.835 160.306 277.779 160.426 277.667C168.251 270.376 178.446 266.36 189.133 266.36C191.32 266.36 193.561 266.54 195.792 266.895C195.825 266.9 195.858 266.903 195.89 266.903C196.022 266.903 196.152 266.861 196.26 266.782C196.394 266.683 196.483 266.535 196.508 266.37C197.663 258.596 200.589 251.233 204.978 244.808C198.805 239.013 190.504 235.457 181.367 235.457C171.069 235.457 161.83 239.973 155.507 247.126C151.272 240.557 143.896 236.202 135.498 236.202C127.442 236.202 120.327 240.209 116.021 246.335C119.853 252.39 122.426 259.204 123.491 266.37Z" fill="#AFBBE8"/>
<path d="M124.111 266.278C120.349 240.959 98.5263 221.534 72.1613 221.534C53.8582 221.534 37.7482 230.899 28.3457 245.094C42.742 269.274 63.6113 289.141 88.5607 302.326C91.2288 283.847 105.716 269.201 124.111 266.278Z" fill="#3C54AF"/>
<path d="M77.4063 227.992C90.8013 227.992 103.08 232.743 112.672 240.64C103.039 228.974 88.4726 221.534 72.1613 221.534C53.8582 221.534 37.7482 230.899 28.3457 245.094C29.5876 247.18 30.8813 249.232 32.2182 251.252C42.2926 237.173 58.7732 227.992 77.4063 227.992Z" fill="#203999"/>
<path d="M247.84 221.534C221.475 221.534 199.652 240.96 195.891 266.278C214.286 269.201 228.772 283.847 231.441 302.326C256.389 289.141 277.259 269.273 291.656 245.094C282.253 230.899 266.143 221.534 247.84 221.534Z" fill="#3C54AF"/>
<path d="M251.018 221.631C249.966 221.569 248.907 221.534 247.84 221.534C221.475 221.534 199.652 240.96 195.891 266.278C197.851 266.589 199.763 267.042 201.624 267.61C206.851 243.686 226.503 225.16 251.018 221.631Z" fill="#203999"/>
<path d="M189.133 265.735C177.873 265.735 167.636 270.095 160 277.21C152.365 270.095 142.128 265.735 130.868 265.735C109.346 265.735 91.543 281.639 88.5586 302.334C109.889 313.607 134.196 320 160 320C185.805 320 210.112 313.607 231.442 302.334C228.458 281.639 210.655 265.735 189.133 265.735Z" fill="#203999"/>
<path d="M139.803 271.051C145.7 271.051 151.327 272.198 156.478 274.277C149.339 268.921 140.478 265.736 130.866 265.736C109.344 265.736 91.541 281.64 88.5566 302.335C91.071 303.663 93.6279 304.922 96.2223 306.112C100.602 286.065 118.442 271.051 139.803 271.051Z" fill="#102373"/>
<path d="M174.08 208.862H164.631L165.836 218.4C166.161 220.969 168.51 222.786 171.075 222.462C173.643 222.137 175.462 219.792 175.137 217.224L174.08 208.862Z" fill="#AFBBE8"/>
<path d="M145.92 208.862L143.442 228.474C143.117 231.043 144.936 233.388 147.505 233.713C147.704 233.738 147.902 233.75 148.099 233.75C150.425 233.749 152.444 232.018 152.744 229.649L155.371 208.861H145.92V208.862Z" fill="#AFBBE8"/>
<path d="M111.942 122.323C111.942 117.226 112.134 112.143 112.491 107.097C97.4537 115.565 87.0938 134.43 87.0938 156.27C87.0938 167.805 89.9619 178.806 95.3875 188.083C95.8969 188.954 96.8187 189.452 97.7762 189.452C98.1262 189.452 98.4806 189.386 98.8212 189.247C105.952 186.332 113.572 184.834 121.474 184.772C115.234 165.567 111.942 144.119 111.942 122.323Z" fill="#8541C0"/>
<path d="M94.18 156.27C94.18 138.231 101.252 122.229 112.185 112.431C112.269 110.649 112.366 108.87 112.491 107.097C97.4538 115.565 87.0938 134.43 87.0938 156.27C87.0938 167.805 89.9619 178.806 95.3875 188.083C95.8969 188.954 96.8187 189.452 97.7762 189.452C98.1262 189.452 98.4806 189.386 98.8213 189.247C99.9963 188.766 101.19 188.339 102.391 187.935C97.02 178.689 94.18 167.745 94.18 156.27Z" fill="#66289D"/>
<path d="M207.507 107.097C207.864 112.144 208.055 117.227 208.055 122.323C208.055 144.119 204.763 165.566 198.523 184.772C206.426 184.834 214.045 186.332 221.176 189.247C221.517 189.386 221.872 189.452 222.221 189.452C223.179 189.452 224.1 188.954 224.61 188.083C230.036 178.806 232.903 167.805 232.903 156.27C232.904 134.43 222.544 115.565 207.507 107.097Z" fill="#8541C0"/>
<path d="M136.066 191.953V206.362C136.066 208.081 137.473 209.487 139.191 209.487H180.806C182.525 209.487 183.931 208.081 183.931 206.362V191.953H136.066Z" fill="#8541C0"/>
<path d="M146.696 206.362V191.953H136.066V206.362C136.066 208.081 137.473 209.487 139.191 209.487H149.821C148.102 209.487 146.696 208.081 146.696 206.362Z" fill="#66289D"/>
<path d="M198.035 56.4487H121.966C114.995 76.5444 111.318 99.1631 111.318 122.323C111.318 146.399 115.311 170.065 122.865 190.761C123.264 191.852 124.301 192.578 125.463 192.578H194.538C195.7 192.578 196.738 191.852 197.136 190.761C204.69 170.065 208.683 146.399 208.683 122.323C208.683 99.1631 205.007 76.545 198.035 56.4487Z" fill="#E5E9F6"/>
<path d="M131.723 190.761C124.168 170.065 120.176 146.399 120.176 122.323C120.176 99.1631 123.853 76.5444 130.824 56.4487H121.966C114.995 76.5444 111.318 99.1631 111.318 122.323C111.318 146.399 115.311 170.065 122.865 190.761C123.264 191.852 124.301 192.578 125.463 192.578H134.321C133.159 192.578 132.121 191.852 131.723 190.761Z" fill="#AFBBE8"/>
<path d="M141.986 56.4487V66.82C141.986 68.5387 143.393 69.945 145.111 69.945H174.888C176.606 69.945 178.013 68.5387 178.013 66.82V56.4487H141.986Z" fill="#A66BD8"/>
<path d="M149.073 66.82V56.4487H141.986V66.82C141.986 68.5387 143.393 69.945 145.111 69.945H152.198C150.479 69.945 149.073 68.5387 149.073 66.82Z" fill="#66289D"/>
<path d="M159.999 0C159.382 0 158.766 0.205625 158.259 0.61625C144.297 11.9219 132.537 29.0719 124.252 50.2125C123.371 52.4619 122.542 54.7556 121.748 57.0737H198.25C197.456 54.7556 196.627 52.4619 195.746 50.2125C187.461 29.0719 175.701 11.9219 161.739 0.61625C161.232 0.205625 160.616 0 159.999 0Z" fill="#8541C0"/>
<path d="M164.428 2.8925C163.541 2.11062 162.646 1.35 161.74 0.61625C161.232 0.205625 160.616 0 159.999 0C159.382 0 158.766 0.205625 158.259 0.61625C144.297 11.9219 132.537 29.0719 124.252 50.2125C123.371 52.4619 122.542 54.7556 121.748 57.0737H130.606C131.4 54.7556 132.228 52.4619 133.109 50.2125C140.858 30.4431 151.644 14.1669 164.428 2.8925Z" fill="#66289D"/>
<path d="M160.001 144.969C177.612 144.969 191.888 130.692 191.888 113.081C191.888 95.4704 177.612 81.1938 160.001 81.1938C142.39 81.1938 128.113 95.4704 128.113 113.081C128.113 130.692 142.39 144.969 160.001 144.969Z" fill="#203999"/>
<path d="M160 133.538C171.298 133.538 180.457 124.379 180.457 113.081C180.457 101.783 171.298 92.6245 160 92.6245C148.702 92.6245 139.543 101.783 139.543 113.081C139.543 124.379 148.702 133.538 160 133.538Z" fill="#8597DD"/>
<path d="M147.042 113.082C147.042 123.099 154.243 131.429 163.75 133.191C162.534 133.416 161.282 133.54 160 133.54C148.701 133.54 139.543 124.38 139.543 113.082C139.543 101.784 148.702 92.6255 160 92.6255C161.281 92.6255 162.534 92.7492 163.75 92.9742C154.243 94.7361 147.042 103.065 147.042 113.082Z" fill="#596FC7"/>
<path d="M69.0925 111.936C68.3756 111.936 67.7294 111.504 67.455 110.842C63.9656 102.417 61.3931 99.8456 52.9688 96.3563C52.3063 96.0819 51.875 95.4356 51.875 94.7188C51.875 94.0019 52.3069 93.3556 52.9688 93.0813C61.3938 89.5906 63.9656 87.0181 67.455 78.5944C67.7294 77.9319 68.3756 77.5 69.0925 77.5C69.8094 77.5 70.4556 77.9319 70.73 78.5944C74.22 87.0181 76.7925 89.5906 85.2169 93.0813C85.8794 93.3556 86.3113 94.0019 86.3113 94.7188C86.3113 95.4356 85.8794 96.0825 85.2169 96.3563C76.7925 99.845 74.22 102.417 70.73 110.842C70.4556 111.504 69.8094 111.936 69.0925 111.936Z" fill="#F2A922"/>
<path d="M70.7403 107.073C67.2509 98.649 64.6784 96.0771 56.2541 92.5877C55.8378 92.4158 55.5134 92.0958 55.3291 91.7046C54.5203 92.0833 53.6578 92.4633 52.7109 92.8558C52.0484 93.1302 51.6172 93.7765 51.6172 94.4933C51.6172 95.2102 52.0491 95.8571 52.7109 96.1308C61.1353 99.6202 63.7078 102.192 67.1972 110.616C67.4716 111.279 68.1178 111.711 68.8347 111.711C69.5516 111.711 70.1978 111.279 70.4722 110.616C70.8641 109.67 71.2447 108.807 71.6228 107.999C71.2322 107.815 70.9128 107.49 70.7403 107.073Z" fill="#F8BD4F"/>
<path d="M257.168 125.878C256.538 125.878 255.969 125.498 255.728 124.916C252.661 117.511 250.4 115.25 242.995 112.183C242.413 111.943 242.033 111.374 242.033 110.744C242.033 110.113 242.413 109.546 242.995 109.305C250.401 106.236 252.661 103.975 255.728 96.5708C255.969 95.9883 256.538 95.6089 257.168 95.6089C257.798 95.6089 258.366 95.9883 258.607 96.5708C261.674 103.976 263.936 106.236 271.341 109.305C271.923 109.546 272.303 110.113 272.303 110.744C272.303 111.374 271.923 111.942 271.341 112.183C263.936 115.25 261.674 117.511 258.607 124.916C258.366 125.498 257.798 125.878 257.168 125.878Z" fill="white"/>
<path d="M258.843 121.801C255.776 114.396 253.515 112.136 246.109 109.068C245.744 108.917 245.458 108.636 245.296 108.292C244.586 108.624 243.827 108.959 242.995 109.304C242.413 109.545 242.033 110.113 242.033 110.743C242.033 111.373 242.413 111.941 242.995 112.183C250.401 115.249 252.661 117.51 255.728 124.915C255.969 125.498 256.538 125.877 257.168 125.877C257.798 125.877 258.366 125.498 258.607 124.915C258.951 124.083 259.286 123.324 259.619 122.614C259.276 122.453 258.995 122.167 258.843 121.801Z" fill="#E9E9E9"/>
<path d="M240.918 60.0443C240.183 60.0443 239.521 59.6018 239.24 58.9237C235.666 50.2949 233.032 47.6605 224.403 44.0874C223.725 43.8068 223.283 43.1443 223.283 42.4105C223.283 41.6755 223.726 41.0143 224.403 40.733C233.033 37.158 235.667 34.5237 239.24 25.8962C239.521 25.2174 240.183 24.7749 240.918 24.7749C241.652 24.7749 242.314 25.2174 242.595 25.8962C246.169 34.5243 248.804 37.1587 257.433 40.733C258.111 41.0143 258.553 41.6755 258.553 42.4105C258.553 43.1443 258.11 43.8068 257.432 44.0874C248.803 47.6605 246.169 50.2955 242.594 58.9237C242.314 59.6018 241.652 60.0443 240.918 60.0443Z" fill="#F2A922"/>
<path d="M242.87 55.2948C239.296 46.6667 236.661 44.0323 228.033 40.4586C227.606 40.2823 227.274 39.9548 227.085 39.5542C226.258 39.9423 225.373 40.3317 224.403 40.7329C223.725 41.0142 223.283 41.6755 223.283 42.4105C223.283 43.1442 223.726 43.8067 224.403 44.0873C233.032 47.6611 235.667 50.2955 239.24 58.9236C239.521 59.6017 240.183 60.0442 240.918 60.0442C241.652 60.0442 242.314 59.6017 242.595 58.9236C242.997 57.9536 243.386 57.0698 243.774 56.2423C243.373 56.0536 243.046 55.7211 242.87 55.2948Z" fill="#F8BD4F"/>
</svg>
