<svg width="121" height="120" viewBox="0 0 121 120" fill="none" xmlns="http://www.w3.org/2000/svg">
<path d="M115.191 63.4654C115.191 94.4939 90.3966 119.639 59.8223 119.639C29.248 119.639 4.45378 94.4939 4.45378 63.4654C4.45378 32.4369 29.248 7.29216 59.8223 7.29216C90.3966 7.29216 115.191 32.4369 115.191 63.4654Z" stroke="#E9E9E9" stroke-width="0.722023"/>
<path d="M119.889 58.2672C119.889 89.2957 95.0948 114.44 64.5205 114.44C33.9462 114.44 9.15203 89.2957 9.15203 58.2672C9.15203 27.2386 33.9462 2.09392 64.5205 2.09392C95.0948 2.09392 119.889 27.2386 119.889 58.2672Z" stroke="#E9E9E9" stroke-width="0.722023"/>
<path d="M111.348 56.5343C111.348 87.5628 86.5538 112.707 55.9795 112.707C25.4052 112.707 0.611011 87.5628 0.611011 56.5343C0.611011 25.5057 25.4052 0.361011 55.9795 0.361011C86.5538 0.361011 111.348 25.5057 111.348 56.5343Z" stroke="#E9E9E9" stroke-width="0.722023"/>
<path d="M38.168 48.2499C37.9574 48.0391 37.6651 47.918 37.3672 47.918C37.0693 47.918 36.7771 48.0392 36.5663 48.2499C36.3555 48.4606 36.2344 48.7529 36.2344 49.0508C36.2344 49.3487 36.3555 49.641 36.5663 49.8516C36.777 50.0624 37.0693 50.1836 37.3672 50.1836C37.6651 50.1836 37.9574 50.0624 38.168 49.8516C38.3788 49.641 38.5 49.3487 38.5 49.0508C38.5 48.7529 38.3788 48.4606 38.168 48.2499Z" fill="white" stroke="white"/>
<path d="M80.8672 29H57.9467C57.3211 29 56.8138 29.5073 56.8138 30.1328C56.8138 30.7584 57.3211 31.2656 57.9467 31.2656H80.8672C81.4918 31.2656 82 31.7738 82 32.3984V83.6016C82 84.2262 81.4918 84.7344 80.8672 84.7344H39.6328C39.0082 84.7344 38.5 84.2262 38.5 83.6016V53.2799C38.5 52.6544 37.9927 52.1471 37.3672 52.1471C36.7416 52.1471 36.2344 52.6544 36.2344 53.2799V83.6016C36.2344 85.4755 37.7589 87 39.6328 87H80.8672C82.7411 87 84.2656 85.4755 84.2656 83.6016V32.3984C84.2656 30.5245 82.7411 29 80.8672 29Z" fill="white" stroke="white"/>
<path d="M60.2493 33.5312C59.4785 33.5312 58.7039 33.5902 57.947 33.7062C57.3286 33.8011 56.9041 34.3792 56.9989 34.9976C57.0937 35.616 57.6722 36.0399 58.2903 35.9456C58.9341 35.8468 59.5932 35.7969 60.2493 35.7969C67.3077 35.7969 73.0502 41.5393 73.0502 48.5978C73.0502 51.7323 71.9172 54.6065 70.0399 56.8344C69.2092 55.406 68.0745 54.1738 66.6974 53.2181C65.8937 52.6603 65.0301 52.2151 64.1261 51.8855C65.1579 50.877 65.8001 49.4715 65.8001 47.9182V46.8137C65.8001 43.7528 63.31 41.2628 60.2493 41.2628C57.1886 41.2628 54.6985 43.7528 54.6985 46.8137V47.9182C54.6985 49.4715 55.3406 50.877 56.3725 51.8855C55.4686 52.2151 54.6051 52.6603 53.8012 53.2181C52.4175 54.1785 51.2783 55.4175 50.4466 56.8546C49.0162 55.1548 48.0164 53.0641 47.6252 50.7318C47.5218 50.1149 46.9372 49.6987 46.3207 49.8019C45.7036 49.9054 45.2873 50.4895 45.3908 51.1065C45.9733 54.5797 47.7764 57.7588 50.468 60.0581C53.1903 62.3836 56.6641 63.6644 60.2492 63.6644C68.5569 63.6644 75.3157 56.9056 75.3157 48.5979C75.3157 40.2902 68.557 33.5312 60.2493 33.5312ZM56.9641 46.8136C56.9641 45.0021 58.4379 43.5283 60.2493 43.5283C62.0607 43.5283 63.5345 45.0021 63.5345 46.8136V47.9181C63.5345 49.7294 62.0607 51.2032 60.2493 51.2032C58.4379 51.2032 56.9641 49.7294 56.9641 47.9181V46.8136ZM60.2493 61.3987C57.1823 61.3987 54.3469 60.3277 52.1277 58.512C53.6489 55.4249 56.7585 53.4689 60.2493 53.4689C63.7328 53.4689 66.8366 55.4168 68.3611 58.4928C66.1514 60.3077 63.3253 61.3987 60.2493 61.3987Z" fill="white" stroke="white"/>
<path d="M70.7119 74.0859H54.626C54.0004 74.0859 53.4932 74.5932 53.4932 75.2188C53.4932 75.8443 54.0004 76.3516 54.626 76.3516H70.7119C71.3376 76.3516 71.8447 75.8443 71.8447 75.2188C71.8447 74.5932 71.3375 74.0859 70.7119 74.0859Z" fill="white" stroke="white"/>
<path d="M50.589 68.0741C50.3783 67.8633 50.086 67.7422 49.7881 67.7422C49.4902 67.7422 49.1979 67.8634 48.9872 68.0741C48.7765 68.2848 48.6553 68.5771 48.6553 68.875C48.6553 69.1739 48.7766 69.4652 48.9872 69.6758C49.1979 69.8866 49.4902 70.0078 49.7881 70.0078C50.086 70.0078 50.3783 69.8866 50.589 69.6758C50.8008 69.4652 50.9209 69.1729 50.9209 68.875C50.9209 68.5771 50.8008 68.2848 50.589 68.0741Z" fill="white" stroke="white"/>
<path d="M50.589 74.4179C50.3783 74.207 50.0871 74.0859 49.7881 74.0859C49.4902 74.0859 49.1979 74.2071 48.9872 74.4179C48.7765 74.6286 48.6553 74.9208 48.6553 75.2188C48.6553 75.5177 48.7766 75.8089 48.9872 76.0195C49.1979 76.2304 49.4902 76.3516 49.7881 76.3516C50.086 76.3516 50.3783 76.2304 50.589 76.0195C50.8008 75.8089 50.9209 75.5178 50.9209 75.2188C50.9209 74.9208 50.8008 74.6286 50.589 74.4179Z" fill="white" stroke="white"/>
<path d="M70.7119 67.7422H54.626C54.0004 67.7422 53.4932 68.2495 53.4932 68.875C53.4932 69.5005 54.0004 70.0078 54.626 70.0078H70.7119C71.3376 70.0078 71.8447 69.5005 71.8447 68.875C71.8447 68.2495 71.3375 67.7422 70.7119 67.7422Z" fill="white" stroke="white"/>
<path d="M49.5601 35.528C49.1175 35.0857 48.4004 35.0857 47.958 35.528L44.2688 39.2171L43.0081 37.9564C42.5655 37.5141 41.8485 37.5141 41.406 37.9564C40.9636 38.3989 40.9636 39.1162 41.406 39.5585L43.4677 41.6202C43.6889 41.8414 43.9787 41.952 44.2687 41.952C44.5587 41.952 44.8485 41.8414 45.0698 41.6204L49.5601 37.1301C50.0025 36.6876 50.0025 35.9703 49.5601 35.528Z" fill="white" stroke="white"/>
<path d="M45.5234 29C40.4014 29 36.2344 33.1671 36.2344 38.2891C36.2344 43.4111 40.4014 47.5781 45.5234 47.5781C50.6454 47.5781 54.8125 43.4111 54.8125 38.2891C54.8125 33.1671 50.6454 29 45.5234 29ZM45.5234 45.3125C41.6507 45.3125 38.5 42.1618 38.5 38.2891C38.5 34.4163 41.6507 31.2656 45.5234 31.2656C49.3962 31.2656 52.5469 34.4163 52.5469 38.2891C52.5469 42.1618 49.3962 45.3125 45.5234 45.3125Z" fill="white" stroke="white"/>
</svg>
