<svg width="200" height="200" viewBox="0 0 200 200" fill="none" xmlns="http://www.w3.org/2000/svg">
<path d="M191.809 105.776C191.809 157.62 150.38 199.639 99.287 199.639C48.1935 199.639 6.76531 157.62 6.76531 105.776C6.76531 53.9322 48.1935 11.9133 99.287 11.9133C150.38 11.9133 191.809 53.9322 191.809 105.776Z" stroke="#E9E9E9" stroke-width="0.722023"/>
<path d="M199.639 97.1122C199.639 148.956 158.211 190.975 107.117 190.975C56.0236 190.975 14.5954 148.956 14.5954 97.1122C14.5954 45.2682 56.0236 3.24919 107.117 3.24919C158.211 3.24919 199.639 45.2682 199.639 97.1122Z" stroke="#E9E9E9" stroke-width="0.722023"/>
<path d="M185.404 94.224C185.404 146.068 143.976 188.087 92.8827 188.087C41.7892 188.087 0.361011 146.068 0.361011 94.224C0.361011 42.38 41.7892 0.361011 92.8827 0.361011C143.976 0.361011 185.404 42.38 185.404 94.224Z" stroke="#E9E9E9" stroke-width="0.722023"/>
<path d="M141.262 84.0528C141.262 83.9862 141.262 83.9195 141.246 83.8529C141.229 83.7862 141.213 83.7195 141.18 83.6529C141.147 83.5695 141.13 83.5029 141.097 83.4195C141.064 83.3695 141.048 83.3029 140.998 83.2529C140.982 83.2196 140.982 83.2029 140.965 83.1696C140.932 83.1362 140.899 83.1196 140.883 83.0862C140.833 83.0196 140.767 82.9696 140.701 82.9029C140.668 82.8696 140.652 82.8362 140.619 82.8196L123.124 69.7869V64.1706C123.124 63.2539 122.381 62.504 121.473 62.504H113.271L102.51 56.071C101.998 55.7543 101.354 55.7543 100.826 56.071L90.065 62.504H81.8622C80.9545 62.504 80.2118 63.2539 80.2118 64.1706V69.7869L62.7333 82.8362C62.7003 82.8529 62.6838 82.9029 62.6508 82.9196C62.5848 82.9696 62.5353 83.0362 62.4693 83.1029C62.4362 83.1362 62.4032 83.1529 62.3867 83.1862C62.3702 83.2029 62.3702 83.2362 62.3537 83.2695C62.3207 83.3195 62.2877 83.3862 62.2547 83.4362C62.2217 83.5029 62.1887 83.5862 62.1722 83.6695C62.1557 83.7362 62.1227 83.8029 62.1062 83.8695C62.0896 83.9362 62.0896 84.0028 62.0896 84.0695C62.0731 84.0862 62.0566 84.1195 62.0566 84.1695V130.834C62.0566 131.75 62.7994 132.5 63.7071 132.5H139.629C140.536 132.5 141.279 131.75 141.279 130.834V84.1695C141.279 84.1195 141.262 84.0862 141.262 84.0528ZM136.856 84.1695L123.124 94.419V73.92L136.856 84.1695ZM101.668 59.4375L106.801 62.504H96.5514L101.668 59.4375ZM119.823 65.8371V96.8855L116.522 99.352V75.8366C116.522 74.92 115.779 74.17 114.872 74.17C113.056 74.17 111.571 72.6701 111.571 70.8369C111.571 69.9203 110.828 69.1703 109.92 69.1703H93.4155C92.5077 69.1703 91.765 69.9203 91.765 70.8369C91.765 72.6701 90.2796 74.17 88.4641 74.17C87.5563 74.17 86.8136 74.92 86.8136 75.8366V99.3354L83.5127 96.8688V65.8371H119.823ZM113.221 101.802L101.668 110.418L90.1146 101.802V77.2865C92.4252 76.6866 94.2572 74.8367 94.8514 72.5035H108.468C109.062 74.8367 110.894 76.6866 113.205 77.2865V101.802H113.221ZM80.2118 94.419L66.4799 84.1695L80.2118 73.92V94.419ZM65.3576 129.167V87.4693L100.694 113.835C100.975 114.051 101.321 114.168 101.668 114.168C102.014 114.168 102.361 114.051 102.642 113.835L137.978 87.4693V129.167H65.3576Z" fill="#E9E9E9"/>
<path d="M101.666 85.8359C102.574 85.8359 103.317 85.0859 103.317 84.1693V77.503C103.317 76.5864 102.574 75.8364 101.666 75.8364C100.758 75.8364 100.016 76.5864 100.016 77.503V84.1693C100.016 85.0859 100.758 85.8359 101.666 85.8359Z" fill="#E9E9E9"/>
<path d="M101.666 90.8359C98.0188 90.8359 95.0645 93.8191 95.0645 97.5023C95.0645 101.185 98.0188 104.169 101.666 104.169C105.314 104.169 108.268 101.185 108.268 97.5023C108.268 93.8191 105.314 90.8359 101.666 90.8359ZM101.666 100.835C99.8508 100.835 98.3654 99.3355 98.3654 97.5023C98.3654 95.669 99.8508 94.1691 101.666 94.1691C103.482 94.1691 104.967 95.669 104.967 97.5023C104.967 99.3355 103.482 100.835 101.666 100.835Z" fill="#E9E9E9"/>
</svg>
