<svg width="353" height="478" viewBox="0 0 353 478" fill="none" xmlns="http://www.w3.org/2000/svg">
<circle r="174" transform="matrix(-1 0 0 1 178.596 174)" fill="white"/>
<g clip-path="url(#clip0)">
<path d="M250.654 172.435C248.325 145.892 238.871 124.175 234.435 116.635H147.121C144.072 119.4 134.545 129.831 137.54 149.436C141.282 173.943 109.261 193.926 91.7951 226.727C74.329 259.529 75.5766 287.806 77.24 301.002C78.5708 311.559 70.0318 337.825 65.5959 349.639C67.6752 352.026 75.8261 356.802 91.7951 356.802C111.756 356.802 120.905 369.998 149.184 368.49C177.462 366.982 192.017 356.802 206.156 356.802C220.296 356.802 250.654 365.097 258.14 356.802C265.625 348.507 241.921 294.215 239.842 271.971C237.762 249.726 253.565 205.614 250.654 172.435Z" fill="#F2A922"/>
<path d="M137.63 215.817C135.72 224.923 121.845 337.874 126.382 364.837C130.919 391.8 204.888 448.344 208.126 449.332C211.901 446.563 217.456 437.488 217.456 437.488C217.456 437.488 163.219 374.69 162.208 372.17C161.196 369.651 174.067 224.169 174.067 224.169L137.63 215.817Z" fill="#225219"/>
<path d="M225.964 236.398L170.625 461.977H151.979L170.874 226.651L225.964 236.398Z" fill="#367229"/>
<path d="M186.658 107.242C194.297 107.242 234.146 108.532 241.348 122.549C248.549 136.566 241.763 201.356 237.287 203.868C234.871 205.218 234.214 203.906 233.512 206.652C232.81 209.398 225.964 236.398 225.964 236.398C221.616 236.519 158.222 226.976 137.645 215.818C137.765 212.717 138.762 204.653 138.762 204.034C136.029 205.15 132.723 205.384 131.81 204.034C123.785 191.88 135.757 128.517 144.34 115.767C148.001 110.298 174.399 107.28 186.658 107.242Z" fill="#83CE74"/>
<path d="M212.897 205.656C214.769 205.656 230.885 216.972 229.504 222.532C230.636 218.066 234.199 204.268 234.199 204.268C232.667 204.509 214.233 205.656 212.897 205.656Z" fill="#042039"/>
<path d="M196.524 114.635C196.524 117.094 177.117 117.094 177.117 114.635V89.7393H196.524V114.635Z" fill="#88613A"/>
<path d="M185.382 95.6313C186.892 95.6313 196.524 99.8862 196.524 102.255V89.7393C194.123 89.7393 185.382 95.6313 185.382 95.6313Z" fill="#042039"/>
<path d="M182.733 97.4498C193.16 97.4498 201.612 89.0023 201.612 78.5818C201.612 68.1613 193.16 59.7139 182.733 59.7139C172.306 59.7139 163.854 68.1613 163.854 78.5818C163.854 89.0023 172.306 97.4498 182.733 97.4498Z" fill="#88613A"/>
<path d="M176.346 51C166.654 51 160.608 57.0806 160.608 64.8737C160.608 71.3542 162.185 75.0206 164.035 75.9486C165.205 69.6567 167.749 66.7447 169.855 65.4923C171.485 66.7447 174.293 69.7774 178.037 70.7129C181.781 71.6484 191.527 71.4673 199.4 77.1858C201.967 74.8471 204.541 71.8068 204.541 68.2233C204.541 64.6399 202.955 60.1435 193.625 57.5483C187.473 55.8358 186.62 51 176.346 51Z" fill="#042039"/>
<path d="M165.092 84.1872C166.918 84.1872 168.398 83.4171 168.398 82.4671C168.398 81.5172 166.918 80.7471 165.092 80.7471C163.266 80.7471 161.785 81.5172 161.785 82.4671C161.785 83.4171 163.266 84.1872 165.092 84.1872Z" fill="#BF9972"/>
<path d="M185.888 84.1872C187.714 84.1872 189.194 83.4171 189.194 82.4671C189.194 81.5172 187.714 80.7471 185.888 80.7471C184.062 80.7471 182.582 81.5172 182.582 82.4671C182.582 83.4171 184.062 84.1872 185.888 84.1872Z" fill="#BF9972"/>
<path d="M173.168 78.9131C172.55 79.7958 169.394 83.4999 172.723 84.9937" stroke="#042039" stroke-miterlimit="10" stroke-linecap="round"/>
<path d="M179.389 89.3091C180.378 89.3091 181.918 88.0719 182.725 86.9629" stroke="#042039" stroke-miterlimit="10" stroke-linecap="round"/>
<path d="M200.185 85.1146C202.595 85.1146 204.548 83.1623 204.548 80.7541C204.548 78.3458 202.595 76.3936 200.185 76.3936C197.775 76.3936 195.822 78.3458 195.822 80.7541C195.822 83.1623 197.775 85.1146 200.185 85.1146Z" fill="#88613A"/>
<path d="M213.335 144.366C212.995 148.531 211.667 169.111 212.165 171.819C205.832 174.022 147.813 201.513 137.811 204.508" stroke="#042039" stroke-miterlimit="10" stroke-linecap="round"/>
<path d="M145.979 137.871C144.65 142.533 140.151 163.695 143.314 173.525" stroke="#042039" stroke-miterlimit="10" stroke-linecap="round"/>
<path d="M160.781 194.897C163.8 197.017 192.749 209.82 232.757 204.992" stroke="#042039" stroke-miterlimit="10" stroke-linecap="round"/>
<path d="M158.019 173.525C159.959 173.834 153.633 168.787 150.047 170.665C146.462 172.544 141.63 181.046 142.619 183.023C142.753 183.38 142.964 183.703 143.239 183.968C143.514 184.232 143.844 184.432 144.206 184.552C144.568 184.673 144.953 184.71 145.331 184.662C145.71 184.614 146.073 184.482 146.394 184.275C147.367 183.641 154.614 172.981 158.019 173.525Z" fill="#88613A"/>
<path d="M216.815 438.453C217.849 439.208 227.021 445.409 227.096 449.317C227.172 453.225 218.574 466.178 216.815 466.548C215.056 466.917 213.841 465.454 213.841 462.836C213.841 460.218 217.117 455.631 216.679 453.594C216.241 451.557 212.006 447.831 209.832 447.763" fill="#042039"/>
<path d="M168.858 461.977C168.858 463.772 169.9 475.043 167.809 476.092C165.718 477.14 142.74 477.759 141.698 476.718C140.657 475.677 140.023 473.481 140.944 472.855C141.864 472.229 150.757 470.449 151.957 469.619C153.157 468.789 154.833 464.338 154.222 461.977" fill="#042039"/>
</g>
<defs>
<clipPath id="clip0">
<rect width="194" height="427" fill="white" transform="translate(65.5959 51)"/>
</clipPath>
</defs>
</svg>
