<svg width="240" height="240" viewBox="0 0 240 240" fill="none" xmlns="http://www.w3.org/2000/svg">
<rect x="101" y="74" width="135" height="63" rx="8" fill="#E9E9E9" stroke="#A3A3A3" stroke-width="8"/>
<path d="M146.734 107.703H137.734V117H133.047V94.25H147.859V98.0469H137.734V103.922H146.734V107.703ZM159 108.672H155.266V117H150.578V94.25H159.031C161.719 94.25 163.792 94.849 165.25 96.0469C166.708 97.2448 167.438 98.9375 167.438 101.125C167.438 102.677 167.099 103.974 166.422 105.016C165.755 106.047 164.74 106.87 163.375 107.484L168.297 116.781V117H163.266L159 108.672ZM155.266 104.875H159.047C160.224 104.875 161.135 104.578 161.781 103.984C162.427 103.38 162.75 102.552 162.75 101.5C162.75 100.427 162.443 99.5833 161.828 98.9688C161.224 98.3542 160.292 98.0469 159.031 98.0469H155.266V104.875ZM184.703 107.141H175.703V113.234H186.266V117H171.016V94.25H186.234V98.0469H175.703V103.469H184.703V107.141ZM202.703 107.141H193.703V113.234H204.266V117H189.016V94.25H204.234V98.0469H193.703V103.469H202.703V107.141Z" fill="#F2A922"/>
<path d="M120.5 71C134.973 48 160.166 2 168.699 2C178.372 2 202.16 48 216.5 71" stroke="#A3A3A3" stroke-width="2" stroke-linecap="round" stroke-linejoin="round"/>
<circle cx="169" cy="5" r="5" fill="#C4C4C4"/>
<circle cx="60" cy="180" r="60" fill="url(#paint0_linear)"/>
<path d="M38.7855 169.169C40.2312 176.904 55.7721 185.107 57.0542 185.267C57.0542 185.267 69.4494 169.942 68.2747 163.657C67.1001 157.373 64.0184 153.446 57.9693 154.576C51.9201 155.707 53.0783 163.996 53.0783 163.996C53.0783 163.996 50.4078 155.99 45.115 156.979C39.8221 157.969 37.3397 161.434 38.7855 169.169Z" fill="#B85F6B"/>
<path d="M85.9682 160.35C87.4139 168.085 102.955 176.287 104.237 176.448C104.237 176.448 116.632 161.123 115.457 154.838C114.283 148.553 111.201 144.626 105.152 145.757C99.1028 146.888 100.261 155.177 100.261 155.177C100.261 155.177 97.5906 147.17 92.2977 148.16C87.0049 149.149 84.5225 152.615 85.9682 160.35Z" fill="#B85F6B"/>
<ellipse cx="86.1302" cy="205.459" rx="12" ry="17" transform="rotate(-9.06614 86.1302 205.459)" fill="white"/>
<defs>
<linearGradient id="paint0_linear" x1="-3.63216e-08" y1="180" x2="120" y2="180" gradientUnits="userSpaceOnUse">
<stop stop-color="#8597DD"/>
<stop offset="1" stop-color="#AFBBE8"/>
</linearGradient>
</defs>
</svg>
