<svg width="219" height="118" viewBox="0 0 219 118" fill="none" xmlns="http://www.w3.org/2000/svg">
<path d="M170.037 104.715C170.069 104.047 170.089 103.377 170.089 102.696C170.09 70.515 135.227 44.4229 92.223 44.4229C49.2184 44.4229 14.3555 70.515 14.3555 102.703C14.3555 103.376 14.3757 104.047 14.4072 104.722L170.037 104.715Z" fill="#CBCBCB"/>
<path d="M214.563 104.715C214.586 104.243 214.602 103.769 214.602 103.294C214.602 80.559 188.571 62.1289 156.459 62.1289C124.347 62.1289 98.3149 80.559 98.3149 103.294C98.3149 103.77 98.3296 104.243 98.3539 104.715H214.563Z" fill="#E9E9E9"/>
<path d="M6.11865 114.286C6.11865 111.079 11.9874 99.9094 21.9957 99.9094C31.7738 99.9094 34.021 103.462 42.1362 103.462C48.197 103.462 47.783 101.094 53.4711 101.094C65.0926 101.094 69.6142 110.233 69.6142 114.295L6.11865 114.286Z" fill="#FAD897"/>
<path d="M155.505 111.905C155.505 108.698 161.374 97.5283 171.382 97.5283C181.16 97.5283 183.407 101.081 191.522 101.081C197.583 101.081 197.169 98.7125 202.857 98.7125C214.479 98.7125 219 107.852 219 111.914L155.505 111.905Z" fill="#FAD897"/>
<path d="M56.0029 117.981C56.0029 112.061 66.8334 91.4436 85.3098 91.4436C103.359 91.4436 107.507 98.0022 122.485 98.0022C133.673 98.0022 132.908 93.6299 143.408 93.6299C164.859 93.6299 173.205 110.5 173.205 118L56.0029 117.981Z" fill="#FAD897"/>
<path d="M0 40.4374C0 36.5802 9.65141 35.7627 13.4661 35.7627C21.2022 35.7627 21.7143 31.3711 28.1379 31.3711C33.7853 31.3711 36.6583 35.9056 41.9161 35.9056C53.2001 35.9056 55.713 23.0164 66.6902 23.0164C77.8595 23.0164 77.2886 36.4717 87.6816 36.4717C92.9662 36.4717 124.713 37.4612 124.713 40.4401L0 40.4374Z" fill="#90C0EA"/>
<path d="M134.714 17.0375C134.714 14.6009 143.08 10.7886 147.655 10.7886C156.679 10.7886 153.862 13.913 159.539 13.913C166.008 13.913 167.486 0 177.329 0C188.088 0 186.399 13.6088 193.002 13.6088C195.845 13.6088 197.27 12.286 201.311 12.286C203.656 12.286 206.222 14.6088 206.222 17.048L134.714 17.0375Z" fill="#90C0EA"/>
<path d="M70.4224 97.5608L83.0668 37.0222" stroke="#CBCBCB" stroke-linecap="round" stroke-linejoin="round"/>
<path d="M104.877 40.1439C103.615 41.3476 100.875 45.5805 99.5869 45.5805C96.0123 45.5805 85.0698 38.9401 84.3202 37.1147C84.1308 36.6147 85.4192 35.3369 85.7767 35.3369C86.1341 35.3369 92.5124 39.128 96.4284 38.7761C98.5625 38.5856 99.9764 34.3712 102.281 31.9241" fill="#0C3559"/>
<path d="M171.667 44.9244C171.933 44.6281 173.352 42.8079 173.862 42.7391C174.78 42.6016 178.279 46.0197 178.306 46.3424C178.333 46.6652 178.119 47.1149 177.874 47.0858C177.629 47.0567 175.895 46.0884 175.572 46.0567C175.249 46.0249 174.342 46.517 174.105 47.0012" fill="#0C3559"/>
<path d="M104.136 46.9509C103.018 47.9668 91.4595 69.8086 91.4595 72.6129C91.4595 75.4172 100.737 96.4416 101.514 96.8913C102.29 97.3411 104.581 96.9813 105.166 96.349C105.75 95.7167 102.231 73.1526 102.231 73.1526L119.411 55.6443L104.136 46.9509Z" fill="#19588F"/>
<path d="M117.869 38.5563C119.12 39.2892 137.148 49.3873 142.091 53.9377C144.774 53.2392 171.325 44.0644 171.677 44.2734C172.029 44.4824 174.644 46.4798 174.644 46.9507C174.644 47.4216 147.399 69.065 140.05 69.065C137.367 69.065 111.595 54.1096 104.144 46.9507C103.392 42.9427 114.406 36.5245 117.869 38.5563Z" fill="#317EC2"/>
<path d="M106.3 23.8632C109.013 22.9134 117.845 37.8847 117.845 38.5566C117.845 39.2286 105.371 47.041 104.109 46.951C102.848 46.8611 93.511 28.3421 106.3 23.8632Z" fill="#F2A922"/>
<path d="M97.6344 18.2546C97.2689 18.2229 96.0551 16.7228 96.7034 13.3683C97.4876 12.3497 100.086 12.0269 100.171 13.1804C100.257 14.3339 98.7494 18.3578 97.6344 18.2546Z" fill="#0C3559"/>
<path d="M103.077 27.4821C103.168 28.1461 106.854 27.6937 106.756 26.9821L106.142 22.5481L102.463 23.0481L103.077 27.4821Z" fill="#E5D6C6"/>
<path d="M106.508 25.1964C106.454 24.8023 105.355 23.5668 104.686 23.8895C105.51 23.4689 105.795 22.3789 106.142 22.5482L106.508 25.1964Z" fill="#0C3559"/>
<path d="M102.22 24.5615C104.884 24.5615 107.044 22.42 107.044 19.7783C107.044 17.1366 104.884 14.9951 102.22 14.9951C99.5568 14.9951 97.3975 17.1366 97.3975 19.7783C97.3975 22.42 99.5568 24.5615 102.22 24.5615Z" fill="#E5D6C6"/>
<path d="M97.5619 21.342C98.0025 21.2802 98.3334 21.046 98.301 20.8189C98.2686 20.5917 97.8852 20.4577 97.4447 20.5195C97.0041 20.5813 96.6732 20.8155 96.7056 21.0426C96.738 21.2697 97.1214 21.4038 97.5619 21.342Z" fill="#ECADAD"/>
<path d="M102.547 20.7995C102.988 20.7394 103.319 20.5065 103.288 20.2793C103.257 20.052 102.874 19.9165 102.433 19.9765C101.992 20.0365 101.66 20.2694 101.692 20.4967C101.723 20.724 102.106 20.8595 102.547 20.7995Z" fill="#ECADAD"/>
<path d="M99.3052 19.9529C99.1852 20.183 98.5423 21.1751 99.4012 21.4212" stroke="#0C3559" stroke-width="0.2" stroke-miterlimit="10" stroke-linecap="round"/>
<path d="M101.148 22.2386C101.388 22.1989 101.716 21.8603 101.876 21.5667" stroke="#0C3559" stroke-width="0.2" stroke-miterlimit="10" stroke-linecap="round"/>
<path d="M103.972 9.47114C110.356 9.47114 114.939 10.5108 117.924 10.5108C122.52 10.5108 126.148 8.46582 131.302 8.46582C133.649 8.46582 139.66 10.4447 139.66 17.1433C139.66 20.9397 137.525 28.4795 128.384 28.4795C120.557 28.4795 119.194 25.1964 116.019 25.1964C112.674 25.1964 106.453 26.7599 105.405 22.5297C105.175 21.4053 104.919 20.027 104.292 18.8946C100.8 17.6856 99.6667 17.7914 98.0155 16.8232C95.6306 15.6988 95.5159 9.47114 103.972 9.47114Z" fill="#0C3559"/>
<path d="M105.165 20.6593C105.752 20.6593 106.227 20.1879 106.227 19.6064C106.227 19.0249 105.752 18.5535 105.165 18.5535C104.579 18.5535 104.104 19.0249 104.104 19.6064C104.104 20.1879 104.579 20.6593 105.165 20.6593Z" fill="#E5D6C6"/>
<path d="M104.92 96.2219C105.005 96.6029 105.613 98.8252 105.37 99.2749C104.93 100.084 100.072 100.82 99.8004 100.645C99.5283 100.471 99.2855 100.037 99.4563 99.8516C99.627 99.6665 101.446 98.8728 101.665 98.64C101.884 98.4072 102.031 97.3833 101.782 96.9071" fill="#0C3559"/>
<path d="M75.8086 102.759H125.399" stroke="#CBCBCB" stroke-linecap="round" stroke-linejoin="round"/>
<path d="M82.6934 36.5486L86.3026 34.2522" stroke="#A3A3A3" stroke-width="2" stroke-miterlimit="10" stroke-linecap="round"/>
<path d="M83.8506 36.874C84.9732 36.874 85.8833 36.3599 85.8833 35.7258C85.8833 35.0917 84.9732 34.5776 83.8506 34.5776C82.728 34.5776 81.8179 35.0917 81.8179 35.7258C81.8179 36.3599 82.728 36.874 83.8506 36.874Z" fill="#E5D6C6"/>
<path d="M82.2695 38.1701C83.3922 38.1701 84.3023 37.6561 84.3023 37.022C84.3023 36.3878 83.3922 35.8738 82.2695 35.8738C81.1469 35.8738 80.2368 36.3878 80.2368 37.022C80.2368 37.6561 81.1469 38.1701 82.2695 38.1701Z" fill="#E5D6C6"/>
<path d="M78.8281 39.0063L81.5518 37.2734" stroke="#A3A3A3" stroke-width="2" stroke-miterlimit="10" stroke-linecap="round"/>
<path d="M106.227 40.4586C104.966 41.6597 99.6356 46.6413 98.3525 46.6413C94.7779 46.6413 83.8381 40.001 83.0858 38.1755C82.8964 37.6755 84.1848 36.3977 84.5423 36.3977C84.8998 36.3977 92.6999 40.4772 96.6159 40.1174C98.75 39.9269 102.874 32.4981 105.179 30.0483" fill="#F2A922"/>
<path d="M70.0489 108.511C73.2297 108.511 75.8083 105.953 75.8083 102.799C75.8083 99.6444 73.2297 97.0872 70.0489 97.0872C66.8681 97.0872 64.2896 99.6444 64.2896 102.799C64.2896 105.953 66.8681 108.511 70.0489 108.511Z" stroke="#A3A3A3" stroke-miterlimit="10"/>
<path d="M131.158 108.511C134.339 108.511 136.918 105.953 136.918 102.799C136.918 99.6444 134.339 97.0872 131.158 97.0872C127.977 97.0872 125.399 99.6444 125.399 102.799C125.399 105.953 127.977 108.511 131.158 108.511Z" stroke="#A3A3A3" stroke-miterlimit="10"/>
<path d="M99.8027 37.1306C100.768 35.8766 101.865 34.2893 102.801 32.9612" stroke="#0C3559" stroke-width="0.2" stroke-linecap="round" stroke-linejoin="round"/>
<path d="M106.227 40.4587C105.595 41.0593 103.949 42.6043 102.297 44.0012" stroke="#0C3559" stroke-width="0.2" stroke-linecap="round" stroke-linejoin="round"/>
<path d="M104.758 41.9983C104.398 42.3237 102.538 44.9428 103.08 45.7391C102.389 44.4772 102.197 44.0856 102.197 44.0856" fill="#111111"/>
</svg>
