<svg width="160" height="160" viewBox="0 0 160 160" fill="none" xmlns="http://www.w3.org/2000/svg">
<circle cx="80" cy="80" r="79" stroke="#317EC2" stroke-width="2"/>
<path d="M79.9995 57.832C67.3875 57.832 57.127 68.0928 57.127 80.7046C57.127 93.3164 67.3875 103.577 79.9995 103.577C92.6115 103.577 102.872 93.3166 102.872 80.7046C102.872 68.0926 92.6115 57.832 79.9995 57.832ZM98.9552 78.1728C96.7035 78.7765 92.7146 79.4506 90.7556 77.3913C90.2719 76.882 89.8565 76.354 89.4549 75.8433C88.3241 74.4055 87.0426 72.776 84.5516 72.4019C82.3474 72.0711 80.733 73.0724 79.5538 73.8031C79.035 74.1248 78.3902 74.5231 78.1547 74.4642C73.1749 73.1735 73.5347 69.176 74.4587 64.4737C74.6286 63.6087 74.7668 62.9058 74.8118 62.2972C76.4621 61.8314 78.2021 61.5822 79.9995 61.5822C89.6856 61.582 97.7126 68.8208 98.9552 78.1728ZM70.734 63.9803C70.3356 66.0147 69.8413 68.7246 70.3699 71.3236C71.0719 74.7743 73.4383 77.1156 77.2144 78.0942C79.002 78.5573 80.403 77.6883 81.5291 76.9906C82.536 76.3664 83.1937 75.9895 83.9953 76.1105C84.9733 76.2571 85.4721 76.8453 86.5071 78.1615C86.9407 78.7128 87.4322 79.3377 88.0376 79.975C89.8856 81.9173 92.4283 82.5185 94.8686 82.5185C96.3731 82.5183 97.8386 82.2897 99.078 82.006C98.9179 84.3769 98.3237 86.6309 97.3744 88.6885C96.1245 87.7428 94.6035 86.6183 93.7997 86.1241C91.1031 84.4664 88.5572 83.9941 86.2327 84.7208C82.5919 85.8588 80.5742 89.6269 79.3731 92.3626C78.0202 95.4443 75.5143 97.1314 73.0078 98.4955C73.0048 98.497 73.002 98.4989 72.999 98.5004C71.5935 97.9456 70.269 97.2288 69.0484 96.3732C69.1688 96.3046 69.2891 96.2361 69.4089 96.1681C71.6321 94.9064 74.1521 93.4759 74.1165 90.6762C74.0983 89.2489 73.1717 88.1178 72.1909 86.9204C71.3571 85.9023 70.4119 84.7486 70.0389 83.4149C69.6489 82.0201 69.4397 80.4018 69.417 78.605C69.3705 74.9086 67.5469 71.5433 64.5486 69.449C66.1854 67.2085 68.2971 65.3358 70.734 63.9803ZM60.877 80.7046C60.877 77.8463 61.5073 75.1325 62.6364 72.6948C64.5077 74.1102 65.6379 76.2811 65.6679 78.6522C65.6948 80.7743 65.9505 82.7166 66.4281 84.4246C67.0127 86.5161 68.2757 88.0579 69.2904 89.2968C69.6996 89.7961 70.2538 90.4726 70.3644 90.7707C70.2863 91.3587 68.6505 92.287 67.5583 92.9069C67.0616 93.1889 66.5561 93.4758 66.0615 93.7836C62.8478 90.3612 60.877 85.7586 60.877 80.7046ZM79.9995 99.8271C79.3519 99.8271 78.7117 99.7947 78.0804 99.7315C79.7917 98.4306 81.6246 96.5629 82.8069 93.8699C83.7133 91.8051 85.1707 88.9816 87.3517 88.2998C88.5952 87.9113 90.104 88.2541 91.8362 89.3187C92.5316 89.7464 94.1132 90.9199 95.4615 91.9446C91.9811 96.7189 86.3466 99.8271 79.9995 99.8271Z" fill="#317EC2"/>
<path d="M127.655 79.6207C127.439 79.3158 122.266 72.0695 113.848 64.7229C108.88 60.3873 103.813 56.9274 98.7858 54.4389C92.4222 51.2885 86.1018 49.6914 80.0002 49.6914C73.8986 49.6914 67.5781 51.2887 61.2146 54.4389C56.1877 56.9274 51.12 60.3873 46.1522 64.7229C37.7338 72.0695 32.5614 79.3158 32.3452 79.6207C31.8849 80.2702 31.8849 81.1396 32.3452 81.7889C32.5612 82.0938 37.7336 89.3399 46.1518 96.6867C51.1196 101.022 56.1873 104.482 61.2142 106.971C67.5778 110.121 73.8982 111.718 79.9998 111.718C86.1014 111.718 92.4219 110.121 98.7854 106.971C103.812 104.482 108.88 101.022 113.848 96.6867C122.266 89.3399 127.438 82.0938 127.654 81.7889C128.115 81.1394 128.115 80.2702 127.655 79.6207ZM111.382 93.8613C104.008 100.297 92.5781 107.968 80 107.968C67.4482 107.968 56.0401 100.327 48.6804 93.9162C42.4387 88.4797 37.9644 82.9766 36.2162 80.7043C37.9556 78.4415 42.396 72.9779 48.6176 67.5483C55.9918 61.1128 67.422 53.4414 80 53.4414C92.5518 53.4414 103.96 61.083 111.32 67.4934C117.561 72.9299 122.035 78.4327 123.784 80.7054C122.044 82.9681 117.604 88.4317 111.382 93.8613Z" fill="#317EC2"/>
<path d="M80 45.6811C81.0356 45.6811 81.875 44.8415 81.875 43.8061V40.9346C81.875 39.8992 81.0356 39.0596 80 39.0596C78.9644 39.0596 78.125 39.8992 78.125 40.9346V43.8063C78.125 44.8417 78.9644 45.6811 80 45.6811Z" fill="#317EC2"/>
<path d="M52.2567 53.3965C52.6229 53.7625 53.1027 53.9457 53.5825 53.9457C54.0623 53.9457 54.5423 53.7625 54.9083 53.3965C55.6405 52.6643 55.6405 51.477 54.9083 50.7447L52.8777 48.714C52.1455 47.982 50.9583 47.982 50.2259 48.714C49.4937 49.4462 49.4937 50.6335 50.2259 51.3658L52.2567 53.3965Z" fill="#317EC2"/>
<path d="M106.418 53.9447C106.898 53.9447 107.378 53.7615 107.744 53.3955L109.774 51.3649C110.507 50.6327 110.507 49.4454 109.774 48.7131C109.042 47.9811 107.855 47.9811 107.123 48.7131L105.092 50.7437C104.36 51.4759 104.36 52.6631 105.092 53.3955C105.458 53.7617 105.938 53.9447 106.418 53.9447Z" fill="#317EC2"/>
<path d="M80 115.729C78.9644 115.729 78.125 116.568 78.125 117.604V120.475C78.125 121.51 78.9644 122.35 80 122.35C81.0356 122.35 81.875 121.51 81.875 120.475V117.604C81.875 116.568 81.0356 115.729 80 115.729Z" fill="#317EC2"/>
<path d="M107.744 108.013C107.012 107.281 105.824 107.281 105.092 108.013C104.36 108.745 104.36 109.932 105.092 110.665L107.123 112.695C107.489 113.061 107.969 113.244 108.449 113.244C108.928 113.244 109.408 113.061 109.774 112.695C110.507 111.963 110.507 110.776 109.774 110.044L107.744 108.013Z" fill="#317EC2"/>
<path d="M52.2575 108.014L50.2269 110.045C49.4947 110.777 49.4947 111.964 50.2269 112.696C50.5931 113.062 51.0729 113.245 51.5527 113.245C52.0325 113.245 52.5125 113.062 52.8785 112.696L54.9091 110.666C55.6413 109.933 55.6413 108.746 54.9091 108.014C54.1769 107.282 52.9897 107.282 52.2575 108.014Z" fill="#317EC2"/>
</svg>
