<svg width="416" height="474" viewBox="0 0 416 474" fill="none" xmlns="http://www.w3.org/2000/svg">
<path d="M112 121.914C112 112.616 135.527 110.645 144.825 110.645C163.682 110.645 164.93 100.058 180.588 100.058C194.356 100.058 201.354 110.989 214.173 110.989C241.679 110.99 247.804 79.9186 274.562 79.9186C301.788 79.9186 300.397 112.354 325.733 112.354C338.613 112.354 416 114.738 416 121.919L112 121.914Z" fill="#E9E9E9"/>
<path d="M307.615 195.786C308.744 197.337 317.077 203.681 320.368 206.604C323.658 209.527 330.554 218.975 327.824 221.686C325.093 224.398 319.268 224.775 315.865 219.735C312.463 214.696 302.826 203.928 299.952 201.805C297.079 199.682 307.615 195.786 307.615 195.786Z" fill="#E5D6C6"/>
<path d="M36.972 97.4569C33.3035 95.6088 2.8903 78.2972 2.66313 78.3658C0.669405 79.5351 -0.427597 81.0029 1.80796 82.7584C2.67559 83.4366 7.55299 86.3792 13.1932 89.6577C12.2433 91.1166 11.7648 92.8323 11.8225 94.5723C11.8803 96.3123 12.4716 97.9925 13.5162 99.3852C14.5608 100.778 16.0083 101.816 17.6626 102.358C19.3169 102.901 21.0979 102.922 22.7644 102.418C23.4235 102.211 24.0554 101.927 24.6468 101.57L29.6249 104.812L34.4026 100.952L33.4293 100.365L36.972 97.4569Z" fill="#E5D6C6"/>
<path d="M157.734 367.71C158.165 368.9 163.349 378.202 162.762 379.743C161.7 382.544 146.491 386.929 145.539 386.481C144.587 386.034 143.646 384.726 144.115 384.089C144.584 383.452 150.066 380.112 150.661 379.271C150.992 378.358 151.131 377.388 151.072 376.419C151.012 375.451 150.755 374.505 150.315 373.639" fill="#042039"/>
<path d="M219.591 193.143C227.63 195.802 353.098 371.82 352.957 375.249C352.816 378.678 345.776 382.688 342.525 381.781C339.274 380.875 259.618 303.144 256.022 301.212C252.427 299.28 199.284 269.35 188.754 254.424C178.224 239.497 219.591 193.143 219.591 193.143Z" fill="#203999"/>
<path d="M206.992 184.792C211.852 185.723 227.669 194.055 231.526 206.833C242.421 242.934 211.464 260.226 199.579 263.587C187.694 266.948 139.463 283.725 119.087 283.084C121.995 289.845 147.265 351.139 158.615 367.786C157.996 370.805 151.394 375.299 149.755 374.595C136.679 369.237 78.5332 288.511 77.2231 282.003C74.2537 267.315 199.87 188.966 206.992 184.792Z" fill="#3C54AF"/>
<path d="M147.777 134.147C147.964 136.923 163.291 136.131 163.102 133.138L161.879 114.51L146.571 115.555L147.777 134.147Z" fill="#E5D6C6"/>
<path d="M162.608 125.638C162.5 123.976 158.34 118.512 155.484 119.674C158.999 118.159 160.504 113.705 161.883 114.506L162.608 125.638Z" fill="#042039"/>
<path d="M152.299 120.935C162.846 117.752 168.815 106.621 165.632 96.074C162.449 85.5269 151.318 79.5573 140.771 82.7406C130.224 85.9238 124.254 97.0544 127.438 107.601C130.621 118.149 141.751 124.118 152.299 120.935Z" fill="#E5D6C6"/>
<path d="M129.901 105.609C129.839 104.654 128.303 103.977 126.47 104.097C124.638 104.217 123.203 105.088 123.266 106.043C123.328 106.998 124.864 107.675 126.697 107.555C128.529 107.435 129.964 106.564 129.901 105.609Z" fill="#BF9972"/>
<path d="M150.769 104.24C150.706 103.285 149.17 102.608 147.338 102.728C145.505 102.848 144.07 103.72 144.133 104.674C144.195 105.629 145.732 106.306 147.564 106.186C149.396 106.066 150.831 105.195 150.769 104.24Z" fill="#BF9972"/>
<path d="M134.453 101.712C133.885 102.639 130.946 106.565 134.401 107.857" stroke="#042039" stroke-width="0.69" stroke-miterlimit="10" stroke-linecap="round"/>
<path d="M141.384 111.764C142.727 111.319 143.864 110.403 144.584 109.185" stroke="#042039" stroke-width="0.69" stroke-miterlimit="10" stroke-linecap="round"/>
<path d="M155.002 96.1714C153.747 91.8436 135.637 86.4606 129.298 91.756C131.728 87.6436 135.554 84.5399 140.079 83.0091C144.603 81.4783 149.527 81.6221 153.955 83.4142C158.383 85.2064 162.021 88.5279 164.207 92.7751C166.394 97.0222 166.983 101.913 165.869 106.558C163.271 105.345 156.229 100.236 155.002 96.1714Z" fill="#042039"/>
<path d="M161.719 104.107C164.042 103.406 165.357 100.954 164.656 98.6313C163.955 96.3084 161.504 94.9937 159.181 95.6947C156.858 96.3958 155.543 98.8473 156.244 101.17C156.945 103.493 159.397 104.808 161.719 104.107Z" fill="#E5D6C6"/>
<path d="M35.0137 96.5097C37.5676 97.6823 89.8033 125.306 97.0933 124.906C121.655 123.55 202.409 123.374 233.792 136.052C265.066 144.329 310.335 193.085 309.936 195.417C309.537 197.75 299.803 205.955 297.214 205.634C294.626 205.312 250.304 171.472 244.641 170.169C238.977 168.865 195.777 161.659 195.777 161.659C198.851 165.438 209.46 182.212 209.462 184.981C209.463 187.749 196.408 203.714 167.368 215.432C163.779 214.571 139.317 165.672 139.317 165.672C132.104 164.754 83.2862 155.063 70.5138 146.236C65.5623 142.81 25.8077 109.276 25.1825 107.205C24.5574 105.133 35.0137 96.5097 35.0137 96.5097Z" fill="#AFBBE8"/>
<path d="M162.172 169.615C159.204 169.337 139.457 165.585 139.457 165.585" stroke="#042039" stroke-width="0.55" stroke-miterlimit="10" stroke-linecap="round"/>
<path d="M165.916 126.058C168.376 127.703 189.099 150.265 195.872 161.988" stroke="#042039" stroke-width="0.55" stroke-miterlimit="10" stroke-linecap="round"/>
<path d="M351.467 375.492C352.784 376.122 356.554 379.569 357.148 381.096C360.022 388.394 355.442 402.499 354.138 402.905C350.349 404.048 347.782 402.632 347.072 400.282C346.363 397.933 348.339 394.205 347.864 392.632C347.389 391.06 344.202 381.768 343.516 380.451" fill="#042039"/>
<line x1="230.657" y1="321" x2="285" y2="375.343" stroke="#E9E9E9" stroke-width="8" stroke-linecap="round"/>
<line x1="342.657" y1="329" x2="397" y2="383.343" stroke="#E9E9E9" stroke-width="8" stroke-linecap="round"/>
<line x1="356.657" y1="285" x2="411" y2="339.343" stroke="#E9E9E9" stroke-width="8" stroke-linecap="round"/>
<path d="M240.621 162.186C231.742 139.996 194.2 132.6 188.437 127.275L152.466 124.03C150.563 127.194 147.564 149.966 155.217 166.026C164.782 186.101 178.473 188.858 171.975 221.552C165.478 254.247 177.972 277.363 182.821 288.264C186.7 296.984 206.165 321.062 205.417 332.356C207.822 333.868 223.951 301.442 237.665 297.303C254.806 292.13 246.624 321.333 270.517 312.708C294.41 304.084 297.325 279.297 309.467 275.632C321.609 271.968 361.192 267.793 365.47 258.73C369.749 249.667 300.982 241.063 293.431 222.499C285.88 203.936 251.72 189.923 240.621 162.186Z" fill="#F2A922"/>
<path d="M19 217.995C19 208.697 42.5269 206.726 51.8247 206.726C70.682 206.726 71.9303 196.14 87.5878 196.14C101.356 196.14 108.354 207.07 121.173 207.07C148.679 207.071 154.804 176 181.562 176C208.788 176 207.397 208.435 232.733 208.435C245.613 208.435 323 210.82 323 218L19 217.995Z" fill="#E9E9E9"/>
</svg>
