<svg width="240" height="240" viewBox="0 0 240 240" fill="none" xmlns="http://www.w3.org/2000/svg">
<circle r="120" transform="matrix(-1 0 0 1 120 120)" fill="white"/>
<mask id="mask0" mask-type="alpha" maskUnits="userSpaceOnUse" x="0" y="0" width="240" height="240">
<circle r="120" transform="matrix(-1 0 0 1 120 120)" fill="#C4C4C4"/>
</mask>
<g mask="url(#mask0)">
<path d="M151.614 201.88C137.654 201.88 126.338 199.378 126.338 196.293C126.338 193.207 137.654 190.705 151.614 190.705C165.574 190.705 176.891 193.207 176.891 196.293C176.891 199.378 165.574 201.88 151.614 201.88Z" fill="#074E4D"/>
<path d="M151.615 196.293L165.813 240.73" stroke="#074E4D" stroke-width="4" stroke-miterlimit="10" stroke-linecap="round"/>
<path d="M151.616 196.293L137.418 240.73" stroke="#074E4D" stroke-width="4" stroke-miterlimit="10" stroke-linecap="round"/>
<path d="M161.152 226.141L145.324 215.991" stroke="#074E4D" stroke-width="2" stroke-miterlimit="10" stroke-linecap="round"/>
<path d="M157.972 215.991L142.139 226.141" stroke="#074E4D" stroke-width="2" stroke-miterlimit="10" stroke-linecap="round"/>
<path d="M126.739 148.19C126.803 150.161 126.775 157.062 127.1 160.014" stroke="#074E4D" stroke-miterlimit="10" stroke-linecap="round"/>
<path d="M208.056 60.9182C208.056 59.5179 209.191 58.3828 210.592 58.3828C211.992 58.3828 213.127 59.5179 213.127 60.9182V69.6691C213.127 71.0694 211.992 72.2045 210.592 72.2045C209.191 72.2045 208.056 71.0694 208.056 69.6691V60.9182Z" fill="#074E4D"/>
<path d="M210.592 86.9151C207.783 86.9151 205.506 84.6378 205.506 81.8286C205.506 79.0195 207.783 76.7422 210.592 76.7422C213.401 76.7422 215.679 79.0195 215.679 81.8286C215.679 84.6378 213.401 86.9151 210.592 86.9151Z" fill="#FAD897"/>
<path d="M40.5399 142.239H38.1367C37.8847 142.238 37.6435 142.137 37.4654 141.959C37.2872 141.781 37.1865 141.54 37.185 141.288V126.515C37.1847 126.39 37.2093 126.266 37.2574 126.151C37.3054 126.035 37.376 125.931 37.4649 125.843L40.5007 122.807C40.6787 122.629 40.9204 122.528 41.1725 122.527H50.1401C50.3921 122.529 50.6333 122.63 50.8114 122.808C50.9896 122.986 51.0903 123.227 51.0918 123.479V124.905" fill="#FAD897"/>
<path d="M245.036 159.797C239.24 161.477 243.682 196.536 254.78 193.308C265.258 190.265 252.086 157.746 245.036 159.797Z" fill="#19588F"/>
<path d="M235.478 187.69C231.473 191.143 247.766 217.553 255.464 210.922C262.734 204.685 240.369 183.493 235.478 187.69Z" fill="#317EC2"/>
<path d="M44.5783 124.904H53.3897C53.531 124.904 53.6709 124.932 53.8014 124.986C53.9319 125.041 54.0504 125.12 54.1501 125.22C54.2499 125.32 54.3288 125.439 54.3825 125.57C54.4362 125.701 54.4635 125.841 54.4629 125.982V143.525C54.4629 143.81 54.35 144.083 54.1488 144.285C53.9477 144.487 53.6748 144.601 53.3897 144.602H41.6186C41.3336 144.601 41.0606 144.487 40.8595 144.285C40.6583 144.083 40.5454 143.81 40.5454 143.525V128.946C40.5449 128.804 40.5723 128.665 40.6259 128.534C40.6795 128.404 40.7583 128.285 40.8578 128.185L43.8214 125.221C44.0218 125.02 44.294 124.906 44.5783 124.904Z" fill="#CBCBCB"/>
<path d="M40.5405 128.525H43.5321C43.6914 128.525 43.8442 128.462 43.9569 128.349C44.0695 128.237 44.1328 128.084 44.1328 127.924V124.904" fill="#A3A3A3"/>
<path d="M37.1718 126.15H40.164C40.324 126.149 40.4772 126.085 40.5903 125.972C40.7035 125.859 40.7675 125.706 40.7686 125.546V122.525" fill="#317EC2"/>
<path d="M54.9331 104.852H74.6182C75.555 104.852 76.3145 105.611 76.3145 106.548V112.327C76.3145 113.264 75.555 114.023 74.6182 114.023H54.9331C53.9963 114.023 53.2368 113.264 53.2368 112.327V106.548C53.2368 105.611 53.9963 104.852 54.9331 104.852Z" fill="#317EC2"/>
<path d="M64.7801 120.311L62.0006 111.892H67.5596L64.7801 120.311Z" fill="#317EC2"/>
<path d="M70.2862 107.294L72.6172 111.325H67.9596L70.2862 107.294Z" fill="white"/>
<path d="M59.2686 111.328L56.9375 107.298H61.5996L59.2686 111.328Z" fill="white"/>
<path d="M64.7797 111.064C63.813 111.064 63.0292 110.28 63.0292 109.313C63.0292 108.346 63.813 107.562 64.7797 107.562C65.7465 107.562 66.5303 108.346 66.5303 109.313C66.5303 110.28 65.7465 111.064 64.7797 111.064Z" fill="white"/>
<path d="M67.0005 85.4141H79.7099C80.5292 85.4141 81.1934 86.0782 81.1934 86.8976V94.2479C81.1934 95.0672 80.5292 95.7314 79.7099 95.7314H67.0005C66.1812 95.7314 65.517 95.0672 65.517 94.2479V86.8976C65.517 86.0782 66.1812 85.4141 67.0005 85.4141Z" fill="#CBCBCB"/>
<path d="M80.7012 85.7383L73.3559 90.5722" stroke="#A3A3A3" stroke-width="0.82" stroke-linecap="round" stroke-linejoin="round"/>
<path d="M65.5166 85.4141L73.3545 90.5727" stroke="#A3A3A3" stroke-width="0.82" stroke-linecap="round" stroke-linejoin="round"/>
<path d="M65.5166 87.6572C64.2777 87.6572 63.2734 86.6529 63.2734 85.4141C63.2734 84.1752 64.2777 83.1709 65.5166 83.1709C66.7555 83.1709 67.7598 84.1752 67.7598 85.4141C67.7598 86.6529 66.7555 87.6572 65.5166 87.6572Z" fill="#FAD897"/>
<path d="M64.752 87.0752H65.0723V84.6553C65.097 84.68 65.1335 84.7087 65.1816 84.7412C65.2285 84.7725 65.2819 84.8037 65.3418 84.835C65.4004 84.8662 65.4629 84.8955 65.5293 84.9229C65.5944 84.9502 65.6582 84.9717 65.7207 84.9873V84.6631C65.6504 84.6436 65.5762 84.6175 65.498 84.585C65.4186 84.5511 65.3411 84.514 65.2656 84.4736C65.1888 84.432 65.1165 84.389 65.0488 84.3447C64.9811 84.2992 64.9225 84.2549 64.873 84.2119H64.752V87.0752Z" fill="white"/>
<path d="M-13.0005 91.7061H45.1705C45.5267 91.7061 45.8154 91.9948 45.8154 92.351C45.8154 92.7071 45.5267 92.9959 45.1705 92.9959H-13.0005C-13.3566 92.9959 -13.6454 92.7071 -13.6454 92.351C-13.6454 91.9948 -13.3566 91.7061 -13.0005 91.7061Z" fill="#CBCBCB"/>
<path d="M21.0292 66.0967H23.7661C24.5576 66.0967 25.1992 66.7383 25.1992 67.5298V90.2726C25.1992 91.0641 24.5576 91.7058 23.7661 91.7058H21.0292C20.2377 91.7058 19.5961 91.0641 19.5961 90.2726V67.5298C19.5961 66.7383 20.2377 66.0967 21.0292 66.0967Z" fill="#A3A3A3"/>
<path d="M17.9865 72.0996H18.4053C19.0638 72.0996 19.5977 72.6335 19.5977 73.292V90.5123C19.5977 91.1709 19.0638 91.7047 18.4053 91.7047H17.9865C17.328 91.7047 16.7941 91.1709 16.7941 90.5123V73.292C16.7941 72.6335 17.328 72.0996 17.9865 72.0996Z" fill="#CBCBCB"/>
<path d="M15.1426 72.0996H15.6398C16.2767 72.0996 16.793 72.6159 16.793 73.2528V90.5515C16.793 91.1884 16.2767 91.7047 15.6398 91.7047H15.1426C14.5057 91.7047 13.9894 91.1884 13.9894 90.5515V73.2528C13.9894 72.6159 14.5057 72.0996 15.1426 72.0996Z" fill="#A3A3A3"/>
<path d="M13.0997 73.6508L13.4091 73.7928C14.0272 74.0766 14.2983 74.8078 14.0145 75.4259L6.86228 91.0045C6.57849 91.6226 5.84732 91.8937 5.22917 91.6099L4.91984 91.4679C4.30169 91.1841 4.03064 90.4529 4.31444 89.8348L11.4666 74.2562C11.7504 73.638 12.4816 73.367 13.0997 73.6508Z" fill="#CBCBCB"/>
<path d="M22.402 85.2253C21.5372 85.2253 20.8362 84.5243 20.8362 83.6595C20.8362 82.7948 21.5372 82.0938 22.402 82.0938C23.2667 82.0938 23.9678 82.7948 23.9678 83.6595C23.9678 84.5243 23.2667 85.2253 22.402 85.2253Z" fill="#CBCBCB"/>
<path d="M20.9837 86.1621H23.8186C24.0266 86.1621 24.1953 86.3307 24.1953 86.5386C24.1953 86.7465 24.0266 86.9151 23.8186 86.9151H20.9837C20.7756 86.9151 20.6069 86.7465 20.6069 86.5386C20.6069 86.3307 20.7756 86.1621 20.9837 86.1621Z" fill="#CBCBCB"/>
<path d="M20.9837 88.0898H23.8186C24.0266 88.0898 24.1953 88.2584 24.1953 88.4663C24.1953 88.6742 24.0266 88.8428 23.8186 88.8428H20.9837C20.7756 88.8428 20.6069 88.6742 20.6069 88.4663C20.6069 88.2584 20.7756 88.0898 20.9837 88.0898Z" fill="#CBCBCB"/>
<path d="M49.677 126.716H52.5119C52.72 126.716 52.8887 126.884 52.8887 127.092C52.8887 127.3 52.72 127.469 52.5119 127.469H49.677C49.469 127.469 49.3003 127.3 49.3003 127.092C49.3003 126.884 49.469 126.716 49.677 126.716Z" fill="#A3A3A3"/>
<path d="M49.677 128.525H52.5119C52.72 128.525 52.8887 128.694 52.8887 128.902C52.8887 129.11 52.72 129.278 52.5119 129.278H49.677C49.469 129.278 49.3003 129.11 49.3003 128.902C49.3003 128.694 49.469 128.525 49.677 128.525Z" fill="#A3A3A3"/>
<path d="M42.3224 131.622H52.675C52.8831 131.622 53.0518 131.791 53.0518 131.999C53.0518 132.206 52.8831 132.375 52.675 132.375H42.3224C42.1144 132.375 41.9457 132.206 41.9457 131.999C41.9457 131.791 42.1144 131.622 42.3224 131.622Z" fill="#A3A3A3"/>
<path d="M42.3224 133.4H52.675C52.8831 133.4 53.0518 133.569 53.0518 133.777C53.0518 133.985 52.8831 134.153 52.675 134.153H42.3224C42.1144 134.153 41.9457 133.985 41.9457 133.777C41.9457 133.569 42.1144 133.4 42.3224 133.4Z" fill="#A3A3A3"/>
<path d="M42.3224 135.179H52.675C52.8831 135.179 53.0518 135.347 53.0518 135.555C53.0518 135.763 52.8831 135.932 52.675 135.932H42.3224C42.1144 135.932 41.9457 135.763 41.9457 135.555C41.9457 135.347 42.1144 135.179 42.3224 135.179Z" fill="#A3A3A3"/>
<path d="M18.1945 74.7676H18.1951C18.3565 74.7676 18.4873 74.8984 18.4873 75.0598V88.7416C18.4873 88.9029 18.3565 89.0338 18.1951 89.0338H18.1945C18.0331 89.0338 17.9023 88.9029 17.9023 88.7416V75.0598C17.9023 74.8984 18.0331 74.7676 18.1945 74.7676Z" fill="#A3A3A3"/>
<path d="M30.2021 92.3516H32.71C33.2606 92.3516 33.707 92.7979 33.707 93.3486V93.3491C33.707 93.8998 33.2606 94.3462 32.71 94.3462H30.2021C29.6514 94.3462 29.205 93.8998 29.205 93.3491V93.3486C29.205 92.7979 29.6514 92.3516 30.2021 92.3516Z" fill="#CBCBCB"/>
<path d="M-0.540127 92.3516H1.96782C2.51846 92.3516 2.96484 92.7979 2.96484 93.3486V93.3491C2.96484 93.8998 2.51846 94.3462 1.96782 94.3462H-0.540127C-1.09077 94.3462 -1.53715 93.8998 -1.53715 93.3491V93.3486C-1.53715 92.7979 -1.09077 92.3516 -0.540127 92.3516Z" fill="#CBCBCB"/>
<path d="M96.0088 94.3018H106.809C110.519 94.3018 113.526 97.3094 113.526 101.019V104.33C113.526 108.04 110.519 111.047 106.809 111.047H96.0088C92.2987 111.047 89.2911 108.04 89.2911 104.33V101.019C89.2911 97.3094 92.2987 94.3018 96.0088 94.3018Z" fill="#CBCBCB"/>
<path d="M104.866 96.9971H108.511V108.352H104.866V96.9971Z" fill="#074E4D"/>
<path d="M99.5846 104.55H103.229V108.355H99.5846V104.55Z" fill="#074E4D"/>
<path d="M94.3043 101.346H97.9492V108.351H94.3043V101.346Z" fill="#074E4D"/>
<path d="M210.59 66.4932C214.658 66.4932 218.559 68.1088 221.435 70.9848C224.312 73.8608 225.928 77.7615 225.929 81.8292H195.251C195.252 77.7615 196.868 73.8608 199.745 70.9848C202.621 68.1088 206.522 66.4932 210.59 66.4932Z" fill="#19588F"/>
<path d="M210.591 61.3032V5.66309" stroke="#074E4D" stroke-width="2" stroke-linecap="round" stroke-linejoin="round"/>
<path d="M90.2762 235.432C90.2762 236.383 90.8332 242.369 89.7237 242.921C88.6141 243.474 76.4187 243.81 75.8656 243.254C75.3125 242.697 74.9805 241.536 75.4653 241.203C75.9501 240.871 80.6715 239.93 81.3131 239.485C81.9546 239.041 82.8391 236.682 82.5144 235.432" fill="#074E4D"/>
<path d="M126.739 157.159L119.874 154.695C120.171 142.171 123.098 114.187 127.256 110.026C128.234 109.052 147.562 107.354 151.011 107.354C171.589 107.354 177.693 109.702 179.243 111.255C184.049 116.061 185.547 138.33 185.547 146.128C185.547 153.926 163.518 157.971 163.518 157.971L137.697 159.745C137.697 159.745 132.034 160.33 127.136 160.619C127.028 159.117 126.739 157.159 126.739 157.159Z" fill="#39BCBA"/>
<path d="M106.285 164.42C104.407 163.863 85.7267 160.815 81.6574 164.82C77.5882 168.825 64.7797 226.248 64.7797 227.569H75.0931L89.015 197.606" fill="#127776"/>
<path d="M174.297 159.313C174.765 161.656 177.581 164.171 177.581 176.936C177.581 194.587 163.122 194.962 157.932 194.962C141.759 194.962 115.593 190.156 113.827 189.275C112.651 191.238 91.0534 235.335 90.9538 236.32H81.0082C81.0082 236.32 87.1723 170.347 98.2946 162.865C101.908 160.459 166.002 157.888 174.297 159.313Z" fill="#8AE6E3"/>
<path d="M116.065 146.408C118.677 146.408 120.832 147.029 126.743 148.191L127.052 159.499C121.445 157.24 120.143 154.1 118.517 154.1C114.455 154.1 112.333 156.195 109.934 156.195C108.259 156.195 105.248 154.881 105.248 153.095C105.245 149.356 112.826 146.408 116.065 146.408Z" fill="#88613A"/>
<path d="M74.5079 226.776C74.5079 227.728 75.0643 233.714 73.9553 234.27C72.8463 234.826 60.6503 235.155 60.0972 234.603C59.5441 234.05 59.2122 232.884 59.6969 232.552C60.1817 232.219 64.9032 231.274 65.5447 230.83C66.1863 230.385 67.0708 228.026 66.7461 226.777" fill="#074E4D"/>
<path d="M147.371 110.017C147.371 111.529 156.138 111.571 156.138 110.017V97.7373H147.371V110.017Z" fill="#88613A"/>
<path d="M150.226 101.786C151.027 101.786 156.138 104.045 156.138 105.307V98.6426C154.864 98.6426 150.226 101.786 150.226 101.786Z" fill="#074E4D"/>
<path d="M148.532 102.307C142.67 102.307 137.919 97.5552 137.919 91.6935C137.919 85.8319 142.67 81.0801 148.532 81.0801C154.394 81.0801 159.146 85.8319 159.146 91.6935C159.146 97.5552 154.394 102.307 148.532 102.307Z" fill="#88613A"/>
<path d="M137.577 83.3644C138.891 85.4513 141.638 86.4081 144.614 86.4081C147.149 86.4081 150.841 85.6713 153.469 87.1688C154.891 87.9699 156.521 89.7921 156.849 93.4387C156.849 94.0635 157.558 96.4869 157.558 97.2678C157.558 97.8008 158.159 98.149 159.16 98.149C159.677 98.149 160.698 97.3092 160.698 96.034C160.698 94.5561 160.109 94.0315 160.109 92.7776C160.109 91.5236 161.644 90.3222 161.644 86.8369C161.644 81.8182 158.439 78.7263 156.173 78.7263C154.106 78.7263 153.457 79.2072 153.197 79.411C153.197 74.8491 147.189 72.7666 144.806 72.7666C142.082 72.7666 140.8 73.8862 140.8 75.3059C140.8 77.5726 141.882 79.4994 142.43 79.9316C141.188 78.8142 139.575 78.1988 137.904 78.2052C134.784 78.2052 133.735 80.2557 133.735 81.6575C133.735 84.7057 137.391 87.5294 138.753 87.5294C139.096 86.8046 139.498 86.1094 139.955 85.4508" fill="#074E4D"/>
<path d="M156.522 95.3585C155.273 95.3585 154.26 94.3454 154.26 93.0958C154.26 91.8461 155.273 90.833 156.522 90.833C157.772 90.833 158.785 91.8461 158.785 93.0958C158.785 94.3454 157.772 95.3585 156.522 95.3585Z" fill="#88613A"/>
<path d="M137.813 93.6396C136.844 93.6396 136.058 93.2308 136.058 92.7265C136.058 92.2223 136.844 91.8135 137.813 91.8135C138.782 91.8135 139.567 92.2223 139.567 92.7265C139.567 93.2308 138.782 93.6396 137.813 93.6396Z" fill="#694827"/>
<path d="M148.847 93.6396C147.878 93.6396 147.093 93.2308 147.093 92.7265C147.093 92.2223 147.878 91.8135 148.847 91.8135C149.816 91.8135 150.602 92.2223 150.602 92.7265C150.602 93.2308 149.816 93.6396 148.847 93.6396Z" fill="#694827"/>
<path d="M142.099 90.833C141.77 91.3016 140.096 93.2682 141.862 94.0654" stroke="#074E4D" stroke-miterlimit="10" stroke-linecap="round"/>
<path d="M145.401 96.3598C145.929 96.3598 146.744 95.7032 147.171 95.1143" stroke="#074E4D" stroke-miterlimit="10" stroke-linecap="round"/>
<path d="M131.405 124.865C130.604 126.568 126.739 142.989 126.739 148.191" stroke="#074E4D" stroke-miterlimit="10" stroke-linecap="round"/>
<path d="M185.547 144.806C185.547 163.265 185.374 168.621 177.965 168.621C160.887 168.621 135.07 154.602 130.468 154.602C126.403 154.602 124.28 156.701 121.881 156.701C120.211 156.701 117.199 155.383 117.199 153.601C117.199 149.856 124.781 146.908 128.013 146.908C135.29 146.908 164.332 153.926 165.04 153.926C165.749 153.926 166.944 153.617 166.944 152.424C166.944 150.257 165.526 145.25 165.342 144.814L185.547 144.806Z" fill="#88613A"/>
<path d="M161.075 128.706C161.564 130.112 165.373 144.639 165.813 146.409" stroke="#074E4D" stroke-miterlimit="10" stroke-linecap="round"/>
<path d="M16.4711 241.064C16.1834 242.159 15.0624 242.813 13.9673 242.526C12.8722 242.238 12.2176 241.117 12.5052 240.022L32.9899 162.035C33.2776 160.94 34.3986 160.285 35.4937 160.573C36.5888 160.86 37.2434 161.981 36.9558 163.077L16.4711 241.064Z" fill="#A3A3A3"/>
<path d="M37.1839 163.069C36.8963 161.973 37.5509 160.852 38.646 160.565C39.7411 160.277 40.8621 160.932 41.1498 162.027L61.6345 240.014C61.9221 241.109 61.2675 242.23 60.1724 242.518C59.0773 242.805 57.9563 242.151 57.6686 241.056L37.1839 163.069Z" fill="#A3A3A3"/>
<path d="M65.4798 163.069C65.1922 161.973 65.8468 160.852 66.9419 160.565C68.037 160.277 69.158 160.932 69.4457 162.027L89.9304 240.014C90.218 241.109 89.5634 242.23 88.4683 242.518C87.3732 242.805 86.2522 242.151 85.9645 241.056L65.4798 163.069Z" fill="#CBCBCB"/>
<path d="M42.6243 241.103L42.6237 241.102C41.5252 240.819 40.8643 239.699 41.1474 238.601L61.3089 160.372C61.592 159.273 62.712 158.612 63.8105 158.895L63.811 158.895C64.9095 159.178 65.5705 160.298 65.2874 161.397L45.1258 239.626C44.8427 240.725 43.7227 241.386 42.6243 241.103Z" fill="#CBCBCB"/>
<path d="M180.996 163.071C180.709 161.976 181.363 160.855 182.458 160.568C183.554 160.28 184.675 160.935 184.962 162.03L205.447 240.017C205.735 241.112 205.08 242.233 203.985 242.521C202.89 242.808 201.769 242.154 201.481 241.059L180.996 163.071Z" fill="#A3A3A3"/>
<path d="M160.633 241.071C160.346 242.166 159.225 242.82 158.129 242.533C157.034 242.245 156.38 241.124 156.667 240.029L177.152 162.042C177.44 160.947 178.561 160.292 179.656 160.58C180.751 160.867 181.406 161.988 181.118 163.083L160.633 241.071Z" fill="#A3A3A3"/>
<path d="M25.2806 156.715H222.161C223.562 156.715 224.697 157.85 224.697 159.251V160.247C224.697 161.647 223.562 162.783 222.161 162.783H25.2806C23.8801 162.783 22.7447 161.647 22.7447 160.247V159.251C22.7447 157.85 23.8801 156.715 25.2806 156.715Z" fill="#CBCBCB"/>
<path d="M210.304 163.072C210.016 161.977 210.671 160.856 211.766 160.569C212.861 160.281 213.982 160.936 214.27 162.031L234.755 240.018C235.042 241.113 234.388 242.234 233.293 242.522C232.197 242.809 231.076 242.155 230.789 241.06L210.304 163.072Z" fill="#CBCBCB"/>
<path d="M189.942 241.071C189.654 242.167 188.533 242.821 187.438 242.534C186.343 242.246 185.688 241.125 185.976 240.03L206.461 162.043C206.748 160.948 207.869 160.293 208.964 160.581C210.06 160.868 210.714 161.989 210.426 163.084L189.942 241.071Z" fill="#CBCBCB"/>
<path d="M76.2228 156.713H113.274L106.562 133.627C106.394 133.07 106.051 132.582 105.583 132.236C105.115 131.89 104.548 131.705 103.966 131.708H72.5258C72.1129 131.702 71.704 131.792 71.3319 131.971C70.9598 132.15 70.6348 132.414 70.3827 132.741C70.1306 133.068 69.9585 133.45 69.88 133.855C69.8015 134.261 69.8188 134.679 69.9305 135.077L76.2228 156.713Z" fill="#074E4D"/>
<path d="M90.2001 146.476C88.9483 146.476 87.9335 145.461 87.9335 144.209C87.9335 142.957 88.9483 141.942 90.2001 141.942C91.452 141.942 92.4668 142.957 92.4668 144.209C92.4668 145.461 91.452 146.476 90.2001 146.476Z" fill="white"/>
<path d="M108.873 155.092H134.87V156.714H108.873V155.092Z" fill="#074E4D"/>
</g>
</svg>
