<svg width="240" height="240" viewBox="0 0 240 240" fill="none" xmlns="http://www.w3.org/2000/svg">
<circle cx="120" cy="120" r="120" fill="#EAF3FA"/>
<mask id="mask0" mask-type="alpha" maskUnits="userSpaceOnUse" x="0" y="0" width="240" height="240">
<circle cx="120" cy="120" r="120" fill="#EAF3FA"/>
</mask>
<g mask="url(#mask0)">
<path d="M115.438 225.937C115.041 229.171 110.013 271.169 95.0423 301.685C94.3849 310.996 87.4741 368.24 85.1819 370.569C82.8897 372.899 68.5967 374.295 66.9803 372.458C65.3639 370.622 68.968 291.912 67.9295 282.849C66.891 273.787 65.1568 197.044 69.7369 187.233C74.3171 177.423 115.864 222.485 115.438 225.937Z" fill="#042039"/>
<path d="M123.155 187.68C129.709 191.925 170.948 236.159 174.322 247.339C177.697 258.519 177.093 339.13 174.792 341.044C172.49 342.958 164.454 343.726 161.948 341.403C159.441 339.08 139.194 255.236 139.194 255.236C134.936 253.418 82.3147 215.824 72.9287 190.308C63.5426 164.792 123.155 187.68 123.155 187.68Z" fill="#0C3559"/>
<path d="M107.135 114.327C107.51 116.489 95.6106 118.716 95.1875 116.336L92.7063 101.826L104.654 99.8167L107.135 114.327Z" fill="#AA8053"/>
<path d="M94.2116 110.538C93.99 109.241 96.1786 104.292 98.5821 104.656C95.6044 104.142 93.6411 100.997 92.7257 101.868L94.2116 110.538Z" fill="#042039"/>
<path d="M108.691 103.638C116.6 100.038 120.092 90.7086 116.492 82.8003C112.892 74.892 103.563 71.3995 95.6544 74.9996C87.7461 78.5996 84.2536 87.929 87.8537 95.8373C91.4538 103.746 100.783 107.238 108.691 103.638Z" fill="#AA8053"/>
<path d="M120.788 88.2765C120.66 87.533 119.4 87.1282 117.973 87.3724C116.545 87.6166 115.491 88.4172 115.618 89.1607C115.745 89.9041 117.006 90.3089 118.433 90.0647C119.861 89.8206 120.915 89.0199 120.788 88.2765Z" fill="#CFB293"/>
<path d="M104.517 91.0599C104.39 90.3165 103.129 89.9117 101.702 90.1558C100.274 90.4 99.2204 91.2006 99.3475 91.9441C99.4747 92.6876 100.735 93.0924 102.162 92.8482C103.59 92.604 104.644 91.8034 104.517 91.0599Z" fill="#CFB293"/>
<path d="M111.411 87.0083C112.004 87.5958 114.99 90.0865 112.574 91.7096" stroke="#042039" stroke-width="0.69" stroke-miterlimit="10" stroke-linecap="round"/>
<path d="M107.937 95.9899C107.133 96.1072 105.798 95.36 105.012 94.5945" stroke="#042039" stroke-width="0.69" stroke-miterlimit="10" stroke-linecap="round"/>
<path d="M94.5946 86.5347C94.7716 83.0243 107.663 75.5352 113.491 78.43C110.873 75.7103 107.364 74.0226 103.606 73.6748C99.8467 73.327 96.0881 74.3423 93.0156 76.5354C89.9431 78.7285 87.7615 81.9533 86.869 85.6211C85.9765 89.289 86.4325 93.1556 88.1538 96.5152C89.9698 95.0797 94.4544 89.8998 94.5946 86.5347Z" fill="#042039"/>
<path d="M92.5718 93.5438C94.3135 92.7509 95.0827 90.6962 94.2899 88.9545C93.497 87.2128 91.4423 86.4436 89.7006 87.2365C87.9589 88.0294 87.1897 90.084 87.9826 91.8258C88.7755 93.5675 90.8301 94.3366 92.5718 93.5438Z" fill="#AA8053"/>
<path d="M67.7696 191.765C67.7254 187.9 50.6043 30.6057 51.6281 28.579C52.652 26.5524 62.1007 24.7806 63.0085 26.511C64.2695 29.2811 80.3524 106.935 81.2941 108.118C82.2358 109.302 114.234 114.834 114.234 114.834C114.234 114.834 127.15 80.5382 127.311 78.6897C127.473 76.8411 112.958 36.8368 113.136 35.6838C113.314 34.5308 121.578 29.1396 122.288 29.4169C122.997 29.6942 143.828 70.802 144.427 73.4361C145.026 76.0703 133.5 116.997 133.344 118.783C133.188 120.569 127.571 187.53 125.736 189.866C123.901 192.202 91.6773 198.794 67.7696 191.765Z" fill="#5A9FDB"/>
<path d="M61.9545 21.9111C61.2514 18.1927 58.0826 15.6698 54.8767 16.2759C51.6707 16.882 49.6417 20.3877 50.3447 24.1061C51.0477 27.8245 54.2166 30.3475 57.4225 29.7414C60.6285 29.1352 62.6575 25.6295 61.9545 21.9111Z" fill="#AA8053"/>
<path d="M121.39 27.6518C120.687 23.9335 117.518 21.4105 114.312 22.0166C111.106 22.6227 109.077 26.1285 109.78 29.8469C110.483 33.5652 113.652 36.0882 116.858 35.4821C120.064 34.8759 122.093 31.3702 121.39 27.6518Z" fill="#AA8053"/>
<path d="M81.2727 108.128C78.1529 107.679 71.4192 108.069 67.2131 108.869" stroke="#042039" stroke-width="0.55" stroke-miterlimit="10" stroke-linecap="round"/>
<path d="M114.227 114.837C116.339 114.956 118.433 115.299 120.473 115.861" stroke="#042039" stroke-width="0.55" stroke-miterlimit="10" stroke-linecap="round"/>
<path d="M184.51 98.5444L186.99 96.6841L178.62 86.1444C177.38 84.7488 177.07 82.7341 177.845 81.0289C178.775 78.3944 181.72 77.1539 184.355 78.0841L185.285 78.3944L186.37 75.4488L185.44 75.1392C181.255 73.4341 176.45 75.6039 174.9 79.7892C173.815 82.5789 174.28 85.6789 176.14 88.0039L184.51 98.5444Z" fill="#F8BD4F"/>
<path d="M210.705 108.464L222.795 107.069C227.445 106.604 230.855 102.264 230.39 97.6143C230.08 94.3591 227.91 91.7238 224.965 90.4841L223.57 89.8643L222.485 92.8091L223.88 93.429C226.67 94.5143 228.065 97.7694 226.98 100.559C226.205 102.419 224.5 103.814 222.485 103.969L210.395 105.364L210.705 108.464Z" fill="#F8BD4F"/>
<path d="M199.08 110.634L205.125 110.014C212.1 109.394 218.145 104.899 220.78 98.2342L224.81 88.004C225.43 86.454 224.655 84.5945 223.105 83.9739H222.95L190.245 72.1945C188.695 71.5739 186.835 72.504 186.215 74.054L182.805 84.2842C180.79 90.4842 182.03 97.304 186.37 102.264L190.555 107.069L173.97 150.469H167.77C166.53 150.469 165.29 151.244 164.98 152.484L164.05 154.809L186.835 163.799L187.765 161.474C188.23 160.234 187.92 158.994 186.99 158.064L182.495 153.724L199.08 110.634Z" fill="#F2A922"/>
<path d="M192.415 100.249L194.585 98.0791C187.765 91.2592 194.74 79.9445 194.74 79.7894L192.105 78.0842C191.795 78.7041 183.89 91.7239 192.415 100.249Z" fill="#FAEFD9"/>
<path d="M164.98 152.639C165.445 151.399 166.53 150.624 167.77 150.624H173.97L182.495 154.034L186.99 158.374C187.92 159.304 188.23 160.545 187.765 161.784L186.835 164.109L164.05 155.12L164.98 152.639Z" fill="#F8BD4F"/>
<path d="M201.25 123.964L216.75 130.164L210.55 148.92L195.05 142.564L201.25 123.964Z" fill="#0C3559"/>
<path d="M162.5 77.4644V79.0144C162.5 84.1291 166.685 88.3144 171.8 88.3144C166.685 88.3144 162.5 92.4989 162.5 97.6144V99.1644V97.6144C162.5 92.4989 158.315 88.3144 153.2 88.3144C158.315 88.3144 162.5 84.1291 162.5 79.0144V77.4644Z" fill="#FAD897"/>
<path d="M230.7 108.464V110.014C230.7 115.129 234.885 119.314 240 119.314C234.885 119.314 230.7 123.499 230.7 128.614V130.164V128.614C230.7 123.499 226.515 119.314 221.4 119.314C226.515 119.314 230.7 115.129 230.7 110.014V108.464Z" fill="#FAD897"/>
<path d="M156.3 108.464V110.014C156.3 115.129 160.485 119.314 165.6 119.314C160.485 119.314 156.3 123.499 156.3 128.614V130.164V128.614C156.3 123.499 152.115 119.314 147 119.314C152.115 119.314 156.3 115.129 156.3 110.014V108.464Z" fill="#FAD897"/>
<path d="M210.55 148.919L240 161.164V139.464L216.75 130.164L210.55 148.919Z" fill="#042039"/>
<path d="M207.295 141.479L204.505 140.549L209 127.064L211.79 128.149L207.295 141.479Z" fill="#042039"/>
<path d="M184.51 98.5444L186.99 96.6841L178.62 86.1444C177.38 84.7488 177.07 82.7341 177.845 81.0289C178.775 78.3944 181.72 77.1539 184.355 78.0841L185.285 78.3944L186.37 75.4488L185.44 75.1392C181.255 73.4341 176.45 75.6039 174.9 79.7892C173.815 82.5789 174.28 85.6789 176.14 88.0039L184.51 98.5444Z" fill="#F8BD4F"/>
<path d="M210.705 108.464L222.795 107.069C227.445 106.604 230.855 102.264 230.39 97.6143C230.08 94.3591 227.91 91.7238 224.965 90.4841L223.57 89.8643L222.485 92.8091L223.88 93.429C226.67 94.5143 228.065 97.7694 226.98 100.559C226.205 102.419 224.5 103.814 222.485 103.969L210.395 105.364L210.705 108.464Z" fill="#F8BD4F"/>
<path d="M199.08 110.634L205.125 110.014C212.1 109.394 218.145 104.899 220.78 98.2342L224.81 88.004C225.43 86.454 224.655 84.5945 223.105 83.9739H222.95L190.245 72.1945C188.695 71.5739 186.835 72.504 186.215 74.054L182.805 84.2842C180.79 90.4842 182.03 97.304 186.37 102.264L190.555 107.069L173.97 150.469H167.77C166.53 150.469 165.29 151.244 164.98 152.484L164.05 154.809L186.835 163.799L187.765 161.474C188.23 160.234 187.92 158.994 186.99 158.064L182.495 153.724L199.08 110.634Z" fill="#F2A922"/>
<path d="M192.415 100.249L194.585 98.0791C187.765 91.2592 194.74 79.9445 194.74 79.7894L192.105 78.0842C191.795 78.7041 183.89 91.7239 192.415 100.249Z" fill="#FAEFD9"/>
<path d="M164.98 152.639C165.445 151.399 166.53 150.624 167.77 150.624H173.97L182.495 154.034L186.99 158.374C187.92 159.304 188.23 160.545 187.765 161.784L186.835 164.109L164.05 155.12L164.98 152.639Z" fill="#F8BD4F"/>
<path d="M178.083 132.046L182.863 119.12C183.199 118.275 184.121 117.768 185.044 118.106H185.128L194.354 122.161C194.857 122.415 195.193 122.837 195.361 123.344L196.032 126.723L217 135.172V147L192.677 136.862L186.47 137.622C186.135 137.622 185.799 137.622 185.547 137.453L178.921 134.158C178.167 133.736 177.831 132.891 178.083 132.046Z" fill="#E5D6C6"/>
<path d="M201.25 123.964L216.75 130.164L210.55 148.92L195.05 142.564L201.25 123.964Z" fill="#0C3559"/>
<path d="M162.5 77.4644V79.0144C162.5 84.1291 166.685 88.3144 171.8 88.3144C166.685 88.3144 162.5 92.4989 162.5 97.6144V99.1644V97.6144C162.5 92.4989 158.315 88.3144 153.2 88.3144C158.315 88.3144 162.5 84.1291 162.5 79.0144V77.4644Z" fill="#FAD897"/>
<path d="M230.7 108.464V110.014C230.7 115.129 234.885 119.314 240 119.314C234.885 119.314 230.7 123.499 230.7 128.614V130.164V128.614C230.7 123.499 226.515 119.314 221.4 119.314C226.515 119.314 230.7 115.129 230.7 110.014V108.464Z" fill="#FAD897"/>
<path d="M156.3 108.464V110.014C156.3 115.129 160.485 119.314 165.6 119.314C160.485 119.314 156.3 123.499 156.3 128.614V130.164V128.614C156.3 123.499 152.115 119.314 147 119.314C152.115 119.314 156.3 115.129 156.3 110.014V108.464Z" fill="#FAD897"/>
<path d="M210.55 148.919L240 161.164V139.464L216.75 130.164L210.55 148.919Z" fill="#042039"/>
<path d="M207.295 141.479L204.505 140.549L209 127.064L211.79 128.149L207.295 141.479Z" fill="#042039"/>
</g>
</svg>
