<svg width="768" height="600" viewBox="0 0 768 600" fill="none" xmlns="http://www.w3.org/2000/svg">
<mask id="mask0" mask-type="alpha" maskUnits="userSpaceOnUse" x="0" y="127" width="768" height="473">
<rect y="600" width="473" height="768" transform="rotate(-90 0 600)" fill="white"/>
</mask>
<g mask="url(#mask0)">
<circle cx="384" cy="627" r="500" transform="rotate(-90 384 627)" fill="#317EC2"/>
</g>
<circle cx="384" cy="200" r="200" fill="#C6DEF3"/>
<mask id="mask1" mask-type="alpha" maskUnits="userSpaceOnUse" x="184" y="0" width="400" height="400">
<circle cx="384" cy="200" r="200" fill="#EAF3FA"/>
</mask>
<g mask="url(#mask1)">
<rect x="384" y="45" width="223" height="361" rx="12" fill="#EAF3FA"/>
<line y1="-0.5" x2="189" y2="-0.5" transform="matrix(1 -8.74228e-08 -8.74228e-08 -1 400 112)" stroke="#90C0EA"/>
<line y1="-0.5" x2="189" y2="-0.5" transform="matrix(1 -8.74228e-08 -8.74228e-08 -1 400 176)" stroke="#90C0EA"/>
<line y1="-0.5" x2="189" y2="-0.5" transform="matrix(1 -8.74228e-08 -8.74228e-08 -1 400 240)" stroke="#90C0EA"/>
<line y1="-0.5" x2="189" y2="-0.5" transform="matrix(1 -8.74228e-08 -8.74228e-08 -1 400 304)" stroke="#90C0EA"/>
<line y1="-0.5" x2="189" y2="-0.5" transform="matrix(1 -8.74228e-08 -8.74228e-08 -1 400 368)" stroke="#90C0EA"/>
<path d="M445.829 147.695C445.396 145.246 447.28 143 449.768 143H477.232C479.72 143 481.604 145.246 481.171 147.695L476.583 173.695C476.246 175.607 474.585 177 472.644 177H454.356C452.415 177 450.754 175.607 450.417 173.695L445.829 147.695Z" fill="#90C0EA"/>
<rect x="445" y="137" width="37" height="5" rx="2.5" fill="#90C0EA"/>
<rect x="458" y="133" width="11" height="5" rx="2.5" fill="#90C0EA"/>
<path d="M497.829 147.695C497.396 145.246 499.28 143 501.768 143H529.232C531.72 143 533.604 145.246 533.171 147.695L528.583 173.695C528.246 175.607 526.585 177 524.644 177H506.356C504.415 177 502.754 175.607 502.417 173.695L497.829 147.695Z" fill="#90C0EA"/>
<rect x="497" y="137" width="37" height="5" rx="2.5" fill="#90C0EA"/>
<rect x="510" y="133" width="11" height="5" rx="2.5" fill="#90C0EA"/>
<path d="M481.829 210.695C481.396 208.246 483.28 206 485.768 206H513.232C515.72 206 517.604 208.246 517.171 210.695L512.583 236.695C512.246 238.607 510.585 240 508.644 240H490.356C488.415 240 486.754 238.607 486.417 236.695L481.829 210.695Z" fill="#90C0EA"/>
<rect x="481" y="200" width="37" height="5" rx="2.5" fill="#90C0EA"/>
<rect x="494" y="196" width="11" height="5" rx="2.5" fill="#90C0EA"/>
<path d="M457.829 82.6951C457.396 80.2458 459.28 78 461.768 78H489.232C491.72 78 493.604 80.2458 493.171 82.6951L488.583 108.695C488.246 110.607 486.585 112 484.644 112H466.356C464.415 112 462.754 110.607 462.417 108.695L457.829 82.6951Z" fill="#F8BD4F"/>
<rect x="457" y="72" width="37" height="5" rx="2.5" fill="#F8BD4F"/>
<rect x="470" y="68" width="11" height="5" rx="2.5" fill="#F8BD4F"/>
<path d="M497.908 431.877L419.351 276.598C416.956 275.199 407.333 269.011 407.333 269.011" stroke="#F8BD4F" stroke-width="3" stroke-linecap="round" stroke-linejoin="round"/>
<path d="M413.718 288.892C412.78 285.786 409.96 279.387 409.96 279.387C408.24 279.282 396.267 273.116 396.267 273.116" stroke="#F8BD4F" stroke-width="3" stroke-linecap="round" stroke-linejoin="round"/>
<path d="M392.845 273.688L430.069 258.483" stroke="#F8BD4F" stroke-width="3" stroke-linecap="round" stroke-linejoin="round"/>
<path d="M686.829 490.471H441.433V437.166C454.855 435.979 645.648 417.93 645.648 417.93V302.021L413.717 288.893L441.433 437.179" stroke="#F8BD4F" stroke-width="3" stroke-linecap="round" stroke-linejoin="round"/>
<path d="M422.776 337.343H645.648" stroke="#F8BD4F" stroke-width="3" stroke-linecap="round" stroke-linejoin="round"/>
<path d="M428.934 370.296H645.647" stroke="#F8BD4F" stroke-width="3" stroke-linecap="round" stroke-linejoin="round"/>
<path d="M374 281.38L392.845 273.688" stroke="#F8BD4F" stroke-width="3" stroke-linecap="round" stroke-linejoin="round"/>
<path d="M447.794 370.296C445.352 363.385 419.456 289.202 419.456 289.202" stroke="#F8BD4F" stroke-width="3" stroke-linecap="round" stroke-linejoin="round"/>
<path d="M248.484 280.43C248.644 285.59 250.334 353.51 256.334 372.14C247.234 384.35 181.204 470 181.004 471.9C180.804 473.8 192.004 484.12 194.004 484.12C196.004 484.12 297.294 401.74 302.464 396.35C307.634 390.96 310.004 368.54 310.004 368.54" fill="#042039"/>
<path d="M245.594 259.05C245.594 322.69 326.994 384.99 343.064 393.89C346.274 400.57 398.194 507.89 399.424 510.83C403.624 511.32 410.304 509.34 413.514 505.14C412.514 500.94 388.054 378.07 384.844 370.65C381.634 363.23 340.844 286.74 329.214 271.96" fill="#0C3559"/>
<path d="M302.714 129.73C323.084 129.73 331.524 162.64 331.524 172.45C331.524 187.98 322.644 249.34 329.214 271.96C321.094 273.29 255.864 267.82 245.594 259.05C245.594 197 283.344 129.73 302.714 129.73Z" fill="#5A9FDB"/>
<path d="M328.184 206.18C315.994 213.24 294.434 215.69 286.294 214.04C306.294 257.17 366.644 272.45 384.354 277.1C387.234 272.62 391.244 263.96 391.564 257.38C384.094 253.83 341.064 237.49 328.184 206.18Z" fill="#E5D6C6"/>
<path d="M322.084 142.62C325.964 141.54 418.634 123.25 420.724 122.73C422.114 125.52 425.424 136.32 425.424 140.33C421.424 142.59 331.524 172.45 331.524 172.45" fill="#E5D6C6"/>
<path d="M420.724 122.73C425.354 121.78 459.294 113.95 460.134 113.78C460.974 113.61 461.684 113.26 461.814 113.78C463.174 119.4 452.984 121.37 448.224 122.73C449.584 127.33 450.094 130.95 446.754 132.73C443.754 134.35 438.414 136.23 424.694 135.36" fill="#E5D6C6"/>
<path d="M328.184 206.18C326.096 201.161 324.885 195.82 324.604 190.39" stroke="#042039" stroke-linecap="round" stroke-linejoin="round"/>
<path d="M301.454 149.15C286.384 149.15 279.804 174.33 279.804 183.95C279.737 194.32 281.949 204.579 286.284 214" stroke="#042039" stroke-linecap="round" stroke-linejoin="round"/>
<path d="M331.524 172.45L347.764 167C345.674 152.06 339.634 141.89 337.624 139.34C329.004 141.08 323.014 142.34 322.084 142.58" fill="#317EC2"/>
<path d="M395.584 281.37C403.818 281.37 410.494 275.904 410.494 269.16C410.494 262.417 403.818 256.95 395.584 256.95C387.349 256.95 380.674 262.417 380.674 269.16C380.674 275.904 387.349 281.37 395.584 281.37Z" fill="#E5D6C6"/>
<path d="M330.004 162.09C330.754 165.503 331.262 168.965 331.524 172.45C333.374 171.81 342.174 168.91 342.174 168.91C342.174 168.91 333.614 168.24 330.004 162.09Z" fill="#042039"/>
<path d="M314.214 246.76C315.334 250.76 322.724 271.76 306.734 271.2C313.644 271.7 325.214 272.68 329.214 271.96C328.934 270.96 326.984 259.8 326.954 255.07C325.064 254 314.214 246.76 314.214 246.76Z" fill="#042039"/>
<path d="M314.004 138.23C312.574 140.61 299.344 132.91 300.884 130.35L310.464 114.35L323.594 122.23L314.004 138.23Z" fill="#E5D6C6"/>
<path d="M304.714 123.92C305.564 122.5 313.504 119 315.514 121.33C313.084 118.39 312.034 114.33 310.434 114.4L304.714 123.92Z" fill="#042039"/>
<path d="M327.884 125.64C338.863 125.64 347.764 116.739 347.764 105.76C347.764 94.7805 338.863 85.8799 327.884 85.8799C316.904 85.8799 308.004 94.7805 308.004 105.76C308.004 116.739 316.904 125.64 327.884 125.64Z" fill="#E5D6C6"/>
<path d="M349.521 112.403C349.62 111.453 348.221 110.529 346.397 110.34C344.574 110.15 343.015 110.767 342.917 111.717C342.818 112.668 344.216 113.592 346.04 113.781C347.864 113.97 349.422 113.354 349.521 112.403Z" fill="#BF9972"/>
<path d="M328.779 110.259C328.878 109.309 327.479 108.385 325.656 108.195C323.832 108.006 322.273 108.623 322.175 109.573C322.076 110.524 323.474 111.448 325.298 111.637C327.122 111.826 328.68 111.21 328.779 110.259Z" fill="#BF9972"/>
<path d="M338.534 107.66C339.064 108.66 341.844 112.66 338.344 113.78" stroke="#042039" stroke-width="0.69" stroke-miterlimit="10" stroke-linecap="round"/>
<path d="M331.254 117.41C330.254 117.28 328.854 115.92 328.164 114.72" stroke="#042039" stroke-width="0.69" stroke-miterlimit="10" stroke-linecap="round"/>
<path d="M311.814 107.67C314.233 107.67 316.194 105.709 316.194 103.29C316.194 100.871 314.233 98.9102 311.814 98.9102C309.395 98.9102 307.434 100.871 307.434 103.29C307.434 105.709 309.395 107.67 311.814 107.67Z" fill="#E5D6C6"/>
<path d="M314.764 107.15C314.764 112.97 308.324 116.82 306.154 116.82C305.804 116.867 305.449 116.837 305.112 116.732C304.776 116.626 304.467 116.448 304.207 116.209C303.947 115.97 303.743 115.677 303.61 115.351C303.476 115.024 303.416 114.672 303.434 114.32C303.434 111.88 304.874 109.79 307.894 107.15C307.364 106.24 303.434 101.45 303.434 94.68C303.434 87.53 307.824 81.54 310.764 81.54C312.025 81.6191 313.224 82.1148 314.172 82.9493C315.121 83.7837 315.765 84.9096 316.004 86.15C316.004 76.16 326.684 69 333.004 69C338.934 69 340.004 71.59 340.004 73.68C340.004 78.28 336.384 83.2 335.004 84.41C338.324 81.96 343.504 79.5 348.004 79.5C350.824 79.5 354.424 80.3 354.424 84.18C354.424 91.31 347.754 95.43 345.524 96.58C344.658 94.9125 343.568 93.3714 342.284 92C342.694 93.35 341.044 95.8 337.894 96.35C336.154 96.67 314.764 93.79 314.764 107.15Z" fill="#042039"/>
</g>
</svg>
