<svg width="1366" height="768" viewBox="0 0 1366 768" fill="none" xmlns="http://www.w3.org/2000/svg">
<mask id="mask0" mask-type="alpha" maskUnits="userSpaceOnUse" x="0" y="0" width="1366" height="768">
<rect width="1366" height="768" fill="url(#paint0_linear)"/>
</mask>
<g mask="url(#mask0)">
<path d="M1003.58 374.344L1004.42 377.918L1000.19 379.714L998.48 372.678C998.186 371.445 998.946 370.207 1000.18 369.912C1001.41 369.618 1002.65 370.379 1002.94 371.611L1003.07 372.136" fill="#C6DEF3"/>
<path d="M1004.42 377.918L1009.15 377.328L1015.34 381.822L1014.04 383.799L1008.97 380.255L1002.73 382.268C1002.31 382.404 1001.85 382.387 1001.44 382.222C1000.78 381.954 1000.32 381.334 1000.26 380.619L1000.19 379.714L1004.42 377.918Z" fill="#C6DEF3"/>
<path d="M1005.58 381.346L1007.85 385.007L1006.34 392.505L1004.01 392.151L1005.11 386.064L1001.66 382.289" fill="#C6DEF3"/>
<path d="M1015.34 381.822L1016.24 382.19L1016.91 381.593C1017.44 381.119 1018.25 381.139 1018.76 381.638L1019.41 382.276L1015.87 385.606L1014.04 383.799L1015.34 381.822Z" fill="#C6DEF3"/>
<path d="M1006.34 392.505L1006.41 392.475C1007.42 392.049 1008.58 392.516 1009 393.519L1007.97 394.958L1003.24 394.63L1004.01 392.151L1006.34 392.505Z" fill="#C6DEF3"/>
<path d="M1014.24 387.992C1014.19 388.011 1014.15 388.025 1014.1 388.034C1013.74 388.101 1013.4 387.867 1013.33 387.511L1009.25 365.866C1009.19 365.516 1009.43 365.185 1009.78 365.119C1010.12 365.053 1010.46 365.276 1010.54 365.622L1014.62 387.268C1014.68 387.57 1014.52 387.871 1014.24 387.992Z" fill="#C6DEF3"/>
<path d="M1003.57 365.451C1004.2 366.952 1003.51 368.685 1002.01 369.324C1000.5 369.962 998.771 369.263 998.133 367.763C997.495 366.262 998.194 364.528 999.694 363.89C1001.19 363.252 1002.93 363.951 1003.57 365.451Z" fill="#C6DEF3"/>
<path d="M999.701 377.254C999.374 377.41 998.982 377.272 998.825 376.945C998.669 376.618 998.807 376.226 999.134 376.07L999.773 375.727C1000.74 375.214 1001.59 374.521 1002.3 373.688C1002.53 373.411 1002.94 373.377 1003.22 373.611C1003.5 373.844 1003.53 374.258 1003.3 374.535C1002.49 375.495 1001.5 376.291 1000.39 376.883L999.755 377.226C999.737 377.238 999.719 377.246 999.701 377.254Z" fill="#C6DEF3"/>
<path d="M994.787 376.405L993.278 376.698C993.087 376.735 992.919 376.848 992.811 377.01C992.704 377.172 992.666 377.37 992.706 377.56L993.379 380.759C993.419 380.952 993.537 381.121 993.705 381.225C993.873 381.33 994.076 381.361 994.268 381.313L995.832 380.915L994.787 376.405Z" fill="#C6DEF3"/>
<path d="M1005.17 362.195L1003.5 364.163L1002.64 365.177L999.723 368.597L999.271 369.124C999.204 369.202 999.121 369.264 999.027 369.306C998.797 369.405 998.53 369.363 998.341 369.199C998.301 369.167 998.265 369.129 998.236 369.087C997.937 368.777 997.698 368.415 997.532 368.018C996.943 366.63 997.28 365.023 998.376 363.988C999.472 362.953 1001.1 362.709 1002.45 363.376L1004.17 361.346C1004.41 361.071 1004.82 361.038 1005.1 361.273C1005.23 361.384 1005.31 361.545 1005.33 361.718C1005.34 361.891 1005.29 362.062 1005.17 362.195Z" fill="#C6DEF3"/>
<path d="M1003.81 373.144L1002.59 373.63L1002.2 372.654C1001.69 371.375 1000.39 370.592 999.017 370.741L997.366 370.922L997.223 369.618L998.874 369.437C1000.83 369.227 1002.69 370.343 1003.42 372.169L1003.81 373.144Z" fill="#C6DEF3"/>
<path d="M998.48 372.678L997.84 369.754C997.817 369.649 997.751 369.557 997.659 369.5C997.567 369.444 997.456 369.427 997.351 369.455L994.374 370.232C993.841 370.371 993.515 370.91 993.64 371.447L995.836 380.917L1000.19 379.714L998.48 372.678Z" fill="#C6DEF3"/>
<path d="M1006.93 375.183C1006.72 375.276 1006.47 375.287 1006.25 375.216L1000.34 373.334C999.825 373.169 999.539 372.615 999.704 372.098C999.869 371.58 1000.42 371.294 1000.94 371.459L1006.22 373.142L1010.23 368.426C1010.46 368.155 1010.81 368.026 1011.16 368.088C1011.51 368.151 1011.8 368.395 1011.91 368.728C1012.03 369.061 1011.96 369.432 1011.73 369.699L1007.3 374.915C1007.2 375.032 1007.08 375.123 1006.93 375.183Z" fill="#C6DEF3"/>
<path d="M1018.58 354.344L1019.42 357.918L1015.19 359.714L1013.48 352.678C1013.19 351.445 1013.95 350.207 1015.18 349.912C1016.41 349.618 1017.65 350.379 1017.94 351.611L1018.07 352.136" fill="#C6DEF3"/>
<path d="M1019.42 357.918L1024.15 357.328L1030.34 361.822L1029.04 363.799L1023.97 360.255L1017.73 362.268C1017.31 362.404 1016.85 362.387 1016.44 362.222C1015.78 361.954 1015.32 361.334 1015.26 360.619L1015.19 359.714L1019.42 357.918Z" fill="#C6DEF3"/>
<path d="M1020.58 361.346L1022.85 365.007L1021.34 372.505L1019.01 372.151L1020.11 366.064L1016.66 362.289" fill="#C6DEF3"/>
<path d="M1030.34 361.822L1031.24 362.19L1031.91 361.593C1032.44 361.119 1033.25 361.139 1033.76 361.638L1034.41 362.276L1030.87 365.606L1029.04 363.799L1030.34 361.822Z" fill="#C6DEF3"/>
<path d="M1021.34 372.505L1021.41 372.475C1022.42 372.049 1023.58 372.516 1024 373.519L1022.97 374.958L1018.24 374.63L1019.01 372.151L1021.34 372.505Z" fill="#C6DEF3"/>
<path d="M1029.24 367.992C1029.19 368.011 1029.15 368.025 1029.1 368.034C1028.74 368.101 1028.4 367.867 1028.33 367.511L1024.25 345.866C1024.19 345.516 1024.43 345.185 1024.78 345.119C1025.12 345.053 1025.46 345.276 1025.54 345.622L1029.62 367.268C1029.68 367.57 1029.52 367.871 1029.24 367.992Z" fill="#C6DEF3"/>
<path d="M1018.57 345.451C1019.2 346.952 1018.51 348.685 1017.01 349.324C1015.5 349.962 1013.77 349.263 1013.13 347.763C1012.49 346.262 1013.19 344.528 1014.69 343.89C1016.19 343.252 1017.93 343.951 1018.57 345.451Z" fill="#C6DEF3"/>
<path d="M1014.7 357.254C1014.37 357.41 1013.98 357.272 1013.83 356.945C1013.67 356.618 1013.81 356.226 1014.13 356.07L1014.77 355.727C1015.74 355.214 1016.59 354.521 1017.3 353.688C1017.53 353.411 1017.94 353.377 1018.22 353.611C1018.5 353.844 1018.53 354.258 1018.3 354.535C1017.49 355.495 1016.5 356.291 1015.39 356.883L1014.75 357.226C1014.74 357.238 1014.72 357.246 1014.7 357.254Z" fill="#C6DEF3"/>
<path d="M1009.79 356.405L1008.28 356.698C1008.09 356.735 1007.92 356.848 1007.81 357.01C1007.7 357.172 1007.67 357.37 1007.71 357.56L1008.38 360.759C1008.42 360.952 1008.54 361.121 1008.7 361.225C1008.87 361.33 1009.08 361.361 1009.27 361.313L1010.83 360.915L1009.79 356.405Z" fill="#C6DEF3"/>
<path d="M1020.17 342.195L1018.5 344.163L1017.64 345.177L1014.72 348.597L1014.27 349.124C1014.2 349.202 1014.12 349.264 1014.03 349.306C1013.8 349.405 1013.53 349.363 1013.34 349.199C1013.3 349.167 1013.27 349.129 1013.24 349.087C1012.94 348.777 1012.7 348.415 1012.53 348.018C1011.94 346.63 1012.28 345.023 1013.38 343.988C1014.47 342.953 1016.1 342.709 1017.45 343.376L1019.17 341.346C1019.41 341.071 1019.82 341.038 1020.1 341.273C1020.23 341.384 1020.31 341.545 1020.33 341.718C1020.34 341.891 1020.29 342.062 1020.17 342.195Z" fill="#C6DEF3"/>
<path d="M1018.81 353.144L1017.59 353.63L1017.2 352.654C1016.69 351.375 1015.39 350.592 1014.02 350.741L1012.37 350.922L1012.22 349.618L1013.87 349.437C1015.83 349.227 1017.69 350.343 1018.42 352.169L1018.81 353.144Z" fill="#C6DEF3"/>
<path d="M1013.48 352.678L1012.84 349.754C1012.82 349.649 1012.75 349.557 1012.66 349.5C1012.57 349.444 1012.46 349.427 1012.35 349.455L1009.37 350.232C1008.84 350.371 1008.52 350.91 1008.64 351.447L1010.84 360.917L1015.19 359.714L1013.48 352.678Z" fill="#C6DEF3"/>
<path d="M1021.93 355.183C1021.72 355.276 1021.47 355.287 1021.25 355.216L1015.34 353.334C1014.82 353.169 1014.54 352.615 1014.7 352.098C1014.87 351.58 1015.42 351.294 1015.94 351.459L1021.22 353.142L1025.23 348.426C1025.46 348.155 1025.81 348.026 1026.16 348.088C1026.51 348.151 1026.8 348.395 1026.91 348.728C1027.03 349.061 1026.96 349.432 1026.73 349.699L1022.3 354.915C1022.2 355.032 1022.08 355.123 1021.93 355.183Z" fill="#C6DEF3"/>
<path d="M1034.58 333.344L1035.42 336.918L1031.19 338.714L1029.48 331.678C1029.19 330.445 1029.95 329.207 1031.18 328.912C1032.41 328.618 1033.65 329.379 1033.94 330.611L1034.07 331.136" fill="#C6DEF3"/>
<path d="M1035.42 336.918L1040.15 336.328L1046.34 340.822L1045.04 342.799L1039.97 339.255L1033.73 341.268C1033.31 341.404 1032.85 341.387 1032.44 341.222C1031.78 340.954 1031.32 340.334 1031.26 339.619L1031.19 338.714L1035.42 336.918Z" fill="#C6DEF3"/>
<path d="M1036.58 340.346L1038.85 344.007L1037.34 351.505L1035.01 351.151L1036.11 345.064L1032.66 341.289" fill="#C6DEF3"/>
<path d="M1046.34 340.822L1047.24 341.19L1047.91 340.593C1048.44 340.119 1049.25 340.139 1049.76 340.638L1050.41 341.276L1046.87 344.606L1045.04 342.799L1046.34 340.822Z" fill="#C6DEF3"/>
<path d="M1037.34 351.505L1037.41 351.475C1038.42 351.049 1039.58 351.516 1040 352.519L1038.97 353.958L1034.24 353.63L1035.01 351.151L1037.34 351.505Z" fill="#C6DEF3"/>
<path d="M1045.24 346.992C1045.19 347.011 1045.15 347.025 1045.1 347.034C1044.74 347.101 1044.4 346.867 1044.33 346.511L1040.25 324.866C1040.19 324.516 1040.43 324.185 1040.78 324.119C1041.12 324.053 1041.46 324.276 1041.54 324.622L1045.62 346.268C1045.68 346.57 1045.52 346.871 1045.24 346.992Z" fill="#C6DEF3"/>
<path d="M1034.57 324.451C1035.2 325.952 1034.51 327.685 1033.01 328.324C1031.5 328.962 1029.77 328.263 1029.13 326.763C1028.49 325.262 1029.19 323.528 1030.69 322.89C1032.19 322.252 1033.93 322.951 1034.57 324.451Z" fill="#C6DEF3"/>
<path d="M1030.7 336.254C1030.37 336.41 1029.98 336.272 1029.83 335.945C1029.67 335.618 1029.81 335.226 1030.13 335.07L1030.77 334.727C1031.74 334.214 1032.59 333.521 1033.3 332.688C1033.53 332.411 1033.94 332.377 1034.22 332.611C1034.5 332.844 1034.53 333.258 1034.3 333.535C1033.49 334.495 1032.5 335.291 1031.39 335.883L1030.75 336.226C1030.74 336.238 1030.72 336.246 1030.7 336.254Z" fill="#C6DEF3"/>
<path d="M1025.79 335.405L1024.28 335.698C1024.09 335.735 1023.92 335.848 1023.81 336.01C1023.7 336.172 1023.67 336.37 1023.71 336.56L1024.38 339.759C1024.42 339.952 1024.54 340.121 1024.7 340.225C1024.87 340.33 1025.08 340.361 1025.27 340.313L1026.83 339.915L1025.79 335.405Z" fill="#C6DEF3"/>
<path d="M1036.17 321.195L1034.5 323.163L1033.64 324.177L1030.72 327.597L1030.27 328.124C1030.2 328.202 1030.12 328.264 1030.03 328.306C1029.8 328.405 1029.53 328.363 1029.34 328.199C1029.3 328.167 1029.27 328.129 1029.24 328.087C1028.94 327.777 1028.7 327.415 1028.53 327.018C1027.94 325.63 1028.28 324.023 1029.38 322.988C1030.47 321.953 1032.1 321.709 1033.45 322.376L1035.17 320.346C1035.41 320.071 1035.82 320.038 1036.1 320.273C1036.23 320.384 1036.31 320.545 1036.33 320.718C1036.34 320.891 1036.29 321.062 1036.17 321.195Z" fill="#C6DEF3"/>
<path d="M1034.81 332.144L1033.59 332.63L1033.2 331.654C1032.69 330.375 1031.39 329.592 1030.02 329.741L1028.37 329.922L1028.22 328.618L1029.87 328.437C1031.83 328.227 1033.69 329.343 1034.42 331.169L1034.81 332.144Z" fill="#C6DEF3"/>
<path d="M1029.48 331.678L1028.84 328.754C1028.82 328.649 1028.75 328.557 1028.66 328.5C1028.57 328.444 1028.46 328.427 1028.35 328.455L1025.37 329.232C1024.84 329.371 1024.52 329.91 1024.64 330.447L1026.84 339.917L1031.19 338.714L1029.48 331.678Z" fill="#C6DEF3"/>
<path d="M1037.93 334.183C1037.72 334.276 1037.47 334.287 1037.25 334.216L1031.34 332.334C1030.82 332.169 1030.54 331.615 1030.7 331.098C1030.87 330.58 1031.42 330.294 1031.94 330.459L1037.22 332.142L1041.23 327.426C1041.46 327.155 1041.81 327.026 1042.16 327.088C1042.51 327.151 1042.8 327.395 1042.91 327.728C1043.03 328.061 1042.96 328.432 1042.73 328.699L1038.3 333.915C1038.2 334.032 1038.08 334.123 1037.93 334.183Z" fill="#C6DEF3"/>
<path d="M315 673.5C298.2 676.7 116.667 804.167 28 867.5H1572.5C1487.67 725.667 1330.91 437.508 1323.5 428.5C1305 406 1304.5 415 1272.5 400C1240.5 385 1162 212 1150.5 212C1139 212 991 426.5 978 428.5C965 430.5 917 514 902 514C887 514 885 493 847 493C809 493 598 797 562 793C526 789 336 669.5 315 673.5Z" fill="#EAF3FA"/>
<path d="M718 706.988C718 682.858 778.055 677.742 801.789 677.742C849.925 677.742 853.112 650.267 893.079 650.267C928.223 650.267 946.088 678.635 978.81 678.635C1049.02 678.638 1064.66 598 1132.96 598C1202.46 598 1198.91 682.177 1263.58 682.177C1296.46 682.177 1494 688.366 1494 707L718 706.988Z" fill="#C6DEF3"/>
<path d="M0 767.988C0 743.858 60.0555 738.742 83.7895 738.742C131.925 738.742 135.112 711.267 175.079 711.267C210.223 711.267 228.088 739.635 260.81 739.635C331.023 739.638 346.659 659 414.961 659C484.459 659 480.909 743.177 545.58 743.177C578.461 743.177 776 749.366 776 768L0 767.988Z" fill="#90C0EA"/>
<path d="M362 646.902C362 631.628 414.057 607.694 442.522 607.694C498.679 607.694 481.147 627.299 516.472 627.299C556.725 627.296 565.922 540 627.172 540C694.119 540 683.61 625.387 724.702 625.387C742.398 625.387 751.26 617.089 776.401 617.089C790.993 617.089 806.952 631.663 806.952 646.963L362 646.902Z" fill="#EAF3FA"/>
<path d="M-34 288.902C-34 273.628 18.0568 249.694 46.522 249.694C102.679 249.694 85.1472 269.299 120.472 269.299C160.725 269.296 169.922 182 231.172 182C298.119 182 287.61 267.387 328.702 267.387C346.398 267.387 355.26 259.089 380.401 259.089C394.993 259.089 410.952 273.663 410.952 288.963L-34 288.902Z" fill="#EAF3FA"/>
<path d="M-141 479.888C-141 452.186 -46.5843 408.777 5.04315 408.777C106.896 408.777 75.098 444.335 139.166 444.335C212.174 444.33 228.854 286 339.944 286C461.366 286 442.307 440.866 516.834 440.866C548.929 440.866 565.004 425.817 610.602 425.817C637.066 425.817 666.011 452.25 666.011 480L-141 479.888Z" fill="#EAF3FA"/>
<path d="M131 364.988C131 340.858 191.055 335.742 214.789 335.742C262.925 335.742 266.112 308.267 306.079 308.267C341.223 308.267 359.088 336.635 391.81 336.635C462.023 336.638 477.659 256 545.961 256C615.459 256 611.909 340.177 676.58 340.177C709.461 340.177 907 346.366 907 365L131 364.988Z" fill="#EAF3FA"/>
<path d="M89 300.992C89 285.496 127.309 282.21 142.448 282.21C173.153 282.21 175.186 264.566 200.681 264.566C223.099 264.566 234.494 282.784 255.367 282.784C300.155 282.786 310.129 231 353.698 231C398.03 231 395.766 285.059 437.018 285.059C457.992 285.059 584 289.033 584 301L89 300.992Z" fill="#EAF3FA"/>
<line x1="1150.5" y1="173.5" x2="1150.5" y2="212.5" stroke="#C6DEF3" stroke-linecap="round"/>
<path d="M1152 174C1152 174 1154 175 1163 175C1166.51 175 1170.47 173.185 1174 173C1179.53 172.71 1184 174 1184 174V194C1184 194 1180.18 193.072 1175 193.5C1171.39 193.798 1167.11 195.5 1163 195.5C1153 195.5 1152 194 1152 194V174Z" fill="#FAEFD9"/>
<path d="M1061.3 249.744C1060.82 249.668 1060.38 249.362 1060.16 248.887C1059.8 248.127 1060.13 247.224 1060.89 246.87L1066.89 244.068L1071.94 237.679C1072.46 237.022 1073.41 236.91 1074.07 237.43C1074.73 237.95 1074.84 238.904 1074.32 239.561L1069.04 246.233C1068.9 246.418 1068.71 246.566 1068.5 246.666L1062.17 249.619C1061.89 249.752 1061.59 249.789 1061.3 249.744Z" fill="#317EC2"/>
<path d="M1037.85 268.029C1037.26 267.24 1037.42 266.121 1038.21 265.53L1046.29 259.473L1050.45 254.85C1051.11 254.117 1052.24 254.056 1052.97 254.715C1053.7 255.374 1053.76 256.503 1053.11 257.236L1048.83 261.99C1048.76 262.077 1048.67 262.156 1048.58 262.226L1040.35 268.387C1039.56 268.978 1038.44 268.818 1037.85 268.029Z" fill="#0C3559"/>
<path d="M1048.1 268.778C1047.6 267.93 1047.87 266.835 1048.72 266.331L1053.77 263.326L1053.76 257.067C1053.75 256.081 1054.55 255.279 1055.54 255.276C1056.52 255.274 1057.32 256.07 1057.33 257.057L1057.35 264.334C1057.35 264.966 1057.02 265.551 1056.47 265.874L1050.55 269.399C1049.7 269.901 1048.61 269.629 1048.1 268.778Z" fill="#042039"/>
<path d="M1057.34 260.444L1050.52 254.811L1058.15 245.56C1058.98 244.564 1060.45 244.424 1061.45 245.246L1064.66 247.901C1065.66 248.724 1065.8 250.197 1064.98 251.193L1057.34 260.444Z" fill="#5A9FDB"/>
<path d="M1065.13 257.174C1065.11 257.172 1065.1 257.169 1065.08 257.165L1059.32 256.06C1058.44 255.891 1057.9 254.992 1058.16 254.129L1060.08 247.803C1060.32 247.001 1061.17 246.548 1061.97 246.792C1062.77 247.036 1063.23 247.883 1062.98 248.685L1061.55 253.398L1065.65 254.185C1066.47 254.343 1067.01 255.138 1066.86 255.961C1066.7 256.767 1065.93 257.301 1065.13 257.174Z" fill="#317EC2"/>
<path d="M1074.32 239.561C1074.84 238.904 1074.73 237.95 1074.07 237.43C1073.41 236.91 1072.46 237.022 1071.94 237.679L1074.32 239.561Z" fill="#CFB293"/>
<path d="M1065.65 254.185L1065.08 257.166C1065.1 257.169 1065.11 257.172 1065.13 257.174C1065.93 257.301 1066.7 256.767 1066.86 255.961C1067.01 255.138 1066.47 254.343 1065.65 254.185Z" fill="#CFB293"/>
<path d="M1036.82 255.22L1041.4 262.111C1041.8 262.721 1042.65 262.83 1043.2 262.341L1061.85 245.58L1060.88 244.775C1060.2 244.219 1059.28 244.085 1058.47 244.428L1037.35 253.454C1036.66 253.748 1036.41 254.595 1036.82 255.22Z" fill="#F2A922"/>
<path d="M1069.37 243.546C1069.07 245.455 1067.28 246.759 1065.37 246.459C1063.46 246.159 1062.16 244.367 1062.46 242.458C1062.76 240.548 1064.55 239.244 1066.46 239.544C1068.37 239.845 1069.67 241.636 1069.37 243.546Z" fill="#CFB293"/>
<path d="M1064.29 241.458C1064.66 240.694 1068.06 240.334 1069 241.569C1068.71 240.698 1068.14 239.966 1067.39 239.508C1066.64 239.049 1065.76 238.894 1064.91 239.071C1064.06 239.248 1063.3 239.745 1062.77 240.472C1062.24 241.198 1061.96 242.105 1062 243.028C1062.52 242.892 1063.94 242.194 1064.29 241.458Z" fill="#042039"/>
<path d="M975 534.583C975 526.07 1004.01 512.73 1019.88 512.73C1051.18 512.73 1041.41 523.657 1061.1 523.657C1083.53 523.656 1088.66 475 1122.8 475C1160.11 475 1154.25 522.591 1177.16 522.591C1187.02 522.591 1191.96 517.967 1205.97 517.967C1214.1 517.967 1223 526.09 1223 534.617L975 534.583Z" fill="#C6DEF3"/>
</g>
<defs>
<linearGradient id="paint0_linear" x1="-2.0355e-05" y1="768" x2="1366" y2="-2.32793e-05" gradientUnits="userSpaceOnUse">
<stop stop-color="#EAF3FA"/>
<stop offset="1" stop-color="white"/>
</linearGradient>
</defs>
</svg>
