<svg width="400" height="400" viewBox="0 0 400 400" fill="none" xmlns="http://www.w3.org/2000/svg">
<circle cx="200" cy="200" r="200" fill="#E4F6E1"/>
<mask id="mask0" mask-type="alpha" maskUnits="userSpaceOnUse" x="0" y="0" width="400" height="400">
<circle cx="200" cy="200" r="200" fill="white"/>
</mask>
<g mask="url(#mask0)">
<rect x="200" y="74" width="163" height="156" rx="12" fill="white"/>
<line y1="-0.5" x2="131" y2="-0.5" transform="matrix(1 -8.74228e-08 -8.74228e-08 -1 216 112)" stroke="#CBCBCB"/>
<line y1="-0.5" x2="131" y2="-0.5" transform="matrix(1 -8.74228e-08 -8.74228e-08 -1 216 141)" stroke="#CBCBCB"/>
<line y1="-0.5" x2="131" y2="-0.5" transform="matrix(1 -8.74228e-08 -8.74228e-08 -1 216 170)" stroke="#CBCBCB"/>
<line y1="-0.5" x2="131" y2="-0.5" transform="matrix(1 -8.74228e-08 -8.74228e-08 -1 216 199)" stroke="#CBCBCB"/>
<path d="M327.821 100C321.101 99.9764 315.643 105.393 315.619 112.064C315.619 115.21 316.835 118.238 319.051 120.485L296.767 164.742C296.291 164.671 295.79 164.601 295.29 164.601C293.717 164.601 292.144 164.908 290.69 165.499L273.387 146.174C274.388 144.4 274.937 142.413 274.96 140.355C274.96 133.66 269.503 128.244 262.758 128.244C256.013 128.244 250.556 133.66 250.556 140.355C250.579 143.24 251.628 146.032 253.559 148.208L232.371 184.991C231.656 184.849 230.917 184.778 230.202 184.778C223.458 184.778 218 190.195 218 196.889C218 203.583 223.458 209 230.202 209C236.947 209 242.405 203.583 242.405 196.889C242.381 194.003 241.332 191.212 239.402 189.036L260.565 152.253C262.829 152.702 265.189 152.466 267.31 151.567L284.613 170.893C283.612 172.667 283.087 174.677 283.063 176.712C283.04 183.406 288.497 188.846 295.218 188.87C301.963 188.894 307.444 183.477 307.468 176.806C307.468 173.66 306.253 170.609 304.036 168.338L326.32 124.08C326.797 124.151 327.297 124.222 327.798 124.222C334.542 124.222 340 118.805 340 112.111C340 105.417 334.566 100 327.821 100Z" fill="#FAD897"/>
<path d="M367.16 365.726C368.057 371.067 383.292 493.187 385.76 495.207C388.227 497.226 414.433 501.702 416.677 498.337C417.126 492.995 417.745 407.839 419.134 400.222" fill="#042039"/>
<path d="M72.4093 340.246C61.8436 335.032 83.8724 438.168 141.85 438.168C199.828 438.168 297.42 349.85 313.22 349.85C348.101 349.85 430.672 418.34 437.146 418.34C442.103 413.383 452.017 404.708 452.017 401.3C452.017 397.892 372.961 267.76 313.808 267.76C290.871 267.738 96.265 352.029 72.4093 340.246Z" fill="#367229"/>
<path d="M130.59 161.066C139.724 161.312 187.276 159.912 200.309 172.326C209.977 181.524 240.04 260.73 244.677 288.538C224.485 298.794 78.8513 368.535 33.7787 337.863C32.7851 314.029 37.411 219.343 66.8861 169.677C77.6655 162.497 121.809 160.831 130.59 161.066Z" fill="#83CE74"/>
<path d="M149.115 138.396H121.339V168.256C121.339 175.734 149.115 175.67 149.115 168.256V138.396Z" fill="#694827"/>
<path d="M121.339 156.398C121.339 153.086 130.515 144.764 136.188 145.052C136.327 141.441 123.23 136.1 123.23 136.1L121.339 141.196V156.398Z" fill="#042039"/>
<path d="M178.205 138.397C178.83 135.511 179.145 132.567 179.146 129.615C179.146 107.586 161.935 89.7236 140.686 89.7236C119.437 89.7236 102.226 107.586 102.226 129.615C102.227 132.564 102.541 135.505 103.164 138.388L178.205 138.397Z" fill="#042039"/>
<path d="M168.067 111.528C163.356 110.812 158.655 107.105 155.375 104.68C136.68 118.376 124.704 118.568 123.411 118.568C122.118 118.568 116.852 126.132 114.427 126.986L114.213 126.858C114.939 130.834 116.484 134.616 118.749 137.963C121.015 141.311 123.951 144.151 127.372 146.303C130.793 148.455 134.625 149.873 138.623 150.466C142.621 151.06 146.698 150.815 150.597 149.749C154.496 148.683 158.13 146.818 161.27 144.273C164.41 141.727 166.986 138.557 168.836 134.963C170.685 131.369 171.768 127.43 172.014 123.396C172.261 119.362 171.666 115.32 170.268 111.528C169.537 111.618 168.798 111.618 168.067 111.528Z" fill="#694827"/>
<path d="M119.854 94.6912C126.12 94.6912 131.199 89.6116 131.199 83.3456C131.199 77.0796 126.12 72 119.854 72C113.588 72 108.508 77.0796 108.508 83.3456C108.508 89.6116 113.588 94.6912 119.854 94.6912Z" fill="#042039"/>
<path d="M124.907 117.938C123.681 117.996 122.524 118.523 121.677 119.412C120.83 120.3 120.357 121.48 120.357 122.708C120.357 123.935 120.83 125.115 121.677 126.003C122.524 126.892 123.681 127.42 124.907 127.478" stroke="#042039" stroke-miterlimit="10" stroke-linecap="round"/>
<path d="M161.273 118.515C162.672 120.384 166.272 123.653 161.273 127.125" stroke="#042039" stroke-miterlimit="10" stroke-linecap="round"/>
<path d="M146.113 129.689C146.113 131.089 146.711 134.433 149.713 135.298" stroke="#042039" stroke-miterlimit="10" stroke-linecap="round"/>
<path d="M136.808 129.988C139.239 129.988 141.209 128.965 141.209 127.702C141.209 126.44 139.239 125.416 136.808 125.416C134.377 125.416 132.406 126.44 132.406 127.702C132.406 128.965 134.377 129.988 136.808 129.988Z" fill="#AA8053"/>
<path d="M169.531 129.988C171.962 129.988 173.932 128.965 173.932 127.702C173.932 126.44 171.962 125.416 169.531 125.416C167.1 125.416 165.129 126.44 165.129 127.702C165.129 128.965 167.1 129.988 169.531 129.988Z" fill="#AA8053"/>
<path d="M199.305 243.616L228.994 235.978C231.846 240.796 245.734 288.486 245.734 288.486L199.903 307.801C200.501 298.763 202.307 257.462 199.305 243.616Z" fill="#694827"/>
<path d="M95.2073 236.148C95.2073 239.738 92.184 253.402 90.3999 259.823" stroke="#042039" stroke-miterlimit="10" stroke-linecap="round"/>
<path d="M199.305 243.616C198.589 237.964 194.401 206.117 187.276 189.355" stroke="#042039" stroke-miterlimit="10" stroke-linecap="round"/>
<path d="M199.305 243.616L228.994 235.978C231.846 240.796 245.734 288.486 245.734 288.486L199.903 307.801C200.501 298.763 202.307 257.462 199.305 243.616Z" fill="#694827"/>
<path d="M355.836 291.477H255.232L279.184 228.008H379.788L355.836 291.477Z" fill="#0C3559"/>
<path d="M272.004 289.084H171.4V291.477H272.004V289.084Z" fill="#0C3559"/>
<path d="M90.3999 259.822C88.4662 267.076 79.0329 298.015 82.9216 303.335C86.8103 308.656 182.532 296.562 208.161 288.592C214.689 286.456 219.528 280.847 222.423 280.131C226.132 279.506 229.941 280.269 233.122 282.275C236.303 284.282 238.633 287.39 239.666 291.007C229.432 295.964 81.661 371.409 33.7787 337.831C24.73 331.389 40.616 252.333 41.3317 248.338C49.419 249.342 90.3999 259.822 90.3999 259.822Z" fill="#694827"/>
<path d="M200.672 290.579C203.557 289.895 206.078 289.233 208.151 288.592C214.678 286.455 219.518 280.847 222.413 280.131C226.123 279.502 229.935 280.264 233.118 282.271C236.302 284.278 238.633 287.388 239.666 291.006" stroke="#042039" stroke-miterlimit="10" stroke-linecap="round"/>
</g>
</svg>
